<?xml version="1.0" encoding="UTF-8" standalone="no" ?>
<!DOCTYPE sesx>
<sesx version="1.0">

  <session appVersion="5.0" audioChannelType="stereo" bitDepth="16" duration="24141900" sampleRate="44100">
    <name>dark horse acapella.sesx</name>
    <tracks>
      <audioTrack automationLaneOpenState="false" id="10001" index="1" select="false" visible="true">
        <trackParameters trackHeight="129">
          <name>ORIGINAL</name>
        </trackParameters>
        <trackAudioParameters audioChannelType="stereo" automationMode="1" monitoring="false" recordArmed="false" solo="false" soloSafe="false">
          <trackOutput outputID="10000" type="trackID"/>
          <trackInput inputID="1"/>
          <component componentID="Audition.Fader" id="trackFader" name="volume" powered="true">
            <parameter index="0" name="volume" parameterValue="0.3162277"/>
            <parameter index="1" name="static gain" parameterValue="1"/>
          </component>
          <component componentID="Audition.Mute" id="trackMute" name="Mute" powered="true">
            <parameter index="0" parameterValue="0"/>
            <parameter index="1" name="mute" parameterValue="1"/>
          </component>
          <component componentID="Audition.StereoPanner" id="trackPan" name="StereoPanner" powered="true">
            <parameter index="0" name="Panorámica" parameterValue="0"/>
          </component>
          <component componentID="Audition.EQ" id="trackEQ" name="EQ" powered="false">
            <parameter index="0" name="Frecuencia estante inferior" parameterValue="0.0009079"/>
            <parameter index="1" name="Ganancia estante inferior" parameterValue="0.5"/>
            <parameter index="2" name="Frecuencia estante superior" parameterValue="0.8161598"/>
            <parameter index="3" name="Ganancia estante superior" parameterValue="0.5"/>
            <parameter index="4" name="Frecuencia central de banda de EC 1" parameterValue="0.0013618"/>
            <parameter index="5" name="Valor Q de banda de EC 1" parameterValue="0.0002"/>
            <parameter index="6" name="Ganancia de banda de EC 1" parameterValue="0.5"/>
            <parameter index="7" name="Activación de banda de EC 1" parameterValue="1"/>
            <parameter index="8" name="Frecuencia central de banda de EC 2" parameterValue="0.0081707"/>
            <parameter index="9" name="Valor Q de banda de EC 2" parameterValue="0.0002"/>
            <parameter index="10" name="Ganancia de banda de EC 2" parameterValue="0.5"/>
            <parameter index="11" name="Activación de banda de EC 2" parameterValue="1"/>
            <parameter index="12" name="Frecuencia central de banda de EC 3" parameterValue="0.0354063"/>
            <parameter index="13" name="Valor Q de banda de EC 3" parameterValue="0.0002"/>
            <parameter index="14" name="Ganancia de banda de EC 3" parameterValue="0.5"/>
            <parameter index="15" name="Activación de banda de EC 3" parameterValue="1"/>
            <parameter index="16" name="Frecuencia central de banda de EC 4" parameterValue="0.1443486"/>
            <parameter index="17" name="Valor Q de banda de EC 4" parameterValue="0.0002"/>
            <parameter index="18" name="Ganancia de banda de EC 4" parameterValue="0.5"/>
            <parameter index="19" name="Activación de banda de EC 4" parameterValue="1"/>
            <parameter index="20" name="Frecuencia central de banda de EC 5" parameterValue="0.580118"/>
            <parameter index="21" name="Valor Q de banda de EC 5" parameterValue="0.0002"/>
            <parameter index="22" name="Ganancia de banda de EC 5" parameterValue="0.5"/>
            <parameter index="23" name="Activación de banda de EC 5" parameterValue="1"/>
            <parameter index="24" name="Ganancia maestra" parameterValue="0.6666667"/>
            <parameter index="25" name="Constant Q" parameterValue="1"/>
            <parameter index="26" name="Orden de filtro de estante inferior" parameterValue="0"/>
            <parameter index="27" name="Orden de filtro de estante superior" parameterValue="0"/>
            <parameter index="28" name="Modo ultrasilencioso" parameterValue="0"/>
            <parameter index="29" name="Activar estante inferior" parameterValue="1"/>
            <parameter index="30" name="Activar estante superior" parameterValue="1"/>
            <parameter index="31" name="Velocidad de muestreo original" parameterValue="0.2296875"/>
            <parameter index="32" name="Ancho de banda de EC 1" parameterValue="0.0025"/>
            <parameter index="33" name="Ancho de banda de EC 2" parameterValue="0.01"/>
            <parameter index="34" name="Ancho de banda de EC 3" parameterValue="0.04"/>
            <parameter index="35" name="Ancho de banda de EC 4" parameterValue="0.16"/>
            <parameter index="36" name="Ancho de banda de EC 5" parameterValue="0.64"/>
            <parameter index="37" name="Activación de filtro de pase alto" parameterValue="0"/>
            <parameter index="38" name="Frecuencia de límite de paso alto" parameterValue="0"/>
            <parameter index="39" name="Pendiente de paso alto" parameterValue="4"/>
            <parameter index="40" name="Activación de filtro de pase bajo" parameterValue="0"/>
            <parameter index="41" name="Frecuencia de límite de paso bajo" parameterValue="0.906945"/>
            <parameter index="42" name="Pendiente de paso bajo" parameterValue="4"/>
            <parameter index="43" name="Omitir" parameterValue="0"/>
            <parameter index="44" name="Rango de gráfico bajo" parameterValue="1"/>
          </component>
        </trackAudioParameters>
        <editParameter parameterIndex="0" slotIndex="4294967280"/>
        <sendList>
          <sendSlot preFader="false" sendOutputID="0" slotIndex="0">
            <component id="sendComponent" powered="false">
              <parameter index="0" name="Encendido/Apagado" parameterValue="0"/>
              <parameter index="1" name="Nivel" parameterValue="0"/>
            </component>
            <component id="sendPan" powered="true"/>
          </sendSlot>
          <sendSlot preFader="false" sendOutputID="0" slotIndex="1">
            <component id="sendComponent" powered="false">
              <parameter index="0" name="Encendido/Apagado" parameterValue="0"/>
              <parameter index="1" name="Nivel" parameterValue="0"/>
            </component>
            <component id="sendPan" powered="true"/>
          </sendSlot>
          <sendSlot preFader="false" sendOutputID="0" slotIndex="2">
            <component id="sendComponent" powered="false">
              <parameter index="0" name="Encendido/Apagado" parameterValue="0"/>
              <parameter index="1" name="Nivel" parameterValue="0"/>
            </component>
            <component id="sendPan" powered="true"/>
          </sendSlot>
          <sendSlot preFader="false" sendOutputID="0" slotIndex="3">
            <component id="sendComponent" powered="false">
              <parameter index="0" name="Encendido/Apagado" parameterValue="0"/>
              <parameter index="1" name="Nivel" parameterValue="0"/>
            </component>
            <component id="sendPan" powered="true"/>
          </sendSlot>
          <sendSlot preFader="false" sendOutputID="0" slotIndex="4">
            <component id="sendComponent" powered="false">
              <parameter index="0" name="Encendido/Apagado" parameterValue="0"/>
              <parameter index="1" name="Nivel" parameterValue="0"/>
            </component>
            <component id="sendPan" powered="true"/>
          </sendSlot>
          <sendSlot preFader="false" sendOutputID="0" slotIndex="5">
            <component id="sendComponent" powered="false">
              <parameter index="0" name="Encendido/Apagado" parameterValue="0"/>
              <parameter index="1" name="Nivel" parameterValue="0"/>
            </component>
            <component id="sendPan" powered="true"/>
          </sendSlot>
          <sendSlot preFader="false" sendOutputID="0" slotIndex="6">
            <component id="sendComponent" powered="false">
              <parameter index="0" name="Encendido/Apagado" parameterValue="0"/>
              <parameter index="1" name="Nivel" parameterValue="0"/>
            </component>
            <component id="sendPan" powered="true"/>
          </sendSlot>
          <sendSlot preFader="false" sendOutputID="0" slotIndex="7">
            <component id="sendComponent" powered="false">
              <parameter index="0" name="Encendido/Apagado" parameterValue="0"/>
              <parameter index="1" name="Nivel" parameterValue="0"/>
            </component>
            <component id="sendPan" powered="true"/>
          </sendSlot>
          <sendSlot preFader="false" sendOutputID="0" slotIndex="8">
            <component id="sendComponent" powered="false">
              <parameter index="0" name="Encendido/Apagado" parameterValue="0"/>
              <parameter index="1" name="Nivel" parameterValue="0"/>
            </component>
            <component id="sendPan" powered="true"/>
          </sendSlot>
          <sendSlot preFader="false" sendOutputID="0" slotIndex="9">
            <component id="sendComponent" powered="false">
              <parameter index="0" name="Encendido/Apagado" parameterValue="0"/>
              <parameter index="1" name="Nivel" parameterValue="0"/>
            </component>
            <component id="sendPan" powered="true"/>
          </sendSlot>
          <sendSlot preFader="false" sendOutputID="0" slotIndex="10">
            <component id="sendComponent" powered="false">
              <parameter index="0" name="Encendido/Apagado" parameterValue="0"/>
              <parameter index="1" name="Nivel" parameterValue="0"/>
            </component>
            <component id="sendPan" powered="true"/>
          </sendSlot>
          <sendSlot preFader="false" sendOutputID="0" slotIndex="11">
            <component id="sendComponent" powered="false">
              <parameter index="0" name="Encendido/Apagado" parameterValue="0"/>
              <parameter index="1" name="Nivel" parameterValue="0"/>
            </component>
            <component id="sendPan" powered="true"/>
          </sendSlot>
          <sendSlot preFader="false" sendOutputID="0" slotIndex="12">
            <component id="sendComponent" powered="false">
              <parameter index="0" name="Encendido/Apagado" parameterValue="0"/>
              <parameter index="1" name="Nivel" parameterValue="0"/>
            </component>
            <component id="sendPan" powered="true"/>
          </sendSlot>
          <sendSlot preFader="false" sendOutputID="0" slotIndex="13">
            <component id="sendComponent" powered="false">
              <parameter index="0" name="Encendido/Apagado" parameterValue="0"/>
              <parameter index="1" name="Nivel" parameterValue="0"/>
            </component>
            <component id="sendPan" powered="true"/>
          </sendSlot>
          <sendSlot preFader="false" sendOutputID="0" slotIndex="14">
            <component id="sendComponent" powered="false">
              <parameter index="0" name="Encendido/Apagado" parameterValue="0"/>
              <parameter index="1" name="Nivel" parameterValue="0"/>
            </component>
            <component id="sendPan" powered="true"/>
          </sendSlot>
          <sendSlot preFader="false" sendOutputID="0" slotIndex="15">
            <component id="sendComponent" powered="false">
              <parameter index="0" name="Encendido/Apagado" parameterValue="0"/>
              <parameter index="1" name="Nivel" parameterValue="0"/>
            </component>
            <component id="sendPan" powered="true"/>
          </sendSlot>
        </sendList>
        <audioClip clipAutoCrossfade="true" crossFadeHeadClipID="-1" crossFadeTailClipID="-1" endPoint="9507456" fileID="0" hue="-1" id="0" lockedInTime="true" looped="false" name="Dark Horse (Feat Juicy J)" offline="false" select="false" sourceInPoint="0" sourceOutPoint="9507456" startPoint="0" zOrder="35734">
          <component componentID="Audition.Fader" id="clipGain" name="volume" powered="true">
            <parameter index="0" name="volume" parameterValue="1">
              <parameterKeyframes enableSplines="false">
                <parameterKeyframe sampleOffset="86891" select="false" type="linear" value="0.65"/>
              </parameterKeyframes>
            </parameter>
            <parameter index="1" name="static gain" parameterValue="1"/>
          </component>
          <component componentID="Audition.Mute" id="clipMute" name="Mute" powered="true">
            <parameter index="0" parameterValue="0"/>
            <parameter index="1" name="mute" parameterValue="0"/>
          </component>
          <component componentID="Audition.StereoPanner" id="clipPan" name="StereoPanner" powered="true">
            <parameter index="0" name="Panorámica" parameterValue="0">
              <parameterKeyframes enableSplines="false">
                <parameterKeyframe sampleOffset="4524692" select="false" type="linear" value="0.5"/>
              </parameterKeyframes>
            </parameter>
          </component>
          <fadeIn crossFadeLinkType="linkedAsymmetric" endPoint="0" shape="0" startPoint="0" type="cosine"/>
          <fadeOut crossFadeLinkType="linkedAsymmetric" endPoint="9507456" shape="0" startPoint="9507456" type="cosine"/>
          <editParameter parameterIndex="0" slotIndex="4294967280"/>
          <editParameter parameterIndex="0" slotIndex="4294967281"/>
          <channelMap>
            <channel index="0" sourceIndex="0"/>
            <channel index="1" sourceIndex="1"/>
          </channelMap>
        </audioClip>
        <audioClip clipAutoCrossfade="true" crossFadeHeadClipID="-1" crossFadeTailClipID="-1" endPoint="629812" fileID="1" hue="-1" id="1" lockedInTime="false" looped="false" name="Sam Smith   Writing's On The Wall (from Spectre)[1]" offline="false" select="false" sourceInPoint="4565006" sourceOutPoint="5175854" startPoint="18964" zOrder="35541">
          <component componentID="Audition.Fader" id="clipGain" name="volume" powered="true">
            <parameter index="0" name="volume" parameterValue="1"/>
            <parameter index="1" name="static gain" parameterValue="1"/>
          </component>
          <component componentID="Audition.Mute" id="clipMute" name="Mute" powered="true">
            <parameter index="0" parameterValue="0"/>
            <parameter index="1" name="mute" parameterValue="0"/>
          </component>
          <component componentID="Audition.StereoPanner" id="clipPan" name="StereoPanner" powered="true">
            <parameter index="0" name="Panorámica" parameterValue="0"/>
          </component>
          <fadeIn crossFadeLinkType="linkedAsymmetric" endPoint="0" shape="0" startPoint="0" type="cosine"/>
          <fadeOut crossFadeLinkType="linkedAsymmetric" endPoint="610848" shape="0" startPoint="610848" type="cosine"/>
          <editParameter parameterIndex="0" slotIndex="4294967281"/>
          <editParameter parameterIndex="0" slotIndex="4294967280"/>
          <channelMap>
            <channel index="0" sourceIndex="0"/>
            <channel index="1" sourceIndex="1"/>
          </channelMap>
        </audioClip>
        <audioClip clipAutoCrossfade="true" crossFadeHeadClipID="-1" crossFadeTailClipID="-1" endPoint="20065500" fileID="1" hue="-1" id="2" lockedInTime="false" looped="false" name="Sam Smith   Writing's On The Wall (from Spectre)[1]" offline="false" select="false" sourceInPoint="4508133" sourceOutPoint="5210740" startPoint="19362893" zOrder="35540">
          <component componentID="Audition.Fader" id="clipGain" name="volume" powered="true">
            <parameter index="0" name="volume" parameterValue="1">
              <parameterKeyframes enableSplines="false">
                <parameterKeyframe sampleOffset="4645750" select="false" type="linear" value="0.65"/>
                <parameterKeyframe sampleOffset="5161010" select="false" type="linear" value="0.65"/>
              </parameterKeyframes>
            </parameter>
            <parameter index="1" name="static gain" parameterValue="1"/>
          </component>
          <component componentID="Audition.Mute" id="clipMute" name="Mute" powered="true">
            <parameter index="0" parameterValue="0"/>
            <parameter index="1" name="mute" parameterValue="0"/>
          </component>
          <component componentID="Audition.StereoPanner" id="clipPan" name="StereoPanner" powered="true">
            <parameter index="0" name="Panorámica" parameterValue="0"/>
          </component>
          <fadeIn crossFadeLinkType="linkedAsymmetric" endPoint="0" shape="0" startPoint="0" type="cosine"/>
          <fadeOut crossFadeLinkType="linkedAsymmetric" endPoint="702607" shape="0" startPoint="702607" type="cosine"/>
          <editParameter parameterIndex="0" slotIndex="4294967281"/>
          <editParameter parameterIndex="0" slotIndex="4294967280"/>
          <channelMap>
            <channel index="0" sourceIndex="0"/>
            <channel index="1" sourceIndex="1"/>
          </channelMap>
        </audioClip>
        <audioClip clipAutoCrossfade="true" crossFadeHeadClipID="-1" crossFadeTailClipID="-1" endPoint="21947182" fileID="1" hue="-1" id="3" lockedInTime="false" looped="false" name="Sam Smith   Writing's On The Wall (from Spectre)[1]" offline="false" select="false" sourceInPoint="4565006" sourceOutPoint="5175854" startPoint="21336334" zOrder="35438">
          <component componentID="Audition.Fader" id="clipGain" name="volume" powered="true">
            <parameter index="0" name="volume" parameterValue="1"/>
            <parameter index="1" name="static gain" parameterValue="1"/>
          </component>
          <component componentID="Audition.Mute" id="clipMute" name="Mute" powered="true">
            <parameter index="0" parameterValue="0"/>
            <parameter index="1" name="mute" parameterValue="0"/>
          </component>
          <component componentID="Audition.StereoPanner" id="clipPan" name="StereoPanner" powered="true">
            <parameter index="0" name="Panorámica" parameterValue="0"/>
          </component>
          <fadeIn crossFadeLinkType="linkedAsymmetric" endPoint="0" shape="0" startPoint="0" type="cosine"/>
          <fadeOut crossFadeLinkType="linkedAsymmetric" endPoint="610848" shape="0" startPoint="610848" type="cosine"/>
          <editParameter parameterIndex="0" slotIndex="4294967281"/>
          <editParameter parameterIndex="0" slotIndex="4294967280"/>
          <channelMap>
            <channel index="0" sourceIndex="0"/>
            <channel index="1" sourceIndex="1"/>
          </channelMap>
        </audioClip>
      </audioTrack>
      <audioTrack automationLaneOpenState="false" id="10011" index="2" select="true" visible="true">
        <trackParameters trackHeight="129">
          <name>MIDI</name>
        </trackParameters>
        <trackAudioParameters audioChannelType="stereo" automationMode="1" monitoring="false" recordArmed="false" solo="false" soloSafe="false">
          <trackOutput outputID="10000" type="trackID"/>
          <trackInput inputID="1"/>
          <component componentID="Audition.Fader" id="trackFader" name="volume" powered="true">
            <parameter index="0" name="volume" parameterValue="1"/>
            <parameter index="1" name="static gain" parameterValue="1"/>
          </component>
          <component componentID="Audition.Mute" id="trackMute" name="Mute" powered="true">
            <parameter index="0" parameterValue="0"/>
            <parameter index="1" name="mute" parameterValue="1"/>
          </component>
          <component componentID="Audition.StereoPanner" id="trackPan" name="StereoPanner" powered="true">
            <parameter index="0" name="Panorámica" parameterValue="0"/>
          </component>
          <component componentID="Audition.EQ" id="trackEQ" name="EQ" powered="false">
            <parameter index="0" name="Frecuencia estante inferior" parameterValue="0.0009079"/>
            <parameter index="1" name="Ganancia estante inferior" parameterValue="0.5"/>
            <parameter index="2" name="Frecuencia estante superior" parameterValue="0.8161598"/>
            <parameter index="3" name="Ganancia estante superior" parameterValue="0.5"/>
            <parameter index="4" name="Frecuencia central de banda de EC 1" parameterValue="0.0013618"/>
            <parameter index="5" name="Valor Q de banda de EC 1" parameterValue="0.0002"/>
            <parameter index="6" name="Ganancia de banda de EC 1" parameterValue="0.5"/>
            <parameter index="7" name="Activación de banda de EC 1" parameterValue="1"/>
            <parameter index="8" name="Frecuencia central de banda de EC 2" parameterValue="0.0081707"/>
            <parameter index="9" name="Valor Q de banda de EC 2" parameterValue="0.0002"/>
            <parameter index="10" name="Ganancia de banda de EC 2" parameterValue="0.5"/>
            <parameter index="11" name="Activación de banda de EC 2" parameterValue="1"/>
            <parameter index="12" name="Frecuencia central de banda de EC 3" parameterValue="0.0354063"/>
            <parameter index="13" name="Valor Q de banda de EC 3" parameterValue="0.0002"/>
            <parameter index="14" name="Ganancia de banda de EC 3" parameterValue="0.5"/>
            <parameter index="15" name="Activación de banda de EC 3" parameterValue="1"/>
            <parameter index="16" name="Frecuencia central de banda de EC 4" parameterValue="0.1443486"/>
            <parameter index="17" name="Valor Q de banda de EC 4" parameterValue="0.0002"/>
            <parameter index="18" name="Ganancia de banda de EC 4" parameterValue="0.5"/>
            <parameter index="19" name="Activación de banda de EC 4" parameterValue="1"/>
            <parameter index="20" name="Frecuencia central de banda de EC 5" parameterValue="0.580118"/>
            <parameter index="21" name="Valor Q de banda de EC 5" parameterValue="0.0002"/>
            <parameter index="22" name="Ganancia de banda de EC 5" parameterValue="0.5"/>
            <parameter index="23" name="Activación de banda de EC 5" parameterValue="1"/>
            <parameter index="24" name="Ganancia maestra" parameterValue="0.6666667"/>
            <parameter index="25" name="Constant Q" parameterValue="1"/>
            <parameter index="26" name="Orden de filtro de estante inferior" parameterValue="0"/>
            <parameter index="27" name="Orden de filtro de estante superior" parameterValue="0"/>
            <parameter index="28" name="Modo ultrasilencioso" parameterValue="0"/>
            <parameter index="29" name="Activar estante inferior" parameterValue="1"/>
            <parameter index="30" name="Activar estante superior" parameterValue="1"/>
            <parameter index="31" name="Velocidad de muestreo original" parameterValue="0.2296875"/>
            <parameter index="32" name="Ancho de banda de EC 1" parameterValue="0.0025"/>
            <parameter index="33" name="Ancho de banda de EC 2" parameterValue="0.01"/>
            <parameter index="34" name="Ancho de banda de EC 3" parameterValue="0.04"/>
            <parameter index="35" name="Ancho de banda de EC 4" parameterValue="0.16"/>
            <parameter index="36" name="Ancho de banda de EC 5" parameterValue="0.64"/>
            <parameter index="37" name="Activación de filtro de pase alto" parameterValue="0"/>
            <parameter index="38" name="Frecuencia de límite de paso alto" parameterValue="0"/>
            <parameter index="39" name="Pendiente de paso alto" parameterValue="4"/>
            <parameter index="40" name="Activación de filtro de pase bajo" parameterValue="0"/>
            <parameter index="41" name="Frecuencia de límite de paso bajo" parameterValue="0.906945"/>
            <parameter index="42" name="Pendiente de paso bajo" parameterValue="4"/>
            <parameter index="43" name="Omitir" parameterValue="0"/>
            <parameter index="44" name="Rango de gráfico bajo" parameterValue="1"/>
          </component>
        </trackAudioParameters>
        <editParameter parameterIndex="0" slotIndex="4294967280"/>
        <sendList>
          <sendSlot preFader="false" sendOutputID="0" slotIndex="0">
            <component id="sendComponent" powered="false">
              <parameter index="0" name="Encendido/Apagado" parameterValue="0"/>
              <parameter index="1" name="Nivel" parameterValue="0"/>
            </component>
            <component id="sendPan" powered="true"/>
          </sendSlot>
          <sendSlot preFader="false" sendOutputID="0" slotIndex="1">
            <component id="sendComponent" powered="false">
              <parameter index="0" name="Encendido/Apagado" parameterValue="0"/>
              <parameter index="1" name="Nivel" parameterValue="0"/>
            </component>
            <component id="sendPan" powered="true"/>
          </sendSlot>
          <sendSlot preFader="false" sendOutputID="0" slotIndex="2">
            <component id="sendComponent" powered="false">
              <parameter index="0" name="Encendido/Apagado" parameterValue="0"/>
              <parameter index="1" name="Nivel" parameterValue="0"/>
            </component>
            <component id="sendPan" powered="true"/>
          </sendSlot>
          <sendSlot preFader="false" sendOutputID="0" slotIndex="3">
            <component id="sendComponent" powered="false">
              <parameter index="0" name="Encendido/Apagado" parameterValue="0"/>
              <parameter index="1" name="Nivel" parameterValue="0"/>
            </component>
            <component id="sendPan" powered="true"/>
          </sendSlot>
          <sendSlot preFader="false" sendOutputID="0" slotIndex="4">
            <component id="sendComponent" powered="false">
              <parameter index="0" name="Encendido/Apagado" parameterValue="0"/>
              <parameter index="1" name="Nivel" parameterValue="0"/>
            </component>
            <component id="sendPan" powered="true"/>
          </sendSlot>
          <sendSlot preFader="false" sendOutputID="0" slotIndex="5">
            <component id="sendComponent" powered="false">
              <parameter index="0" name="Encendido/Apagado" parameterValue="0"/>
              <parameter index="1" name="Nivel" parameterValue="0"/>
            </component>
            <component id="sendPan" powered="true"/>
          </sendSlot>
          <sendSlot preFader="false" sendOutputID="0" slotIndex="6">
            <component id="sendComponent" powered="false">
              <parameter index="0" name="Encendido/Apagado" parameterValue="0"/>
              <parameter index="1" name="Nivel" parameterValue="0"/>
            </component>
            <component id="sendPan" powered="true"/>
          </sendSlot>
          <sendSlot preFader="false" sendOutputID="0" slotIndex="7">
            <component id="sendComponent" powered="false">
              <parameter index="0" name="Encendido/Apagado" parameterValue="0"/>
              <parameter index="1" name="Nivel" parameterValue="0"/>
            </component>
            <component id="sendPan" powered="true"/>
          </sendSlot>
          <sendSlot preFader="false" sendOutputID="0" slotIndex="8">
            <component id="sendComponent" powered="false">
              <parameter index="0" name="Encendido/Apagado" parameterValue="0"/>
              <parameter index="1" name="Nivel" parameterValue="0"/>
            </component>
            <component id="sendPan" powered="true"/>
          </sendSlot>
          <sendSlot preFader="false" sendOutputID="0" slotIndex="9">
            <component id="sendComponent" powered="false">
              <parameter index="0" name="Encendido/Apagado" parameterValue="0"/>
              <parameter index="1" name="Nivel" parameterValue="0"/>
            </component>
            <component id="sendPan" powered="true"/>
          </sendSlot>
          <sendSlot preFader="false" sendOutputID="0" slotIndex="10">
            <component id="sendComponent" powered="false">
              <parameter index="0" name="Encendido/Apagado" parameterValue="0"/>
              <parameter index="1" name="Nivel" parameterValue="0"/>
            </component>
            <component id="sendPan" powered="true"/>
          </sendSlot>
          <sendSlot preFader="false" sendOutputID="0" slotIndex="11">
            <component id="sendComponent" powered="false">
              <parameter index="0" name="Encendido/Apagado" parameterValue="0"/>
              <parameter index="1" name="Nivel" parameterValue="0"/>
            </component>
            <component id="sendPan" powered="true"/>
          </sendSlot>
          <sendSlot preFader="false" sendOutputID="0" slotIndex="12">
            <component id="sendComponent" powered="false">
              <parameter index="0" name="Encendido/Apagado" parameterValue="0"/>
              <parameter index="1" name="Nivel" parameterValue="0"/>
            </component>
            <component id="sendPan" powered="true"/>
          </sendSlot>
          <sendSlot preFader="false" sendOutputID="0" slotIndex="13">
            <component id="sendComponent" powered="false">
              <parameter index="0" name="Encendido/Apagado" parameterValue="0"/>
              <parameter index="1" name="Nivel" parameterValue="0"/>
            </component>
            <component id="sendPan" powered="true"/>
          </sendSlot>
          <sendSlot preFader="false" sendOutputID="0" slotIndex="14">
            <component id="sendComponent" powered="false">
              <parameter index="0" name="Encendido/Apagado" parameterValue="0"/>
              <parameter index="1" name="Nivel" parameterValue="0"/>
            </component>
            <component id="sendPan" powered="true"/>
          </sendSlot>
          <sendSlot preFader="false" sendOutputID="0" slotIndex="15">
            <component id="sendComponent" powered="false">
              <parameter index="0" name="Encendido/Apagado" parameterValue="0"/>
              <parameter index="1" name="Nivel" parameterValue="0"/>
            </component>
            <component id="sendPan" powered="true"/>
          </sendSlot>
        </sendList>
        <audioClip clipAutoCrossfade="true" crossFadeHeadClipID="-1" crossFadeTailClipID="-1" endPoint="9315627" fileID="2" hue="-1" id="0" lockedInTime="true" looped="false" name="dark_horse_midi" offline="false" select="false" sourceInPoint="0" sourceOutPoint="9281551" startPoint="34076" zOrder="45498">
          <component componentID="Audition.Fader" id="clipGain" name="volume" powered="true">
            <parameter index="0" name="volume" parameterValue="1">
              <parameterKeyframes enableSplines="false">
                <parameterKeyframe sampleOffset="557420" select="false" type="linear" value="0.65"/>
                <parameterKeyframe sampleOffset="1110781" select="false" type="linear" value="0.65"/>
                <parameterKeyframe sampleOffset="1232156" select="false" type="linear" value="0.65"/>
                <parameterKeyframe sampleOffset="2353883" select="false" type="linear" value="0.65"/>
              </parameterKeyframes>
            </parameter>
            <parameter index="1" name="static gain" parameterValue="1"/>
          </component>
          <component componentID="Audition.Mute" id="clipMute" name="Mute" powered="true">
            <parameter index="0" parameterValue="0"/>
            <parameter index="1" name="mute" parameterValue="0"/>
          </component>
          <component componentID="Audition.StereoPanner" id="clipPan" name="StereoPanner" powered="true">
            <parameter index="0" name="Panorámica" parameterValue="0">
              <parameterKeyframes enableSplines="false">
                <parameterKeyframe sampleOffset="840345" select="false" type="linear" value="0.5"/>
                <parameterKeyframe sampleOffset="902823" select="false" type="linear" value="0.5"/>
                <parameterKeyframe sampleOffset="1258805" select="false" type="linear" value="0.5"/>
              </parameterKeyframes>
            </parameter>
          </component>
          <fadeIn crossFadeLinkType="linkedAsymmetric" endPoint="0" shape="0" startPoint="0" type="cosine"/>
          <fadeOut crossFadeLinkType="linkedAsymmetric" endPoint="9281551" shape="0" startPoint="9281551" type="cosine"/>
          <editParameter parameterIndex="0" slotIndex="4294967281"/>
          <editParameter parameterIndex="0" slotIndex="4294967280"/>
          <channelMap>
            <channel index="0" sourceIndex="0"/>
            <channel index="1" sourceIndex="1"/>
          </channelMap>
        </audioClip>
        <audioClip clipAutoCrossfade="true" crossFadeHeadClipID="-1" crossFadeTailClipID="-1" endPoint="14251287" fileID="63" hue="-1" id="1" lockedInTime="false" looped="false" name="Katy Perry   Dark Horse (Studio Acapella)[1] 44100 1" offline="false" select="true" sourceInPoint="0" sourceOutPoint="4611095" startPoint="9640192" zOrder="46222">
          <component componentID="Audition.Fader" id="clipGain" name="volume" powered="true">
            <parameter index="0" name="volume" parameterValue="1"/>
            <parameter index="1" name="static gain" parameterValue="1"/>
          </component>
          <component componentID="Audition.Mute" id="clipMute" name="Mute" powered="true">
            <parameter index="0" parameterValue="0"/>
            <parameter index="1" name="mute" parameterValue="0"/>
          </component>
          <component componentID="Audition.StereoPanner" id="clipPan" name="StereoPanner" powered="true">
            <parameter index="0" name="Panorámica" parameterValue="0"/>
          </component>
          <fadeIn crossFadeLinkType="linkedAsymmetric" endPoint="0" shape="0" startPoint="0" type="cosine"/>
          <fadeOut crossFadeLinkType="linkedAsymmetric" endPoint="4611095" shape="0" startPoint="4611095" type="cosine"/>
          <editParameter parameterIndex="0" slotIndex="4294967281"/>
          <editParameter parameterIndex="0" slotIndex="4294967280"/>
          <channelMap>
            <channel index="0" sourceIndex="0"/>
            <channel index="1" sourceIndex="1"/>
          </channelMap>
        </audioClip>
        <audioClip clipAutoCrossfade="true" crossFadeHeadClipID="-1" crossFadeTailClipID="-1" endPoint="20065500" fileID="3" hue="-1" id="2" lockedInTime="false" looped="false" name="cover15_007" offline="false" select="false" sourceInPoint="0" sourceOutPoint="661500" startPoint="19404000" zOrder="44703">
          <component componentID="Audition.Fader" id="clipGain" name="volume" powered="true">
            <parameter index="0" name="volume" parameterValue="1"/>
            <parameter index="1" name="static gain" parameterValue="1"/>
          </component>
          <component componentID="Audition.Mute" id="clipMute" name="Mute" powered="true">
            <parameter index="0" parameterValue="0"/>
            <parameter index="1" name="mute" parameterValue="0"/>
          </component>
          <component componentID="Audition.StereoPanner" id="clipPan" name="StereoPanner" powered="true">
            <parameter index="0" name="Panorámica" parameterValue="0"/>
          </component>
          <fadeIn crossFadeLinkType="linkedAsymmetric" endPoint="0" shape="0" startPoint="0" type="cosine"/>
          <fadeOut crossFadeLinkType="linkedAsymmetric" endPoint="661500" shape="0" startPoint="661500" type="cosine"/>
          <editParameter parameterIndex="0" slotIndex="4294967281"/>
          <editParameter parameterIndex="0" slotIndex="4294967280"/>
          <channelMap>
            <channel index="0" sourceIndex="0"/>
            <channel index="1" sourceIndex="1"/>
          </channelMap>
        </audioClip>
      </audioTrack>
      <audioTrack automationLaneOpenState="false" id="10024" index="3" select="false" visible="true">
        <trackParameters trackHeight="129">
          <name>OTHERS</name>
        </trackParameters>
        <trackAudioParameters audioChannelType="stereo" automationMode="1" monitoring="false" recordArmed="false" solo="false" soloSafe="false">
          <trackOutput outputID="10000" type="trackID"/>
          <trackInput inputID="4"/>
          <component componentID="Audition.Fader" id="trackFader" name="volume" powered="true">
            <parameter index="0" name="volume" parameterValue="1"/>
            <parameter index="1" name="static gain" parameterValue="1"/>
          </component>
          <component componentID="Audition.Mute" id="trackMute" name="Mute" powered="true">
            <parameter index="0" parameterValue="0"/>
            <parameter index="1" name="mute" parameterValue="0"/>
          </component>
          <component componentID="Audition.StereoPanner" id="trackPan" name="StereoPanner" powered="true">
            <parameter index="0" name="Panorámica" parameterValue="0"/>
          </component>
          <component componentID="Audition.EQ" id="trackEQ" name="EQ" powered="false">
            <parameter index="0" name="Frecuencia estante inferior" parameterValue="0.0009079"/>
            <parameter index="1" name="Ganancia estante inferior" parameterValue="0.5"/>
            <parameter index="2" name="Frecuencia estante superior" parameterValue="0.8161598"/>
            <parameter index="3" name="Ganancia estante superior" parameterValue="0.5"/>
            <parameter index="4" name="Frecuencia central de banda de EC 1" parameterValue="0.0013618"/>
            <parameter index="5" name="Valor Q de banda de EC 1" parameterValue="0.0002"/>
            <parameter index="6" name="Ganancia de banda de EC 1" parameterValue="0.5"/>
            <parameter index="7" name="Activación de banda de EC 1" parameterValue="1"/>
            <parameter index="8" name="Frecuencia central de banda de EC 2" parameterValue="0.0081707"/>
            <parameter index="9" name="Valor Q de banda de EC 2" parameterValue="0.0002"/>
            <parameter index="10" name="Ganancia de banda de EC 2" parameterValue="0.5"/>
            <parameter index="11" name="Activación de banda de EC 2" parameterValue="1"/>
            <parameter index="12" name="Frecuencia central de banda de EC 3" parameterValue="0.0354063"/>
            <parameter index="13" name="Valor Q de banda de EC 3" parameterValue="0.0002"/>
            <parameter index="14" name="Ganancia de banda de EC 3" parameterValue="0.5"/>
            <parameter index="15" name="Activación de banda de EC 3" parameterValue="1"/>
            <parameter index="16" name="Frecuencia central de banda de EC 4" parameterValue="0.1443486"/>
            <parameter index="17" name="Valor Q de banda de EC 4" parameterValue="0.0002"/>
            <parameter index="18" name="Ganancia de banda de EC 4" parameterValue="0.5"/>
            <parameter index="19" name="Activación de banda de EC 4" parameterValue="1"/>
            <parameter index="20" name="Frecuencia central de banda de EC 5" parameterValue="0.580118"/>
            <parameter index="21" name="Valor Q de banda de EC 5" parameterValue="0.0002"/>
            <parameter index="22" name="Ganancia de banda de EC 5" parameterValue="0.5"/>
            <parameter index="23" name="Activación de banda de EC 5" parameterValue="1"/>
            <parameter index="24" name="Ganancia maestra" parameterValue="0.6666667"/>
            <parameter index="25" name="Constant Q" parameterValue="1"/>
            <parameter index="26" name="Orden de filtro de estante inferior" parameterValue="0"/>
            <parameter index="27" name="Orden de filtro de estante superior" parameterValue="0"/>
            <parameter index="28" name="Modo ultrasilencioso" parameterValue="0"/>
            <parameter index="29" name="Activar estante inferior" parameterValue="1"/>
            <parameter index="30" name="Activar estante superior" parameterValue="1"/>
            <parameter index="31" name="Velocidad de muestreo original" parameterValue="0.2296875"/>
            <parameter index="32" name="Ancho de banda de EC 1" parameterValue="0.0025"/>
            <parameter index="33" name="Ancho de banda de EC 2" parameterValue="0.01"/>
            <parameter index="34" name="Ancho de banda de EC 3" parameterValue="0.04"/>
            <parameter index="35" name="Ancho de banda de EC 4" parameterValue="0.16"/>
            <parameter index="36" name="Ancho de banda de EC 5" parameterValue="0.64"/>
            <parameter index="37" name="Activación de filtro de pase alto" parameterValue="0"/>
            <parameter index="38" name="Frecuencia de límite de paso alto" parameterValue="0"/>
            <parameter index="39" name="Pendiente de paso alto" parameterValue="4"/>
            <parameter index="40" name="Activación de filtro de pase bajo" parameterValue="0"/>
            <parameter index="41" name="Frecuencia de límite de paso bajo" parameterValue="0.906945"/>
            <parameter index="42" name="Pendiente de paso bajo" parameterValue="4"/>
            <parameter index="43" name="Omitir" parameterValue="0"/>
            <parameter index="44" name="Rango de gráfico bajo" parameterValue="1"/>
          </component>
        </trackAudioParameters>
        <editParameter parameterIndex="0" slotIndex="4294967280"/>
        <sendList>
          <sendSlot preFader="false" sendOutputID="0" slotIndex="0">
            <component id="sendComponent" powered="false">
              <parameter index="0" name="Encendido/Apagado" parameterValue="0"/>
              <parameter index="1" name="Nivel" parameterValue="0"/>
            </component>
            <component id="sendPan" powered="true"/>
          </sendSlot>
          <sendSlot preFader="false" sendOutputID="0" slotIndex="1">
            <component id="sendComponent" powered="false">
              <parameter index="0" name="Encendido/Apagado" parameterValue="0"/>
              <parameter index="1" name="Nivel" parameterValue="0"/>
            </component>
            <component id="sendPan" powered="true"/>
          </sendSlot>
          <sendSlot preFader="false" sendOutputID="0" slotIndex="2">
            <component id="sendComponent" powered="false">
              <parameter index="0" name="Encendido/Apagado" parameterValue="0"/>
              <parameter index="1" name="Nivel" parameterValue="0"/>
            </component>
            <component id="sendPan" powered="true"/>
          </sendSlot>
          <sendSlot preFader="false" sendOutputID="0" slotIndex="3">
            <component id="sendComponent" powered="false">
              <parameter index="0" name="Encendido/Apagado" parameterValue="0"/>
              <parameter index="1" name="Nivel" parameterValue="0"/>
            </component>
            <component id="sendPan" powered="true"/>
          </sendSlot>
          <sendSlot preFader="false" sendOutputID="0" slotIndex="4">
            <component id="sendComponent" powered="false">
              <parameter index="0" name="Encendido/Apagado" parameterValue="0"/>
              <parameter index="1" name="Nivel" parameterValue="0"/>
            </component>
            <component id="sendPan" powered="true"/>
          </sendSlot>
          <sendSlot preFader="false" sendOutputID="0" slotIndex="5">
            <component id="sendComponent" powered="false">
              <parameter index="0" name="Encendido/Apagado" parameterValue="0"/>
              <parameter index="1" name="Nivel" parameterValue="0"/>
            </component>
            <component id="sendPan" powered="true"/>
          </sendSlot>
          <sendSlot preFader="false" sendOutputID="0" slotIndex="6">
            <component id="sendComponent" powered="false">
              <parameter index="0" name="Encendido/Apagado" parameterValue="0"/>
              <parameter index="1" name="Nivel" parameterValue="0"/>
            </component>
            <component id="sendPan" powered="true"/>
          </sendSlot>
          <sendSlot preFader="false" sendOutputID="0" slotIndex="7">
            <component id="sendComponent" powered="false">
              <parameter index="0" name="Encendido/Apagado" parameterValue="0"/>
              <parameter index="1" name="Nivel" parameterValue="0"/>
            </component>
            <component id="sendPan" powered="true"/>
          </sendSlot>
          <sendSlot preFader="false" sendOutputID="0" slotIndex="8">
            <component id="sendComponent" powered="false">
              <parameter index="0" name="Encendido/Apagado" parameterValue="0"/>
              <parameter index="1" name="Nivel" parameterValue="0"/>
            </component>
            <component id="sendPan" powered="true"/>
          </sendSlot>
          <sendSlot preFader="false" sendOutputID="0" slotIndex="9">
            <component id="sendComponent" powered="false">
              <parameter index="0" name="Encendido/Apagado" parameterValue="0"/>
              <parameter index="1" name="Nivel" parameterValue="0"/>
            </component>
            <component id="sendPan" powered="true"/>
          </sendSlot>
          <sendSlot preFader="false" sendOutputID="0" slotIndex="10">
            <component id="sendComponent" powered="false">
              <parameter index="0" name="Encendido/Apagado" parameterValue="0"/>
              <parameter index="1" name="Nivel" parameterValue="0"/>
            </component>
            <component id="sendPan" powered="true"/>
          </sendSlot>
          <sendSlot preFader="false" sendOutputID="0" slotIndex="11">
            <component id="sendComponent" powered="false">
              <parameter index="0" name="Encendido/Apagado" parameterValue="0"/>
              <parameter index="1" name="Nivel" parameterValue="0"/>
            </component>
            <component id="sendPan" powered="true"/>
          </sendSlot>
          <sendSlot preFader="false" sendOutputID="0" slotIndex="12">
            <component id="sendComponent" powered="false">
              <parameter index="0" name="Encendido/Apagado" parameterValue="0"/>
              <parameter index="1" name="Nivel" parameterValue="0"/>
            </component>
            <component id="sendPan" powered="true"/>
          </sendSlot>
          <sendSlot preFader="false" sendOutputID="0" slotIndex="13">
            <component id="sendComponent" powered="false">
              <parameter index="0" name="Encendido/Apagado" parameterValue="0"/>
              <parameter index="1" name="Nivel" parameterValue="0"/>
            </component>
            <component id="sendPan" powered="true"/>
          </sendSlot>
          <sendSlot preFader="false" sendOutputID="0" slotIndex="14">
            <component id="sendComponent" powered="false">
              <parameter index="0" name="Encendido/Apagado" parameterValue="0"/>
              <parameter index="1" name="Nivel" parameterValue="0"/>
            </component>
            <component id="sendPan" powered="true"/>
          </sendSlot>
          <sendSlot preFader="false" sendOutputID="0" slotIndex="15">
            <component id="sendComponent" powered="false">
              <parameter index="0" name="Encendido/Apagado" parameterValue="0"/>
              <parameter index="1" name="Nivel" parameterValue="0"/>
            </component>
            <component id="sendPan" powered="true"/>
          </sendSlot>
        </sendList>
        <audioClip clipAutoCrossfade="true" crossFadeHeadClipID="-1" crossFadeTailClipID="-1" endPoint="1956147" fileID="4" hue="-1" id="0" lockedInTime="false" looped="false" name="dark horse paso_caballo_estrofa" offline="false" select="false" sourceInPoint="0" sourceOutPoint="639717" startPoint="1316430" zOrder="44604">
          <component componentID="Audition.Fader" id="clipGain" name="volume" powered="true">
            <parameter index="0" name="volume" parameterValue="1.2075521"/>
            <parameter index="1" name="static gain" parameterValue="1"/>
          </component>
          <component componentID="Audition.Mute" id="clipMute" name="Mute" powered="true">
            <parameter index="0" parameterValue="0"/>
            <parameter index="1" name="mute" parameterValue="0"/>
          </component>
          <component componentID="Audition.StereoPanner" id="clipPan" name="StereoPanner" powered="true">
            <parameter index="0" name="Panorámica" parameterValue="0"/>
          </component>
          <fadeIn crossFadeLinkType="linkedAsymmetric" endPoint="0" shape="0" startPoint="0" type="cosine"/>
          <fadeOut crossFadeLinkType="linkedAsymmetric" endPoint="639717" shape="19" startPoint="639717" type="log"/>
          <editParameter parameterIndex="0" slotIndex="4294967281"/>
          <editParameter parameterIndex="0" slotIndex="4294967280"/>
          <channelMap>
            <channel index="0" sourceIndex="0"/>
            <channel index="1" sourceIndex="1"/>
          </channelMap>
        </audioClip>
        <audioClip clipAutoCrossfade="true" crossFadeHeadClipID="-1" crossFadeTailClipID="-1" endPoint="2041892" fileID="5" hue="-1" id="1" lockedInTime="false" looped="false" name="OTHERS_003" offline="false" select="false" sourceInPoint="17855" sourceOutPoint="103600" startPoint="1956147" zOrder="44703">
          <component componentID="Audition.Fader" id="clipGain" name="volume" powered="true">
            <parameter index="0" name="volume" parameterValue="1"/>
            <parameter index="1" name="static gain" parameterValue="1"/>
          </component>
          <component componentID="Audition.Mute" id="clipMute" name="Mute" powered="true">
            <parameter index="0" parameterValue="0"/>
            <parameter index="1" name="mute" parameterValue="0"/>
          </component>
          <component componentID="Audition.StereoPanner" id="clipPan" name="StereoPanner" powered="true">
            <parameter index="0" name="Panorámica" parameterValue="0"/>
          </component>
          <fadeIn crossFadeLinkType="linkedAsymmetric" endPoint="0" shape="18" startPoint="0" type="log"/>
          <fadeOut crossFadeLinkType="linkedAsymmetric" endPoint="85745" shape="0" startPoint="85745" type="cosine"/>
          <take sourceInPoint="0"/>
          <editParameter parameterIndex="0" slotIndex="4294967281"/>
          <editParameter parameterIndex="0" slotIndex="4294967280"/>
          <channelMap>
            <channel index="0" sourceIndex="0"/>
            <channel index="1" sourceIndex="1"/>
          </channelMap>
        </audioClip>
        <audioClip clipAutoCrossfade="true" crossFadeHeadClipID="-1" crossFadeTailClipID="-1" endPoint="3178373" fileID="6" hue="-1" id="2" lockedInTime="false" looped="false" name="dark horse hey_coro" offline="false" select="false" sourceInPoint="0" sourceOutPoint="547073" startPoint="2631300" zOrder="45151">
          <component componentID="Audition.Fader" id="clipGain" name="volume" powered="true">
            <parameter index="0" name="volume" parameterValue="0">
              <parameterKeyframes enableSplines="true">
                <parameterKeyframe sampleOffset="400130" select="false" type="linear" value="0.6133699"/>
                <parameterKeyframe sampleOffset="400131" select="false" type="linear" value="0.5804029"/>
              </parameterKeyframes>
            </parameter>
            <parameter index="1" name="static gain" parameterValue="1"/>
          </component>
          <component componentID="Audition.Mute" id="clipMute" name="Mute" powered="true">
            <parameter index="0" parameterValue="0"/>
            <parameter index="1" name="mute" parameterValue="0"/>
          </component>
          <component componentID="Audition.StereoPanner" id="clipPan" name="StereoPanner" powered="true">
            <parameter index="0" name="Panorámica" parameterValue="0"/>
          </component>
          <fadeIn crossFadeLinkType="linkedAsymmetric" endPoint="0" shape="19" startPoint="0" type="log"/>
          <fadeOut crossFadeLinkType="linkedAsymmetric" endPoint="547073" shape="19" startPoint="547073" type="log"/>
          <editParameter parameterIndex="0" slotIndex="4294967281"/>
          <editParameter parameterIndex="0" slotIndex="4294967280"/>
          <channelMap>
            <channel index="0" sourceIndex="0"/>
            <channel index="1" sourceIndex="1"/>
          </channelMap>
        </audioClip>
        <audioClip clipAutoCrossfade="true" crossFadeHeadClipID="-1" crossFadeTailClipID="-1" endPoint="3256089" fileID="7" hue="-1" id="3" lockedInTime="false" looped="false" name="OTHERS_008_2" offline="false" select="false" sourceInPoint="0" sourceOutPoint="77716" startPoint="3178373" zOrder="45153">
          <component componentID="Audition.Fader" id="clipGain" name="volume" powered="true">
            <parameter index="0" name="volume" parameterValue="0.8545294"/>
            <parameter index="1" name="static gain" parameterValue="1"/>
          </component>
          <component componentID="Audition.Mute" id="clipMute" name="Mute" powered="true">
            <parameter index="0" parameterValue="0"/>
            <parameter index="1" name="mute" parameterValue="0"/>
          </component>
          <component componentID="Audition.StereoPanner" id="clipPan" name="StereoPanner" powered="true">
            <parameter index="0" name="Panorámica" parameterValue="30.5555573"/>
          </component>
          <fadeIn crossFadeLinkType="linkedAsymmetric" endPoint="0" shape="0" startPoint="0" type="cosine"/>
          <fadeOut crossFadeLinkType="linkedAsymmetric" endPoint="77716" shape="0" startPoint="77716" type="cosine"/>
          <take sourceInPoint="0"/>
          <editParameter parameterIndex="0" slotIndex="4294967281"/>
          <editParameter parameterIndex="0" slotIndex="4294967280"/>
          <channelMap>
            <channel index="0" sourceIndex="0"/>
            <channel index="1" sourceIndex="1"/>
          </channelMap>
        </audioClip>
        <audioClip clipAutoCrossfade="true" crossFadeHeadClipID="-1" crossFadeTailClipID="-1" endPoint="4200276" fileID="4" hue="-1" id="4" lockedInTime="false" looped="false" name="dark horse paso_caballo_estrofa" offline="false" select="false" sourceInPoint="0" sourceOutPoint="639717" startPoint="3560559" zOrder="44594">
          <component componentID="Audition.Fader" id="clipGain" name="volume" powered="true">
            <parameter index="0" name="volume" parameterValue="1.2075521"/>
            <parameter index="1" name="static gain" parameterValue="1"/>
          </component>
          <component componentID="Audition.Mute" id="clipMute" name="Mute" powered="true">
            <parameter index="0" parameterValue="0"/>
            <parameter index="1" name="mute" parameterValue="0"/>
          </component>
          <component componentID="Audition.StereoPanner" id="clipPan" name="StereoPanner" powered="true">
            <parameter index="0" name="Panorámica" parameterValue="0"/>
          </component>
          <fadeIn crossFadeLinkType="linkedAsymmetric" endPoint="0" shape="0" startPoint="0" type="cosine"/>
          <fadeOut crossFadeLinkType="linkedAsymmetric" endPoint="639717" shape="19" startPoint="639717" type="log"/>
          <editParameter parameterIndex="0" slotIndex="4294967281"/>
          <editParameter parameterIndex="0" slotIndex="4294967280"/>
          <channelMap>
            <channel index="0" sourceIndex="0"/>
            <channel index="1" sourceIndex="1"/>
          </channelMap>
        </audioClip>
        <audioClip clipAutoCrossfade="true" crossFadeHeadClipID="-1" crossFadeTailClipID="-1" endPoint="4842409" fileID="4" hue="-1" id="5" lockedInTime="false" looped="false" name="dark horse paso_caballo_estrofa" offline="false" select="false" sourceInPoint="0" sourceOutPoint="639717" startPoint="4202692" zOrder="45250">
          <component componentID="Audition.Fader" id="clipGain" name="volume" powered="true">
            <parameter index="0" name="volume" parameterValue="1.2075521"/>
            <parameter index="1" name="static gain" parameterValue="1"/>
          </component>
          <component componentID="Audition.Mute" id="clipMute" name="Mute" powered="true">
            <parameter index="0" parameterValue="0"/>
            <parameter index="1" name="mute" parameterValue="0"/>
          </component>
          <component componentID="Audition.StereoPanner" id="clipPan" name="StereoPanner" powered="true">
            <parameter index="0" name="Panorámica" parameterValue="0"/>
          </component>
          <fadeIn crossFadeLinkType="linkedAsymmetric" endPoint="0" shape="0" startPoint="0" type="cosine"/>
          <fadeOut crossFadeLinkType="linkedAsymmetric" endPoint="639717" shape="19" startPoint="639717" type="log"/>
          <editParameter parameterIndex="0" slotIndex="4294967280"/>
          <editParameter parameterIndex="0" slotIndex="4294967281"/>
          <channelMap>
            <channel index="0" sourceIndex="0"/>
            <channel index="1" sourceIndex="1"/>
          </channelMap>
        </audioClip>
        <audioClip clipAutoCrossfade="true" crossFadeHeadClipID="-1" crossFadeTailClipID="-1" endPoint="6064635" fileID="6" hue="-1" id="6" lockedInTime="false" looped="false" name="dark horse hey_coro" offline="false" select="false" sourceInPoint="0" sourceOutPoint="547073" startPoint="5517562" zOrder="45612">
          <component componentID="Audition.Fader" id="clipGain" name="volume" powered="true">
            <parameter index="0" name="volume" parameterValue="0">
              <parameterKeyframes enableSplines="true">
                <parameterKeyframe sampleOffset="400130" select="false" type="linear" value="0.6133699"/>
                <parameterKeyframe sampleOffset="400131" select="false" type="linear" value="0.5804029"/>
              </parameterKeyframes>
            </parameter>
            <parameter index="1" name="static gain" parameterValue="1"/>
          </component>
          <component componentID="Audition.Mute" id="clipMute" name="Mute" powered="true">
            <parameter index="0" parameterValue="0"/>
            <parameter index="1" name="mute" parameterValue="0"/>
          </component>
          <component componentID="Audition.StereoPanner" id="clipPan" name="StereoPanner" powered="true">
            <parameter index="0" name="Panorámica" parameterValue="0"/>
          </component>
          <fadeIn crossFadeLinkType="linkedAsymmetric" endPoint="0" shape="19" startPoint="0" type="log"/>
          <fadeOut crossFadeLinkType="linkedAsymmetric" endPoint="547073" shape="19" startPoint="547073" type="log"/>
          <editParameter parameterIndex="0" slotIndex="4294967281"/>
          <editParameter parameterIndex="0" slotIndex="4294967280"/>
          <channelMap>
            <channel index="0" sourceIndex="0"/>
            <channel index="1" sourceIndex="1"/>
          </channelMap>
        </audioClip>
        <audioClip clipAutoCrossfade="true" crossFadeHeadClipID="-1" crossFadeTailClipID="-1" endPoint="6142351" fileID="7" hue="-1" id="7" lockedInTime="false" looped="false" name="OTHERS_008_2" offline="false" select="false" sourceInPoint="0" sourceOutPoint="77716" startPoint="6064635" zOrder="45610">
          <component componentID="Audition.Fader" id="clipGain" name="volume" powered="true">
            <parameter index="0" name="volume" parameterValue="0.8545294"/>
            <parameter index="1" name="static gain" parameterValue="1"/>
          </component>
          <component componentID="Audition.Mute" id="clipMute" name="Mute" powered="true">
            <parameter index="0" parameterValue="0"/>
            <parameter index="1" name="mute" parameterValue="0"/>
          </component>
          <component componentID="Audition.StereoPanner" id="clipPan" name="StereoPanner" powered="true">
            <parameter index="0" name="Panorámica" parameterValue="30.5555573"/>
          </component>
          <fadeIn crossFadeLinkType="linkedAsymmetric" endPoint="0" shape="0" startPoint="0" type="cosine"/>
          <fadeOut crossFadeLinkType="linkedAsymmetric" endPoint="77716" shape="0" startPoint="77716" type="cosine"/>
          <editParameter parameterIndex="0" slotIndex="4294967281"/>
          <editParameter parameterIndex="0" slotIndex="4294967280"/>
          <channelMap>
            <channel index="0" sourceIndex="0"/>
            <channel index="1" sourceIndex="1"/>
          </channelMap>
        </audioClip>
        <audioClip clipAutoCrossfade="true" crossFadeHeadClipID="-1" crossFadeTailClipID="-1" endPoint="6815607" fileID="8" hue="-1" id="8" lockedInTime="false" looped="false" name="OTHERS_004" offline="false" select="false" sourceInPoint="0" sourceOutPoint="46257" startPoint="6769350" zOrder="46181">
          <component componentID="Audition.Fader" id="clipGain" name="volume" powered="true">
            <parameter index="0" name="volume" parameterValue="1"/>
            <parameter index="1" name="static gain" parameterValue="1"/>
          </component>
          <component componentID="Audition.Mute" id="clipMute" name="Mute" powered="true">
            <parameter index="0" parameterValue="0"/>
            <parameter index="1" name="mute" parameterValue="0"/>
          </component>
          <component componentID="Audition.StereoPanner" id="clipPan" name="StereoPanner" powered="true">
            <parameter index="0" name="Panorámica" parameterValue="0"/>
          </component>
          <fadeIn crossFadeLinkType="linkedAsymmetric" endPoint="0" shape="0" startPoint="0" type="cosine"/>
          <fadeOut crossFadeLinkType="linkedAsymmetric" endPoint="46257" shape="19" startPoint="46257" type="log"/>
          <editParameter parameterIndex="0" slotIndex="4294967281"/>
          <editParameter parameterIndex="0" slotIndex="4294967280"/>
          <channelMap>
            <channel index="0" sourceIndex="0"/>
            <channel index="1" sourceIndex="1"/>
          </channelMap>
        </audioClip>
        <audioClip clipAutoCrossfade="true" crossFadeHeadClipID="-1" crossFadeTailClipID="-1" endPoint="6895822" fileID="8" hue="-1" id="9" lockedInTime="false" looped="false" name="OTHERS_004" offline="false" select="false" sourceInPoint="0" sourceOutPoint="46331" startPoint="6849491" zOrder="46186">
          <component componentID="Audition.Fader" id="clipGain" name="volume" powered="true">
            <parameter index="0" name="volume" parameterValue="1"/>
            <parameter index="1" name="static gain" parameterValue="1"/>
          </component>
          <component componentID="Audition.Mute" id="clipMute" name="Mute" powered="true">
            <parameter index="0" parameterValue="0"/>
            <parameter index="1" name="mute" parameterValue="0"/>
          </component>
          <component componentID="Audition.StereoPanner" id="clipPan" name="StereoPanner" powered="true">
            <parameter index="0" name="Panorámica" parameterValue="0"/>
          </component>
          <fadeIn crossFadeLinkType="linkedAsymmetric" endPoint="0" shape="0" startPoint="0" type="cosine"/>
          <fadeOut crossFadeLinkType="linkedAsymmetric" endPoint="46331" shape="19" startPoint="46331" type="log"/>
          <editParameter parameterIndex="0" slotIndex="4294967281"/>
          <editParameter parameterIndex="0" slotIndex="4294967280"/>
          <channelMap>
            <channel index="0" sourceIndex="0"/>
            <channel index="1" sourceIndex="1"/>
          </channelMap>
        </audioClip>
        <audioClip clipAutoCrossfade="true" crossFadeHeadClipID="-1" crossFadeTailClipID="-1" endPoint="7009415" fileID="8" hue="-1" id="10" lockedInTime="false" looped="false" name="OTHERS_004" offline="false" select="false" sourceInPoint="0" sourceOutPoint="79634" startPoint="6929781" zOrder="46177">
          <component componentID="Audition.Fader" id="clipGain" name="volume" powered="true">
            <parameter index="0" name="volume" parameterValue="1"/>
            <parameter index="1" name="static gain" parameterValue="1"/>
          </component>
          <component componentID="Audition.Mute" id="clipMute" name="Mute" powered="true">
            <parameter index="0" parameterValue="0"/>
            <parameter index="1" name="mute" parameterValue="0"/>
          </component>
          <component componentID="Audition.StereoPanner" id="clipPan" name="StereoPanner" powered="true">
            <parameter index="0" name="Panorámica" parameterValue="0"/>
          </component>
          <fadeIn crossFadeLinkType="linkedAsymmetric" endPoint="0" shape="0" startPoint="0" type="cosine"/>
          <fadeOut crossFadeLinkType="linkedAsymmetric" endPoint="79634" shape="19" startPoint="79634" type="log"/>
          <take sourceInPoint="0"/>
          <editParameter parameterIndex="0" slotIndex="4294967281"/>
          <editParameter parameterIndex="0" slotIndex="4294967280"/>
          <channelMap>
            <channel index="0" sourceIndex="0"/>
            <channel index="1" sourceIndex="1"/>
          </channelMap>
        </audioClip>
        <audioClip clipAutoCrossfade="true" crossFadeHeadClipID="-1" crossFadeTailClipID="-1" endPoint="7056920" fileID="8" hue="-1" id="11" lockedInTime="false" looped="false" name="OTHERS_004" offline="false" select="false" sourceInPoint="0" sourceOutPoint="47037" startPoint="7009883" zOrder="46148">
          <component componentID="Audition.Fader" id="clipGain" name="volume" powered="true">
            <parameter index="0" name="volume" parameterValue="1"/>
            <parameter index="1" name="static gain" parameterValue="1"/>
          </component>
          <component componentID="Audition.Mute" id="clipMute" name="Mute" powered="true">
            <parameter index="0" parameterValue="0"/>
            <parameter index="1" name="mute" parameterValue="0"/>
          </component>
          <component componentID="Audition.StereoPanner" id="clipPan" name="StereoPanner" powered="true">
            <parameter index="0" name="Panorámica" parameterValue="0"/>
          </component>
          <fadeIn crossFadeLinkType="linkedAsymmetric" endPoint="0" shape="18" startPoint="0" type="log"/>
          <fadeOut crossFadeLinkType="linkedAsymmetric" endPoint="47037" shape="0" startPoint="47037" type="cosine"/>
          <editParameter parameterIndex="0" slotIndex="4294967281"/>
          <editParameter parameterIndex="0" slotIndex="4294967280"/>
          <channelMap>
            <channel index="0" sourceIndex="0"/>
            <channel index="1" sourceIndex="1"/>
          </channelMap>
        </audioClip>
        <audioClip clipAutoCrossfade="true" crossFadeHeadClipID="-1" crossFadeTailClipID="-1" endPoint="7169702" fileID="8" hue="-1" id="12" lockedInTime="false" looped="false" name="OTHERS_004" offline="false" select="false" sourceInPoint="0" sourceOutPoint="79634" startPoint="7090068" zOrder="46221">
          <component componentID="Audition.Fader" id="clipGain" name="volume" powered="true">
            <parameter index="0" name="volume" parameterValue="1"/>
            <parameter index="1" name="static gain" parameterValue="1"/>
          </component>
          <component componentID="Audition.Mute" id="clipMute" name="Mute" powered="true">
            <parameter index="0" parameterValue="0"/>
            <parameter index="1" name="mute" parameterValue="0"/>
          </component>
          <component componentID="Audition.StereoPanner" id="clipPan" name="StereoPanner" powered="true">
            <parameter index="0" name="Panorámica" parameterValue="0"/>
          </component>
          <fadeIn crossFadeLinkType="linkedAsymmetric" endPoint="0" shape="0" startPoint="0" type="cosine"/>
          <fadeOut crossFadeLinkType="linkedAsymmetric" endPoint="79634" shape="0" startPoint="79634" type="cosine"/>
          <editParameter parameterIndex="0" slotIndex="4294967281"/>
          <editParameter parameterIndex="0" slotIndex="4294967280"/>
          <channelMap>
            <channel index="0" sourceIndex="0"/>
            <channel index="1" sourceIndex="1"/>
          </channelMap>
        </audioClip>
        <audioClip clipAutoCrossfade="true" crossFadeHeadClipID="-1" crossFadeTailClipID="-1" endPoint="7249934" fileID="8" hue="-1" id="13" lockedInTime="false" looped="false" name="OTHERS_004" offline="false" select="false" sourceInPoint="0" sourceOutPoint="79634" startPoint="7170300" zOrder="46128">
          <component componentID="Audition.Fader" id="clipGain" name="volume" powered="true">
            <parameter index="0" name="volume" parameterValue="1"/>
            <parameter index="1" name="static gain" parameterValue="1"/>
          </component>
          <component componentID="Audition.Mute" id="clipMute" name="Mute" powered="true">
            <parameter index="0" parameterValue="0"/>
            <parameter index="1" name="mute" parameterValue="0"/>
          </component>
          <component componentID="Audition.StereoPanner" id="clipPan" name="StereoPanner" powered="true">
            <parameter index="0" name="Panorámica" parameterValue="0"/>
          </component>
          <fadeIn crossFadeLinkType="linkedAsymmetric" endPoint="0" shape="0" startPoint="0" type="cosine"/>
          <fadeOut crossFadeLinkType="linkedAsymmetric" endPoint="79634" shape="0" startPoint="79634" type="cosine"/>
          <editParameter parameterIndex="0" slotIndex="4294967281"/>
          <editParameter parameterIndex="0" slotIndex="4294967280"/>
          <channelMap>
            <channel index="0" sourceIndex="0"/>
            <channel index="1" sourceIndex="1"/>
          </channelMap>
        </audioClip>
        <audioClip clipAutoCrossfade="true" crossFadeHeadClipID="-1" crossFadeTailClipID="-1" endPoint="7330086" fileID="8" hue="-1" id="14" lockedInTime="false" looped="false" name="OTHERS_004" offline="false" select="false" sourceInPoint="0" sourceOutPoint="79634" startPoint="7250452" zOrder="46211">
          <component componentID="Audition.Fader" id="clipGain" name="volume" powered="true">
            <parameter index="0" name="volume" parameterValue="1"/>
            <parameter index="1" name="static gain" parameterValue="1"/>
          </component>
          <component componentID="Audition.Mute" id="clipMute" name="Mute" powered="true">
            <parameter index="0" parameterValue="0"/>
            <parameter index="1" name="mute" parameterValue="0"/>
          </component>
          <component componentID="Audition.StereoPanner" id="clipPan" name="StereoPanner" powered="true">
            <parameter index="0" name="Panorámica" parameterValue="0"/>
          </component>
          <fadeIn crossFadeLinkType="linkedAsymmetric" endPoint="0" shape="0" startPoint="0" type="cosine"/>
          <fadeOut crossFadeLinkType="linkedAsymmetric" endPoint="79634" shape="0" startPoint="79634" type="cosine"/>
          <editParameter parameterIndex="0" slotIndex="4294967281"/>
          <editParameter parameterIndex="0" slotIndex="4294967280"/>
          <channelMap>
            <channel index="0" sourceIndex="0"/>
            <channel index="1" sourceIndex="1"/>
          </channelMap>
        </audioClip>
        <audioClip clipAutoCrossfade="true" crossFadeHeadClipID="-1" crossFadeTailClipID="-1" endPoint="7338534" fileID="8" hue="-1" id="15" lockedInTime="false" looped="false" name="OTHERS_004" offline="false" select="false" sourceInPoint="0" sourceOutPoint="7913" startPoint="7330621" zOrder="46217">
          <component componentID="Audition.Fader" id="clipGain" name="volume" powered="true">
            <parameter index="0" name="volume" parameterValue="1"/>
            <parameter index="1" name="static gain" parameterValue="1"/>
          </component>
          <component componentID="Audition.Mute" id="clipMute" name="Mute" powered="true">
            <parameter index="0" parameterValue="0"/>
            <parameter index="1" name="mute" parameterValue="0"/>
          </component>
          <component componentID="Audition.StereoPanner" id="clipPan" name="StereoPanner" powered="true">
            <parameter index="0" name="Panorámica" parameterValue="0"/>
          </component>
          <fadeIn crossFadeLinkType="linkedAsymmetric" endPoint="0" shape="0" startPoint="0" type="cosine"/>
          <fadeOut crossFadeLinkType="linkedAsymmetric" endPoint="7913" shape="19" startPoint="7913" type="log"/>
          <editParameter parameterIndex="0" slotIndex="4294967281"/>
          <editParameter parameterIndex="0" slotIndex="4294967280"/>
          <channelMap>
            <channel index="0" sourceIndex="0"/>
            <channel index="1" sourceIndex="1"/>
          </channelMap>
        </audioClip>
        <audioClip clipAutoCrossfade="true" crossFadeHeadClipID="-1" crossFadeTailClipID="-1" endPoint="7348644" fileID="8" hue="-1" id="16" lockedInTime="false" looped="false" name="OTHERS_004" offline="false" select="false" sourceInPoint="0" sourceOutPoint="7913" startPoint="7340731" zOrder="46212">
          <component componentID="Audition.Fader" id="clipGain" name="volume" powered="true">
            <parameter index="0" name="volume" parameterValue="1"/>
            <parameter index="1" name="static gain" parameterValue="1"/>
          </component>
          <component componentID="Audition.Mute" id="clipMute" name="Mute" powered="true">
            <parameter index="0" parameterValue="0"/>
            <parameter index="1" name="mute" parameterValue="0"/>
          </component>
          <component componentID="Audition.StereoPanner" id="clipPan" name="StereoPanner" powered="true">
            <parameter index="0" name="Panorámica" parameterValue="0"/>
          </component>
          <fadeIn crossFadeLinkType="linkedAsymmetric" endPoint="0" shape="0" startPoint="0" type="cosine"/>
          <fadeOut crossFadeLinkType="linkedAsymmetric" endPoint="7913" shape="19" startPoint="7913" type="log"/>
          <editParameter parameterIndex="0" slotIndex="4294967281"/>
          <editParameter parameterIndex="0" slotIndex="4294967280"/>
          <channelMap>
            <channel index="0" sourceIndex="0"/>
            <channel index="1" sourceIndex="1"/>
          </channelMap>
        </audioClip>
        <audioClip clipAutoCrossfade="true" crossFadeHeadClipID="-1" crossFadeTailClipID="-1" endPoint="7358419" fileID="8" hue="-1" id="17" lockedInTime="false" looped="false" name="OTHERS_004" offline="false" select="false" sourceInPoint="0" sourceOutPoint="7913" startPoint="7350506" zOrder="46219">
          <component componentID="Audition.Fader" id="clipGain" name="volume" powered="true">
            <parameter index="0" name="volume" parameterValue="1"/>
            <parameter index="1" name="static gain" parameterValue="1"/>
          </component>
          <component componentID="Audition.Mute" id="clipMute" name="Mute" powered="true">
            <parameter index="0" parameterValue="0"/>
            <parameter index="1" name="mute" parameterValue="0"/>
          </component>
          <component componentID="Audition.StereoPanner" id="clipPan" name="StereoPanner" powered="true">
            <parameter index="0" name="Panorámica" parameterValue="0"/>
          </component>
          <fadeIn crossFadeLinkType="linkedAsymmetric" endPoint="0" shape="0" startPoint="0" type="cosine"/>
          <fadeOut crossFadeLinkType="linkedAsymmetric" endPoint="7913" shape="19" startPoint="7913" type="log"/>
          <editParameter parameterIndex="0" slotIndex="4294967281"/>
          <editParameter parameterIndex="0" slotIndex="4294967280"/>
          <channelMap>
            <channel index="0" sourceIndex="0"/>
            <channel index="1" sourceIndex="1"/>
          </channelMap>
        </audioClip>
        <audioClip clipAutoCrossfade="true" crossFadeHeadClipID="-1" crossFadeTailClipID="-1" endPoint="7369885" fileID="8" hue="-1" id="18" lockedInTime="false" looped="false" name="OTHERS_004" offline="false" select="false" sourceInPoint="0" sourceOutPoint="9083" startPoint="7360802" zOrder="46207">
          <component componentID="Audition.Fader" id="clipGain" name="volume" powered="true">
            <parameter index="0" name="volume" parameterValue="1"/>
            <parameter index="1" name="static gain" parameterValue="1"/>
          </component>
          <component componentID="Audition.Mute" id="clipMute" name="Mute" powered="true">
            <parameter index="0" parameterValue="0"/>
            <parameter index="1" name="mute" parameterValue="0"/>
          </component>
          <component componentID="Audition.StereoPanner" id="clipPan" name="StereoPanner" powered="true">
            <parameter index="0" name="Panorámica" parameterValue="0"/>
          </component>
          <fadeIn crossFadeLinkType="linkedAsymmetric" endPoint="0" shape="0" startPoint="0" type="cosine"/>
          <fadeOut crossFadeLinkType="linkedAsymmetric" endPoint="9083" shape="19" startPoint="9083" type="log"/>
          <editParameter parameterIndex="0" slotIndex="4294967281"/>
          <editParameter parameterIndex="0" slotIndex="4294967280"/>
          <channelMap>
            <channel index="0" sourceIndex="0"/>
            <channel index="1" sourceIndex="1"/>
          </channelMap>
        </audioClip>
        <audioClip clipAutoCrossfade="true" crossFadeHeadClipID="-1" crossFadeTailClipID="-1" endPoint="7376372" fileID="8" hue="-1" id="19" lockedInTime="false" looped="false" name="OTHERS_004" offline="false" select="false" sourceInPoint="0" sourceOutPoint="5360" startPoint="7371012" zOrder="46218">
          <component componentID="Audition.Fader" id="clipGain" name="volume" powered="true">
            <parameter index="0" name="volume" parameterValue="1"/>
            <parameter index="1" name="static gain" parameterValue="1"/>
          </component>
          <component componentID="Audition.Mute" id="clipMute" name="Mute" powered="true">
            <parameter index="0" parameterValue="0"/>
            <parameter index="1" name="mute" parameterValue="0"/>
          </component>
          <component componentID="Audition.StereoPanner" id="clipPan" name="StereoPanner" powered="true">
            <parameter index="0" name="Panorámica" parameterValue="0"/>
          </component>
          <fadeIn crossFadeLinkType="linkedAsymmetric" endPoint="0" shape="0" startPoint="0" type="cosine"/>
          <fadeOut crossFadeLinkType="linkedAsymmetric" endPoint="5360" shape="19" startPoint="5360" type="log"/>
          <editParameter parameterIndex="0" slotIndex="4294967281"/>
          <editParameter parameterIndex="0" slotIndex="4294967280"/>
          <channelMap>
            <channel index="0" sourceIndex="0"/>
            <channel index="1" sourceIndex="1"/>
          </channelMap>
        </audioClip>
        <audioClip clipAutoCrossfade="true" crossFadeHeadClipID="-1" crossFadeTailClipID="-1" endPoint="10197900" fileID="9" hue="-1" id="20" lockedInTime="false" looped="false" name="VOZ DE FONDO_015" offline="false" select="false" sourceInPoint="584993" sourceOutPoint="608438" startPoint="10174455" zOrder="45529">
          <component componentID="Audition.Fader" id="clipGain" name="volume" powered="true">
            <parameter index="0" name="volume" parameterValue="1"/>
            <parameter index="1" name="static gain" parameterValue="1"/>
          </component>
          <component componentID="Audition.Mute" id="clipMute" name="Mute" powered="true">
            <parameter index="0" parameterValue="0"/>
            <parameter index="1" name="mute" parameterValue="0"/>
          </component>
          <component componentID="Audition.StereoPanner" id="clipPan" name="StereoPanner" powered="true">
            <parameter index="0" name="Panorámica" parameterValue="0"/>
          </component>
          <fadeIn crossFadeLinkType="linkedAsymmetric" endPoint="0" shape="0" startPoint="0" type="cosine"/>
          <fadeOut crossFadeLinkType="linkedAsymmetric" endPoint="23445" shape="18" startPoint="23445" type="log"/>
          <editParameter parameterIndex="0" slotIndex="4294967281"/>
          <editParameter parameterIndex="0" slotIndex="4294967280"/>
          <channelMap>
            <channel index="0" sourceIndex="0"/>
            <channel index="1" sourceIndex="1"/>
          </channelMap>
        </audioClip>
        <audioClip clipAutoCrossfade="true" crossFadeHeadClipID="-1" crossFadeTailClipID="-1" endPoint="10356209" fileID="9" hue="-1" id="21" lockedInTime="false" looped="false" name="VOZ DE FONDO_015" offline="false" select="false" sourceInPoint="584993" sourceOutPoint="607407" startPoint="10333795" zOrder="45527">
          <component componentID="Audition.Fader" id="clipGain" name="volume" powered="true">
            <parameter index="0" name="volume" parameterValue="1"/>
            <parameter index="1" name="static gain" parameterValue="1"/>
          </component>
          <component componentID="Audition.Mute" id="clipMute" name="Mute" powered="true">
            <parameter index="0" parameterValue="0"/>
            <parameter index="1" name="mute" parameterValue="0"/>
          </component>
          <component componentID="Audition.StereoPanner" id="clipPan" name="StereoPanner" powered="true">
            <parameter index="0" name="Panorámica" parameterValue="0"/>
          </component>
          <fadeIn crossFadeLinkType="linkedAsymmetric" endPoint="0" shape="0" startPoint="0" type="cosine"/>
          <fadeOut crossFadeLinkType="linkedAsymmetric" endPoint="22414" shape="19" startPoint="22414" type="log"/>
          <editParameter parameterIndex="0" slotIndex="4294967281"/>
          <editParameter parameterIndex="0" slotIndex="4294967280"/>
          <channelMap>
            <channel index="0" sourceIndex="0"/>
            <channel index="1" sourceIndex="1"/>
          </channelMap>
        </audioClip>
        <audioClip clipAutoCrossfade="true" crossFadeHeadClipID="-1" crossFadeTailClipID="-1" endPoint="10476047" fileID="9" hue="-1" id="22" lockedInTime="false" looped="false" name="VOZ DE FONDO_015" offline="false" select="false" sourceInPoint="584993" sourceOutPoint="605752" startPoint="10455288" zOrder="45525">
          <component componentID="Audition.Fader" id="clipGain" name="volume" powered="true">
            <parameter index="0" name="volume" parameterValue="1"/>
            <parameter index="1" name="static gain" parameterValue="1"/>
          </component>
          <component componentID="Audition.Mute" id="clipMute" name="Mute" powered="true">
            <parameter index="0" parameterValue="0"/>
            <parameter index="1" name="mute" parameterValue="0"/>
          </component>
          <component componentID="Audition.StereoPanner" id="clipPan" name="StereoPanner" powered="true">
            <parameter index="0" name="Panorámica" parameterValue="0"/>
          </component>
          <fadeIn crossFadeLinkType="linkedAsymmetric" endPoint="0" shape="0" startPoint="0" type="cosine"/>
          <fadeOut crossFadeLinkType="linkedAsymmetric" endPoint="20759" shape="19" startPoint="20759" type="log"/>
          <editParameter parameterIndex="0" slotIndex="4294967281"/>
          <editParameter parameterIndex="0" slotIndex="4294967280"/>
          <channelMap>
            <channel index="0" sourceIndex="0"/>
            <channel index="1" sourceIndex="1"/>
          </channelMap>
        </audioClip>
        <audioClip clipAutoCrossfade="true" crossFadeHeadClipID="-1" crossFadeTailClipID="-1" endPoint="10515353" fileID="9" hue="-1" id="23" lockedInTime="false" looped="false" name="VOZ DE FONDO_015" offline="false" select="false" sourceInPoint="584993" sourceOutPoint="606226" startPoint="10494120" zOrder="45520">
          <component componentID="Audition.Fader" id="clipGain" name="volume" powered="true">
            <parameter index="0" name="volume" parameterValue="1"/>
            <parameter index="1" name="static gain" parameterValue="1"/>
          </component>
          <component componentID="Audition.Mute" id="clipMute" name="Mute" powered="true">
            <parameter index="0" parameterValue="0"/>
            <parameter index="1" name="mute" parameterValue="0"/>
          </component>
          <component componentID="Audition.StereoPanner" id="clipPan" name="StereoPanner" powered="true">
            <parameter index="0" name="Panorámica" parameterValue="0"/>
          </component>
          <fadeIn crossFadeLinkType="linkedAsymmetric" endPoint="0" shape="0" startPoint="0" type="cosine"/>
          <fadeOut crossFadeLinkType="linkedAsymmetric" endPoint="21233" shape="19" startPoint="21233" type="log"/>
          <editParameter parameterIndex="0" slotIndex="4294967281"/>
          <editParameter parameterIndex="0" slotIndex="4294967280"/>
          <channelMap>
            <channel index="0" sourceIndex="0"/>
            <channel index="1" sourceIndex="1"/>
          </channelMap>
        </audioClip>
        <audioClip clipAutoCrossfade="true" crossFadeHeadClipID="-1" crossFadeTailClipID="25" endPoint="10636083" fileID="9" hue="-1" id="24" lockedInTime="false" looped="false" name="VOZ DE FONDO_015" offline="false" select="false" sourceInPoint="584993" sourceOutPoint="606517" startPoint="10614559" zOrder="45526">
          <component componentID="Audition.Fader" id="clipGain" name="volume" powered="true">
            <parameter index="0" name="volume" parameterValue="1"/>
            <parameter index="1" name="static gain" parameterValue="1"/>
          </component>
          <component componentID="Audition.Mute" id="clipMute" name="Mute" powered="true">
            <parameter index="0" parameterValue="0"/>
            <parameter index="1" name="mute" parameterValue="0"/>
          </component>
          <component componentID="Audition.StereoPanner" id="clipPan" name="StereoPanner" powered="true">
            <parameter index="0" name="Panorámica" parameterValue="0">
              <parameterKeyframes enableSplines="false">
                <parameterKeyframe sampleOffset="594798" select="false" type="linear" value="0.5"/>
              </parameterKeyframes>
            </parameter>
          </component>
          <fadeIn crossFadeLinkType="linkedAsymmetric" endPoint="0" shape="0" startPoint="0" type="cosine"/>
          <fadeOut crossFadeLinkType="linkedAsymmetric" endPoint="21524" shape="18" startPoint="19185" type="log"/>
          <take sourceInPoint="0"/>
          <editParameter parameterIndex="0" slotIndex="4294967280"/>
          <editParameter parameterIndex="0" slotIndex="4294967281"/>
          <channelMap>
            <channel index="0" sourceIndex="0"/>
            <channel index="1" sourceIndex="1"/>
          </channelMap>
        </audioClip>
        <audioClip clipAutoCrossfade="true" crossFadeHeadClipID="24" crossFadeTailClipID="26" endPoint="10655294" fileID="9" hue="-1" id="25" lockedInTime="false" looped="false" name="VOZ DE FONDO_015" offline="false" select="false" sourceInPoint="583171" sourceOutPoint="604721" startPoint="10633744" zOrder="45524">
          <component componentID="Audition.Fader" id="clipGain" name="volume" powered="true">
            <parameter index="0" name="volume" parameterValue="1"/>
            <parameter index="1" name="static gain" parameterValue="1"/>
          </component>
          <component componentID="Audition.Mute" id="clipMute" name="Mute" powered="true">
            <parameter index="0" parameterValue="0"/>
            <parameter index="1" name="mute" parameterValue="0"/>
          </component>
          <component componentID="Audition.StereoPanner" id="clipPan" name="StereoPanner" powered="true">
            <parameter index="0" name="Panorámica" parameterValue="0">
              <parameterKeyframes enableSplines="false">
                <parameterKeyframe sampleOffset="603922" select="false" type="linear" value="0.5"/>
              </parameterKeyframes>
            </parameter>
          </component>
          <fadeIn crossFadeLinkType="linkedAsymmetric" endPoint="2339" shape="19" startPoint="0" type="log"/>
          <fadeOut crossFadeLinkType="linkedAsymmetric" endPoint="21550" shape="18" startPoint="20408" type="log"/>
          <editParameter parameterIndex="0" slotIndex="4294967280"/>
          <editParameter parameterIndex="0" slotIndex="4294967281"/>
          <channelMap>
            <channel index="0" sourceIndex="0"/>
            <channel index="1" sourceIndex="1"/>
          </channelMap>
        </audioClip>
        <audioClip clipAutoCrossfade="true" crossFadeHeadClipID="25" crossFadeTailClipID="27" endPoint="10675361" fileID="9" hue="-1" id="26" lockedInTime="false" looped="false" name="VOZ DE FONDO_015" offline="false" select="false" sourceInPoint="584415" sourceOutPoint="605624" startPoint="10654152" zOrder="45521">
          <component componentID="Audition.Fader" id="clipGain" name="volume" powered="true">
            <parameter index="0" name="volume" parameterValue="1"/>
            <parameter index="1" name="static gain" parameterValue="1"/>
          </component>
          <component componentID="Audition.Mute" id="clipMute" name="Mute" powered="true">
            <parameter index="0" parameterValue="0"/>
            <parameter index="1" name="mute" parameterValue="0"/>
          </component>
          <component componentID="Audition.StereoPanner" id="clipPan" name="StereoPanner" powered="true">
            <parameter index="0" name="Panorámica" parameterValue="0"/>
          </component>
          <fadeIn crossFadeLinkType="linkedAsymmetric" endPoint="1142" shape="19" startPoint="0" type="log"/>
          <fadeOut crossFadeLinkType="linkedAsymmetric" endPoint="21209" shape="18" startPoint="20103" type="log"/>
          <editParameter parameterIndex="0" slotIndex="4294967281"/>
          <editParameter parameterIndex="0" slotIndex="4294967280"/>
          <channelMap>
            <channel index="0" sourceIndex="0"/>
            <channel index="1" sourceIndex="1"/>
          </channelMap>
        </audioClip>
        <audioClip clipAutoCrossfade="true" crossFadeHeadClipID="26" crossFadeTailClipID="28" endPoint="10695346" fileID="9" hue="-1" id="27" lockedInTime="false" looped="false" name="VOZ DE FONDO_015" offline="false" select="false" sourceInPoint="584858" sourceOutPoint="605949" startPoint="10674255" zOrder="45522">
          <component componentID="Audition.Fader" id="clipGain" name="volume" powered="true">
            <parameter index="0" name="volume" parameterValue="1"/>
            <parameter index="1" name="static gain" parameterValue="1"/>
          </component>
          <component componentID="Audition.Mute" id="clipMute" name="Mute" powered="true">
            <parameter index="0" parameterValue="0"/>
            <parameter index="1" name="mute" parameterValue="0"/>
          </component>
          <component componentID="Audition.StereoPanner" id="clipPan" name="StereoPanner" powered="true">
            <parameter index="0" name="Panorámica" parameterValue="0"/>
          </component>
          <fadeIn crossFadeLinkType="linkedAsymmetric" endPoint="1106" shape="19" startPoint="0" type="log"/>
          <fadeOut crossFadeLinkType="linkedAsymmetric" endPoint="21091" shape="18" startPoint="19114" type="log"/>
          <editParameter parameterIndex="0" slotIndex="4294967281"/>
          <editParameter parameterIndex="0" slotIndex="4294967280"/>
          <channelMap>
            <channel index="0" sourceIndex="0"/>
            <channel index="1" sourceIndex="1"/>
          </channelMap>
        </audioClip>
        <audioClip clipAutoCrossfade="true" crossFadeHeadClipID="27" crossFadeTailClipID="-1" endPoint="10716167" fileID="9" hue="-1" id="28" lockedInTime="false" looped="false" name="VOZ DE FONDO_015" offline="false" select="false" sourceInPoint="584338" sourceOutPoint="607136" startPoint="10693369" zOrder="45523">
          <component componentID="Audition.Fader" id="clipGain" name="volume" powered="true">
            <parameter index="0" name="volume" parameterValue="1"/>
            <parameter index="1" name="static gain" parameterValue="1"/>
          </component>
          <component componentID="Audition.Mute" id="clipMute" name="Mute" powered="true">
            <parameter index="0" parameterValue="0"/>
            <parameter index="1" name="mute" parameterValue="0"/>
          </component>
          <component componentID="Audition.StereoPanner" id="clipPan" name="StereoPanner" powered="true">
            <parameter index="0" name="Panorámica" parameterValue="0"/>
          </component>
          <fadeIn crossFadeLinkType="linkedAsymmetric" endPoint="1977" shape="19" startPoint="0" type="log"/>
          <fadeOut crossFadeLinkType="linkedAsymmetric" endPoint="22798" shape="18" startPoint="22798" type="log"/>
          <editParameter parameterIndex="0" slotIndex="4294967281"/>
          <editParameter parameterIndex="0" slotIndex="4294967280"/>
          <channelMap>
            <channel index="0" sourceIndex="0"/>
            <channel index="1" sourceIndex="1"/>
          </channelMap>
        </audioClip>
        <audioClip clipAutoCrossfade="true" crossFadeHeadClipID="-1" crossFadeTailClipID="-1" endPoint="11352459" fileID="10" hue="-1" id="29" lockedInTime="false" looped="false" name="OTHERS_002" offline="false" select="false" sourceInPoint="0" sourceOutPoint="80003" startPoint="11272456" zOrder="46199">
          <component componentID="Audition.Fader" id="clipGain" name="volume" powered="true">
            <parameter index="0" name="volume" parameterValue="0.1183442">
              <parameterKeyframes enableSplines="false">
                <parameterKeyframe sampleOffset="582566" select="false" type="linear" value="0.25"/>
              </parameterKeyframes>
            </parameter>
            <parameter index="1" name="static gain" parameterValue="1"/>
          </component>
          <component componentID="Audition.Mute" id="clipMute" name="Mute" powered="true">
            <parameter index="0" parameterValue="0"/>
            <parameter index="1" name="mute" parameterValue="0"/>
          </component>
          <component componentID="Audition.StereoPanner" id="clipPan" name="StereoPanner" powered="true">
            <parameter index="0" name="Panorámica" parameterValue="0"/>
          </component>
          <fadeIn crossFadeLinkType="linkedAsymmetric" endPoint="0" shape="0" startPoint="0" type="cosine"/>
          <fadeOut crossFadeLinkType="linkedAsymmetric" endPoint="80003" shape="0" startPoint="80003" type="cosine"/>
          <take sourceInPoint="0"/>
          <editParameter parameterIndex="0" slotIndex="4294967281"/>
          <editParameter parameterIndex="0" slotIndex="4294967280"/>
          <channelMap>
            <channel index="0" sourceIndex="0"/>
            <channel index="1" sourceIndex="1"/>
          </channelMap>
        </audioClip>
        <audioClip clipAutoCrossfade="true" crossFadeHeadClipID="-1" crossFadeTailClipID="31" endPoint="11433882" fileID="10" hue="-1" id="30" lockedInTime="false" looped="false" name="OTHERS_002" offline="false" select="false" sourceInPoint="0" sourceOutPoint="81225" startPoint="11352657" zOrder="46192">
          <component componentID="Audition.Fader" id="clipGain" name="volume" powered="true">
            <parameter index="0" name="volume" parameterValue="0.1183442">
              <parameterKeyframes enableSplines="false">
                <parameterKeyframe sampleOffset="582566" select="false" type="linear" value="0.25"/>
              </parameterKeyframes>
            </parameter>
            <parameter index="1" name="static gain" parameterValue="1"/>
          </component>
          <component componentID="Audition.Mute" id="clipMute" name="Mute" powered="true">
            <parameter index="0" parameterValue="0"/>
            <parameter index="1" name="mute" parameterValue="0"/>
          </component>
          <component componentID="Audition.StereoPanner" id="clipPan" name="StereoPanner" powered="true">
            <parameter index="0" name="Panorámica" parameterValue="0"/>
          </component>
          <fadeIn crossFadeLinkType="linkedAsymmetric" endPoint="0" shape="0" startPoint="0" type="cosine"/>
          <fadeOut crossFadeLinkType="linkedAsymmetric" endPoint="81225" shape="18" startPoint="80176" type="log"/>
          <editParameter parameterIndex="0" slotIndex="4294967281"/>
          <editParameter parameterIndex="0" slotIndex="4294967280"/>
          <channelMap>
            <channel index="0" sourceIndex="0"/>
            <channel index="1" sourceIndex="1"/>
          </channelMap>
        </audioClip>
        <audioClip clipAutoCrossfade="true" crossFadeHeadClipID="30" crossFadeTailClipID="32" endPoint="11514058" fileID="10" hue="-1" id="31" lockedInTime="false" looped="false" name="OTHERS_002" offline="false" select="false" sourceInPoint="0" sourceOutPoint="81225" startPoint="11432833" zOrder="46197">
          <component componentID="Audition.Fader" id="clipGain" name="volume" powered="true">
            <parameter index="0" name="volume" parameterValue="0.1183442">
              <parameterKeyframes enableSplines="false">
                <parameterKeyframe sampleOffset="582566" select="false" type="linear" value="0.25"/>
              </parameterKeyframes>
            </parameter>
            <parameter index="1" name="static gain" parameterValue="1"/>
          </component>
          <component componentID="Audition.Mute" id="clipMute" name="Mute" powered="true">
            <parameter index="0" parameterValue="0"/>
            <parameter index="1" name="mute" parameterValue="0"/>
          </component>
          <component componentID="Audition.StereoPanner" id="clipPan" name="StereoPanner" powered="true">
            <parameter index="0" name="Panorámica" parameterValue="0"/>
          </component>
          <fadeIn crossFadeLinkType="linkedAsymmetric" endPoint="1049" shape="19" startPoint="0" type="log"/>
          <fadeOut crossFadeLinkType="linkedAsymmetric" endPoint="81225" shape="18" startPoint="80185" type="log"/>
          <editParameter parameterIndex="0" slotIndex="4294967281"/>
          <editParameter parameterIndex="0" slotIndex="4294967280"/>
          <channelMap>
            <channel index="0" sourceIndex="0"/>
            <channel index="1" sourceIndex="1"/>
          </channelMap>
        </audioClip>
        <audioClip clipAutoCrossfade="true" crossFadeHeadClipID="31" crossFadeTailClipID="-1" endPoint="11593021" fileID="10" hue="-1" id="32" lockedInTime="false" looped="false" name="OTHERS_002" offline="false" select="false" sourceInPoint="0" sourceOutPoint="80003" startPoint="11513018" zOrder="46195">
          <component componentID="Audition.Fader" id="clipGain" name="volume" powered="true">
            <parameter index="0" name="volume" parameterValue="0.1183442">
              <parameterKeyframes enableSplines="false">
                <parameterKeyframe sampleOffset="582566" select="false" type="linear" value="0.25"/>
              </parameterKeyframes>
            </parameter>
            <parameter index="1" name="static gain" parameterValue="1"/>
          </component>
          <component componentID="Audition.Mute" id="clipMute" name="Mute" powered="true">
            <parameter index="0" parameterValue="0"/>
            <parameter index="1" name="mute" parameterValue="0"/>
          </component>
          <component componentID="Audition.StereoPanner" id="clipPan" name="StereoPanner" powered="true">
            <parameter index="0" name="Panorámica" parameterValue="0"/>
          </component>
          <fadeIn crossFadeLinkType="linkedAsymmetric" endPoint="1040" shape="19" startPoint="0" type="log"/>
          <fadeOut crossFadeLinkType="linkedAsymmetric" endPoint="80003" shape="0" startPoint="80003" type="cosine"/>
          <editParameter parameterIndex="0" slotIndex="4294967281"/>
          <editParameter parameterIndex="0" slotIndex="4294967280"/>
          <channelMap>
            <channel index="0" sourceIndex="0"/>
            <channel index="1" sourceIndex="1"/>
          </channelMap>
        </audioClip>
        <audioClip clipAutoCrossfade="true" crossFadeHeadClipID="-1" crossFadeTailClipID="34" endPoint="11674444" fileID="10" hue="-1" id="33" lockedInTime="false" looped="false" name="OTHERS_002" offline="false" select="false" sourceInPoint="0" sourceOutPoint="81225" startPoint="11593219" zOrder="46193">
          <component componentID="Audition.Fader" id="clipGain" name="volume" powered="true">
            <parameter index="0" name="volume" parameterValue="0.1183442">
              <parameterKeyframes enableSplines="false">
                <parameterKeyframe sampleOffset="582566" select="false" type="linear" value="0.25"/>
              </parameterKeyframes>
            </parameter>
            <parameter index="1" name="static gain" parameterValue="1"/>
          </component>
          <component componentID="Audition.Mute" id="clipMute" name="Mute" powered="true">
            <parameter index="0" parameterValue="0"/>
            <parameter index="1" name="mute" parameterValue="0"/>
          </component>
          <component componentID="Audition.StereoPanner" id="clipPan" name="StereoPanner" powered="true">
            <parameter index="0" name="Panorámica" parameterValue="0"/>
          </component>
          <fadeIn crossFadeLinkType="linkedAsymmetric" endPoint="0" shape="0" startPoint="0" type="cosine"/>
          <fadeOut crossFadeLinkType="linkedAsymmetric" endPoint="81225" shape="18" startPoint="80176" type="log"/>
          <editParameter parameterIndex="0" slotIndex="4294967281"/>
          <editParameter parameterIndex="0" slotIndex="4294967280"/>
          <channelMap>
            <channel index="0" sourceIndex="0"/>
            <channel index="1" sourceIndex="1"/>
          </channelMap>
        </audioClip>
        <audioClip clipAutoCrossfade="true" crossFadeHeadClipID="33" crossFadeTailClipID="35" endPoint="11754620" fileID="10" hue="-1" id="34" lockedInTime="false" looped="false" name="OTHERS_002" offline="false" select="false" sourceInPoint="0" sourceOutPoint="81225" startPoint="11673395" zOrder="46194">
          <component componentID="Audition.Fader" id="clipGain" name="volume" powered="true">
            <parameter index="0" name="volume" parameterValue="0.1183442">
              <parameterKeyframes enableSplines="false">
                <parameterKeyframe sampleOffset="582566" select="false" type="linear" value="0.25"/>
              </parameterKeyframes>
            </parameter>
            <parameter index="1" name="static gain" parameterValue="1"/>
          </component>
          <component componentID="Audition.Mute" id="clipMute" name="Mute" powered="true">
            <parameter index="0" parameterValue="0"/>
            <parameter index="1" name="mute" parameterValue="0"/>
          </component>
          <component componentID="Audition.StereoPanner" id="clipPan" name="StereoPanner" powered="true">
            <parameter index="0" name="Panorámica" parameterValue="0"/>
          </component>
          <fadeIn crossFadeLinkType="linkedAsymmetric" endPoint="1049" shape="19" startPoint="0" type="log"/>
          <fadeOut crossFadeLinkType="linkedAsymmetric" endPoint="81225" shape="18" startPoint="80172" type="log"/>
          <editParameter parameterIndex="0" slotIndex="4294967281"/>
          <editParameter parameterIndex="0" slotIndex="4294967280"/>
          <channelMap>
            <channel index="0" sourceIndex="0"/>
            <channel index="1" sourceIndex="1"/>
          </channelMap>
        </audioClip>
        <audioClip clipAutoCrossfade="true" crossFadeHeadClipID="34" crossFadeTailClipID="-1" endPoint="11833570" fileID="10" hue="-1" id="35" lockedInTime="false" looped="false" name="OTHERS_002" offline="false" select="false" sourceInPoint="0" sourceOutPoint="80003" startPoint="11753567" zOrder="46196">
          <component componentID="Audition.Fader" id="clipGain" name="volume" powered="true">
            <parameter index="0" name="volume" parameterValue="0.1183442">
              <parameterKeyframes enableSplines="false">
                <parameterKeyframe sampleOffset="582566" select="false" type="linear" value="0.25"/>
              </parameterKeyframes>
            </parameter>
            <parameter index="1" name="static gain" parameterValue="1"/>
          </component>
          <component componentID="Audition.Mute" id="clipMute" name="Mute" powered="true">
            <parameter index="0" parameterValue="0"/>
            <parameter index="1" name="mute" parameterValue="0"/>
          </component>
          <component componentID="Audition.StereoPanner" id="clipPan" name="StereoPanner" powered="true">
            <parameter index="0" name="Panorámica" parameterValue="0"/>
          </component>
          <fadeIn crossFadeLinkType="linkedAsymmetric" endPoint="1053" shape="19" startPoint="0" type="log"/>
          <fadeOut crossFadeLinkType="linkedAsymmetric" endPoint="80003" shape="0" startPoint="80003" type="cosine"/>
          <editParameter parameterIndex="0" slotIndex="4294967281"/>
          <editParameter parameterIndex="0" slotIndex="4294967280"/>
          <channelMap>
            <channel index="0" sourceIndex="0"/>
            <channel index="1" sourceIndex="1"/>
          </channelMap>
        </audioClip>
        <audioClip clipAutoCrossfade="true" crossFadeHeadClipID="-1" crossFadeTailClipID="-1" endPoint="11912173" fileID="10" hue="-1" id="36" lockedInTime="false" looped="false" name="OTHERS_002" offline="false" select="false" sourceInPoint="0" sourceOutPoint="78405" startPoint="11833768" zOrder="46198">
          <component componentID="Audition.Fader" id="clipGain" name="volume" powered="true">
            <parameter index="0" name="volume" parameterValue="0.1183442">
              <parameterKeyframes enableSplines="false">
                <parameterKeyframe sampleOffset="582566" select="false" type="linear" value="0.25"/>
              </parameterKeyframes>
            </parameter>
            <parameter index="1" name="static gain" parameterValue="1"/>
          </component>
          <component componentID="Audition.Mute" id="clipMute" name="Mute" powered="true">
            <parameter index="0" parameterValue="0"/>
            <parameter index="1" name="mute" parameterValue="0"/>
          </component>
          <component componentID="Audition.StereoPanner" id="clipPan" name="StereoPanner" powered="true">
            <parameter index="0" name="Panorámica" parameterValue="0"/>
          </component>
          <fadeIn crossFadeLinkType="linkedAsymmetric" endPoint="0" shape="18" startPoint="0" type="log"/>
          <fadeOut crossFadeLinkType="linkedAsymmetric" endPoint="78405" shape="19" startPoint="78405" type="log"/>
          <editParameter parameterIndex="0" slotIndex="4294967281"/>
          <editParameter parameterIndex="0" slotIndex="4294967280"/>
          <channelMap>
            <channel index="0" sourceIndex="0"/>
            <channel index="1" sourceIndex="1"/>
          </channelMap>
        </audioClip>
        <audioClip clipAutoCrossfade="true" crossFadeHeadClipID="-1" crossFadeTailClipID="-1" endPoint="12745281" fileID="11" hue="-1" id="37" lockedInTime="false" looped="false" name="dark horse acapella_drums_primera_estrofa" offline="false" select="false" sourceInPoint="0" sourceOutPoint="642467" startPoint="12102814" zOrder="44463">
          <component componentID="Audition.Fader" id="clipGain" name="volume" powered="true">
            <parameter index="0" name="volume" parameterValue="1"/>
            <parameter index="1" name="static gain" parameterValue="1"/>
          </component>
          <component componentID="Audition.Mute" id="clipMute" name="Mute" powered="true">
            <parameter index="0" parameterValue="0"/>
            <parameter index="1" name="mute" parameterValue="0"/>
          </component>
          <component componentID="Audition.StereoPanner" id="clipPan" name="StereoPanner" powered="true">
            <parameter index="0" name="Panorámica" parameterValue="28.3185844"/>
          </component>
          <fadeIn crossFadeLinkType="linkedAsymmetric" endPoint="0" shape="18" startPoint="0" type="log"/>
          <fadeOut crossFadeLinkType="linkedAsymmetric" endPoint="642467" shape="19" startPoint="642467" type="log"/>
          <editParameter parameterIndex="0" slotIndex="4294967281"/>
          <editParameter parameterIndex="0" slotIndex="4294967280"/>
          <channelMap>
            <channel index="0" sourceIndex="0"/>
            <channel index="1" sourceIndex="1"/>
          </channelMap>
        </audioClip>
        <audioClip clipAutoCrossfade="true" crossFadeHeadClipID="-1" crossFadeTailClipID="39" endPoint="19490183" fileID="12" hue="-1" id="38" lockedInTime="false" looped="false" name="OTHERS_003_3" offline="false" select="false" sourceInPoint="0" sourceOutPoint="201800" startPoint="19288383" zOrder="35836">
          <component componentID="Audition.Fader" id="clipGain" name="volume" powered="true">
            <parameter index="0" name="volume" parameterValue="1"/>
            <parameter index="1" name="static gain" parameterValue="1"/>
          </component>
          <component componentID="Audition.Mute" id="clipMute" name="Mute" powered="true">
            <parameter index="0" parameterValue="0"/>
            <parameter index="1" name="mute" parameterValue="0"/>
          </component>
          <component componentID="Audition.StereoPanner" id="clipPan" name="StereoPanner" powered="true">
            <parameter index="0" name="Panorámica" parameterValue="0"/>
          </component>
          <fadeIn crossFadeLinkType="linkedAsymmetric" endPoint="0" shape="0" startPoint="0" type="cosine"/>
          <fadeOut crossFadeLinkType="linkedAsymmetric" endPoint="201800" shape="18" startPoint="182305" type="log"/>
          <take sourceInPoint="0"/>
          <editParameter parameterIndex="0" slotIndex="4294967281"/>
          <editParameter parameterIndex="0" slotIndex="4294967280"/>
          <channelMap>
            <channel index="0" sourceIndex="0"/>
            <channel index="1" sourceIndex="1"/>
          </channelMap>
        </audioClip>
        <audioClip clipAutoCrossfade="true" crossFadeHeadClipID="38" crossFadeTailClipID="-1" endPoint="19727400" fileID="13" hue="-1" id="39" lockedInTime="false" looped="false" name="007_voice" offline="false" select="false" sourceInPoint="66688" sourceOutPoint="323400" startPoint="19470688" zOrder="44701">
          <component componentID="Audition.Fader" id="clipGain" name="volume" powered="true">
            <parameter index="0" name="volume" parameterValue="0">
              <parameterKeyframes enableSplines="true">
                <parameterKeyframe sampleOffset="297198" select="false" type="linear" value="0.65"/>
                <parameterKeyframe sampleOffset="303381" select="false" type="linear" value="0.65"/>
                <parameterKeyframe sampleOffset="307353" select="false" type="linear" value="0.7943299"/>
                <parameterKeyframe sampleOffset="313217" select="false" type="linear" value="0.9386598"/>
              </parameterKeyframes>
            </parameter>
            <parameter index="1" name="static gain" parameterValue="1"/>
          </component>
          <component componentID="Audition.Mute" id="clipMute" name="Mute" powered="true">
            <parameter index="0" parameterValue="0"/>
            <parameter index="1" name="mute" parameterValue="0"/>
          </component>
          <component componentID="Audition.StereoPanner" id="clipPan" name="StereoPanner" powered="true">
            <parameter index="0" name="Panorámica" parameterValue="0">
              <parameterKeyframes enableSplines="false">
                <parameterKeyframe sampleOffset="321950" select="false" type="linear" value="0.5"/>
              </parameterKeyframes>
            </parameter>
          </component>
          <fadeIn crossFadeLinkType="linkedAsymmetric" endPoint="19495" shape="19" startPoint="0" type="log"/>
          <fadeOut crossFadeLinkType="linkedAsymmetric" endPoint="256712" shape="19" startPoint="256712" type="log"/>
          <editParameter parameterIndex="0" slotIndex="4294967280"/>
          <editParameter parameterIndex="0" slotIndex="4294967281"/>
          <channelMap>
            <channel index="0" sourceIndex="0"/>
            <channel index="1" sourceIndex="1"/>
          </channelMap>
        </audioClip>
        <audioClip clipAutoCrossfade="true" crossFadeHeadClipID="-1" crossFadeTailClipID="-1" endPoint="19769861" fileID="14" hue="-1" id="40" lockedInTime="false" looped="false" name="OTHERS_008_1" offline="false" select="false" sourceInPoint="0" sourceOutPoint="35111" startPoint="19734750" zOrder="35721">
          <component componentID="Audition.Fader" id="clipGain" name="volume" powered="true">
            <parameter index="0" name="volume" parameterValue="1">
              <parameterKeyframes enableSplines="false">
                <parameterKeyframe sampleOffset="36104" select="false" type="linear" value="0.65"/>
                <parameterKeyframe sampleOffset="45030" select="false" type="linear" value="0.65"/>
              </parameterKeyframes>
            </parameter>
            <parameter index="1" name="static gain" parameterValue="1"/>
          </component>
          <component componentID="Audition.Mute" id="clipMute" name="Mute" powered="true">
            <parameter index="0" parameterValue="0"/>
            <parameter index="1" name="mute" parameterValue="0"/>
          </component>
          <component componentID="Audition.StereoPanner" id="clipPan" name="StereoPanner" powered="true">
            <parameter index="0" name="Panorámica" parameterValue="0">
              <parameterKeyframes enableSplines="false">
                <parameterKeyframe sampleOffset="22355" select="true" type="linear" value="0.5"/>
              </parameterKeyframes>
            </parameter>
          </component>
          <fadeIn crossFadeLinkType="linkedAsymmetric" endPoint="0" shape="18" startPoint="0" type="log"/>
          <fadeOut crossFadeLinkType="linkedAsymmetric" endPoint="35111" shape="18" startPoint="35111" type="log"/>
          <clipStretch adaptiveWindowSize="37" pitchAdjustment="0" preserveFormants="true" stretchMode="realtime" stretchQuality="high" stretchRatio="1.035549051607686" stretchType="solo" transientSensitivity="40"/>
          <take sourceInPoint="0"/>
          <editParameter parameterIndex="0" slotIndex="4294967280"/>
          <editParameter parameterIndex="0" slotIndex="4294967281"/>
          <channelMap>
            <channel index="0" sourceIndex="0"/>
            <channel index="1" sourceIndex="1"/>
          </channelMap>
        </audioClip>
        <audioClip clipAutoCrossfade="true" crossFadeHeadClipID="-1" crossFadeTailClipID="-1" endPoint="19940747" fileID="13" hue="-1" id="41" lockedInTime="false" looped="false" name="007_voice" offline="false" select="false" sourceInPoint="532682" sourceOutPoint="535120" startPoint="19938309" zOrder="35838">
          <component componentID="Audition.Fader" id="clipGain" name="volume" powered="true">
            <parameter index="0" name="volume" parameterValue="1"/>
            <parameter index="1" name="static gain" parameterValue="1"/>
          </component>
          <component componentID="Audition.Mute" id="clipMute" name="Mute" powered="true">
            <parameter index="0" parameterValue="0"/>
            <parameter index="1" name="mute" parameterValue="0"/>
          </component>
          <component componentID="Audition.StereoPanner" id="clipPan" name="StereoPanner" powered="true">
            <parameter index="0" name="Panorámica" parameterValue="0"/>
          </component>
          <fadeIn crossFadeLinkType="linkedAsymmetric" endPoint="0" shape="19" startPoint="0" type="log"/>
          <fadeOut crossFadeLinkType="linkedAsymmetric" endPoint="2438" shape="0" startPoint="2438" type="cosine"/>
          <editParameter parameterIndex="0" slotIndex="4294967281"/>
          <editParameter parameterIndex="0" slotIndex="4294967280"/>
          <channelMap>
            <channel index="0" sourceIndex="0"/>
            <channel index="1" sourceIndex="1"/>
          </channelMap>
        </audioClip>
        <audioClip clipAutoCrossfade="true" crossFadeHeadClipID="-1" crossFadeTailClipID="-1" endPoint="20024733" fileID="13" hue="-1" id="42" lockedInTime="false" looped="false" name="007_voice" offline="false" select="false" sourceInPoint="828351" sourceOutPoint="912337" startPoint="19940747" zOrder="35842">
          <component componentID="Audition.Fader" id="clipGain" name="volume" powered="true">
            <parameter index="0" name="volume" parameterValue="0">
              <parameterKeyframes enableSplines="true">
                <parameterKeyframe sampleOffset="852397" select="false" type="linear" value="0.4747422"/>
                <parameterKeyframe sampleOffset="876442" select="false" type="linear" value="0.8664948"/>
              </parameterKeyframes>
            </parameter>
            <parameter index="1" name="static gain" parameterValue="1"/>
          </component>
          <component componentID="Audition.Mute" id="clipMute" name="Mute" powered="true">
            <parameter index="0" parameterValue="0"/>
            <parameter index="1" name="mute" parameterValue="0"/>
          </component>
          <component componentID="Audition.StereoPanner" id="clipPan" name="StereoPanner" powered="true">
            <parameter index="0" name="Panorámica" parameterValue="0"/>
          </component>
          <fadeIn crossFadeLinkType="linkedAsymmetric" endPoint="0" shape="0" startPoint="0" type="cosine"/>
          <fadeOut crossFadeLinkType="linkedAsymmetric" endPoint="83986" shape="25" startPoint="40443" type="log"/>
          <clipStretch adaptiveWindowSize="37" pitchAdjustment="0" preserveFormants="true" stretchMode="realtime" stretchQuality="high" stretchRatio="1.547972110439416" stretchType="solo" transientSensitivity="40"/>
          <editParameter parameterIndex="0" slotIndex="4294967281"/>
          <editParameter parameterIndex="0" slotIndex="4294967280"/>
          <channelMap>
            <channel index="0" sourceIndex="0"/>
            <channel index="1" sourceIndex="1"/>
          </channelMap>
        </audioClip>
      </audioTrack>
      <audioTrack automationLaneOpenState="false" id="10014" index="4" select="false" visible="true">
        <trackParameters trackHeight="129">
          <name>SOPRANO</name>
        </trackParameters>
        <trackAudioParameters audioChannelType="stereo" automationMode="1" monitoring="false" recordArmed="false" solo="false" soloSafe="false">
          <trackOutput outputID="10000" type="trackID"/>
          <trackInput inputID="1"/>
          <component componentID="Audition.Fader" id="trackFader" name="volume" powered="true">
            <parameter index="0" name="volume" parameterValue="1"/>
            <parameter index="1" name="static gain" parameterValue="1"/>
          </component>
          <component componentID="Audition.Mute" id="trackMute" name="Mute" powered="true">
            <parameter index="0" parameterValue="0"/>
            <parameter index="1" name="mute" parameterValue="0"/>
          </component>
          <component componentID="Audition.StereoPanner" id="trackPan" name="StereoPanner" powered="true">
            <parameter index="0" name="Panorámica" parameterValue="0"/>
          </component>
          <component componentID="Audition.EQ" id="trackEQ" name="EQ" powered="false">
            <parameter index="0" name="Frecuencia estante inferior" parameterValue="0.0009079"/>
            <parameter index="1" name="Ganancia estante inferior" parameterValue="0.5"/>
            <parameter index="2" name="Frecuencia estante superior" parameterValue="0.8161598"/>
            <parameter index="3" name="Ganancia estante superior" parameterValue="0.5"/>
            <parameter index="4" name="Frecuencia central de banda de EC 1" parameterValue="0.0013618"/>
            <parameter index="5" name="Valor Q de banda de EC 1" parameterValue="0.0002"/>
            <parameter index="6" name="Ganancia de banda de EC 1" parameterValue="0.5"/>
            <parameter index="7" name="Activación de banda de EC 1" parameterValue="1"/>
            <parameter index="8" name="Frecuencia central de banda de EC 2" parameterValue="0.0081707"/>
            <parameter index="9" name="Valor Q de banda de EC 2" parameterValue="0.0002"/>
            <parameter index="10" name="Ganancia de banda de EC 2" parameterValue="0.5"/>
            <parameter index="11" name="Activación de banda de EC 2" parameterValue="1"/>
            <parameter index="12" name="Frecuencia central de banda de EC 3" parameterValue="0.0354063"/>
            <parameter index="13" name="Valor Q de banda de EC 3" parameterValue="0.0002"/>
            <parameter index="14" name="Ganancia de banda de EC 3" parameterValue="0.5"/>
            <parameter index="15" name="Activación de banda de EC 3" parameterValue="1"/>
            <parameter index="16" name="Frecuencia central de banda de EC 4" parameterValue="0.1443486"/>
            <parameter index="17" name="Valor Q de banda de EC 4" parameterValue="0.0002"/>
            <parameter index="18" name="Ganancia de banda de EC 4" parameterValue="0.5"/>
            <parameter index="19" name="Activación de banda de EC 4" parameterValue="1"/>
            <parameter index="20" name="Frecuencia central de banda de EC 5" parameterValue="0.580118"/>
            <parameter index="21" name="Valor Q de banda de EC 5" parameterValue="0.0002"/>
            <parameter index="22" name="Ganancia de banda de EC 5" parameterValue="0.5"/>
            <parameter index="23" name="Activación de banda de EC 5" parameterValue="1"/>
            <parameter index="24" name="Ganancia maestra" parameterValue="0.6666667"/>
            <parameter index="25" name="Constant Q" parameterValue="1"/>
            <parameter index="26" name="Orden de filtro de estante inferior" parameterValue="0"/>
            <parameter index="27" name="Orden de filtro de estante superior" parameterValue="0"/>
            <parameter index="28" name="Modo ultrasilencioso" parameterValue="0"/>
            <parameter index="29" name="Activar estante inferior" parameterValue="1"/>
            <parameter index="30" name="Activar estante superior" parameterValue="1"/>
            <parameter index="31" name="Velocidad de muestreo original" parameterValue="0.2296875"/>
            <parameter index="32" name="Ancho de banda de EC 1" parameterValue="0.0025"/>
            <parameter index="33" name="Ancho de banda de EC 2" parameterValue="0.01"/>
            <parameter index="34" name="Ancho de banda de EC 3" parameterValue="0.04"/>
            <parameter index="35" name="Ancho de banda de EC 4" parameterValue="0.16"/>
            <parameter index="36" name="Ancho de banda de EC 5" parameterValue="0.64"/>
            <parameter index="37" name="Activación de filtro de pase alto" parameterValue="0"/>
            <parameter index="38" name="Frecuencia de límite de paso alto" parameterValue="0"/>
            <parameter index="39" name="Pendiente de paso alto" parameterValue="4"/>
            <parameter index="40" name="Activación de filtro de pase bajo" parameterValue="0"/>
            <parameter index="41" name="Frecuencia de límite de paso bajo" parameterValue="0.906945"/>
            <parameter index="42" name="Pendiente de paso bajo" parameterValue="4"/>
            <parameter index="43" name="Omitir" parameterValue="0"/>
            <parameter index="44" name="Rango de gráfico bajo" parameterValue="1"/>
          </component>
        </trackAudioParameters>
        <editParameter parameterIndex="0" slotIndex="4294967280"/>
        <sendList>
          <sendSlot preFader="false" sendOutputID="10020" slotIndex="0">
            <component id="sendComponent" powered="false">
              <parameter index="0" name="Encendido/Apagado" parameterValue="0"/>
              <parameter index="1" name="Nivel" parameterValue="0"/>
            </component>
            <component componentID="Audition.StereoPanner" id="sendPan" name="StereoPanner" powered="true">
              <parameter index="0" name="Panorámica" parameterValue="0"/>
            </component>
          </sendSlot>
          <sendSlot preFader="false" sendOutputID="0" slotIndex="1">
            <component id="sendComponent" powered="false">
              <parameter index="0" name="Encendido/Apagado" parameterValue="0"/>
              <parameter index="1" name="Nivel" parameterValue="0"/>
            </component>
            <component id="sendPan" powered="true"/>
          </sendSlot>
          <sendSlot preFader="false" sendOutputID="0" slotIndex="2">
            <component id="sendComponent" powered="false">
              <parameter index="0" name="Encendido/Apagado" parameterValue="0"/>
              <parameter index="1" name="Nivel" parameterValue="0"/>
            </component>
            <component id="sendPan" powered="true"/>
          </sendSlot>
          <sendSlot preFader="false" sendOutputID="0" slotIndex="3">
            <component id="sendComponent" powered="false">
              <parameter index="0" name="Encendido/Apagado" parameterValue="0"/>
              <parameter index="1" name="Nivel" parameterValue="0"/>
            </component>
            <component id="sendPan" powered="true"/>
          </sendSlot>
          <sendSlot preFader="false" sendOutputID="0" slotIndex="4">
            <component id="sendComponent" powered="false">
              <parameter index="0" name="Encendido/Apagado" parameterValue="0"/>
              <parameter index="1" name="Nivel" parameterValue="0"/>
            </component>
            <component id="sendPan" powered="true"/>
          </sendSlot>
          <sendSlot preFader="false" sendOutputID="0" slotIndex="5">
            <component id="sendComponent" powered="false">
              <parameter index="0" name="Encendido/Apagado" parameterValue="0"/>
              <parameter index="1" name="Nivel" parameterValue="0"/>
            </component>
            <component id="sendPan" powered="true"/>
          </sendSlot>
          <sendSlot preFader="false" sendOutputID="0" slotIndex="6">
            <component id="sendComponent" powered="false">
              <parameter index="0" name="Encendido/Apagado" parameterValue="0"/>
              <parameter index="1" name="Nivel" parameterValue="0"/>
            </component>
            <component id="sendPan" powered="true"/>
          </sendSlot>
          <sendSlot preFader="false" sendOutputID="0" slotIndex="7">
            <component id="sendComponent" powered="false">
              <parameter index="0" name="Encendido/Apagado" parameterValue="0"/>
              <parameter index="1" name="Nivel" parameterValue="0"/>
            </component>
            <component id="sendPan" powered="true"/>
          </sendSlot>
          <sendSlot preFader="false" sendOutputID="0" slotIndex="8">
            <component id="sendComponent" powered="false">
              <parameter index="0" name="Encendido/Apagado" parameterValue="0"/>
              <parameter index="1" name="Nivel" parameterValue="0"/>
            </component>
            <component id="sendPan" powered="true"/>
          </sendSlot>
          <sendSlot preFader="false" sendOutputID="0" slotIndex="9">
            <component id="sendComponent" powered="false">
              <parameter index="0" name="Encendido/Apagado" parameterValue="0"/>
              <parameter index="1" name="Nivel" parameterValue="0"/>
            </component>
            <component id="sendPan" powered="true"/>
          </sendSlot>
          <sendSlot preFader="false" sendOutputID="0" slotIndex="10">
            <component id="sendComponent" powered="false">
              <parameter index="0" name="Encendido/Apagado" parameterValue="0"/>
              <parameter index="1" name="Nivel" parameterValue="0"/>
            </component>
            <component id="sendPan" powered="true"/>
          </sendSlot>
          <sendSlot preFader="false" sendOutputID="0" slotIndex="11">
            <component id="sendComponent" powered="false">
              <parameter index="0" name="Encendido/Apagado" parameterValue="0"/>
              <parameter index="1" name="Nivel" parameterValue="0"/>
            </component>
            <component id="sendPan" powered="true"/>
          </sendSlot>
          <sendSlot preFader="false" sendOutputID="0" slotIndex="12">
            <component id="sendComponent" powered="false">
              <parameter index="0" name="Encendido/Apagado" parameterValue="0"/>
              <parameter index="1" name="Nivel" parameterValue="0"/>
            </component>
            <component id="sendPan" powered="true"/>
          </sendSlot>
          <sendSlot preFader="false" sendOutputID="0" slotIndex="13">
            <component id="sendComponent" powered="false">
              <parameter index="0" name="Encendido/Apagado" parameterValue="0"/>
              <parameter index="1" name="Nivel" parameterValue="0"/>
            </component>
            <component id="sendPan" powered="true"/>
          </sendSlot>
          <sendSlot preFader="false" sendOutputID="0" slotIndex="14">
            <component id="sendComponent" powered="false">
              <parameter index="0" name="Encendido/Apagado" parameterValue="0"/>
              <parameter index="1" name="Nivel" parameterValue="0"/>
            </component>
            <component id="sendPan" powered="true"/>
          </sendSlot>
          <sendSlot preFader="false" sendOutputID="0" slotIndex="15">
            <component id="sendComponent" powered="false">
              <parameter index="0" name="Encendido/Apagado" parameterValue="0"/>
              <parameter index="1" name="Nivel" parameterValue="0"/>
            </component>
            <component id="sendPan" powered="true"/>
          </sendSlot>
        </sendList>
        <audioClip clipAutoCrossfade="true" crossFadeHeadClipID="-1" crossFadeTailClipID="-1" endPoint="595962" fileID="15" hue="-1" id="0" lockedInTime="false" looped="false" name="dark horse acapella_soprano_intro" offline="false" select="false" sourceInPoint="0" sourceOutPoint="561886" startPoint="34076" zOrder="44554">
          <component componentID="Audition.Fader" id="clipGain" name="volume" powered="true">
            <parameter index="0" name="volume" parameterValue="0.7712519">
              <parameterKeyframes enableSplines="true">
                <parameterKeyframe sampleOffset="31730" select="true" type="linear" value="0.5185606"/>
                <parameterKeyframe sampleOffset="44954" select="true" type="linear" value="0.597508"/>
                <parameterKeyframe sampleOffset="188172" select="true" type="linear" value="0.6354227"/>
                <parameterKeyframe sampleOffset="194526" select="true" type="linear" value="0.4985398"/>
                <parameterKeyframe sampleOffset="273954" select="true" type="linear" value="0.5155689"/>
                <parameterKeyframe sampleOffset="282850" select="true" type="linear" value="0.6354227"/>
                <parameterKeyframe sampleOffset="313986" select="true" type="linear" value="0.6354227"/>
                <parameterKeyframe sampleOffset="325424" select="true" type="linear" value="0.5133942"/>
                <parameterKeyframe sampleOffset="437895" select="true" type="linear" value="0.5168738"/>
                <parameterKeyframe sampleOffset="445520" select="true" type="linear" value="0.6354227"/>
                <parameterKeyframe sampleOffset="510969" select="true" type="linear" value="0.6354227"/>
                <parameterKeyframe sampleOffset="516687" select="true" type="linear" value="0.516393"/>
              </parameterKeyframes>
            </parameter>
            <parameter index="1" name="static gain" parameterValue="1"/>
          </component>
          <component componentID="Audition.Mute" id="clipMute" name="Mute" powered="true">
            <parameter index="0" parameterValue="0"/>
            <parameter index="1" name="mute" parameterValue="0"/>
          </component>
          <component componentID="Audition.StereoPanner" id="clipPan" name="StereoPanner" powered="true">
            <parameter index="0" name="Panorámica" parameterValue="-30.004097"/>
          </component>
          <fadeIn crossFadeLinkType="linkedAsymmetric" endPoint="0" shape="19" startPoint="0" type="log"/>
          <fadeOut crossFadeLinkType="linkedAsymmetric" endPoint="561886" shape="19" startPoint="561886" type="log"/>
          <editParameter parameterIndex="0" slotIndex="4294967281"/>
          <editParameter parameterIndex="0" slotIndex="4294967280"/>
          <channelMap>
            <channel index="0" sourceIndex="0"/>
            <channel index="1" sourceIndex="1"/>
          </channelMap>
        </audioClip>
        <audioClip clipAutoCrossfade="true" crossFadeHeadClipID="-1" crossFadeTailClipID="2" endPoint="605740" fileID="15" hue="-1" id="1" lockedInTime="false" looped="false" name="dark horse acapella_soprano_intro" offline="false" select="false" sourceInPoint="0" sourceOutPoint="9778" startPoint="595962" zOrder="35912">
          <component componentID="Audition.Fader" id="clipGain" name="volume" powered="true">
            <parameter index="0" name="volume" parameterValue="1"/>
            <parameter index="1" name="static gain" parameterValue="1"/>
          </component>
          <component componentID="Audition.Mute" id="clipMute" name="Mute" powered="true">
            <parameter index="0" parameterValue="0"/>
            <parameter index="1" name="mute" parameterValue="0"/>
          </component>
          <component componentID="Audition.StereoPanner" id="clipPan" name="StereoPanner" powered="true">
            <parameter index="0" name="Panorámica" parameterValue="0"/>
          </component>
          <fadeIn crossFadeLinkType="linkedAsymmetric" endPoint="0" shape="19" startPoint="0" type="log"/>
          <fadeOut crossFadeLinkType="linkedAsymmetric" endPoint="9778" shape="18" startPoint="9080" type="log"/>
          <editParameter parameterIndex="0" slotIndex="4294967281"/>
          <editParameter parameterIndex="0" slotIndex="4294967280"/>
          <channelMap>
            <channel index="0" sourceIndex="0"/>
            <channel index="1" sourceIndex="1"/>
          </channelMap>
        </audioClip>
        <audioClip clipAutoCrossfade="true" crossFadeHeadClipID="1" crossFadeTailClipID="-1" endPoint="630353" fileID="16" hue="-1" id="2" lockedInTime="false" looped="false" name="Pista 10_001" offline="false" select="false" sourceInPoint="8891" sourceOutPoint="34202" startPoint="605042" zOrder="35913">
          <component componentID="Audition.Fader" id="clipGain" name="volume" powered="true">
            <parameter index="0" name="volume" parameterValue="0">
              <parameterKeyframes enableSplines="true">
                <parameterKeyframe sampleOffset="11249" select="false" type="linear" value="0.3004065"/>
                <parameterKeyframe sampleOffset="16008" select="false" type="linear" value="0.65"/>
              </parameterKeyframes>
            </parameter>
            <parameter index="1" name="static gain" parameterValue="1"/>
          </component>
          <component componentID="Audition.Mute" id="clipMute" name="Mute" powered="true">
            <parameter index="0" parameterValue="0"/>
            <parameter index="1" name="mute" parameterValue="0"/>
          </component>
          <component componentID="Audition.StereoPanner" id="clipPan" name="StereoPanner" powered="true">
            <parameter index="0" name="Panorámica" parameterValue="0"/>
          </component>
          <fadeIn crossFadeLinkType="linkedAsymmetric" endPoint="698" shape="19" startPoint="0" type="log"/>
          <fadeOut crossFadeLinkType="linkedAsymmetric" endPoint="25311" shape="0" startPoint="25311" type="cosine"/>
          <editParameter parameterIndex="0" slotIndex="4294967281"/>
          <editParameter parameterIndex="0" slotIndex="4294967280"/>
          <channelMap>
            <channel index="0" sourceIndex="0"/>
            <channel index="1" sourceIndex="1"/>
          </channelMap>
        </audioClip>
        <audioClip clipAutoCrossfade="true" crossFadeHeadClipID="-1" crossFadeTailClipID="-1" endPoint="1958827" fileID="17" hue="-1" id="3" lockedInTime="false" looped="false" name="dark horse acapella_soprano_primera_estrofa" offline="false" select="false" sourceInPoint="0" sourceOutPoint="1283236" startPoint="675591" zOrder="46020">
          <component componentID="Audition.Fader" id="clipGain" name="volume" powered="true">
            <parameter index="0" name="volume" parameterValue="0.6710816">
              <parameterKeyframes enableSplines="false">
                <parameterKeyframe sampleOffset="568019" select="false" type="linear" value="0.5436967"/>
              </parameterKeyframes>
            </parameter>
            <parameter index="1" name="static gain" parameterValue="1"/>
          </component>
          <component componentID="Audition.Mute" id="clipMute" name="Mute" powered="true">
            <parameter index="0" parameterValue="0"/>
            <parameter index="1" name="mute" parameterValue="0"/>
          </component>
          <component componentID="Audition.StereoPanner" id="clipPan" name="StereoPanner" powered="true">
            <parameter index="0" name="Panorámica" parameterValue="-44.9754601">
              <parameterKeyframes enableSplines="true">
                <parameterKeyframe sampleOffset="605902" select="false" type="linear" value="0.7248773"/>
                <parameterKeyframe sampleOffset="614246" select="false" type="linear" value="0.7248773"/>
                <parameterKeyframe sampleOffset="620745" select="false" type="linear" value="0.5"/>
                <parameterKeyframe sampleOffset="637433" select="false" type="linear" value="0.5"/>
                <parameterKeyframe sampleOffset="641521" select="false" type="linear" value="0.7122191"/>
                <parameterKeyframe sampleOffset="647623" select="false" type="linear" value="0.7248773"/>
              </parameterKeyframes>
            </parameter>
          </component>
          <fadeIn crossFadeLinkType="linkedAsymmetric" endPoint="0" shape="19" startPoint="0" type="log"/>
          <fadeOut crossFadeLinkType="linkedAsymmetric" endPoint="1283236" shape="18" startPoint="1283236" type="log"/>
          <editParameter parameterIndex="0" slotIndex="4294967280"/>
          <editParameter parameterIndex="0" slotIndex="4294967281"/>
          <channelMap>
            <channel index="0" sourceIndex="0"/>
            <channel index="1" sourceIndex="1"/>
          </channelMap>
        </audioClip>
        <audioClip clipAutoCrossfade="true" crossFadeHeadClipID="-1" crossFadeTailClipID="-1" endPoint="2520713" fileID="15" hue="-1" id="4" lockedInTime="false" looped="false" name="dark horse acapella_soprano_intro" offline="false" select="false" sourceInPoint="0" sourceOutPoint="561886" startPoint="1958827" zOrder="45165">
          <component componentID="Audition.Fader" id="clipGain" name="volume" powered="true">
            <parameter index="0" name="volume" parameterValue="0">
              <parameterKeyframes enableSplines="true">
                <parameterKeyframe sampleOffset="157885" select="false" type="linear" value="0.2174665"/>
                <parameterKeyframe sampleOffset="419749" select="false" type="linear" value="0.3123377"/>
                <parameterKeyframe sampleOffset="550782" select="false" type="linear" value="0.3970528"/>
              </parameterKeyframes>
            </parameter>
            <parameter index="1" name="static gain" parameterValue="1"/>
          </component>
          <component componentID="Audition.Mute" id="clipMute" name="Mute" powered="true">
            <parameter index="0" parameterValue="0"/>
            <parameter index="1" name="mute" parameterValue="0"/>
          </component>
          <component componentID="Audition.StereoPanner" id="clipPan" name="StereoPanner" powered="true">
            <parameter index="0" name="Panorámica" parameterValue="-30.004097"/>
          </component>
          <fadeIn crossFadeLinkType="linkedAsymmetric" endPoint="0" shape="19" startPoint="0" type="log"/>
          <fadeOut crossFadeLinkType="linkedAsymmetric" endPoint="561886" shape="19" startPoint="561886" type="log"/>
          <editParameter parameterIndex="0" slotIndex="4294967281"/>
          <editParameter parameterIndex="0" slotIndex="4294967280"/>
          <channelMap>
            <channel index="0" sourceIndex="0"/>
            <channel index="1" sourceIndex="1"/>
          </channelMap>
        </audioClip>
        <audioClip clipAutoCrossfade="true" crossFadeHeadClipID="-1" crossFadeTailClipID="-1" endPoint="3082599" fileID="15" hue="-1" id="5" lockedInTime="false" looped="false" name="dark horse acapella_soprano_intro" offline="false" select="false" sourceInPoint="0" sourceOutPoint="561886" startPoint="2520713" zOrder="45161">
          <component componentID="Audition.Fader" id="clipGain" name="volume" powered="true">
            <parameter index="0" name="volume" parameterValue="0">
              <parameterKeyframes enableSplines="true">
                <parameterKeyframe sampleOffset="6689" select="false" type="linear" value="0.4118471"/>
                <parameterKeyframe sampleOffset="108980" select="false" type="linear" value="0.5492806"/>
                <parameterKeyframe sampleOffset="373647" select="false" type="linear" value="0.5666667"/>
              </parameterKeyframes>
            </parameter>
            <parameter index="1" name="static gain" parameterValue="1"/>
          </component>
          <component componentID="Audition.Mute" id="clipMute" name="Mute" powered="true">
            <parameter index="0" parameterValue="0"/>
            <parameter index="1" name="mute" parameterValue="0"/>
          </component>
          <component componentID="Audition.StereoPanner" id="clipPan" name="StereoPanner" powered="true">
            <parameter index="0" name="Panorámica" parameterValue="-30.004097">
              <parameterKeyframes enableSplines="true">
                <parameterKeyframe sampleOffset="6966" select="false" type="linear" value="0.6500205"/>
                <parameterKeyframe sampleOffset="82499" select="false" type="linear" value="0.7262917"/>
                <parameterKeyframe sampleOffset="124864" select="false" type="linear" value="0.7432408"/>
                <parameterKeyframe sampleOffset="239185" select="false" type="linear" value="0.7421397"/>
                <parameterKeyframe sampleOffset="240910" select="false" type="linear" value="0.7217468"/>
                <parameterKeyframe sampleOffset="243766" select="false" type="linear" value="0.5"/>
                <parameterKeyframe sampleOffset="273795" select="false" type="linear" value="0.5"/>
                <parameterKeyframe sampleOffset="277985" select="false" type="linear" value="0.7618463"/>
                <parameterKeyframe sampleOffset="281990" select="false" type="linear" value="0.7818126"/>
              </parameterKeyframes>
            </parameter>
          </component>
          <fadeIn crossFadeLinkType="linkedAsymmetric" endPoint="0" shape="19" startPoint="0" type="log"/>
          <fadeOut crossFadeLinkType="linkedAsymmetric" endPoint="561886" shape="19" startPoint="561886" type="log"/>
          <editParameter parameterIndex="0" slotIndex="4294967281"/>
          <editParameter parameterIndex="0" slotIndex="4294967280"/>
          <channelMap>
            <channel index="0" sourceIndex="0"/>
            <channel index="1" sourceIndex="1"/>
          </channelMap>
        </audioClip>
        <audioClip clipAutoCrossfade="true" crossFadeHeadClipID="-1" crossFadeTailClipID="7" endPoint="3172869" fileID="15" hue="-1" id="6" lockedInTime="false" looped="false" name="dark horse acapella_soprano_intro" offline="false" select="false" sourceInPoint="0" sourceOutPoint="90270" startPoint="3082599" zOrder="45162">
          <component componentID="Audition.Fader" id="clipGain" name="volume" powered="true">
            <parameter index="0" name="volume" parameterValue="0.7482921"/>
            <parameter index="1" name="static gain" parameterValue="1"/>
          </component>
          <component componentID="Audition.Mute" id="clipMute" name="Mute" powered="true">
            <parameter index="0" parameterValue="0"/>
            <parameter index="1" name="mute" parameterValue="0"/>
          </component>
          <component componentID="Audition.StereoPanner" id="clipPan" name="StereoPanner" powered="true">
            <parameter index="0" name="Panorámica" parameterValue="-40.1736031">
              <parameterKeyframes enableSplines="false">
                <parameterKeyframe sampleOffset="17401" select="false" type="linear" value="0.700868"/>
                <parameterKeyframe sampleOffset="71790" select="false" type="linear" value="0.700868"/>
                <parameterKeyframe sampleOffset="81190" select="false" type="linear" value="0.5"/>
              </parameterKeyframes>
            </parameter>
          </component>
          <fadeIn crossFadeLinkType="linkedAsymmetric" endPoint="0" shape="19" startPoint="0" type="log"/>
          <fadeOut crossFadeLinkType="linkedAsymmetric" endPoint="90270" shape="18" startPoint="89340" type="log"/>
          <editParameter parameterIndex="0" slotIndex="4294967281"/>
          <editParameter parameterIndex="0" slotIndex="4294967280"/>
          <channelMap>
            <channel index="0" sourceIndex="0"/>
            <channel index="1" sourceIndex="1"/>
          </channelMap>
        </audioClip>
        <audioClip clipAutoCrossfade="true" crossFadeHeadClipID="6" crossFadeTailClipID="-1" endPoint="3210280" fileID="16" hue="-1" id="7" lockedInTime="false" looped="false" name="Pista 10_001" offline="false" select="false" sourceInPoint="8891" sourceOutPoint="47232" startPoint="3171939" zOrder="45163">
          <component componentID="Audition.Fader" id="clipGain" name="volume" powered="true">
            <parameter index="0" name="volume" parameterValue="0">
              <parameterKeyframes enableSplines="true">
                <parameterKeyframe sampleOffset="11249" select="false" type="linear" value="0.3004065"/>
                <parameterKeyframe sampleOffset="16008" select="false" type="linear" value="0.65"/>
              </parameterKeyframes>
            </parameter>
            <parameter index="1" name="static gain" parameterValue="1"/>
          </component>
          <component componentID="Audition.Mute" id="clipMute" name="Mute" powered="true">
            <parameter index="0" parameterValue="0"/>
            <parameter index="1" name="mute" parameterValue="0"/>
          </component>
          <component componentID="Audition.StereoPanner" id="clipPan" name="StereoPanner" powered="true">
            <parameter index="0" name="Panorámica" parameterValue="0"/>
          </component>
          <fadeIn crossFadeLinkType="linkedAsymmetric" endPoint="930" shape="19" startPoint="0" type="log"/>
          <fadeOut crossFadeLinkType="linkedAsymmetric" endPoint="38341" shape="0" startPoint="38341" type="cosine"/>
          <editParameter parameterIndex="0" slotIndex="4294967281"/>
          <editParameter parameterIndex="0" slotIndex="4294967280"/>
          <channelMap>
            <channel index="0" sourceIndex="0"/>
            <channel index="1" sourceIndex="1"/>
          </channelMap>
        </audioClip>
        <audioClip clipAutoCrossfade="true" crossFadeHeadClipID="-1" crossFadeTailClipID="-1" endPoint="3560725" fileID="17" hue="-1" id="8" lockedInTime="false" looped="false" name="dark horse acapella_soprano_primera_estrofa" offline="false" select="false" sourceInPoint="319874" sourceOutPoint="640585" startPoint="3240014" zOrder="46019">
          <component componentID="Audition.Fader" id="clipGain" name="volume" powered="true">
            <parameter index="0" name="volume" parameterValue="0.6710816">
              <parameterKeyframes enableSplines="false">
                <parameterKeyframe sampleOffset="568019" select="false" type="linear" value="0.5436967"/>
              </parameterKeyframes>
            </parameter>
            <parameter index="1" name="static gain" parameterValue="1"/>
          </component>
          <component componentID="Audition.Mute" id="clipMute" name="Mute" powered="true">
            <parameter index="0" parameterValue="0"/>
            <parameter index="1" name="mute" parameterValue="0"/>
          </component>
          <component componentID="Audition.StereoPanner" id="clipPan" name="StereoPanner" powered="true">
            <parameter index="0" name="Panorámica" parameterValue="-44.9754601">
              <parameterKeyframes enableSplines="true">
                <parameterKeyframe sampleOffset="605902" select="false" type="linear" value="0.7248773"/>
                <parameterKeyframe sampleOffset="614246" select="false" type="linear" value="0.7248773"/>
                <parameterKeyframe sampleOffset="620745" select="false" type="linear" value="0.5"/>
                <parameterKeyframe sampleOffset="637433" select="false" type="linear" value="0.5"/>
                <parameterKeyframe sampleOffset="641521" select="false" type="linear" value="0.7122191"/>
                <parameterKeyframe sampleOffset="647623" select="false" type="linear" value="0.7248773"/>
              </parameterKeyframes>
            </parameter>
          </component>
          <fadeIn crossFadeLinkType="linkedAsymmetric" endPoint="0" shape="19" startPoint="0" type="log"/>
          <fadeOut crossFadeLinkType="linkedAsymmetric" endPoint="320711" shape="18" startPoint="320711" type="log"/>
          <editParameter parameterIndex="0" slotIndex="4294967280"/>
          <editParameter parameterIndex="0" slotIndex="4294967281"/>
          <channelMap>
            <channel index="0" sourceIndex="0"/>
            <channel index="1" sourceIndex="1"/>
          </channelMap>
        </audioClip>
        <audioClip clipAutoCrossfade="true" crossFadeHeadClipID="-1" crossFadeTailClipID="-1" endPoint="4845089" fileID="17" hue="-1" id="9" lockedInTime="false" looped="false" name="dark horse acapella_soprano_primera_estrofa" offline="false" select="false" sourceInPoint="0" sourceOutPoint="1283236" startPoint="3561853" zOrder="45166">
          <component componentID="Audition.Fader" id="clipGain" name="volume" powered="true">
            <parameter index="0" name="volume" parameterValue="0.6710816">
              <parameterKeyframes enableSplines="false">
                <parameterKeyframe sampleOffset="568019" select="false" type="linear" value="0.5436967"/>
              </parameterKeyframes>
            </parameter>
            <parameter index="1" name="static gain" parameterValue="1"/>
          </component>
          <component componentID="Audition.Mute" id="clipMute" name="Mute" powered="true">
            <parameter index="0" parameterValue="0"/>
            <parameter index="1" name="mute" parameterValue="0"/>
          </component>
          <component componentID="Audition.StereoPanner" id="clipPan" name="StereoPanner" powered="true">
            <parameter index="0" name="Panorámica" parameterValue="-44.9754601">
              <parameterKeyframes enableSplines="true">
                <parameterKeyframe sampleOffset="605902" select="false" type="linear" value="0.7248773"/>
                <parameterKeyframe sampleOffset="614246" select="false" type="linear" value="0.7248773"/>
                <parameterKeyframe sampleOffset="620745" select="false" type="linear" value="0.5"/>
                <parameterKeyframe sampleOffset="637433" select="false" type="linear" value="0.5"/>
                <parameterKeyframe sampleOffset="641521" select="false" type="linear" value="0.7122191"/>
                <parameterKeyframe sampleOffset="647623" select="false" type="linear" value="0.7248773"/>
              </parameterKeyframes>
            </parameter>
          </component>
          <fadeIn crossFadeLinkType="linkedAsymmetric" endPoint="0" shape="19" startPoint="0" type="log"/>
          <fadeOut crossFadeLinkType="linkedAsymmetric" endPoint="1283236" shape="18" startPoint="1283236" type="log"/>
          <editParameter parameterIndex="0" slotIndex="4294967280"/>
          <editParameter parameterIndex="0" slotIndex="4294967281"/>
          <channelMap>
            <channel index="0" sourceIndex="0"/>
            <channel index="1" sourceIndex="1"/>
          </channelMap>
        </audioClip>
        <audioClip clipAutoCrossfade="true" crossFadeHeadClipID="-1" crossFadeTailClipID="-1" endPoint="5406975" fileID="15" hue="-1" id="10" lockedInTime="false" looped="false" name="dark horse acapella_soprano_intro" offline="false" select="false" sourceInPoint="0" sourceOutPoint="561886" startPoint="4845089" zOrder="45160">
          <component componentID="Audition.Fader" id="clipGain" name="volume" powered="true">
            <parameter index="0" name="volume" parameterValue="0">
              <parameterKeyframes enableSplines="true">
                <parameterKeyframe sampleOffset="157885" select="false" type="linear" value="0.2174665"/>
                <parameterKeyframe sampleOffset="419749" select="false" type="linear" value="0.3123377"/>
                <parameterKeyframe sampleOffset="550782" select="false" type="linear" value="0.3970528"/>
              </parameterKeyframes>
            </parameter>
            <parameter index="1" name="static gain" parameterValue="1"/>
          </component>
          <component componentID="Audition.Mute" id="clipMute" name="Mute" powered="true">
            <parameter index="0" parameterValue="0"/>
            <parameter index="1" name="mute" parameterValue="0"/>
          </component>
          <component componentID="Audition.StereoPanner" id="clipPan" name="StereoPanner" powered="true">
            <parameter index="0" name="Panorámica" parameterValue="-30.004097"/>
          </component>
          <fadeIn crossFadeLinkType="linkedAsymmetric" endPoint="0" shape="19" startPoint="0" type="log"/>
          <fadeOut crossFadeLinkType="linkedAsymmetric" endPoint="561886" shape="19" startPoint="561886" type="log"/>
          <editParameter parameterIndex="0" slotIndex="4294967281"/>
          <editParameter parameterIndex="0" slotIndex="4294967280"/>
          <channelMap>
            <channel index="0" sourceIndex="0"/>
            <channel index="1" sourceIndex="1"/>
          </channelMap>
        </audioClip>
        <audioClip clipAutoCrossfade="true" crossFadeHeadClipID="-1" crossFadeTailClipID="-1" endPoint="5968861" fileID="15" hue="-1" id="11" lockedInTime="false" looped="false" name="dark horse acapella_soprano_intro" offline="false" select="false" sourceInPoint="0" sourceOutPoint="561886" startPoint="5406975" zOrder="45156">
          <component componentID="Audition.Fader" id="clipGain" name="volume" powered="true">
            <parameter index="0" name="volume" parameterValue="0">
              <parameterKeyframes enableSplines="true">
                <parameterKeyframe sampleOffset="6689" select="false" type="linear" value="0.4118471"/>
                <parameterKeyframe sampleOffset="108980" select="false" type="linear" value="0.5492806"/>
                <parameterKeyframe sampleOffset="373647" select="false" type="linear" value="0.5666667"/>
              </parameterKeyframes>
            </parameter>
            <parameter index="1" name="static gain" parameterValue="1"/>
          </component>
          <component componentID="Audition.Mute" id="clipMute" name="Mute" powered="true">
            <parameter index="0" parameterValue="0"/>
            <parameter index="1" name="mute" parameterValue="0"/>
          </component>
          <component componentID="Audition.StereoPanner" id="clipPan" name="StereoPanner" powered="true">
            <parameter index="0" name="Panorámica" parameterValue="-30.004097">
              <parameterKeyframes enableSplines="true">
                <parameterKeyframe sampleOffset="6966" select="false" type="linear" value="0.6500205"/>
                <parameterKeyframe sampleOffset="82499" select="false" type="linear" value="0.7262917"/>
                <parameterKeyframe sampleOffset="124864" select="false" type="linear" value="0.7432408"/>
                <parameterKeyframe sampleOffset="239185" select="false" type="linear" value="0.7421397"/>
                <parameterKeyframe sampleOffset="240910" select="false" type="linear" value="0.7217468"/>
                <parameterKeyframe sampleOffset="243766" select="false" type="linear" value="0.5"/>
                <parameterKeyframe sampleOffset="273795" select="false" type="linear" value="0.5"/>
                <parameterKeyframe sampleOffset="277985" select="false" type="linear" value="0.7618463"/>
                <parameterKeyframe sampleOffset="281990" select="false" type="linear" value="0.7818126"/>
              </parameterKeyframes>
            </parameter>
          </component>
          <fadeIn crossFadeLinkType="linkedAsymmetric" endPoint="0" shape="19" startPoint="0" type="log"/>
          <fadeOut crossFadeLinkType="linkedAsymmetric" endPoint="561886" shape="19" startPoint="561886" type="log"/>
          <editParameter parameterIndex="0" slotIndex="4294967281"/>
          <editParameter parameterIndex="0" slotIndex="4294967280"/>
          <channelMap>
            <channel index="0" sourceIndex="0"/>
            <channel index="1" sourceIndex="1"/>
          </channelMap>
        </audioClip>
        <audioClip clipAutoCrossfade="true" crossFadeHeadClipID="-1" crossFadeTailClipID="13" endPoint="6059131" fileID="15" hue="-1" id="12" lockedInTime="false" looped="false" name="dark horse acapella_soprano_intro" offline="false" select="false" sourceInPoint="0" sourceOutPoint="90270" startPoint="5968861" zOrder="45157">
          <component componentID="Audition.Fader" id="clipGain" name="volume" powered="true">
            <parameter index="0" name="volume" parameterValue="0.7482921"/>
            <parameter index="1" name="static gain" parameterValue="1"/>
          </component>
          <component componentID="Audition.Mute" id="clipMute" name="Mute" powered="true">
            <parameter index="0" parameterValue="0"/>
            <parameter index="1" name="mute" parameterValue="0"/>
          </component>
          <component componentID="Audition.StereoPanner" id="clipPan" name="StereoPanner" powered="true">
            <parameter index="0" name="Panorámica" parameterValue="-40.1736031">
              <parameterKeyframes enableSplines="false">
                <parameterKeyframe sampleOffset="17401" select="false" type="linear" value="0.700868"/>
                <parameterKeyframe sampleOffset="71790" select="false" type="linear" value="0.700868"/>
                <parameterKeyframe sampleOffset="81190" select="false" type="linear" value="0.5"/>
              </parameterKeyframes>
            </parameter>
          </component>
          <fadeIn crossFadeLinkType="linkedAsymmetric" endPoint="0" shape="19" startPoint="0" type="log"/>
          <fadeOut crossFadeLinkType="linkedAsymmetric" endPoint="90270" shape="18" startPoint="89340" type="log"/>
          <editParameter parameterIndex="0" slotIndex="4294967281"/>
          <editParameter parameterIndex="0" slotIndex="4294967280"/>
          <channelMap>
            <channel index="0" sourceIndex="0"/>
            <channel index="1" sourceIndex="1"/>
          </channelMap>
        </audioClip>
        <audioClip clipAutoCrossfade="true" crossFadeHeadClipID="12" crossFadeTailClipID="-1" endPoint="6096542" fileID="16" hue="-1" id="13" lockedInTime="false" looped="false" name="Pista 10_001" offline="false" select="false" sourceInPoint="8891" sourceOutPoint="47232" startPoint="6058201" zOrder="45158">
          <component componentID="Audition.Fader" id="clipGain" name="volume" powered="true">
            <parameter index="0" name="volume" parameterValue="0">
              <parameterKeyframes enableSplines="true">
                <parameterKeyframe sampleOffset="11249" select="false" type="linear" value="0.3004065"/>
                <parameterKeyframe sampleOffset="16008" select="false" type="linear" value="0.65"/>
              </parameterKeyframes>
            </parameter>
            <parameter index="1" name="static gain" parameterValue="1"/>
          </component>
          <component componentID="Audition.Mute" id="clipMute" name="Mute" powered="true">
            <parameter index="0" parameterValue="0"/>
            <parameter index="1" name="mute" parameterValue="0"/>
          </component>
          <component componentID="Audition.StereoPanner" id="clipPan" name="StereoPanner" powered="true">
            <parameter index="0" name="Panorámica" parameterValue="0"/>
          </component>
          <fadeIn crossFadeLinkType="linkedAsymmetric" endPoint="930" shape="19" startPoint="0" type="log"/>
          <fadeOut crossFadeLinkType="linkedAsymmetric" endPoint="38341" shape="0" startPoint="38341" type="cosine"/>
          <editParameter parameterIndex="0" slotIndex="4294967281"/>
          <editParameter parameterIndex="0" slotIndex="4294967280"/>
          <channelMap>
            <channel index="0" sourceIndex="0"/>
            <channel index="1" sourceIndex="1"/>
          </channelMap>
        </audioClip>
        <audioClip clipAutoCrossfade="true" crossFadeHeadClipID="-1" crossFadeTailClipID="-1" endPoint="6825612" fileID="17" hue="-1" id="14" lockedInTime="false" looped="false" name="dark horse acapella_soprano_primera_estrofa" offline="false" select="false" sourceInPoint="0" sourceOutPoint="697659" startPoint="6127953" zOrder="46007">
          <component componentID="Audition.Fader" id="clipGain" name="volume" powered="true">
            <parameter index="0" name="volume" parameterValue="0.6710816">
              <parameterKeyframes enableSplines="false">
                <parameterKeyframe sampleOffset="568019" select="false" type="linear" value="0.5436967"/>
              </parameterKeyframes>
            </parameter>
            <parameter index="1" name="static gain" parameterValue="1"/>
          </component>
          <component componentID="Audition.Mute" id="clipMute" name="Mute" powered="true">
            <parameter index="0" parameterValue="0"/>
            <parameter index="1" name="mute" parameterValue="0"/>
          </component>
          <component componentID="Audition.StereoPanner" id="clipPan" name="StereoPanner" powered="true">
            <parameter index="0" name="Panorámica" parameterValue="-44.9754601">
              <parameterKeyframes enableSplines="true">
                <parameterKeyframe sampleOffset="605902" select="false" type="linear" value="0.7248773"/>
                <parameterKeyframe sampleOffset="614246" select="false" type="linear" value="0.7248773"/>
                <parameterKeyframe sampleOffset="620745" select="false" type="linear" value="0.5"/>
                <parameterKeyframe sampleOffset="637433" select="false" type="linear" value="0.5"/>
                <parameterKeyframe sampleOffset="641521" select="false" type="linear" value="0.7122191"/>
                <parameterKeyframe sampleOffset="647623" select="false" type="linear" value="0.7248773"/>
              </parameterKeyframes>
            </parameter>
          </component>
          <fadeIn crossFadeLinkType="linkedAsymmetric" endPoint="0" shape="19" startPoint="0" type="log"/>
          <fadeOut crossFadeLinkType="linkedAsymmetric" endPoint="697659" shape="19" startPoint="697659" type="log"/>
          <editParameter parameterIndex="0" slotIndex="4294967281"/>
          <editParameter parameterIndex="0" slotIndex="4294967280"/>
          <channelMap>
            <channel index="0" sourceIndex="0"/>
            <channel index="1" sourceIndex="1"/>
          </channelMap>
        </audioClip>
        <audioClip clipAutoCrossfade="true" crossFadeHeadClipID="-1" crossFadeTailClipID="-1" endPoint="6904056" fileID="17" hue="-1" id="15" lockedInTime="false" looped="false" name="dark horse acapella_soprano_primera_estrofa" offline="false" select="false" sourceInPoint="721796" sourceOutPoint="776103" startPoint="6849749" zOrder="46008">
          <component componentID="Audition.Fader" id="clipGain" name="volume" powered="true">
            <parameter index="0" name="volume" parameterValue="0.6710816">
              <parameterKeyframes enableSplines="false">
                <parameterKeyframe sampleOffset="568019" select="false" type="linear" value="0.5436967"/>
              </parameterKeyframes>
            </parameter>
            <parameter index="1" name="static gain" parameterValue="1"/>
          </component>
          <component componentID="Audition.Mute" id="clipMute" name="Mute" powered="true">
            <parameter index="0" parameterValue="0"/>
            <parameter index="1" name="mute" parameterValue="0"/>
          </component>
          <component componentID="Audition.StereoPanner" id="clipPan" name="StereoPanner" powered="true">
            <parameter index="0" name="Panorámica" parameterValue="-44.9754601">
              <parameterKeyframes enableSplines="true">
                <parameterKeyframe sampleOffset="605902" select="false" type="linear" value="0.7248773"/>
                <parameterKeyframe sampleOffset="614246" select="false" type="linear" value="0.7248773"/>
                <parameterKeyframe sampleOffset="620745" select="false" type="linear" value="0.5"/>
                <parameterKeyframe sampleOffset="637433" select="false" type="linear" value="0.5"/>
                <parameterKeyframe sampleOffset="641521" select="false" type="linear" value="0.7122191"/>
                <parameterKeyframe sampleOffset="647623" select="false" type="linear" value="0.7248773"/>
              </parameterKeyframes>
            </parameter>
          </component>
          <fadeIn crossFadeLinkType="linkedAsymmetric" endPoint="0" shape="0" startPoint="0" type="cosine"/>
          <fadeOut crossFadeLinkType="linkedAsymmetric" endPoint="54307" shape="19" startPoint="54307" type="log"/>
          <editParameter parameterIndex="0" slotIndex="4294967281"/>
          <editParameter parameterIndex="0" slotIndex="4294967280"/>
          <channelMap>
            <channel index="0" sourceIndex="0"/>
            <channel index="1" sourceIndex="1"/>
          </channelMap>
        </audioClip>
        <audioClip clipAutoCrossfade="true" crossFadeHeadClipID="-1" crossFadeTailClipID="-1" endPoint="7047674" fileID="17" hue="-1" id="16" lockedInTime="false" looped="false" name="dark horse acapella_soprano_primera_estrofa" offline="false" select="false" sourceInPoint="801376" sourceOutPoint="919721" startPoint="6929329" zOrder="46005">
          <component componentID="Audition.Fader" id="clipGain" name="volume" powered="true">
            <parameter index="0" name="volume" parameterValue="0.6710816">
              <parameterKeyframes enableSplines="false">
                <parameterKeyframe sampleOffset="568019" select="false" type="linear" value="0.5436967"/>
              </parameterKeyframes>
            </parameter>
            <parameter index="1" name="static gain" parameterValue="1"/>
          </component>
          <component componentID="Audition.Mute" id="clipMute" name="Mute" powered="true">
            <parameter index="0" parameterValue="0"/>
            <parameter index="1" name="mute" parameterValue="0"/>
          </component>
          <component componentID="Audition.StereoPanner" id="clipPan" name="StereoPanner" powered="true">
            <parameter index="0" name="Panorámica" parameterValue="-44.9754601">
              <parameterKeyframes enableSplines="true">
                <parameterKeyframe sampleOffset="605902" select="false" type="linear" value="0.7248773"/>
                <parameterKeyframe sampleOffset="614246" select="false" type="linear" value="0.7248773"/>
                <parameterKeyframe sampleOffset="620745" select="false" type="linear" value="0.5"/>
                <parameterKeyframe sampleOffset="637433" select="false" type="linear" value="0.5"/>
                <parameterKeyframe sampleOffset="641521" select="false" type="linear" value="0.7122191"/>
                <parameterKeyframe sampleOffset="647623" select="false" type="linear" value="0.7248773"/>
              </parameterKeyframes>
            </parameter>
          </component>
          <fadeIn crossFadeLinkType="linkedAsymmetric" endPoint="0" shape="0" startPoint="0" type="cosine"/>
          <fadeOut crossFadeLinkType="linkedAsymmetric" endPoint="118345" shape="19" startPoint="118345" type="log"/>
          <editParameter parameterIndex="0" slotIndex="4294967281"/>
          <editParameter parameterIndex="0" slotIndex="4294967280"/>
          <channelMap>
            <channel index="0" sourceIndex="0"/>
            <channel index="1" sourceIndex="1"/>
          </channelMap>
        </audioClip>
        <audioClip clipAutoCrossfade="true" crossFadeHeadClipID="-1" crossFadeTailClipID="-1" endPoint="7340731" fileID="17" hue="-1" id="17" lockedInTime="false" looped="false" name="dark horse acapella_soprano_primera_estrofa" offline="false" select="false" sourceInPoint="962259" sourceOutPoint="1212778" startPoint="7090212" zOrder="46018">
          <component componentID="Audition.Fader" id="clipGain" name="volume" powered="true">
            <parameter index="0" name="volume" parameterValue="0.6710816">
              <parameterKeyframes enableSplines="false">
                <parameterKeyframe sampleOffset="568019" select="false" type="linear" value="0.5436967"/>
              </parameterKeyframes>
            </parameter>
            <parameter index="1" name="static gain" parameterValue="1"/>
          </component>
          <component componentID="Audition.Mute" id="clipMute" name="Mute" powered="true">
            <parameter index="0" parameterValue="0"/>
            <parameter index="1" name="mute" parameterValue="0"/>
          </component>
          <component componentID="Audition.StereoPanner" id="clipPan" name="StereoPanner" powered="true">
            <parameter index="0" name="Panorámica" parameterValue="-44.9754601">
              <parameterKeyframes enableSplines="true">
                <parameterKeyframe sampleOffset="605902" select="false" type="linear" value="0.7248773"/>
                <parameterKeyframe sampleOffset="614246" select="false" type="linear" value="0.7248773"/>
                <parameterKeyframe sampleOffset="620745" select="false" type="linear" value="0.5"/>
                <parameterKeyframe sampleOffset="637433" select="false" type="linear" value="0.5"/>
                <parameterKeyframe sampleOffset="641521" select="false" type="linear" value="0.7122191"/>
                <parameterKeyframe sampleOffset="647623" select="false" type="linear" value="0.7248773"/>
              </parameterKeyframes>
            </parameter>
          </component>
          <fadeIn crossFadeLinkType="linkedAsymmetric" endPoint="0" shape="0" startPoint="0" type="cosine"/>
          <fadeOut crossFadeLinkType="linkedAsymmetric" endPoint="250519" shape="19" startPoint="250519" type="log"/>
          <editParameter parameterIndex="0" slotIndex="4294967281"/>
          <editParameter parameterIndex="0" slotIndex="4294967280"/>
          <channelMap>
            <channel index="0" sourceIndex="0"/>
            <channel index="1" sourceIndex="1"/>
          </channelMap>
        </audioClip>
        <audioClip clipAutoCrossfade="true" crossFadeHeadClipID="-1" crossFadeTailClipID="-1" endPoint="7350506" fileID="17" hue="-1" id="18" lockedInTime="false" looped="false" name="dark horse acapella_soprano_primera_estrofa" offline="false" select="false" sourceInPoint="1202973" sourceOutPoint="1212748" startPoint="7340731" zOrder="45938">
          <component componentID="Audition.Fader" id="clipGain" name="volume" powered="true">
            <parameter index="0" name="volume" parameterValue="0.6710816">
              <parameterKeyframes enableSplines="false">
                <parameterKeyframe sampleOffset="568019" select="false" type="linear" value="0.5436967"/>
              </parameterKeyframes>
            </parameter>
            <parameter index="1" name="static gain" parameterValue="1"/>
          </component>
          <component componentID="Audition.Mute" id="clipMute" name="Mute" powered="true">
            <parameter index="0" parameterValue="0"/>
            <parameter index="1" name="mute" parameterValue="0"/>
          </component>
          <component componentID="Audition.StereoPanner" id="clipPan" name="StereoPanner" powered="true">
            <parameter index="0" name="Panorámica" parameterValue="-44.9754601">
              <parameterKeyframes enableSplines="true">
                <parameterKeyframe sampleOffset="605902" select="false" type="linear" value="0.7248773"/>
                <parameterKeyframe sampleOffset="614246" select="false" type="linear" value="0.7248773"/>
                <parameterKeyframe sampleOffset="620745" select="false" type="linear" value="0.5"/>
                <parameterKeyframe sampleOffset="637433" select="false" type="linear" value="0.5"/>
                <parameterKeyframe sampleOffset="641521" select="false" type="linear" value="0.7122191"/>
                <parameterKeyframe sampleOffset="647623" select="false" type="linear" value="0.7248773"/>
              </parameterKeyframes>
            </parameter>
          </component>
          <fadeIn crossFadeLinkType="linkedAsymmetric" endPoint="0" shape="0" startPoint="0" type="cosine"/>
          <fadeOut crossFadeLinkType="linkedAsymmetric" endPoint="9775" shape="19" startPoint="9775" type="log"/>
          <editParameter parameterIndex="0" slotIndex="4294967281"/>
          <editParameter parameterIndex="0" slotIndex="4294967280"/>
          <channelMap>
            <channel index="0" sourceIndex="0"/>
            <channel index="1" sourceIndex="1"/>
          </channelMap>
        </audioClip>
        <audioClip clipAutoCrossfade="true" crossFadeHeadClipID="-1" crossFadeTailClipID="-1" endPoint="7360802" fileID="17" hue="-1" id="19" lockedInTime="false" looped="false" name="dark horse acapella_soprano_primera_estrofa" offline="false" select="false" sourceInPoint="1223399" sourceOutPoint="1233695" startPoint="7350506" zOrder="46016">
          <component componentID="Audition.Fader" id="clipGain" name="volume" powered="true">
            <parameter index="0" name="volume" parameterValue="0.6710816">
              <parameterKeyframes enableSplines="false">
                <parameterKeyframe sampleOffset="568019" select="false" type="linear" value="0.5436967"/>
              </parameterKeyframes>
            </parameter>
            <parameter index="1" name="static gain" parameterValue="1"/>
          </component>
          <component componentID="Audition.Mute" id="clipMute" name="Mute" powered="true">
            <parameter index="0" parameterValue="0"/>
            <parameter index="1" name="mute" parameterValue="0"/>
          </component>
          <component componentID="Audition.StereoPanner" id="clipPan" name="StereoPanner" powered="true">
            <parameter index="0" name="Panorámica" parameterValue="-44.9754601">
              <parameterKeyframes enableSplines="true">
                <parameterKeyframe sampleOffset="605902" select="false" type="linear" value="0.7248773"/>
                <parameterKeyframe sampleOffset="614246" select="false" type="linear" value="0.7248773"/>
                <parameterKeyframe sampleOffset="620745" select="false" type="linear" value="0.5"/>
                <parameterKeyframe sampleOffset="637433" select="false" type="linear" value="0.5"/>
                <parameterKeyframe sampleOffset="641521" select="false" type="linear" value="0.7122191"/>
                <parameterKeyframe sampleOffset="647623" select="false" type="linear" value="0.7248773"/>
              </parameterKeyframes>
            </parameter>
          </component>
          <fadeIn crossFadeLinkType="linkedAsymmetric" endPoint="0" shape="0" startPoint="0" type="cosine"/>
          <fadeOut crossFadeLinkType="linkedAsymmetric" endPoint="10296" shape="19" startPoint="10296" type="log"/>
          <editParameter parameterIndex="0" slotIndex="4294967281"/>
          <editParameter parameterIndex="0" slotIndex="4294967280"/>
          <channelMap>
            <channel index="0" sourceIndex="0"/>
            <channel index="1" sourceIndex="1"/>
          </channelMap>
        </audioClip>
        <audioClip clipAutoCrossfade="true" crossFadeHeadClipID="-1" crossFadeTailClipID="-1" endPoint="7371012" fileID="17" hue="-1" id="20" lockedInTime="false" looped="false" name="dark horse acapella_soprano_primera_estrofa" offline="false" select="false" sourceInPoint="1223508" sourceOutPoint="1233718" startPoint="7360802" zOrder="45863">
          <component componentID="Audition.Fader" id="clipGain" name="volume" powered="true">
            <parameter index="0" name="volume" parameterValue="0.6710816">
              <parameterKeyframes enableSplines="false">
                <parameterKeyframe sampleOffset="568019" select="false" type="linear" value="0.5436967"/>
              </parameterKeyframes>
            </parameter>
            <parameter index="1" name="static gain" parameterValue="1"/>
          </component>
          <component componentID="Audition.Mute" id="clipMute" name="Mute" powered="true">
            <parameter index="0" parameterValue="0"/>
            <parameter index="1" name="mute" parameterValue="0"/>
          </component>
          <component componentID="Audition.StereoPanner" id="clipPan" name="StereoPanner" powered="true">
            <parameter index="0" name="Panorámica" parameterValue="-44.9754601">
              <parameterKeyframes enableSplines="true">
                <parameterKeyframe sampleOffset="605902" select="false" type="linear" value="0.7248773"/>
                <parameterKeyframe sampleOffset="614246" select="false" type="linear" value="0.7248773"/>
                <parameterKeyframe sampleOffset="620745" select="false" type="linear" value="0.5"/>
                <parameterKeyframe sampleOffset="637433" select="false" type="linear" value="0.5"/>
                <parameterKeyframe sampleOffset="641521" select="false" type="linear" value="0.7122191"/>
                <parameterKeyframe sampleOffset="647623" select="false" type="linear" value="0.7248773"/>
              </parameterKeyframes>
            </parameter>
          </component>
          <fadeIn crossFadeLinkType="linkedAsymmetric" endPoint="0" shape="0" startPoint="0" type="cosine"/>
          <fadeOut crossFadeLinkType="linkedAsymmetric" endPoint="10210" shape="19" startPoint="10210" type="log"/>
          <editParameter parameterIndex="0" slotIndex="4294967281"/>
          <editParameter parameterIndex="0" slotIndex="4294967280"/>
          <channelMap>
            <channel index="0" sourceIndex="0"/>
            <channel index="1" sourceIndex="1"/>
          </channelMap>
        </audioClip>
        <audioClip clipAutoCrossfade="true" crossFadeHeadClipID="-1" crossFadeTailClipID="-1" endPoint="7387974" fileID="17" hue="-1" id="21" lockedInTime="false" looped="false" name="dark horse acapella_soprano_primera_estrofa" offline="false" select="false" sourceInPoint="1243059" sourceOutPoint="1260021" startPoint="7371012" zOrder="46006">
          <component componentID="Audition.Fader" id="clipGain" name="volume" powered="true">
            <parameter index="0" name="volume" parameterValue="0.6710816">
              <parameterKeyframes enableSplines="false">
                <parameterKeyframe sampleOffset="568019" select="false" type="linear" value="0.5436967"/>
              </parameterKeyframes>
            </parameter>
            <parameter index="1" name="static gain" parameterValue="1"/>
          </component>
          <component componentID="Audition.Mute" id="clipMute" name="Mute" powered="true">
            <parameter index="0" parameterValue="0"/>
            <parameter index="1" name="mute" parameterValue="0"/>
          </component>
          <component componentID="Audition.StereoPanner" id="clipPan" name="StereoPanner" powered="true">
            <parameter index="0" name="Panorámica" parameterValue="-44.9754601">
              <parameterKeyframes enableSplines="true">
                <parameterKeyframe sampleOffset="605902" select="false" type="linear" value="0.7248773"/>
                <parameterKeyframe sampleOffset="614246" select="false" type="linear" value="0.7248773"/>
                <parameterKeyframe sampleOffset="620745" select="false" type="linear" value="0.5"/>
                <parameterKeyframe sampleOffset="637433" select="false" type="linear" value="0.5"/>
                <parameterKeyframe sampleOffset="641521" select="false" type="linear" value="0.7122191"/>
                <parameterKeyframe sampleOffset="647623" select="false" type="linear" value="0.7248773"/>
              </parameterKeyframes>
            </parameter>
          </component>
          <fadeIn crossFadeLinkType="linkedAsymmetric" endPoint="0" shape="0" startPoint="0" type="cosine"/>
          <fadeOut crossFadeLinkType="linkedAsymmetric" endPoint="16962" shape="19" startPoint="16962" type="log"/>
          <editParameter parameterIndex="0" slotIndex="4294967281"/>
          <editParameter parameterIndex="0" slotIndex="4294967280"/>
          <channelMap>
            <channel index="0" sourceIndex="0"/>
            <channel index="1" sourceIndex="1"/>
          </channelMap>
        </audioClip>
        <audioClip clipAutoCrossfade="true" crossFadeHeadClipID="-1" crossFadeTailClipID="-1" endPoint="13538941" fileID="18" hue="-1" id="22" lockedInTime="false" looped="false" name="dark_horse soprano mejorado" offline="false" select="false" sourceInPoint="0" sourceOutPoint="571781" startPoint="12967160" zOrder="36697">
          <component componentID="Audition.Fader" id="clipGain" name="volume" powered="true">
            <parameter index="0" name="volume" parameterValue="0">
              <parameterKeyframes enableSplines="true">
                <parameterKeyframe sampleOffset="248600" select="false" type="linear" value="0.2340256"/>
                <parameterKeyframe sampleOffset="289383" select="false" type="linear" value="0.3691452"/>
                <parameterKeyframe sampleOffset="318811" select="false" type="linear" value="0.65"/>
                <parameterKeyframe sampleOffset="329940" select="false" type="linear" value="0.286016"/>
                <parameterKeyframe sampleOffset="385185" select="false" type="linear" value="0.4919642"/>
                <parameterKeyframe sampleOffset="475868" select="false" type="linear" value="0.4557431"/>
                <parameterKeyframe sampleOffset="481464" select="false" type="linear" value="0.6925549"/>
                <parameterKeyframe sampleOffset="481465" select="false" type="linear" value="0.385994"/>
                <parameterKeyframe sampleOffset="493474" select="false" type="linear" value="0.5823861"/>
                <parameterKeyframe sampleOffset="519491" select="false" type="linear" value="0.5825982"/>
                <parameterKeyframe sampleOffset="523541" select="false" type="linear" value="0.3661819"/>
                <parameterKeyframe sampleOffset="527892" select="false" type="linear" value="0.5825175"/>
                <parameterKeyframe sampleOffset="553804" select="false" type="linear" value="0.6009476"/>
                <parameterKeyframe sampleOffset="560902" select="false" type="linear" value="0.6265886"/>
                <parameterKeyframe sampleOffset="565277" select="false" type="linear" value="0.5205882"/>
                <parameterKeyframe sampleOffset="567716" select="false" type="linear" value="0.65"/>
              </parameterKeyframes>
            </parameter>
            <parameter index="1" name="static gain" parameterValue="1"/>
          </component>
          <component componentID="Audition.Mute" id="clipMute" name="Mute" powered="true">
            <parameter index="0" parameterValue="0"/>
            <parameter index="1" name="mute" parameterValue="0"/>
          </component>
          <component componentID="Audition.StereoPanner" id="clipPan" name="StereoPanner" powered="true">
            <parameter index="0" name="Panorámica" parameterValue="78.3360214">
              <parameterKeyframes enableSplines="true">
                <parameterKeyframe sampleOffset="260445" select="false" type="linear" value="0.1083199"/>
                <parameterKeyframe sampleOffset="268564" select="false" type="linear" value="0.2076566"/>
                <parameterKeyframe sampleOffset="330074" select="false" type="linear" value="0.5"/>
                <parameterKeyframe sampleOffset="330075" select="false" type="linear" value="0.7018561"/>
                <parameterKeyframe sampleOffset="423638" select="false" type="linear" value="0.6832277"/>
                <parameterKeyframe sampleOffset="438365" select="false" type="linear" value="0.6887597"/>
                <parameterKeyframe sampleOffset="445273" select="false" type="linear" value="0.3457653"/>
                <parameterKeyframe sampleOffset="475633" select="false" type="linear" value="0.344611"/>
                <parameterKeyframe sampleOffset="550521" select="false" type="linear" value="0.3356237"/>
                <parameterKeyframe sampleOffset="558786" select="false" type="linear" value="0.5"/>
                <parameterKeyframe sampleOffset="561880" select="false" type="linear" value="0.4845964"/>
              </parameterKeyframes>
            </parameter>
          </component>
          <fadeIn crossFadeLinkType="linkedAsymmetric" endPoint="0" shape="0" startPoint="0" type="cosine"/>
          <fadeOut crossFadeLinkType="linkedAsymmetric" endPoint="571781" shape="0" startPoint="571781" type="cosine"/>
          <editParameter parameterIndex="0" slotIndex="4294967281"/>
          <editParameter parameterIndex="0" slotIndex="4294967280"/>
          <channelMap>
            <channel index="0" sourceIndex="0"/>
            <channel index="1" sourceIndex="1"/>
          </channelMap>
        </audioClip>
        <audioClip clipAutoCrossfade="true" crossFadeHeadClipID="-1" crossFadeTailClipID="-1" endPoint="13695395" fileID="19" hue="-1" id="23" lockedInTime="false" looped="false" name="Rebote_1" offline="false" select="false" sourceInPoint="0" sourceOutPoint="40164" startPoint="13655231" zOrder="37561">
          <component componentID="Audition.Fader" id="clipGain" name="volume" powered="true">
            <parameter index="0" name="volume" parameterValue="1"/>
            <parameter index="1" name="static gain" parameterValue="1"/>
          </component>
          <component componentID="Audition.Mute" id="clipMute" name="Mute" powered="true">
            <parameter index="0" parameterValue="0"/>
            <parameter index="1" name="mute" parameterValue="0"/>
          </component>
          <component componentID="Audition.StereoPanner" id="clipPan" name="StereoPanner" powered="true">
            <parameter index="0" name="Panorámica" parameterValue="0"/>
          </component>
          <fadeIn crossFadeLinkType="linkedAsymmetric" endPoint="0" shape="0" startPoint="0" type="cosine"/>
          <fadeOut crossFadeLinkType="linkedAsymmetric" endPoint="40164" shape="18" startPoint="40164" type="log"/>
          <editParameter parameterIndex="0" slotIndex="4294967281"/>
          <editParameter parameterIndex="0" slotIndex="4294967280"/>
          <channelMap>
            <channel index="0" sourceIndex="0"/>
            <channel index="1" sourceIndex="1"/>
          </channelMap>
        </audioClip>
        <audioClip clipAutoCrossfade="true" crossFadeHeadClipID="-1" crossFadeTailClipID="-1" endPoint="13735559" fileID="19" hue="-1" id="24" lockedInTime="false" looped="false" name="Rebote_1" offline="false" select="false" sourceInPoint="0" sourceOutPoint="40164" startPoint="13695395" zOrder="37551">
          <component componentID="Audition.Fader" id="clipGain" name="volume" powered="true">
            <parameter index="0" name="volume" parameterValue="1"/>
            <parameter index="1" name="static gain" parameterValue="1"/>
          </component>
          <component componentID="Audition.Mute" id="clipMute" name="Mute" powered="true">
            <parameter index="0" parameterValue="0"/>
            <parameter index="1" name="mute" parameterValue="0"/>
          </component>
          <component componentID="Audition.StereoPanner" id="clipPan" name="StereoPanner" powered="true">
            <parameter index="0" name="Panorámica" parameterValue="0"/>
          </component>
          <fadeIn crossFadeLinkType="linkedAsymmetric" endPoint="0" shape="0" startPoint="0" type="cosine"/>
          <fadeOut crossFadeLinkType="linkedAsymmetric" endPoint="40164" shape="0" startPoint="40164" type="cosine"/>
          <editParameter parameterIndex="0" slotIndex="4294967281"/>
          <editParameter parameterIndex="0" slotIndex="4294967280"/>
          <channelMap>
            <channel index="0" sourceIndex="0"/>
            <channel index="1" sourceIndex="1"/>
          </channelMap>
        </audioClip>
        <audioClip clipAutoCrossfade="true" crossFadeHeadClipID="-1" crossFadeTailClipID="-1" endPoint="13775723" fileID="19" hue="-1" id="25" lockedInTime="false" looped="false" name="Rebote_1" offline="false" select="false" sourceInPoint="0" sourceOutPoint="40164" startPoint="13735559" zOrder="37552">
          <component componentID="Audition.Fader" id="clipGain" name="volume" powered="true">
            <parameter index="0" name="volume" parameterValue="1"/>
            <parameter index="1" name="static gain" parameterValue="1"/>
          </component>
          <component componentID="Audition.Mute" id="clipMute" name="Mute" powered="true">
            <parameter index="0" parameterValue="0"/>
            <parameter index="1" name="mute" parameterValue="0"/>
          </component>
          <component componentID="Audition.StereoPanner" id="clipPan" name="StereoPanner" powered="true">
            <parameter index="0" name="Panorámica" parameterValue="0"/>
          </component>
          <fadeIn crossFadeLinkType="linkedAsymmetric" endPoint="0" shape="0" startPoint="0" type="cosine"/>
          <fadeOut crossFadeLinkType="linkedAsymmetric" endPoint="40164" shape="0" startPoint="40164" type="cosine"/>
          <editParameter parameterIndex="0" slotIndex="4294967281"/>
          <editParameter parameterIndex="0" slotIndex="4294967280"/>
          <channelMap>
            <channel index="0" sourceIndex="0"/>
            <channel index="1" sourceIndex="1"/>
          </channelMap>
        </audioClip>
        <audioClip clipAutoCrossfade="true" crossFadeHeadClipID="-1" crossFadeTailClipID="-1" endPoint="13815887" fileID="19" hue="-1" id="26" lockedInTime="false" looped="false" name="Rebote_1" offline="false" select="false" sourceInPoint="0" sourceOutPoint="40164" startPoint="13775723" zOrder="37562">
          <component componentID="Audition.Fader" id="clipGain" name="volume" powered="true">
            <parameter index="0" name="volume" parameterValue="1"/>
            <parameter index="1" name="static gain" parameterValue="1"/>
          </component>
          <component componentID="Audition.Mute" id="clipMute" name="Mute" powered="true">
            <parameter index="0" parameterValue="0"/>
            <parameter index="1" name="mute" parameterValue="0"/>
          </component>
          <component componentID="Audition.StereoPanner" id="clipPan" name="StereoPanner" powered="true">
            <parameter index="0" name="Panorámica" parameterValue="0"/>
          </component>
          <fadeIn crossFadeLinkType="linkedAsymmetric" endPoint="0" shape="0" startPoint="0" type="cosine"/>
          <fadeOut crossFadeLinkType="linkedAsymmetric" endPoint="40164" shape="0" startPoint="40164" type="cosine"/>
          <editParameter parameterIndex="0" slotIndex="4294967281"/>
          <editParameter parameterIndex="0" slotIndex="4294967280"/>
          <channelMap>
            <channel index="0" sourceIndex="0"/>
            <channel index="1" sourceIndex="1"/>
          </channelMap>
        </audioClip>
        <audioClip clipAutoCrossfade="true" crossFadeHeadClipID="-1" crossFadeTailClipID="-1" endPoint="13856051" fileID="19" hue="-1" id="27" lockedInTime="false" looped="false" name="Rebote_1" offline="false" select="false" sourceInPoint="0" sourceOutPoint="40164" startPoint="13815887" zOrder="37553">
          <component componentID="Audition.Fader" id="clipGain" name="volume" powered="true">
            <parameter index="0" name="volume" parameterValue="1"/>
            <parameter index="1" name="static gain" parameterValue="1"/>
          </component>
          <component componentID="Audition.Mute" id="clipMute" name="Mute" powered="true">
            <parameter index="0" parameterValue="0"/>
            <parameter index="1" name="mute" parameterValue="0"/>
          </component>
          <component componentID="Audition.StereoPanner" id="clipPan" name="StereoPanner" powered="true">
            <parameter index="0" name="Panorámica" parameterValue="0"/>
          </component>
          <fadeIn crossFadeLinkType="linkedAsymmetric" endPoint="0" shape="0" startPoint="0" type="cosine"/>
          <fadeOut crossFadeLinkType="linkedAsymmetric" endPoint="40164" shape="0" startPoint="40164" type="cosine"/>
          <editParameter parameterIndex="0" slotIndex="4294967281"/>
          <editParameter parameterIndex="0" slotIndex="4294967280"/>
          <channelMap>
            <channel index="0" sourceIndex="0"/>
            <channel index="1" sourceIndex="1"/>
          </channelMap>
        </audioClip>
        <audioClip clipAutoCrossfade="true" crossFadeHeadClipID="-1" crossFadeTailClipID="29" endPoint="13896215" fileID="19" hue="-1" id="28" lockedInTime="false" looped="false" name="Rebote_1" offline="false" select="false" sourceInPoint="0" sourceOutPoint="40164" startPoint="13856051" zOrder="37554">
          <component componentID="Audition.Fader" id="clipGain" name="volume" powered="true">
            <parameter index="0" name="volume" parameterValue="1"/>
            <parameter index="1" name="static gain" parameterValue="1"/>
          </component>
          <component componentID="Audition.Mute" id="clipMute" name="Mute" powered="true">
            <parameter index="0" parameterValue="0"/>
            <parameter index="1" name="mute" parameterValue="0"/>
          </component>
          <component componentID="Audition.StereoPanner" id="clipPan" name="StereoPanner" powered="true">
            <parameter index="0" name="Panorámica" parameterValue="0"/>
          </component>
          <fadeIn crossFadeLinkType="linkedAsymmetric" endPoint="0" shape="0" startPoint="0" type="cosine"/>
          <fadeOut crossFadeLinkType="linkedAsymmetric" endPoint="40164" shape="18" startPoint="39751" type="log"/>
          <editParameter parameterIndex="0" slotIndex="4294967281"/>
          <editParameter parameterIndex="0" slotIndex="4294967280"/>
          <channelMap>
            <channel index="0" sourceIndex="0"/>
            <channel index="1" sourceIndex="1"/>
          </channelMap>
        </audioClip>
        <audioClip clipAutoCrossfade="true" crossFadeHeadClipID="28" crossFadeTailClipID="-1" endPoint="13935966" fileID="19" hue="-1" id="29" lockedInTime="false" looped="false" name="Rebote_1" offline="false" select="false" sourceInPoint="0" sourceOutPoint="40164" startPoint="13895802" zOrder="37555">
          <component componentID="Audition.Fader" id="clipGain" name="volume" powered="true">
            <parameter index="0" name="volume" parameterValue="1"/>
            <parameter index="1" name="static gain" parameterValue="1"/>
          </component>
          <component componentID="Audition.Mute" id="clipMute" name="Mute" powered="true">
            <parameter index="0" parameterValue="0"/>
            <parameter index="1" name="mute" parameterValue="0"/>
          </component>
          <component componentID="Audition.StereoPanner" id="clipPan" name="StereoPanner" powered="true">
            <parameter index="0" name="Panorámica" parameterValue="0"/>
          </component>
          <fadeIn crossFadeLinkType="linkedAsymmetric" endPoint="413" shape="19" startPoint="0" type="log"/>
          <fadeOut crossFadeLinkType="linkedAsymmetric" endPoint="40164" shape="0" startPoint="40164" type="cosine"/>
          <editParameter parameterIndex="0" slotIndex="4294967281"/>
          <editParameter parameterIndex="0" slotIndex="4294967280"/>
          <channelMap>
            <channel index="0" sourceIndex="0"/>
            <channel index="1" sourceIndex="1"/>
          </channelMap>
        </audioClip>
        <audioClip clipAutoCrossfade="true" crossFadeHeadClipID="-1" crossFadeTailClipID="-1" endPoint="13976130" fileID="19" hue="-1" id="30" lockedInTime="false" looped="false" name="Rebote_1" offline="false" select="false" sourceInPoint="0" sourceOutPoint="40164" startPoint="13935966" zOrder="37556">
          <component componentID="Audition.Fader" id="clipGain" name="volume" powered="true">
            <parameter index="0" name="volume" parameterValue="1"/>
            <parameter index="1" name="static gain" parameterValue="1"/>
          </component>
          <component componentID="Audition.Mute" id="clipMute" name="Mute" powered="true">
            <parameter index="0" parameterValue="0"/>
            <parameter index="1" name="mute" parameterValue="0"/>
          </component>
          <component componentID="Audition.StereoPanner" id="clipPan" name="StereoPanner" powered="true">
            <parameter index="0" name="Panorámica" parameterValue="0"/>
          </component>
          <fadeIn crossFadeLinkType="linkedAsymmetric" endPoint="0" shape="0" startPoint="0" type="cosine"/>
          <fadeOut crossFadeLinkType="linkedAsymmetric" endPoint="40164" shape="0" startPoint="40164" type="cosine"/>
          <editParameter parameterIndex="0" slotIndex="4294967281"/>
          <editParameter parameterIndex="0" slotIndex="4294967280"/>
          <channelMap>
            <channel index="0" sourceIndex="0"/>
            <channel index="1" sourceIndex="1"/>
          </channelMap>
        </audioClip>
        <audioClip clipAutoCrossfade="true" crossFadeHeadClipID="-1" crossFadeTailClipID="-1" endPoint="14016294" fileID="19" hue="-1" id="31" lockedInTime="false" looped="false" name="Rebote_1" offline="false" select="false" sourceInPoint="0" sourceOutPoint="40164" startPoint="13976130" zOrder="37557">
          <component componentID="Audition.Fader" id="clipGain" name="volume" powered="true">
            <parameter index="0" name="volume" parameterValue="1"/>
            <parameter index="1" name="static gain" parameterValue="1"/>
          </component>
          <component componentID="Audition.Mute" id="clipMute" name="Mute" powered="true">
            <parameter index="0" parameterValue="0"/>
            <parameter index="1" name="mute" parameterValue="0"/>
          </component>
          <component componentID="Audition.StereoPanner" id="clipPan" name="StereoPanner" powered="true">
            <parameter index="0" name="Panorámica" parameterValue="0"/>
          </component>
          <fadeIn crossFadeLinkType="linkedAsymmetric" endPoint="0" shape="0" startPoint="0" type="cosine"/>
          <fadeOut crossFadeLinkType="linkedAsymmetric" endPoint="40164" shape="0" startPoint="40164" type="cosine"/>
          <editParameter parameterIndex="0" slotIndex="4294967281"/>
          <editParameter parameterIndex="0" slotIndex="4294967280"/>
          <channelMap>
            <channel index="0" sourceIndex="0"/>
            <channel index="1" sourceIndex="1"/>
          </channelMap>
        </audioClip>
        <audioClip clipAutoCrossfade="true" crossFadeHeadClipID="-1" crossFadeTailClipID="-1" endPoint="14056458" fileID="19" hue="-1" id="32" lockedInTime="false" looped="false" name="Rebote_1" offline="false" select="false" sourceInPoint="0" sourceOutPoint="40164" startPoint="14016294" zOrder="37558">
          <component componentID="Audition.Fader" id="clipGain" name="volume" powered="true">
            <parameter index="0" name="volume" parameterValue="1"/>
            <parameter index="1" name="static gain" parameterValue="1"/>
          </component>
          <component componentID="Audition.Mute" id="clipMute" name="Mute" powered="true">
            <parameter index="0" parameterValue="0"/>
            <parameter index="1" name="mute" parameterValue="0"/>
          </component>
          <component componentID="Audition.StereoPanner" id="clipPan" name="StereoPanner" powered="true">
            <parameter index="0" name="Panorámica" parameterValue="0"/>
          </component>
          <fadeIn crossFadeLinkType="linkedAsymmetric" endPoint="0" shape="0" startPoint="0" type="cosine"/>
          <fadeOut crossFadeLinkType="linkedAsymmetric" endPoint="40164" shape="0" startPoint="40164" type="cosine"/>
          <editParameter parameterIndex="0" slotIndex="4294967281"/>
          <editParameter parameterIndex="0" slotIndex="4294967280"/>
          <channelMap>
            <channel index="0" sourceIndex="0"/>
            <channel index="1" sourceIndex="1"/>
          </channelMap>
        </audioClip>
        <audioClip clipAutoCrossfade="true" crossFadeHeadClipID="-1" crossFadeTailClipID="-1" endPoint="14096622" fileID="19" hue="-1" id="33" lockedInTime="false" looped="false" name="Rebote_1" offline="false" select="false" sourceInPoint="0" sourceOutPoint="40164" startPoint="14056458" zOrder="37559">
          <component componentID="Audition.Fader" id="clipGain" name="volume" powered="true">
            <parameter index="0" name="volume" parameterValue="1"/>
            <parameter index="1" name="static gain" parameterValue="1"/>
          </component>
          <component componentID="Audition.Mute" id="clipMute" name="Mute" powered="true">
            <parameter index="0" parameterValue="0"/>
            <parameter index="1" name="mute" parameterValue="0"/>
          </component>
          <component componentID="Audition.StereoPanner" id="clipPan" name="StereoPanner" powered="true">
            <parameter index="0" name="Panorámica" parameterValue="0"/>
          </component>
          <fadeIn crossFadeLinkType="linkedAsymmetric" endPoint="0" shape="0" startPoint="0" type="cosine"/>
          <fadeOut crossFadeLinkType="linkedAsymmetric" endPoint="40164" shape="0" startPoint="40164" type="cosine"/>
          <editParameter parameterIndex="0" slotIndex="4294967281"/>
          <editParameter parameterIndex="0" slotIndex="4294967280"/>
          <channelMap>
            <channel index="0" sourceIndex="0"/>
            <channel index="1" sourceIndex="1"/>
          </channelMap>
        </audioClip>
        <audioClip clipAutoCrossfade="true" crossFadeHeadClipID="-1" crossFadeTailClipID="-1" endPoint="14136786" fileID="19" hue="-1" id="34" lockedInTime="false" looped="false" name="Rebote_1" offline="false" select="false" sourceInPoint="0" sourceOutPoint="40164" startPoint="14096622" zOrder="37550">
          <component componentID="Audition.Fader" id="clipGain" name="volume" powered="true">
            <parameter index="0" name="volume" parameterValue="1"/>
            <parameter index="1" name="static gain" parameterValue="1"/>
          </component>
          <component componentID="Audition.Mute" id="clipMute" name="Mute" powered="true">
            <parameter index="0" parameterValue="0"/>
            <parameter index="1" name="mute" parameterValue="0"/>
          </component>
          <component componentID="Audition.StereoPanner" id="clipPan" name="StereoPanner" powered="true">
            <parameter index="0" name="Panorámica" parameterValue="0"/>
          </component>
          <fadeIn crossFadeLinkType="linkedAsymmetric" endPoint="0" shape="0" startPoint="0" type="cosine"/>
          <fadeOut crossFadeLinkType="linkedAsymmetric" endPoint="40164" shape="0" startPoint="40164" type="cosine"/>
          <editParameter parameterIndex="0" slotIndex="4294967281"/>
          <editParameter parameterIndex="0" slotIndex="4294967280"/>
          <channelMap>
            <channel index="0" sourceIndex="0"/>
            <channel index="1" sourceIndex="1"/>
          </channelMap>
        </audioClip>
        <audioClip clipAutoCrossfade="true" crossFadeHeadClipID="-1" crossFadeTailClipID="-1" endPoint="14176953" fileID="19" hue="-1" id="35" lockedInTime="false" looped="false" name="Rebote_1" offline="false" select="false" sourceInPoint="0" sourceOutPoint="40164" startPoint="14136789" zOrder="37549">
          <component componentID="Audition.Fader" id="clipGain" name="volume" powered="true">
            <parameter index="0" name="volume" parameterValue="1"/>
            <parameter index="1" name="static gain" parameterValue="1"/>
          </component>
          <component componentID="Audition.Mute" id="clipMute" name="Mute" powered="true">
            <parameter index="0" parameterValue="0"/>
            <parameter index="1" name="mute" parameterValue="0"/>
          </component>
          <component componentID="Audition.StereoPanner" id="clipPan" name="StereoPanner" powered="true">
            <parameter index="0" name="Panorámica" parameterValue="0"/>
          </component>
          <fadeIn crossFadeLinkType="linkedAsymmetric" endPoint="0" shape="0" startPoint="0" type="cosine"/>
          <fadeOut crossFadeLinkType="linkedAsymmetric" endPoint="40164" shape="0" startPoint="40164" type="cosine"/>
          <editParameter parameterIndex="0" slotIndex="4294967281"/>
          <editParameter parameterIndex="0" slotIndex="4294967280"/>
          <channelMap>
            <channel index="0" sourceIndex="0"/>
            <channel index="1" sourceIndex="1"/>
          </channelMap>
        </audioClip>
        <audioClip clipAutoCrossfade="true" crossFadeHeadClipID="-1" crossFadeTailClipID="-1" endPoint="14217117" fileID="19" hue="-1" id="36" lockedInTime="false" looped="false" name="Rebote_1" offline="false" select="false" sourceInPoint="0" sourceOutPoint="40164" startPoint="14176953" zOrder="37548">
          <component componentID="Audition.Fader" id="clipGain" name="volume" powered="true">
            <parameter index="0" name="volume" parameterValue="1"/>
            <parameter index="1" name="static gain" parameterValue="1"/>
          </component>
          <component componentID="Audition.Mute" id="clipMute" name="Mute" powered="true">
            <parameter index="0" parameterValue="0"/>
            <parameter index="1" name="mute" parameterValue="0"/>
          </component>
          <component componentID="Audition.StereoPanner" id="clipPan" name="StereoPanner" powered="true">
            <parameter index="0" name="Panorámica" parameterValue="0"/>
          </component>
          <fadeIn crossFadeLinkType="linkedAsymmetric" endPoint="0" shape="18" startPoint="0" type="log"/>
          <fadeOut crossFadeLinkType="linkedAsymmetric" endPoint="40164" shape="0" startPoint="40164" type="cosine"/>
          <editParameter parameterIndex="0" slotIndex="4294967281"/>
          <editParameter parameterIndex="0" slotIndex="4294967280"/>
          <channelMap>
            <channel index="0" sourceIndex="0"/>
            <channel index="1" sourceIndex="1"/>
          </channelMap>
        </audioClip>
        <audioClip clipAutoCrossfade="true" crossFadeHeadClipID="-1" crossFadeTailClipID="38" endPoint="14226750" fileID="19" hue="-1" id="37" lockedInTime="false" looped="false" name="Rebote_1" offline="false" select="false" sourceInPoint="0" sourceOutPoint="9633" startPoint="14217117" zOrder="37560">
          <component componentID="Audition.Fader" id="clipGain" name="volume" powered="true">
            <parameter index="0" name="volume" parameterValue="1"/>
            <parameter index="1" name="static gain" parameterValue="1"/>
          </component>
          <component componentID="Audition.Mute" id="clipMute" name="Mute" powered="true">
            <parameter index="0" parameterValue="0"/>
            <parameter index="1" name="mute" parameterValue="0"/>
          </component>
          <component componentID="Audition.StereoPanner" id="clipPan" name="StereoPanner" powered="true">
            <parameter index="0" name="Panorámica" parameterValue="0">
              <parameterKeyframes enableSplines="false">
                <parameterKeyframe sampleOffset="35171" select="true" type="linear" value="0.5"/>
              </parameterKeyframes>
            </parameter>
          </component>
          <fadeIn crossFadeLinkType="linkedAsymmetric" endPoint="0" shape="18" startPoint="0" type="log"/>
          <fadeOut crossFadeLinkType="linkedAsymmetric" endPoint="9633" shape="19" startPoint="8279" type="log"/>
          <editParameter parameterIndex="0" slotIndex="4294967280"/>
          <editParameter parameterIndex="0" slotIndex="4294967281"/>
          <channelMap>
            <channel index="0" sourceIndex="0"/>
            <channel index="1" sourceIndex="1"/>
          </channelMap>
        </audioClip>
        <audioClip clipAutoCrossfade="true" crossFadeHeadClipID="37" crossFadeTailClipID="-1" endPoint="14250707" fileID="16" hue="-1" id="38" lockedInTime="false" looped="false" name="Pista 10_001" offline="false" select="false" sourceInPoint="8891" sourceOutPoint="34202" startPoint="14225396" zOrder="37564">
          <component componentID="Audition.Fader" id="clipGain" name="volume" powered="true">
            <parameter index="0" name="volume" parameterValue="0">
              <parameterKeyframes enableSplines="true">
                <parameterKeyframe sampleOffset="11249" select="false" type="linear" value="0.3004065"/>
                <parameterKeyframe sampleOffset="16008" select="false" type="linear" value="0.65"/>
              </parameterKeyframes>
            </parameter>
            <parameter index="1" name="static gain" parameterValue="1"/>
          </component>
          <component componentID="Audition.Mute" id="clipMute" name="Mute" powered="true">
            <parameter index="0" parameterValue="0"/>
            <parameter index="1" name="mute" parameterValue="0"/>
          </component>
          <component componentID="Audition.StereoPanner" id="clipPan" name="StereoPanner" powered="true">
            <parameter index="0" name="Panorámica" parameterValue="0"/>
          </component>
          <fadeIn crossFadeLinkType="linkedAsymmetric" endPoint="1354" shape="18" startPoint="0" type="log"/>
          <fadeOut crossFadeLinkType="linkedAsymmetric" endPoint="25311" shape="0" startPoint="25311" type="cosine"/>
          <take sourceInPoint="0"/>
          <editParameter parameterIndex="0" slotIndex="4294967281"/>
          <editParameter parameterIndex="0" slotIndex="4294967280"/>
          <channelMap>
            <channel index="0" sourceIndex="0"/>
            <channel index="1" sourceIndex="1"/>
          </channelMap>
        </audioClip>
        <audioClip clipAutoCrossfade="true" crossFadeHeadClipID="-1" crossFadeTailClipID="40" endPoint="14493848" fileID="20" hue="-1" id="39" lockedInTime="false" looped="false" name="soprano dark sample" offline="false" select="false" sourceInPoint="0" sourceOutPoint="40449" startPoint="14453399" zOrder="37438">
          <component componentID="Audition.Fader" id="clipGain" name="volume" powered="true">
            <parameter index="0" name="volume" parameterValue="1"/>
            <parameter index="1" name="static gain" parameterValue="1"/>
          </component>
          <component componentID="Audition.Mute" id="clipMute" name="Mute" powered="true">
            <parameter index="0" parameterValue="0"/>
            <parameter index="1" name="mute" parameterValue="0"/>
          </component>
          <component componentID="Audition.StereoPanner" id="clipPan" name="StereoPanner" powered="true">
            <parameter index="0" name="Panorámica" parameterValue="0"/>
          </component>
          <fadeIn crossFadeLinkType="linkedAsymmetric" endPoint="0" shape="19" startPoint="0" type="log"/>
          <fadeOut crossFadeLinkType="linkedAsymmetric" endPoint="40449" shape="18" startPoint="39993" type="log"/>
          <clipStretch adaptiveWindowSize="37" pitchAdjustment="0" preserveFormants="true" stretchMode="realtime" stretchQuality="high" stretchRatio="0.951920361479808" stretchType="solo" transientSensitivity="40"/>
          <editParameter parameterIndex="0" slotIndex="4294967281"/>
          <editParameter parameterIndex="0" slotIndex="4294967280"/>
          <channelMap>
            <channel index="0" sourceIndex="0"/>
            <channel index="1" sourceIndex="1"/>
          </channelMap>
        </audioClip>
        <audioClip clipAutoCrossfade="true" crossFadeHeadClipID="39" crossFadeTailClipID="41" endPoint="14533841" fileID="20" hue="-1" id="40" lockedInTime="false" looped="false" name="soprano dark sample" offline="false" select="false" sourceInPoint="0" sourceOutPoint="40449" startPoint="14493392" zOrder="37426">
          <component componentID="Audition.Fader" id="clipGain" name="volume" powered="true">
            <parameter index="0" name="volume" parameterValue="1"/>
            <parameter index="1" name="static gain" parameterValue="1"/>
          </component>
          <component componentID="Audition.Mute" id="clipMute" name="Mute" powered="true">
            <parameter index="0" parameterValue="0"/>
            <parameter index="1" name="mute" parameterValue="0"/>
          </component>
          <component componentID="Audition.StereoPanner" id="clipPan" name="StereoPanner" powered="true">
            <parameter index="0" name="Panorámica" parameterValue="0"/>
          </component>
          <fadeIn crossFadeLinkType="linkedAsymmetric" endPoint="456" shape="19" startPoint="0" type="log"/>
          <fadeOut crossFadeLinkType="linkedAsymmetric" endPoint="40449" shape="18" startPoint="40058" type="log"/>
          <clipStretch adaptiveWindowSize="37" pitchAdjustment="0" preserveFormants="true" stretchMode="realtime" stretchQuality="high" stretchRatio="0.951920361479808" stretchType="solo" transientSensitivity="40"/>
          <editParameter parameterIndex="0" slotIndex="4294967281"/>
          <editParameter parameterIndex="0" slotIndex="4294967280"/>
          <channelMap>
            <channel index="0" sourceIndex="0"/>
            <channel index="1" sourceIndex="1"/>
          </channelMap>
        </audioClip>
        <audioClip clipAutoCrossfade="true" crossFadeHeadClipID="40" crossFadeTailClipID="42" endPoint="14573899" fileID="20" hue="-1" id="41" lockedInTime="false" looped="false" name="soprano dark sample" offline="false" select="false" sourceInPoint="0" sourceOutPoint="40449" startPoint="14533450" zOrder="37425">
          <component componentID="Audition.Fader" id="clipGain" name="volume" powered="true">
            <parameter index="0" name="volume" parameterValue="1"/>
            <parameter index="1" name="static gain" parameterValue="1"/>
          </component>
          <component componentID="Audition.Mute" id="clipMute" name="Mute" powered="true">
            <parameter index="0" parameterValue="0"/>
            <parameter index="1" name="mute" parameterValue="0"/>
          </component>
          <component componentID="Audition.StereoPanner" id="clipPan" name="StereoPanner" powered="true">
            <parameter index="0" name="Panorámica" parameterValue="0"/>
          </component>
          <fadeIn crossFadeLinkType="linkedAsymmetric" endPoint="391" shape="19" startPoint="0" type="log"/>
          <fadeOut crossFadeLinkType="linkedAsymmetric" endPoint="40449" shape="18" startPoint="40142" type="log"/>
          <clipStretch adaptiveWindowSize="37" pitchAdjustment="0" preserveFormants="true" stretchMode="realtime" stretchQuality="high" stretchRatio="0.951920361479808" stretchType="solo" transientSensitivity="40"/>
          <editParameter parameterIndex="0" slotIndex="4294967281"/>
          <editParameter parameterIndex="0" slotIndex="4294967280"/>
          <channelMap>
            <channel index="0" sourceIndex="0"/>
            <channel index="1" sourceIndex="1"/>
          </channelMap>
        </audioClip>
        <audioClip clipAutoCrossfade="true" crossFadeHeadClipID="41" crossFadeTailClipID="43" endPoint="14614041" fileID="20" hue="-1" id="42" lockedInTime="false" looped="false" name="soprano dark sample" offline="false" select="false" sourceInPoint="0" sourceOutPoint="40449" startPoint="14573592" zOrder="37423">
          <component componentID="Audition.Fader" id="clipGain" name="volume" powered="true">
            <parameter index="0" name="volume" parameterValue="1"/>
            <parameter index="1" name="static gain" parameterValue="1"/>
          </component>
          <component componentID="Audition.Mute" id="clipMute" name="Mute" powered="true">
            <parameter index="0" parameterValue="0"/>
            <parameter index="1" name="mute" parameterValue="0"/>
          </component>
          <component componentID="Audition.StereoPanner" id="clipPan" name="StereoPanner" powered="true">
            <parameter index="0" name="Panorámica" parameterValue="0"/>
          </component>
          <fadeIn crossFadeLinkType="linkedAsymmetric" endPoint="307" shape="19" startPoint="0" type="log"/>
          <fadeOut crossFadeLinkType="linkedAsymmetric" endPoint="40449" shape="18" startPoint="40022" type="log"/>
          <clipStretch adaptiveWindowSize="37" pitchAdjustment="0" preserveFormants="true" stretchMode="realtime" stretchQuality="high" stretchRatio="0.951920361479808" stretchType="solo" transientSensitivity="40"/>
          <editParameter parameterIndex="0" slotIndex="4294967281"/>
          <editParameter parameterIndex="0" slotIndex="4294967280"/>
          <channelMap>
            <channel index="0" sourceIndex="0"/>
            <channel index="1" sourceIndex="1"/>
          </channelMap>
        </audioClip>
        <audioClip clipAutoCrossfade="true" crossFadeHeadClipID="42" crossFadeTailClipID="44" endPoint="14654063" fileID="20" hue="-1" id="43" lockedInTime="false" looped="false" name="soprano dark sample" offline="false" select="false" sourceInPoint="0" sourceOutPoint="40449" startPoint="14613614" zOrder="37427">
          <component componentID="Audition.Fader" id="clipGain" name="volume" powered="true">
            <parameter index="0" name="volume" parameterValue="1"/>
            <parameter index="1" name="static gain" parameterValue="1"/>
          </component>
          <component componentID="Audition.Mute" id="clipMute" name="Mute" powered="true">
            <parameter index="0" parameterValue="0"/>
            <parameter index="1" name="mute" parameterValue="0"/>
          </component>
          <component componentID="Audition.StereoPanner" id="clipPan" name="StereoPanner" powered="true">
            <parameter index="0" name="Panorámica" parameterValue="0"/>
          </component>
          <fadeIn crossFadeLinkType="linkedAsymmetric" endPoint="427" shape="19" startPoint="0" type="log"/>
          <fadeOut crossFadeLinkType="linkedAsymmetric" endPoint="40449" shape="18" startPoint="40105" type="log"/>
          <clipStretch adaptiveWindowSize="37" pitchAdjustment="0" preserveFormants="true" stretchMode="realtime" stretchQuality="high" stretchRatio="0.951920361479808" stretchType="solo" transientSensitivity="40"/>
          <editParameter parameterIndex="0" slotIndex="4294967281"/>
          <editParameter parameterIndex="0" slotIndex="4294967280"/>
          <channelMap>
            <channel index="0" sourceIndex="0"/>
            <channel index="1" sourceIndex="1"/>
          </channelMap>
        </audioClip>
        <audioClip clipAutoCrossfade="true" crossFadeHeadClipID="43" crossFadeTailClipID="45" endPoint="14694168" fileID="20" hue="-1" id="44" lockedInTime="false" looped="false" name="soprano dark sample" offline="false" select="false" sourceInPoint="0" sourceOutPoint="40449" startPoint="14653719" zOrder="37432">
          <component componentID="Audition.Fader" id="clipGain" name="volume" powered="true">
            <parameter index="0" name="volume" parameterValue="1"/>
            <parameter index="1" name="static gain" parameterValue="1"/>
          </component>
          <component componentID="Audition.Mute" id="clipMute" name="Mute" powered="true">
            <parameter index="0" parameterValue="0"/>
            <parameter index="1" name="mute" parameterValue="0"/>
          </component>
          <component componentID="Audition.StereoPanner" id="clipPan" name="StereoPanner" powered="true">
            <parameter index="0" name="Panorámica" parameterValue="0"/>
          </component>
          <fadeIn crossFadeLinkType="linkedAsymmetric" endPoint="344" shape="19" startPoint="0" type="log"/>
          <fadeOut crossFadeLinkType="linkedAsymmetric" endPoint="40449" shape="18" startPoint="40108" type="log"/>
          <clipStretch adaptiveWindowSize="37" pitchAdjustment="0" preserveFormants="true" stretchMode="realtime" stretchQuality="high" stretchRatio="0.951920361479808" stretchType="solo" transientSensitivity="40"/>
          <editParameter parameterIndex="0" slotIndex="4294967281"/>
          <editParameter parameterIndex="0" slotIndex="4294967280"/>
          <channelMap>
            <channel index="0" sourceIndex="0"/>
            <channel index="1" sourceIndex="1"/>
          </channelMap>
        </audioClip>
        <audioClip clipAutoCrossfade="true" crossFadeHeadClipID="44" crossFadeTailClipID="46" endPoint="14734276" fileID="20" hue="-1" id="45" lockedInTime="false" looped="false" name="soprano dark sample" offline="false" select="false" sourceInPoint="0" sourceOutPoint="40449" startPoint="14693827" zOrder="37433">
          <component componentID="Audition.Fader" id="clipGain" name="volume" powered="true">
            <parameter index="0" name="volume" parameterValue="1"/>
            <parameter index="1" name="static gain" parameterValue="1"/>
          </component>
          <component componentID="Audition.Mute" id="clipMute" name="Mute" powered="true">
            <parameter index="0" parameterValue="0"/>
            <parameter index="1" name="mute" parameterValue="0"/>
          </component>
          <component componentID="Audition.StereoPanner" id="clipPan" name="StereoPanner" powered="true">
            <parameter index="0" name="Panorámica" parameterValue="0"/>
          </component>
          <fadeIn crossFadeLinkType="linkedAsymmetric" endPoint="341" shape="19" startPoint="0" type="log"/>
          <fadeOut crossFadeLinkType="linkedAsymmetric" endPoint="40449" shape="18" startPoint="40065" type="log"/>
          <clipStretch adaptiveWindowSize="37" pitchAdjustment="0" preserveFormants="true" stretchMode="realtime" stretchQuality="high" stretchRatio="0.951920361479808" stretchType="solo" transientSensitivity="40"/>
          <editParameter parameterIndex="0" slotIndex="4294967281"/>
          <editParameter parameterIndex="0" slotIndex="4294967280"/>
          <channelMap>
            <channel index="0" sourceIndex="0"/>
            <channel index="1" sourceIndex="1"/>
          </channelMap>
        </audioClip>
        <audioClip clipAutoCrossfade="true" crossFadeHeadClipID="45" crossFadeTailClipID="47" endPoint="14774272" fileID="20" hue="-1" id="46" lockedInTime="false" looped="false" name="soprano dark sample" offline="false" select="false" sourceInPoint="0" sourceOutPoint="40380" startPoint="14733892" zOrder="37434">
          <component componentID="Audition.Fader" id="clipGain" name="volume" powered="true">
            <parameter index="0" name="volume" parameterValue="1"/>
            <parameter index="1" name="static gain" parameterValue="1"/>
          </component>
          <component componentID="Audition.Mute" id="clipMute" name="Mute" powered="true">
            <parameter index="0" parameterValue="0"/>
            <parameter index="1" name="mute" parameterValue="0"/>
          </component>
          <component componentID="Audition.StereoPanner" id="clipPan" name="StereoPanner" powered="true">
            <parameter index="0" name="Panorámica" parameterValue="0"/>
          </component>
          <fadeIn crossFadeLinkType="linkedAsymmetric" endPoint="384" shape="19" startPoint="0" type="log"/>
          <fadeOut crossFadeLinkType="linkedAsymmetric" endPoint="40380" shape="11" startPoint="40108" type="log"/>
          <clipStretch adaptiveWindowSize="37" pitchAdjustment="0" preserveFormants="true" stretchMode="realtime" stretchQuality="high" stretchRatio="0.951920361479808" stretchType="solo" transientSensitivity="40"/>
          <editParameter parameterIndex="0" slotIndex="4294967281"/>
          <editParameter parameterIndex="0" slotIndex="4294967280"/>
          <channelMap>
            <channel index="0" sourceIndex="0"/>
            <channel index="1" sourceIndex="1"/>
          </channelMap>
        </audioClip>
        <audioClip clipAutoCrossfade="true" crossFadeHeadClipID="46" crossFadeTailClipID="48" endPoint="14814449" fileID="20" hue="-1" id="47" lockedInTime="false" looped="false" name="soprano dark sample" offline="false" select="false" sourceInPoint="0" sourceOutPoint="40449" startPoint="14774000" zOrder="37435">
          <component componentID="Audition.Fader" id="clipGain" name="volume" powered="true">
            <parameter index="0" name="volume" parameterValue="1"/>
            <parameter index="1" name="static gain" parameterValue="1"/>
          </component>
          <component componentID="Audition.Mute" id="clipMute" name="Mute" powered="true">
            <parameter index="0" parameterValue="0"/>
            <parameter index="1" name="mute" parameterValue="0"/>
          </component>
          <component componentID="Audition.StereoPanner" id="clipPan" name="StereoPanner" powered="true">
            <parameter index="0" name="Panorámica" parameterValue="0"/>
          </component>
          <fadeIn crossFadeLinkType="linkedAsymmetric" endPoint="272" shape="28" startPoint="0" type="log"/>
          <fadeOut crossFadeLinkType="linkedAsymmetric" endPoint="40449" shape="18" startPoint="40129" type="log"/>
          <clipStretch adaptiveWindowSize="37" pitchAdjustment="0" preserveFormants="true" stretchMode="realtime" stretchQuality="high" stretchRatio="0.951920361479808" stretchType="solo" transientSensitivity="40"/>
          <editParameter parameterIndex="0" slotIndex="4294967281"/>
          <editParameter parameterIndex="0" slotIndex="4294967280"/>
          <channelMap>
            <channel index="0" sourceIndex="0"/>
            <channel index="1" sourceIndex="1"/>
          </channelMap>
        </audioClip>
        <audioClip clipAutoCrossfade="true" crossFadeHeadClipID="47" crossFadeTailClipID="49" endPoint="14854578" fileID="20" hue="-1" id="48" lockedInTime="false" looped="false" name="soprano dark sample" offline="false" select="false" sourceInPoint="0" sourceOutPoint="40449" startPoint="14814129" zOrder="37424">
          <component componentID="Audition.Fader" id="clipGain" name="volume" powered="true">
            <parameter index="0" name="volume" parameterValue="1"/>
            <parameter index="1" name="static gain" parameterValue="1"/>
          </component>
          <component componentID="Audition.Mute" id="clipMute" name="Mute" powered="true">
            <parameter index="0" parameterValue="0"/>
            <parameter index="1" name="mute" parameterValue="0"/>
          </component>
          <component componentID="Audition.StereoPanner" id="clipPan" name="StereoPanner" powered="true">
            <parameter index="0" name="Panorámica" parameterValue="0"/>
          </component>
          <fadeIn crossFadeLinkType="linkedAsymmetric" endPoint="320" shape="19" startPoint="0" type="log"/>
          <fadeOut crossFadeLinkType="linkedAsymmetric" endPoint="40449" shape="18" startPoint="40078" type="log"/>
          <clipStretch adaptiveWindowSize="37" pitchAdjustment="0" preserveFormants="true" stretchMode="realtime" stretchQuality="high" stretchRatio="0.951920361479808" stretchType="solo" transientSensitivity="40"/>
          <editParameter parameterIndex="0" slotIndex="4294967281"/>
          <editParameter parameterIndex="0" slotIndex="4294967280"/>
          <channelMap>
            <channel index="0" sourceIndex="0"/>
            <channel index="1" sourceIndex="1"/>
          </channelMap>
        </audioClip>
        <audioClip clipAutoCrossfade="true" crossFadeHeadClipID="48" crossFadeTailClipID="50" endPoint="14894656" fileID="20" hue="-1" id="49" lockedInTime="false" looped="false" name="soprano dark sample" offline="false" select="false" sourceInPoint="0" sourceOutPoint="40449" startPoint="14854207" zOrder="37428">
          <component componentID="Audition.Fader" id="clipGain" name="volume" powered="true">
            <parameter index="0" name="volume" parameterValue="1"/>
            <parameter index="1" name="static gain" parameterValue="1"/>
          </component>
          <component componentID="Audition.Mute" id="clipMute" name="Mute" powered="true">
            <parameter index="0" parameterValue="0"/>
            <parameter index="1" name="mute" parameterValue="0"/>
          </component>
          <component componentID="Audition.StereoPanner" id="clipPan" name="StereoPanner" powered="true">
            <parameter index="0" name="Panorámica" parameterValue="0"/>
          </component>
          <fadeIn crossFadeLinkType="linkedAsymmetric" endPoint="371" shape="19" startPoint="0" type="log"/>
          <fadeOut crossFadeLinkType="linkedAsymmetric" endPoint="40449" shape="18" startPoint="40073" type="log"/>
          <clipStretch adaptiveWindowSize="37" pitchAdjustment="0" preserveFormants="true" stretchMode="realtime" stretchQuality="high" stretchRatio="0.951920361479808" stretchType="solo" transientSensitivity="40"/>
          <editParameter parameterIndex="0" slotIndex="4294967281"/>
          <editParameter parameterIndex="0" slotIndex="4294967280"/>
          <channelMap>
            <channel index="0" sourceIndex="0"/>
            <channel index="1" sourceIndex="1"/>
          </channelMap>
        </audioClip>
        <audioClip clipAutoCrossfade="true" crossFadeHeadClipID="49" crossFadeTailClipID="51" endPoint="14934729" fileID="20" hue="-1" id="50" lockedInTime="false" looped="false" name="soprano dark sample" offline="false" select="false" sourceInPoint="0" sourceOutPoint="40449" startPoint="14894280" zOrder="37429">
          <component componentID="Audition.Fader" id="clipGain" name="volume" powered="true">
            <parameter index="0" name="volume" parameterValue="1"/>
            <parameter index="1" name="static gain" parameterValue="1"/>
          </component>
          <component componentID="Audition.Mute" id="clipMute" name="Mute" powered="true">
            <parameter index="0" parameterValue="0"/>
            <parameter index="1" name="mute" parameterValue="0"/>
          </component>
          <component componentID="Audition.StereoPanner" id="clipPan" name="StereoPanner" powered="true">
            <parameter index="0" name="Panorámica" parameterValue="0"/>
          </component>
          <fadeIn crossFadeLinkType="linkedAsymmetric" endPoint="376" shape="19" startPoint="0" type="log"/>
          <fadeOut crossFadeLinkType="linkedAsymmetric" endPoint="40449" shape="18" startPoint="40127" type="log"/>
          <clipStretch adaptiveWindowSize="37" pitchAdjustment="0" preserveFormants="true" stretchMode="realtime" stretchQuality="high" stretchRatio="0.951920361479808" stretchType="solo" transientSensitivity="40"/>
          <editParameter parameterIndex="0" slotIndex="4294967281"/>
          <editParameter parameterIndex="0" slotIndex="4294967280"/>
          <channelMap>
            <channel index="0" sourceIndex="0"/>
            <channel index="1" sourceIndex="1"/>
          </channelMap>
        </audioClip>
        <audioClip clipAutoCrossfade="true" crossFadeHeadClipID="50" crossFadeTailClipID="52" endPoint="14974856" fileID="20" hue="-1" id="51" lockedInTime="false" looped="false" name="soprano dark sample" offline="false" select="false" sourceInPoint="0" sourceOutPoint="40449" startPoint="14934407" zOrder="37431">
          <component componentID="Audition.Fader" id="clipGain" name="volume" powered="true">
            <parameter index="0" name="volume" parameterValue="1"/>
            <parameter index="1" name="static gain" parameterValue="1"/>
          </component>
          <component componentID="Audition.Mute" id="clipMute" name="Mute" powered="true">
            <parameter index="0" parameterValue="0"/>
            <parameter index="1" name="mute" parameterValue="0"/>
          </component>
          <component componentID="Audition.StereoPanner" id="clipPan" name="StereoPanner" powered="true">
            <parameter index="0" name="Panorámica" parameterValue="0"/>
          </component>
          <fadeIn crossFadeLinkType="linkedAsymmetric" endPoint="322" shape="19" startPoint="0" type="log"/>
          <fadeOut crossFadeLinkType="linkedAsymmetric" endPoint="40449" shape="18" startPoint="40055" type="log"/>
          <clipStretch adaptiveWindowSize="37" pitchAdjustment="0" preserveFormants="true" stretchMode="realtime" stretchQuality="high" stretchRatio="0.951920361479808" stretchType="solo" transientSensitivity="40"/>
          <editParameter parameterIndex="0" slotIndex="4294967281"/>
          <editParameter parameterIndex="0" slotIndex="4294967280"/>
          <channelMap>
            <channel index="0" sourceIndex="0"/>
            <channel index="1" sourceIndex="1"/>
          </channelMap>
        </audioClip>
        <audioClip clipAutoCrossfade="true" crossFadeHeadClipID="51" crossFadeTailClipID="53" endPoint="15014911" fileID="20" hue="-1" id="52" lockedInTime="false" looped="false" name="soprano dark sample" offline="false" select="false" sourceInPoint="0" sourceOutPoint="40449" startPoint="14974462" zOrder="37430">
          <component componentID="Audition.Fader" id="clipGain" name="volume" powered="true">
            <parameter index="0" name="volume" parameterValue="1"/>
            <parameter index="1" name="static gain" parameterValue="1"/>
          </component>
          <component componentID="Audition.Mute" id="clipMute" name="Mute" powered="true">
            <parameter index="0" parameterValue="0"/>
            <parameter index="1" name="mute" parameterValue="0"/>
          </component>
          <component componentID="Audition.StereoPanner" id="clipPan" name="StereoPanner" powered="true">
            <parameter index="0" name="Panorámica" parameterValue="0"/>
          </component>
          <fadeIn crossFadeLinkType="linkedAsymmetric" endPoint="394" shape="19" startPoint="0" type="log"/>
          <fadeOut crossFadeLinkType="linkedAsymmetric" endPoint="40449" shape="18" startPoint="40257" type="log"/>
          <clipStretch adaptiveWindowSize="37" pitchAdjustment="0" preserveFormants="true" stretchMode="realtime" stretchQuality="high" stretchRatio="0.951920361479808" stretchType="solo" transientSensitivity="40"/>
          <editParameter parameterIndex="0" slotIndex="4294967281"/>
          <editParameter parameterIndex="0" slotIndex="4294967280"/>
          <channelMap>
            <channel index="0" sourceIndex="0"/>
            <channel index="1" sourceIndex="1"/>
          </channelMap>
        </audioClip>
        <audioClip clipAutoCrossfade="true" crossFadeHeadClipID="52" crossFadeTailClipID="-1" endPoint="15025180" fileID="20" hue="-1" id="53" lockedInTime="false" looped="false" name="soprano dark sample" offline="false" select="false" sourceInPoint="0" sourceOutPoint="10461" startPoint="15014719" zOrder="37436">
          <component componentID="Audition.Fader" id="clipGain" name="volume" powered="true">
            <parameter index="0" name="volume" parameterValue="1"/>
            <parameter index="1" name="static gain" parameterValue="1"/>
          </component>
          <component componentID="Audition.Mute" id="clipMute" name="Mute" powered="true">
            <parameter index="0" parameterValue="0"/>
            <parameter index="1" name="mute" parameterValue="0"/>
          </component>
          <component componentID="Audition.StereoPanner" id="clipPan" name="StereoPanner" powered="true">
            <parameter index="0" name="Panorámica" parameterValue="0"/>
          </component>
          <fadeIn crossFadeLinkType="linkedAsymmetric" endPoint="192" shape="19" startPoint="0" type="log"/>
          <fadeOut crossFadeLinkType="linkedAsymmetric" endPoint="10461" shape="18" startPoint="10461" type="log"/>
          <clipStretch adaptiveWindowSize="37" pitchAdjustment="0" preserveFormants="true" stretchMode="realtime" stretchQuality="high" stretchRatio="0.951920361479808" stretchType="solo" transientSensitivity="40"/>
          <editParameter parameterIndex="0" slotIndex="4294967281"/>
          <editParameter parameterIndex="0" slotIndex="4294967280"/>
          <channelMap>
            <channel index="0" sourceIndex="0"/>
            <channel index="1" sourceIndex="1"/>
          </channelMap>
        </audioClip>
        <audioClip clipAutoCrossfade="true" crossFadeHeadClipID="-1" crossFadeTailClipID="-1" endPoint="16324151" fileID="21" hue="-1" id="54" lockedInTime="false" looped="false" name="dark horse acapella_soprano_estrofa_base_editado" offline="false" select="false" sourceInPoint="0" sourceOutPoint="160320" startPoint="16163831" zOrder="45141">
          <component componentID="Audition.Fader" id="clipGain" name="volume" powered="true">
            <parameter index="0" name="volume" parameterValue="1"/>
            <parameter index="1" name="static gain" parameterValue="1"/>
          </component>
          <component componentID="Audition.Mute" id="clipMute" name="Mute" powered="true">
            <parameter index="0" parameterValue="0"/>
            <parameter index="1" name="mute" parameterValue="0"/>
          </component>
          <component componentID="Audition.StereoPanner" id="clipPan" name="StereoPanner" powered="true">
            <parameter index="0" name="Panorámica" parameterValue="0"/>
          </component>
          <fadeIn crossFadeLinkType="linkedAsymmetric" endPoint="0" shape="19" startPoint="0" type="log"/>
          <fadeOut crossFadeLinkType="linkedAsymmetric" endPoint="160320" shape="18" startPoint="160320" type="log"/>
          <editParameter parameterIndex="0" slotIndex="4294967281"/>
          <editParameter parameterIndex="0" slotIndex="4294967280"/>
          <channelMap>
            <channel index="0" sourceIndex="0"/>
            <channel index="1" sourceIndex="1"/>
          </channelMap>
        </audioClip>
        <audioClip clipAutoCrossfade="true" crossFadeHeadClipID="-1" crossFadeTailClipID="-1" endPoint="16484535" fileID="21" hue="-1" id="55" lockedInTime="false" looped="false" name="dark horse acapella_soprano_estrofa_base_editado" offline="false" select="false" sourceInPoint="0" sourceOutPoint="160384" startPoint="16324151" zOrder="45139">
          <component componentID="Audition.Fader" id="clipGain" name="volume" powered="true">
            <parameter index="0" name="volume" parameterValue="1"/>
            <parameter index="1" name="static gain" parameterValue="1"/>
          </component>
          <component componentID="Audition.Mute" id="clipMute" name="Mute" powered="true">
            <parameter index="0" parameterValue="0"/>
            <parameter index="1" name="mute" parameterValue="0"/>
          </component>
          <component componentID="Audition.StereoPanner" id="clipPan" name="StereoPanner" powered="true">
            <parameter index="0" name="Panorámica" parameterValue="0"/>
          </component>
          <fadeIn crossFadeLinkType="linkedAsymmetric" endPoint="0" shape="0" startPoint="0" type="cosine"/>
          <fadeOut crossFadeLinkType="linkedAsymmetric" endPoint="160384" shape="0" startPoint="160384" type="cosine"/>
          <editParameter parameterIndex="0" slotIndex="4294967281"/>
          <editParameter parameterIndex="0" slotIndex="4294967280"/>
          <channelMap>
            <channel index="0" sourceIndex="0"/>
            <channel index="1" sourceIndex="1"/>
          </channelMap>
        </audioClip>
        <audioClip clipAutoCrossfade="true" crossFadeHeadClipID="-1" crossFadeTailClipID="-1" endPoint="16644983" fileID="21" hue="-1" id="56" lockedInTime="false" looped="false" name="dark horse acapella_soprano_estrofa_base_editado" offline="false" select="false" sourceInPoint="0" sourceOutPoint="160448" startPoint="16484535" zOrder="45137">
          <component componentID="Audition.Fader" id="clipGain" name="volume" powered="true">
            <parameter index="0" name="volume" parameterValue="1"/>
            <parameter index="1" name="static gain" parameterValue="1"/>
          </component>
          <component componentID="Audition.Mute" id="clipMute" name="Mute" powered="true">
            <parameter index="0" parameterValue="0"/>
            <parameter index="1" name="mute" parameterValue="0"/>
          </component>
          <component componentID="Audition.StereoPanner" id="clipPan" name="StereoPanner" powered="true">
            <parameter index="0" name="Panorámica" parameterValue="0"/>
          </component>
          <fadeIn crossFadeLinkType="linkedAsymmetric" endPoint="0" shape="0" startPoint="0" type="cosine"/>
          <fadeOut crossFadeLinkType="linkedAsymmetric" endPoint="160448" shape="0" startPoint="160448" type="cosine"/>
          <editParameter parameterIndex="0" slotIndex="4294967281"/>
          <editParameter parameterIndex="0" slotIndex="4294967280"/>
          <channelMap>
            <channel index="0" sourceIndex="0"/>
            <channel index="1" sourceIndex="1"/>
          </channelMap>
        </audioClip>
        <audioClip clipAutoCrossfade="true" crossFadeHeadClipID="-1" crossFadeTailClipID="-1" endPoint="16785265" fileID="21" hue="-1" id="57" lockedInTime="false" looped="false" name="dark horse acapella_soprano_estrofa_base_editado" offline="false" select="false" sourceInPoint="0" sourceOutPoint="140282" startPoint="16644983" zOrder="45138">
          <component componentID="Audition.Fader" id="clipGain" name="volume" powered="true">
            <parameter index="0" name="volume" parameterValue="1"/>
            <parameter index="1" name="static gain" parameterValue="1"/>
          </component>
          <component componentID="Audition.Mute" id="clipMute" name="Mute" powered="true">
            <parameter index="0" parameterValue="0"/>
            <parameter index="1" name="mute" parameterValue="0"/>
          </component>
          <component componentID="Audition.StereoPanner" id="clipPan" name="StereoPanner" powered="true">
            <parameter index="0" name="Panorámica" parameterValue="0"/>
          </component>
          <fadeIn crossFadeLinkType="linkedAsymmetric" endPoint="0" shape="18" startPoint="0" type="log"/>
          <fadeOut crossFadeLinkType="linkedAsymmetric" endPoint="140282" shape="0" startPoint="140282" type="cosine"/>
          <editParameter parameterIndex="0" slotIndex="4294967281"/>
          <editParameter parameterIndex="0" slotIndex="4294967280"/>
          <channelMap>
            <channel index="0" sourceIndex="0"/>
            <channel index="1" sourceIndex="1"/>
          </channelMap>
        </audioClip>
        <audioClip clipAutoCrossfade="true" crossFadeHeadClipID="-1" crossFadeTailClipID="-1" endPoint="16805449" fileID="22" hue="-1" id="58" lockedInTime="false" looped="false" name="Pista 9_001_4" offline="false" select="false" sourceInPoint="2364" sourceOutPoint="22548" startPoint="16785265" zOrder="45143">
          <component componentID="Audition.Fader" id="clipGain" name="volume" powered="true">
            <parameter index="0" name="volume" parameterValue="0.5930534"/>
            <parameter index="1" name="static gain" parameterValue="1"/>
          </component>
          <component componentID="Audition.Mute" id="clipMute" name="Mute" powered="true">
            <parameter index="0" parameterValue="0"/>
            <parameter index="1" name="mute" parameterValue="0"/>
          </component>
          <component componentID="Audition.StereoPanner" id="clipPan" name="StereoPanner" powered="true">
            <parameter index="0" name="Panorámica" parameterValue="0"/>
          </component>
          <fadeIn crossFadeLinkType="linkedAsymmetric" endPoint="0" shape="0" startPoint="0" type="cosine"/>
          <fadeOut crossFadeLinkType="linkedAsymmetric" endPoint="20184" shape="0" startPoint="20184" type="cosine"/>
          <clipStretch adaptiveWindowSize="37" pitchAdjustment="0" preserveFormants="true" stretchMode="realtime" stretchQuality="high" stretchRatio="1.0990388426476416" stretchType="solo" transientSensitivity="40"/>
          <take sourceInPoint="0"/>
          <editParameter parameterIndex="0" slotIndex="4294967281"/>
          <editParameter parameterIndex="0" slotIndex="4294967280"/>
          <channelMap>
            <channel index="0" sourceIndex="0"/>
            <channel index="1" sourceIndex="1"/>
          </channelMap>
        </audioClip>
        <audioClip clipAutoCrossfade="true" crossFadeHeadClipID="-1" crossFadeTailClipID="-1" endPoint="17447067" fileID="23" hue="-1" id="59" lockedInTime="false" looped="false" name="dark horse acapella_dark horse acapella_soprano_estrofa_editado_completa" offline="false" select="false" sourceInPoint="0" sourceOutPoint="641618" startPoint="16805449" zOrder="45140">
          <component componentID="Audition.Fader" id="clipGain" name="volume" powered="true">
            <parameter index="0" name="volume" parameterValue="1"/>
            <parameter index="1" name="static gain" parameterValue="1"/>
          </component>
          <component componentID="Audition.Mute" id="clipMute" name="Mute" powered="true">
            <parameter index="0" parameterValue="0"/>
            <parameter index="1" name="mute" parameterValue="0"/>
          </component>
          <component componentID="Audition.StereoPanner" id="clipPan" name="StereoPanner" powered="true">
            <parameter index="0" name="Panorámica" parameterValue="0"/>
          </component>
          <fadeIn crossFadeLinkType="linkedAsymmetric" endPoint="0" shape="0" startPoint="0" type="cosine"/>
          <fadeOut crossFadeLinkType="linkedAsymmetric" endPoint="641618" shape="0" startPoint="641618" type="cosine"/>
          <editParameter parameterIndex="0" slotIndex="4294967281"/>
          <editParameter parameterIndex="0" slotIndex="4294967280"/>
          <channelMap>
            <channel index="0" sourceIndex="0"/>
            <channel index="1" sourceIndex="1"/>
          </channelMap>
        </audioClip>
      </audioTrack>
      <audioTrack automationLaneOpenState="false" id="10004" index="5" select="false" visible="true">
        <trackParameters trackHeight="129">
          <name>PERCUSIÓN 2</name>
        </trackParameters>
        <trackAudioParameters audioChannelType="stereo" automationMode="1" monitoring="false" recordArmed="false" solo="false" soloSafe="false">
          <trackOutput outputID="10000" type="trackID"/>
          <trackInput inputID="-1"/>
          <component componentID="Audition.Fader" id="trackFader" name="volume" powered="true">
            <parameter index="0" name="volume" parameterValue="1"/>
            <parameter index="1" name="static gain" parameterValue="1"/>
          </component>
          <component componentID="Audition.Mute" id="trackMute" name="Mute" powered="true">
            <parameter index="0" parameterValue="0"/>
            <parameter index="1" name="mute" parameterValue="0"/>
          </component>
          <component componentID="Audition.StereoPanner" id="trackPan" name="StereoPanner" powered="true">
            <parameter index="0" name="Panorámica" parameterValue="0"/>
          </component>
          <component componentID="Audition.EQ" id="trackEQ" name="EQ" powered="false">
            <parameter index="0" name="Frecuencia estante inferior" parameterValue="0.0009079"/>
            <parameter index="1" name="Ganancia estante inferior" parameterValue="0.5"/>
            <parameter index="2" name="Frecuencia estante superior" parameterValue="0.8161598"/>
            <parameter index="3" name="Ganancia estante superior" parameterValue="0.5"/>
            <parameter index="4" name="Frecuencia central de banda de EC 1" parameterValue="0.0013618"/>
            <parameter index="5" name="Valor Q de banda de EC 1" parameterValue="0.0002"/>
            <parameter index="6" name="Ganancia de banda de EC 1" parameterValue="0.5"/>
            <parameter index="7" name="Activación de banda de EC 1" parameterValue="1"/>
            <parameter index="8" name="Frecuencia central de banda de EC 2" parameterValue="0.0081707"/>
            <parameter index="9" name="Valor Q de banda de EC 2" parameterValue="0.0002"/>
            <parameter index="10" name="Ganancia de banda de EC 2" parameterValue="0.5"/>
            <parameter index="11" name="Activación de banda de EC 2" parameterValue="1"/>
            <parameter index="12" name="Frecuencia central de banda de EC 3" parameterValue="0.0354063"/>
            <parameter index="13" name="Valor Q de banda de EC 3" parameterValue="0.0002"/>
            <parameter index="14" name="Ganancia de banda de EC 3" parameterValue="0.5"/>
            <parameter index="15" name="Activación de banda de EC 3" parameterValue="1"/>
            <parameter index="16" name="Frecuencia central de banda de EC 4" parameterValue="0.1443486"/>
            <parameter index="17" name="Valor Q de banda de EC 4" parameterValue="0.0002"/>
            <parameter index="18" name="Ganancia de banda de EC 4" parameterValue="0.5"/>
            <parameter index="19" name="Activación de banda de EC 4" parameterValue="1"/>
            <parameter index="20" name="Frecuencia central de banda de EC 5" parameterValue="0.580118"/>
            <parameter index="21" name="Valor Q de banda de EC 5" parameterValue="0.0002"/>
            <parameter index="22" name="Ganancia de banda de EC 5" parameterValue="0.5"/>
            <parameter index="23" name="Activación de banda de EC 5" parameterValue="1"/>
            <parameter index="24" name="Ganancia maestra" parameterValue="0.6666667"/>
            <parameter index="25" name="Constant Q" parameterValue="1"/>
            <parameter index="26" name="Orden de filtro de estante inferior" parameterValue="0"/>
            <parameter index="27" name="Orden de filtro de estante superior" parameterValue="0"/>
            <parameter index="28" name="Modo ultrasilencioso" parameterValue="0"/>
            <parameter index="29" name="Activar estante inferior" parameterValue="1"/>
            <parameter index="30" name="Activar estante superior" parameterValue="1"/>
            <parameter index="31" name="Velocidad de muestreo original" parameterValue="0.2296875"/>
            <parameter index="32" name="Ancho de banda de EC 1" parameterValue="0.0025"/>
            <parameter index="33" name="Ancho de banda de EC 2" parameterValue="0.01"/>
            <parameter index="34" name="Ancho de banda de EC 3" parameterValue="0.04"/>
            <parameter index="35" name="Ancho de banda de EC 4" parameterValue="0.16"/>
            <parameter index="36" name="Ancho de banda de EC 5" parameterValue="0.64"/>
            <parameter index="37" name="Activación de filtro de pase alto" parameterValue="0"/>
            <parameter index="38" name="Frecuencia de límite de paso alto" parameterValue="0"/>
            <parameter index="39" name="Pendiente de paso alto" parameterValue="4"/>
            <parameter index="40" name="Activación de filtro de pase bajo" parameterValue="0"/>
            <parameter index="41" name="Frecuencia de límite de paso bajo" parameterValue="0.906945"/>
            <parameter index="42" name="Pendiente de paso bajo" parameterValue="4"/>
            <parameter index="43" name="Omitir" parameterValue="0"/>
            <parameter index="44" name="Rango de gráfico bajo" parameterValue="1"/>
          </component>
        </trackAudioParameters>
        <editParameter parameterIndex="0" slotIndex="4294967280"/>
        <sendList>
          <sendSlot preFader="false" sendOutputID="0" slotIndex="0">
            <component id="sendComponent" powered="false">
              <parameter index="0" name="Encendido/Apagado" parameterValue="0"/>
              <parameter index="1" name="Nivel" parameterValue="0"/>
            </component>
            <component id="sendPan" powered="true"/>
          </sendSlot>
          <sendSlot preFader="false" sendOutputID="0" slotIndex="1">
            <component id="sendComponent" powered="false">
              <parameter index="0" name="Encendido/Apagado" parameterValue="0"/>
              <parameter index="1" name="Nivel" parameterValue="0"/>
            </component>
            <component id="sendPan" powered="true"/>
          </sendSlot>
          <sendSlot preFader="false" sendOutputID="0" slotIndex="2">
            <component id="sendComponent" powered="false">
              <parameter index="0" name="Encendido/Apagado" parameterValue="0"/>
              <parameter index="1" name="Nivel" parameterValue="0"/>
            </component>
            <component id="sendPan" powered="true"/>
          </sendSlot>
          <sendSlot preFader="false" sendOutputID="0" slotIndex="3">
            <component id="sendComponent" powered="false">
              <parameter index="0" name="Encendido/Apagado" parameterValue="0"/>
              <parameter index="1" name="Nivel" parameterValue="0"/>
            </component>
            <component id="sendPan" powered="true"/>
          </sendSlot>
          <sendSlot preFader="false" sendOutputID="0" slotIndex="4">
            <component id="sendComponent" powered="false">
              <parameter index="0" name="Encendido/Apagado" parameterValue="0"/>
              <parameter index="1" name="Nivel" parameterValue="0"/>
            </component>
            <component id="sendPan" powered="true"/>
          </sendSlot>
          <sendSlot preFader="false" sendOutputID="0" slotIndex="5">
            <component id="sendComponent" powered="false">
              <parameter index="0" name="Encendido/Apagado" parameterValue="0"/>
              <parameter index="1" name="Nivel" parameterValue="0"/>
            </component>
            <component id="sendPan" powered="true"/>
          </sendSlot>
          <sendSlot preFader="false" sendOutputID="0" slotIndex="6">
            <component id="sendComponent" powered="false">
              <parameter index="0" name="Encendido/Apagado" parameterValue="0"/>
              <parameter index="1" name="Nivel" parameterValue="0"/>
            </component>
            <component id="sendPan" powered="true"/>
          </sendSlot>
          <sendSlot preFader="false" sendOutputID="0" slotIndex="7">
            <component id="sendComponent" powered="false">
              <parameter index="0" name="Encendido/Apagado" parameterValue="0"/>
              <parameter index="1" name="Nivel" parameterValue="0"/>
            </component>
            <component id="sendPan" powered="true"/>
          </sendSlot>
          <sendSlot preFader="false" sendOutputID="0" slotIndex="8">
            <component id="sendComponent" powered="false">
              <parameter index="0" name="Encendido/Apagado" parameterValue="0"/>
              <parameter index="1" name="Nivel" parameterValue="0"/>
            </component>
            <component id="sendPan" powered="true"/>
          </sendSlot>
          <sendSlot preFader="false" sendOutputID="0" slotIndex="9">
            <component id="sendComponent" powered="false">
              <parameter index="0" name="Encendido/Apagado" parameterValue="0"/>
              <parameter index="1" name="Nivel" parameterValue="0"/>
            </component>
            <component id="sendPan" powered="true"/>
          </sendSlot>
          <sendSlot preFader="false" sendOutputID="0" slotIndex="10">
            <component id="sendComponent" powered="false">
              <parameter index="0" name="Encendido/Apagado" parameterValue="0"/>
              <parameter index="1" name="Nivel" parameterValue="0"/>
            </component>
            <component id="sendPan" powered="true"/>
          </sendSlot>
          <sendSlot preFader="false" sendOutputID="0" slotIndex="11">
            <component id="sendComponent" powered="false">
              <parameter index="0" name="Encendido/Apagado" parameterValue="0"/>
              <parameter index="1" name="Nivel" parameterValue="0"/>
            </component>
            <component id="sendPan" powered="true"/>
          </sendSlot>
          <sendSlot preFader="false" sendOutputID="0" slotIndex="12">
            <component id="sendComponent" powered="false">
              <parameter index="0" name="Encendido/Apagado" parameterValue="0"/>
              <parameter index="1" name="Nivel" parameterValue="0"/>
            </component>
            <component id="sendPan" powered="true"/>
          </sendSlot>
          <sendSlot preFader="false" sendOutputID="0" slotIndex="13">
            <component id="sendComponent" powered="false">
              <parameter index="0" name="Encendido/Apagado" parameterValue="0"/>
              <parameter index="1" name="Nivel" parameterValue="0"/>
            </component>
            <component id="sendPan" powered="true"/>
          </sendSlot>
          <sendSlot preFader="false" sendOutputID="0" slotIndex="14">
            <component id="sendComponent" powered="false">
              <parameter index="0" name="Encendido/Apagado" parameterValue="0"/>
              <parameter index="1" name="Nivel" parameterValue="0"/>
            </component>
            <component id="sendPan" powered="true"/>
          </sendSlot>
          <sendSlot preFader="false" sendOutputID="0" slotIndex="15">
            <component id="sendComponent" powered="false">
              <parameter index="0" name="Encendido/Apagado" parameterValue="0"/>
              <parameter index="1" name="Nivel" parameterValue="0"/>
            </component>
            <component id="sendPan" powered="true"/>
          </sendSlot>
        </sendList>
        <audioClip clipAutoCrossfade="true" crossFadeHeadClipID="-1" crossFadeTailClipID="-1" endPoint="1938292" fileID="24" hue="-1" id="0" lockedInTime="false" looped="false" name="dark horse acapella_percusion2_primera estrofa" offline="false" select="false" sourceInPoint="0" sourceOutPoint="1245290" startPoint="693002" zOrder="45056">
          <component componentID="Audition.Fader" id="clipGain" name="volume" powered="true">
            <parameter index="0" name="volume" parameterValue="1"/>
            <parameter index="1" name="static gain" parameterValue="1"/>
          </component>
          <component componentID="Audition.Mute" id="clipMute" name="Mute" powered="true">
            <parameter index="0" parameterValue="0"/>
            <parameter index="1" name="mute" parameterValue="0"/>
          </component>
          <component componentID="Audition.StereoPanner" id="clipPan" name="StereoPanner" powered="true">
            <parameter index="0" name="Panorámica" parameterValue="0">
              <parameterKeyframes enableSplines="false">
                <parameterKeyframe sampleOffset="1088076" select="false" type="linear" value="0.5"/>
              </parameterKeyframes>
            </parameter>
          </component>
          <fadeIn crossFadeLinkType="linkedAsymmetric" endPoint="0" shape="0" startPoint="0" type="cosine"/>
          <fadeOut crossFadeLinkType="linkedAsymmetric" endPoint="1245290" shape="19" startPoint="1245290" type="log"/>
          <editParameter parameterIndex="0" slotIndex="4294967280"/>
          <editParameter parameterIndex="0" slotIndex="4294967281"/>
          <channelMap>
            <channel index="0" sourceIndex="0"/>
            <channel index="1" sourceIndex="1"/>
          </channelMap>
        </audioClip>
        <audioClip clipAutoCrossfade="true" crossFadeHeadClipID="-1" crossFadeTailClipID="-1" endPoint="3161230" fileID="25" hue="-1" id="1" lockedInTime="false" looped="false" name="dark horse acapella_percusion_coro" offline="false" select="false" sourceInPoint="0" sourceOutPoint="563160" startPoint="2598070" zOrder="45000">
          <component componentID="Audition.Fader" id="clipGain" name="volume" powered="true">
            <parameter index="0" name="volume" parameterValue="0">
              <parameterKeyframes enableSplines="true">
                <parameterKeyframe sampleOffset="455622" select="false" type="linear" value="0.6030361"/>
                <parameterKeyframe sampleOffset="494169" select="false" type="linear" value="0.4664698"/>
              </parameterKeyframes>
            </parameter>
            <parameter index="1" name="static gain" parameterValue="1"/>
          </component>
          <component componentID="Audition.Mute" id="clipMute" name="Mute" powered="true">
            <parameter index="0" parameterValue="0"/>
            <parameter index="1" name="mute" parameterValue="0"/>
          </component>
          <component componentID="Audition.StereoPanner" id="clipPan" name="StereoPanner" powered="true">
            <parameter index="0" name="Panorámica" parameterValue="39.9070625">
              <parameterKeyframes enableSplines="true">
                <parameterKeyframe sampleOffset="464112" select="false" type="linear" value="0.3004647"/>
                <parameterKeyframe sampleOffset="488586" select="false" type="linear" value="0.2948718"/>
                <parameterKeyframe sampleOffset="507741" select="false" type="linear" value="0.4032857"/>
              </parameterKeyframes>
            </parameter>
          </component>
          <fadeIn crossFadeLinkType="linkedAsymmetric" endPoint="0" shape="0" startPoint="0" type="cosine"/>
          <fadeOut crossFadeLinkType="linkedAsymmetric" endPoint="563160" shape="19" startPoint="563160" type="log"/>
          <editParameter parameterIndex="0" slotIndex="4294967280"/>
          <editParameter parameterIndex="0" slotIndex="4294967281"/>
          <channelMap>
            <channel index="0" sourceIndex="0"/>
            <channel index="1" sourceIndex="1"/>
          </channelMap>
        </audioClip>
        <audioClip clipAutoCrossfade="true" crossFadeHeadClipID="-1" crossFadeTailClipID="-1" endPoint="3208105" fileID="26" hue="-1" id="2" lockedInTime="false" looped="false" name="PERCUSIÓN 2_005" offline="false" select="false" sourceInPoint="0" sourceOutPoint="46875" startPoint="3161230" zOrder="44998">
          <component componentID="Audition.Fader" id="clipGain" name="volume" powered="true">
            <parameter index="0" name="volume" parameterValue="0.7117596">
              <parameterKeyframes enableSplines="false">
                <parameterKeyframe sampleOffset="18273" select="false" type="linear" value="0.5582125"/>
              </parameterKeyframes>
            </parameter>
            <parameter index="1" name="static gain" parameterValue="1"/>
          </component>
          <component componentID="Audition.Mute" id="clipMute" name="Mute" powered="true">
            <parameter index="0" parameterValue="0"/>
            <parameter index="1" name="mute" parameterValue="0"/>
          </component>
          <component componentID="Audition.StereoPanner" id="clipPan" name="StereoPanner" powered="true">
            <parameter index="0" name="Panorámica" parameterValue="0"/>
          </component>
          <fadeIn crossFadeLinkType="linkedAsymmetric" endPoint="0" shape="0" startPoint="0" type="cosine"/>
          <fadeOut crossFadeLinkType="linkedAsymmetric" endPoint="46875" shape="0" startPoint="46875" type="cosine"/>
          <take sourceInPoint="0"/>
          <editParameter parameterIndex="0" slotIndex="4294967281"/>
          <editParameter parameterIndex="0" slotIndex="4294967280"/>
          <channelMap>
            <channel index="0" sourceIndex="0"/>
            <channel index="1" sourceIndex="1"/>
          </channelMap>
        </audioClip>
        <audioClip clipAutoCrossfade="true" crossFadeHeadClipID="-1" crossFadeTailClipID="-1" endPoint="3579295" fileID="24" hue="-1" id="3" lockedInTime="false" looped="false" name="dark horse acapella_percusion2_primera estrofa" offline="false" select="false" sourceInPoint="0" sourceOutPoint="320763" startPoint="3258532" zOrder="44555">
          <component componentID="Audition.Fader" id="clipGain" name="volume" powered="true">
            <parameter index="0" name="volume" parameterValue="1"/>
            <parameter index="1" name="static gain" parameterValue="1"/>
          </component>
          <component componentID="Audition.Mute" id="clipMute" name="Mute" powered="true">
            <parameter index="0" parameterValue="0"/>
            <parameter index="1" name="mute" parameterValue="0"/>
          </component>
          <component componentID="Audition.StereoPanner" id="clipPan" name="StereoPanner" powered="true">
            <parameter index="0" name="Panorámica" parameterValue="0">
              <parameterKeyframes enableSplines="false">
                <parameterKeyframe sampleOffset="1088076" select="false" type="linear" value="0.5"/>
              </parameterKeyframes>
            </parameter>
          </component>
          <fadeIn crossFadeLinkType="linkedAsymmetric" endPoint="0" shape="0" startPoint="0" type="cosine"/>
          <fadeOut crossFadeLinkType="linkedAsymmetric" endPoint="320763" shape="19" startPoint="320763" type="log"/>
          <editParameter parameterIndex="0" slotIndex="4294967280"/>
          <editParameter parameterIndex="0" slotIndex="4294967281"/>
          <channelMap>
            <channel index="0" sourceIndex="0"/>
            <channel index="1" sourceIndex="1"/>
          </channelMap>
        </audioClip>
        <audioClip clipAutoCrossfade="true" crossFadeHeadClipID="-1" crossFadeTailClipID="-1" endPoint="4824585" fileID="24" hue="-1" id="4" lockedInTime="false" looped="false" name="dark horse acapella_percusion2_primera estrofa" offline="false" select="false" sourceInPoint="0" sourceOutPoint="1245290" startPoint="3579295" zOrder="44556">
          <component componentID="Audition.Fader" id="clipGain" name="volume" powered="true">
            <parameter index="0" name="volume" parameterValue="1"/>
            <parameter index="1" name="static gain" parameterValue="1"/>
          </component>
          <component componentID="Audition.Mute" id="clipMute" name="Mute" powered="true">
            <parameter index="0" parameterValue="0"/>
            <parameter index="1" name="mute" parameterValue="0"/>
          </component>
          <component componentID="Audition.StereoPanner" id="clipPan" name="StereoPanner" powered="true">
            <parameter index="0" name="Panorámica" parameterValue="0">
              <parameterKeyframes enableSplines="false">
                <parameterKeyframe sampleOffset="1088076" select="false" type="linear" value="0.5"/>
              </parameterKeyframes>
            </parameter>
          </component>
          <fadeIn crossFadeLinkType="linkedAsymmetric" endPoint="0" shape="0" startPoint="0" type="cosine"/>
          <fadeOut crossFadeLinkType="linkedAsymmetric" endPoint="1245290" shape="19" startPoint="1245290" type="log"/>
          <editParameter parameterIndex="0" slotIndex="4294967280"/>
          <editParameter parameterIndex="0" slotIndex="4294967281"/>
          <channelMap>
            <channel index="0" sourceIndex="0"/>
            <channel index="1" sourceIndex="1"/>
          </channelMap>
        </audioClip>
        <audioClip clipAutoCrossfade="true" crossFadeHeadClipID="-1" crossFadeTailClipID="-1" endPoint="6047492" fileID="25" hue="-1" id="5" lockedInTime="false" looped="false" name="dark horse acapella_percusion_coro" offline="false" select="false" sourceInPoint="0" sourceOutPoint="563160" startPoint="5484332" zOrder="44997">
          <component componentID="Audition.Fader" id="clipGain" name="volume" powered="true">
            <parameter index="0" name="volume" parameterValue="0">
              <parameterKeyframes enableSplines="true">
                <parameterKeyframe sampleOffset="455622" select="false" type="linear" value="0.6030361"/>
                <parameterKeyframe sampleOffset="494169" select="false" type="linear" value="0.4664698"/>
              </parameterKeyframes>
            </parameter>
            <parameter index="1" name="static gain" parameterValue="1"/>
          </component>
          <component componentID="Audition.Mute" id="clipMute" name="Mute" powered="true">
            <parameter index="0" parameterValue="0"/>
            <parameter index="1" name="mute" parameterValue="0"/>
          </component>
          <component componentID="Audition.StereoPanner" id="clipPan" name="StereoPanner" powered="true">
            <parameter index="0" name="Panorámica" parameterValue="39.9070625">
              <parameterKeyframes enableSplines="true">
                <parameterKeyframe sampleOffset="464112" select="false" type="linear" value="0.3004647"/>
                <parameterKeyframe sampleOffset="488586" select="false" type="linear" value="0.2948718"/>
                <parameterKeyframe sampleOffset="507741" select="false" type="linear" value="0.4032857"/>
              </parameterKeyframes>
            </parameter>
          </component>
          <fadeIn crossFadeLinkType="linkedAsymmetric" endPoint="0" shape="0" startPoint="0" type="cosine"/>
          <fadeOut crossFadeLinkType="linkedAsymmetric" endPoint="563160" shape="19" startPoint="563160" type="log"/>
          <editParameter parameterIndex="0" slotIndex="4294967280"/>
          <editParameter parameterIndex="0" slotIndex="4294967281"/>
          <channelMap>
            <channel index="0" sourceIndex="0"/>
            <channel index="1" sourceIndex="1"/>
          </channelMap>
        </audioClip>
        <audioClip clipAutoCrossfade="true" crossFadeHeadClipID="-1" crossFadeTailClipID="-1" endPoint="6094367" fileID="26" hue="-1" id="6" lockedInTime="false" looped="false" name="PERCUSIÓN 2_005" offline="false" select="false" sourceInPoint="0" sourceOutPoint="46875" startPoint="6047492" zOrder="44995">
          <component componentID="Audition.Fader" id="clipGain" name="volume" powered="true">
            <parameter index="0" name="volume" parameterValue="0.7117596">
              <parameterKeyframes enableSplines="false">
                <parameterKeyframe sampleOffset="18273" select="false" type="linear" value="0.5582125"/>
              </parameterKeyframes>
            </parameter>
            <parameter index="1" name="static gain" parameterValue="1"/>
          </component>
          <component componentID="Audition.Mute" id="clipMute" name="Mute" powered="true">
            <parameter index="0" parameterValue="0"/>
            <parameter index="1" name="mute" parameterValue="0"/>
          </component>
          <component componentID="Audition.StereoPanner" id="clipPan" name="StereoPanner" powered="true">
            <parameter index="0" name="Panorámica" parameterValue="0"/>
          </component>
          <fadeIn crossFadeLinkType="linkedAsymmetric" endPoint="0" shape="0" startPoint="0" type="cosine"/>
          <fadeOut crossFadeLinkType="linkedAsymmetric" endPoint="46875" shape="0" startPoint="46875" type="cosine"/>
          <editParameter parameterIndex="0" slotIndex="4294967281"/>
          <editParameter parameterIndex="0" slotIndex="4294967280"/>
          <channelMap>
            <channel index="0" sourceIndex="0"/>
            <channel index="1" sourceIndex="1"/>
          </channelMap>
        </audioClip>
        <audioClip clipAutoCrossfade="true" crossFadeHeadClipID="-1" crossFadeTailClipID="-1" endPoint="7390654" fileID="24" hue="-1" id="7" lockedInTime="false" looped="false" name="dark horse acapella_percusion2_primera estrofa" offline="false" select="false" sourceInPoint="0" sourceOutPoint="1245290" startPoint="6145364" zOrder="46101">
          <component componentID="Audition.Fader" id="clipGain" name="volume" powered="true">
            <parameter index="0" name="volume" parameterValue="1"/>
            <parameter index="1" name="static gain" parameterValue="1"/>
          </component>
          <component componentID="Audition.Mute" id="clipMute" name="Mute" powered="true">
            <parameter index="0" parameterValue="0"/>
            <parameter index="1" name="mute" parameterValue="0"/>
          </component>
          <component componentID="Audition.StereoPanner" id="clipPan" name="StereoPanner" powered="true">
            <parameter index="0" name="Panorámica" parameterValue="0">
              <parameterKeyframes enableSplines="false">
                <parameterKeyframe sampleOffset="1088076" select="false" type="linear" value="0.5"/>
              </parameterKeyframes>
            </parameter>
          </component>
          <fadeIn crossFadeLinkType="linkedAsymmetric" endPoint="0" shape="0" startPoint="0" type="cosine"/>
          <fadeOut crossFadeLinkType="linkedAsymmetric" endPoint="1245290" shape="19" startPoint="1245290" type="log"/>
          <editParameter parameterIndex="0" slotIndex="4294967280"/>
          <editParameter parameterIndex="0" slotIndex="4294967281"/>
          <channelMap>
            <channel index="0" sourceIndex="0"/>
            <channel index="1" sourceIndex="1"/>
          </channelMap>
        </audioClip>
        <audioClip clipAutoCrossfade="true" crossFadeHeadClipID="-1" crossFadeTailClipID="-1" endPoint="8701970" fileID="27" hue="-1" id="8" lockedInTime="false" looped="false" name="PERCUSIÓN 2_004" offline="false" select="false" sourceInPoint="60895" sourceOutPoint="141631" startPoint="8621234" zOrder="44235">
          <component componentID="Audition.Fader" id="clipGain" name="volume" powered="true">
            <parameter index="0" name="volume" parameterValue="1"/>
            <parameter index="1" name="static gain" parameterValue="1"/>
          </component>
          <component componentID="Audition.Mute" id="clipMute" name="Mute" powered="true">
            <parameter index="0" parameterValue="0"/>
            <parameter index="1" name="mute" parameterValue="0"/>
          </component>
          <component componentID="Audition.StereoPanner" id="clipPan" name="StereoPanner" powered="true">
            <parameter index="0" name="Panorámica" parameterValue="0"/>
          </component>
          <fadeIn crossFadeLinkType="linkedAsymmetric" endPoint="0" shape="19" startPoint="0" type="log"/>
          <fadeOut crossFadeLinkType="linkedAsymmetric" endPoint="80736" shape="18" startPoint="80736" type="log"/>
          <clipStretch adaptiveWindowSize="37" pitchAdjustment="0" preserveFormants="true" stretchMode="realtime" stretchQuality="high" stretchRatio="1.0106754201305883" stretchType="solo" transientSensitivity="40"/>
          <editParameter parameterIndex="0" slotIndex="4294967281"/>
          <editParameter parameterIndex="0" slotIndex="4294967280"/>
          <channelMap>
            <channel index="0" sourceIndex="0"/>
            <channel index="1" sourceIndex="1"/>
          </channelMap>
        </audioClip>
        <audioClip clipAutoCrossfade="true" crossFadeHeadClipID="-1" crossFadeTailClipID="-1" endPoint="8782374" fileID="27" hue="-1" id="9" lockedInTime="false" looped="false" name="PERCUSIÓN 2_004" offline="false" select="false" sourceInPoint="61227" sourceOutPoint="141631" startPoint="8701970" zOrder="44238">
          <component componentID="Audition.Fader" id="clipGain" name="volume" powered="true">
            <parameter index="0" name="volume" parameterValue="1"/>
            <parameter index="1" name="static gain" parameterValue="1"/>
          </component>
          <component componentID="Audition.Mute" id="clipMute" name="Mute" powered="true">
            <parameter index="0" parameterValue="0"/>
            <parameter index="1" name="mute" parameterValue="0"/>
          </component>
          <component componentID="Audition.StereoPanner" id="clipPan" name="StereoPanner" powered="true">
            <parameter index="0" name="Panorámica" parameterValue="0"/>
          </component>
          <fadeIn crossFadeLinkType="linkedAsymmetric" endPoint="0" shape="19" startPoint="0" type="log"/>
          <fadeOut crossFadeLinkType="linkedAsymmetric" endPoint="80404" shape="18" startPoint="80404" type="log"/>
          <clipStretch adaptiveWindowSize="37" pitchAdjustment="0" preserveFormants="true" stretchMode="realtime" stretchQuality="high" stretchRatio="1.0106754201305883" stretchType="solo" transientSensitivity="40"/>
          <editParameter parameterIndex="0" slotIndex="4294967281"/>
          <editParameter parameterIndex="0" slotIndex="4294967280"/>
          <channelMap>
            <channel index="0" sourceIndex="0"/>
            <channel index="1" sourceIndex="1"/>
          </channelMap>
        </audioClip>
        <audioClip clipAutoCrossfade="true" crossFadeHeadClipID="-1" crossFadeTailClipID="-1" endPoint="8862778" fileID="27" hue="-1" id="10" lockedInTime="false" looped="false" name="PERCUSIÓN 2_004" offline="false" select="false" sourceInPoint="61227" sourceOutPoint="141631" startPoint="8782374" zOrder="44231">
          <component componentID="Audition.Fader" id="clipGain" name="volume" powered="true">
            <parameter index="0" name="volume" parameterValue="1"/>
            <parameter index="1" name="static gain" parameterValue="1"/>
          </component>
          <component componentID="Audition.Mute" id="clipMute" name="Mute" powered="true">
            <parameter index="0" parameterValue="0"/>
            <parameter index="1" name="mute" parameterValue="0"/>
          </component>
          <component componentID="Audition.StereoPanner" id="clipPan" name="StereoPanner" powered="true">
            <parameter index="0" name="Panorámica" parameterValue="0"/>
          </component>
          <fadeIn crossFadeLinkType="linkedAsymmetric" endPoint="0" shape="19" startPoint="0" type="log"/>
          <fadeOut crossFadeLinkType="linkedAsymmetric" endPoint="80404" shape="18" startPoint="80404" type="log"/>
          <clipStretch adaptiveWindowSize="37" pitchAdjustment="0" preserveFormants="true" stretchMode="realtime" stretchQuality="high" stretchRatio="1.0106754201305883" stretchType="solo" transientSensitivity="40"/>
          <editParameter parameterIndex="0" slotIndex="4294967281"/>
          <editParameter parameterIndex="0" slotIndex="4294967280"/>
          <channelMap>
            <channel index="0" sourceIndex="0"/>
            <channel index="1" sourceIndex="1"/>
          </channelMap>
        </audioClip>
        <audioClip clipAutoCrossfade="true" crossFadeHeadClipID="-1" crossFadeTailClipID="-1" endPoint="8943182" fileID="27" hue="-1" id="11" lockedInTime="false" looped="false" name="PERCUSIÓN 2_004" offline="false" select="false" sourceInPoint="61227" sourceOutPoint="141631" startPoint="8862778" zOrder="44232">
          <component componentID="Audition.Fader" id="clipGain" name="volume" powered="true">
            <parameter index="0" name="volume" parameterValue="1"/>
            <parameter index="1" name="static gain" parameterValue="1"/>
          </component>
          <component componentID="Audition.Mute" id="clipMute" name="Mute" powered="true">
            <parameter index="0" parameterValue="0"/>
            <parameter index="1" name="mute" parameterValue="0"/>
          </component>
          <component componentID="Audition.StereoPanner" id="clipPan" name="StereoPanner" powered="true">
            <parameter index="0" name="Panorámica" parameterValue="0"/>
          </component>
          <fadeIn crossFadeLinkType="linkedAsymmetric" endPoint="0" shape="19" startPoint="0" type="log"/>
          <fadeOut crossFadeLinkType="linkedAsymmetric" endPoint="80404" shape="18" startPoint="80404" type="log"/>
          <clipStretch adaptiveWindowSize="37" pitchAdjustment="0" preserveFormants="true" stretchMode="realtime" stretchQuality="high" stretchRatio="1.0106754201305883" stretchType="solo" transientSensitivity="40"/>
          <editParameter parameterIndex="0" slotIndex="4294967281"/>
          <editParameter parameterIndex="0" slotIndex="4294967280"/>
          <channelMap>
            <channel index="0" sourceIndex="0"/>
            <channel index="1" sourceIndex="1"/>
          </channelMap>
        </audioClip>
        <audioClip clipAutoCrossfade="true" crossFadeHeadClipID="-1" crossFadeTailClipID="-1" endPoint="9023586" fileID="27" hue="-1" id="12" lockedInTime="false" looped="false" name="PERCUSIÓN 2_004" offline="false" select="false" sourceInPoint="61227" sourceOutPoint="141631" startPoint="8943182" zOrder="44234">
          <component componentID="Audition.Fader" id="clipGain" name="volume" powered="true">
            <parameter index="0" name="volume" parameterValue="1"/>
            <parameter index="1" name="static gain" parameterValue="1"/>
          </component>
          <component componentID="Audition.Mute" id="clipMute" name="Mute" powered="true">
            <parameter index="0" parameterValue="0"/>
            <parameter index="1" name="mute" parameterValue="0"/>
          </component>
          <component componentID="Audition.StereoPanner" id="clipPan" name="StereoPanner" powered="true">
            <parameter index="0" name="Panorámica" parameterValue="0"/>
          </component>
          <fadeIn crossFadeLinkType="linkedAsymmetric" endPoint="0" shape="19" startPoint="0" type="log"/>
          <fadeOut crossFadeLinkType="linkedAsymmetric" endPoint="80404" shape="18" startPoint="80404" type="log"/>
          <clipStretch adaptiveWindowSize="37" pitchAdjustment="0" preserveFormants="true" stretchMode="realtime" stretchQuality="high" stretchRatio="1.0106754201305883" stretchType="solo" transientSensitivity="40"/>
          <editParameter parameterIndex="0" slotIndex="4294967281"/>
          <editParameter parameterIndex="0" slotIndex="4294967280"/>
          <channelMap>
            <channel index="0" sourceIndex="0"/>
            <channel index="1" sourceIndex="1"/>
          </channelMap>
        </audioClip>
        <audioClip clipAutoCrossfade="true" crossFadeHeadClipID="-1" crossFadeTailClipID="-1" endPoint="9103990" fileID="27" hue="-1" id="13" lockedInTime="false" looped="false" name="PERCUSIÓN 2_004" offline="false" select="false" sourceInPoint="61227" sourceOutPoint="141631" startPoint="9023586" zOrder="44233">
          <component componentID="Audition.Fader" id="clipGain" name="volume" powered="true">
            <parameter index="0" name="volume" parameterValue="1"/>
            <parameter index="1" name="static gain" parameterValue="1"/>
          </component>
          <component componentID="Audition.Mute" id="clipMute" name="Mute" powered="true">
            <parameter index="0" parameterValue="0"/>
            <parameter index="1" name="mute" parameterValue="0"/>
          </component>
          <component componentID="Audition.StereoPanner" id="clipPan" name="StereoPanner" powered="true">
            <parameter index="0" name="Panorámica" parameterValue="0"/>
          </component>
          <fadeIn crossFadeLinkType="linkedAsymmetric" endPoint="0" shape="18" startPoint="0" type="log"/>
          <fadeOut crossFadeLinkType="linkedAsymmetric" endPoint="80404" shape="18" startPoint="80404" type="log"/>
          <clipStretch adaptiveWindowSize="37" pitchAdjustment="0" preserveFormants="true" stretchMode="realtime" stretchQuality="high" stretchRatio="1.0106754201305883" stretchType="solo" transientSensitivity="40"/>
          <editParameter parameterIndex="0" slotIndex="4294967281"/>
          <editParameter parameterIndex="0" slotIndex="4294967280"/>
          <channelMap>
            <channel index="0" sourceIndex="0"/>
            <channel index="1" sourceIndex="1"/>
          </channelMap>
        </audioClip>
        <audioClip clipAutoCrossfade="true" crossFadeHeadClipID="-1" crossFadeTailClipID="-1" endPoint="9184394" fileID="27" hue="-1" id="14" lockedInTime="false" looped="false" name="PERCUSIÓN 2_004" offline="false" select="false" sourceInPoint="61227" sourceOutPoint="141631" startPoint="9103990" zOrder="44236">
          <component componentID="Audition.Fader" id="clipGain" name="volume" powered="true">
            <parameter index="0" name="volume" parameterValue="1"/>
            <parameter index="1" name="static gain" parameterValue="1"/>
          </component>
          <component componentID="Audition.Mute" id="clipMute" name="Mute" powered="true">
            <parameter index="0" parameterValue="0"/>
            <parameter index="1" name="mute" parameterValue="0"/>
          </component>
          <component componentID="Audition.StereoPanner" id="clipPan" name="StereoPanner" powered="true">
            <parameter index="0" name="Panorámica" parameterValue="0"/>
          </component>
          <fadeIn crossFadeLinkType="linkedAsymmetric" endPoint="0" shape="18" startPoint="0" type="log"/>
          <fadeOut crossFadeLinkType="linkedAsymmetric" endPoint="80404" shape="18" startPoint="80404" type="log"/>
          <clipStretch adaptiveWindowSize="37" pitchAdjustment="0" preserveFormants="true" stretchMode="realtime" stretchQuality="high" stretchRatio="1.0106754201305883" stretchType="solo" transientSensitivity="40"/>
          <editParameter parameterIndex="0" slotIndex="4294967281"/>
          <editParameter parameterIndex="0" slotIndex="4294967280"/>
          <channelMap>
            <channel index="0" sourceIndex="0"/>
            <channel index="1" sourceIndex="1"/>
          </channelMap>
        </audioClip>
        <audioClip clipAutoCrossfade="true" crossFadeHeadClipID="-1" crossFadeTailClipID="-1" endPoint="14453399" fileID="28" hue="-1" id="15" lockedInTime="false" looped="false" name="GRABACIÓN_001" offline="false" select="false" sourceInPoint="0" sourceOutPoint="41544" startPoint="14411855" zOrder="45049">
          <component componentID="Audition.Fader" id="clipGain" name="volume" powered="true">
            <parameter index="0" name="volume" parameterValue="0.6006029"/>
            <parameter index="1" name="static gain" parameterValue="1"/>
          </component>
          <component componentID="Audition.Mute" id="clipMute" name="Mute" powered="true">
            <parameter index="0" parameterValue="0"/>
            <parameter index="1" name="mute" parameterValue="0"/>
          </component>
          <component componentID="Audition.StereoPanner" id="clipPan" name="StereoPanner" powered="true">
            <parameter index="0" name="Panorámica" parameterValue="0"/>
          </component>
          <fadeIn crossFadeLinkType="linkedAsymmetric" endPoint="0" shape="0" startPoint="0" type="cosine"/>
          <fadeOut crossFadeLinkType="linkedAsymmetric" endPoint="41544" shape="0" startPoint="41544" type="cosine"/>
          <editParameter parameterIndex="0" slotIndex="4294967281"/>
          <editParameter parameterIndex="0" slotIndex="4294967280"/>
          <channelMap>
            <channel index="0" sourceIndex="0"/>
            <channel index="1" sourceIndex="1"/>
          </channelMap>
        </audioClip>
        <audioClip clipAutoCrossfade="true" crossFadeHeadClipID="-1" crossFadeTailClipID="-1" endPoint="14533659" fileID="28" hue="-1" id="16" lockedInTime="false" looped="false" name="GRABACIÓN_001" offline="false" select="false" sourceInPoint="0" sourceOutPoint="41544" startPoint="14492115" zOrder="45035">
          <component componentID="Audition.Fader" id="clipGain" name="volume" powered="true">
            <parameter index="0" name="volume" parameterValue="1"/>
            <parameter index="1" name="static gain" parameterValue="1"/>
          </component>
          <component componentID="Audition.Mute" id="clipMute" name="Mute" powered="true">
            <parameter index="0" parameterValue="0"/>
            <parameter index="1" name="mute" parameterValue="0"/>
          </component>
          <component componentID="Audition.StereoPanner" id="clipPan" name="StereoPanner" powered="true">
            <parameter index="0" name="Panorámica" parameterValue="0"/>
          </component>
          <fadeIn crossFadeLinkType="linkedAsymmetric" endPoint="0" shape="0" startPoint="0" type="cosine"/>
          <fadeOut crossFadeLinkType="linkedAsymmetric" endPoint="41544" shape="0" startPoint="41544" type="cosine"/>
          <take sourceInPoint="0"/>
          <editParameter parameterIndex="0" slotIndex="4294967281"/>
          <editParameter parameterIndex="0" slotIndex="4294967280"/>
          <channelMap>
            <channel index="0" sourceIndex="0"/>
            <channel index="1" sourceIndex="1"/>
          </channelMap>
        </audioClip>
        <audioClip clipAutoCrossfade="true" crossFadeHeadClipID="-1" crossFadeTailClipID="-1" endPoint="14614523" fileID="28" hue="-1" id="17" lockedInTime="false" looped="false" name="GRABACIÓN_001" offline="false" select="false" sourceInPoint="0" sourceOutPoint="41544" startPoint="14572979" zOrder="45036">
          <component componentID="Audition.Fader" id="clipGain" name="volume" powered="true">
            <parameter index="0" name="volume" parameterValue="0.6006029"/>
            <parameter index="1" name="static gain" parameterValue="1"/>
          </component>
          <component componentID="Audition.Mute" id="clipMute" name="Mute" powered="true">
            <parameter index="0" parameterValue="0"/>
            <parameter index="1" name="mute" parameterValue="0"/>
          </component>
          <component componentID="Audition.StereoPanner" id="clipPan" name="StereoPanner" powered="true">
            <parameter index="0" name="Panorámica" parameterValue="0"/>
          </component>
          <fadeIn crossFadeLinkType="linkedAsymmetric" endPoint="0" shape="0" startPoint="0" type="cosine"/>
          <fadeOut crossFadeLinkType="linkedAsymmetric" endPoint="41544" shape="0" startPoint="41544" type="cosine"/>
          <editParameter parameterIndex="0" slotIndex="4294967281"/>
          <editParameter parameterIndex="0" slotIndex="4294967280"/>
          <channelMap>
            <channel index="0" sourceIndex="0"/>
            <channel index="1" sourceIndex="1"/>
          </channelMap>
        </audioClip>
        <audioClip clipAutoCrossfade="true" crossFadeHeadClipID="-1" crossFadeTailClipID="-1" endPoint="14694783" fileID="28" hue="-1" id="18" lockedInTime="false" looped="false" name="GRABACIÓN_001" offline="false" select="false" sourceInPoint="0" sourceOutPoint="41544" startPoint="14653239" zOrder="45051">
          <component componentID="Audition.Fader" id="clipGain" name="volume" powered="true">
            <parameter index="0" name="volume" parameterValue="1"/>
            <parameter index="1" name="static gain" parameterValue="1"/>
          </component>
          <component componentID="Audition.Mute" id="clipMute" name="Mute" powered="true">
            <parameter index="0" parameterValue="0"/>
            <parameter index="1" name="mute" parameterValue="0"/>
          </component>
          <component componentID="Audition.StereoPanner" id="clipPan" name="StereoPanner" powered="true">
            <parameter index="0" name="Panorámica" parameterValue="0"/>
          </component>
          <fadeIn crossFadeLinkType="linkedAsymmetric" endPoint="0" shape="0" startPoint="0" type="cosine"/>
          <fadeOut crossFadeLinkType="linkedAsymmetric" endPoint="41544" shape="0" startPoint="41544" type="cosine"/>
          <editParameter parameterIndex="0" slotIndex="4294967281"/>
          <editParameter parameterIndex="0" slotIndex="4294967280"/>
          <channelMap>
            <channel index="0" sourceIndex="0"/>
            <channel index="1" sourceIndex="1"/>
          </channelMap>
        </audioClip>
        <audioClip clipAutoCrossfade="true" crossFadeHeadClipID="-1" crossFadeTailClipID="-1" endPoint="14774227" fileID="28" hue="-1" id="19" lockedInTime="false" looped="false" name="GRABACIÓN_001" offline="false" select="false" sourceInPoint="0" sourceOutPoint="41544" startPoint="14732683" zOrder="45040">
          <component componentID="Audition.Fader" id="clipGain" name="volume" powered="true">
            <parameter index="0" name="volume" parameterValue="0.6006029"/>
            <parameter index="1" name="static gain" parameterValue="1"/>
          </component>
          <component componentID="Audition.Mute" id="clipMute" name="Mute" powered="true">
            <parameter index="0" parameterValue="0"/>
            <parameter index="1" name="mute" parameterValue="0"/>
          </component>
          <component componentID="Audition.StereoPanner" id="clipPan" name="StereoPanner" powered="true">
            <parameter index="0" name="Panorámica" parameterValue="0"/>
          </component>
          <fadeIn crossFadeLinkType="linkedAsymmetric" endPoint="0" shape="0" startPoint="0" type="cosine"/>
          <fadeOut crossFadeLinkType="linkedAsymmetric" endPoint="41544" shape="0" startPoint="41544" type="cosine"/>
          <editParameter parameterIndex="0" slotIndex="4294967281"/>
          <editParameter parameterIndex="0" slotIndex="4294967280"/>
          <channelMap>
            <channel index="0" sourceIndex="0"/>
            <channel index="1" sourceIndex="1"/>
          </channelMap>
        </audioClip>
        <audioClip clipAutoCrossfade="true" crossFadeHeadClipID="-1" crossFadeTailClipID="-1" endPoint="14854487" fileID="28" hue="-1" id="20" lockedInTime="false" looped="false" name="GRABACIÓN_001" offline="false" select="false" sourceInPoint="0" sourceOutPoint="41544" startPoint="14812943" zOrder="45037">
          <component componentID="Audition.Fader" id="clipGain" name="volume" powered="true">
            <parameter index="0" name="volume" parameterValue="1"/>
            <parameter index="1" name="static gain" parameterValue="1"/>
          </component>
          <component componentID="Audition.Mute" id="clipMute" name="Mute" powered="true">
            <parameter index="0" parameterValue="0"/>
            <parameter index="1" name="mute" parameterValue="0"/>
          </component>
          <component componentID="Audition.StereoPanner" id="clipPan" name="StereoPanner" powered="true">
            <parameter index="0" name="Panorámica" parameterValue="0"/>
          </component>
          <fadeIn crossFadeLinkType="linkedAsymmetric" endPoint="0" shape="0" startPoint="0" type="cosine"/>
          <fadeOut crossFadeLinkType="linkedAsymmetric" endPoint="41544" shape="0" startPoint="41544" type="cosine"/>
          <editParameter parameterIndex="0" slotIndex="4294967281"/>
          <editParameter parameterIndex="0" slotIndex="4294967280"/>
          <channelMap>
            <channel index="0" sourceIndex="0"/>
            <channel index="1" sourceIndex="1"/>
          </channelMap>
        </audioClip>
        <audioClip clipAutoCrossfade="true" crossFadeHeadClipID="-1" crossFadeTailClipID="-1" endPoint="14935351" fileID="28" hue="-1" id="21" lockedInTime="false" looped="false" name="GRABACIÓN_001" offline="false" select="false" sourceInPoint="0" sourceOutPoint="41544" startPoint="14893807" zOrder="45038">
          <component componentID="Audition.Fader" id="clipGain" name="volume" powered="true">
            <parameter index="0" name="volume" parameterValue="0.6006029"/>
            <parameter index="1" name="static gain" parameterValue="1"/>
          </component>
          <component componentID="Audition.Mute" id="clipMute" name="Mute" powered="true">
            <parameter index="0" parameterValue="0"/>
            <parameter index="1" name="mute" parameterValue="0"/>
          </component>
          <component componentID="Audition.StereoPanner" id="clipPan" name="StereoPanner" powered="true">
            <parameter index="0" name="Panorámica" parameterValue="0"/>
          </component>
          <fadeIn crossFadeLinkType="linkedAsymmetric" endPoint="0" shape="0" startPoint="0" type="cosine"/>
          <fadeOut crossFadeLinkType="linkedAsymmetric" endPoint="41544" shape="0" startPoint="41544" type="cosine"/>
          <editParameter parameterIndex="0" slotIndex="4294967281"/>
          <editParameter parameterIndex="0" slotIndex="4294967280"/>
          <channelMap>
            <channel index="0" sourceIndex="0"/>
            <channel index="1" sourceIndex="1"/>
          </channelMap>
        </audioClip>
        <audioClip clipAutoCrossfade="true" crossFadeHeadClipID="-1" crossFadeTailClipID="-1" endPoint="15015611" fileID="28" hue="-1" id="22" lockedInTime="false" looped="false" name="GRABACIÓN_001" offline="false" select="false" sourceInPoint="0" sourceOutPoint="41544" startPoint="14974067" zOrder="45039">
          <component componentID="Audition.Fader" id="clipGain" name="volume" powered="true">
            <parameter index="0" name="volume" parameterValue="1"/>
            <parameter index="1" name="static gain" parameterValue="1"/>
          </component>
          <component componentID="Audition.Mute" id="clipMute" name="Mute" powered="true">
            <parameter index="0" parameterValue="0"/>
            <parameter index="1" name="mute" parameterValue="0"/>
          </component>
          <component componentID="Audition.StereoPanner" id="clipPan" name="StereoPanner" powered="true">
            <parameter index="0" name="Panorámica" parameterValue="0"/>
          </component>
          <fadeIn crossFadeLinkType="linkedAsymmetric" endPoint="0" shape="0" startPoint="0" type="cosine"/>
          <fadeOut crossFadeLinkType="linkedAsymmetric" endPoint="41544" shape="0" startPoint="41544" type="cosine"/>
          <editParameter parameterIndex="0" slotIndex="4294967281"/>
          <editParameter parameterIndex="0" slotIndex="4294967280"/>
          <channelMap>
            <channel index="0" sourceIndex="0"/>
            <channel index="1" sourceIndex="1"/>
          </channelMap>
        </audioClip>
        <audioClip clipAutoCrossfade="true" crossFadeHeadClipID="-1" crossFadeTailClipID="-1" endPoint="15094933" fileID="28" hue="-1" id="23" lockedInTime="false" looped="false" name="GRABACIÓN_001" offline="false" select="false" sourceInPoint="0" sourceOutPoint="41544" startPoint="15053389" zOrder="45047">
          <component componentID="Audition.Fader" id="clipGain" name="volume" powered="true">
            <parameter index="0" name="volume" parameterValue="0.6006029"/>
            <parameter index="1" name="static gain" parameterValue="1"/>
          </component>
          <component componentID="Audition.Mute" id="clipMute" name="Mute" powered="true">
            <parameter index="0" parameterValue="0"/>
            <parameter index="1" name="mute" parameterValue="0"/>
          </component>
          <component componentID="Audition.StereoPanner" id="clipPan" name="StereoPanner" powered="true">
            <parameter index="0" name="Panorámica" parameterValue="0"/>
          </component>
          <fadeIn crossFadeLinkType="linkedAsymmetric" endPoint="0" shape="18" startPoint="0" type="log"/>
          <fadeOut crossFadeLinkType="linkedAsymmetric" endPoint="41544" shape="0" startPoint="41544" type="cosine"/>
          <editParameter parameterIndex="0" slotIndex="4294967281"/>
          <editParameter parameterIndex="0" slotIndex="4294967280"/>
          <channelMap>
            <channel index="0" sourceIndex="0"/>
            <channel index="1" sourceIndex="1"/>
          </channelMap>
        </audioClip>
        <audioClip clipAutoCrossfade="true" crossFadeHeadClipID="-1" crossFadeTailClipID="-1" endPoint="15175193" fileID="28" hue="-1" id="24" lockedInTime="false" looped="false" name="GRABACIÓN_001" offline="false" select="false" sourceInPoint="0" sourceOutPoint="41544" startPoint="15133649" zOrder="45041">
          <component componentID="Audition.Fader" id="clipGain" name="volume" powered="true">
            <parameter index="0" name="volume" parameterValue="1"/>
            <parameter index="1" name="static gain" parameterValue="1"/>
          </component>
          <component componentID="Audition.Mute" id="clipMute" name="Mute" powered="true">
            <parameter index="0" parameterValue="0"/>
            <parameter index="1" name="mute" parameterValue="0"/>
          </component>
          <component componentID="Audition.StereoPanner" id="clipPan" name="StereoPanner" powered="true">
            <parameter index="0" name="Panorámica" parameterValue="0"/>
          </component>
          <fadeIn crossFadeLinkType="linkedAsymmetric" endPoint="0" shape="0" startPoint="0" type="cosine"/>
          <fadeOut crossFadeLinkType="linkedAsymmetric" endPoint="41544" shape="0" startPoint="41544" type="cosine"/>
          <editParameter parameterIndex="0" slotIndex="4294967281"/>
          <editParameter parameterIndex="0" slotIndex="4294967280"/>
          <channelMap>
            <channel index="0" sourceIndex="0"/>
            <channel index="1" sourceIndex="1"/>
          </channelMap>
        </audioClip>
        <audioClip clipAutoCrossfade="true" crossFadeHeadClipID="-1" crossFadeTailClipID="-1" endPoint="15256057" fileID="28" hue="-1" id="25" lockedInTime="false" looped="false" name="GRABACIÓN_001" offline="false" select="false" sourceInPoint="0" sourceOutPoint="41544" startPoint="15214513" zOrder="45042">
          <component componentID="Audition.Fader" id="clipGain" name="volume" powered="true">
            <parameter index="0" name="volume" parameterValue="0.6006029"/>
            <parameter index="1" name="static gain" parameterValue="1"/>
          </component>
          <component componentID="Audition.Mute" id="clipMute" name="Mute" powered="true">
            <parameter index="0" parameterValue="0"/>
            <parameter index="1" name="mute" parameterValue="0"/>
          </component>
          <component componentID="Audition.StereoPanner" id="clipPan" name="StereoPanner" powered="true">
            <parameter index="0" name="Panorámica" parameterValue="0"/>
          </component>
          <fadeIn crossFadeLinkType="linkedAsymmetric" endPoint="0" shape="0" startPoint="0" type="cosine"/>
          <fadeOut crossFadeLinkType="linkedAsymmetric" endPoint="41544" shape="0" startPoint="41544" type="cosine"/>
          <editParameter parameterIndex="0" slotIndex="4294967281"/>
          <editParameter parameterIndex="0" slotIndex="4294967280"/>
          <channelMap>
            <channel index="0" sourceIndex="0"/>
            <channel index="1" sourceIndex="1"/>
          </channelMap>
        </audioClip>
        <audioClip clipAutoCrossfade="true" crossFadeHeadClipID="-1" crossFadeTailClipID="-1" endPoint="15336317" fileID="28" hue="-1" id="26" lockedInTime="false" looped="false" name="GRABACIÓN_001" offline="false" select="false" sourceInPoint="0" sourceOutPoint="41544" startPoint="15294773" zOrder="45043">
          <component componentID="Audition.Fader" id="clipGain" name="volume" powered="true">
            <parameter index="0" name="volume" parameterValue="1"/>
            <parameter index="1" name="static gain" parameterValue="1"/>
          </component>
          <component componentID="Audition.Mute" id="clipMute" name="Mute" powered="true">
            <parameter index="0" parameterValue="0"/>
            <parameter index="1" name="mute" parameterValue="0"/>
          </component>
          <component componentID="Audition.StereoPanner" id="clipPan" name="StereoPanner" powered="true">
            <parameter index="0" name="Panorámica" parameterValue="0"/>
          </component>
          <fadeIn crossFadeLinkType="linkedAsymmetric" endPoint="0" shape="0" startPoint="0" type="cosine"/>
          <fadeOut crossFadeLinkType="linkedAsymmetric" endPoint="41544" shape="0" startPoint="41544" type="cosine"/>
          <editParameter parameterIndex="0" slotIndex="4294967281"/>
          <editParameter parameterIndex="0" slotIndex="4294967280"/>
          <channelMap>
            <channel index="0" sourceIndex="0"/>
            <channel index="1" sourceIndex="1"/>
          </channelMap>
        </audioClip>
        <audioClip clipAutoCrossfade="true" crossFadeHeadClipID="-1" crossFadeTailClipID="-1" endPoint="15415761" fileID="28" hue="-1" id="27" lockedInTime="false" looped="false" name="GRABACIÓN_001" offline="false" select="false" sourceInPoint="0" sourceOutPoint="41544" startPoint="15374217" zOrder="45046">
          <component componentID="Audition.Fader" id="clipGain" name="volume" powered="true">
            <parameter index="0" name="volume" parameterValue="0.6006029"/>
            <parameter index="1" name="static gain" parameterValue="1"/>
          </component>
          <component componentID="Audition.Mute" id="clipMute" name="Mute" powered="true">
            <parameter index="0" parameterValue="0"/>
            <parameter index="1" name="mute" parameterValue="0"/>
          </component>
          <component componentID="Audition.StereoPanner" id="clipPan" name="StereoPanner" powered="true">
            <parameter index="0" name="Panorámica" parameterValue="0"/>
          </component>
          <fadeIn crossFadeLinkType="linkedAsymmetric" endPoint="0" shape="0" startPoint="0" type="cosine"/>
          <fadeOut crossFadeLinkType="linkedAsymmetric" endPoint="41544" shape="0" startPoint="41544" type="cosine"/>
          <editParameter parameterIndex="0" slotIndex="4294967281"/>
          <editParameter parameterIndex="0" slotIndex="4294967280"/>
          <channelMap>
            <channel index="0" sourceIndex="0"/>
            <channel index="1" sourceIndex="1"/>
          </channelMap>
        </audioClip>
        <audioClip clipAutoCrossfade="true" crossFadeHeadClipID="-1" crossFadeTailClipID="-1" endPoint="15496021" fileID="28" hue="-1" id="28" lockedInTime="false" looped="false" name="GRABACIÓN_001" offline="false" select="false" sourceInPoint="0" sourceOutPoint="41544" startPoint="15454477" zOrder="45044">
          <component componentID="Audition.Fader" id="clipGain" name="volume" powered="true">
            <parameter index="0" name="volume" parameterValue="1"/>
            <parameter index="1" name="static gain" parameterValue="1"/>
          </component>
          <component componentID="Audition.Mute" id="clipMute" name="Mute" powered="true">
            <parameter index="0" parameterValue="0"/>
            <parameter index="1" name="mute" parameterValue="0"/>
          </component>
          <component componentID="Audition.StereoPanner" id="clipPan" name="StereoPanner" powered="true">
            <parameter index="0" name="Panorámica" parameterValue="0"/>
          </component>
          <fadeIn crossFadeLinkType="linkedAsymmetric" endPoint="0" shape="0" startPoint="0" type="cosine"/>
          <fadeOut crossFadeLinkType="linkedAsymmetric" endPoint="41544" shape="0" startPoint="41544" type="cosine"/>
          <editParameter parameterIndex="0" slotIndex="4294967281"/>
          <editParameter parameterIndex="0" slotIndex="4294967280"/>
          <channelMap>
            <channel index="0" sourceIndex="0"/>
            <channel index="1" sourceIndex="1"/>
          </channelMap>
        </audioClip>
        <audioClip clipAutoCrossfade="true" crossFadeHeadClipID="-1" crossFadeTailClipID="-1" endPoint="15576885" fileID="28" hue="-1" id="29" lockedInTime="false" looped="false" name="GRABACIÓN_001" offline="false" select="false" sourceInPoint="0" sourceOutPoint="41544" startPoint="15535341" zOrder="45045">
          <component componentID="Audition.Fader" id="clipGain" name="volume" powered="true">
            <parameter index="0" name="volume" parameterValue="0.6006029"/>
            <parameter index="1" name="static gain" parameterValue="1"/>
          </component>
          <component componentID="Audition.Mute" id="clipMute" name="Mute" powered="true">
            <parameter index="0" parameterValue="0"/>
            <parameter index="1" name="mute" parameterValue="0"/>
          </component>
          <component componentID="Audition.StereoPanner" id="clipPan" name="StereoPanner" powered="true">
            <parameter index="0" name="Panorámica" parameterValue="0"/>
          </component>
          <fadeIn crossFadeLinkType="linkedAsymmetric" endPoint="0" shape="0" startPoint="0" type="cosine"/>
          <fadeOut crossFadeLinkType="linkedAsymmetric" endPoint="41544" shape="0" startPoint="41544" type="cosine"/>
          <editParameter parameterIndex="0" slotIndex="4294967281"/>
          <editParameter parameterIndex="0" slotIndex="4294967280"/>
          <channelMap>
            <channel index="0" sourceIndex="0"/>
            <channel index="1" sourceIndex="1"/>
          </channelMap>
        </audioClip>
        <audioClip clipAutoCrossfade="true" crossFadeHeadClipID="-1" crossFadeTailClipID="-1" endPoint="15657145" fileID="28" hue="-1" id="30" lockedInTime="false" looped="false" name="GRABACIÓN_001" offline="false" select="false" sourceInPoint="0" sourceOutPoint="41544" startPoint="15615601" zOrder="45048">
          <component componentID="Audition.Fader" id="clipGain" name="volume" powered="true">
            <parameter index="0" name="volume" parameterValue="1"/>
            <parameter index="1" name="static gain" parameterValue="1"/>
          </component>
          <component componentID="Audition.Mute" id="clipMute" name="Mute" powered="true">
            <parameter index="0" parameterValue="0"/>
            <parameter index="1" name="mute" parameterValue="0"/>
          </component>
          <component componentID="Audition.StereoPanner" id="clipPan" name="StereoPanner" powered="true">
            <parameter index="0" name="Panorámica" parameterValue="0"/>
          </component>
          <fadeIn crossFadeLinkType="linkedAsymmetric" endPoint="0" shape="18" startPoint="0" type="log"/>
          <fadeOut crossFadeLinkType="linkedAsymmetric" endPoint="41544" shape="0" startPoint="41544" type="cosine"/>
          <editParameter parameterIndex="0" slotIndex="4294967281"/>
          <editParameter parameterIndex="0" slotIndex="4294967280"/>
          <channelMap>
            <channel index="0" sourceIndex="0"/>
            <channel index="1" sourceIndex="1"/>
          </channelMap>
        </audioClip>
      </audioTrack>
      <audioTrack automationLaneOpenState="false" id="10002" index="6" select="false" visible="true">
        <trackParameters trackHeight="129">
          <name>PERCUSIÓN</name>
        </trackParameters>
        <trackAudioParameters audioChannelType="stereo" automationMode="1" monitoring="false" recordArmed="false" solo="false" soloSafe="false">
          <trackOutput outputID="10000" type="trackID"/>
          <trackInput inputID="-1"/>
          <component componentID="Audition.Fader" id="trackFader" name="volume" powered="true">
            <parameter index="0" name="volume" parameterValue="1"/>
            <parameter index="1" name="static gain" parameterValue="1"/>
          </component>
          <component componentID="Audition.Mute" id="trackMute" name="Mute" powered="true">
            <parameter index="0" parameterValue="0"/>
            <parameter index="1" name="mute" parameterValue="0"/>
          </component>
          <component componentID="Audition.StereoPanner" id="trackPan" name="StereoPanner" powered="true">
            <parameter index="0" name="Panorámica" parameterValue="0"/>
          </component>
          <component componentID="Audition.EQ" id="trackEQ" name="EQ" powered="false">
            <parameter index="0" name="Frecuencia estante inferior" parameterValue="0.0009079"/>
            <parameter index="1" name="Ganancia estante inferior" parameterValue="0.5"/>
            <parameter index="2" name="Frecuencia estante superior" parameterValue="0.8161598"/>
            <parameter index="3" name="Ganancia estante superior" parameterValue="0.5"/>
            <parameter index="4" name="Frecuencia central de banda de EC 1" parameterValue="0.0013618"/>
            <parameter index="5" name="Valor Q de banda de EC 1" parameterValue="0.0002"/>
            <parameter index="6" name="Ganancia de banda de EC 1" parameterValue="0.5"/>
            <parameter index="7" name="Activación de banda de EC 1" parameterValue="1"/>
            <parameter index="8" name="Frecuencia central de banda de EC 2" parameterValue="0.0081707"/>
            <parameter index="9" name="Valor Q de banda de EC 2" parameterValue="0.0002"/>
            <parameter index="10" name="Ganancia de banda de EC 2" parameterValue="0.5"/>
            <parameter index="11" name="Activación de banda de EC 2" parameterValue="1"/>
            <parameter index="12" name="Frecuencia central de banda de EC 3" parameterValue="0.0354063"/>
            <parameter index="13" name="Valor Q de banda de EC 3" parameterValue="0.0002"/>
            <parameter index="14" name="Ganancia de banda de EC 3" parameterValue="0.5"/>
            <parameter index="15" name="Activación de banda de EC 3" parameterValue="1"/>
            <parameter index="16" name="Frecuencia central de banda de EC 4" parameterValue="0.1443486"/>
            <parameter index="17" name="Valor Q de banda de EC 4" parameterValue="0.0002"/>
            <parameter index="18" name="Ganancia de banda de EC 4" parameterValue="0.5"/>
            <parameter index="19" name="Activación de banda de EC 4" parameterValue="1"/>
            <parameter index="20" name="Frecuencia central de banda de EC 5" parameterValue="0.580118"/>
            <parameter index="21" name="Valor Q de banda de EC 5" parameterValue="0.0002"/>
            <parameter index="22" name="Ganancia de banda de EC 5" parameterValue="0.5"/>
            <parameter index="23" name="Activación de banda de EC 5" parameterValue="1"/>
            <parameter index="24" name="Ganancia maestra" parameterValue="0.6666667"/>
            <parameter index="25" name="Constant Q" parameterValue="1"/>
            <parameter index="26" name="Orden de filtro de estante inferior" parameterValue="0"/>
            <parameter index="27" name="Orden de filtro de estante superior" parameterValue="0"/>
            <parameter index="28" name="Modo ultrasilencioso" parameterValue="0"/>
            <parameter index="29" name="Activar estante inferior" parameterValue="1"/>
            <parameter index="30" name="Activar estante superior" parameterValue="1"/>
            <parameter index="31" name="Velocidad de muestreo original" parameterValue="0.2296875"/>
            <parameter index="32" name="Ancho de banda de EC 1" parameterValue="0.0025"/>
            <parameter index="33" name="Ancho de banda de EC 2" parameterValue="0.01"/>
            <parameter index="34" name="Ancho de banda de EC 3" parameterValue="0.04"/>
            <parameter index="35" name="Ancho de banda de EC 4" parameterValue="0.16"/>
            <parameter index="36" name="Ancho de banda de EC 5" parameterValue="0.64"/>
            <parameter index="37" name="Activación de filtro de pase alto" parameterValue="0"/>
            <parameter index="38" name="Frecuencia de límite de paso alto" parameterValue="0"/>
            <parameter index="39" name="Pendiente de paso alto" parameterValue="4"/>
            <parameter index="40" name="Activación de filtro de pase bajo" parameterValue="0"/>
            <parameter index="41" name="Frecuencia de límite de paso bajo" parameterValue="0.906945"/>
            <parameter index="42" name="Pendiente de paso bajo" parameterValue="4"/>
            <parameter index="43" name="Omitir" parameterValue="0"/>
            <parameter index="44" name="Rango de gráfico bajo" parameterValue="1"/>
          </component>
        </trackAudioParameters>
        <editParameter parameterIndex="0" slotIndex="4294967280"/>
        <sendList>
          <sendSlot preFader="false" sendOutputID="0" slotIndex="0">
            <component id="sendComponent" powered="false">
              <parameter index="0" name="Encendido/Apagado" parameterValue="0"/>
              <parameter index="1" name="Nivel" parameterValue="0"/>
            </component>
            <component id="sendPan" powered="true"/>
          </sendSlot>
          <sendSlot preFader="false" sendOutputID="0" slotIndex="1">
            <component id="sendComponent" powered="false">
              <parameter index="0" name="Encendido/Apagado" parameterValue="0"/>
              <parameter index="1" name="Nivel" parameterValue="0"/>
            </component>
            <component id="sendPan" powered="true"/>
          </sendSlot>
          <sendSlot preFader="false" sendOutputID="0" slotIndex="2">
            <component id="sendComponent" powered="false">
              <parameter index="0" name="Encendido/Apagado" parameterValue="0"/>
              <parameter index="1" name="Nivel" parameterValue="0"/>
            </component>
            <component id="sendPan" powered="true"/>
          </sendSlot>
          <sendSlot preFader="false" sendOutputID="0" slotIndex="3">
            <component id="sendComponent" powered="false">
              <parameter index="0" name="Encendido/Apagado" parameterValue="0"/>
              <parameter index="1" name="Nivel" parameterValue="0"/>
            </component>
            <component id="sendPan" powered="true"/>
          </sendSlot>
          <sendSlot preFader="false" sendOutputID="0" slotIndex="4">
            <component id="sendComponent" powered="false">
              <parameter index="0" name="Encendido/Apagado" parameterValue="0"/>
              <parameter index="1" name="Nivel" parameterValue="0"/>
            </component>
            <component id="sendPan" powered="true"/>
          </sendSlot>
          <sendSlot preFader="false" sendOutputID="0" slotIndex="5">
            <component id="sendComponent" powered="false">
              <parameter index="0" name="Encendido/Apagado" parameterValue="0"/>
              <parameter index="1" name="Nivel" parameterValue="0"/>
            </component>
            <component id="sendPan" powered="true"/>
          </sendSlot>
          <sendSlot preFader="false" sendOutputID="0" slotIndex="6">
            <component id="sendComponent" powered="false">
              <parameter index="0" name="Encendido/Apagado" parameterValue="0"/>
              <parameter index="1" name="Nivel" parameterValue="0"/>
            </component>
            <component id="sendPan" powered="true"/>
          </sendSlot>
          <sendSlot preFader="false" sendOutputID="0" slotIndex="7">
            <component id="sendComponent" powered="false">
              <parameter index="0" name="Encendido/Apagado" parameterValue="0"/>
              <parameter index="1" name="Nivel" parameterValue="0"/>
            </component>
            <component id="sendPan" powered="true"/>
          </sendSlot>
          <sendSlot preFader="false" sendOutputID="0" slotIndex="8">
            <component id="sendComponent" powered="false">
              <parameter index="0" name="Encendido/Apagado" parameterValue="0"/>
              <parameter index="1" name="Nivel" parameterValue="0"/>
            </component>
            <component id="sendPan" powered="true"/>
          </sendSlot>
          <sendSlot preFader="false" sendOutputID="0" slotIndex="9">
            <component id="sendComponent" powered="false">
              <parameter index="0" name="Encendido/Apagado" parameterValue="0"/>
              <parameter index="1" name="Nivel" parameterValue="0"/>
            </component>
            <component id="sendPan" powered="true"/>
          </sendSlot>
          <sendSlot preFader="false" sendOutputID="0" slotIndex="10">
            <component id="sendComponent" powered="false">
              <parameter index="0" name="Encendido/Apagado" parameterValue="0"/>
              <parameter index="1" name="Nivel" parameterValue="0"/>
            </component>
            <component id="sendPan" powered="true"/>
          </sendSlot>
          <sendSlot preFader="false" sendOutputID="0" slotIndex="11">
            <component id="sendComponent" powered="false">
              <parameter index="0" name="Encendido/Apagado" parameterValue="0"/>
              <parameter index="1" name="Nivel" parameterValue="0"/>
            </component>
            <component id="sendPan" powered="true"/>
          </sendSlot>
          <sendSlot preFader="false" sendOutputID="0" slotIndex="12">
            <component id="sendComponent" powered="false">
              <parameter index="0" name="Encendido/Apagado" parameterValue="0"/>
              <parameter index="1" name="Nivel" parameterValue="0"/>
            </component>
            <component id="sendPan" powered="true"/>
          </sendSlot>
          <sendSlot preFader="false" sendOutputID="0" slotIndex="13">
            <component id="sendComponent" powered="false">
              <parameter index="0" name="Encendido/Apagado" parameterValue="0"/>
              <parameter index="1" name="Nivel" parameterValue="0"/>
            </component>
            <component id="sendPan" powered="true"/>
          </sendSlot>
          <sendSlot preFader="false" sendOutputID="0" slotIndex="14">
            <component id="sendComponent" powered="false">
              <parameter index="0" name="Encendido/Apagado" parameterValue="0"/>
              <parameter index="1" name="Nivel" parameterValue="0"/>
            </component>
            <component id="sendPan" powered="true"/>
          </sendSlot>
          <sendSlot preFader="false" sendOutputID="0" slotIndex="15">
            <component id="sendComponent" powered="false">
              <parameter index="0" name="Encendido/Apagado" parameterValue="0"/>
              <parameter index="1" name="Nivel" parameterValue="0"/>
            </component>
            <component id="sendPan" powered="true"/>
          </sendSlot>
        </sendList>
        <audioClip clipAutoCrossfade="true" crossFadeHeadClipID="-1" crossFadeTailClipID="-1" endPoint="1933384" fileID="29" hue="-1" id="0" lockedInTime="false" looped="false" name="dark horse_percusion1_primera estrofa" offline="false" select="false" sourceInPoint="0" sourceOutPoint="1220862" startPoint="712522" zOrder="46021">
          <component componentID="Audition.Fader" id="clipGain" name="volume" powered="true">
            <parameter index="0" name="volume" parameterValue="0.7988598"/>
            <parameter index="1" name="static gain" parameterValue="1"/>
          </component>
          <component componentID="Audition.Mute" id="clipMute" name="Mute" powered="true">
            <parameter index="0" parameterValue="0"/>
            <parameter index="1" name="mute" parameterValue="0"/>
          </component>
          <component componentID="Audition.StereoPanner" id="clipPan" name="StereoPanner" powered="true">
            <parameter index="0" name="Panorámica" parameterValue="0"/>
          </component>
          <fadeIn crossFadeLinkType="linkedAsymmetric" endPoint="0" shape="0" startPoint="0" type="cosine"/>
          <fadeOut crossFadeLinkType="linkedAsymmetric" endPoint="1220862" shape="19" startPoint="1220862" type="log"/>
          <editParameter parameterIndex="0" slotIndex="4294967281"/>
          <editParameter parameterIndex="0" slotIndex="4294967280"/>
          <channelMap>
            <channel index="0" sourceIndex="0"/>
            <channel index="1" sourceIndex="1"/>
          </channelMap>
        </audioClip>
        <audioClip clipAutoCrossfade="true" crossFadeHeadClipID="-1" crossFadeTailClipID="-1" endPoint="2605954" fileID="30" hue="-1" id="1" lockedInTime="false" looped="false" name="OTHERS_022" offline="false" select="false" sourceInPoint="0" sourceOutPoint="46124" startPoint="2559830" zOrder="45222">
          <component componentID="Audition.Fader" id="clipGain" name="volume" powered="true">
            <parameter index="0" name="volume" parameterValue="1"/>
            <parameter index="1" name="static gain" parameterValue="1"/>
          </component>
          <component componentID="Audition.Mute" id="clipMute" name="Mute" powered="true">
            <parameter index="0" parameterValue="0"/>
            <parameter index="1" name="mute" parameterValue="0"/>
          </component>
          <component componentID="Audition.StereoPanner" id="clipPan" name="StereoPanner" powered="true">
            <parameter index="0" name="Panorámica" parameterValue="0"/>
          </component>
          <fadeIn crossFadeLinkType="linkedAsymmetric" endPoint="0" shape="0" startPoint="0" type="cosine"/>
          <fadeOut crossFadeLinkType="linkedAsymmetric" endPoint="46124" shape="0" startPoint="46124" type="cosine"/>
          <editParameter parameterIndex="0" slotIndex="4294967281"/>
          <editParameter parameterIndex="0" slotIndex="4294967280"/>
          <channelMap>
            <channel index="0" sourceIndex="0"/>
            <channel index="1" sourceIndex="1"/>
          </channelMap>
        </audioClip>
        <audioClip clipAutoCrossfade="true" crossFadeHeadClipID="-1" crossFadeTailClipID="-1" endPoint="3161230" fileID="25" hue="-1" id="2" lockedInTime="false" looped="false" name="dark horse acapella_percusion_coro" offline="false" select="false" sourceInPoint="0" sourceOutPoint="70511" startPoint="3090719" zOrder="45224">
          <component componentID="Audition.Fader" id="clipGain" name="volume" powered="true">
            <parameter index="0" name="volume" parameterValue="0.7160661">
              <parameterKeyframes enableSplines="false">
                <parameterKeyframe sampleOffset="28106" select="false" type="linear" value="0.5597222"/>
              </parameterKeyframes>
            </parameter>
            <parameter index="1" name="static gain" parameterValue="1"/>
          </component>
          <component componentID="Audition.Mute" id="clipMute" name="Mute" powered="true">
            <parameter index="0" parameterValue="0"/>
            <parameter index="1" name="mute" parameterValue="0"/>
          </component>
          <component componentID="Audition.StereoPanner" id="clipPan" name="StereoPanner" powered="true">
            <parameter index="0" name="Panorámica" parameterValue="-10.1415043"/>
          </component>
          <fadeIn crossFadeLinkType="linkedAsymmetric" endPoint="0" shape="0" startPoint="0" type="cosine"/>
          <fadeOut crossFadeLinkType="linkedAsymmetric" endPoint="70511" shape="19" startPoint="70511" type="log"/>
          <editParameter parameterIndex="0" slotIndex="4294967280"/>
          <editParameter parameterIndex="0" slotIndex="4294967281"/>
          <channelMap>
            <channel index="0" sourceIndex="0"/>
            <channel index="1" sourceIndex="1"/>
          </channelMap>
        </audioClip>
        <audioClip clipAutoCrossfade="true" crossFadeHeadClipID="-1" crossFadeTailClipID="-1" endPoint="3598815" fileID="29" hue="-1" id="3" lockedInTime="false" looped="false" name="dark horse_percusion1_primera estrofa" offline="false" select="false" sourceInPoint="0" sourceOutPoint="320763" startPoint="3278052" zOrder="44566">
          <component componentID="Audition.Fader" id="clipGain" name="volume" powered="true">
            <parameter index="0" name="volume" parameterValue="0.7988598"/>
            <parameter index="1" name="static gain" parameterValue="1"/>
          </component>
          <component componentID="Audition.Mute" id="clipMute" name="Mute" powered="true">
            <parameter index="0" parameterValue="0"/>
            <parameter index="1" name="mute" parameterValue="0"/>
          </component>
          <component componentID="Audition.StereoPanner" id="clipPan" name="StereoPanner" powered="true">
            <parameter index="0" name="Panorámica" parameterValue="0"/>
          </component>
          <fadeIn crossFadeLinkType="linkedAsymmetric" endPoint="0" shape="0" startPoint="0" type="cosine"/>
          <fadeOut crossFadeLinkType="linkedAsymmetric" endPoint="320763" shape="19" startPoint="320763" type="log"/>
          <editParameter parameterIndex="0" slotIndex="4294967280"/>
          <editParameter parameterIndex="0" slotIndex="4294967281"/>
          <channelMap>
            <channel index="0" sourceIndex="0"/>
            <channel index="1" sourceIndex="1"/>
          </channelMap>
        </audioClip>
        <audioClip clipAutoCrossfade="true" crossFadeHeadClipID="-1" crossFadeTailClipID="-1" endPoint="4590433" fileID="29" hue="-1" id="4" lockedInTime="false" looped="false" name="dark horse_percusion1_primera estrofa" offline="false" select="false" sourceInPoint="0" sourceOutPoint="991618" startPoint="3598815" zOrder="44568">
          <component componentID="Audition.Fader" id="clipGain" name="volume" powered="true">
            <parameter index="0" name="volume" parameterValue="0.7988598"/>
            <parameter index="1" name="static gain" parameterValue="1"/>
          </component>
          <component componentID="Audition.Mute" id="clipMute" name="Mute" powered="true">
            <parameter index="0" parameterValue="0"/>
            <parameter index="1" name="mute" parameterValue="0"/>
          </component>
          <component componentID="Audition.StereoPanner" id="clipPan" name="StereoPanner" powered="true">
            <parameter index="0" name="Panorámica" parameterValue="0"/>
          </component>
          <fadeIn crossFadeLinkType="linkedAsymmetric" endPoint="0" shape="0" startPoint="0" type="cosine"/>
          <fadeOut crossFadeLinkType="linkedAsymmetric" endPoint="991618" shape="19" startPoint="991618" type="log"/>
          <editParameter parameterIndex="0" slotIndex="4294967281"/>
          <editParameter parameterIndex="0" slotIndex="4294967280"/>
          <channelMap>
            <channel index="0" sourceIndex="0"/>
            <channel index="1" sourceIndex="1"/>
          </channelMap>
        </audioClip>
        <audioClip clipAutoCrossfade="true" crossFadeHeadClipID="-1" crossFadeTailClipID="-1" endPoint="5492216" fileID="30" hue="-1" id="5" lockedInTime="false" looped="false" name="OTHERS_022" offline="false" select="false" sourceInPoint="0" sourceOutPoint="46124" startPoint="5446092" zOrder="45236">
          <component componentID="Audition.Fader" id="clipGain" name="volume" powered="true">
            <parameter index="0" name="volume" parameterValue="1"/>
            <parameter index="1" name="static gain" parameterValue="1"/>
          </component>
          <component componentID="Audition.Mute" id="clipMute" name="Mute" powered="true">
            <parameter index="0" parameterValue="0"/>
            <parameter index="1" name="mute" parameterValue="0"/>
          </component>
          <component componentID="Audition.StereoPanner" id="clipPan" name="StereoPanner" powered="true">
            <parameter index="0" name="Panorámica" parameterValue="0"/>
          </component>
          <fadeIn crossFadeLinkType="linkedAsymmetric" endPoint="0" shape="0" startPoint="0" type="cosine"/>
          <fadeOut crossFadeLinkType="linkedAsymmetric" endPoint="46124" shape="0" startPoint="46124" type="cosine"/>
          <editParameter parameterIndex="0" slotIndex="4294967281"/>
          <editParameter parameterIndex="0" slotIndex="4294967280"/>
          <channelMap>
            <channel index="0" sourceIndex="0"/>
            <channel index="1" sourceIndex="1"/>
          </channelMap>
        </audioClip>
        <audioClip clipAutoCrossfade="true" crossFadeHeadClipID="-1" crossFadeTailClipID="-1" endPoint="6047492" fileID="25" hue="-1" id="6" lockedInTime="false" looped="false" name="dark horse acapella_percusion_coro" offline="false" select="false" sourceInPoint="0" sourceOutPoint="70511" startPoint="5976981" zOrder="45238">
          <component componentID="Audition.Fader" id="clipGain" name="volume" powered="true">
            <parameter index="0" name="volume" parameterValue="0.7160661">
              <parameterKeyframes enableSplines="false">
                <parameterKeyframe sampleOffset="28106" select="false" type="linear" value="0.5597222"/>
              </parameterKeyframes>
            </parameter>
            <parameter index="1" name="static gain" parameterValue="1"/>
          </component>
          <component componentID="Audition.Mute" id="clipMute" name="Mute" powered="true">
            <parameter index="0" parameterValue="0"/>
            <parameter index="1" name="mute" parameterValue="0"/>
          </component>
          <component componentID="Audition.StereoPanner" id="clipPan" name="StereoPanner" powered="true">
            <parameter index="0" name="Panorámica" parameterValue="-10.1415043"/>
          </component>
          <fadeIn crossFadeLinkType="linkedAsymmetric" endPoint="0" shape="0" startPoint="0" type="cosine"/>
          <fadeOut crossFadeLinkType="linkedAsymmetric" endPoint="70511" shape="19" startPoint="70511" type="log"/>
          <editParameter parameterIndex="0" slotIndex="4294967280"/>
          <editParameter parameterIndex="0" slotIndex="4294967281"/>
          <channelMap>
            <channel index="0" sourceIndex="0"/>
            <channel index="1" sourceIndex="1"/>
          </channelMap>
        </audioClip>
        <audioClip clipAutoCrossfade="true" crossFadeHeadClipID="-1" crossFadeTailClipID="-1" endPoint="7385746" fileID="29" hue="-1" id="7" lockedInTime="false" looped="false" name="dark horse_percusion1_primera estrofa" offline="false" select="false" sourceInPoint="0" sourceOutPoint="1220862" startPoint="6164884" zOrder="46098">
          <component componentID="Audition.Fader" id="clipGain" name="volume" powered="true">
            <parameter index="0" name="volume" parameterValue="0.7988598"/>
            <parameter index="1" name="static gain" parameterValue="1"/>
          </component>
          <component componentID="Audition.Mute" id="clipMute" name="Mute" powered="true">
            <parameter index="0" parameterValue="0"/>
            <parameter index="1" name="mute" parameterValue="0"/>
          </component>
          <component componentID="Audition.StereoPanner" id="clipPan" name="StereoPanner" powered="true">
            <parameter index="0" name="Panorámica" parameterValue="0"/>
          </component>
          <fadeIn crossFadeLinkType="linkedAsymmetric" endPoint="0" shape="0" startPoint="0" type="cosine"/>
          <fadeOut crossFadeLinkType="linkedAsymmetric" endPoint="1220862" shape="19" startPoint="1220862" type="log"/>
          <editParameter parameterIndex="0" slotIndex="4294967281"/>
          <editParameter parameterIndex="0" slotIndex="4294967280"/>
          <channelMap>
            <channel index="0" sourceIndex="0"/>
            <channel index="1" sourceIndex="1"/>
          </channelMap>
        </audioClip>
        <audioClip clipAutoCrossfade="true" crossFadeHeadClipID="-1" crossFadeTailClipID="-1" endPoint="13064404" fileID="31" hue="-1" id="8" lockedInTime="false" looped="false" name="Pista 9_001_1" offline="false" select="false" sourceInPoint="0" sourceOutPoint="97244" startPoint="12967160" zOrder="36616">
          <component componentID="Audition.Fader" id="clipGain" name="volume" powered="true">
            <parameter index="0" name="volume" parameterValue="0">
              <parameterKeyframes enableSplines="true">
                <parameterKeyframe sampleOffset="31888" select="true" type="linear" value="0.6889704"/>
                <parameterKeyframe sampleOffset="73120" select="true" type="linear" value="0.6909581"/>
                <parameterKeyframe sampleOffset="89567" select="true" type="linear" value="0.5690069"/>
              </parameterKeyframes>
            </parameter>
            <parameter index="1" name="static gain" parameterValue="1"/>
          </component>
          <component componentID="Audition.Mute" id="clipMute" name="Mute" powered="true">
            <parameter index="0" parameterValue="0"/>
            <parameter index="1" name="mute" parameterValue="0"/>
          </component>
          <component componentID="Audition.StereoPanner" id="clipPan" name="StereoPanner" powered="true">
            <parameter index="0" name="Panorámica" parameterValue="20.5870152">
              <parameterKeyframes enableSplines="true">
                <parameterKeyframe sampleOffset="43467" select="false" type="linear" value="0.3970649"/>
              </parameterKeyframes>
            </parameter>
          </component>
          <fadeIn crossFadeLinkType="linkedAsymmetric" endPoint="0" shape="19" startPoint="0" type="log"/>
          <fadeOut crossFadeLinkType="linkedAsymmetric" endPoint="97244" shape="0" startPoint="97244" type="cosine"/>
          <clipStretch adaptiveWindowSize="37" pitchAdjustment="0" preserveFormants="true" stretchMode="realtime" stretchQuality="high" stretchRatio="1.1073608454040265" stretchType="solo" transientSensitivity="40"/>
          <editParameter parameterIndex="0" slotIndex="4294967281"/>
          <editParameter parameterIndex="0" slotIndex="4294967280"/>
          <channelMap>
            <channel index="0" sourceIndex="0"/>
            <channel index="1" sourceIndex="1"/>
          </channelMap>
        </audioClip>
        <audioClip clipAutoCrossfade="true" crossFadeHeadClipID="-1" crossFadeTailClipID="10" endPoint="13448166" fileID="32" hue="-1" id="9" lockedInTime="false" looped="false" name="darkhorse_percusion" offline="false" select="false" sourceInPoint="7027" sourceOutPoint="204771" startPoint="13250422" zOrder="44149">
          <component componentID="Audition.Fader" id="clipGain" name="volume" powered="true">
            <parameter index="0" name="volume" parameterValue="0">
              <parameterKeyframes enableSplines="true">
                <parameterKeyframe sampleOffset="9278" select="false" type="linear" value="0.7534506"/>
                <parameterKeyframe sampleOffset="15623" select="false" type="linear" value="0.876526"/>
                <parameterKeyframe sampleOffset="31996" select="false" type="linear" value="0.5346153"/>
                <parameterKeyframe sampleOffset="44905" select="false" type="linear" value="0.7235775"/>
                <parameterKeyframe sampleOffset="102803" select="false" type="linear" value="0.526608"/>
                <parameterKeyframe sampleOffset="145620" select="false" type="linear" value="0.5440637"/>
                <parameterKeyframe sampleOffset="192275" select="false" type="linear" value="0.5452535"/>
                <parameterKeyframe sampleOffset="204680" select="false" type="linear" value="0.6499737"/>
                <parameterKeyframe sampleOffset="211351" select="false" type="linear" value="0.65"/>
              </parameterKeyframes>
            </parameter>
            <parameter index="1" name="static gain" parameterValue="1"/>
          </component>
          <component componentID="Audition.Mute" id="clipMute" name="Mute" powered="true">
            <parameter index="0" parameterValue="0"/>
            <parameter index="1" name="mute" parameterValue="0"/>
          </component>
          <component componentID="Audition.StereoPanner" id="clipPan" name="StereoPanner" powered="true">
            <parameter index="0" name="Panorámica" parameterValue="-68.4443817">
              <parameterKeyframes enableSplines="true">
                <parameterKeyframe sampleOffset="24901" select="false" type="linear" value="0.8422219"/>
                <parameterKeyframe sampleOffset="43866" select="false" type="linear" value="0.7505042"/>
                <parameterKeyframe sampleOffset="47167" select="false" type="linear" value="0.5"/>
                <parameterKeyframe sampleOffset="49281" select="false" type="linear" value="0.1935484"/>
                <parameterKeyframe sampleOffset="124211" select="false" type="linear" value="0.2939533"/>
                <parameterKeyframe sampleOffset="158011" select="false" type="linear" value="0.292471"/>
                <parameterKeyframe sampleOffset="191254" select="false" type="linear" value="0.5"/>
                <parameterKeyframe sampleOffset="198499" select="false" type="linear" value="0.6782626"/>
                <parameterKeyframe sampleOffset="218849" select="false" type="linear" value="0.7721343"/>
                <parameterKeyframe sampleOffset="218850" select="false" type="linear" value="0.5"/>
                <parameterKeyframe sampleOffset="227061" select="false" type="linear" value="0.6148001"/>
                <parameterKeyframe sampleOffset="300685" select="false" type="linear" value="0.6123548"/>
                <parameterKeyframe sampleOffset="307944" select="false" type="linear" value="0.5"/>
              </parameterKeyframes>
            </parameter>
          </component>
          <fadeIn crossFadeLinkType="linkedAsymmetric" endPoint="0" shape="19" startPoint="0" type="log"/>
          <fadeOut crossFadeLinkType="linkedAsymmetric" endPoint="197744" shape="18" startPoint="193580" type="log"/>
          <clipStretch adaptiveWindowSize="37" pitchAdjustment="0" preserveFormants="true" stretchMode="realtime" stretchQuality="high" stretchRatio="1.0175614251632303" stretchType="solo" transientSensitivity="40"/>
          <editParameter parameterIndex="0" slotIndex="4294967281"/>
          <editParameter parameterIndex="0" slotIndex="4294967280"/>
          <channelMap>
            <channel index="0" sourceIndex="0"/>
            <channel index="1" sourceIndex="1"/>
          </channelMap>
        </audioClip>
        <audioClip clipAutoCrossfade="true" crossFadeHeadClipID="9" crossFadeTailClipID="11" endPoint="13546214" fileID="33" hue="-1" id="10" lockedInTime="false" looped="false" name="percusion 2" offline="false" select="false" sourceInPoint="5434" sourceOutPoint="107646" startPoint="13444002" zOrder="44151">
          <component componentID="Audition.Fader" id="clipGain" name="volume" powered="true">
            <parameter index="0" name="volume" parameterValue="0">
              <parameterKeyframes enableSplines="true">
                <parameterKeyframe sampleOffset="49250" select="false" type="linear" value="0.5566314"/>
                <parameterKeyframe sampleOffset="88947" select="false" type="linear" value="0.6334706"/>
                <parameterKeyframe sampleOffset="90998" select="false" type="linear" value="0.3331361"/>
                <parameterKeyframe sampleOffset="94146" select="false" type="linear" value="0.7983186"/>
                <parameterKeyframe sampleOffset="101690" select="false" type="linear" value="0.8096529"/>
              </parameterKeyframes>
            </parameter>
            <parameter index="1" name="static gain" parameterValue="1"/>
          </component>
          <component componentID="Audition.Mute" id="clipMute" name="Mute" powered="true">
            <parameter index="0" parameterValue="0"/>
            <parameter index="1" name="mute" parameterValue="0"/>
          </component>
          <component componentID="Audition.StereoPanner" id="clipPan" name="StereoPanner" powered="true">
            <parameter index="0" name="Panorámica" parameterValue="-71.2798843">
              <parameterKeyframes enableSplines="true">
                <parameterKeyframe sampleOffset="13921" select="false" type="linear" value="0.8563994"/>
                <parameterKeyframe sampleOffset="47869" select="false" type="linear" value="0.8638353"/>
                <parameterKeyframe sampleOffset="79904" select="false" type="linear" value="0.5107914"/>
                <parameterKeyframe sampleOffset="93008" select="false" type="linear" value="0.5"/>
              </parameterKeyframes>
            </parameter>
          </component>
          <fadeIn crossFadeLinkType="linkedAsymmetric" endPoint="4164" shape="19" startPoint="0" type="log"/>
          <fadeOut crossFadeLinkType="linkedAsymmetric" endPoint="102212" shape="18" startPoint="99389" type="log"/>
          <clipStretch adaptiveWindowSize="37" pitchAdjustment="0" preserveFormants="true" stretchMode="realtime" stretchQuality="high" stretchRatio="1.0066860019433694" stretchType="solo" transientSensitivity="40"/>
          <editParameter parameterIndex="0" slotIndex="4294967281"/>
          <editParameter parameterIndex="0" slotIndex="4294967280"/>
          <channelMap>
            <channel index="0" sourceIndex="0"/>
            <channel index="1" sourceIndex="1"/>
          </channelMap>
        </audioClip>
        <audioClip clipAutoCrossfade="true" crossFadeHeadClipID="10" crossFadeTailClipID="-1" endPoint="13611455" fileID="32" hue="-1" id="11" lockedInTime="false" looped="false" name="darkhorse_percusion" offline="false" select="false" sourceInPoint="295200" sourceOutPoint="363264" startPoint="13543391" zOrder="37041">
          <component componentID="Audition.Fader" id="clipGain" name="volume" powered="true">
            <parameter index="0" name="volume" parameterValue="0">
              <parameterKeyframes enableSplines="true">
                <parameterKeyframe sampleOffset="9118" select="false" type="linear" value="0.7534506"/>
                <parameterKeyframe sampleOffset="31105" select="false" type="linear" value="0.5713483"/>
                <parameterKeyframe sampleOffset="44436" select="false" type="linear" value="0.7045299"/>
                <parameterKeyframe sampleOffset="86554" select="false" type="linear" value="0.6870546"/>
                <parameterKeyframe sampleOffset="94422" select="false" type="linear" value="0.6819559"/>
                <parameterKeyframe sampleOffset="102291" select="false" type="linear" value="0.6085799"/>
                <parameterKeyframe sampleOffset="139011" select="false" type="linear" value="0.6085799"/>
                <parameterKeyframe sampleOffset="186222" select="false" type="linear" value="0.6163723"/>
                <parameterKeyframe sampleOffset="201147" select="false" type="linear" value="0.6499737"/>
                <parameterKeyframe sampleOffset="207704" select="false" type="linear" value="0.65"/>
                <parameterKeyframe sampleOffset="309520" select="true" type="linear" value="0.65"/>
              </parameterKeyframes>
            </parameter>
            <parameter index="1" name="static gain" parameterValue="1"/>
          </component>
          <component componentID="Audition.Mute" id="clipMute" name="Mute" powered="true">
            <parameter index="0" parameterValue="0"/>
            <parameter index="1" name="mute" parameterValue="0"/>
          </component>
          <component componentID="Audition.StereoPanner" id="clipPan" name="StereoPanner" powered="true">
            <parameter index="0" name="Panorámica" parameterValue="-62.9213562">
              <parameterKeyframes enableSplines="true">
                <parameterKeyframe sampleOffset="42239" select="false" type="linear" value="0.8146068"/>
                <parameterKeyframe sampleOffset="44982" select="false" type="linear" value="0.5"/>
                <parameterKeyframe sampleOffset="46353" select="false" type="linear" value="0.5"/>
                <parameterKeyframe sampleOffset="73440" select="false" type="linear" value="0.5000001"/>
                <parameterKeyframe sampleOffset="81308" select="false" type="linear" value="0.5"/>
                <parameterKeyframe sampleOffset="89177" select="false" type="linear" value="0.3934924"/>
                <parameterKeyframe sampleOffset="140322" select="false" type="linear" value="0.3698238"/>
                <parameterKeyframe sampleOffset="204582" select="false" type="linear" value="0.3816581"/>
                <parameterKeyframe sampleOffset="215073" select="false" type="linear" value="0.5"/>
                <parameterKeyframe sampleOffset="223142" select="false" type="linear" value="0.6148001"/>
                <parameterKeyframe sampleOffset="295496" select="false" type="linear" value="0.6123548"/>
                <parameterKeyframe sampleOffset="302629" select="false" type="linear" value="0.5"/>
                <parameterKeyframe sampleOffset="306012" select="false" type="linear" value="0.5309638"/>
              </parameterKeyframes>
            </parameter>
          </component>
          <fadeIn crossFadeLinkType="linkedAsymmetric" endPoint="2823" shape="19" startPoint="0" type="log"/>
          <fadeOut crossFadeLinkType="linkedAsymmetric" endPoint="68064" shape="0" startPoint="68064" type="cosine"/>
          <editParameter parameterIndex="0" slotIndex="4294967281"/>
          <editParameter parameterIndex="0" slotIndex="4294967280"/>
          <channelMap>
            <channel index="0" sourceIndex="0"/>
            <channel index="1" sourceIndex="1"/>
          </channelMap>
        </audioClip>
        <audioClip clipAutoCrossfade="true" crossFadeHeadClipID="-1" crossFadeTailClipID="-1" endPoint="14471557" fileID="34" hue="-1" id="12" lockedInTime="false" looped="false" name="Pista 2_004" offline="false" select="false" sourceInPoint="0" sourceOutPoint="18158" startPoint="14453399" zOrder="42031">
          <component componentID="Audition.Fader" id="clipGain" name="volume" powered="true">
            <parameter index="0" name="volume" parameterValue="1"/>
            <parameter index="1" name="static gain" parameterValue="1"/>
          </component>
          <component componentID="Audition.Mute" id="clipMute" name="Mute" powered="true">
            <parameter index="0" parameterValue="0"/>
            <parameter index="1" name="mute" parameterValue="0"/>
          </component>
          <component componentID="Audition.StereoPanner" id="clipPan" name="StereoPanner" powered="true">
            <parameter index="0" name="Panorámica" parameterValue="0"/>
          </component>
          <fadeIn crossFadeLinkType="linkedAsymmetric" endPoint="0" shape="0" startPoint="0" type="cosine"/>
          <fadeOut crossFadeLinkType="linkedAsymmetric" endPoint="18158" shape="0" startPoint="18158" type="cosine"/>
          <take sourceInPoint="0"/>
          <editParameter parameterIndex="0" slotIndex="4294967280"/>
          <editParameter parameterIndex="0" slotIndex="4294967281"/>
          <channelMap>
            <channel index="0" sourceIndex="0"/>
            <channel index="1" sourceIndex="1"/>
          </channelMap>
        </audioClip>
        <audioClip clipAutoCrossfade="true" crossFadeHeadClipID="-1" crossFadeTailClipID="-1" endPoint="14551729" fileID="34" hue="-1" id="13" lockedInTime="false" looped="false" name="Pista 2_004" offline="false" select="false" sourceInPoint="0" sourceOutPoint="18158" startPoint="14533571" zOrder="42025">
          <component componentID="Audition.Fader" id="clipGain" name="volume" powered="true">
            <parameter index="0" name="volume" parameterValue="1"/>
            <parameter index="1" name="static gain" parameterValue="1"/>
          </component>
          <component componentID="Audition.Mute" id="clipMute" name="Mute" powered="true">
            <parameter index="0" parameterValue="0"/>
            <parameter index="1" name="mute" parameterValue="0"/>
          </component>
          <component componentID="Audition.StereoPanner" id="clipPan" name="StereoPanner" powered="true">
            <parameter index="0" name="Panorámica" parameterValue="0"/>
          </component>
          <fadeIn crossFadeLinkType="linkedAsymmetric" endPoint="0" shape="0" startPoint="0" type="cosine"/>
          <fadeOut crossFadeLinkType="linkedAsymmetric" endPoint="18158" shape="0" startPoint="18158" type="cosine"/>
          <editParameter parameterIndex="0" slotIndex="4294967281"/>
          <editParameter parameterIndex="0" slotIndex="4294967280"/>
          <channelMap>
            <channel index="0" sourceIndex="0"/>
            <channel index="1" sourceIndex="1"/>
          </channelMap>
        </audioClip>
        <audioClip clipAutoCrossfade="true" crossFadeHeadClipID="-1" crossFadeTailClipID="-1" endPoint="14631894" fileID="34" hue="-1" id="14" lockedInTime="false" looped="false" name="Pista 2_004" offline="false" select="false" sourceInPoint="0" sourceOutPoint="18158" startPoint="14613736" zOrder="42024">
          <component componentID="Audition.Fader" id="clipGain" name="volume" powered="true">
            <parameter index="0" name="volume" parameterValue="1"/>
            <parameter index="1" name="static gain" parameterValue="1"/>
          </component>
          <component componentID="Audition.Mute" id="clipMute" name="Mute" powered="true">
            <parameter index="0" parameterValue="0"/>
            <parameter index="1" name="mute" parameterValue="0"/>
          </component>
          <component componentID="Audition.StereoPanner" id="clipPan" name="StereoPanner" powered="true">
            <parameter index="0" name="Panorámica" parameterValue="0"/>
          </component>
          <fadeIn crossFadeLinkType="linkedAsymmetric" endPoint="0" shape="0" startPoint="0" type="cosine"/>
          <fadeOut crossFadeLinkType="linkedAsymmetric" endPoint="18158" shape="0" startPoint="18158" type="cosine"/>
          <editParameter parameterIndex="0" slotIndex="4294967281"/>
          <editParameter parameterIndex="0" slotIndex="4294967280"/>
          <channelMap>
            <channel index="0" sourceIndex="0"/>
            <channel index="1" sourceIndex="1"/>
          </channelMap>
        </audioClip>
        <audioClip clipAutoCrossfade="true" crossFadeHeadClipID="-1" crossFadeTailClipID="-1" endPoint="14712154" fileID="34" hue="-1" id="15" lockedInTime="false" looped="false" name="Pista 2_004" offline="false" select="false" sourceInPoint="0" sourceOutPoint="18158" startPoint="14693996" zOrder="42030">
          <component componentID="Audition.Fader" id="clipGain" name="volume" powered="true">
            <parameter index="0" name="volume" parameterValue="1"/>
            <parameter index="1" name="static gain" parameterValue="1"/>
          </component>
          <component componentID="Audition.Mute" id="clipMute" name="Mute" powered="true">
            <parameter index="0" parameterValue="0"/>
            <parameter index="1" name="mute" parameterValue="0"/>
          </component>
          <component componentID="Audition.StereoPanner" id="clipPan" name="StereoPanner" powered="true">
            <parameter index="0" name="Panorámica" parameterValue="0"/>
          </component>
          <fadeIn crossFadeLinkType="linkedAsymmetric" endPoint="0" shape="0" startPoint="0" type="cosine"/>
          <fadeOut crossFadeLinkType="linkedAsymmetric" endPoint="18158" shape="0" startPoint="18158" type="cosine"/>
          <editParameter parameterIndex="0" slotIndex="4294967281"/>
          <editParameter parameterIndex="0" slotIndex="4294967280"/>
          <channelMap>
            <channel index="0" sourceIndex="0"/>
            <channel index="1" sourceIndex="1"/>
          </channelMap>
        </audioClip>
        <audioClip clipAutoCrossfade="true" crossFadeHeadClipID="-1" crossFadeTailClipID="-1" endPoint="14792326" fileID="34" hue="-1" id="16" lockedInTime="false" looped="false" name="Pista 2_004" offline="false" select="false" sourceInPoint="0" sourceOutPoint="18158" startPoint="14774168" zOrder="42019">
          <component componentID="Audition.Fader" id="clipGain" name="volume" powered="true">
            <parameter index="0" name="volume" parameterValue="1"/>
            <parameter index="1" name="static gain" parameterValue="1"/>
          </component>
          <component componentID="Audition.Mute" id="clipMute" name="Mute" powered="true">
            <parameter index="0" parameterValue="0"/>
            <parameter index="1" name="mute" parameterValue="0"/>
          </component>
          <component componentID="Audition.StereoPanner" id="clipPan" name="StereoPanner" powered="true">
            <parameter index="0" name="Panorámica" parameterValue="0"/>
          </component>
          <fadeIn crossFadeLinkType="linkedAsymmetric" endPoint="0" shape="0" startPoint="0" type="cosine"/>
          <fadeOut crossFadeLinkType="linkedAsymmetric" endPoint="18158" shape="0" startPoint="18158" type="cosine"/>
          <editParameter parameterIndex="0" slotIndex="4294967281"/>
          <editParameter parameterIndex="0" slotIndex="4294967280"/>
          <channelMap>
            <channel index="0" sourceIndex="0"/>
            <channel index="1" sourceIndex="1"/>
          </channelMap>
        </audioClip>
        <audioClip clipAutoCrossfade="true" crossFadeHeadClipID="-1" crossFadeTailClipID="-1" endPoint="14872491" fileID="34" hue="-1" id="17" lockedInTime="false" looped="false" name="Pista 2_004" offline="false" select="false" sourceInPoint="0" sourceOutPoint="18158" startPoint="14854333" zOrder="42020">
          <component componentID="Audition.Fader" id="clipGain" name="volume" powered="true">
            <parameter index="0" name="volume" parameterValue="1"/>
            <parameter index="1" name="static gain" parameterValue="1"/>
          </component>
          <component componentID="Audition.Mute" id="clipMute" name="Mute" powered="true">
            <parameter index="0" parameterValue="0"/>
            <parameter index="1" name="mute" parameterValue="0"/>
          </component>
          <component componentID="Audition.StereoPanner" id="clipPan" name="StereoPanner" powered="true">
            <parameter index="0" name="Panorámica" parameterValue="0"/>
          </component>
          <fadeIn crossFadeLinkType="linkedAsymmetric" endPoint="0" shape="0" startPoint="0" type="cosine"/>
          <fadeOut crossFadeLinkType="linkedAsymmetric" endPoint="18158" shape="0" startPoint="18158" type="cosine"/>
          <editParameter parameterIndex="0" slotIndex="4294967281"/>
          <editParameter parameterIndex="0" slotIndex="4294967280"/>
          <channelMap>
            <channel index="0" sourceIndex="0"/>
            <channel index="1" sourceIndex="1"/>
          </channelMap>
        </audioClip>
        <audioClip clipAutoCrossfade="true" crossFadeHeadClipID="-1" crossFadeTailClipID="-1" endPoint="14952555" fileID="34" hue="-1" id="18" lockedInTime="false" looped="false" name="Pista 2_004" offline="false" select="false" sourceInPoint="0" sourceOutPoint="18158" startPoint="14934397" zOrder="42023">
          <component componentID="Audition.Fader" id="clipGain" name="volume" powered="true">
            <parameter index="0" name="volume" parameterValue="1"/>
            <parameter index="1" name="static gain" parameterValue="1"/>
          </component>
          <component componentID="Audition.Mute" id="clipMute" name="Mute" powered="true">
            <parameter index="0" parameterValue="0"/>
            <parameter index="1" name="mute" parameterValue="0"/>
          </component>
          <component componentID="Audition.StereoPanner" id="clipPan" name="StereoPanner" powered="true">
            <parameter index="0" name="Panorámica" parameterValue="0"/>
          </component>
          <fadeIn crossFadeLinkType="linkedAsymmetric" endPoint="0" shape="0" startPoint="0" type="cosine"/>
          <fadeOut crossFadeLinkType="linkedAsymmetric" endPoint="18158" shape="0" startPoint="18158" type="cosine"/>
          <editParameter parameterIndex="0" slotIndex="4294967281"/>
          <editParameter parameterIndex="0" slotIndex="4294967280"/>
          <channelMap>
            <channel index="0" sourceIndex="0"/>
            <channel index="1" sourceIndex="1"/>
          </channelMap>
        </audioClip>
        <audioClip clipAutoCrossfade="true" crossFadeHeadClipID="-1" crossFadeTailClipID="-1" endPoint="15032727" fileID="34" hue="-1" id="19" lockedInTime="false" looped="false" name="Pista 2_004" offline="false" select="false" sourceInPoint="0" sourceOutPoint="18158" startPoint="15014569" zOrder="42021">
          <component componentID="Audition.Fader" id="clipGain" name="volume" powered="true">
            <parameter index="0" name="volume" parameterValue="1"/>
            <parameter index="1" name="static gain" parameterValue="1"/>
          </component>
          <component componentID="Audition.Mute" id="clipMute" name="Mute" powered="true">
            <parameter index="0" parameterValue="0"/>
            <parameter index="1" name="mute" parameterValue="0"/>
          </component>
          <component componentID="Audition.StereoPanner" id="clipPan" name="StereoPanner" powered="true">
            <parameter index="0" name="Panorámica" parameterValue="0"/>
          </component>
          <fadeIn crossFadeLinkType="linkedAsymmetric" endPoint="0" shape="0" startPoint="0" type="cosine"/>
          <fadeOut crossFadeLinkType="linkedAsymmetric" endPoint="18158" shape="0" startPoint="18158" type="cosine"/>
          <editParameter parameterIndex="0" slotIndex="4294967281"/>
          <editParameter parameterIndex="0" slotIndex="4294967280"/>
          <channelMap>
            <channel index="0" sourceIndex="0"/>
            <channel index="1" sourceIndex="1"/>
          </channelMap>
        </audioClip>
        <audioClip clipAutoCrossfade="true" crossFadeHeadClipID="-1" crossFadeTailClipID="-1" endPoint="15112892" fileID="34" hue="-1" id="20" lockedInTime="false" looped="false" name="Pista 2_004" offline="false" select="false" sourceInPoint="0" sourceOutPoint="18158" startPoint="15094734" zOrder="42022">
          <component componentID="Audition.Fader" id="clipGain" name="volume" powered="true">
            <parameter index="0" name="volume" parameterValue="1"/>
            <parameter index="1" name="static gain" parameterValue="1"/>
          </component>
          <component componentID="Audition.Mute" id="clipMute" name="Mute" powered="true">
            <parameter index="0" parameterValue="0"/>
            <parameter index="1" name="mute" parameterValue="0"/>
          </component>
          <component componentID="Audition.StereoPanner" id="clipPan" name="StereoPanner" powered="true">
            <parameter index="0" name="Panorámica" parameterValue="0"/>
          </component>
          <fadeIn crossFadeLinkType="linkedAsymmetric" endPoint="0" shape="0" startPoint="0" type="cosine"/>
          <fadeOut crossFadeLinkType="linkedAsymmetric" endPoint="18158" shape="0" startPoint="18158" type="cosine"/>
          <editParameter parameterIndex="0" slotIndex="4294967281"/>
          <editParameter parameterIndex="0" slotIndex="4294967280"/>
          <channelMap>
            <channel index="0" sourceIndex="0"/>
            <channel index="1" sourceIndex="1"/>
          </channelMap>
        </audioClip>
        <audioClip clipAutoCrossfade="true" crossFadeHeadClipID="-1" crossFadeTailClipID="-1" endPoint="15193263" fileID="34" hue="-1" id="21" lockedInTime="false" looped="false" name="Pista 2_004" offline="false" select="false" sourceInPoint="0" sourceOutPoint="18158" startPoint="15175105" zOrder="42035">
          <component componentID="Audition.Fader" id="clipGain" name="volume" powered="true">
            <parameter index="0" name="volume" parameterValue="1"/>
            <parameter index="1" name="static gain" parameterValue="1"/>
          </component>
          <component componentID="Audition.Mute" id="clipMute" name="Mute" powered="true">
            <parameter index="0" parameterValue="0"/>
            <parameter index="1" name="mute" parameterValue="0"/>
          </component>
          <component componentID="Audition.StereoPanner" id="clipPan" name="StereoPanner" powered="true">
            <parameter index="0" name="Panorámica" parameterValue="0"/>
          </component>
          <fadeIn crossFadeLinkType="linkedAsymmetric" endPoint="0" shape="0" startPoint="0" type="cosine"/>
          <fadeOut crossFadeLinkType="linkedAsymmetric" endPoint="18158" shape="0" startPoint="18158" type="cosine"/>
          <editParameter parameterIndex="0" slotIndex="4294967281"/>
          <editParameter parameterIndex="0" slotIndex="4294967280"/>
          <channelMap>
            <channel index="0" sourceIndex="0"/>
            <channel index="1" sourceIndex="1"/>
          </channelMap>
        </audioClip>
        <audioClip clipAutoCrossfade="true" crossFadeHeadClipID="-1" crossFadeTailClipID="-1" endPoint="15273428" fileID="34" hue="-1" id="22" lockedInTime="false" looped="false" name="Pista 2_004" offline="false" select="false" sourceInPoint="0" sourceOutPoint="18158" startPoint="15255270" zOrder="42029">
          <component componentID="Audition.Fader" id="clipGain" name="volume" powered="true">
            <parameter index="0" name="volume" parameterValue="1"/>
            <parameter index="1" name="static gain" parameterValue="1"/>
          </component>
          <component componentID="Audition.Mute" id="clipMute" name="Mute" powered="true">
            <parameter index="0" parameterValue="0"/>
            <parameter index="1" name="mute" parameterValue="0"/>
          </component>
          <component componentID="Audition.StereoPanner" id="clipPan" name="StereoPanner" powered="true">
            <parameter index="0" name="Panorámica" parameterValue="0"/>
          </component>
          <fadeIn crossFadeLinkType="linkedAsymmetric" endPoint="0" shape="0" startPoint="0" type="cosine"/>
          <fadeOut crossFadeLinkType="linkedAsymmetric" endPoint="18158" shape="0" startPoint="18158" type="cosine"/>
          <editParameter parameterIndex="0" slotIndex="4294967281"/>
          <editParameter parameterIndex="0" slotIndex="4294967280"/>
          <channelMap>
            <channel index="0" sourceIndex="0"/>
            <channel index="1" sourceIndex="1"/>
          </channelMap>
        </audioClip>
        <audioClip clipAutoCrossfade="true" crossFadeHeadClipID="-1" crossFadeTailClipID="-1" endPoint="15353688" fileID="34" hue="-1" id="23" lockedInTime="false" looped="false" name="Pista 2_004" offline="false" select="false" sourceInPoint="0" sourceOutPoint="18158" startPoint="15335530" zOrder="42026">
          <component componentID="Audition.Fader" id="clipGain" name="volume" powered="true">
            <parameter index="0" name="volume" parameterValue="1"/>
            <parameter index="1" name="static gain" parameterValue="1"/>
          </component>
          <component componentID="Audition.Mute" id="clipMute" name="Mute" powered="true">
            <parameter index="0" parameterValue="0"/>
            <parameter index="1" name="mute" parameterValue="0"/>
          </component>
          <component componentID="Audition.StereoPanner" id="clipPan" name="StereoPanner" powered="true">
            <parameter index="0" name="Panorámica" parameterValue="0"/>
          </component>
          <fadeIn crossFadeLinkType="linkedAsymmetric" endPoint="0" shape="0" startPoint="0" type="cosine"/>
          <fadeOut crossFadeLinkType="linkedAsymmetric" endPoint="18158" shape="0" startPoint="18158" type="cosine"/>
          <editParameter parameterIndex="0" slotIndex="4294967281"/>
          <editParameter parameterIndex="0" slotIndex="4294967280"/>
          <channelMap>
            <channel index="0" sourceIndex="0"/>
            <channel index="1" sourceIndex="1"/>
          </channelMap>
        </audioClip>
        <audioClip clipAutoCrossfade="true" crossFadeHeadClipID="-1" crossFadeTailClipID="-1" endPoint="15433860" fileID="34" hue="-1" id="24" lockedInTime="false" looped="false" name="Pista 2_004" offline="false" select="false" sourceInPoint="0" sourceOutPoint="18158" startPoint="15415702" zOrder="42033">
          <component componentID="Audition.Fader" id="clipGain" name="volume" powered="true">
            <parameter index="0" name="volume" parameterValue="1"/>
            <parameter index="1" name="static gain" parameterValue="1"/>
          </component>
          <component componentID="Audition.Mute" id="clipMute" name="Mute" powered="true">
            <parameter index="0" parameterValue="0"/>
            <parameter index="1" name="mute" parameterValue="0"/>
          </component>
          <component componentID="Audition.StereoPanner" id="clipPan" name="StereoPanner" powered="true">
            <parameter index="0" name="Panorámica" parameterValue="0"/>
          </component>
          <fadeIn crossFadeLinkType="linkedAsymmetric" endPoint="0" shape="0" startPoint="0" type="cosine"/>
          <fadeOut crossFadeLinkType="linkedAsymmetric" endPoint="18158" shape="0" startPoint="18158" type="cosine"/>
          <editParameter parameterIndex="0" slotIndex="4294967281"/>
          <editParameter parameterIndex="0" slotIndex="4294967280"/>
          <channelMap>
            <channel index="0" sourceIndex="0"/>
            <channel index="1" sourceIndex="1"/>
          </channelMap>
        </audioClip>
        <audioClip clipAutoCrossfade="true" crossFadeHeadClipID="-1" crossFadeTailClipID="-1" endPoint="15514025" fileID="34" hue="-1" id="25" lockedInTime="false" looped="false" name="Pista 2_004" offline="false" select="false" sourceInPoint="0" sourceOutPoint="18158" startPoint="15495867" zOrder="42027">
          <component componentID="Audition.Fader" id="clipGain" name="volume" powered="true">
            <parameter index="0" name="volume" parameterValue="1"/>
            <parameter index="1" name="static gain" parameterValue="1"/>
          </component>
          <component componentID="Audition.Mute" id="clipMute" name="Mute" powered="true">
            <parameter index="0" parameterValue="0"/>
            <parameter index="1" name="mute" parameterValue="0"/>
          </component>
          <component componentID="Audition.StereoPanner" id="clipPan" name="StereoPanner" powered="true">
            <parameter index="0" name="Panorámica" parameterValue="0"/>
          </component>
          <fadeIn crossFadeLinkType="linkedAsymmetric" endPoint="0" shape="0" startPoint="0" type="cosine"/>
          <fadeOut crossFadeLinkType="linkedAsymmetric" endPoint="18158" shape="0" startPoint="18158" type="cosine"/>
          <editParameter parameterIndex="0" slotIndex="4294967281"/>
          <editParameter parameterIndex="0" slotIndex="4294967280"/>
          <channelMap>
            <channel index="0" sourceIndex="0"/>
            <channel index="1" sourceIndex="1"/>
          </channelMap>
        </audioClip>
        <audioClip clipAutoCrossfade="true" crossFadeHeadClipID="-1" crossFadeTailClipID="-1" endPoint="15594089" fileID="34" hue="-1" id="26" lockedInTime="false" looped="false" name="Pista 2_004" offline="false" select="false" sourceInPoint="0" sourceOutPoint="18158" startPoint="15575931" zOrder="42028">
          <component componentID="Audition.Fader" id="clipGain" name="volume" powered="true">
            <parameter index="0" name="volume" parameterValue="1"/>
            <parameter index="1" name="static gain" parameterValue="1"/>
          </component>
          <component componentID="Audition.Mute" id="clipMute" name="Mute" powered="true">
            <parameter index="0" parameterValue="0"/>
            <parameter index="1" name="mute" parameterValue="0"/>
          </component>
          <component componentID="Audition.StereoPanner" id="clipPan" name="StereoPanner" powered="true">
            <parameter index="0" name="Panorámica" parameterValue="0"/>
          </component>
          <fadeIn crossFadeLinkType="linkedAsymmetric" endPoint="0" shape="0" startPoint="0" type="cosine"/>
          <fadeOut crossFadeLinkType="linkedAsymmetric" endPoint="18158" shape="0" startPoint="18158" type="cosine"/>
          <editParameter parameterIndex="0" slotIndex="4294967281"/>
          <editParameter parameterIndex="0" slotIndex="4294967280"/>
          <channelMap>
            <channel index="0" sourceIndex="0"/>
            <channel index="1" sourceIndex="1"/>
          </channelMap>
        </audioClip>
        <audioClip clipAutoCrossfade="true" crossFadeHeadClipID="-1" crossFadeTailClipID="-1" endPoint="15674261" fileID="34" hue="-1" id="27" lockedInTime="false" looped="false" name="Pista 2_004" offline="false" select="false" sourceInPoint="0" sourceOutPoint="18158" startPoint="15656103" zOrder="42032">
          <component componentID="Audition.Fader" id="clipGain" name="volume" powered="true">
            <parameter index="0" name="volume" parameterValue="1.687857"/>
            <parameter index="1" name="static gain" parameterValue="1"/>
          </component>
          <component componentID="Audition.Mute" id="clipMute" name="Mute" powered="true">
            <parameter index="0" parameterValue="0"/>
            <parameter index="1" name="mute" parameterValue="0"/>
          </component>
          <component componentID="Audition.StereoPanner" id="clipPan" name="StereoPanner" powered="true">
            <parameter index="0" name="Panorámica" parameterValue="0"/>
          </component>
          <fadeIn crossFadeLinkType="linkedAsymmetric" endPoint="0" shape="18" startPoint="0" type="log"/>
          <fadeOut crossFadeLinkType="linkedAsymmetric" endPoint="18158" shape="0" startPoint="18158" type="cosine"/>
          <editParameter parameterIndex="0" slotIndex="4294967281"/>
          <editParameter parameterIndex="0" slotIndex="4294967280"/>
          <channelMap>
            <channel index="0" sourceIndex="0"/>
            <channel index="1" sourceIndex="1"/>
          </channelMap>
        </audioClip>
      </audioTrack>
      <audioTrack automationLaneOpenState="false" id="10012" index="7" select="false" visible="true">
        <trackParameters trackHeight="129">
          <name>BAJO</name>
        </trackParameters>
        <trackAudioParameters audioChannelType="stereo" automationMode="1" monitoring="false" recordArmed="false" solo="false" soloSafe="false">
          <trackOutput outputID="10000" type="trackID"/>
          <trackInput inputID="1"/>
          <component componentID="Audition.Fader" id="trackFader" name="volume" powered="true">
            <parameter index="0" name="volume" parameterValue="1"/>
            <parameter index="1" name="static gain" parameterValue="1"/>
          </component>
          <component componentID="Audition.Mute" id="trackMute" name="Mute" powered="true">
            <parameter index="0" parameterValue="0"/>
            <parameter index="1" name="mute" parameterValue="0"/>
          </component>
          <component componentID="Audition.StereoPanner" id="trackPan" name="StereoPanner" powered="true">
            <parameter index="0" name="Panorámica" parameterValue="0"/>
          </component>
          <component componentID="Audition.EQ" id="trackEQ" name="EQ" powered="false">
            <parameter index="0" name="Frecuencia estante inferior" parameterValue="0.0009079"/>
            <parameter index="1" name="Ganancia estante inferior" parameterValue="0.5"/>
            <parameter index="2" name="Frecuencia estante superior" parameterValue="0.8161598"/>
            <parameter index="3" name="Ganancia estante superior" parameterValue="0.5"/>
            <parameter index="4" name="Frecuencia central de banda de EC 1" parameterValue="0.0013618"/>
            <parameter index="5" name="Valor Q de banda de EC 1" parameterValue="0.0002"/>
            <parameter index="6" name="Ganancia de banda de EC 1" parameterValue="0.5"/>
            <parameter index="7" name="Activación de banda de EC 1" parameterValue="1"/>
            <parameter index="8" name="Frecuencia central de banda de EC 2" parameterValue="0.0081707"/>
            <parameter index="9" name="Valor Q de banda de EC 2" parameterValue="0.0002"/>
            <parameter index="10" name="Ganancia de banda de EC 2" parameterValue="0.5"/>
            <parameter index="11" name="Activación de banda de EC 2" parameterValue="1"/>
            <parameter index="12" name="Frecuencia central de banda de EC 3" parameterValue="0.0354063"/>
            <parameter index="13" name="Valor Q de banda de EC 3" parameterValue="0.0002"/>
            <parameter index="14" name="Ganancia de banda de EC 3" parameterValue="0.5"/>
            <parameter index="15" name="Activación de banda de EC 3" parameterValue="1"/>
            <parameter index="16" name="Frecuencia central de banda de EC 4" parameterValue="0.1443486"/>
            <parameter index="17" name="Valor Q de banda de EC 4" parameterValue="0.0002"/>
            <parameter index="18" name="Ganancia de banda de EC 4" parameterValue="0.5"/>
            <parameter index="19" name="Activación de banda de EC 4" parameterValue="1"/>
            <parameter index="20" name="Frecuencia central de banda de EC 5" parameterValue="0.580118"/>
            <parameter index="21" name="Valor Q de banda de EC 5" parameterValue="0.0002"/>
            <parameter index="22" name="Ganancia de banda de EC 5" parameterValue="0.5"/>
            <parameter index="23" name="Activación de banda de EC 5" parameterValue="1"/>
            <parameter index="24" name="Ganancia maestra" parameterValue="0.6666667"/>
            <parameter index="25" name="Constant Q" parameterValue="1"/>
            <parameter index="26" name="Orden de filtro de estante inferior" parameterValue="0"/>
            <parameter index="27" name="Orden de filtro de estante superior" parameterValue="0"/>
            <parameter index="28" name="Modo ultrasilencioso" parameterValue="0"/>
            <parameter index="29" name="Activar estante inferior" parameterValue="1"/>
            <parameter index="30" name="Activar estante superior" parameterValue="1"/>
            <parameter index="31" name="Velocidad de muestreo original" parameterValue="0.2296875"/>
            <parameter index="32" name="Ancho de banda de EC 1" parameterValue="0.0025"/>
            <parameter index="33" name="Ancho de banda de EC 2" parameterValue="0.01"/>
            <parameter index="34" name="Ancho de banda de EC 3" parameterValue="0.04"/>
            <parameter index="35" name="Ancho de banda de EC 4" parameterValue="0.16"/>
            <parameter index="36" name="Ancho de banda de EC 5" parameterValue="0.64"/>
            <parameter index="37" name="Activación de filtro de pase alto" parameterValue="0"/>
            <parameter index="38" name="Frecuencia de límite de paso alto" parameterValue="0"/>
            <parameter index="39" name="Pendiente de paso alto" parameterValue="4"/>
            <parameter index="40" name="Activación de filtro de pase bajo" parameterValue="0"/>
            <parameter index="41" name="Frecuencia de límite de paso bajo" parameterValue="0.906945"/>
            <parameter index="42" name="Pendiente de paso bajo" parameterValue="4"/>
            <parameter index="43" name="Omitir" parameterValue="0"/>
            <parameter index="44" name="Rango de gráfico bajo" parameterValue="1"/>
          </component>
        </trackAudioParameters>
        <editParameter parameterIndex="0" slotIndex="4294967280"/>
        <sendList>
          <sendSlot preFader="false" sendOutputID="0" slotIndex="0">
            <component id="sendComponent" powered="false">
              <parameter index="0" name="Encendido/Apagado" parameterValue="0"/>
              <parameter index="1" name="Nivel" parameterValue="0"/>
            </component>
            <component id="sendPan" powered="true"/>
          </sendSlot>
          <sendSlot preFader="false" sendOutputID="0" slotIndex="1">
            <component id="sendComponent" powered="false">
              <parameter index="0" name="Encendido/Apagado" parameterValue="0"/>
              <parameter index="1" name="Nivel" parameterValue="0"/>
            </component>
            <component id="sendPan" powered="true"/>
          </sendSlot>
          <sendSlot preFader="false" sendOutputID="0" slotIndex="2">
            <component id="sendComponent" powered="false">
              <parameter index="0" name="Encendido/Apagado" parameterValue="0"/>
              <parameter index="1" name="Nivel" parameterValue="0"/>
            </component>
            <component id="sendPan" powered="true"/>
          </sendSlot>
          <sendSlot preFader="false" sendOutputID="0" slotIndex="3">
            <component id="sendComponent" powered="false">
              <parameter index="0" name="Encendido/Apagado" parameterValue="0"/>
              <parameter index="1" name="Nivel" parameterValue="0"/>
            </component>
            <component id="sendPan" powered="true"/>
          </sendSlot>
          <sendSlot preFader="false" sendOutputID="0" slotIndex="4">
            <component id="sendComponent" powered="false">
              <parameter index="0" name="Encendido/Apagado" parameterValue="0"/>
              <parameter index="1" name="Nivel" parameterValue="0"/>
            </component>
            <component id="sendPan" powered="true"/>
          </sendSlot>
          <sendSlot preFader="false" sendOutputID="0" slotIndex="5">
            <component id="sendComponent" powered="false">
              <parameter index="0" name="Encendido/Apagado" parameterValue="0"/>
              <parameter index="1" name="Nivel" parameterValue="0"/>
            </component>
            <component id="sendPan" powered="true"/>
          </sendSlot>
          <sendSlot preFader="false" sendOutputID="0" slotIndex="6">
            <component id="sendComponent" powered="false">
              <parameter index="0" name="Encendido/Apagado" parameterValue="0"/>
              <parameter index="1" name="Nivel" parameterValue="0"/>
            </component>
            <component id="sendPan" powered="true"/>
          </sendSlot>
          <sendSlot preFader="false" sendOutputID="0" slotIndex="7">
            <component id="sendComponent" powered="false">
              <parameter index="0" name="Encendido/Apagado" parameterValue="0"/>
              <parameter index="1" name="Nivel" parameterValue="0"/>
            </component>
            <component id="sendPan" powered="true"/>
          </sendSlot>
          <sendSlot preFader="false" sendOutputID="0" slotIndex="8">
            <component id="sendComponent" powered="false">
              <parameter index="0" name="Encendido/Apagado" parameterValue="0"/>
              <parameter index="1" name="Nivel" parameterValue="0"/>
            </component>
            <component id="sendPan" powered="true"/>
          </sendSlot>
          <sendSlot preFader="false" sendOutputID="0" slotIndex="9">
            <component id="sendComponent" powered="false">
              <parameter index="0" name="Encendido/Apagado" parameterValue="0"/>
              <parameter index="1" name="Nivel" parameterValue="0"/>
            </component>
            <component id="sendPan" powered="true"/>
          </sendSlot>
          <sendSlot preFader="false" sendOutputID="0" slotIndex="10">
            <component id="sendComponent" powered="false">
              <parameter index="0" name="Encendido/Apagado" parameterValue="0"/>
              <parameter index="1" name="Nivel" parameterValue="0"/>
            </component>
            <component id="sendPan" powered="true"/>
          </sendSlot>
          <sendSlot preFader="false" sendOutputID="0" slotIndex="11">
            <component id="sendComponent" powered="false">
              <parameter index="0" name="Encendido/Apagado" parameterValue="0"/>
              <parameter index="1" name="Nivel" parameterValue="0"/>
            </component>
            <component id="sendPan" powered="true"/>
          </sendSlot>
          <sendSlot preFader="false" sendOutputID="0" slotIndex="12">
            <component id="sendComponent" powered="false">
              <parameter index="0" name="Encendido/Apagado" parameterValue="0"/>
              <parameter index="1" name="Nivel" parameterValue="0"/>
            </component>
            <component id="sendPan" powered="true"/>
          </sendSlot>
          <sendSlot preFader="false" sendOutputID="0" slotIndex="13">
            <component id="sendComponent" powered="false">
              <parameter index="0" name="Encendido/Apagado" parameterValue="0"/>
              <parameter index="1" name="Nivel" parameterValue="0"/>
            </component>
            <component id="sendPan" powered="true"/>
          </sendSlot>
          <sendSlot preFader="false" sendOutputID="0" slotIndex="14">
            <component id="sendComponent" powered="false">
              <parameter index="0" name="Encendido/Apagado" parameterValue="0"/>
              <parameter index="1" name="Nivel" parameterValue="0"/>
            </component>
            <component id="sendPan" powered="true"/>
          </sendSlot>
          <sendSlot preFader="false" sendOutputID="0" slotIndex="15">
            <component id="sendComponent" powered="false">
              <parameter index="0" name="Encendido/Apagado" parameterValue="0"/>
              <parameter index="1" name="Nivel" parameterValue="0"/>
            </component>
            <component id="sendPan" powered="true"/>
          </sendSlot>
        </sendList>
        <audioClip clipAutoCrossfade="true" crossFadeHeadClipID="-1" crossFadeTailClipID="-1" endPoint="595962" fileID="35" hue="-1" id="0" lockedInTime="false" looped="false" name="dark horse acapella_bajo_intro" offline="false" select="false" sourceInPoint="0" sourceOutPoint="562005" startPoint="33957" zOrder="44613">
          <component componentID="Audition.Fader" id="clipGain" name="volume" powered="true">
            <parameter index="0" name="volume" parameterValue="0.5378044">
              <parameterKeyframes enableSplines="true">
                <parameterKeyframe sampleOffset="22480" select="true" type="linear" value="0.4431738"/>
                <parameterKeyframe sampleOffset="35689" select="false" type="linear" value="0.6102738"/>
                <parameterKeyframe sampleOffset="71379" select="false" type="linear" value="0.6025692"/>
                <parameterKeyframe sampleOffset="109712" select="false" type="linear" value="0.5145593"/>
                <parameterKeyframe sampleOffset="152010" select="false" type="linear" value="0.594664"/>
                <parameterKeyframe sampleOffset="191665" select="false" type="linear" value="0.6262846"/>
                <parameterKeyframe sampleOffset="198274" select="false" type="linear" value="0.4194583"/>
                <parameterKeyframe sampleOffset="278905" select="false" type="linear" value="0.4131229"/>
                <parameterKeyframe sampleOffset="284193" select="false" type="linear" value="0.6025692"/>
                <parameterKeyframe sampleOffset="315916" select="false" type="linear" value="0.6104743"/>
                <parameterKeyframe sampleOffset="319882" select="false" type="linear" value="0.4124243"/>
                <parameterKeyframe sampleOffset="433559" select="false" type="linear" value="0.4351907"/>
                <parameterKeyframe sampleOffset="440168" select="false" type="linear" value="0.5986166"/>
                <parameterKeyframe sampleOffset="511547" select="false" type="linear" value="0.6104743"/>
                <parameterKeyframe sampleOffset="511548" select="false" type="linear" value="0.4694494"/>
              </parameterKeyframes>
            </parameter>
            <parameter index="1" name="static gain" parameterValue="1"/>
          </component>
          <component componentID="Audition.Mute" id="clipMute" name="Mute" powered="true">
            <parameter index="0" parameterValue="0"/>
            <parameter index="1" name="mute" parameterValue="0"/>
          </component>
          <component componentID="Audition.StereoPanner" id="clipPan" name="StereoPanner" powered="true">
            <parameter index="0" name="Panorámica" parameterValue="31.1743011"/>
          </component>
          <fadeIn crossFadeLinkType="linkedAsymmetric" endPoint="0" shape="19" startPoint="0" type="log"/>
          <fadeOut crossFadeLinkType="linkedAsymmetric" endPoint="562005" shape="19" startPoint="562005" type="log"/>
          <editParameter parameterIndex="0" slotIndex="4294967281"/>
          <editParameter parameterIndex="0" slotIndex="4294967280"/>
          <channelMap>
            <channel index="0" sourceIndex="0"/>
            <channel index="1" sourceIndex="1"/>
          </channelMap>
        </audioClip>
        <audioClip clipAutoCrossfade="true" crossFadeHeadClipID="-1" crossFadeTailClipID="-1" endPoint="1958827" fileID="36" hue="-1" id="1" lockedInTime="false" looped="false" name="dark horse acapella_bajo_primera_estrofa" offline="false" select="false" sourceInPoint="0" sourceOutPoint="1284229" startPoint="674598" zOrder="44994">
          <component componentID="Audition.Fader" id="clipGain" name="volume" powered="true">
            <parameter index="0" name="volume" parameterValue="0.7698945"/>
            <parameter index="1" name="static gain" parameterValue="1"/>
          </component>
          <component componentID="Audition.Mute" id="clipMute" name="Mute" powered="true">
            <parameter index="0" parameterValue="0"/>
            <parameter index="1" name="mute" parameterValue="0"/>
          </component>
          <component componentID="Audition.StereoPanner" id="clipPan" name="StereoPanner" powered="true">
            <parameter index="0" name="Panorámica" parameterValue="45.1821327"/>
          </component>
          <fadeIn crossFadeLinkType="linkedAsymmetric" endPoint="0" shape="18" startPoint="0" type="log"/>
          <fadeOut crossFadeLinkType="linkedAsymmetric" endPoint="1284229" shape="19" startPoint="1284229" type="log"/>
          <editParameter parameterIndex="0" slotIndex="4294967280"/>
          <editParameter parameterIndex="0" slotIndex="4294967281"/>
          <channelMap>
            <channel index="0" sourceIndex="0"/>
            <channel index="1" sourceIndex="1"/>
          </channelMap>
        </audioClip>
        <audioClip clipAutoCrossfade="true" crossFadeHeadClipID="-1" crossFadeTailClipID="-1" endPoint="2600999" fileID="35" hue="-1" id="2" lockedInTime="false" looped="false" name="dark horse acapella_bajo_intro" offline="false" select="false" sourceInPoint="0" sourceOutPoint="642172" startPoint="1958827" zOrder="44617">
          <component componentID="Audition.Fader" id="clipGain" name="volume" powered="true">
            <parameter index="0" name="volume" parameterValue="0">
              <parameterKeyframes enableSplines="true">
                <parameterKeyframe sampleOffset="511936" select="false" type="linear" value="0.5171775"/>
                <parameterKeyframe sampleOffset="596873" select="false" type="linear" value="0.445235"/>
              </parameterKeyframes>
            </parameter>
            <parameter index="1" name="static gain" parameterValue="1"/>
          </component>
          <component componentID="Audition.Mute" id="clipMute" name="Mute" powered="true">
            <parameter index="0" parameterValue="0"/>
            <parameter index="1" name="mute" parameterValue="0"/>
          </component>
          <component componentID="Audition.StereoPanner" id="clipPan" name="StereoPanner" powered="true">
            <parameter index="0" name="Panorámica" parameterValue="15.9200668">
              <parameterKeyframes enableSplines="false">
                <parameterKeyframe sampleOffset="308335" select="false" type="linear" value="0.4203997"/>
              </parameterKeyframes>
            </parameter>
          </component>
          <fadeIn crossFadeLinkType="linkedAsymmetric" endPoint="0" shape="19" startPoint="0" type="log"/>
          <fadeOut crossFadeLinkType="linkedAsymmetric" endPoint="642172" shape="19" startPoint="642172" type="log"/>
          <editParameter parameterIndex="0" slotIndex="4294967281"/>
          <editParameter parameterIndex="0" slotIndex="4294967280"/>
          <channelMap>
            <channel index="0" sourceIndex="0"/>
            <channel index="1" sourceIndex="1"/>
          </channelMap>
        </audioClip>
        <audioClip clipAutoCrossfade="true" crossFadeHeadClipID="-1" crossFadeTailClipID="-1" endPoint="3153904" fileID="35" hue="-1" id="3" lockedInTime="false" looped="false" name="dark horse acapella_bajo_intro" offline="false" select="false" sourceInPoint="0" sourceOutPoint="552905" startPoint="2600999" zOrder="44615">
          <component componentID="Audition.Fader" id="clipGain" name="volume" powered="true">
            <parameter index="0" name="volume" parameterValue="0.4378349"/>
            <parameter index="1" name="static gain" parameterValue="1"/>
          </component>
          <component componentID="Audition.Mute" id="clipMute" name="Mute" powered="true">
            <parameter index="0" parameterValue="0"/>
            <parameter index="1" name="mute" parameterValue="0"/>
          </component>
          <component componentID="Audition.StereoPanner" id="clipPan" name="StereoPanner" powered="true">
            <parameter index="0" name="Panorámica" parameterValue="31.1743011">
              <parameterKeyframes enableSplines="false">
                <parameterKeyframe sampleOffset="81310" select="false" type="linear" value="0.3441285"/>
              </parameterKeyframes>
            </parameter>
          </component>
          <fadeIn crossFadeLinkType="linkedAsymmetric" endPoint="0" shape="19" startPoint="0" type="log"/>
          <fadeOut crossFadeLinkType="linkedAsymmetric" endPoint="552905" shape="19" startPoint="552905" type="log"/>
          <editParameter parameterIndex="0" slotIndex="4294967281"/>
          <editParameter parameterIndex="0" slotIndex="4294967280"/>
          <channelMap>
            <channel index="0" sourceIndex="0"/>
            <channel index="1" sourceIndex="1"/>
          </channelMap>
        </audioClip>
        <audioClip clipAutoCrossfade="true" crossFadeHeadClipID="-1" crossFadeTailClipID="-1" endPoint="3546830" fileID="36" hue="-1" id="4" lockedInTime="false" looped="false" name="dark horse acapella_bajo_primera_estrofa" offline="false" select="false" sourceInPoint="320527" sourceOutPoint="627229" startPoint="3240128" zOrder="44579">
          <component componentID="Audition.Fader" id="clipGain" name="volume" powered="true">
            <parameter index="0" name="volume" parameterValue="0.7698945"/>
            <parameter index="1" name="static gain" parameterValue="1"/>
          </component>
          <component componentID="Audition.Mute" id="clipMute" name="Mute" powered="true">
            <parameter index="0" parameterValue="0"/>
            <parameter index="1" name="mute" parameterValue="0"/>
          </component>
          <component componentID="Audition.StereoPanner" id="clipPan" name="StereoPanner" powered="true">
            <parameter index="0" name="Panorámica" parameterValue="45.1821327">
              <parameterKeyframes enableSplines="false">
                <parameterKeyframe sampleOffset="381867" select="false" type="linear" value="0.2740893"/>
              </parameterKeyframes>
            </parameter>
          </component>
          <fadeIn crossFadeLinkType="linkedAsymmetric" endPoint="0" shape="18" startPoint="0" type="log"/>
          <fadeOut crossFadeLinkType="linkedAsymmetric" endPoint="306702" shape="19" startPoint="306702" type="log"/>
          <editParameter parameterIndex="0" slotIndex="4294967280"/>
          <editParameter parameterIndex="0" slotIndex="4294967281"/>
          <channelMap>
            <channel index="0" sourceIndex="0"/>
            <channel index="1" sourceIndex="1"/>
          </channelMap>
        </audioClip>
        <audioClip clipAutoCrossfade="true" crossFadeHeadClipID="-1" crossFadeTailClipID="-1" endPoint="4845089" fileID="36" hue="-1" id="5" lockedInTime="false" looped="false" name="dark horse acapella_bajo_primera_estrofa" offline="false" select="false" sourceInPoint="0" sourceOutPoint="1284229" startPoint="3560860" zOrder="44572">
          <component componentID="Audition.Fader" id="clipGain" name="volume" powered="true">
            <parameter index="0" name="volume" parameterValue="0.7698945"/>
            <parameter index="1" name="static gain" parameterValue="1"/>
          </component>
          <component componentID="Audition.Mute" id="clipMute" name="Mute" powered="true">
            <parameter index="0" parameterValue="0"/>
            <parameter index="1" name="mute" parameterValue="0"/>
          </component>
          <component componentID="Audition.StereoPanner" id="clipPan" name="StereoPanner" powered="true">
            <parameter index="0" name="Panorámica" parameterValue="45.1821327"/>
          </component>
          <fadeIn crossFadeLinkType="linkedAsymmetric" endPoint="0" shape="18" startPoint="0" type="log"/>
          <fadeOut crossFadeLinkType="linkedAsymmetric" endPoint="1284229" shape="19" startPoint="1284229" type="log"/>
          <editParameter parameterIndex="0" slotIndex="4294967280"/>
          <editParameter parameterIndex="0" slotIndex="4294967281"/>
          <channelMap>
            <channel index="0" sourceIndex="0"/>
            <channel index="1" sourceIndex="1"/>
          </channelMap>
        </audioClip>
        <audioClip clipAutoCrossfade="true" crossFadeHeadClipID="-1" crossFadeTailClipID="-1" endPoint="5487261" fileID="35" hue="-1" id="6" lockedInTime="false" looped="false" name="dark horse acapella_bajo_intro" offline="false" select="false" sourceInPoint="0" sourceOutPoint="642172" startPoint="4845089" zOrder="45919">
          <component componentID="Audition.Fader" id="clipGain" name="volume" powered="true">
            <parameter index="0" name="volume" parameterValue="0">
              <parameterKeyframes enableSplines="true">
                <parameterKeyframe sampleOffset="508305" select="false" type="linear" value="0.5399048"/>
                <parameterKeyframe sampleOffset="596873" select="false" type="linear" value="0.445235"/>
              </parameterKeyframes>
            </parameter>
            <parameter index="1" name="static gain" parameterValue="1"/>
          </component>
          <component componentID="Audition.Mute" id="clipMute" name="Mute" powered="true">
            <parameter index="0" parameterValue="0"/>
            <parameter index="1" name="mute" parameterValue="0"/>
          </component>
          <component componentID="Audition.StereoPanner" id="clipPan" name="StereoPanner" powered="true">
            <parameter index="0" name="Panorámica" parameterValue="15.9200668">
              <parameterKeyframes enableSplines="false">
                <parameterKeyframe sampleOffset="308335" select="false" type="linear" value="0.4203997"/>
              </parameterKeyframes>
            </parameter>
          </component>
          <fadeIn crossFadeLinkType="linkedAsymmetric" endPoint="0" shape="19" startPoint="0" type="log"/>
          <fadeOut crossFadeLinkType="linkedAsymmetric" endPoint="642172" shape="19" startPoint="642172" type="log"/>
          <editParameter parameterIndex="0" slotIndex="4294967281"/>
          <editParameter parameterIndex="0" slotIndex="4294967280"/>
          <channelMap>
            <channel index="0" sourceIndex="0"/>
            <channel index="1" sourceIndex="1"/>
          </channelMap>
        </audioClip>
        <audioClip clipAutoCrossfade="true" crossFadeHeadClipID="-1" crossFadeTailClipID="-1" endPoint="6040166" fileID="35" hue="-1" id="7" lockedInTime="false" looped="false" name="dark horse acapella_bajo_intro" offline="false" select="false" sourceInPoint="0" sourceOutPoint="552905" startPoint="5487261" zOrder="45921">
          <component componentID="Audition.Fader" id="clipGain" name="volume" powered="true">
            <parameter index="0" name="volume" parameterValue="0.4378349"/>
            <parameter index="1" name="static gain" parameterValue="1"/>
          </component>
          <component componentID="Audition.Mute" id="clipMute" name="Mute" powered="true">
            <parameter index="0" parameterValue="0"/>
            <parameter index="1" name="mute" parameterValue="0"/>
          </component>
          <component componentID="Audition.StereoPanner" id="clipPan" name="StereoPanner" powered="true">
            <parameter index="0" name="Panorámica" parameterValue="31.1743011">
              <parameterKeyframes enableSplines="false">
                <parameterKeyframe sampleOffset="81310" select="false" type="linear" value="0.3441285"/>
              </parameterKeyframes>
            </parameter>
          </component>
          <fadeIn crossFadeLinkType="linkedAsymmetric" endPoint="0" shape="19" startPoint="0" type="log"/>
          <fadeOut crossFadeLinkType="linkedAsymmetric" endPoint="552905" shape="19" startPoint="552905" type="log"/>
          <editParameter parameterIndex="0" slotIndex="4294967281"/>
          <editParameter parameterIndex="0" slotIndex="4294967280"/>
          <channelMap>
            <channel index="0" sourceIndex="0"/>
            <channel index="1" sourceIndex="1"/>
          </channelMap>
        </audioClip>
        <audioClip clipAutoCrossfade="true" crossFadeHeadClipID="-1" crossFadeTailClipID="-1" endPoint="6825612" fileID="36" hue="-1" id="8" lockedInTime="false" looped="false" name="dark horse acapella_bajo_primera_estrofa" offline="false" select="false" sourceInPoint="0" sourceOutPoint="698652" startPoint="6126960" zOrder="46061">
          <component componentID="Audition.Fader" id="clipGain" name="volume" powered="true">
            <parameter index="0" name="volume" parameterValue="0.7698945"/>
            <parameter index="1" name="static gain" parameterValue="1"/>
          </component>
          <component componentID="Audition.Mute" id="clipMute" name="Mute" powered="true">
            <parameter index="0" parameterValue="0"/>
            <parameter index="1" name="mute" parameterValue="0"/>
          </component>
          <component componentID="Audition.StereoPanner" id="clipPan" name="StereoPanner" powered="true">
            <parameter index="0" name="Panorámica" parameterValue="45.1821327"/>
          </component>
          <fadeIn crossFadeLinkType="linkedAsymmetric" endPoint="0" shape="18" startPoint="0" type="log"/>
          <fadeOut crossFadeLinkType="linkedAsymmetric" endPoint="698652" shape="0" startPoint="694966" type="log"/>
          <editParameter parameterIndex="0" slotIndex="4294967280"/>
          <editParameter parameterIndex="0" slotIndex="4294967281"/>
          <channelMap>
            <channel index="0" sourceIndex="0"/>
            <channel index="1" sourceIndex="1"/>
          </channelMap>
        </audioClip>
        <audioClip clipAutoCrossfade="true" crossFadeHeadClipID="-1" crossFadeTailClipID="-1" endPoint="6904056" fileID="36" hue="-1" id="9" lockedInTime="false" looped="false" name="dark horse acapella_bajo_primera_estrofa" offline="false" select="false" sourceInPoint="722789" sourceOutPoint="777096" startPoint="6849749" zOrder="46055">
          <component componentID="Audition.Fader" id="clipGain" name="volume" powered="true">
            <parameter index="0" name="volume" parameterValue="0.7698945"/>
            <parameter index="1" name="static gain" parameterValue="1"/>
          </component>
          <component componentID="Audition.Mute" id="clipMute" name="Mute" powered="true">
            <parameter index="0" parameterValue="0"/>
            <parameter index="1" name="mute" parameterValue="0"/>
          </component>
          <component componentID="Audition.StereoPanner" id="clipPan" name="StereoPanner" powered="true">
            <parameter index="0" name="Panorámica" parameterValue="45.1821327"/>
          </component>
          <fadeIn crossFadeLinkType="linkedAsymmetric" endPoint="0" shape="0" startPoint="0" type="cosine"/>
          <fadeOut crossFadeLinkType="linkedAsymmetric" endPoint="54307" shape="0" startPoint="52181" type="log"/>
          <editParameter parameterIndex="0" slotIndex="4294967280"/>
          <editParameter parameterIndex="0" slotIndex="4294967281"/>
          <channelMap>
            <channel index="0" sourceIndex="0"/>
            <channel index="1" sourceIndex="1"/>
          </channelMap>
        </audioClip>
        <audioClip clipAutoCrossfade="true" crossFadeHeadClipID="-1" crossFadeTailClipID="-1" endPoint="7047674" fileID="36" hue="-1" id="10" lockedInTime="false" looped="false" name="dark horse acapella_bajo_primera_estrofa" offline="false" select="false" sourceInPoint="802369" sourceOutPoint="920714" startPoint="6929329" zOrder="46059">
          <component componentID="Audition.Fader" id="clipGain" name="volume" powered="true">
            <parameter index="0" name="volume" parameterValue="0.7698945"/>
            <parameter index="1" name="static gain" parameterValue="1"/>
          </component>
          <component componentID="Audition.Mute" id="clipMute" name="Mute" powered="true">
            <parameter index="0" parameterValue="0"/>
            <parameter index="1" name="mute" parameterValue="0"/>
          </component>
          <component componentID="Audition.StereoPanner" id="clipPan" name="StereoPanner" powered="true">
            <parameter index="0" name="Panorámica" parameterValue="45.1821327"/>
          </component>
          <fadeIn crossFadeLinkType="linkedAsymmetric" endPoint="0" shape="0" startPoint="0" type="cosine"/>
          <fadeOut crossFadeLinkType="linkedAsymmetric" endPoint="118345" shape="0" startPoint="116832" type="log"/>
          <editParameter parameterIndex="0" slotIndex="4294967280"/>
          <editParameter parameterIndex="0" slotIndex="4294967281"/>
          <channelMap>
            <channel index="0" sourceIndex="0"/>
            <channel index="1" sourceIndex="1"/>
          </channelMap>
        </audioClip>
        <audioClip clipAutoCrossfade="true" crossFadeHeadClipID="-1" crossFadeTailClipID="-1" endPoint="7340731" fileID="36" hue="-1" id="11" lockedInTime="false" looped="false" name="dark horse acapella_bajo_primera_estrofa" offline="false" select="false" sourceInPoint="963252" sourceOutPoint="1213771" startPoint="7090212" zOrder="46048">
          <component componentID="Audition.Fader" id="clipGain" name="volume" powered="true">
            <parameter index="0" name="volume" parameterValue="0.7698945"/>
            <parameter index="1" name="static gain" parameterValue="1"/>
          </component>
          <component componentID="Audition.Mute" id="clipMute" name="Mute" powered="true">
            <parameter index="0" parameterValue="0"/>
            <parameter index="1" name="mute" parameterValue="0"/>
          </component>
          <component componentID="Audition.StereoPanner" id="clipPan" name="StereoPanner" powered="true">
            <parameter index="0" name="Panorámica" parameterValue="45.1821327"/>
          </component>
          <fadeIn crossFadeLinkType="linkedAsymmetric" endPoint="0" shape="0" startPoint="0" type="cosine"/>
          <fadeOut crossFadeLinkType="linkedAsymmetric" endPoint="250519" shape="18" startPoint="250519" type="log"/>
          <editParameter parameterIndex="0" slotIndex="4294967281"/>
          <editParameter parameterIndex="0" slotIndex="4294967280"/>
          <channelMap>
            <channel index="0" sourceIndex="0"/>
            <channel index="1" sourceIndex="1"/>
          </channelMap>
        </audioClip>
        <audioClip clipAutoCrossfade="true" crossFadeHeadClipID="-1" crossFadeTailClipID="-1" endPoint="7350506" fileID="36" hue="-1" id="12" lockedInTime="false" looped="false" name="dark horse acapella_bajo_primera_estrofa" offline="false" select="false" sourceInPoint="1203150" sourceOutPoint="1212925" startPoint="7340731" zOrder="45992">
          <component componentID="Audition.Fader" id="clipGain" name="volume" powered="true">
            <parameter index="0" name="volume" parameterValue="0.7698945"/>
            <parameter index="1" name="static gain" parameterValue="1"/>
          </component>
          <component componentID="Audition.Mute" id="clipMute" name="Mute" powered="true">
            <parameter index="0" parameterValue="0"/>
            <parameter index="1" name="mute" parameterValue="0"/>
          </component>
          <component componentID="Audition.StereoPanner" id="clipPan" name="StereoPanner" powered="true">
            <parameter index="0" name="Panorámica" parameterValue="45.1821327"/>
          </component>
          <fadeIn crossFadeLinkType="linkedAsymmetric" endPoint="0" shape="19" startPoint="0" type="log"/>
          <fadeOut crossFadeLinkType="linkedAsymmetric" endPoint="9775" shape="18" startPoint="9775" type="log"/>
          <editParameter parameterIndex="0" slotIndex="4294967281"/>
          <editParameter parameterIndex="0" slotIndex="4294967280"/>
          <channelMap>
            <channel index="0" sourceIndex="0"/>
            <channel index="1" sourceIndex="1"/>
          </channelMap>
        </audioClip>
        <audioClip clipAutoCrossfade="true" crossFadeHeadClipID="-1" crossFadeTailClipID="-1" endPoint="7360802" fileID="36" hue="-1" id="13" lockedInTime="false" looped="false" name="dark horse acapella_bajo_primera_estrofa" offline="false" select="false" sourceInPoint="1203150" sourceOutPoint="1213446" startPoint="7350506" zOrder="46024">
          <component componentID="Audition.Fader" id="clipGain" name="volume" powered="true">
            <parameter index="0" name="volume" parameterValue="0.7698945"/>
            <parameter index="1" name="static gain" parameterValue="1"/>
          </component>
          <component componentID="Audition.Mute" id="clipMute" name="Mute" powered="true">
            <parameter index="0" parameterValue="0"/>
            <parameter index="1" name="mute" parameterValue="0"/>
          </component>
          <component componentID="Audition.StereoPanner" id="clipPan" name="StereoPanner" powered="true">
            <parameter index="0" name="Panorámica" parameterValue="45.1821327"/>
          </component>
          <fadeIn crossFadeLinkType="linkedAsymmetric" endPoint="0" shape="19" startPoint="0" type="log"/>
          <fadeOut crossFadeLinkType="linkedAsymmetric" endPoint="10296" shape="18" startPoint="10296" type="log"/>
          <editParameter parameterIndex="0" slotIndex="4294967281"/>
          <editParameter parameterIndex="0" slotIndex="4294967280"/>
          <channelMap>
            <channel index="0" sourceIndex="0"/>
            <channel index="1" sourceIndex="1"/>
          </channelMap>
        </audioClip>
        <audioClip clipAutoCrossfade="true" crossFadeHeadClipID="-1" crossFadeTailClipID="-1" endPoint="7371012" fileID="36" hue="-1" id="14" lockedInTime="false" looped="false" name="dark horse acapella_bajo_primera_estrofa" offline="false" select="false" sourceInPoint="1203150" sourceOutPoint="1213360" startPoint="7360802" zOrder="46039">
          <component componentID="Audition.Fader" id="clipGain" name="volume" powered="true">
            <parameter index="0" name="volume" parameterValue="0.7698945"/>
            <parameter index="1" name="static gain" parameterValue="1"/>
          </component>
          <component componentID="Audition.Mute" id="clipMute" name="Mute" powered="true">
            <parameter index="0" parameterValue="0"/>
            <parameter index="1" name="mute" parameterValue="0"/>
          </component>
          <component componentID="Audition.StereoPanner" id="clipPan" name="StereoPanner" powered="true">
            <parameter index="0" name="Panorámica" parameterValue="45.1821327"/>
          </component>
          <fadeIn crossFadeLinkType="linkedAsymmetric" endPoint="0" shape="19" startPoint="0" type="log"/>
          <fadeOut crossFadeLinkType="linkedAsymmetric" endPoint="10210" shape="19" startPoint="10210" type="log"/>
          <editParameter parameterIndex="0" slotIndex="4294967281"/>
          <editParameter parameterIndex="0" slotIndex="4294967280"/>
          <channelMap>
            <channel index="0" sourceIndex="0"/>
            <channel index="1" sourceIndex="1"/>
          </channelMap>
        </audioClip>
        <audioClip clipAutoCrossfade="true" crossFadeHeadClipID="-1" crossFadeTailClipID="-1" endPoint="7387974" fileID="36" hue="-1" id="15" lockedInTime="false" looped="false" name="dark horse acapella_bajo_primera_estrofa" offline="false" select="false" sourceInPoint="1203150" sourceOutPoint="1220112" startPoint="7371012" zOrder="46046">
          <component componentID="Audition.Fader" id="clipGain" name="volume" powered="true">
            <parameter index="0" name="volume" parameterValue="0.7698945"/>
            <parameter index="1" name="static gain" parameterValue="1"/>
          </component>
          <component componentID="Audition.Mute" id="clipMute" name="Mute" powered="true">
            <parameter index="0" parameterValue="0"/>
            <parameter index="1" name="mute" parameterValue="0"/>
          </component>
          <component componentID="Audition.StereoPanner" id="clipPan" name="StereoPanner" powered="true">
            <parameter index="0" name="Panorámica" parameterValue="45.1821327"/>
          </component>
          <fadeIn crossFadeLinkType="linkedAsymmetric" endPoint="0" shape="19" startPoint="0" type="log"/>
          <fadeOut crossFadeLinkType="linkedAsymmetric" endPoint="16962" shape="19" startPoint="9752" type="log"/>
          <editParameter parameterIndex="0" slotIndex="4294967281"/>
          <editParameter parameterIndex="0" slotIndex="4294967280"/>
          <channelMap>
            <channel index="0" sourceIndex="0"/>
            <channel index="1" sourceIndex="1"/>
          </channelMap>
        </audioClip>
        <audioClip clipAutoCrossfade="true" crossFadeHeadClipID="-1" crossFadeTailClipID="-1" endPoint="13207805" fileID="37" hue="-1" id="16" lockedInTime="false" looped="false" name="darkhorse_bass" offline="false" select="false" sourceInPoint="0" sourceOutPoint="240645" startPoint="12967160" zOrder="42788">
          <component componentID="Audition.Fader" id="clipGain" name="volume" powered="true">
            <parameter index="0" name="volume" parameterValue="1"/>
            <parameter index="1" name="static gain" parameterValue="1"/>
          </component>
          <component componentID="Audition.Mute" id="clipMute" name="Mute" powered="true">
            <parameter index="0" parameterValue="0"/>
            <parameter index="1" name="mute" parameterValue="0"/>
          </component>
          <component componentID="Audition.StereoPanner" id="clipPan" name="StereoPanner" powered="true">
            <parameter index="0" name="Panorámica" parameterValue="0">
              <parameterKeyframes enableSplines="true">
                <parameterKeyframe sampleOffset="308640" select="false" type="linear" value="0.5"/>
                <parameterKeyframe sampleOffset="318632" select="false" type="linear" value="0.5"/>
                <parameterKeyframe sampleOffset="334176" select="false" type="linear" value="0.7134832"/>
                <parameterKeyframe sampleOffset="376405" select="false" type="linear" value="0.7176538"/>
                <parameterKeyframe sampleOffset="380185" select="false" type="linear" value="0.6923126"/>
                <parameterKeyframe sampleOffset="391948" select="false" type="linear" value="0.7540203"/>
                <parameterKeyframe sampleOffset="462940" select="false" type="linear" value="0.7412702"/>
                <parameterKeyframe sampleOffset="480659" select="false" type="linear" value="0.5"/>
                <parameterKeyframe sampleOffset="497776" select="false" type="linear" value="0.5"/>
              </parameterKeyframes>
            </parameter>
          </component>
          <fadeIn crossFadeLinkType="linkedAsymmetric" endPoint="0" shape="19" startPoint="0" type="log"/>
          <fadeOut crossFadeLinkType="linkedAsymmetric" endPoint="240645" shape="0" startPoint="240645" type="cosine"/>
          <editParameter parameterIndex="0" slotIndex="4294967280"/>
          <editParameter parameterIndex="0" slotIndex="4294967281"/>
          <channelMap>
            <channel index="0" sourceIndex="0"/>
            <channel index="1" sourceIndex="1"/>
          </channelMap>
        </audioClip>
        <audioClip clipAutoCrossfade="true" crossFadeHeadClipID="-1" crossFadeTailClipID="18" endPoint="13288032" fileID="37" hue="-1" id="17" lockedInTime="false" looped="false" name="darkhorse_bass" offline="false" select="false" sourceInPoint="233745" sourceOutPoint="313972" startPoint="13207805" zOrder="36617">
          <component componentID="Audition.Fader" id="clipGain" name="volume" powered="true">
            <parameter index="0" name="volume" parameterValue="1">
              <parameterKeyframes enableSplines="false">
                <parameterKeyframe sampleOffset="304476" select="false" type="linear" value="0.65"/>
                <parameterKeyframe sampleOffset="313324" select="false" type="linear" value="0.65"/>
              </parameterKeyframes>
            </parameter>
            <parameter index="1" name="static gain" parameterValue="1"/>
          </component>
          <component componentID="Audition.Mute" id="clipMute" name="Mute" powered="true">
            <parameter index="0" parameterValue="0"/>
            <parameter index="1" name="mute" parameterValue="0"/>
          </component>
          <component componentID="Audition.StereoPanner" id="clipPan" name="StereoPanner" powered="true">
            <parameter index="0" name="Panorámica" parameterValue="0">
              <parameterKeyframes enableSplines="true">
                <parameterKeyframe sampleOffset="299791" select="false" type="linear" value="0.5"/>
                <parameterKeyframe sampleOffset="309497" select="false" type="linear" value="0.5"/>
                <parameterKeyframe sampleOffset="324595" select="false" type="linear" value="0.7134832"/>
                <parameterKeyframe sampleOffset="365614" select="false" type="linear" value="0.7176538"/>
                <parameterKeyframe sampleOffset="369286" select="false" type="linear" value="0.6923126"/>
                <parameterKeyframe sampleOffset="380711" select="false" type="linear" value="0.7540203"/>
                <parameterKeyframe sampleOffset="449667" select="false" type="linear" value="0.7412702"/>
                <parameterKeyframe sampleOffset="466879" select="false" type="linear" value="0.5"/>
                <parameterKeyframe sampleOffset="483504" select="false" type="linear" value="0.5"/>
              </parameterKeyframes>
            </parameter>
          </component>
          <fadeIn crossFadeLinkType="linkedAsymmetric" endPoint="0" shape="19" startPoint="0" type="log"/>
          <fadeOut crossFadeLinkType="linkedAsymmetric" endPoint="80227" shape="13" startPoint="79998" type="log"/>
          <clipStretch adaptiveWindowSize="37" pitchAdjustment="0" preserveFormants="true" stretchMode="realtime" stretchQuality="high" stretchRatio="0.9713299965984744" stretchType="solo" transientSensitivity="40"/>
          <editParameter parameterIndex="0" slotIndex="4294967281"/>
          <editParameter parameterIndex="0" slotIndex="4294967280"/>
          <channelMap>
            <channel index="0" sourceIndex="0"/>
            <channel index="1" sourceIndex="1"/>
          </channelMap>
        </audioClip>
        <audioClip clipAutoCrossfade="true" crossFadeHeadClipID="17" crossFadeTailClipID="-1" endPoint="13608295" fileID="37" hue="-1" id="18" lockedInTime="false" looped="false" name="darkhorse_bass" offline="false" select="false" sourceInPoint="322324" sourceOutPoint="642816" startPoint="13287803" zOrder="36616">
          <component componentID="Audition.Fader" id="clipGain" name="volume" powered="true">
            <parameter index="0" name="volume" parameterValue="0">
              <parameterKeyframes enableSplines="true">
                <parameterKeyframe sampleOffset="322451" select="false" type="linear" value="0.65"/>
                <parameterKeyframe sampleOffset="328193" select="false" type="linear" value="0.65"/>
                <parameterKeyframe sampleOffset="354376" select="false" type="linear" value="0.65"/>
                <parameterKeyframe sampleOffset="364498" select="false" type="linear" value="0.5209677"/>
                <parameterKeyframe sampleOffset="374619" select="false" type="linear" value="0.65"/>
                <parameterKeyframe sampleOffset="391489" select="false" type="linear" value="0.65"/>
                <parameterKeyframe sampleOffset="396550" select="false" type="linear" value="0.65"/>
                <parameterKeyframe sampleOffset="403860" select="false" type="linear" value="0.4725806"/>
                <parameterKeyframe sampleOffset="412295" select="false" type="linear" value="0.65"/>
                <parameterKeyframe sampleOffset="415669" select="false" type="linear" value="0.65"/>
                <parameterKeyframe sampleOffset="469605" select="false" type="linear" value="0.65"/>
                <parameterKeyframe sampleOffset="469606" select="false" type="linear" value="0.5897993"/>
              </parameterKeyframes>
            </parameter>
            <parameter index="1" name="static gain" parameterValue="1"/>
          </component>
          <component componentID="Audition.Mute" id="clipMute" name="Mute" powered="true">
            <parameter index="0" parameterValue="0"/>
            <parameter index="1" name="mute" parameterValue="0"/>
          </component>
          <component componentID="Audition.StereoPanner" id="clipPan" name="StereoPanner" powered="true">
            <parameter index="0" name="Panorámica" parameterValue="0">
              <parameterKeyframes enableSplines="true">
                <parameterKeyframe sampleOffset="308640" select="false" type="linear" value="0.5"/>
                <parameterKeyframe sampleOffset="318632" select="false" type="linear" value="0.5"/>
                <parameterKeyframe sampleOffset="334176" select="false" type="linear" value="0.7134832"/>
                <parameterKeyframe sampleOffset="391948" select="false" type="linear" value="0.7540203"/>
                <parameterKeyframe sampleOffset="462940" select="false" type="linear" value="0.7412702"/>
                <parameterKeyframe sampleOffset="498898" select="false" type="linear" value="0.637931"/>
              </parameterKeyframes>
            </parameter>
          </component>
          <fadeIn crossFadeLinkType="linkedAsymmetric" endPoint="229" shape="25" startPoint="0" type="log"/>
          <fadeOut crossFadeLinkType="linkedAsymmetric" endPoint="320492" shape="0" startPoint="320492" type="cosine"/>
          <editParameter parameterIndex="0" slotIndex="4294967280"/>
          <editParameter parameterIndex="0" slotIndex="4294967281"/>
          <channelMap>
            <channel index="0" sourceIndex="0"/>
            <channel index="1" sourceIndex="1"/>
          </channelMap>
        </audioClip>
        <audioClip clipAutoCrossfade="true" crossFadeHeadClipID="-1" crossFadeTailClipID="20" endPoint="13930939" fileID="38" hue="-1" id="19" lockedInTime="false" looped="false" name="Pista 8_005" offline="false" select="false" sourceInPoint="4502" sourceOutPoint="115028" startPoint="13820413" zOrder="41726">
          <component componentID="Audition.Fader" id="clipGain" name="volume" powered="true">
            <parameter index="0" name="volume" parameterValue="1">
              <parameterKeyframes enableSplines="false">
                <parameterKeyframe sampleOffset="1283" select="false" type="linear" value="0.65"/>
                <parameterKeyframe sampleOffset="77609" select="false" type="linear" value="0.65"/>
              </parameterKeyframes>
            </parameter>
            <parameter index="1" name="static gain" parameterValue="1"/>
          </component>
          <component componentID="Audition.Mute" id="clipMute" name="Mute" powered="true">
            <parameter index="0" parameterValue="0"/>
            <parameter index="1" name="mute" parameterValue="0"/>
          </component>
          <component componentID="Audition.StereoPanner" id="clipPan" name="StereoPanner" powered="true">
            <parameter index="0" name="Panorámica" parameterValue="0"/>
          </component>
          <fadeIn crossFadeLinkType="linkedAsymmetric" endPoint="0" shape="0" startPoint="0" type="cosine"/>
          <fadeOut crossFadeLinkType="linkedAsymmetric" endPoint="110526" shape="18" startPoint="109537" type="log"/>
          <clipStretch adaptiveWindowSize="37" pitchAdjustment="0" preserveFormants="true" stretchMode="realtime" stretchQuality="high" stretchRatio="1.0254531155042361" stretchType="solo" transientSensitivity="40"/>
          <take sourceInPoint="0"/>
          <editParameter parameterIndex="0" slotIndex="4294967281"/>
          <editParameter parameterIndex="0" slotIndex="4294967280"/>
          <channelMap>
            <channel index="0" sourceIndex="0"/>
            <channel index="1" sourceIndex="1"/>
          </channelMap>
        </audioClip>
        <audioClip clipAutoCrossfade="true" crossFadeHeadClipID="19" crossFadeTailClipID="21" endPoint="14011717" fileID="38" hue="-1" id="20" lockedInTime="false" looped="false" name="Pista 8_005" offline="false" select="false" sourceInPoint="112636" sourceOutPoint="194403" startPoint="13929950" zOrder="41716">
          <component componentID="Audition.Fader" id="clipGain" name="volume" powered="true">
            <parameter index="0" name="volume" parameterValue="1"/>
            <parameter index="1" name="static gain" parameterValue="1"/>
          </component>
          <component componentID="Audition.Mute" id="clipMute" name="Mute" powered="true">
            <parameter index="0" parameterValue="0"/>
            <parameter index="1" name="mute" parameterValue="0"/>
          </component>
          <component componentID="Audition.StereoPanner" id="clipPan" name="StereoPanner" powered="true">
            <parameter index="0" name="Panorámica" parameterValue="0"/>
          </component>
          <fadeIn crossFadeLinkType="linkedAsymmetric" endPoint="989" shape="19" startPoint="0" type="log"/>
          <fadeOut crossFadeLinkType="linkedAsymmetric" endPoint="81767" shape="18" startPoint="80905" type="log"/>
          <clipStretch adaptiveWindowSize="37" pitchAdjustment="0" preserveFormants="true" stretchMode="realtime" stretchQuality="high" stretchRatio="1.0044186811576374" stretchType="solo" transientSensitivity="40"/>
          <editParameter parameterIndex="0" slotIndex="4294967281"/>
          <editParameter parameterIndex="0" slotIndex="4294967280"/>
          <channelMap>
            <channel index="0" sourceIndex="0"/>
            <channel index="1" sourceIndex="1"/>
          </channelMap>
        </audioClip>
        <audioClip clipAutoCrossfade="true" crossFadeHeadClipID="20" crossFadeTailClipID="22" endPoint="14091777" fileID="38" hue="-1" id="21" lockedInTime="false" looped="false" name="Pista 8_005" offline="false" select="false" sourceInPoint="113481" sourceOutPoint="194403" startPoint="14010855" zOrder="41717">
          <component componentID="Audition.Fader" id="clipGain" name="volume" powered="true">
            <parameter index="0" name="volume" parameterValue="1"/>
            <parameter index="1" name="static gain" parameterValue="1"/>
          </component>
          <component componentID="Audition.Mute" id="clipMute" name="Mute" powered="true">
            <parameter index="0" parameterValue="0"/>
            <parameter index="1" name="mute" parameterValue="0"/>
          </component>
          <component componentID="Audition.StereoPanner" id="clipPan" name="StereoPanner" powered="true">
            <parameter index="0" name="Panorámica" parameterValue="0"/>
          </component>
          <fadeIn crossFadeLinkType="linkedAsymmetric" endPoint="862" shape="19" startPoint="0" type="log"/>
          <fadeOut crossFadeLinkType="linkedAsymmetric" endPoint="80922" shape="18" startPoint="80243" type="log"/>
          <clipStretch adaptiveWindowSize="37" pitchAdjustment="0" preserveFormants="true" stretchMode="realtime" stretchQuality="high" stretchRatio="1.0044186811576374" stretchType="solo" transientSensitivity="40"/>
          <editParameter parameterIndex="0" slotIndex="4294967281"/>
          <editParameter parameterIndex="0" slotIndex="4294967280"/>
          <channelMap>
            <channel index="0" sourceIndex="0"/>
            <channel index="1" sourceIndex="1"/>
          </channelMap>
        </audioClip>
        <audioClip clipAutoCrossfade="true" crossFadeHeadClipID="21" crossFadeTailClipID="23" endPoint="14171767" fileID="38" hue="-1" id="22" lockedInTime="false" looped="false" name="Pista 8_005" offline="false" select="false" sourceInPoint="113481" sourceOutPoint="194150" startPoint="14091098" zOrder="41718">
          <component componentID="Audition.Fader" id="clipGain" name="volume" powered="true">
            <parameter index="0" name="volume" parameterValue="1"/>
            <parameter index="1" name="static gain" parameterValue="1"/>
          </component>
          <component componentID="Audition.Mute" id="clipMute" name="Mute" powered="true">
            <parameter index="0" parameterValue="0"/>
            <parameter index="1" name="mute" parameterValue="0"/>
          </component>
          <component componentID="Audition.StereoPanner" id="clipPan" name="StereoPanner" powered="true">
            <parameter index="0" name="Panorámica" parameterValue="0"/>
          </component>
          <fadeIn crossFadeLinkType="linkedAsymmetric" endPoint="679" shape="19" startPoint="0" type="log"/>
          <fadeOut crossFadeLinkType="linkedAsymmetric" endPoint="80669" shape="19" startPoint="80367" type="log"/>
          <clipStretch adaptiveWindowSize="37" pitchAdjustment="0" preserveFormants="true" stretchMode="realtime" stretchQuality="high" stretchRatio="1.0044186811576374" stretchType="solo" transientSensitivity="40"/>
          <editParameter parameterIndex="0" slotIndex="4294967281"/>
          <editParameter parameterIndex="0" slotIndex="4294967280"/>
          <channelMap>
            <channel index="0" sourceIndex="0"/>
            <channel index="1" sourceIndex="1"/>
          </channelMap>
        </audioClip>
        <audioClip clipAutoCrossfade="true" crossFadeHeadClipID="22" crossFadeTailClipID="24" endPoint="14251287" fileID="38" hue="-1" id="23" lockedInTime="false" looped="false" name="Pista 8_005" offline="false" select="false" sourceInPoint="35428" sourceOutPoint="115250" startPoint="14171465" zOrder="41720">
          <component componentID="Audition.Fader" id="clipGain" name="volume" powered="true">
            <parameter index="0" name="volume" parameterValue="1"/>
            <parameter index="1" name="static gain" parameterValue="1"/>
          </component>
          <component componentID="Audition.Mute" id="clipMute" name="Mute" powered="true">
            <parameter index="0" parameterValue="0"/>
            <parameter index="1" name="mute" parameterValue="0"/>
          </component>
          <component componentID="Audition.StereoPanner" id="clipPan" name="StereoPanner" powered="true">
            <parameter index="0" name="Panorámica" parameterValue="0"/>
          </component>
          <fadeIn crossFadeLinkType="linkedAsymmetric" endPoint="302" shape="18" startPoint="0" type="log"/>
          <fadeOut crossFadeLinkType="linkedAsymmetric" endPoint="79822" shape="18" startPoint="79242" type="log"/>
          <clipStretch adaptiveWindowSize="37" pitchAdjustment="0" preserveFormants="true" stretchMode="realtime" stretchQuality="high" stretchRatio="1.0254531155042361" stretchType="solo" transientSensitivity="40"/>
          <editParameter parameterIndex="0" slotIndex="4294967281"/>
          <editParameter parameterIndex="0" slotIndex="4294967280"/>
          <channelMap>
            <channel index="0" sourceIndex="0"/>
            <channel index="1" sourceIndex="1"/>
          </channelMap>
        </audioClip>
        <audioClip clipAutoCrossfade="true" crossFadeHeadClipID="23" crossFadeTailClipID="25" endPoint="14332474" fileID="38" hue="-1" id="24" lockedInTime="false" looped="false" name="Pista 8_005" offline="false" select="false" sourceInPoint="112636" sourceOutPoint="194403" startPoint="14250707" zOrder="41719">
          <component componentID="Audition.Fader" id="clipGain" name="volume" powered="true">
            <parameter index="0" name="volume" parameterValue="1"/>
            <parameter index="1" name="static gain" parameterValue="1"/>
          </component>
          <component componentID="Audition.Mute" id="clipMute" name="Mute" powered="true">
            <parameter index="0" parameterValue="0"/>
            <parameter index="1" name="mute" parameterValue="0"/>
          </component>
          <component componentID="Audition.StereoPanner" id="clipPan" name="StereoPanner" powered="true">
            <parameter index="0" name="Panorámica" parameterValue="0"/>
          </component>
          <fadeIn crossFadeLinkType="linkedAsymmetric" endPoint="580" shape="19" startPoint="0" type="log"/>
          <fadeOut crossFadeLinkType="linkedAsymmetric" endPoint="81767" shape="18" startPoint="80905" type="log"/>
          <clipStretch adaptiveWindowSize="37" pitchAdjustment="0" preserveFormants="true" stretchMode="realtime" stretchQuality="high" stretchRatio="1.0044186811576374" stretchType="solo" transientSensitivity="40"/>
          <editParameter parameterIndex="0" slotIndex="4294967281"/>
          <editParameter parameterIndex="0" slotIndex="4294967280"/>
          <channelMap>
            <channel index="0" sourceIndex="0"/>
            <channel index="1" sourceIndex="1"/>
          </channelMap>
        </audioClip>
        <audioClip clipAutoCrossfade="true" crossFadeHeadClipID="24" crossFadeTailClipID="26" endPoint="14412534" fileID="38" hue="-1" id="25" lockedInTime="false" looped="false" name="Pista 8_005" offline="false" select="false" sourceInPoint="113481" sourceOutPoint="194403" startPoint="14331612" zOrder="41721">
          <component componentID="Audition.Fader" id="clipGain" name="volume" powered="true">
            <parameter index="0" name="volume" parameterValue="1"/>
            <parameter index="1" name="static gain" parameterValue="1"/>
          </component>
          <component componentID="Audition.Mute" id="clipMute" name="Mute" powered="true">
            <parameter index="0" parameterValue="0"/>
            <parameter index="1" name="mute" parameterValue="0"/>
          </component>
          <component componentID="Audition.StereoPanner" id="clipPan" name="StereoPanner" powered="true">
            <parameter index="0" name="Panorámica" parameterValue="0"/>
          </component>
          <fadeIn crossFadeLinkType="linkedAsymmetric" endPoint="862" shape="19" startPoint="0" type="log"/>
          <fadeOut crossFadeLinkType="linkedAsymmetric" endPoint="80922" shape="18" startPoint="80243" type="log"/>
          <clipStretch adaptiveWindowSize="37" pitchAdjustment="0" preserveFormants="true" stretchMode="realtime" stretchQuality="high" stretchRatio="1.0044186811576374" stretchType="solo" transientSensitivity="40"/>
          <editParameter parameterIndex="0" slotIndex="4294967281"/>
          <editParameter parameterIndex="0" slotIndex="4294967280"/>
          <channelMap>
            <channel index="0" sourceIndex="0"/>
            <channel index="1" sourceIndex="1"/>
          </channelMap>
        </audioClip>
        <audioClip clipAutoCrossfade="true" crossFadeHeadClipID="25" crossFadeTailClipID="-1" endPoint="14441086" fileID="38" hue="-1" id="26" lockedInTime="false" looped="false" name="Pista 8_005" offline="false" select="false" sourceInPoint="113481" sourceOutPoint="142712" startPoint="14411855" zOrder="41722">
          <component componentID="Audition.Fader" id="clipGain" name="volume" powered="true">
            <parameter index="0" name="volume" parameterValue="1"/>
            <parameter index="1" name="static gain" parameterValue="1"/>
          </component>
          <component componentID="Audition.Mute" id="clipMute" name="Mute" powered="true">
            <parameter index="0" parameterValue="0"/>
            <parameter index="1" name="mute" parameterValue="0"/>
          </component>
          <component componentID="Audition.StereoPanner" id="clipPan" name="StereoPanner" powered="true">
            <parameter index="0" name="Panorámica" parameterValue="0"/>
          </component>
          <fadeIn crossFadeLinkType="linkedAsymmetric" endPoint="679" shape="19" startPoint="0" type="log"/>
          <fadeOut crossFadeLinkType="linkedAsymmetric" endPoint="29231" shape="19" startPoint="29231" type="log"/>
          <clipStretch adaptiveWindowSize="37" pitchAdjustment="0" preserveFormants="true" stretchMode="realtime" stretchQuality="high" stretchRatio="1.0044186811576374" stretchType="solo" transientSensitivity="40"/>
          <editParameter parameterIndex="0" slotIndex="4294967281"/>
          <editParameter parameterIndex="0" slotIndex="4294967280"/>
          <channelMap>
            <channel index="0" sourceIndex="0"/>
            <channel index="1" sourceIndex="1"/>
          </channelMap>
        </audioClip>
        <audioClip clipAutoCrossfade="true" crossFadeHeadClipID="-1" crossFadeTailClipID="-1" endPoint="15082279" fileID="39" hue="-1" id="27" lockedInTime="false" looped="false" name="dark horse acapella_bajo_estrofa_editado" offline="false" select="false" sourceInPoint="0" sourceOutPoint="620673" startPoint="14461606" zOrder="41724">
          <component componentID="Audition.Fader" id="clipGain" name="volume" powered="true">
            <parameter index="0" name="volume" parameterValue="1"/>
            <parameter index="1" name="static gain" parameterValue="1"/>
          </component>
          <component componentID="Audition.Mute" id="clipMute" name="Mute" powered="true">
            <parameter index="0" parameterValue="0"/>
            <parameter index="1" name="mute" parameterValue="0"/>
          </component>
          <component componentID="Audition.StereoPanner" id="clipPan" name="StereoPanner" powered="true">
            <parameter index="0" name="Panorámica" parameterValue="0"/>
          </component>
          <fadeIn crossFadeLinkType="linkedAsymmetric" endPoint="0" shape="18" startPoint="0" type="log"/>
          <fadeOut crossFadeLinkType="linkedAsymmetric" endPoint="620673" shape="0" startPoint="620673" type="cosine"/>
          <editParameter parameterIndex="0" slotIndex="4294967281"/>
          <editParameter parameterIndex="0" slotIndex="4294967280"/>
          <channelMap>
            <channel index="0" sourceIndex="0"/>
            <channel index="1" sourceIndex="1"/>
          </channelMap>
        </audioClip>
        <audioClip clipAutoCrossfade="true" crossFadeHeadClipID="-1" crossFadeTailClipID="-1" endPoint="15104642" fileID="39" hue="-1" id="28" lockedInTime="false" looped="false" name="dark horse acapella_bajo_estrofa_editado" offline="false" select="false" sourceInPoint="0" sourceOutPoint="22363" startPoint="15082279" zOrder="41723">
          <component componentID="Audition.Fader" id="clipGain" name="volume" powered="true">
            <parameter index="0" name="volume" parameterValue="1">
              <parameterKeyframes enableSplines="false">
                <parameterKeyframe sampleOffset="9485" select="false" type="linear" value="0.65"/>
              </parameterKeyframes>
            </parameter>
            <parameter index="1" name="static gain" parameterValue="1"/>
          </component>
          <component componentID="Audition.Mute" id="clipMute" name="Mute" powered="true">
            <parameter index="0" parameterValue="0"/>
            <parameter index="1" name="mute" parameterValue="0"/>
          </component>
          <component componentID="Audition.StereoPanner" id="clipPan" name="StereoPanner" powered="true">
            <parameter index="0" name="Panorámica" parameterValue="0"/>
          </component>
          <fadeIn crossFadeLinkType="linkedAsymmetric" endPoint="0" shape="18" startPoint="0" type="log"/>
          <fadeOut crossFadeLinkType="linkedAsymmetric" endPoint="22363" shape="0" startPoint="22363" type="cosine"/>
          <editParameter parameterIndex="0" slotIndex="4294967281"/>
          <editParameter parameterIndex="0" slotIndex="4294967280"/>
          <channelMap>
            <channel index="0" sourceIndex="0"/>
            <channel index="1" sourceIndex="1"/>
          </channelMap>
        </audioClip>
        <audioClip clipAutoCrossfade="true" crossFadeHeadClipID="-1" crossFadeTailClipID="-1" endPoint="15374217" fileID="40" hue="-1" id="29" lockedInTime="false" looped="false" name="Pista 3_008" offline="false" select="false" sourceInPoint="9618" sourceOutPoint="90110" startPoint="15293725" zOrder="42692">
          <component componentID="Audition.Fader" id="clipGain" name="volume" powered="true">
            <parameter index="0" name="volume" parameterValue="1">
              <parameterKeyframes enableSplines="false">
                <parameterKeyframe sampleOffset="42361" select="true" type="linear" value="0.65"/>
              </parameterKeyframes>
            </parameter>
            <parameter index="1" name="static gain" parameterValue="1"/>
          </component>
          <component componentID="Audition.Mute" id="clipMute" name="Mute" powered="true">
            <parameter index="0" parameterValue="0"/>
            <parameter index="1" name="mute" parameterValue="0"/>
          </component>
          <component componentID="Audition.StereoPanner" id="clipPan" name="StereoPanner" powered="true">
            <parameter index="0" name="Panorámica" parameterValue="0"/>
          </component>
          <fadeIn crossFadeLinkType="linkedAsymmetric" endPoint="0" shape="0" startPoint="0" type="cosine"/>
          <fadeOut crossFadeLinkType="linkedAsymmetric" endPoint="80492" shape="18" startPoint="80492" type="log"/>
          <clipStretch adaptiveWindowSize="37" pitchAdjustment="0" preserveFormants="true" stretchMode="realtime" stretchQuality="high" stretchRatio="1.0549189671131469" stretchType="solo" transientSensitivity="40"/>
          <take sourceInPoint="0"/>
          <editParameter parameterIndex="0" slotIndex="4294967281"/>
          <editParameter parameterIndex="0" slotIndex="4294967280"/>
          <channelMap>
            <channel index="0" sourceIndex="0"/>
            <channel index="1" sourceIndex="1"/>
          </channelMap>
        </audioClip>
        <audioClip clipAutoCrossfade="true" crossFadeHeadClipID="-1" crossFadeTailClipID="-1" endPoint="15454316" fileID="40" hue="-1" id="30" lockedInTime="false" looped="false" name="Pista 3_008" offline="false" select="false" sourceInPoint="81848" sourceOutPoint="161947" startPoint="15374217" zOrder="42689">
          <component componentID="Audition.Fader" id="clipGain" name="volume" powered="true">
            <parameter index="0" name="volume" parameterValue="1"/>
            <parameter index="1" name="static gain" parameterValue="1"/>
          </component>
          <component componentID="Audition.Mute" id="clipMute" name="Mute" powered="true">
            <parameter index="0" parameterValue="0"/>
            <parameter index="1" name="mute" parameterValue="0"/>
          </component>
          <component componentID="Audition.StereoPanner" id="clipPan" name="StereoPanner" powered="true">
            <parameter index="0" name="Panorámica" parameterValue="0"/>
          </component>
          <fadeIn crossFadeLinkType="linkedAsymmetric" endPoint="0" shape="19" startPoint="0" type="log"/>
          <fadeOut crossFadeLinkType="linkedAsymmetric" endPoint="80099" shape="19" startPoint="80099" type="log"/>
          <clipStretch adaptiveWindowSize="37" pitchAdjustment="0" preserveFormants="true" stretchMode="realtime" stretchQuality="high" stretchRatio="0.9589938221349552" stretchType="solo" transientSensitivity="40"/>
          <editParameter parameterIndex="0" slotIndex="4294967281"/>
          <editParameter parameterIndex="0" slotIndex="4294967280"/>
          <channelMap>
            <channel index="0" sourceIndex="0"/>
            <channel index="1" sourceIndex="1"/>
          </channelMap>
        </audioClip>
        <audioClip clipAutoCrossfade="true" crossFadeHeadClipID="-1" crossFadeTailClipID="-1" endPoint="15534415" fileID="40" hue="-1" id="31" lockedInTime="false" looped="false" name="Pista 3_008" offline="false" select="false" sourceInPoint="159512" sourceOutPoint="239611" startPoint="15454316" zOrder="42690">
          <component componentID="Audition.Fader" id="clipGain" name="volume" powered="true">
            <parameter index="0" name="volume" parameterValue="1"/>
            <parameter index="1" name="static gain" parameterValue="1"/>
          </component>
          <component componentID="Audition.Mute" id="clipMute" name="Mute" powered="true">
            <parameter index="0" parameterValue="0"/>
            <parameter index="1" name="mute" parameterValue="0"/>
          </component>
          <component componentID="Audition.StereoPanner" id="clipPan" name="StereoPanner" powered="true">
            <parameter index="0" name="Panorámica" parameterValue="0"/>
          </component>
          <fadeIn crossFadeLinkType="linkedAsymmetric" endPoint="0" shape="18" startPoint="0" type="log"/>
          <fadeOut crossFadeLinkType="linkedAsymmetric" endPoint="80099" shape="0" startPoint="80099" type="cosine"/>
          <clipStretch adaptiveWindowSize="37" pitchAdjustment="0" preserveFormants="true" stretchMode="realtime" stretchQuality="high" stretchRatio="0.9624044792617867" stretchType="solo" transientSensitivity="40"/>
          <editParameter parameterIndex="0" slotIndex="4294967281"/>
          <editParameter parameterIndex="0" slotIndex="4294967280"/>
          <channelMap>
            <channel index="0" sourceIndex="0"/>
            <channel index="1" sourceIndex="1"/>
          </channelMap>
        </audioClip>
        <audioClip clipAutoCrossfade="true" crossFadeHeadClipID="-1" crossFadeTailClipID="-1" endPoint="15614811" fileID="40" hue="-1" id="32" lockedInTime="false" looped="false" name="Pista 3_008" offline="false" select="false" sourceInPoint="272396" sourceOutPoint="352792" startPoint="15534415" zOrder="42691">
          <component componentID="Audition.Fader" id="clipGain" name="volume" powered="true">
            <parameter index="0" name="volume" parameterValue="1"/>
            <parameter index="1" name="static gain" parameterValue="1"/>
          </component>
          <component componentID="Audition.Mute" id="clipMute" name="Mute" powered="true">
            <parameter index="0" parameterValue="0"/>
            <parameter index="1" name="mute" parameterValue="0"/>
          </component>
          <component componentID="Audition.StereoPanner" id="clipPan" name="StereoPanner" powered="true">
            <parameter index="0" name="Panorámica" parameterValue="0"/>
          </component>
          <fadeIn crossFadeLinkType="linkedAsymmetric" endPoint="0" shape="0" startPoint="0" type="cosine"/>
          <fadeOut crossFadeLinkType="linkedAsymmetric" endPoint="80396" shape="0" startPoint="80396" type="cosine"/>
          <clipStretch adaptiveWindowSize="37" pitchAdjustment="0" preserveFormants="true" stretchMode="realtime" stretchQuality="high" stretchRatio="1.0940852069621378" stretchType="solo" transientSensitivity="40"/>
          <editParameter parameterIndex="0" slotIndex="4294967281"/>
          <editParameter parameterIndex="0" slotIndex="4294967280"/>
          <channelMap>
            <channel index="0" sourceIndex="0"/>
            <channel index="1" sourceIndex="1"/>
          </channelMap>
        </audioClip>
        <audioClip clipAutoCrossfade="true" crossFadeHeadClipID="-1" crossFadeTailClipID="-1" endPoint="15695303" fileID="40" hue="-1" id="33" lockedInTime="false" looped="false" name="Pista 3_008" offline="false" select="false" sourceInPoint="9618" sourceOutPoint="90110" startPoint="15614811" zOrder="42688">
          <component componentID="Audition.Fader" id="clipGain" name="volume" powered="true">
            <parameter index="0" name="volume" parameterValue="1"/>
            <parameter index="1" name="static gain" parameterValue="1"/>
          </component>
          <component componentID="Audition.Mute" id="clipMute" name="Mute" powered="true">
            <parameter index="0" parameterValue="0"/>
            <parameter index="1" name="mute" parameterValue="0"/>
          </component>
          <component componentID="Audition.StereoPanner" id="clipPan" name="StereoPanner" powered="true">
            <parameter index="0" name="Panorámica" parameterValue="0"/>
          </component>
          <fadeIn crossFadeLinkType="linkedAsymmetric" endPoint="0" shape="0" startPoint="0" type="cosine"/>
          <fadeOut crossFadeLinkType="linkedAsymmetric" endPoint="80492" shape="18" startPoint="80492" type="log"/>
          <clipStretch adaptiveWindowSize="37" pitchAdjustment="0" preserveFormants="true" stretchMode="realtime" stretchQuality="high" stretchRatio="1.0549189671131469" stretchType="solo" transientSensitivity="40"/>
          <editParameter parameterIndex="0" slotIndex="4294967281"/>
          <editParameter parameterIndex="0" slotIndex="4294967280"/>
          <channelMap>
            <channel index="0" sourceIndex="0"/>
            <channel index="1" sourceIndex="1"/>
          </channelMap>
        </audioClip>
        <audioClip clipAutoCrossfade="true" crossFadeHeadClipID="-1" crossFadeTailClipID="-1" endPoint="15775402" fileID="40" hue="-1" id="34" lockedInTime="false" looped="false" name="Pista 3_008" offline="false" select="false" sourceInPoint="81848" sourceOutPoint="161947" startPoint="15695303" zOrder="42686">
          <component componentID="Audition.Fader" id="clipGain" name="volume" powered="true">
            <parameter index="0" name="volume" parameterValue="1"/>
            <parameter index="1" name="static gain" parameterValue="1"/>
          </component>
          <component componentID="Audition.Mute" id="clipMute" name="Mute" powered="true">
            <parameter index="0" parameterValue="0"/>
            <parameter index="1" name="mute" parameterValue="0"/>
          </component>
          <component componentID="Audition.StereoPanner" id="clipPan" name="StereoPanner" powered="true">
            <parameter index="0" name="Panorámica" parameterValue="0"/>
          </component>
          <fadeIn crossFadeLinkType="linkedAsymmetric" endPoint="0" shape="19" startPoint="0" type="log"/>
          <fadeOut crossFadeLinkType="linkedAsymmetric" endPoint="80099" shape="19" startPoint="80099" type="log"/>
          <clipStretch adaptiveWindowSize="37" pitchAdjustment="0" preserveFormants="true" stretchMode="realtime" stretchQuality="high" stretchRatio="0.9589938221349552" stretchType="solo" transientSensitivity="40"/>
          <editParameter parameterIndex="0" slotIndex="4294967281"/>
          <editParameter parameterIndex="0" slotIndex="4294967280"/>
          <channelMap>
            <channel index="0" sourceIndex="0"/>
            <channel index="1" sourceIndex="1"/>
          </channelMap>
        </audioClip>
        <audioClip clipAutoCrossfade="true" crossFadeHeadClipID="-1" crossFadeTailClipID="-1" endPoint="15855501" fileID="40" hue="-1" id="35" lockedInTime="false" looped="false" name="Pista 3_008" offline="false" select="false" sourceInPoint="159512" sourceOutPoint="239611" startPoint="15775402" zOrder="42687">
          <component componentID="Audition.Fader" id="clipGain" name="volume" powered="true">
            <parameter index="0" name="volume" parameterValue="1"/>
            <parameter index="1" name="static gain" parameterValue="1"/>
          </component>
          <component componentID="Audition.Mute" id="clipMute" name="Mute" powered="true">
            <parameter index="0" parameterValue="0"/>
            <parameter index="1" name="mute" parameterValue="0"/>
          </component>
          <component componentID="Audition.StereoPanner" id="clipPan" name="StereoPanner" powered="true">
            <parameter index="0" name="Panorámica" parameterValue="0"/>
          </component>
          <fadeIn crossFadeLinkType="linkedAsymmetric" endPoint="0" shape="18" startPoint="0" type="log"/>
          <fadeOut crossFadeLinkType="linkedAsymmetric" endPoint="80099" shape="19" startPoint="80099" type="log"/>
          <clipStretch adaptiveWindowSize="37" pitchAdjustment="0" preserveFormants="true" stretchMode="realtime" stretchQuality="high" stretchRatio="0.9624044792617867" stretchType="solo" transientSensitivity="40"/>
          <editParameter parameterIndex="0" slotIndex="4294967281"/>
          <editParameter parameterIndex="0" slotIndex="4294967280"/>
          <channelMap>
            <channel index="0" sourceIndex="0"/>
            <channel index="1" sourceIndex="1"/>
          </channelMap>
        </audioClip>
        <audioClip clipAutoCrossfade="true" crossFadeHeadClipID="-1" crossFadeTailClipID="-1" endPoint="15935897" fileID="40" hue="-1" id="36" lockedInTime="false" looped="false" name="Pista 3_008" offline="false" select="false" sourceInPoint="272396" sourceOutPoint="352792" startPoint="15855501" zOrder="42694">
          <component componentID="Audition.Fader" id="clipGain" name="volume" powered="true">
            <parameter index="0" name="volume" parameterValue="1"/>
            <parameter index="1" name="static gain" parameterValue="1"/>
          </component>
          <component componentID="Audition.Mute" id="clipMute" name="Mute" powered="true">
            <parameter index="0" parameterValue="0"/>
            <parameter index="1" name="mute" parameterValue="0"/>
          </component>
          <component componentID="Audition.StereoPanner" id="clipPan" name="StereoPanner" powered="true">
            <parameter index="0" name="Panorámica" parameterValue="0">
              <parameterKeyframes enableSplines="false">
                <parameterKeyframe sampleOffset="352792" select="true" type="linear" value="0.5"/>
              </parameterKeyframes>
            </parameter>
          </component>
          <fadeIn crossFadeLinkType="linkedAsymmetric" endPoint="0" shape="18" startPoint="0" type="log"/>
          <fadeOut crossFadeLinkType="linkedAsymmetric" endPoint="80396" shape="19" startPoint="80396" type="log"/>
          <clipStretch adaptiveWindowSize="37" pitchAdjustment="0" preserveFormants="true" stretchMode="realtime" stretchQuality="high" stretchRatio="1.0940852069621378" stretchType="solo" transientSensitivity="40"/>
          <editParameter parameterIndex="0" slotIndex="4294967280"/>
          <editParameter parameterIndex="0" slotIndex="4294967281"/>
          <channelMap>
            <channel index="0" sourceIndex="0"/>
            <channel index="1" sourceIndex="1"/>
          </channelMap>
        </audioClip>
        <audioClip clipAutoCrossfade="true" crossFadeHeadClipID="-1" crossFadeTailClipID="38" endPoint="17767996" fileID="41" hue="-1" id="37" lockedInTime="false" looped="false" name="dark horse_bajo_intro_base" offline="false" select="false" sourceInPoint="0" sourceOutPoint="320929" startPoint="17447067" zOrder="43774">
          <component componentID="Audition.Fader" id="clipGain" name="volume" powered="true">
            <parameter index="0" name="volume" parameterValue="1"/>
            <parameter index="1" name="static gain" parameterValue="1"/>
          </component>
          <component componentID="Audition.Mute" id="clipMute" name="Mute" powered="true">
            <parameter index="0" parameterValue="0"/>
            <parameter index="1" name="mute" parameterValue="0"/>
          </component>
          <component componentID="Audition.StereoPanner" id="clipPan" name="StereoPanner" powered="true">
            <parameter index="0" name="Panorámica" parameterValue="0"/>
          </component>
          <fadeIn crossFadeLinkType="linkedAsymmetric" endPoint="0" shape="0" startPoint="0" type="cosine"/>
          <fadeOut crossFadeLinkType="linkedAsymmetric" endPoint="320929" shape="18" startPoint="320725" type="log"/>
          <editParameter parameterIndex="0" slotIndex="4294967281"/>
          <editParameter parameterIndex="0" slotIndex="4294967280"/>
          <channelMap>
            <channel index="0" sourceIndex="0"/>
            <channel index="1" sourceIndex="1"/>
          </channelMap>
        </audioClip>
        <audioClip clipAutoCrossfade="true" crossFadeHeadClipID="37" crossFadeTailClipID="-1" endPoint="18089056" fileID="41" hue="-1" id="38" lockedInTime="false" looped="false" name="dark horse_bajo_intro_base" offline="false" select="false" sourceInPoint="0" sourceOutPoint="321264" startPoint="17767792" zOrder="43772">
          <component componentID="Audition.Fader" id="clipGain" name="volume" powered="true">
            <parameter index="0" name="volume" parameterValue="1"/>
            <parameter index="1" name="static gain" parameterValue="1"/>
          </component>
          <component componentID="Audition.Mute" id="clipMute" name="Mute" powered="true">
            <parameter index="0" parameterValue="0"/>
            <parameter index="1" name="mute" parameterValue="0"/>
          </component>
          <component componentID="Audition.StereoPanner" id="clipPan" name="StereoPanner" powered="true">
            <parameter index="0" name="Panorámica" parameterValue="0"/>
          </component>
          <fadeIn crossFadeLinkType="linkedAsymmetric" endPoint="204" shape="19" startPoint="0" type="log"/>
          <fadeOut crossFadeLinkType="linkedAsymmetric" endPoint="321264" shape="0" startPoint="321264" type="cosine"/>
          <editParameter parameterIndex="0" slotIndex="4294967281"/>
          <editParameter parameterIndex="0" slotIndex="4294967280"/>
          <channelMap>
            <channel index="0" sourceIndex="0"/>
            <channel index="1" sourceIndex="1"/>
          </channelMap>
        </audioClip>
      </audioTrack>
      <audioTrack automationLaneOpenState="false" id="10013" index="8" select="false" visible="true">
        <trackParameters trackHeight="129">
          <name>VOZ DE FONDO</name>
        </trackParameters>
        <trackAudioParameters audioChannelType="stereo" automationMode="1" monitoring="false" recordArmed="false" solo="false" soloSafe="false">
          <trackOutput outputID="10000" type="trackID"/>
          <trackInput inputID="-1"/>
          <component componentID="Audition.Fader" id="trackFader" name="volume" powered="true">
            <parameter index="0" name="volume" parameterValue="1"/>
            <parameter index="1" name="static gain" parameterValue="1"/>
          </component>
          <component componentID="Audition.Mute" id="trackMute" name="Mute" powered="true">
            <parameter index="0" parameterValue="0"/>
            <parameter index="1" name="mute" parameterValue="0"/>
          </component>
          <component componentID="Audition.StereoPanner" id="trackPan" name="StereoPanner" powered="true">
            <parameter index="0" name="Panorámica" parameterValue="0"/>
          </component>
          <component componentID="Audition.EQ" id="trackEQ" name="EQ" powered="false">
            <parameter index="0" name="Frecuencia estante inferior" parameterValue="0.0009079"/>
            <parameter index="1" name="Ganancia estante inferior" parameterValue="0.5"/>
            <parameter index="2" name="Frecuencia estante superior" parameterValue="0.8161598"/>
            <parameter index="3" name="Ganancia estante superior" parameterValue="0.5"/>
            <parameter index="4" name="Frecuencia central de banda de EC 1" parameterValue="0.0013618"/>
            <parameter index="5" name="Valor Q de banda de EC 1" parameterValue="0.0002"/>
            <parameter index="6" name="Ganancia de banda de EC 1" parameterValue="0.5"/>
            <parameter index="7" name="Activación de banda de EC 1" parameterValue="1"/>
            <parameter index="8" name="Frecuencia central de banda de EC 2" parameterValue="0.0081707"/>
            <parameter index="9" name="Valor Q de banda de EC 2" parameterValue="0.0002"/>
            <parameter index="10" name="Ganancia de banda de EC 2" parameterValue="0.5"/>
            <parameter index="11" name="Activación de banda de EC 2" parameterValue="1"/>
            <parameter index="12" name="Frecuencia central de banda de EC 3" parameterValue="0.0354063"/>
            <parameter index="13" name="Valor Q de banda de EC 3" parameterValue="0.0002"/>
            <parameter index="14" name="Ganancia de banda de EC 3" parameterValue="0.5"/>
            <parameter index="15" name="Activación de banda de EC 3" parameterValue="1"/>
            <parameter index="16" name="Frecuencia central de banda de EC 4" parameterValue="0.1443486"/>
            <parameter index="17" name="Valor Q de banda de EC 4" parameterValue="0.0002"/>
            <parameter index="18" name="Ganancia de banda de EC 4" parameterValue="0.5"/>
            <parameter index="19" name="Activación de banda de EC 4" parameterValue="1"/>
            <parameter index="20" name="Frecuencia central de banda de EC 5" parameterValue="0.580118"/>
            <parameter index="21" name="Valor Q de banda de EC 5" parameterValue="0.0002"/>
            <parameter index="22" name="Ganancia de banda de EC 5" parameterValue="0.5"/>
            <parameter index="23" name="Activación de banda de EC 5" parameterValue="1"/>
            <parameter index="24" name="Ganancia maestra" parameterValue="0.6666667"/>
            <parameter index="25" name="Constant Q" parameterValue="1"/>
            <parameter index="26" name="Orden de filtro de estante inferior" parameterValue="0"/>
            <parameter index="27" name="Orden de filtro de estante superior" parameterValue="0"/>
            <parameter index="28" name="Modo ultrasilencioso" parameterValue="0"/>
            <parameter index="29" name="Activar estante inferior" parameterValue="1"/>
            <parameter index="30" name="Activar estante superior" parameterValue="1"/>
            <parameter index="31" name="Velocidad de muestreo original" parameterValue="0.2296875"/>
            <parameter index="32" name="Ancho de banda de EC 1" parameterValue="0.0025"/>
            <parameter index="33" name="Ancho de banda de EC 2" parameterValue="0.01"/>
            <parameter index="34" name="Ancho de banda de EC 3" parameterValue="0.04"/>
            <parameter index="35" name="Ancho de banda de EC 4" parameterValue="0.16"/>
            <parameter index="36" name="Ancho de banda de EC 5" parameterValue="0.64"/>
            <parameter index="37" name="Activación de filtro de pase alto" parameterValue="0"/>
            <parameter index="38" name="Frecuencia de límite de paso alto" parameterValue="0"/>
            <parameter index="39" name="Pendiente de paso alto" parameterValue="4"/>
            <parameter index="40" name="Activación de filtro de pase bajo" parameterValue="0"/>
            <parameter index="41" name="Frecuencia de límite de paso bajo" parameterValue="0.906945"/>
            <parameter index="42" name="Pendiente de paso bajo" parameterValue="4"/>
            <parameter index="43" name="Omitir" parameterValue="0"/>
            <parameter index="44" name="Rango de gráfico bajo" parameterValue="1"/>
          </component>
        </trackAudioParameters>
        <editParameter parameterIndex="0" slotIndex="4294967280"/>
        <sendList>
          <sendSlot preFader="false" sendOutputID="0" slotIndex="0">
            <component id="sendComponent" powered="false">
              <parameter index="0" name="Encendido/Apagado" parameterValue="0"/>
              <parameter index="1" name="Nivel" parameterValue="0"/>
            </component>
            <component id="sendPan" powered="true"/>
          </sendSlot>
          <sendSlot preFader="false" sendOutputID="0" slotIndex="1">
            <component id="sendComponent" powered="false">
              <parameter index="0" name="Encendido/Apagado" parameterValue="0"/>
              <parameter index="1" name="Nivel" parameterValue="0"/>
            </component>
            <component id="sendPan" powered="true"/>
          </sendSlot>
          <sendSlot preFader="false" sendOutputID="0" slotIndex="2">
            <component id="sendComponent" powered="false">
              <parameter index="0" name="Encendido/Apagado" parameterValue="0"/>
              <parameter index="1" name="Nivel" parameterValue="0"/>
            </component>
            <component id="sendPan" powered="true"/>
          </sendSlot>
          <sendSlot preFader="false" sendOutputID="0" slotIndex="3">
            <component id="sendComponent" powered="false">
              <parameter index="0" name="Encendido/Apagado" parameterValue="0"/>
              <parameter index="1" name="Nivel" parameterValue="0"/>
            </component>
            <component id="sendPan" powered="true"/>
          </sendSlot>
          <sendSlot preFader="false" sendOutputID="0" slotIndex="4">
            <component id="sendComponent" powered="false">
              <parameter index="0" name="Encendido/Apagado" parameterValue="0"/>
              <parameter index="1" name="Nivel" parameterValue="0"/>
            </component>
            <component id="sendPan" powered="true"/>
          </sendSlot>
          <sendSlot preFader="false" sendOutputID="0" slotIndex="5">
            <component id="sendComponent" powered="false">
              <parameter index="0" name="Encendido/Apagado" parameterValue="0"/>
              <parameter index="1" name="Nivel" parameterValue="0"/>
            </component>
            <component id="sendPan" powered="true"/>
          </sendSlot>
          <sendSlot preFader="false" sendOutputID="0" slotIndex="6">
            <component id="sendComponent" powered="false">
              <parameter index="0" name="Encendido/Apagado" parameterValue="0"/>
              <parameter index="1" name="Nivel" parameterValue="0"/>
            </component>
            <component id="sendPan" powered="true"/>
          </sendSlot>
          <sendSlot preFader="false" sendOutputID="0" slotIndex="7">
            <component id="sendComponent" powered="false">
              <parameter index="0" name="Encendido/Apagado" parameterValue="0"/>
              <parameter index="1" name="Nivel" parameterValue="0"/>
            </component>
            <component id="sendPan" powered="true"/>
          </sendSlot>
          <sendSlot preFader="false" sendOutputID="0" slotIndex="8">
            <component id="sendComponent" powered="false">
              <parameter index="0" name="Encendido/Apagado" parameterValue="0"/>
              <parameter index="1" name="Nivel" parameterValue="0"/>
            </component>
            <component id="sendPan" powered="true"/>
          </sendSlot>
          <sendSlot preFader="false" sendOutputID="0" slotIndex="9">
            <component id="sendComponent" powered="false">
              <parameter index="0" name="Encendido/Apagado" parameterValue="0"/>
              <parameter index="1" name="Nivel" parameterValue="0"/>
            </component>
            <component id="sendPan" powered="true"/>
          </sendSlot>
          <sendSlot preFader="false" sendOutputID="0" slotIndex="10">
            <component id="sendComponent" powered="false">
              <parameter index="0" name="Encendido/Apagado" parameterValue="0"/>
              <parameter index="1" name="Nivel" parameterValue="0"/>
            </component>
            <component id="sendPan" powered="true"/>
          </sendSlot>
          <sendSlot preFader="false" sendOutputID="0" slotIndex="11">
            <component id="sendComponent" powered="false">
              <parameter index="0" name="Encendido/Apagado" parameterValue="0"/>
              <parameter index="1" name="Nivel" parameterValue="0"/>
            </component>
            <component id="sendPan" powered="true"/>
          </sendSlot>
          <sendSlot preFader="false" sendOutputID="0" slotIndex="12">
            <component id="sendComponent" powered="false">
              <parameter index="0" name="Encendido/Apagado" parameterValue="0"/>
              <parameter index="1" name="Nivel" parameterValue="0"/>
            </component>
            <component id="sendPan" powered="true"/>
          </sendSlot>
          <sendSlot preFader="false" sendOutputID="0" slotIndex="13">
            <component id="sendComponent" powered="false">
              <parameter index="0" name="Encendido/Apagado" parameterValue="0"/>
              <parameter index="1" name="Nivel" parameterValue="0"/>
            </component>
            <component id="sendPan" powered="true"/>
          </sendSlot>
          <sendSlot preFader="false" sendOutputID="0" slotIndex="14">
            <component id="sendComponent" powered="false">
              <parameter index="0" name="Encendido/Apagado" parameterValue="0"/>
              <parameter index="1" name="Nivel" parameterValue="0"/>
            </component>
            <component id="sendPan" powered="true"/>
          </sendSlot>
          <sendSlot preFader="false" sendOutputID="0" slotIndex="15">
            <component id="sendComponent" powered="false">
              <parameter index="0" name="Encendido/Apagado" parameterValue="0"/>
              <parameter index="1" name="Nivel" parameterValue="0"/>
            </component>
            <component id="sendPan" powered="true"/>
          </sendSlot>
        </sendList>
        <audioClip clipAutoCrossfade="true" crossFadeHeadClipID="-1" crossFadeTailClipID="-1" endPoint="1975688" fileID="42" hue="-1" id="0" lockedInTime="false" looped="false" name="dark horse_backvoices_primera_estrofa_editada" offline="false" select="false" sourceInPoint="0" sourceOutPoint="1343584" startPoint="632104" zOrder="45423">
          <component componentID="Audition.Fader" id="clipGain" name="volume" powered="true">
            <parameter index="0" name="volume" parameterValue="1">
              <parameterKeyframes enableSplines="false">
                <parameterKeyframe sampleOffset="1091136" select="false" type="linear" value="0.65"/>
                <parameterKeyframe sampleOffset="1150406" select="false" type="linear" value="0.5887755"/>
              </parameterKeyframes>
            </parameter>
            <parameter index="1" name="static gain" parameterValue="1"/>
          </component>
          <component componentID="Audition.Mute" id="clipMute" name="Mute" powered="true">
            <parameter index="0" parameterValue="0"/>
            <parameter index="1" name="mute" parameterValue="0"/>
          </component>
          <component componentID="Audition.StereoPanner" id="clipPan" name="StereoPanner" powered="true">
            <parameter index="0" name="Panorámica" parameterValue="-29.113924"/>
          </component>
          <fadeIn crossFadeLinkType="linkedAsymmetric" endPoint="0" shape="18" startPoint="0" type="log"/>
          <fadeOut crossFadeLinkType="linkedAsymmetric" endPoint="1343584" shape="0" startPoint="1343584" type="cosine"/>
          <editParameter parameterIndex="0" slotIndex="4294967280"/>
          <editParameter parameterIndex="0" slotIndex="4294967281"/>
          <channelMap>
            <channel index="0" sourceIndex="0"/>
            <channel index="1" sourceIndex="1"/>
          </channelMap>
        </audioClip>
        <audioClip clipAutoCrossfade="true" crossFadeHeadClipID="-1" crossFadeTailClipID="2" endPoint="2400168" fileID="43" hue="-1" id="1" lockedInTime="false" looped="false" name="VOZ DE FONDO_013" offline="false" select="false" sourceInPoint="81656" sourceOutPoint="415668" startPoint="2066156" zOrder="45562">
          <component componentID="Audition.Fader" id="clipGain" name="volume" powered="true">
            <parameter index="0" name="volume" parameterValue="1"/>
            <parameter index="1" name="static gain" parameterValue="1"/>
          </component>
          <component componentID="Audition.Mute" id="clipMute" name="Mute" powered="true">
            <parameter index="0" parameterValue="0"/>
            <parameter index="1" name="mute" parameterValue="0"/>
          </component>
          <component componentID="Audition.StereoPanner" id="clipPan" name="StereoPanner" powered="true">
            <parameter index="0" name="Panorámica" parameterValue="0"/>
          </component>
          <fadeIn crossFadeLinkType="linkedAsymmetric" endPoint="0" shape="0" startPoint="0" type="cosine"/>
          <fadeOut crossFadeLinkType="linkedAsymmetric" endPoint="334012" shape="18" startPoint="331994" type="log"/>
          <take sourceInPoint="0"/>
          <editParameter parameterIndex="0" slotIndex="4294967281"/>
          <editParameter parameterIndex="0" slotIndex="4294967280"/>
          <channelMap>
            <channel index="0" sourceIndex="0"/>
            <channel index="1" sourceIndex="1"/>
          </channelMap>
        </audioClip>
        <audioClip clipAutoCrossfade="true" crossFadeHeadClipID="1" crossFadeTailClipID="-1" endPoint="2724209" fileID="43" hue="-1" id="2" lockedInTime="false" looped="false" name="VOZ DE FONDO_013" offline="false" select="false" sourceInPoint="89609" sourceOutPoint="415668" startPoint="2398150" zOrder="45561">
          <component componentID="Audition.Fader" id="clipGain" name="volume" powered="true">
            <parameter index="0" name="volume" parameterValue="0">
              <parameterKeyframes enableSplines="true">
                <parameterKeyframe sampleOffset="233954" select="false" type="linear" value="0.65"/>
                <parameterKeyframe sampleOffset="244087" select="false" type="linear" value="0.65"/>
                <parameterKeyframe sampleOffset="258949" select="false" type="linear" value="0.4042373"/>
                <parameterKeyframe sampleOffset="362978" select="false" type="linear" value="0.65"/>
              </parameterKeyframes>
            </parameter>
            <parameter index="1" name="static gain" parameterValue="1"/>
          </component>
          <component componentID="Audition.Mute" id="clipMute" name="Mute" powered="true">
            <parameter index="0" parameterValue="0"/>
            <parameter index="1" name="mute" parameterValue="0"/>
          </component>
          <component componentID="Audition.StereoPanner" id="clipPan" name="StereoPanner" powered="true">
            <parameter index="0" name="Panorámica" parameterValue="0"/>
          </component>
          <fadeIn crossFadeLinkType="linkedAsymmetric" endPoint="2018" shape="19" startPoint="0" type="log"/>
          <fadeOut crossFadeLinkType="linkedAsymmetric" endPoint="326059" shape="0" startPoint="326059" type="cosine"/>
          <editParameter parameterIndex="0" slotIndex="4294967281"/>
          <editParameter parameterIndex="0" slotIndex="4294967280"/>
          <channelMap>
            <channel index="0" sourceIndex="0"/>
            <channel index="1" sourceIndex="1"/>
          </channelMap>
        </audioClip>
        <audioClip clipAutoCrossfade="true" crossFadeHeadClipID="-1" crossFadeTailClipID="-1" endPoint="3240128" fileID="44" hue="-1" id="3" lockedInTime="false" looped="false" name="VOZ DE FONDO_007" offline="false" select="false" sourceInPoint="0" sourceOutPoint="63535" startPoint="3176593" zOrder="45564">
          <component componentID="Audition.Fader" id="clipGain" name="volume" powered="true">
            <parameter index="0" name="volume" parameterValue="0.8170369"/>
            <parameter index="1" name="static gain" parameterValue="1"/>
          </component>
          <component componentID="Audition.Mute" id="clipMute" name="Mute" powered="true">
            <parameter index="0" parameterValue="0"/>
            <parameter index="1" name="mute" parameterValue="0"/>
          </component>
          <component componentID="Audition.StereoPanner" id="clipPan" name="StereoPanner" powered="true">
            <parameter index="0" name="Panorámica" parameterValue="-29.7523384"/>
          </component>
          <fadeIn crossFadeLinkType="linkedAsymmetric" endPoint="0" shape="0" startPoint="0" type="cosine"/>
          <fadeOut crossFadeLinkType="linkedAsymmetric" endPoint="63535" shape="0" startPoint="63535" type="cosine"/>
          <take sourceInPoint="0"/>
          <editParameter parameterIndex="0" slotIndex="4294967280"/>
          <editParameter parameterIndex="0" slotIndex="4294967281"/>
          <channelMap>
            <channel index="0" sourceIndex="0"/>
            <channel index="1" sourceIndex="1"/>
          </channelMap>
        </audioClip>
        <audioClip clipAutoCrossfade="true" crossFadeHeadClipID="-1" crossFadeTailClipID="-1" endPoint="3528000" fileID="45" hue="-1" id="4" lockedInTime="false" looped="false" name="dark horse hey_estrofa" offline="false" select="false" sourceInPoint="0" sourceOutPoint="266559" startPoint="3261441" zOrder="45544">
          <component componentID="Audition.Fader" id="clipGain" name="volume" powered="true">
            <parameter index="0" name="volume" parameterValue="0.9218529"/>
            <parameter index="1" name="static gain" parameterValue="1"/>
          </component>
          <component componentID="Audition.Mute" id="clipMute" name="Mute" powered="true">
            <parameter index="0" parameterValue="0"/>
            <parameter index="1" name="mute" parameterValue="0"/>
          </component>
          <component componentID="Audition.StereoPanner" id="clipPan" name="StereoPanner" powered="true">
            <parameter index="0" name="Panorámica" parameterValue="0"/>
          </component>
          <fadeIn crossFadeLinkType="linkedAsymmetric" endPoint="0" shape="0" startPoint="0" type="cosine"/>
          <fadeOut crossFadeLinkType="linkedAsymmetric" endPoint="266559" shape="19" startPoint="266559" type="log"/>
          <editParameter parameterIndex="0" slotIndex="4294967281"/>
          <editParameter parameterIndex="0" slotIndex="4294967280"/>
          <channelMap>
            <channel index="0" sourceIndex="0"/>
            <channel index="1" sourceIndex="1"/>
          </channelMap>
        </audioClip>
        <audioClip clipAutoCrossfade="true" crossFadeHeadClipID="-1" crossFadeTailClipID="-1" endPoint="4824585" fileID="46" hue="-1" id="5" lockedInTime="false" looped="false" name="dark horse_backvoices_segunda_estrofa_editada" offline="false" select="false" sourceInPoint="0" sourceOutPoint="1277755" startPoint="3546830" zOrder="45475">
          <component componentID="Audition.Fader" id="clipGain" name="volume" powered="true">
            <parameter index="0" name="volume" parameterValue="0">
              <parameterKeyframes enableSplines="true">
                <parameterKeyframe sampleOffset="530108" select="false" type="linear" value="0.65"/>
                <parameterKeyframe sampleOffset="543360" select="false" type="linear" value="0.65"/>
                <parameterKeyframe sampleOffset="581793" select="false" type="linear" value="0.5931817"/>
                <parameterKeyframe sampleOffset="622876" select="false" type="linear" value="0.5896158"/>
                <parameterKeyframe sampleOffset="640105" select="false" type="linear" value="0.65"/>
                <parameterKeyframe sampleOffset="657333" select="false" type="linear" value="0.65"/>
                <parameterKeyframe sampleOffset="699992" select="false" type="linear" value="0.6499915"/>
                <parameterKeyframe sampleOffset="721386" select="false" type="linear" value="0.7295454"/>
                <parameterKeyframe sampleOffset="957648" select="false" type="linear" value="0.7293149"/>
                <parameterKeyframe sampleOffset="962764" select="false" type="linear" value="0.65"/>
                <parameterKeyframe sampleOffset="998307" select="false" type="linear" value="0.65"/>
                <parameterKeyframe sampleOffset="1079087" select="false" type="linear" value="0.5590909"/>
              </parameterKeyframes>
            </parameter>
            <parameter index="1" name="static gain" parameterValue="1"/>
          </component>
          <component componentID="Audition.Mute" id="clipMute" name="Mute" powered="true">
            <parameter index="0" parameterValue="0"/>
            <parameter index="1" name="mute" parameterValue="0"/>
          </component>
          <component componentID="Audition.StereoPanner" id="clipPan" name="StereoPanner" powered="true">
            <parameter index="0" name="Panorámica" parameterValue="0">
              <parameterKeyframes enableSplines="true">
                <parameterKeyframe sampleOffset="436305" select="false" type="linear" value="0.5"/>
                <parameterKeyframe sampleOffset="447659" select="false" type="linear" value="0.5"/>
                <parameterKeyframe sampleOffset="486586" select="false" type="linear" value="0.0903614"/>
                <parameterKeyframe sampleOffset="506049" select="false" type="linear" value="0.2175452"/>
                <parameterKeyframe sampleOffset="557951" select="false" type="linear" value="0.5"/>
                <parameterKeyframe sampleOffset="575793" select="false" type="linear" value="0.5"/>
                <parameterKeyframe sampleOffset="713014" select="false" type="linear" value="0.5"/>
                <parameterKeyframe sampleOffset="723246" select="false" type="linear" value="0.5"/>
                <parameterKeyframe sampleOffset="734408" select="false" type="linear" value="0.3455071"/>
                <parameterKeyframe sampleOffset="963229" select="false" type="linear" value="0.3977273"/>
                <parameterKeyframe sampleOffset="969740" select="false" type="linear" value="0.5"/>
                <parameterKeyframe sampleOffset="979042" select="false" type="linear" value="0.5"/>
                <parameterKeyframe sampleOffset="1079348" select="false" type="linear" value="0.5"/>
                <parameterKeyframe sampleOffset="1095606" select="false" type="linear" value="0.5"/>
                <parameterKeyframe sampleOffset="1119993" select="false" type="linear" value="1"/>
                <parameterKeyframe sampleOffset="1162263" select="false" type="linear" value="0.8433735"/>
                <parameterKeyframe sampleOffset="1163889" select="false" type="linear" value="0.5"/>
                <parameterKeyframe sampleOffset="1196405" select="false" type="linear" value="0.5"/>
                <parameterKeyframe sampleOffset="1198031" select="false" type="linear" value="0"/>
                <parameterKeyframe sampleOffset="1232173" select="false" type="linear" value="0.081933"/>
                <parameterKeyframe sampleOffset="1271192" select="false" type="linear" value="0.5"/>
                <parameterKeyframe sampleOffset="1284198" select="false" type="linear" value="0.5"/>
              </parameterKeyframes>
            </parameter>
          </component>
          <fadeIn crossFadeLinkType="linkedAsymmetric" endPoint="0" shape="18" startPoint="0" type="log"/>
          <fadeOut crossFadeLinkType="linkedAsymmetric" endPoint="1277755" shape="19" startPoint="1277755" type="log"/>
          <editParameter parameterIndex="0" slotIndex="4294967280"/>
          <editParameter parameterIndex="0" slotIndex="4294967281"/>
          <channelMap>
            <channel index="0" sourceIndex="0"/>
            <channel index="1" sourceIndex="1"/>
          </channelMap>
        </audioClip>
        <audioClip clipAutoCrossfade="true" crossFadeHeadClipID="-1" crossFadeTailClipID="-1" endPoint="4947026" fileID="47" hue="-1" id="6" lockedInTime="false" looped="false" name="VOZ DE FONDO_002" offline="false" select="false" sourceInPoint="71167" sourceOutPoint="193608" startPoint="4824585" zOrder="45482">
          <component componentID="Audition.Fader" id="clipGain" name="volume" powered="true">
            <parameter index="0" name="volume" parameterValue="1"/>
            <parameter index="1" name="static gain" parameterValue="1"/>
          </component>
          <component componentID="Audition.Mute" id="clipMute" name="Mute" powered="true">
            <parameter index="0" parameterValue="0"/>
            <parameter index="1" name="mute" parameterValue="0"/>
          </component>
          <component componentID="Audition.StereoPanner" id="clipPan" name="StereoPanner" powered="true">
            <parameter index="0" name="Panorámica" parameterValue="0"/>
          </component>
          <fadeIn crossFadeLinkType="linkedAsymmetric" endPoint="0" shape="18" startPoint="0" type="log"/>
          <fadeOut crossFadeLinkType="linkedAsymmetric" endPoint="122441" shape="0" startPoint="122441" type="cosine"/>
          <take sourceInPoint="0"/>
          <editParameter parameterIndex="0" slotIndex="4294967280"/>
          <editParameter parameterIndex="0" slotIndex="4294967281"/>
          <channelMap>
            <channel index="0" sourceIndex="0"/>
            <channel index="1" sourceIndex="1"/>
          </channelMap>
        </audioClip>
        <audioClip clipAutoCrossfade="true" crossFadeHeadClipID="-1" crossFadeTailClipID="8" endPoint="5286430" fileID="43" hue="-1" id="7" lockedInTime="false" looped="false" name="VOZ DE FONDO_013" offline="false" select="false" sourceInPoint="81656" sourceOutPoint="415668" startPoint="4952418" zOrder="45513">
          <component componentID="Audition.Fader" id="clipGain" name="volume" powered="true">
            <parameter index="0" name="volume" parameterValue="1"/>
            <parameter index="1" name="static gain" parameterValue="1"/>
          </component>
          <component componentID="Audition.Mute" id="clipMute" name="Mute" powered="true">
            <parameter index="0" parameterValue="0"/>
            <parameter index="1" name="mute" parameterValue="0"/>
          </component>
          <component componentID="Audition.StereoPanner" id="clipPan" name="StereoPanner" powered="true">
            <parameter index="0" name="Panorámica" parameterValue="25">
              <parameterKeyframes enableSplines="true">
                <parameterKeyframe sampleOffset="224804" select="false" type="linear" value="0.375"/>
                <parameterKeyframe sampleOffset="250497" select="false" type="linear" value="0.6333333"/>
              </parameterKeyframes>
            </parameter>
          </component>
          <fadeIn crossFadeLinkType="linkedAsymmetric" endPoint="0" shape="0" startPoint="0" type="cosine"/>
          <fadeOut crossFadeLinkType="linkedAsymmetric" endPoint="334012" shape="18" startPoint="331994" type="log"/>
          <editParameter parameterIndex="0" slotIndex="4294967280"/>
          <editParameter parameterIndex="0" slotIndex="4294967281"/>
          <channelMap>
            <channel index="0" sourceIndex="0"/>
            <channel index="1" sourceIndex="1"/>
          </channelMap>
        </audioClip>
        <audioClip clipAutoCrossfade="true" crossFadeHeadClipID="7" crossFadeTailClipID="-1" endPoint="5610471" fileID="43" hue="-1" id="8" lockedInTime="false" looped="false" name="VOZ DE FONDO_013" offline="false" select="false" sourceInPoint="89609" sourceOutPoint="415668" startPoint="5284412" zOrder="45512">
          <component componentID="Audition.Fader" id="clipGain" name="volume" powered="true">
            <parameter index="0" name="volume" parameterValue="0">
              <parameterKeyframes enableSplines="true">
                <parameterKeyframe sampleOffset="233954" select="false" type="linear" value="0.65"/>
                <parameterKeyframe sampleOffset="244087" select="false" type="linear" value="0.65"/>
                <parameterKeyframe sampleOffset="258949" select="false" type="linear" value="0.4042373"/>
                <parameterKeyframe sampleOffset="362978" select="false" type="linear" value="0.65"/>
              </parameterKeyframes>
            </parameter>
            <parameter index="1" name="static gain" parameterValue="1"/>
          </component>
          <component componentID="Audition.Mute" id="clipMute" name="Mute" powered="true">
            <parameter index="0" parameterValue="0"/>
            <parameter index="1" name="mute" parameterValue="0"/>
          </component>
          <component componentID="Audition.StereoPanner" id="clipPan" name="StereoPanner" powered="true">
            <parameter index="0" name="Panorámica" parameterValue="20.0000038">
              <parameterKeyframes enableSplines="true">
                <parameterKeyframe sampleOffset="228825" select="false" type="linear" value="0.4"/>
                <parameterKeyframe sampleOffset="276452" select="true" type="linear" value="0.6416667"/>
              </parameterKeyframes>
            </parameter>
          </component>
          <fadeIn crossFadeLinkType="linkedAsymmetric" endPoint="2018" shape="19" startPoint="0" type="log"/>
          <fadeOut crossFadeLinkType="linkedAsymmetric" endPoint="326059" shape="0" startPoint="326059" type="cosine"/>
          <editParameter parameterIndex="0" slotIndex="4294967280"/>
          <editParameter parameterIndex="0" slotIndex="4294967281"/>
          <channelMap>
            <channel index="0" sourceIndex="0"/>
            <channel index="1" sourceIndex="1"/>
          </channelMap>
        </audioClip>
        <audioClip clipAutoCrossfade="true" crossFadeHeadClipID="-1" crossFadeTailClipID="-1" endPoint="6126390" fileID="44" hue="-1" id="9" lockedInTime="false" looped="false" name="VOZ DE FONDO_007" offline="false" select="false" sourceInPoint="0" sourceOutPoint="63535" startPoint="6062855" zOrder="45515">
          <component componentID="Audition.Fader" id="clipGain" name="volume" powered="true">
            <parameter index="0" name="volume" parameterValue="0.8170369"/>
            <parameter index="1" name="static gain" parameterValue="1"/>
          </component>
          <component componentID="Audition.Mute" id="clipMute" name="Mute" powered="true">
            <parameter index="0" parameterValue="0"/>
            <parameter index="1" name="mute" parameterValue="0"/>
          </component>
          <component componentID="Audition.StereoPanner" id="clipPan" name="StereoPanner" powered="true">
            <parameter index="0" name="Panorámica" parameterValue="-29.7523384"/>
          </component>
          <fadeIn crossFadeLinkType="linkedAsymmetric" endPoint="0" shape="0" startPoint="0" type="cosine"/>
          <fadeOut crossFadeLinkType="linkedAsymmetric" endPoint="63535" shape="0" startPoint="63535" type="cosine"/>
          <editParameter parameterIndex="0" slotIndex="4294967280"/>
          <editParameter parameterIndex="0" slotIndex="4294967281"/>
          <channelMap>
            <channel index="0" sourceIndex="0"/>
            <channel index="1" sourceIndex="1"/>
          </channelMap>
        </audioClip>
        <audioClip clipAutoCrossfade="true" crossFadeHeadClipID="-1" crossFadeTailClipID="-1" endPoint="6415939" fileID="45" hue="-1" id="10" lockedInTime="false" looped="false" name="dark horse hey_estrofa" offline="false" select="false" sourceInPoint="0" sourceOutPoint="266559" startPoint="6149380" zOrder="46067">
          <component componentID="Audition.Fader" id="clipGain" name="volume" powered="true">
            <parameter index="0" name="volume" parameterValue="0.9218529"/>
            <parameter index="1" name="static gain" parameterValue="1"/>
          </component>
          <component componentID="Audition.Mute" id="clipMute" name="Mute" powered="true">
            <parameter index="0" parameterValue="0"/>
            <parameter index="1" name="mute" parameterValue="0"/>
          </component>
          <component componentID="Audition.StereoPanner" id="clipPan" name="StereoPanner" powered="true">
            <parameter index="0" name="Panorámica" parameterValue="0"/>
          </component>
          <fadeIn crossFadeLinkType="linkedAsymmetric" endPoint="0" shape="0" startPoint="0" type="cosine"/>
          <fadeOut crossFadeLinkType="linkedAsymmetric" endPoint="266559" shape="19" startPoint="266559" type="log"/>
          <editParameter parameterIndex="0" slotIndex="4294967281"/>
          <editParameter parameterIndex="0" slotIndex="4294967280"/>
          <channelMap>
            <channel index="0" sourceIndex="0"/>
            <channel index="1" sourceIndex="1"/>
          </channelMap>
        </audioClip>
        <audioClip clipAutoCrossfade="true" crossFadeHeadClipID="-1" crossFadeTailClipID="-1" endPoint="6694615" fileID="45" hue="-1" id="11" lockedInTime="false" looped="false" name="dark horse hey_estrofa" offline="false" select="false" sourceInPoint="0" sourceOutPoint="266559" startPoint="6428056" zOrder="46070">
          <component componentID="Audition.Fader" id="clipGain" name="volume" powered="true">
            <parameter index="0" name="volume" parameterValue="0.9218529"/>
            <parameter index="1" name="static gain" parameterValue="1"/>
          </component>
          <component componentID="Audition.Mute" id="clipMute" name="Mute" powered="true">
            <parameter index="0" parameterValue="0"/>
            <parameter index="1" name="mute" parameterValue="0"/>
          </component>
          <component componentID="Audition.StereoPanner" id="clipPan" name="StereoPanner" powered="true">
            <parameter index="0" name="Panorámica" parameterValue="0"/>
          </component>
          <fadeIn crossFadeLinkType="linkedAsymmetric" endPoint="0" shape="0" startPoint="0" type="cosine"/>
          <fadeOut crossFadeLinkType="linkedAsymmetric" endPoint="266559" shape="19" startPoint="266559" type="log"/>
          <editParameter parameterIndex="0" slotIndex="4294967281"/>
          <editParameter parameterIndex="0" slotIndex="4294967280"/>
          <channelMap>
            <channel index="0" sourceIndex="0"/>
            <channel index="1" sourceIndex="1"/>
          </channelMap>
        </audioClip>
        <audioClip clipAutoCrossfade="true" crossFadeHeadClipID="-1" crossFadeTailClipID="-1" endPoint="6976430" fileID="45" hue="-1" id="12" lockedInTime="false" looped="false" name="dark horse hey_estrofa" offline="false" select="false" sourceInPoint="0" sourceOutPoint="266559" startPoint="6709871" zOrder="46076">
          <component componentID="Audition.Fader" id="clipGain" name="volume" powered="true">
            <parameter index="0" name="volume" parameterValue="0.9218529"/>
            <parameter index="1" name="static gain" parameterValue="1"/>
          </component>
          <component componentID="Audition.Mute" id="clipMute" name="Mute" powered="true">
            <parameter index="0" parameterValue="0"/>
            <parameter index="1" name="mute" parameterValue="0"/>
          </component>
          <component componentID="Audition.StereoPanner" id="clipPan" name="StereoPanner" powered="true">
            <parameter index="0" name="Panorámica" parameterValue="0"/>
          </component>
          <fadeIn crossFadeLinkType="linkedAsymmetric" endPoint="0" shape="0" startPoint="0" type="cosine"/>
          <fadeOut crossFadeLinkType="linkedAsymmetric" endPoint="266559" shape="19" startPoint="266559" type="log"/>
          <editParameter parameterIndex="0" slotIndex="4294967281"/>
          <editParameter parameterIndex="0" slotIndex="4294967280"/>
          <channelMap>
            <channel index="0" sourceIndex="0"/>
            <channel index="1" sourceIndex="1"/>
          </channelMap>
        </audioClip>
        <audioClip clipAutoCrossfade="true" crossFadeHeadClipID="-1" crossFadeTailClipID="-1" endPoint="7255736" fileID="45" hue="-1" id="13" lockedInTime="false" looped="false" name="dark horse hey_estrofa" offline="false" select="false" sourceInPoint="0" sourceOutPoint="266559" startPoint="6989177" zOrder="46081">
          <component componentID="Audition.Fader" id="clipGain" name="volume" powered="true">
            <parameter index="0" name="volume" parameterValue="0.9218529"/>
            <parameter index="1" name="static gain" parameterValue="1"/>
          </component>
          <component componentID="Audition.Mute" id="clipMute" name="Mute" powered="true">
            <parameter index="0" parameterValue="0"/>
            <parameter index="1" name="mute" parameterValue="0"/>
          </component>
          <component componentID="Audition.StereoPanner" id="clipPan" name="StereoPanner" powered="true">
            <parameter index="0" name="Panorámica" parameterValue="0"/>
          </component>
          <fadeIn crossFadeLinkType="linkedAsymmetric" endPoint="0" shape="0" startPoint="0" type="cosine"/>
          <fadeOut crossFadeLinkType="linkedAsymmetric" endPoint="266559" shape="19" startPoint="266559" type="log"/>
          <editParameter parameterIndex="0" slotIndex="4294967281"/>
          <editParameter parameterIndex="0" slotIndex="4294967280"/>
          <channelMap>
            <channel index="0" sourceIndex="0"/>
            <channel index="1" sourceIndex="1"/>
          </channelMap>
        </audioClip>
        <audioClip clipAutoCrossfade="true" crossFadeHeadClipID="-1" crossFadeTailClipID="-1" endPoint="7387974" fileID="45" hue="-1" id="14" lockedInTime="false" looped="false" name="dark horse hey_estrofa" offline="false" select="false" sourceInPoint="0" sourceOutPoint="118012" startPoint="7269962" zOrder="46087">
          <component componentID="Audition.Fader" id="clipGain" name="volume" powered="true">
            <parameter index="0" name="volume" parameterValue="0.9218529"/>
            <parameter index="1" name="static gain" parameterValue="1"/>
          </component>
          <component componentID="Audition.Mute" id="clipMute" name="Mute" powered="true">
            <parameter index="0" parameterValue="0"/>
            <parameter index="1" name="mute" parameterValue="0"/>
          </component>
          <component componentID="Audition.StereoPanner" id="clipPan" name="StereoPanner" powered="true">
            <parameter index="0" name="Panorámica" parameterValue="0"/>
          </component>
          <fadeIn crossFadeLinkType="linkedAsymmetric" endPoint="0" shape="0" startPoint="0" type="cosine"/>
          <fadeOut crossFadeLinkType="linkedAsymmetric" endPoint="118012" shape="19" startPoint="118012" type="log"/>
          <editParameter parameterIndex="0" slotIndex="4294967281"/>
          <editParameter parameterIndex="0" slotIndex="4294967280"/>
          <channelMap>
            <channel index="0" sourceIndex="0"/>
            <channel index="1" sourceIndex="1"/>
          </channelMap>
        </audioClip>
        <audioClip clipAutoCrossfade="true" crossFadeHeadClipID="-1" crossFadeTailClipID="-1" endPoint="9290701" fileID="48" hue="-1" id="15" lockedInTime="false" looped="false" name="VOZ DE FONDO_019" offline="false" select="false" sourceInPoint="0" sourceOutPoint="26744" startPoint="9263957" zOrder="45498">
          <component componentID="Audition.Fader" id="clipGain" name="volume" powered="true">
            <parameter index="0" name="volume" parameterValue="1"/>
            <parameter index="1" name="static gain" parameterValue="1"/>
          </component>
          <component componentID="Audition.Mute" id="clipMute" name="Mute" powered="true">
            <parameter index="0" parameterValue="0"/>
            <parameter index="1" name="mute" parameterValue="0"/>
          </component>
          <component componentID="Audition.StereoPanner" id="clipPan" name="StereoPanner" powered="true">
            <parameter index="0" name="Panorámica" parameterValue="0"/>
          </component>
          <fadeIn crossFadeLinkType="linkedAsymmetric" endPoint="0" shape="0" startPoint="0" type="cosine"/>
          <fadeOut crossFadeLinkType="linkedAsymmetric" endPoint="26744" shape="0" startPoint="26744" type="cosine"/>
          <take sourceInPoint="0"/>
          <editParameter parameterIndex="0" slotIndex="4294967281"/>
          <editParameter parameterIndex="0" slotIndex="4294967280"/>
          <channelMap>
            <channel index="0" sourceIndex="0"/>
            <channel index="1" sourceIndex="1"/>
          </channelMap>
        </audioClip>
        <audioClip clipAutoCrossfade="true" crossFadeHeadClipID="-1" crossFadeTailClipID="-1" endPoint="9330642" fileID="48" hue="-1" id="16" lockedInTime="false" looped="false" name="VOZ DE FONDO_019" offline="false" select="false" sourceInPoint="0" sourceOutPoint="26744" startPoint="9303898" zOrder="45495">
          <component componentID="Audition.Fader" id="clipGain" name="volume" powered="true">
            <parameter index="0" name="volume" parameterValue="1"/>
            <parameter index="1" name="static gain" parameterValue="1"/>
          </component>
          <component componentID="Audition.Mute" id="clipMute" name="Mute" powered="true">
            <parameter index="0" parameterValue="0"/>
            <parameter index="1" name="mute" parameterValue="0"/>
          </component>
          <component componentID="Audition.StereoPanner" id="clipPan" name="StereoPanner" powered="true">
            <parameter index="0" name="Panorámica" parameterValue="0"/>
          </component>
          <fadeIn crossFadeLinkType="linkedAsymmetric" endPoint="0" shape="0" startPoint="0" type="cosine"/>
          <fadeOut crossFadeLinkType="linkedAsymmetric" endPoint="26744" shape="0" startPoint="26744" type="cosine"/>
          <editParameter parameterIndex="0" slotIndex="4294967281"/>
          <editParameter parameterIndex="0" slotIndex="4294967280"/>
          <channelMap>
            <channel index="0" sourceIndex="0"/>
            <channel index="1" sourceIndex="1"/>
          </channelMap>
        </audioClip>
        <audioClip clipAutoCrossfade="true" crossFadeHeadClipID="-1" crossFadeTailClipID="-1" endPoint="9370703" fileID="48" hue="-1" id="17" lockedInTime="false" looped="false" name="VOZ DE FONDO_019" offline="false" select="false" sourceInPoint="0" sourceOutPoint="26744" startPoint="9343959" zOrder="45494">
          <component componentID="Audition.Fader" id="clipGain" name="volume" powered="true">
            <parameter index="0" name="volume" parameterValue="1"/>
            <parameter index="1" name="static gain" parameterValue="1"/>
          </component>
          <component componentID="Audition.Mute" id="clipMute" name="Mute" powered="true">
            <parameter index="0" parameterValue="0"/>
            <parameter index="1" name="mute" parameterValue="0"/>
          </component>
          <component componentID="Audition.StereoPanner" id="clipPan" name="StereoPanner" powered="true">
            <parameter index="0" name="Panorámica" parameterValue="0"/>
          </component>
          <fadeIn crossFadeLinkType="linkedAsymmetric" endPoint="0" shape="0" startPoint="0" type="cosine"/>
          <fadeOut crossFadeLinkType="linkedAsymmetric" endPoint="26744" shape="0" startPoint="26744" type="cosine"/>
          <editParameter parameterIndex="0" slotIndex="4294967281"/>
          <editParameter parameterIndex="0" slotIndex="4294967280"/>
          <channelMap>
            <channel index="0" sourceIndex="0"/>
            <channel index="1" sourceIndex="1"/>
          </channelMap>
        </audioClip>
        <audioClip clipAutoCrossfade="true" crossFadeHeadClipID="-1" crossFadeTailClipID="-1" endPoint="9410977" fileID="48" hue="-1" id="18" lockedInTime="false" looped="false" name="VOZ DE FONDO_019" offline="false" select="false" sourceInPoint="0" sourceOutPoint="26744" startPoint="9384233" zOrder="45496">
          <component componentID="Audition.Fader" id="clipGain" name="volume" powered="true">
            <parameter index="0" name="volume" parameterValue="1"/>
            <parameter index="1" name="static gain" parameterValue="1"/>
          </component>
          <component componentID="Audition.Mute" id="clipMute" name="Mute" powered="true">
            <parameter index="0" parameterValue="0"/>
            <parameter index="1" name="mute" parameterValue="0"/>
          </component>
          <component componentID="Audition.StereoPanner" id="clipPan" name="StereoPanner" powered="true">
            <parameter index="0" name="Panorámica" parameterValue="0"/>
          </component>
          <fadeIn crossFadeLinkType="linkedAsymmetric" endPoint="0" shape="0" startPoint="0" type="cosine"/>
          <fadeOut crossFadeLinkType="linkedAsymmetric" endPoint="26744" shape="0" startPoint="26744" type="cosine"/>
          <editParameter parameterIndex="0" slotIndex="4294967281"/>
          <editParameter parameterIndex="0" slotIndex="4294967280"/>
          <channelMap>
            <channel index="0" sourceIndex="0"/>
            <channel index="1" sourceIndex="1"/>
          </channelMap>
        </audioClip>
        <audioClip clipAutoCrossfade="true" crossFadeHeadClipID="-1" crossFadeTailClipID="-1" endPoint="9451138" fileID="48" hue="-1" id="19" lockedInTime="false" looped="false" name="VOZ DE FONDO_019" offline="false" select="false" sourceInPoint="0" sourceOutPoint="26744" startPoint="9424394" zOrder="45491">
          <component componentID="Audition.Fader" id="clipGain" name="volume" powered="true">
            <parameter index="0" name="volume" parameterValue="1"/>
            <parameter index="1" name="static gain" parameterValue="1"/>
          </component>
          <component componentID="Audition.Mute" id="clipMute" name="Mute" powered="true">
            <parameter index="0" parameterValue="0"/>
            <parameter index="1" name="mute" parameterValue="0"/>
          </component>
          <component componentID="Audition.StereoPanner" id="clipPan" name="StereoPanner" powered="true">
            <parameter index="0" name="Panorámica" parameterValue="0"/>
          </component>
          <fadeIn crossFadeLinkType="linkedAsymmetric" endPoint="0" shape="0" startPoint="0" type="cosine"/>
          <fadeOut crossFadeLinkType="linkedAsymmetric" endPoint="26744" shape="0" startPoint="26744" type="cosine"/>
          <editParameter parameterIndex="0" slotIndex="4294967281"/>
          <editParameter parameterIndex="0" slotIndex="4294967280"/>
          <channelMap>
            <channel index="0" sourceIndex="0"/>
            <channel index="1" sourceIndex="1"/>
          </channelMap>
        </audioClip>
        <audioClip clipAutoCrossfade="true" crossFadeHeadClipID="-1" crossFadeTailClipID="-1" endPoint="9491110" fileID="48" hue="-1" id="20" lockedInTime="false" looped="false" name="VOZ DE FONDO_019" offline="false" select="false" sourceInPoint="0" sourceOutPoint="26744" startPoint="9464366" zOrder="45492">
          <component componentID="Audition.Fader" id="clipGain" name="volume" powered="true">
            <parameter index="0" name="volume" parameterValue="1"/>
            <parameter index="1" name="static gain" parameterValue="1"/>
          </component>
          <component componentID="Audition.Mute" id="clipMute" name="Mute" powered="true">
            <parameter index="0" parameterValue="0"/>
            <parameter index="1" name="mute" parameterValue="0"/>
          </component>
          <component componentID="Audition.StereoPanner" id="clipPan" name="StereoPanner" powered="true">
            <parameter index="0" name="Panorámica" parameterValue="0"/>
          </component>
          <fadeIn crossFadeLinkType="linkedAsymmetric" endPoint="0" shape="0" startPoint="0" type="cosine"/>
          <fadeOut crossFadeLinkType="linkedAsymmetric" endPoint="26744" shape="0" startPoint="26744" type="cosine"/>
          <editParameter parameterIndex="0" slotIndex="4294967281"/>
          <editParameter parameterIndex="0" slotIndex="4294967280"/>
          <channelMap>
            <channel index="0" sourceIndex="0"/>
            <channel index="1" sourceIndex="1"/>
          </channelMap>
        </audioClip>
        <audioClip clipAutoCrossfade="true" crossFadeHeadClipID="-1" crossFadeTailClipID="-1" endPoint="9531161" fileID="48" hue="-1" id="21" lockedInTime="false" looped="false" name="VOZ DE FONDO_019" offline="false" select="false" sourceInPoint="0" sourceOutPoint="26744" startPoint="9504417" zOrder="45493">
          <component componentID="Audition.Fader" id="clipGain" name="volume" powered="true">
            <parameter index="0" name="volume" parameterValue="1"/>
            <parameter index="1" name="static gain" parameterValue="1"/>
          </component>
          <component componentID="Audition.Mute" id="clipMute" name="Mute" powered="true">
            <parameter index="0" parameterValue="0"/>
            <parameter index="1" name="mute" parameterValue="0"/>
          </component>
          <component componentID="Audition.StereoPanner" id="clipPan" name="StereoPanner" powered="true">
            <parameter index="0" name="Panorámica" parameterValue="0"/>
          </component>
          <fadeIn crossFadeLinkType="linkedAsymmetric" endPoint="0" shape="18" startPoint="0" type="log"/>
          <fadeOut crossFadeLinkType="linkedAsymmetric" endPoint="26744" shape="0" startPoint="26744" type="cosine"/>
          <editParameter parameterIndex="0" slotIndex="4294967281"/>
          <editParameter parameterIndex="0" slotIndex="4294967280"/>
          <channelMap>
            <channel index="0" sourceIndex="0"/>
            <channel index="1" sourceIndex="1"/>
          </channelMap>
        </audioClip>
        <audioClip clipAutoCrossfade="true" crossFadeHeadClipID="-1" crossFadeTailClipID="-1" endPoint="13049856" fileID="49" hue="-1" id="22" lockedInTime="false" looped="false" name="darkhorse_backvoices" offline="false" select="false" sourceInPoint="0" sourceOutPoint="82696" startPoint="12967160" zOrder="39896">
          <component componentID="Audition.Fader" id="clipGain" name="volume" powered="true">
            <parameter index="0" name="volume" parameterValue="0">
              <parameterKeyframes enableSplines="true">
                <parameterKeyframe sampleOffset="256330" select="false" type="linear" value="0.65"/>
                <parameterKeyframe sampleOffset="260535" select="false" type="linear" value="0.65"/>
                <parameterKeyframe sampleOffset="284112" select="false" type="linear" value="0.7506158"/>
                <parameterKeyframe sampleOffset="348832" select="false" type="linear" value="0.8233333"/>
                <parameterKeyframe sampleOffset="356511" select="false" type="linear" value="0.7430973"/>
                <parameterKeyframe sampleOffset="369055" select="false" type="linear" value="0.65"/>
                <parameterKeyframe sampleOffset="467026" select="false" type="linear" value="0.65"/>
                <parameterKeyframe sampleOffset="476708" select="false" type="linear" value="0.5526549"/>
                <parameterKeyframe sampleOffset="572500" select="false" type="linear" value="0.5615044"/>
                <parameterKeyframe sampleOffset="577596" select="false" type="linear" value="0.65"/>
              </parameterKeyframes>
            </parameter>
            <parameter index="1" name="static gain" parameterValue="1"/>
          </component>
          <component componentID="Audition.Mute" id="clipMute" name="Mute" powered="true">
            <parameter index="0" parameterValue="0"/>
            <parameter index="1" name="mute" parameterValue="0"/>
          </component>
          <component componentID="Audition.StereoPanner" id="clipPan" name="StereoPanner" powered="true">
            <parameter index="0" name="Panorámica" parameterValue="0">
              <parameterKeyframes enableSplines="true">
                <parameterKeyframe sampleOffset="258499" select="false" type="linear" value="0.5"/>
                <parameterKeyframe sampleOffset="265362" select="false" type="linear" value="0.5"/>
                <parameterKeyframe sampleOffset="272434" select="false" type="linear" value="0.151495"/>
                <parameterKeyframe sampleOffset="351610" select="false" type="linear" value="0.1427855"/>
                <parameterKeyframe sampleOffset="356866" select="false" type="linear" value="0.5"/>
                <parameterKeyframe sampleOffset="360297" select="false" type="linear" value="0.5"/>
              </parameterKeyframes>
            </parameter>
          </component>
          <fadeIn crossFadeLinkType="linkedAsymmetric" endPoint="0" shape="19" startPoint="0" type="log"/>
          <fadeOut crossFadeLinkType="linkedAsymmetric" endPoint="82696" shape="0" startPoint="82696" type="cosine"/>
          <editParameter parameterIndex="0" slotIndex="4294967281"/>
          <editParameter parameterIndex="0" slotIndex="4294967280"/>
          <channelMap>
            <channel index="0" sourceIndex="0"/>
            <channel index="1" sourceIndex="1"/>
          </channelMap>
        </audioClip>
        <audioClip clipAutoCrossfade="true" crossFadeHeadClipID="-1" crossFadeTailClipID="-1" endPoint="13177035" fileID="49" hue="-1" id="23" lockedInTime="false" looped="false" name="darkhorse_backvoices" offline="false" select="false" sourceInPoint="93577" sourceOutPoint="213009" startPoint="13057603" zOrder="38119">
          <component componentID="Audition.Fader" id="clipGain" name="volume" powered="true">
            <parameter index="0" name="volume" parameterValue="0">
              <parameterKeyframes enableSplines="true">
                <parameterKeyframe sampleOffset="256330" select="false" type="linear" value="0.65"/>
                <parameterKeyframe sampleOffset="260535" select="false" type="linear" value="0.65"/>
                <parameterKeyframe sampleOffset="284112" select="false" type="linear" value="0.7506158"/>
                <parameterKeyframe sampleOffset="348832" select="false" type="linear" value="0.8233333"/>
                <parameterKeyframe sampleOffset="356511" select="false" type="linear" value="0.7430973"/>
                <parameterKeyframe sampleOffset="369055" select="false" type="linear" value="0.65"/>
                <parameterKeyframe sampleOffset="467026" select="false" type="linear" value="0.65"/>
                <parameterKeyframe sampleOffset="476708" select="false" type="linear" value="0.5526549"/>
                <parameterKeyframe sampleOffset="572500" select="false" type="linear" value="0.5615044"/>
                <parameterKeyframe sampleOffset="577596" select="false" type="linear" value="0.65"/>
              </parameterKeyframes>
            </parameter>
            <parameter index="1" name="static gain" parameterValue="1"/>
          </component>
          <component componentID="Audition.Mute" id="clipMute" name="Mute" powered="true">
            <parameter index="0" parameterValue="0"/>
            <parameter index="1" name="mute" parameterValue="0"/>
          </component>
          <component componentID="Audition.StereoPanner" id="clipPan" name="StereoPanner" powered="true">
            <parameter index="0" name="Panorámica" parameterValue="0">
              <parameterKeyframes enableSplines="true">
                <parameterKeyframe sampleOffset="258499" select="false" type="linear" value="0.5"/>
                <parameterKeyframe sampleOffset="265362" select="false" type="linear" value="0.5"/>
                <parameterKeyframe sampleOffset="272434" select="false" type="linear" value="0.151495"/>
                <parameterKeyframe sampleOffset="351610" select="false" type="linear" value="0.1427855"/>
                <parameterKeyframe sampleOffset="356866" select="false" type="linear" value="0.5"/>
                <parameterKeyframe sampleOffset="360297" select="false" type="linear" value="0.5"/>
              </parameterKeyframes>
            </parameter>
          </component>
          <fadeIn crossFadeLinkType="linkedAsymmetric" endPoint="0" shape="19" startPoint="0" type="log"/>
          <fadeOut crossFadeLinkType="linkedAsymmetric" endPoint="119432" shape="18" startPoint="119432" type="log"/>
          <editParameter parameterIndex="0" slotIndex="4294967281"/>
          <editParameter parameterIndex="0" slotIndex="4294967280"/>
          <channelMap>
            <channel index="0" sourceIndex="0"/>
            <channel index="1" sourceIndex="1"/>
          </channelMap>
        </audioClip>
        <audioClip clipAutoCrossfade="true" crossFadeHeadClipID="-1" crossFadeTailClipID="-1" endPoint="13287803" fileID="49" hue="-1" id="24" lockedInTime="false" looped="false" name="darkhorse_backvoices" offline="false" select="false" sourceInPoint="256875" sourceOutPoint="323543" startPoint="13221135" zOrder="38122">
          <component componentID="Audition.Fader" id="clipGain" name="volume" powered="true">
            <parameter index="0" name="volume" parameterValue="0">
              <parameterKeyframes enableSplines="true">
                <parameterKeyframe sampleOffset="256330" select="false" type="linear" value="0.65"/>
                <parameterKeyframe sampleOffset="260535" select="false" type="linear" value="0.65"/>
                <parameterKeyframe sampleOffset="293789" select="false" type="linear" value="0.7850985"/>
                <parameterKeyframe sampleOffset="348832" select="false" type="linear" value="0.8233333"/>
                <parameterKeyframe sampleOffset="356511" select="false" type="linear" value="0.7430973"/>
                <parameterKeyframe sampleOffset="369055" select="false" type="linear" value="0.65"/>
                <parameterKeyframe sampleOffset="467026" select="false" type="linear" value="0.65"/>
                <parameterKeyframe sampleOffset="476708" select="false" type="linear" value="0.5526549"/>
                <parameterKeyframe sampleOffset="572500" select="false" type="linear" value="0.5615044"/>
                <parameterKeyframe sampleOffset="577596" select="false" type="linear" value="0.65"/>
              </parameterKeyframes>
            </parameter>
            <parameter index="1" name="static gain" parameterValue="1"/>
          </component>
          <component componentID="Audition.Mute" id="clipMute" name="Mute" powered="true">
            <parameter index="0" parameterValue="0"/>
            <parameter index="1" name="mute" parameterValue="0"/>
          </component>
          <component componentID="Audition.StereoPanner" id="clipPan" name="StereoPanner" powered="true">
            <parameter index="0" name="Panorámica" parameterValue="0">
              <parameterKeyframes enableSplines="true">
                <parameterKeyframe sampleOffset="258499" select="false" type="linear" value="0.5"/>
                <parameterKeyframe sampleOffset="265362" select="false" type="linear" value="0.5"/>
                <parameterKeyframe sampleOffset="272737" select="true" type="linear" value="0.0873925"/>
                <parameterKeyframe sampleOffset="351610" select="false" type="linear" value="0.1427855"/>
                <parameterKeyframe sampleOffset="356866" select="false" type="linear" value="0.5"/>
                <parameterKeyframe sampleOffset="360297" select="false" type="linear" value="0.5"/>
              </parameterKeyframes>
            </parameter>
          </component>
          <fadeIn crossFadeLinkType="linkedAsymmetric" endPoint="0" shape="19" startPoint="0" type="log"/>
          <fadeOut crossFadeLinkType="linkedAsymmetric" endPoint="66668" shape="0" startPoint="66668" type="cosine"/>
          <editParameter parameterIndex="0" slotIndex="4294967280"/>
          <editParameter parameterIndex="0" slotIndex="4294967281"/>
          <channelMap>
            <channel index="0" sourceIndex="0"/>
            <channel index="1" sourceIndex="1"/>
          </channelMap>
        </audioClip>
        <audioClip clipAutoCrossfade="true" crossFadeHeadClipID="-1" crossFadeTailClipID="26" endPoint="13326835" fileID="49" hue="-1" id="25" lockedInTime="false" looped="false" name="darkhorse_backvoices" offline="false" select="false" sourceInPoint="358623" sourceOutPoint="397572" startPoint="13287886" zOrder="38123">
          <component componentID="Audition.Fader" id="clipGain" name="volume" powered="true">
            <parameter index="0" name="volume" parameterValue="0">
              <parameterKeyframes enableSplines="true">
                <parameterKeyframe sampleOffset="284050" select="false" type="linear" value="0.65"/>
                <parameterKeyframe sampleOffset="288710" select="false" type="linear" value="0.65"/>
                <parameterKeyframe sampleOffset="314836" select="false" type="linear" value="0.7506158"/>
                <parameterKeyframe sampleOffset="381674" select="false" type="linear" value="0.8233333"/>
                <parameterKeyframe sampleOffset="395065" select="false" type="linear" value="0.7430973"/>
                <parameterKeyframe sampleOffset="408965" select="false" type="linear" value="0.65"/>
                <parameterKeyframe sampleOffset="517531" select="false" type="linear" value="0.65"/>
                <parameterKeyframe sampleOffset="528260" select="false" type="linear" value="0.5526549"/>
                <parameterKeyframe sampleOffset="634411" select="false" type="linear" value="0.5615044"/>
                <parameterKeyframe sampleOffset="640058" select="false" type="linear" value="0.65"/>
              </parameterKeyframes>
            </parameter>
            <parameter index="1" name="static gain" parameterValue="1"/>
          </component>
          <component componentID="Audition.Mute" id="clipMute" name="Mute" powered="true">
            <parameter index="0" parameterValue="0"/>
            <parameter index="1" name="mute" parameterValue="0"/>
          </component>
          <component componentID="Audition.StereoPanner" id="clipPan" name="StereoPanner" powered="true">
            <parameter index="0" name="Panorámica" parameterValue="0">
              <parameterKeyframes enableSplines="true">
                <parameterKeyframe sampleOffset="286454" select="false" type="linear" value="0.5"/>
                <parameterKeyframe sampleOffset="294059" select="false" type="linear" value="0.5"/>
                <parameterKeyframe sampleOffset="301895" select="false" type="linear" value="0.151495"/>
                <parameterKeyframe sampleOffset="389634" select="false" type="linear" value="0.1427855"/>
                <parameterKeyframe sampleOffset="395458" select="false" type="linear" value="0.5"/>
                <parameterKeyframe sampleOffset="399260" select="false" type="linear" value="0.5"/>
              </parameterKeyframes>
            </parameter>
          </component>
          <fadeIn crossFadeLinkType="linkedAsymmetric" endPoint="0" shape="0" startPoint="0" type="cosine"/>
          <fadeOut crossFadeLinkType="linkedAsymmetric" endPoint="38949" shape="19" startPoint="38293" type="log"/>
          <clipStretch adaptiveWindowSize="37" pitchAdjustment="0" preserveFormants="true" stretchMode="realtime" stretchQuality="high" stretchRatio="1.1081417200972805" stretchType="solo" transientSensitivity="40"/>
          <editParameter parameterIndex="0" slotIndex="4294967281"/>
          <editParameter parameterIndex="0" slotIndex="4294967280"/>
          <channelMap>
            <channel index="0" sourceIndex="0"/>
            <channel index="1" sourceIndex="1"/>
          </channelMap>
        </audioClip>
        <audioClip clipAutoCrossfade="true" crossFadeHeadClipID="25" crossFadeTailClipID="-1" endPoint="13351776" fileID="49" hue="-1" id="26" lockedInTime="false" looped="false" name="darkhorse_backvoices" offline="false" select="false" sourceInPoint="358644" sourceOutPoint="384241" startPoint="13326179" zOrder="36616">
          <component componentID="Audition.Fader" id="clipGain" name="volume" powered="true">
            <parameter index="0" name="volume" parameterValue="0">
              <parameterKeyframes enableSplines="true">
                <parameterKeyframe sampleOffset="256330" select="false" type="linear" value="0.65"/>
                <parameterKeyframe sampleOffset="260535" select="false" type="linear" value="0.65"/>
                <parameterKeyframe sampleOffset="284112" select="false" type="linear" value="0.7506158"/>
                <parameterKeyframe sampleOffset="348832" select="false" type="linear" value="0.8233333"/>
                <parameterKeyframe sampleOffset="356511" select="false" type="linear" value="0.7430973"/>
                <parameterKeyframe sampleOffset="360896" select="true" type="linear" value="0.5210739"/>
                <parameterKeyframe sampleOffset="467026" select="false" type="linear" value="0.65"/>
                <parameterKeyframe sampleOffset="476708" select="false" type="linear" value="0.5526549"/>
                <parameterKeyframe sampleOffset="572500" select="false" type="linear" value="0.5615044"/>
                <parameterKeyframe sampleOffset="577596" select="false" type="linear" value="0.65"/>
              </parameterKeyframes>
            </parameter>
            <parameter index="1" name="static gain" parameterValue="1"/>
          </component>
          <component componentID="Audition.Mute" id="clipMute" name="Mute" powered="true">
            <parameter index="0" parameterValue="0"/>
            <parameter index="1" name="mute" parameterValue="0"/>
          </component>
          <component componentID="Audition.StereoPanner" id="clipPan" name="StereoPanner" powered="true">
            <parameter index="0" name="Panorámica" parameterValue="0">
              <parameterKeyframes enableSplines="true">
                <parameterKeyframe sampleOffset="258499" select="false" type="linear" value="0.5"/>
                <parameterKeyframe sampleOffset="265362" select="false" type="linear" value="0.5"/>
                <parameterKeyframe sampleOffset="272434" select="false" type="linear" value="0.151495"/>
                <parameterKeyframe sampleOffset="351610" select="false" type="linear" value="0.1427855"/>
                <parameterKeyframe sampleOffset="356866" select="false" type="linear" value="0.5"/>
                <parameterKeyframe sampleOffset="360297" select="false" type="linear" value="0.5"/>
              </parameterKeyframes>
            </parameter>
          </component>
          <fadeIn crossFadeLinkType="linkedAsymmetric" endPoint="656" shape="18" startPoint="0" type="log"/>
          <fadeOut crossFadeLinkType="linkedAsymmetric" endPoint="25597" shape="0" startPoint="25597" type="cosine"/>
          <editParameter parameterIndex="0" slotIndex="4294967281"/>
          <editParameter parameterIndex="0" slotIndex="4294967280"/>
          <channelMap>
            <channel index="0" sourceIndex="0"/>
            <channel index="1" sourceIndex="1"/>
          </channelMap>
        </audioClip>
        <audioClip clipAutoCrossfade="true" crossFadeHeadClipID="-1" crossFadeTailClipID="-1" endPoint="13611505" fileID="49" hue="-1" id="27" lockedInTime="false" looped="false" name="darkhorse_backvoices" offline="false" select="false" sourceInPoint="473917" sourceOutPoint="642816" startPoint="13442606" zOrder="39900">
          <component componentID="Audition.Fader" id="clipGain" name="volume" powered="true">
            <parameter index="0" name="volume" parameterValue="0">
              <parameterKeyframes enableSplines="true">
                <parameterKeyframe sampleOffset="256330" select="false" type="linear" value="0.65"/>
                <parameterKeyframe sampleOffset="260535" select="false" type="linear" value="0.65"/>
                <parameterKeyframe sampleOffset="284112" select="false" type="linear" value="0.7506158"/>
                <parameterKeyframe sampleOffset="348832" select="false" type="linear" value="0.8233333"/>
                <parameterKeyframe sampleOffset="356511" select="false" type="linear" value="0.7430973"/>
                <parameterKeyframe sampleOffset="369055" select="false" type="linear" value="0.65"/>
                <parameterKeyframe sampleOffset="467026" select="false" type="linear" value="0.65"/>
                <parameterKeyframe sampleOffset="471857" select="false" type="linear" value="0.5359325"/>
                <parameterKeyframe sampleOffset="519321" select="false" type="linear" value="0.4668101"/>
                <parameterKeyframe sampleOffset="576978" select="false" type="linear" value="0.5696891"/>
                <parameterKeyframe sampleOffset="614110" select="false" type="linear" value="0.5008098"/>
              </parameterKeyframes>
            </parameter>
            <parameter index="1" name="static gain" parameterValue="1"/>
          </component>
          <component componentID="Audition.Mute" id="clipMute" name="Mute" powered="true">
            <parameter index="0" parameterValue="0"/>
            <parameter index="1" name="mute" parameterValue="0"/>
          </component>
          <component componentID="Audition.StereoPanner" id="clipPan" name="StereoPanner" powered="true">
            <parameter index="0" name="Panorámica" parameterValue="0">
              <parameterKeyframes enableSplines="true">
                <parameterKeyframe sampleOffset="258499" select="false" type="linear" value="0.5"/>
                <parameterKeyframe sampleOffset="265362" select="false" type="linear" value="0.5"/>
                <parameterKeyframe sampleOffset="272434" select="false" type="linear" value="0.151495"/>
                <parameterKeyframe sampleOffset="351610" select="false" type="linear" value="0.1427855"/>
                <parameterKeyframe sampleOffset="356866" select="false" type="linear" value="0.5"/>
                <parameterKeyframe sampleOffset="360297" select="false" type="linear" value="0.5"/>
              </parameterKeyframes>
            </parameter>
          </component>
          <fadeIn crossFadeLinkType="linkedAsymmetric" endPoint="0" shape="18" startPoint="0" type="log"/>
          <fadeOut crossFadeLinkType="linkedAsymmetric" endPoint="168899" shape="0" startPoint="168899" type="cosine"/>
          <editParameter parameterIndex="0" slotIndex="4294967281"/>
          <editParameter parameterIndex="0" slotIndex="4294967280"/>
          <channelMap>
            <channel index="0" sourceIndex="0"/>
            <channel index="1" sourceIndex="1"/>
          </channelMap>
        </audioClip>
      </audioTrack>
      <audioTrack automationLaneOpenState="false" id="10036" index="9" select="false" visible="true">
        <trackParameters trackHeight="129">
          <name>VOZ DE FONDO 2</name>
        </trackParameters>
        <trackAudioParameters audioChannelType="stereo" automationMode="1" monitoring="false" recordArmed="false" solo="false" soloSafe="false">
          <trackOutput outputID="10000" type="trackID"/>
          <trackInput inputID="-1"/>
          <component componentID="Audition.Fader" id="trackFader" name="volume" powered="true">
            <parameter index="0" name="volume" parameterValue="1"/>
            <parameter index="1" name="static gain" parameterValue="1"/>
          </component>
          <component componentID="Audition.Mute" id="trackMute" name="Mute" powered="true">
            <parameter index="0" parameterValue="0"/>
            <parameter index="1" name="mute" parameterValue="0"/>
          </component>
          <component componentID="Audition.StereoPanner" id="trackPan" name="StereoPanner" powered="true">
            <parameter index="0" name="Panorámica" parameterValue="0"/>
          </component>
          <component componentID="Audition.EQ" id="trackEQ" name="EQ" powered="false">
            <parameter index="0" name="Frecuencia estante inferior" parameterValue="0.0009079"/>
            <parameter index="1" name="Ganancia estante inferior" parameterValue="0.5"/>
            <parameter index="2" name="Frecuencia estante superior" parameterValue="0.8161598"/>
            <parameter index="3" name="Ganancia estante superior" parameterValue="0.5"/>
            <parameter index="4" name="Frecuencia central de banda de EC 1" parameterValue="0.0013618"/>
            <parameter index="5" name="Valor Q de banda de EC 1" parameterValue="0.0002"/>
            <parameter index="6" name="Ganancia de banda de EC 1" parameterValue="0.5"/>
            <parameter index="7" name="Activación de banda de EC 1" parameterValue="1"/>
            <parameter index="8" name="Frecuencia central de banda de EC 2" parameterValue="0.0081707"/>
            <parameter index="9" name="Valor Q de banda de EC 2" parameterValue="0.0002"/>
            <parameter index="10" name="Ganancia de banda de EC 2" parameterValue="0.5"/>
            <parameter index="11" name="Activación de banda de EC 2" parameterValue="1"/>
            <parameter index="12" name="Frecuencia central de banda de EC 3" parameterValue="0.0354063"/>
            <parameter index="13" name="Valor Q de banda de EC 3" parameterValue="0.0002"/>
            <parameter index="14" name="Ganancia de banda de EC 3" parameterValue="0.5"/>
            <parameter index="15" name="Activación de banda de EC 3" parameterValue="1"/>
            <parameter index="16" name="Frecuencia central de banda de EC 4" parameterValue="0.1443486"/>
            <parameter index="17" name="Valor Q de banda de EC 4" parameterValue="0.0002"/>
            <parameter index="18" name="Ganancia de banda de EC 4" parameterValue="0.5"/>
            <parameter index="19" name="Activación de banda de EC 4" parameterValue="1"/>
            <parameter index="20" name="Frecuencia central de banda de EC 5" parameterValue="0.580118"/>
            <parameter index="21" name="Valor Q de banda de EC 5" parameterValue="0.0002"/>
            <parameter index="22" name="Ganancia de banda de EC 5" parameterValue="0.5"/>
            <parameter index="23" name="Activación de banda de EC 5" parameterValue="1"/>
            <parameter index="24" name="Ganancia maestra" parameterValue="0.6666667"/>
            <parameter index="25" name="Constant Q" parameterValue="1"/>
            <parameter index="26" name="Orden de filtro de estante inferior" parameterValue="0"/>
            <parameter index="27" name="Orden de filtro de estante superior" parameterValue="0"/>
            <parameter index="28" name="Modo ultrasilencioso" parameterValue="0"/>
            <parameter index="29" name="Activar estante inferior" parameterValue="1"/>
            <parameter index="30" name="Activar estante superior" parameterValue="1"/>
            <parameter index="31" name="Velocidad de muestreo original" parameterValue="0.2296875"/>
            <parameter index="32" name="Ancho de banda de EC 1" parameterValue="0.0025"/>
            <parameter index="33" name="Ancho de banda de EC 2" parameterValue="0.01"/>
            <parameter index="34" name="Ancho de banda de EC 3" parameterValue="0.04"/>
            <parameter index="35" name="Ancho de banda de EC 4" parameterValue="0.16"/>
            <parameter index="36" name="Ancho de banda de EC 5" parameterValue="0.64"/>
            <parameter index="37" name="Activación de filtro de pase alto" parameterValue="0"/>
            <parameter index="38" name="Frecuencia de límite de paso alto" parameterValue="0"/>
            <parameter index="39" name="Pendiente de paso alto" parameterValue="4"/>
            <parameter index="40" name="Activación de filtro de pase bajo" parameterValue="0"/>
            <parameter index="41" name="Frecuencia de límite de paso bajo" parameterValue="0.906945"/>
            <parameter index="42" name="Pendiente de paso bajo" parameterValue="4"/>
            <parameter index="43" name="Omitir" parameterValue="0"/>
            <parameter index="44" name="Rango de gráfico bajo" parameterValue="1"/>
          </component>
        </trackAudioParameters>
        <editParameter parameterIndex="0" slotIndex="4294967280"/>
        <sendList>
          <sendSlot preFader="false" sendOutputID="0" slotIndex="0">
            <component id="sendComponent" powered="false">
              <parameter index="0" name="Encendido/Apagado" parameterValue="0"/>
              <parameter index="1" name="Nivel" parameterValue="0"/>
            </component>
            <component id="sendPan" powered="true"/>
          </sendSlot>
          <sendSlot preFader="false" sendOutputID="0" slotIndex="1">
            <component id="sendComponent" powered="false">
              <parameter index="0" name="Encendido/Apagado" parameterValue="0"/>
              <parameter index="1" name="Nivel" parameterValue="0"/>
            </component>
            <component id="sendPan" powered="true"/>
          </sendSlot>
          <sendSlot preFader="false" sendOutputID="0" slotIndex="2">
            <component id="sendComponent" powered="false">
              <parameter index="0" name="Encendido/Apagado" parameterValue="0"/>
              <parameter index="1" name="Nivel" parameterValue="0"/>
            </component>
            <component id="sendPan" powered="true"/>
          </sendSlot>
          <sendSlot preFader="false" sendOutputID="0" slotIndex="3">
            <component id="sendComponent" powered="false">
              <parameter index="0" name="Encendido/Apagado" parameterValue="0"/>
              <parameter index="1" name="Nivel" parameterValue="0"/>
            </component>
            <component id="sendPan" powered="true"/>
          </sendSlot>
          <sendSlot preFader="false" sendOutputID="0" slotIndex="4">
            <component id="sendComponent" powered="false">
              <parameter index="0" name="Encendido/Apagado" parameterValue="0"/>
              <parameter index="1" name="Nivel" parameterValue="0"/>
            </component>
            <component id="sendPan" powered="true"/>
          </sendSlot>
          <sendSlot preFader="false" sendOutputID="0" slotIndex="5">
            <component id="sendComponent" powered="false">
              <parameter index="0" name="Encendido/Apagado" parameterValue="0"/>
              <parameter index="1" name="Nivel" parameterValue="0"/>
            </component>
            <component id="sendPan" powered="true"/>
          </sendSlot>
          <sendSlot preFader="false" sendOutputID="0" slotIndex="6">
            <component id="sendComponent" powered="false">
              <parameter index="0" name="Encendido/Apagado" parameterValue="0"/>
              <parameter index="1" name="Nivel" parameterValue="0"/>
            </component>
            <component id="sendPan" powered="true"/>
          </sendSlot>
          <sendSlot preFader="false" sendOutputID="0" slotIndex="7">
            <component id="sendComponent" powered="false">
              <parameter index="0" name="Encendido/Apagado" parameterValue="0"/>
              <parameter index="1" name="Nivel" parameterValue="0"/>
            </component>
            <component id="sendPan" powered="true"/>
          </sendSlot>
          <sendSlot preFader="false" sendOutputID="0" slotIndex="8">
            <component id="sendComponent" powered="false">
              <parameter index="0" name="Encendido/Apagado" parameterValue="0"/>
              <parameter index="1" name="Nivel" parameterValue="0"/>
            </component>
            <component id="sendPan" powered="true"/>
          </sendSlot>
          <sendSlot preFader="false" sendOutputID="0" slotIndex="9">
            <component id="sendComponent" powered="false">
              <parameter index="0" name="Encendido/Apagado" parameterValue="0"/>
              <parameter index="1" name="Nivel" parameterValue="0"/>
            </component>
            <component id="sendPan" powered="true"/>
          </sendSlot>
          <sendSlot preFader="false" sendOutputID="0" slotIndex="10">
            <component id="sendComponent" powered="false">
              <parameter index="0" name="Encendido/Apagado" parameterValue="0"/>
              <parameter index="1" name="Nivel" parameterValue="0"/>
            </component>
            <component id="sendPan" powered="true"/>
          </sendSlot>
          <sendSlot preFader="false" sendOutputID="0" slotIndex="11">
            <component id="sendComponent" powered="false">
              <parameter index="0" name="Encendido/Apagado" parameterValue="0"/>
              <parameter index="1" name="Nivel" parameterValue="0"/>
            </component>
            <component id="sendPan" powered="true"/>
          </sendSlot>
          <sendSlot preFader="false" sendOutputID="0" slotIndex="12">
            <component id="sendComponent" powered="false">
              <parameter index="0" name="Encendido/Apagado" parameterValue="0"/>
              <parameter index="1" name="Nivel" parameterValue="0"/>
            </component>
            <component id="sendPan" powered="true"/>
          </sendSlot>
          <sendSlot preFader="false" sendOutputID="0" slotIndex="13">
            <component id="sendComponent" powered="false">
              <parameter index="0" name="Encendido/Apagado" parameterValue="0"/>
              <parameter index="1" name="Nivel" parameterValue="0"/>
            </component>
            <component id="sendPan" powered="true"/>
          </sendSlot>
          <sendSlot preFader="false" sendOutputID="0" slotIndex="14">
            <component id="sendComponent" powered="false">
              <parameter index="0" name="Encendido/Apagado" parameterValue="0"/>
              <parameter index="1" name="Nivel" parameterValue="0"/>
            </component>
            <component id="sendPan" powered="true"/>
          </sendSlot>
          <sendSlot preFader="false" sendOutputID="0" slotIndex="15">
            <component id="sendComponent" powered="false">
              <parameter index="0" name="Encendido/Apagado" parameterValue="0"/>
              <parameter index="1" name="Nivel" parameterValue="0"/>
            </component>
            <component id="sendPan" powered="true"/>
          </sendSlot>
        </sendList>
        <audioClip clipAutoCrossfade="true" crossFadeHeadClipID="-1" crossFadeTailClipID="-1" endPoint="4842409" fileID="50" hue="-1" id="0" lockedInTime="false" looped="false" name="dark horse dark horse_backvoices2_segunda_estrofa_editada" offline="false" select="false" sourceInPoint="0" sourceOutPoint="652909" startPoint="4189500" zOrder="45445">
          <component componentID="Audition.Fader" id="clipGain" name="volume" powered="true">
            <parameter index="0" name="volume" parameterValue="0">
              <parameterKeyframes enableSplines="true">
                <parameterKeyframe sampleOffset="74341" select="false" type="linear" value="0.5154594"/>
                <parameterKeyframe sampleOffset="209060" select="false" type="linear" value="0.3140262"/>
                <parameterKeyframe sampleOffset="360226" select="false" type="linear" value="0.4242612"/>
                <parameterKeyframe sampleOffset="495626" select="false" type="linear" value="0.6766666"/>
              </parameterKeyframes>
            </parameter>
            <parameter index="1" name="static gain" parameterValue="1"/>
          </component>
          <component componentID="Audition.Mute" id="clipMute" name="Mute" powered="true">
            <parameter index="0" parameterValue="0"/>
            <parameter index="1" name="mute" parameterValue="0"/>
          </component>
          <component componentID="Audition.StereoPanner" id="clipPan" name="StereoPanner" powered="true">
            <parameter index="0" name="Panorámica" parameterValue="-81.7777786">
              <parameterKeyframes enableSplines="true">
                <parameterKeyframe sampleOffset="442588" select="false" type="linear" value="0.9088889"/>
                <parameterKeyframe sampleOffset="523059" select="false" type="linear" value="0.8022223"/>
              </parameterKeyframes>
            </parameter>
          </component>
          <fadeIn crossFadeLinkType="linkedAsymmetric" endPoint="0" shape="0" startPoint="0" type="cosine"/>
          <fadeOut crossFadeLinkType="linkedAsymmetric" endPoint="652909" shape="0" startPoint="652909" type="cosine"/>
          <editParameter parameterIndex="0" slotIndex="4294967281"/>
          <editParameter parameterIndex="0" slotIndex="4294967280"/>
          <channelMap>
            <channel index="0" sourceIndex="0"/>
            <channel index="1" sourceIndex="1"/>
          </channelMap>
        </audioClip>
        <audioClip clipAutoCrossfade="true" crossFadeHeadClipID="-1" crossFadeTailClipID="-1" endPoint="5058101" fileID="51" hue="-1" id="1" lockedInTime="false" looped="false" name="VOZ DE FONDO 2_002" offline="false" select="false" sourceInPoint="95824" sourceOutPoint="200025" startPoint="4953900" zOrder="45471">
          <component componentID="Audition.Fader" id="clipGain" name="volume" powered="true">
            <parameter index="0" name="volume" parameterValue="0.7013582"/>
            <parameter index="1" name="static gain" parameterValue="1"/>
          </component>
          <component componentID="Audition.Mute" id="clipMute" name="Mute" powered="true">
            <parameter index="0" parameterValue="0"/>
            <parameter index="1" name="mute" parameterValue="0"/>
          </component>
          <component componentID="Audition.StereoPanner" id="clipPan" name="StereoPanner" powered="true">
            <parameter index="0" name="Panorámica" parameterValue="-13.6363621"/>
          </component>
          <fadeIn crossFadeLinkType="linkedAsymmetric" endPoint="0" shape="0" startPoint="0" type="cosine"/>
          <fadeOut crossFadeLinkType="linkedAsymmetric" endPoint="104201" shape="22" startPoint="81422" type="log"/>
          <take sourceInPoint="0"/>
          <editParameter parameterIndex="0" slotIndex="4294967281"/>
          <editParameter parameterIndex="0" slotIndex="4294967280"/>
          <channelMap>
            <channel index="0" sourceIndex="0"/>
            <channel index="1" sourceIndex="1"/>
          </channelMap>
        </audioClip>
        <audioClip clipAutoCrossfade="true" crossFadeHeadClipID="-1" crossFadeTailClipID="-1" endPoint="5246960" fileID="51" hue="-1" id="2" lockedInTime="false" looped="false" name="VOZ DE FONDO 2_002" offline="false" select="false" sourceInPoint="236719" sourceOutPoint="387069" startPoint="5096610" zOrder="45472">
          <component componentID="Audition.Fader" id="clipGain" name="volume" powered="true">
            <parameter index="0" name="volume" parameterValue="0">
              <parameterKeyframes enableSplines="true">
                <parameterKeyframe sampleOffset="285002" select="false" type="linear" value="0.65"/>
                <parameterKeyframe sampleOffset="341231" select="false" type="linear" value="0.7"/>
              </parameterKeyframes>
            </parameter>
            <parameter index="1" name="static gain" parameterValue="1"/>
          </component>
          <component componentID="Audition.Mute" id="clipMute" name="Mute" powered="true">
            <parameter index="0" parameterValue="0"/>
            <parameter index="1" name="mute" parameterValue="0"/>
          </component>
          <component componentID="Audition.StereoPanner" id="clipPan" name="StereoPanner" powered="true">
            <parameter index="0" name="Panorámica" parameterValue="15.9090996"/>
          </component>
          <fadeIn crossFadeLinkType="linkedAsymmetric" endPoint="0" shape="0" startPoint="0" type="cosine"/>
          <fadeOut crossFadeLinkType="linkedAsymmetric" endPoint="150350" shape="0" startPoint="150350" type="cosine"/>
          <editParameter parameterIndex="0" slotIndex="4294967281"/>
          <editParameter parameterIndex="0" slotIndex="4294967280"/>
          <channelMap>
            <channel index="0" sourceIndex="0"/>
            <channel index="1" sourceIndex="1"/>
          </channelMap>
        </audioClip>
        <audioClip clipAutoCrossfade="true" crossFadeHeadClipID="-1" crossFadeTailClipID="-1" endPoint="5381633" fileID="51" hue="-1" id="3" lockedInTime="false" looped="false" name="VOZ DE FONDO 2_002" offline="false" select="false" sourceInPoint="95824" sourceOutPoint="200025" startPoint="5277432" zOrder="45473">
          <component componentID="Audition.Fader" id="clipGain" name="volume" powered="true">
            <parameter index="0" name="volume" parameterValue="0.7013582"/>
            <parameter index="1" name="static gain" parameterValue="1"/>
          </component>
          <component componentID="Audition.Mute" id="clipMute" name="Mute" powered="true">
            <parameter index="0" parameterValue="0"/>
            <parameter index="1" name="mute" parameterValue="0"/>
          </component>
          <component componentID="Audition.StereoPanner" id="clipPan" name="StereoPanner" powered="true">
            <parameter index="0" name="Panorámica" parameterValue="-13.6363621"/>
          </component>
          <fadeIn crossFadeLinkType="linkedAsymmetric" endPoint="0" shape="0" startPoint="0" type="cosine"/>
          <fadeOut crossFadeLinkType="linkedAsymmetric" endPoint="104201" shape="22" startPoint="81422" type="log"/>
          <editParameter parameterIndex="0" slotIndex="4294967281"/>
          <editParameter parameterIndex="0" slotIndex="4294967280"/>
          <channelMap>
            <channel index="0" sourceIndex="0"/>
            <channel index="1" sourceIndex="1"/>
          </channelMap>
        </audioClip>
        <audioClip clipAutoCrossfade="true" crossFadeHeadClipID="-1" crossFadeTailClipID="5" endPoint="5517562" fileID="51" hue="-1" id="4" lockedInTime="false" looped="false" name="VOZ DE FONDO 2_002" offline="false" select="false" sourceInPoint="236719" sourceOutPoint="334139" startPoint="5420142" zOrder="45475">
          <component componentID="Audition.Fader" id="clipGain" name="volume" powered="true">
            <parameter index="0" name="volume" parameterValue="0">
              <parameterKeyframes enableSplines="true">
                <parameterKeyframe sampleOffset="285002" select="false" type="linear" value="0.65"/>
                <parameterKeyframe sampleOffset="341231" select="false" type="linear" value="0.7"/>
              </parameterKeyframes>
            </parameter>
            <parameter index="1" name="static gain" parameterValue="1"/>
          </component>
          <component componentID="Audition.Mute" id="clipMute" name="Mute" powered="true">
            <parameter index="0" parameterValue="0"/>
            <parameter index="1" name="mute" parameterValue="0"/>
          </component>
          <component componentID="Audition.StereoPanner" id="clipPan" name="StereoPanner" powered="true">
            <parameter index="0" name="Panorámica" parameterValue="15.9090996"/>
          </component>
          <fadeIn crossFadeLinkType="linkedAsymmetric" endPoint="0" shape="0" startPoint="0" type="cosine"/>
          <fadeOut crossFadeLinkType="linkedAsymmetric" endPoint="97420" shape="19" startPoint="64190" type="log"/>
          <editParameter parameterIndex="0" slotIndex="4294967281"/>
          <editParameter parameterIndex="0" slotIndex="4294967280"/>
          <channelMap>
            <channel index="0" sourceIndex="0"/>
            <channel index="1" sourceIndex="1"/>
          </channelMap>
        </audioClip>
        <audioClip clipAutoCrossfade="true" crossFadeHeadClipID="4" crossFadeTailClipID="-1" endPoint="6059365" fileID="52" hue="-1" id="5" lockedInTime="false" looped="false" name="VOZ DE FONDO 2_005" offline="false" select="false" sourceInPoint="102699" sourceOutPoint="677732" startPoint="5484332" zOrder="45489">
          <component componentID="Audition.Fader" id="clipGain" name="volume" powered="true">
            <parameter index="0" name="volume" parameterValue="0">
              <parameterKeyframes enableSplines="true">
                <parameterKeyframe sampleOffset="529081" select="false" type="linear" value="0.5802326"/>
                <parameterKeyframe sampleOffset="684176" select="false" type="linear" value="0.7313953"/>
              </parameterKeyframes>
            </parameter>
            <parameter index="1" name="static gain" parameterValue="1"/>
          </component>
          <component componentID="Audition.Mute" id="clipMute" name="Mute" powered="true">
            <parameter index="0" parameterValue="0"/>
            <parameter index="1" name="mute" parameterValue="0"/>
          </component>
          <component componentID="Audition.StereoPanner" id="clipPan" name="StereoPanner" powered="true">
            <parameter index="0" name="Panorámica" parameterValue="0"/>
          </component>
          <fadeIn crossFadeLinkType="linkedAsymmetric" endPoint="33230" shape="18" startPoint="0" type="log"/>
          <fadeOut crossFadeLinkType="linkedAsymmetric" endPoint="575033" shape="0" startPoint="575033" type="cosine"/>
          <take sourceInPoint="0"/>
          <editParameter parameterIndex="0" slotIndex="4294967281"/>
          <editParameter parameterIndex="0" slotIndex="4294967280"/>
          <channelMap>
            <channel index="0" sourceIndex="0"/>
            <channel index="1" sourceIndex="1"/>
          </channelMap>
        </audioClip>
      </audioTrack>
      <audioTrack automationLaneOpenState="false" id="10003" index="10" select="false" visible="true">
        <trackParameters trackHeight="129">
          <name>PRINCIPAL</name>
        </trackParameters>
        <trackAudioParameters audioChannelType="stereo" automationMode="1" monitoring="false" recordArmed="false" solo="false" soloSafe="false">
          <trackOutput outputID="10000" type="trackID"/>
          <trackInput inputID="-1"/>
          <component componentID="Audition.Fader" id="trackFader" name="volume" powered="true">
            <parameter index="0" name="volume" parameterValue="1"/>
            <parameter index="1" name="static gain" parameterValue="1"/>
          </component>
          <component componentID="Audition.Mute" id="trackMute" name="Mute" powered="true">
            <parameter index="0" parameterValue="0"/>
            <parameter index="1" name="mute" parameterValue="0"/>
          </component>
          <component componentID="Audition.StereoPanner" id="trackPan" name="StereoPanner" powered="true">
            <parameter index="0" name="Panorámica" parameterValue="0"/>
          </component>
          <component componentID="Audition.EQ" id="trackEQ" name="EQ" powered="false">
            <parameter index="0" name="Frecuencia estante inferior" parameterValue="0.0009079"/>
            <parameter index="1" name="Ganancia estante inferior" parameterValue="0.5"/>
            <parameter index="2" name="Frecuencia estante superior" parameterValue="0.8161598"/>
            <parameter index="3" name="Ganancia estante superior" parameterValue="0.5"/>
            <parameter index="4" name="Frecuencia central de banda de EC 1" parameterValue="0.0013618"/>
            <parameter index="5" name="Valor Q de banda de EC 1" parameterValue="0.0002"/>
            <parameter index="6" name="Ganancia de banda de EC 1" parameterValue="0.5"/>
            <parameter index="7" name="Activación de banda de EC 1" parameterValue="1"/>
            <parameter index="8" name="Frecuencia central de banda de EC 2" parameterValue="0.0081707"/>
            <parameter index="9" name="Valor Q de banda de EC 2" parameterValue="0.0002"/>
            <parameter index="10" name="Ganancia de banda de EC 2" parameterValue="0.5"/>
            <parameter index="11" name="Activación de banda de EC 2" parameterValue="1"/>
            <parameter index="12" name="Frecuencia central de banda de EC 3" parameterValue="0.0354063"/>
            <parameter index="13" name="Valor Q de banda de EC 3" parameterValue="0.0002"/>
            <parameter index="14" name="Ganancia de banda de EC 3" parameterValue="0.5"/>
            <parameter index="15" name="Activación de banda de EC 3" parameterValue="1"/>
            <parameter index="16" name="Frecuencia central de banda de EC 4" parameterValue="0.1443486"/>
            <parameter index="17" name="Valor Q de banda de EC 4" parameterValue="0.0002"/>
            <parameter index="18" name="Ganancia de banda de EC 4" parameterValue="0.5"/>
            <parameter index="19" name="Activación de banda de EC 4" parameterValue="1"/>
            <parameter index="20" name="Frecuencia central de banda de EC 5" parameterValue="0.580118"/>
            <parameter index="21" name="Valor Q de banda de EC 5" parameterValue="0.0002"/>
            <parameter index="22" name="Ganancia de banda de EC 5" parameterValue="0.5"/>
            <parameter index="23" name="Activación de banda de EC 5" parameterValue="1"/>
            <parameter index="24" name="Ganancia maestra" parameterValue="0.6666667"/>
            <parameter index="25" name="Constant Q" parameterValue="1"/>
            <parameter index="26" name="Orden de filtro de estante inferior" parameterValue="0"/>
            <parameter index="27" name="Orden de filtro de estante superior" parameterValue="0"/>
            <parameter index="28" name="Modo ultrasilencioso" parameterValue="0"/>
            <parameter index="29" name="Activar estante inferior" parameterValue="1"/>
            <parameter index="30" name="Activar estante superior" parameterValue="1"/>
            <parameter index="31" name="Velocidad de muestreo original" parameterValue="0.2296875"/>
            <parameter index="32" name="Ancho de banda de EC 1" parameterValue="0.0025"/>
            <parameter index="33" name="Ancho de banda de EC 2" parameterValue="0.01"/>
            <parameter index="34" name="Ancho de banda de EC 3" parameterValue="0.04"/>
            <parameter index="35" name="Ancho de banda de EC 4" parameterValue="0.16"/>
            <parameter index="36" name="Ancho de banda de EC 5" parameterValue="0.64"/>
            <parameter index="37" name="Activación de filtro de pase alto" parameterValue="0"/>
            <parameter index="38" name="Frecuencia de límite de paso alto" parameterValue="0"/>
            <parameter index="39" name="Pendiente de paso alto" parameterValue="4"/>
            <parameter index="40" name="Activación de filtro de pase bajo" parameterValue="0"/>
            <parameter index="41" name="Frecuencia de límite de paso bajo" parameterValue="0.906945"/>
            <parameter index="42" name="Pendiente de paso bajo" parameterValue="4"/>
            <parameter index="43" name="Omitir" parameterValue="0"/>
            <parameter index="44" name="Rango de gráfico bajo" parameterValue="1"/>
          </component>
        </trackAudioParameters>
        <editParameter parameterIndex="0" slotIndex="4294967280"/>
        <sendList>
          <sendSlot preFader="false" sendOutputID="0" slotIndex="0">
            <component id="sendComponent" powered="false">
              <parameter index="0" name="Encendido/Apagado" parameterValue="0"/>
              <parameter index="1" name="Nivel" parameterValue="0"/>
            </component>
            <component id="sendPan" powered="true"/>
          </sendSlot>
          <sendSlot preFader="false" sendOutputID="0" slotIndex="1">
            <component id="sendComponent" powered="false">
              <parameter index="0" name="Encendido/Apagado" parameterValue="0"/>
              <parameter index="1" name="Nivel" parameterValue="0"/>
            </component>
            <component id="sendPan" powered="true"/>
          </sendSlot>
          <sendSlot preFader="false" sendOutputID="0" slotIndex="2">
            <component id="sendComponent" powered="false">
              <parameter index="0" name="Encendido/Apagado" parameterValue="0"/>
              <parameter index="1" name="Nivel" parameterValue="0"/>
            </component>
            <component id="sendPan" powered="true"/>
          </sendSlot>
          <sendSlot preFader="false" sendOutputID="0" slotIndex="3">
            <component id="sendComponent" powered="false">
              <parameter index="0" name="Encendido/Apagado" parameterValue="0"/>
              <parameter index="1" name="Nivel" parameterValue="0"/>
            </component>
            <component id="sendPan" powered="true"/>
          </sendSlot>
          <sendSlot preFader="false" sendOutputID="0" slotIndex="4">
            <component id="sendComponent" powered="false">
              <parameter index="0" name="Encendido/Apagado" parameterValue="0"/>
              <parameter index="1" name="Nivel" parameterValue="0"/>
            </component>
            <component id="sendPan" powered="true"/>
          </sendSlot>
          <sendSlot preFader="false" sendOutputID="0" slotIndex="5">
            <component id="sendComponent" powered="false">
              <parameter index="0" name="Encendido/Apagado" parameterValue="0"/>
              <parameter index="1" name="Nivel" parameterValue="0"/>
            </component>
            <component id="sendPan" powered="true"/>
          </sendSlot>
          <sendSlot preFader="false" sendOutputID="0" slotIndex="6">
            <component id="sendComponent" powered="false">
              <parameter index="0" name="Encendido/Apagado" parameterValue="0"/>
              <parameter index="1" name="Nivel" parameterValue="0"/>
            </component>
            <component id="sendPan" powered="true"/>
          </sendSlot>
          <sendSlot preFader="false" sendOutputID="0" slotIndex="7">
            <component id="sendComponent" powered="false">
              <parameter index="0" name="Encendido/Apagado" parameterValue="0"/>
              <parameter index="1" name="Nivel" parameterValue="0"/>
            </component>
            <component id="sendPan" powered="true"/>
          </sendSlot>
          <sendSlot preFader="false" sendOutputID="0" slotIndex="8">
            <component id="sendComponent" powered="false">
              <parameter index="0" name="Encendido/Apagado" parameterValue="0"/>
              <parameter index="1" name="Nivel" parameterValue="0"/>
            </component>
            <component id="sendPan" powered="true"/>
          </sendSlot>
          <sendSlot preFader="false" sendOutputID="0" slotIndex="9">
            <component id="sendComponent" powered="false">
              <parameter index="0" name="Encendido/Apagado" parameterValue="0"/>
              <parameter index="1" name="Nivel" parameterValue="0"/>
            </component>
            <component id="sendPan" powered="true"/>
          </sendSlot>
          <sendSlot preFader="false" sendOutputID="0" slotIndex="10">
            <component id="sendComponent" powered="false">
              <parameter index="0" name="Encendido/Apagado" parameterValue="0"/>
              <parameter index="1" name="Nivel" parameterValue="0"/>
            </component>
            <component id="sendPan" powered="true"/>
          </sendSlot>
          <sendSlot preFader="false" sendOutputID="0" slotIndex="11">
            <component id="sendComponent" powered="false">
              <parameter index="0" name="Encendido/Apagado" parameterValue="0"/>
              <parameter index="1" name="Nivel" parameterValue="0"/>
            </component>
            <component id="sendPan" powered="true"/>
          </sendSlot>
          <sendSlot preFader="false" sendOutputID="0" slotIndex="12">
            <component id="sendComponent" powered="false">
              <parameter index="0" name="Encendido/Apagado" parameterValue="0"/>
              <parameter index="1" name="Nivel" parameterValue="0"/>
            </component>
            <component id="sendPan" powered="true"/>
          </sendSlot>
          <sendSlot preFader="false" sendOutputID="0" slotIndex="13">
            <component id="sendComponent" powered="false">
              <parameter index="0" name="Encendido/Apagado" parameterValue="0"/>
              <parameter index="1" name="Nivel" parameterValue="0"/>
            </component>
            <component id="sendPan" powered="true"/>
          </sendSlot>
          <sendSlot preFader="false" sendOutputID="0" slotIndex="14">
            <component id="sendComponent" powered="false">
              <parameter index="0" name="Encendido/Apagado" parameterValue="0"/>
              <parameter index="1" name="Nivel" parameterValue="0"/>
            </component>
            <component id="sendPan" powered="true"/>
          </sendSlot>
          <sendSlot preFader="false" sendOutputID="0" slotIndex="15">
            <component id="sendComponent" powered="false">
              <parameter index="0" name="Encendido/Apagado" parameterValue="0"/>
              <parameter index="1" name="Nivel" parameterValue="0"/>
            </component>
            <component id="sendPan" powered="true"/>
          </sendSlot>
        </sendList>
        <audioClip clipAutoCrossfade="true" crossFadeHeadClipID="-1" crossFadeTailClipID="1" endPoint="34689" fileID="53" hue="-1" id="0" lockedInTime="false" looped="false" name="Pista 3_004" offline="false" select="false" sourceInPoint="2351" sourceOutPoint="26027" startPoint="11013" zOrder="9181">
          <component componentID="Audition.Fader" id="clipGain" name="volume" powered="true">
            <parameter index="0" name="volume" parameterValue="1"/>
            <parameter index="1" name="static gain" parameterValue="1"/>
          </component>
          <component componentID="Audition.Mute" id="clipMute" name="Mute" powered="true">
            <parameter index="0" parameterValue="0"/>
            <parameter index="1" name="mute" parameterValue="0"/>
          </component>
          <component componentID="Audition.StereoPanner" id="clipPan" name="StereoPanner" powered="true">
            <parameter index="0" name="Panorámica" parameterValue="0"/>
          </component>
          <fadeIn crossFadeLinkType="linkedAsymmetric" endPoint="0" shape="19" startPoint="0" type="log"/>
          <fadeOut crossFadeLinkType="linkedAsymmetric" endPoint="23676" shape="19" startPoint="23311" type="log"/>
          <clipStretch adaptiveWindowSize="37" pitchAdjustment="0" preserveFormants="true" stretchMode="realtime" stretchQuality="high" stretchRatio="1.0603251377132876" stretchType="solo" transientSensitivity="40"/>
          <take sourceInPoint="0"/>
          <editParameter parameterIndex="0" slotIndex="4294967281"/>
          <editParameter parameterIndex="0" slotIndex="4294967280"/>
          <channelMap>
            <channel index="0" sourceIndex="0"/>
            <channel index="1" sourceIndex="1"/>
          </channelMap>
        </audioClip>
        <audioClip clipAutoCrossfade="true" crossFadeHeadClipID="0" crossFadeTailClipID="-1" endPoint="74240" fileID="53" hue="-1" id="1" lockedInTime="false" looped="false" name="Pista 3_004" offline="false" select="false" sourceInPoint="22252" sourceOutPoint="62168" startPoint="34324" zOrder="7758">
          <component componentID="Audition.Fader" id="clipGain" name="volume" powered="true">
            <parameter index="0" name="volume" parameterValue="1">
              <parameterKeyframes enableSplines="false">
                <parameterKeyframe sampleOffset="42764" select="false" type="linear" value="0.65"/>
              </parameterKeyframes>
            </parameter>
            <parameter index="1" name="static gain" parameterValue="1"/>
          </component>
          <component componentID="Audition.Mute" id="clipMute" name="Mute" powered="true">
            <parameter index="0" parameterValue="0"/>
            <parameter index="1" name="mute" parameterValue="0"/>
          </component>
          <component componentID="Audition.StereoPanner" id="clipPan" name="StereoPanner" powered="true">
            <parameter index="0" name="Panorámica" parameterValue="0"/>
          </component>
          <fadeIn crossFadeLinkType="linkedAsymmetric" endPoint="365" shape="18" startPoint="0" type="log"/>
          <fadeOut crossFadeLinkType="linkedAsymmetric" endPoint="39916" shape="8" startPoint="33747" type="cosine"/>
          <clipStretch adaptiveWindowSize="37" pitchAdjustment="0" preserveFormants="true" stretchMode="realtime" stretchQuality="high" stretchRatio="0.9065260969633974" stretchType="solo" transientSensitivity="40"/>
          <editParameter parameterIndex="0" slotIndex="4294967281"/>
          <editParameter parameterIndex="0" slotIndex="4294967280"/>
          <channelMap>
            <channel index="0" sourceIndex="0"/>
            <channel index="1" sourceIndex="1"/>
          </channelMap>
        </audioClip>
        <audioClip clipAutoCrossfade="true" crossFadeHeadClipID="-1" crossFadeTailClipID="-1" endPoint="698982" fileID="54" hue="-1" id="2" lockedInTime="false" looped="false" name="dark horse acapella_rap_intro" offline="false" select="false" sourceInPoint="0" sourceOutPoint="475407" startPoint="223575" zOrder="43042">
          <component componentID="Audition.Fader" id="clipGain" name="volume" powered="true">
            <parameter index="0" name="volume" parameterValue="1.2208591"/>
            <parameter index="1" name="static gain" parameterValue="1"/>
          </component>
          <component componentID="Audition.Mute" id="clipMute" name="Mute" powered="true">
            <parameter index="0" parameterValue="0"/>
            <parameter index="1" name="mute" parameterValue="0"/>
          </component>
          <component componentID="Audition.StereoPanner" id="clipPan" name="StereoPanner" powered="true">
            <parameter index="0" name="Panorámica" parameterValue="0"/>
          </component>
          <fadeIn crossFadeLinkType="linkedAsymmetric" endPoint="0" shape="0" startPoint="0" type="cosine"/>
          <fadeOut crossFadeLinkType="linkedAsymmetric" endPoint="475407" shape="0" startPoint="475407" type="cosine"/>
          <editParameter parameterIndex="0" slotIndex="4294967281"/>
          <editParameter parameterIndex="0" slotIndex="4294967280"/>
          <channelMap>
            <channel index="0" sourceIndex="0"/>
            <channel index="1" sourceIndex="1"/>
          </channelMap>
        </audioClip>
        <audioClip clipAutoCrossfade="true" crossFadeHeadClipID="-1" crossFadeTailClipID="4" endPoint="1987913" fileID="55" hue="-1" id="3" lockedInTime="false" looped="false" name="dark horse_principal_primera_estrofa_editada" offline="false" select="false" sourceInPoint="0" sourceOutPoint="1257233" startPoint="730680" zOrder="45200">
          <component componentID="Audition.Fader" id="clipGain" name="volume" powered="true">
            <parameter index="0" name="volume" parameterValue="0">
              <parameterKeyframes enableSplines="true">
                <parameterKeyframe sampleOffset="401801" select="false" type="linear" value="0.6500002"/>
                <parameterKeyframe sampleOffset="407107" select="false" type="linear" value="0.6500001"/>
                <parameterKeyframe sampleOffset="443666" select="false" type="linear" value="0.7322785"/>
                <parameterKeyframe sampleOffset="448383" select="false" type="linear" value="0.65"/>
                <parameterKeyframe sampleOffset="473148" select="false" type="linear" value="0.65"/>
                <parameterKeyframe sampleOffset="487300" select="false" type="linear" value="0.65"/>
                <parameterKeyframe sampleOffset="525627" select="false" type="linear" value="0.7512658"/>
                <parameterKeyframe sampleOffset="533882" select="false" type="linear" value="0.65"/>
                <parameterKeyframe sampleOffset="973254" select="false" type="linear" value="0.6511657"/>
              </parameterKeyframes>
            </parameter>
            <parameter index="1" name="static gain" parameterValue="1"/>
          </component>
          <component componentID="Audition.Mute" id="clipMute" name="Mute" powered="true">
            <parameter index="0" parameterValue="0"/>
            <parameter index="1" name="mute" parameterValue="0"/>
          </component>
          <component componentID="Audition.StereoPanner" id="clipPan" name="StereoPanner" powered="true">
            <parameter index="0" name="Panorámica" parameterValue="0">
              <parameterKeyframes enableSplines="false">
                <parameterKeyframe sampleOffset="1184536" select="false" type="linear" value="0.5"/>
              </parameterKeyframes>
            </parameter>
          </component>
          <fadeIn crossFadeLinkType="linkedAsymmetric" endPoint="0" shape="0" startPoint="0" type="cosine"/>
          <fadeOut crossFadeLinkType="linkedAsymmetric" endPoint="1257233" shape="19" startPoint="1253898" type="log"/>
          <editParameter parameterIndex="0" slotIndex="4294967281"/>
          <editParameter parameterIndex="0" slotIndex="4294967280"/>
          <channelMap>
            <channel index="0" sourceIndex="0"/>
            <channel index="1" sourceIndex="1"/>
          </channelMap>
        </audioClip>
        <audioClip clipAutoCrossfade="true" crossFadeHeadClipID="3" crossFadeTailClipID="-1" endPoint="3098289" fileID="56" hue="-1" id="4" lockedInTime="false" looped="false" name="dark horse_principal_coro" offline="false" select="false" sourceInPoint="0" sourceOutPoint="1113711" startPoint="1984578" zOrder="45158">
          <component componentID="Audition.Fader" id="clipGain" name="volume" powered="true">
            <parameter index="0" name="volume" parameterValue="1"/>
            <parameter index="1" name="static gain" parameterValue="1"/>
          </component>
          <component componentID="Audition.Mute" id="clipMute" name="Mute" powered="true">
            <parameter index="0" parameterValue="0"/>
            <parameter index="1" name="mute" parameterValue="0"/>
          </component>
          <component componentID="Audition.StereoPanner" id="clipPan" name="StereoPanner" powered="true">
            <parameter index="0" name="Panorámica" parameterValue="0">
              <parameterKeyframes enableSplines="false">
                <parameterKeyframe sampleOffset="728196" select="false" type="linear" value="0.5"/>
              </parameterKeyframes>
            </parameter>
          </component>
          <fadeIn crossFadeLinkType="linkedAsymmetric" endPoint="3335" shape="18" startPoint="0" type="log"/>
          <fadeOut crossFadeLinkType="linkedAsymmetric" endPoint="1113711" shape="19" startPoint="1113711" type="log"/>
          <editParameter parameterIndex="0" slotIndex="4294967280"/>
          <editParameter parameterIndex="0" slotIndex="4294967281"/>
          <channelMap>
            <channel index="0" sourceIndex="0"/>
            <channel index="1" sourceIndex="1"/>
          </channelMap>
        </audioClip>
        <audioClip clipAutoCrossfade="true" crossFadeHeadClipID="-1" crossFadeTailClipID="6" endPoint="4875095" fileID="57" hue="-1" id="5" lockedInTime="false" looped="false" name="dark horse principal_segunda_estrofa" offline="false" select="false" sourceInPoint="0" sourceOutPoint="1313242" startPoint="3561853" zOrder="45252">
          <component componentID="Audition.Fader" id="clipGain" name="volume" powered="true">
            <parameter index="0" name="volume" parameterValue="1">
              <parameterKeyframes enableSplines="false">
                <parameterKeyframe sampleOffset="979831" select="false" type="linear" value="0.65"/>
              </parameterKeyframes>
            </parameter>
            <parameter index="1" name="static gain" parameterValue="1"/>
          </component>
          <component componentID="Audition.Mute" id="clipMute" name="Mute" powered="true">
            <parameter index="0" parameterValue="0"/>
            <parameter index="1" name="mute" parameterValue="0"/>
          </component>
          <component componentID="Audition.StereoPanner" id="clipPan" name="StereoPanner" powered="true">
            <parameter index="0" name="Panorámica" parameterValue="0"/>
          </component>
          <fadeIn crossFadeLinkType="linkedAsymmetric" endPoint="0" shape="0" startPoint="0" type="cosine"/>
          <fadeOut crossFadeLinkType="linkedAsymmetric" endPoint="1313242" shape="18" startPoint="1308987" type="log"/>
          <editParameter parameterIndex="0" slotIndex="4294967281"/>
          <editParameter parameterIndex="0" slotIndex="4294967280"/>
          <channelMap>
            <channel index="0" sourceIndex="0"/>
            <channel index="1" sourceIndex="1"/>
          </channelMap>
        </audioClip>
        <audioClip clipAutoCrossfade="true" crossFadeHeadClipID="5" crossFadeTailClipID="-1" endPoint="5984551" fileID="56" hue="-1" id="6" lockedInTime="false" looped="false" name="dark horse_principal_coro" offline="false" select="false" sourceInPoint="0" sourceOutPoint="1113711" startPoint="4870840" zOrder="45250">
          <component componentID="Audition.Fader" id="clipGain" name="volume" powered="true">
            <parameter index="0" name="volume" parameterValue="1"/>
            <parameter index="1" name="static gain" parameterValue="1"/>
          </component>
          <component componentID="Audition.Mute" id="clipMute" name="Mute" powered="true">
            <parameter index="0" parameterValue="0"/>
            <parameter index="1" name="mute" parameterValue="0"/>
          </component>
          <component componentID="Audition.StereoPanner" id="clipPan" name="StereoPanner" powered="true">
            <parameter index="0" name="Panorámica" parameterValue="0">
              <parameterKeyframes enableSplines="false">
                <parameterKeyframe sampleOffset="728196" select="false" type="linear" value="0.5"/>
              </parameterKeyframes>
            </parameter>
          </component>
          <fadeIn crossFadeLinkType="linkedAsymmetric" endPoint="4255" shape="19" startPoint="0" type="log"/>
          <fadeOut crossFadeLinkType="linkedAsymmetric" endPoint="1113711" shape="19" startPoint="1113711" type="log"/>
          <editParameter parameterIndex="0" slotIndex="4294967280"/>
          <editParameter parameterIndex="0" slotIndex="4294967281"/>
          <channelMap>
            <channel index="0" sourceIndex="0"/>
            <channel index="1" sourceIndex="1"/>
          </channelMap>
        </audioClip>
        <audioClip clipAutoCrossfade="true" crossFadeHeadClipID="-1" crossFadeTailClipID="8" endPoint="10094471" fileID="58" hue="-1" id="7" lockedInTime="false" looped="false" name="PRINCIPAL_011_1" offline="false" select="false" sourceInPoint="1914" sourceOutPoint="332586" startPoint="9763799" zOrder="45519">
          <component componentID="Audition.Fader" id="clipGain" name="volume" powered="true">
            <parameter index="0" name="volume" parameterValue="1"/>
            <parameter index="1" name="static gain" parameterValue="1"/>
          </component>
          <component componentID="Audition.Mute" id="clipMute" name="Mute" powered="true">
            <parameter index="0" parameterValue="0"/>
            <parameter index="1" name="mute" parameterValue="0"/>
          </component>
          <component componentID="Audition.StereoPanner" id="clipPan" name="StereoPanner" powered="true">
            <parameter index="0" name="Panorámica" parameterValue="0"/>
          </component>
          <fadeIn crossFadeLinkType="linkedAsymmetric" endPoint="0" shape="18" startPoint="0" type="log"/>
          <fadeOut crossFadeLinkType="linkedAsymmetric" endPoint="330672" shape="18" startPoint="329492" type="log"/>
          <take sourceInPoint="0"/>
          <editParameter parameterIndex="0" slotIndex="4294967281"/>
          <editParameter parameterIndex="0" slotIndex="4294967280"/>
          <channelMap>
            <channel index="0" sourceIndex="0"/>
            <channel index="1" sourceIndex="1"/>
          </channelMap>
        </audioClip>
        <audioClip clipAutoCrossfade="true" crossFadeHeadClipID="7" crossFadeTailClipID="-1" endPoint="10275512" fileID="58" hue="-1" id="8" lockedInTime="false" looped="false" name="PRINCIPAL_011_1" offline="false" select="false" sourceInPoint="333766" sourceOutPoint="515987" startPoint="10093291" zOrder="45514">
          <component componentID="Audition.Fader" id="clipGain" name="volume" powered="true">
            <parameter index="0" name="volume" parameterValue="1">
              <parameterKeyframes enableSplines="false">
                <parameterKeyframe sampleOffset="509652" select="false" type="linear" value="0.65"/>
              </parameterKeyframes>
            </parameter>
            <parameter index="1" name="static gain" parameterValue="1"/>
          </component>
          <component componentID="Audition.Mute" id="clipMute" name="Mute" powered="true">
            <parameter index="0" parameterValue="0"/>
            <parameter index="1" name="mute" parameterValue="0"/>
          </component>
          <component componentID="Audition.StereoPanner" id="clipPan" name="StereoPanner" powered="true">
            <parameter index="0" name="Panorámica" parameterValue="0">
              <parameterKeyframes enableSplines="false">
                <parameterKeyframe sampleOffset="441442" select="false" type="linear" value="0.5"/>
              </parameterKeyframes>
            </parameter>
          </component>
          <fadeIn crossFadeLinkType="linkedAsymmetric" endPoint="1180" shape="19" startPoint="0" type="log"/>
          <fadeOut crossFadeLinkType="linkedAsymmetric" endPoint="182221" shape="0" startPoint="182221" type="cosine"/>
          <editParameter parameterIndex="0" slotIndex="4294967281"/>
          <editParameter parameterIndex="0" slotIndex="4294967280"/>
          <channelMap>
            <channel index="0" sourceIndex="0"/>
            <channel index="1" sourceIndex="1"/>
          </channelMap>
        </audioClip>
        <audioClip clipAutoCrossfade="true" crossFadeHeadClipID="-1" crossFadeTailClipID="-1" endPoint="10419715" fileID="59" hue="-1" id="9" lockedInTime="false" looped="false" name="PRINCIPAL_014_1" offline="false" select="false" sourceInPoint="19999" sourceOutPoint="164202" startPoint="10275512" zOrder="45515">
          <component componentID="Audition.Fader" id="clipGain" name="volume" powered="true">
            <parameter index="0" name="volume" parameterValue="1"/>
            <parameter index="1" name="static gain" parameterValue="1"/>
          </component>
          <component componentID="Audition.Mute" id="clipMute" name="Mute" powered="true">
            <parameter index="0" parameterValue="0"/>
            <parameter index="1" name="mute" parameterValue="0"/>
          </component>
          <component componentID="Audition.StereoPanner" id="clipPan" name="StereoPanner" powered="true">
            <parameter index="0" name="Panorámica" parameterValue="0"/>
          </component>
          <fadeIn crossFadeLinkType="linkedAsymmetric" endPoint="0" shape="0" startPoint="0" type="cosine"/>
          <fadeOut crossFadeLinkType="linkedAsymmetric" endPoint="144203" shape="0" startPoint="144203" type="cosine"/>
          <take sourceInPoint="0"/>
          <editParameter parameterIndex="0" slotIndex="4294967281"/>
          <editParameter parameterIndex="0" slotIndex="4294967280"/>
          <channelMap>
            <channel index="0" sourceIndex="0"/>
            <channel index="1" sourceIndex="1"/>
          </channelMap>
        </audioClip>
        <audioClip clipAutoCrossfade="true" crossFadeHeadClipID="-1" crossFadeTailClipID="-1" endPoint="10605545" fileID="60" hue="-1" id="10" lockedInTime="false" looped="false" name="PRINCIPAL_017" offline="false" select="false" sourceInPoint="106310" sourceOutPoint="279660" startPoint="10432195" zOrder="45516">
          <component componentID="Audition.Fader" id="clipGain" name="volume" powered="true">
            <parameter index="0" name="volume" parameterValue="1"/>
            <parameter index="1" name="static gain" parameterValue="1"/>
          </component>
          <component componentID="Audition.Mute" id="clipMute" name="Mute" powered="true">
            <parameter index="0" parameterValue="0"/>
            <parameter index="1" name="mute" parameterValue="0"/>
          </component>
          <component componentID="Audition.StereoPanner" id="clipPan" name="StereoPanner" powered="true">
            <parameter index="0" name="Panorámica" parameterValue="0"/>
          </component>
          <fadeIn crossFadeLinkType="linkedAsymmetric" endPoint="0" shape="18" startPoint="0" type="log"/>
          <fadeOut crossFadeLinkType="linkedAsymmetric" endPoint="173350" shape="0" startPoint="173350" type="cosine"/>
          <take sourceInPoint="0"/>
          <editParameter parameterIndex="0" slotIndex="4294967281"/>
          <editParameter parameterIndex="0" slotIndex="4294967280"/>
          <channelMap>
            <channel index="0" sourceIndex="0"/>
            <channel index="1" sourceIndex="1"/>
          </channelMap>
        </audioClip>
        <audioClip clipAutoCrossfade="true" crossFadeHeadClipID="-1" crossFadeTailClipID="-1" endPoint="10741673" fileID="61" hue="-1" id="11" lockedInTime="false" looped="false" name="PRINCIPAL_016" offline="false" select="false" sourceInPoint="279105" sourceOutPoint="414059" startPoint="10606719" zOrder="45513">
          <component componentID="Audition.Fader" id="clipGain" name="volume" powered="true">
            <parameter index="0" name="volume" parameterValue="1"/>
            <parameter index="1" name="static gain" parameterValue="1"/>
          </component>
          <component componentID="Audition.Mute" id="clipMute" name="Mute" powered="true">
            <parameter index="0" parameterValue="0"/>
            <parameter index="1" name="mute" parameterValue="0"/>
          </component>
          <component componentID="Audition.StereoPanner" id="clipPan" name="StereoPanner" powered="true">
            <parameter index="0" name="Panorámica" parameterValue="0"/>
          </component>
          <fadeIn crossFadeLinkType="linkedAsymmetric" endPoint="0" shape="0" startPoint="0" type="cosine"/>
          <fadeOut crossFadeLinkType="linkedAsymmetric" endPoint="134954" shape="0" startPoint="134954" type="cosine"/>
          <take sourceInPoint="0"/>
          <editParameter parameterIndex="0" slotIndex="4294967281"/>
          <editParameter parameterIndex="0" slotIndex="4294967280"/>
          <channelMap>
            <channel index="0" sourceIndex="0"/>
            <channel index="1" sourceIndex="1"/>
          </channelMap>
        </audioClip>
        <audioClip clipAutoCrossfade="true" crossFadeHeadClipID="-1" crossFadeTailClipID="-1" endPoint="10877432" fileID="61" hue="-1" id="12" lockedInTime="false" looped="false" name="PRINCIPAL_016" offline="false" select="false" sourceInPoint="439319" sourceOutPoint="550211" startPoint="10766540" zOrder="45517">
          <component componentID="Audition.Fader" id="clipGain" name="volume" powered="true">
            <parameter index="0" name="volume" parameterValue="1"/>
            <parameter index="1" name="static gain" parameterValue="1"/>
          </component>
          <component componentID="Audition.Mute" id="clipMute" name="Mute" powered="true">
            <parameter index="0" parameterValue="0"/>
            <parameter index="1" name="mute" parameterValue="0"/>
          </component>
          <component componentID="Audition.StereoPanner" id="clipPan" name="StereoPanner" powered="true">
            <parameter index="0" name="Panorámica" parameterValue="0"/>
          </component>
          <fadeIn crossFadeLinkType="linkedAsymmetric" endPoint="0" shape="18" startPoint="0" type="log"/>
          <fadeOut crossFadeLinkType="linkedAsymmetric" endPoint="110892" shape="0" startPoint="110892" type="cosine"/>
          <editParameter parameterIndex="0" slotIndex="4294967281"/>
          <editParameter parameterIndex="0" slotIndex="4294967280"/>
          <channelMap>
            <channel index="0" sourceIndex="0"/>
            <channel index="1" sourceIndex="1"/>
          </channelMap>
        </audioClip>
        <audioClip clipAutoCrossfade="true" crossFadeHeadClipID="-1" crossFadeTailClipID="14" endPoint="13165302" fileID="62" hue="-1" id="13" lockedInTime="false" looped="false" name="darkhorse_goodvoice" offline="false" select="false" sourceInPoint="0" sourceOutPoint="198142" startPoint="12967160" zOrder="40361">
          <component componentID="Audition.Fader" id="clipGain" name="volume" powered="true">
            <parameter index="0" name="volume" parameterValue="0.8875698"/>
            <parameter index="1" name="static gain" parameterValue="1"/>
          </component>
          <component componentID="Audition.Mute" id="clipMute" name="Mute" powered="true">
            <parameter index="0" parameterValue="0"/>
            <parameter index="1" name="mute" parameterValue="0"/>
          </component>
          <component componentID="Audition.StereoPanner" id="clipPan" name="StereoPanner" powered="true">
            <parameter index="0" name="Panorámica" parameterValue="0"/>
          </component>
          <fadeIn crossFadeLinkType="linkedAsymmetric" endPoint="0" shape="19" startPoint="0" type="log"/>
          <fadeOut crossFadeLinkType="linkedAsymmetric" endPoint="198142" shape="18" startPoint="197263" type="log"/>
          <editParameter parameterIndex="0" slotIndex="4294967281"/>
          <editParameter parameterIndex="0" slotIndex="4294967280"/>
          <channelMap>
            <channel index="0" sourceIndex="0"/>
            <channel index="1" sourceIndex="1"/>
          </channelMap>
        </audioClip>
        <audioClip clipAutoCrossfade="true" crossFadeHeadClipID="13" crossFadeTailClipID="-1" endPoint="13326835" fileID="62" hue="-1" id="14" lockedInTime="false" looped="false" name="darkhorse_goodvoice" offline="false" select="false" sourceInPoint="198638" sourceOutPoint="361050" startPoint="13164423" zOrder="37232">
          <component componentID="Audition.Fader" id="clipGain" name="volume" powered="true">
            <parameter index="0" name="volume" parameterValue="0.8887094"/>
            <parameter index="1" name="static gain" parameterValue="1"/>
          </component>
          <component componentID="Audition.Mute" id="clipMute" name="Mute" powered="true">
            <parameter index="0" parameterValue="0"/>
            <parameter index="1" name="mute" parameterValue="0"/>
          </component>
          <component componentID="Audition.StereoPanner" id="clipPan" name="StereoPanner" powered="true">
            <parameter index="0" name="Panorámica" parameterValue="0"/>
          </component>
          <fadeIn crossFadeLinkType="linkedAsymmetric" endPoint="879" shape="19" startPoint="0" type="log"/>
          <fadeOut crossFadeLinkType="linkedAsymmetric" endPoint="162412" shape="0" startPoint="162412" type="cosine"/>
          <editParameter parameterIndex="0" slotIndex="4294967281"/>
          <editParameter parameterIndex="0" slotIndex="4294967280"/>
          <channelMap>
            <channel index="0" sourceIndex="0"/>
            <channel index="1" sourceIndex="1"/>
          </channelMap>
        </audioClip>
        <audioClip clipAutoCrossfade="true" crossFadeHeadClipID="-1" crossFadeTailClipID="-1" endPoint="13468559" fileID="62" hue="-1" id="15" lockedInTime="false" looped="false" name="darkhorse_goodvoice" offline="false" select="false" sourceInPoint="361050" sourceOutPoint="501399" startPoint="13328210" zOrder="36616">
          <component componentID="Audition.Fader" id="clipGain" name="volume" powered="true">
            <parameter index="0" name="volume" parameterValue="0">
              <parameterKeyframes enableSplines="true">
                <parameterKeyframe sampleOffset="390360" select="false" type="linear" value="0.65"/>
                <parameterKeyframe sampleOffset="401069" select="true" type="linear" value="0.5532258"/>
              </parameterKeyframes>
            </parameter>
            <parameter index="1" name="static gain" parameterValue="1"/>
          </component>
          <component componentID="Audition.Mute" id="clipMute" name="Mute" powered="true">
            <parameter index="0" parameterValue="0"/>
            <parameter index="1" name="mute" parameterValue="0"/>
          </component>
          <component componentID="Audition.StereoPanner" id="clipPan" name="StereoPanner" powered="true">
            <parameter index="0" name="Panorámica" parameterValue="0"/>
          </component>
          <fadeIn crossFadeLinkType="linkedAsymmetric" endPoint="0" shape="19" startPoint="0" type="log"/>
          <fadeOut crossFadeLinkType="linkedAsymmetric" endPoint="140349" shape="0" startPoint="140349" type="cosine"/>
          <editParameter parameterIndex="0" slotIndex="4294967281"/>
          <editParameter parameterIndex="0" slotIndex="4294967280"/>
          <channelMap>
            <channel index="0" sourceIndex="0"/>
            <channel index="1" sourceIndex="1"/>
          </channelMap>
        </audioClip>
      </audioTrack>
      <audioTrack automationLaneOpenState="false" id="10042" index="12" select="false" visible="true">
        <trackParameters trackHeight="129">
          <name>Rebote_4</name>
        </trackParameters>
        <trackAudioParameters audioChannelType="stereo" automationMode="1" monitoring="false" recordArmed="false" solo="false" soloSafe="false">
          <trackOutput outputID="10000" type="trackID"/>
          <trackInput inputID="1"/>
          <component componentID="Audition.Fader" id="trackFader" name="volume" powered="true">
            <parameter index="0" name="volume" parameterValue="1"/>
            <parameter index="1" name="static gain" parameterValue="1"/>
          </component>
          <component componentID="Audition.Mute" id="trackMute" name="Mute" powered="true">
            <parameter index="0" parameterValue="0"/>
            <parameter index="1" name="mute" parameterValue="0"/>
          </component>
          <component componentID="Audition.StereoPanner" id="trackPan" name="StereoPanner" powered="true">
            <parameter index="0" name="Panorámica" parameterValue="0"/>
          </component>
          <component componentID="Audition.EQ" id="trackEQ" name="EQ" powered="false">
            <parameter index="0" name="Frecuencia estante inferior" parameterValue="0.0009079"/>
            <parameter index="1" name="Ganancia estante inferior" parameterValue="0.5"/>
            <parameter index="2" name="Frecuencia estante superior" parameterValue="0.8161598"/>
            <parameter index="3" name="Ganancia estante superior" parameterValue="0.5"/>
            <parameter index="4" name="Frecuencia central de banda de EC 1" parameterValue="0.0013618"/>
            <parameter index="5" name="Valor Q de banda de EC 1" parameterValue="0.0002"/>
            <parameter index="6" name="Ganancia de banda de EC 1" parameterValue="0.5"/>
            <parameter index="7" name="Activación de banda de EC 1" parameterValue="1"/>
            <parameter index="8" name="Frecuencia central de banda de EC 2" parameterValue="0.0081707"/>
            <parameter index="9" name="Valor Q de banda de EC 2" parameterValue="0.0002"/>
            <parameter index="10" name="Ganancia de banda de EC 2" parameterValue="0.5"/>
            <parameter index="11" name="Activación de banda de EC 2" parameterValue="1"/>
            <parameter index="12" name="Frecuencia central de banda de EC 3" parameterValue="0.0354063"/>
            <parameter index="13" name="Valor Q de banda de EC 3" parameterValue="0.0002"/>
            <parameter index="14" name="Ganancia de banda de EC 3" parameterValue="0.5"/>
            <parameter index="15" name="Activación de banda de EC 3" parameterValue="1"/>
            <parameter index="16" name="Frecuencia central de banda de EC 4" parameterValue="0.1443486"/>
            <parameter index="17" name="Valor Q de banda de EC 4" parameterValue="0.0002"/>
            <parameter index="18" name="Ganancia de banda de EC 4" parameterValue="0.5"/>
            <parameter index="19" name="Activación de banda de EC 4" parameterValue="1"/>
            <parameter index="20" name="Frecuencia central de banda de EC 5" parameterValue="0.580118"/>
            <parameter index="21" name="Valor Q de banda de EC 5" parameterValue="0.0002"/>
            <parameter index="22" name="Ganancia de banda de EC 5" parameterValue="0.5"/>
            <parameter index="23" name="Activación de banda de EC 5" parameterValue="1"/>
            <parameter index="24" name="Ganancia maestra" parameterValue="0.6666667"/>
            <parameter index="25" name="Constant Q" parameterValue="1"/>
            <parameter index="26" name="Orden de filtro de estante inferior" parameterValue="0"/>
            <parameter index="27" name="Orden de filtro de estante superior" parameterValue="0"/>
            <parameter index="28" name="Modo ultrasilencioso" parameterValue="0"/>
            <parameter index="29" name="Activar estante inferior" parameterValue="1"/>
            <parameter index="30" name="Activar estante superior" parameterValue="1"/>
            <parameter index="31" name="Velocidad de muestreo original" parameterValue="0.2296875"/>
            <parameter index="32" name="Ancho de banda de EC 1" parameterValue="0.0025"/>
            <parameter index="33" name="Ancho de banda de EC 2" parameterValue="0.01"/>
            <parameter index="34" name="Ancho de banda de EC 3" parameterValue="0.04"/>
            <parameter index="35" name="Ancho de banda de EC 4" parameterValue="0.16"/>
            <parameter index="36" name="Ancho de banda de EC 5" parameterValue="0.64"/>
            <parameter index="37" name="Activación de filtro de pase alto" parameterValue="0"/>
            <parameter index="38" name="Frecuencia de límite de paso alto" parameterValue="0"/>
            <parameter index="39" name="Pendiente de paso alto" parameterValue="4"/>
            <parameter index="40" name="Activación de filtro de pase bajo" parameterValue="0"/>
            <parameter index="41" name="Frecuencia de límite de paso bajo" parameterValue="0.906945"/>
            <parameter index="42" name="Pendiente de paso bajo" parameterValue="4"/>
            <parameter index="43" name="Omitir" parameterValue="0"/>
            <parameter index="44" name="Rango de gráfico bajo" parameterValue="1"/>
          </component>
        </trackAudioParameters>
        <editParameter parameterIndex="0" slotIndex="4294967280"/>
        <sendList>
          <sendSlot preFader="false" sendOutputID="0" slotIndex="0">
            <component id="sendComponent" powered="false">
              <parameter index="0" name="Encendido/Apagado" parameterValue="0"/>
              <parameter index="1" name="Nivel" parameterValue="0"/>
            </component>
            <component id="sendPan" powered="true"/>
          </sendSlot>
          <sendSlot preFader="false" sendOutputID="0" slotIndex="1">
            <component id="sendComponent" powered="false">
              <parameter index="0" name="Encendido/Apagado" parameterValue="0"/>
              <parameter index="1" name="Nivel" parameterValue="0"/>
            </component>
            <component id="sendPan" powered="true"/>
          </sendSlot>
          <sendSlot preFader="false" sendOutputID="0" slotIndex="2">
            <component id="sendComponent" powered="false">
              <parameter index="0" name="Encendido/Apagado" parameterValue="0"/>
              <parameter index="1" name="Nivel" parameterValue="0"/>
            </component>
            <component id="sendPan" powered="true"/>
          </sendSlot>
          <sendSlot preFader="false" sendOutputID="0" slotIndex="3">
            <component id="sendComponent" powered="false">
              <parameter index="0" name="Encendido/Apagado" parameterValue="0"/>
              <parameter index="1" name="Nivel" parameterValue="0"/>
            </component>
            <component id="sendPan" powered="true"/>
          </sendSlot>
          <sendSlot preFader="false" sendOutputID="0" slotIndex="4">
            <component id="sendComponent" powered="false">
              <parameter index="0" name="Encendido/Apagado" parameterValue="0"/>
              <parameter index="1" name="Nivel" parameterValue="0"/>
            </component>
            <component id="sendPan" powered="true"/>
          </sendSlot>
          <sendSlot preFader="false" sendOutputID="0" slotIndex="5">
            <component id="sendComponent" powered="false">
              <parameter index="0" name="Encendido/Apagado" parameterValue="0"/>
              <parameter index="1" name="Nivel" parameterValue="0"/>
            </component>
            <component id="sendPan" powered="true"/>
          </sendSlot>
          <sendSlot preFader="false" sendOutputID="0" slotIndex="6">
            <component id="sendComponent" powered="false">
              <parameter index="0" name="Encendido/Apagado" parameterValue="0"/>
              <parameter index="1" name="Nivel" parameterValue="0"/>
            </component>
            <component id="sendPan" powered="true"/>
          </sendSlot>
          <sendSlot preFader="false" sendOutputID="0" slotIndex="7">
            <component id="sendComponent" powered="false">
              <parameter index="0" name="Encendido/Apagado" parameterValue="0"/>
              <parameter index="1" name="Nivel" parameterValue="0"/>
            </component>
            <component id="sendPan" powered="true"/>
          </sendSlot>
          <sendSlot preFader="false" sendOutputID="0" slotIndex="8">
            <component id="sendComponent" powered="false">
              <parameter index="0" name="Encendido/Apagado" parameterValue="0"/>
              <parameter index="1" name="Nivel" parameterValue="0"/>
            </component>
            <component id="sendPan" powered="true"/>
          </sendSlot>
          <sendSlot preFader="false" sendOutputID="0" slotIndex="9">
            <component id="sendComponent" powered="false">
              <parameter index="0" name="Encendido/Apagado" parameterValue="0"/>
              <parameter index="1" name="Nivel" parameterValue="0"/>
            </component>
            <component id="sendPan" powered="true"/>
          </sendSlot>
          <sendSlot preFader="false" sendOutputID="0" slotIndex="10">
            <component id="sendComponent" powered="false">
              <parameter index="0" name="Encendido/Apagado" parameterValue="0"/>
              <parameter index="1" name="Nivel" parameterValue="0"/>
            </component>
            <component id="sendPan" powered="true"/>
          </sendSlot>
          <sendSlot preFader="false" sendOutputID="0" slotIndex="11">
            <component id="sendComponent" powered="false">
              <parameter index="0" name="Encendido/Apagado" parameterValue="0"/>
              <parameter index="1" name="Nivel" parameterValue="0"/>
            </component>
            <component id="sendPan" powered="true"/>
          </sendSlot>
          <sendSlot preFader="false" sendOutputID="0" slotIndex="12">
            <component id="sendComponent" powered="false">
              <parameter index="0" name="Encendido/Apagado" parameterValue="0"/>
              <parameter index="1" name="Nivel" parameterValue="0"/>
            </component>
            <component id="sendPan" powered="true"/>
          </sendSlot>
          <sendSlot preFader="false" sendOutputID="0" slotIndex="13">
            <component id="sendComponent" powered="false">
              <parameter index="0" name="Encendido/Apagado" parameterValue="0"/>
              <parameter index="1" name="Nivel" parameterValue="0"/>
            </component>
            <component id="sendPan" powered="true"/>
          </sendSlot>
          <sendSlot preFader="false" sendOutputID="0" slotIndex="14">
            <component id="sendComponent" powered="false">
              <parameter index="0" name="Encendido/Apagado" parameterValue="0"/>
              <parameter index="1" name="Nivel" parameterValue="0"/>
            </component>
            <component id="sendPan" powered="true"/>
          </sendSlot>
          <sendSlot preFader="false" sendOutputID="0" slotIndex="15">
            <component id="sendComponent" powered="false">
              <parameter index="0" name="Encendido/Apagado" parameterValue="0"/>
              <parameter index="1" name="Nivel" parameterValue="0"/>
            </component>
            <component id="sendPan" powered="true"/>
          </sendSlot>
        </sendList>
      </audioTrack>
      <audioTrack automationLaneOpenState="false" id="10025" index="13" select="false" visible="true">
        <trackParameters trackHeight="129">
          <name>Pista 2</name>
        </trackParameters>
        <trackAudioParameters audioChannelType="stereo" automationMode="1" monitoring="false" recordArmed="false" solo="false" soloSafe="false">
          <trackOutput outputID="10000" type="trackID"/>
          <trackInput inputID="1"/>
          <component componentID="Audition.Fader" id="trackFader" name="volume" powered="true">
            <parameter index="0" name="volume" parameterValue="1"/>
            <parameter index="1" name="static gain" parameterValue="1"/>
          </component>
          <component componentID="Audition.Mute" id="trackMute" name="Mute" powered="true">
            <parameter index="0" parameterValue="0"/>
            <parameter index="1" name="mute" parameterValue="0"/>
          </component>
          <component componentID="Audition.StereoPanner" id="trackPan" name="StereoPanner" powered="true">
            <parameter index="0" name="Panorámica" parameterValue="0"/>
          </component>
          <component componentID="Audition.EQ" id="trackEQ" name="EQ" powered="false">
            <parameter index="0" name="Frecuencia estante inferior" parameterValue="0.0009079"/>
            <parameter index="1" name="Ganancia estante inferior" parameterValue="0.5"/>
            <parameter index="2" name="Frecuencia estante superior" parameterValue="0.8161598"/>
            <parameter index="3" name="Ganancia estante superior" parameterValue="0.5"/>
            <parameter index="4" name="Frecuencia central de banda de EC 1" parameterValue="0.0013618"/>
            <parameter index="5" name="Valor Q de banda de EC 1" parameterValue="0.0002"/>
            <parameter index="6" name="Ganancia de banda de EC 1" parameterValue="0.5"/>
            <parameter index="7" name="Activación de banda de EC 1" parameterValue="1"/>
            <parameter index="8" name="Frecuencia central de banda de EC 2" parameterValue="0.0081707"/>
            <parameter index="9" name="Valor Q de banda de EC 2" parameterValue="0.0002"/>
            <parameter index="10" name="Ganancia de banda de EC 2" parameterValue="0.5"/>
            <parameter index="11" name="Activación de banda de EC 2" parameterValue="1"/>
            <parameter index="12" name="Frecuencia central de banda de EC 3" parameterValue="0.0354063"/>
            <parameter index="13" name="Valor Q de banda de EC 3" parameterValue="0.0002"/>
            <parameter index="14" name="Ganancia de banda de EC 3" parameterValue="0.5"/>
            <parameter index="15" name="Activación de banda de EC 3" parameterValue="1"/>
            <parameter index="16" name="Frecuencia central de banda de EC 4" parameterValue="0.1443486"/>
            <parameter index="17" name="Valor Q de banda de EC 4" parameterValue="0.0002"/>
            <parameter index="18" name="Ganancia de banda de EC 4" parameterValue="0.5"/>
            <parameter index="19" name="Activación de banda de EC 4" parameterValue="1"/>
            <parameter index="20" name="Frecuencia central de banda de EC 5" parameterValue="0.580118"/>
            <parameter index="21" name="Valor Q de banda de EC 5" parameterValue="0.0002"/>
            <parameter index="22" name="Ganancia de banda de EC 5" parameterValue="0.5"/>
            <parameter index="23" name="Activación de banda de EC 5" parameterValue="1"/>
            <parameter index="24" name="Ganancia maestra" parameterValue="0.6666667"/>
            <parameter index="25" name="Constant Q" parameterValue="1"/>
            <parameter index="26" name="Orden de filtro de estante inferior" parameterValue="0"/>
            <parameter index="27" name="Orden de filtro de estante superior" parameterValue="0"/>
            <parameter index="28" name="Modo ultrasilencioso" parameterValue="0"/>
            <parameter index="29" name="Activar estante inferior" parameterValue="1"/>
            <parameter index="30" name="Activar estante superior" parameterValue="1"/>
            <parameter index="31" name="Velocidad de muestreo original" parameterValue="0.2296875"/>
            <parameter index="32" name="Ancho de banda de EC 1" parameterValue="0.0025"/>
            <parameter index="33" name="Ancho de banda de EC 2" parameterValue="0.01"/>
            <parameter index="34" name="Ancho de banda de EC 3" parameterValue="0.04"/>
            <parameter index="35" name="Ancho de banda de EC 4" parameterValue="0.16"/>
            <parameter index="36" name="Ancho de banda de EC 5" parameterValue="0.64"/>
            <parameter index="37" name="Activación de filtro de pase alto" parameterValue="0"/>
            <parameter index="38" name="Frecuencia de límite de paso alto" parameterValue="0"/>
            <parameter index="39" name="Pendiente de paso alto" parameterValue="4"/>
            <parameter index="40" name="Activación de filtro de pase bajo" parameterValue="0"/>
            <parameter index="41" name="Frecuencia de límite de paso bajo" parameterValue="0.906945"/>
            <parameter index="42" name="Pendiente de paso bajo" parameterValue="4"/>
            <parameter index="43" name="Omitir" parameterValue="0"/>
            <parameter index="44" name="Rango de gráfico bajo" parameterValue="1"/>
          </component>
        </trackAudioParameters>
        <editParameter parameterIndex="0" slotIndex="4294967280"/>
        <sendList>
          <sendSlot preFader="false" sendOutputID="0" slotIndex="0">
            <component id="sendComponent" powered="false">
              <parameter index="0" name="Encendido/Apagado" parameterValue="0"/>
              <parameter index="1" name="Nivel" parameterValue="0"/>
            </component>
            <component id="sendPan" powered="true"/>
          </sendSlot>
          <sendSlot preFader="false" sendOutputID="0" slotIndex="1">
            <component id="sendComponent" powered="false">
              <parameter index="0" name="Encendido/Apagado" parameterValue="0"/>
              <parameter index="1" name="Nivel" parameterValue="0"/>
            </component>
            <component id="sendPan" powered="true"/>
          </sendSlot>
          <sendSlot preFader="false" sendOutputID="0" slotIndex="2">
            <component id="sendComponent" powered="false">
              <parameter index="0" name="Encendido/Apagado" parameterValue="0"/>
              <parameter index="1" name="Nivel" parameterValue="0"/>
            </component>
            <component id="sendPan" powered="true"/>
          </sendSlot>
          <sendSlot preFader="false" sendOutputID="0" slotIndex="3">
            <component id="sendComponent" powered="false">
              <parameter index="0" name="Encendido/Apagado" parameterValue="0"/>
              <parameter index="1" name="Nivel" parameterValue="0"/>
            </component>
            <component id="sendPan" powered="true"/>
          </sendSlot>
          <sendSlot preFader="false" sendOutputID="0" slotIndex="4">
            <component id="sendComponent" powered="false">
              <parameter index="0" name="Encendido/Apagado" parameterValue="0"/>
              <parameter index="1" name="Nivel" parameterValue="0"/>
            </component>
            <component id="sendPan" powered="true"/>
          </sendSlot>
          <sendSlot preFader="false" sendOutputID="0" slotIndex="5">
            <component id="sendComponent" powered="false">
              <parameter index="0" name="Encendido/Apagado" parameterValue="0"/>
              <parameter index="1" name="Nivel" parameterValue="0"/>
            </component>
            <component id="sendPan" powered="true"/>
          </sendSlot>
          <sendSlot preFader="false" sendOutputID="0" slotIndex="6">
            <component id="sendComponent" powered="false">
              <parameter index="0" name="Encendido/Apagado" parameterValue="0"/>
              <parameter index="1" name="Nivel" parameterValue="0"/>
            </component>
            <component id="sendPan" powered="true"/>
          </sendSlot>
          <sendSlot preFader="false" sendOutputID="0" slotIndex="7">
            <component id="sendComponent" powered="false">
              <parameter index="0" name="Encendido/Apagado" parameterValue="0"/>
              <parameter index="1" name="Nivel" parameterValue="0"/>
            </component>
            <component id="sendPan" powered="true"/>
          </sendSlot>
          <sendSlot preFader="false" sendOutputID="0" slotIndex="8">
            <component id="sendComponent" powered="false">
              <parameter index="0" name="Encendido/Apagado" parameterValue="0"/>
              <parameter index="1" name="Nivel" parameterValue="0"/>
            </component>
            <component id="sendPan" powered="true"/>
          </sendSlot>
          <sendSlot preFader="false" sendOutputID="0" slotIndex="9">
            <component id="sendComponent" powered="false">
              <parameter index="0" name="Encendido/Apagado" parameterValue="0"/>
              <parameter index="1" name="Nivel" parameterValue="0"/>
            </component>
            <component id="sendPan" powered="true"/>
          </sendSlot>
          <sendSlot preFader="false" sendOutputID="0" slotIndex="10">
            <component id="sendComponent" powered="false">
              <parameter index="0" name="Encendido/Apagado" parameterValue="0"/>
              <parameter index="1" name="Nivel" parameterValue="0"/>
            </component>
            <component id="sendPan" powered="true"/>
          </sendSlot>
          <sendSlot preFader="false" sendOutputID="0" slotIndex="11">
            <component id="sendComponent" powered="false">
              <parameter index="0" name="Encendido/Apagado" parameterValue="0"/>
              <parameter index="1" name="Nivel" parameterValue="0"/>
            </component>
            <component id="sendPan" powered="true"/>
          </sendSlot>
          <sendSlot preFader="false" sendOutputID="0" slotIndex="12">
            <component id="sendComponent" powered="false">
              <parameter index="0" name="Encendido/Apagado" parameterValue="0"/>
              <parameter index="1" name="Nivel" parameterValue="0"/>
            </component>
            <component id="sendPan" powered="true"/>
          </sendSlot>
          <sendSlot preFader="false" sendOutputID="0" slotIndex="13">
            <component id="sendComponent" powered="false">
              <parameter index="0" name="Encendido/Apagado" parameterValue="0"/>
              <parameter index="1" name="Nivel" parameterValue="0"/>
            </component>
            <component id="sendPan" powered="true"/>
          </sendSlot>
          <sendSlot preFader="false" sendOutputID="0" slotIndex="14">
            <component id="sendComponent" powered="false">
              <parameter index="0" name="Encendido/Apagado" parameterValue="0"/>
              <parameter index="1" name="Nivel" parameterValue="0"/>
            </component>
            <component id="sendPan" powered="true"/>
          </sendSlot>
          <sendSlot preFader="false" sendOutputID="0" slotIndex="15">
            <component id="sendComponent" powered="false">
              <parameter index="0" name="Encendido/Apagado" parameterValue="0"/>
              <parameter index="1" name="Nivel" parameterValue="0"/>
            </component>
            <component id="sendPan" powered="true"/>
          </sendSlot>
        </sendList>
      </audioTrack>
      <audioTrack automationLaneOpenState="false" id="10005" index="14" select="false" visible="true">
        <trackParameters trackHeight="129">
          <name>Pista 5</name>
        </trackParameters>
        <trackAudioParameters audioChannelType="stereo" automationMode="1" monitoring="false" recordArmed="false" solo="false" soloSafe="false">
          <trackOutput outputID="10000" type="trackID"/>
          <trackInput inputID="1"/>
          <component componentID="Audition.Fader" id="trackFader" name="volume" powered="true">
            <parameter index="0" name="volume" parameterValue="1"/>
            <parameter index="1" name="static gain" parameterValue="1"/>
          </component>
          <component componentID="Audition.Mute" id="trackMute" name="Mute" powered="true">
            <parameter index="0" parameterValue="0"/>
            <parameter index="1" name="mute" parameterValue="0"/>
          </component>
          <component componentID="Audition.StereoPanner" id="trackPan" name="StereoPanner" powered="true">
            <parameter index="0" name="Panorámica" parameterValue="0"/>
          </component>
          <component componentID="Audition.EQ" id="trackEQ" name="EQ" powered="false">
            <parameter index="0" name="Frecuencia estante inferior" parameterValue="0.0009079"/>
            <parameter index="1" name="Ganancia estante inferior" parameterValue="0.5"/>
            <parameter index="2" name="Frecuencia estante superior" parameterValue="0.8161598"/>
            <parameter index="3" name="Ganancia estante superior" parameterValue="0.5"/>
            <parameter index="4" name="Frecuencia central de banda de EC 1" parameterValue="0.0013618"/>
            <parameter index="5" name="Valor Q de banda de EC 1" parameterValue="0.0002"/>
            <parameter index="6" name="Ganancia de banda de EC 1" parameterValue="0.5"/>
            <parameter index="7" name="Activación de banda de EC 1" parameterValue="1"/>
            <parameter index="8" name="Frecuencia central de banda de EC 2" parameterValue="0.0081707"/>
            <parameter index="9" name="Valor Q de banda de EC 2" parameterValue="0.0002"/>
            <parameter index="10" name="Ganancia de banda de EC 2" parameterValue="0.5"/>
            <parameter index="11" name="Activación de banda de EC 2" parameterValue="1"/>
            <parameter index="12" name="Frecuencia central de banda de EC 3" parameterValue="0.0354063"/>
            <parameter index="13" name="Valor Q de banda de EC 3" parameterValue="0.0002"/>
            <parameter index="14" name="Ganancia de banda de EC 3" parameterValue="0.5"/>
            <parameter index="15" name="Activación de banda de EC 3" parameterValue="1"/>
            <parameter index="16" name="Frecuencia central de banda de EC 4" parameterValue="0.1443486"/>
            <parameter index="17" name="Valor Q de banda de EC 4" parameterValue="0.0002"/>
            <parameter index="18" name="Ganancia de banda de EC 4" parameterValue="0.5"/>
            <parameter index="19" name="Activación de banda de EC 4" parameterValue="1"/>
            <parameter index="20" name="Frecuencia central de banda de EC 5" parameterValue="0.580118"/>
            <parameter index="21" name="Valor Q de banda de EC 5" parameterValue="0.0002"/>
            <parameter index="22" name="Ganancia de banda de EC 5" parameterValue="0.5"/>
            <parameter index="23" name="Activación de banda de EC 5" parameterValue="1"/>
            <parameter index="24" name="Ganancia maestra" parameterValue="0.6666667"/>
            <parameter index="25" name="Constant Q" parameterValue="1"/>
            <parameter index="26" name="Orden de filtro de estante inferior" parameterValue="0"/>
            <parameter index="27" name="Orden de filtro de estante superior" parameterValue="0"/>
            <parameter index="28" name="Modo ultrasilencioso" parameterValue="0"/>
            <parameter index="29" name="Activar estante inferior" parameterValue="1"/>
            <parameter index="30" name="Activar estante superior" parameterValue="1"/>
            <parameter index="31" name="Velocidad de muestreo original" parameterValue="0.2296875"/>
            <parameter index="32" name="Ancho de banda de EC 1" parameterValue="0.0025"/>
            <parameter index="33" name="Ancho de banda de EC 2" parameterValue="0.01"/>
            <parameter index="34" name="Ancho de banda de EC 3" parameterValue="0.04"/>
            <parameter index="35" name="Ancho de banda de EC 4" parameterValue="0.16"/>
            <parameter index="36" name="Ancho de banda de EC 5" parameterValue="0.64"/>
            <parameter index="37" name="Activación de filtro de pase alto" parameterValue="0"/>
            <parameter index="38" name="Frecuencia de límite de paso alto" parameterValue="0"/>
            <parameter index="39" name="Pendiente de paso alto" parameterValue="4"/>
            <parameter index="40" name="Activación de filtro de pase bajo" parameterValue="0"/>
            <parameter index="41" name="Frecuencia de límite de paso bajo" parameterValue="0.906945"/>
            <parameter index="42" name="Pendiente de paso bajo" parameterValue="4"/>
            <parameter index="43" name="Omitir" parameterValue="0"/>
            <parameter index="44" name="Rango de gráfico bajo" parameterValue="1"/>
          </component>
        </trackAudioParameters>
        <editParameter parameterIndex="0" slotIndex="4294967280"/>
        <sendList>
          <sendSlot preFader="false" sendOutputID="0" slotIndex="0">
            <component id="sendComponent" powered="false">
              <parameter index="0" name="Encendido/Apagado" parameterValue="0"/>
              <parameter index="1" name="Nivel" parameterValue="0"/>
            </component>
            <component id="sendPan" powered="true"/>
          </sendSlot>
          <sendSlot preFader="false" sendOutputID="0" slotIndex="1">
            <component id="sendComponent" powered="false">
              <parameter index="0" name="Encendido/Apagado" parameterValue="0"/>
              <parameter index="1" name="Nivel" parameterValue="0"/>
            </component>
            <component id="sendPan" powered="true"/>
          </sendSlot>
          <sendSlot preFader="false" sendOutputID="0" slotIndex="2">
            <component id="sendComponent" powered="false">
              <parameter index="0" name="Encendido/Apagado" parameterValue="0"/>
              <parameter index="1" name="Nivel" parameterValue="0"/>
            </component>
            <component id="sendPan" powered="true"/>
          </sendSlot>
          <sendSlot preFader="false" sendOutputID="0" slotIndex="3">
            <component id="sendComponent" powered="false">
              <parameter index="0" name="Encendido/Apagado" parameterValue="0"/>
              <parameter index="1" name="Nivel" parameterValue="0"/>
            </component>
            <component id="sendPan" powered="true"/>
          </sendSlot>
          <sendSlot preFader="false" sendOutputID="0" slotIndex="4">
            <component id="sendComponent" powered="false">
              <parameter index="0" name="Encendido/Apagado" parameterValue="0"/>
              <parameter index="1" name="Nivel" parameterValue="0"/>
            </component>
            <component id="sendPan" powered="true"/>
          </sendSlot>
          <sendSlot preFader="false" sendOutputID="0" slotIndex="5">
            <component id="sendComponent" powered="false">
              <parameter index="0" name="Encendido/Apagado" parameterValue="0"/>
              <parameter index="1" name="Nivel" parameterValue="0"/>
            </component>
            <component id="sendPan" powered="true"/>
          </sendSlot>
          <sendSlot preFader="false" sendOutputID="0" slotIndex="6">
            <component id="sendComponent" powered="false">
              <parameter index="0" name="Encendido/Apagado" parameterValue="0"/>
              <parameter index="1" name="Nivel" parameterValue="0"/>
            </component>
            <component id="sendPan" powered="true"/>
          </sendSlot>
          <sendSlot preFader="false" sendOutputID="0" slotIndex="7">
            <component id="sendComponent" powered="false">
              <parameter index="0" name="Encendido/Apagado" parameterValue="0"/>
              <parameter index="1" name="Nivel" parameterValue="0"/>
            </component>
            <component id="sendPan" powered="true"/>
          </sendSlot>
          <sendSlot preFader="false" sendOutputID="0" slotIndex="8">
            <component id="sendComponent" powered="false">
              <parameter index="0" name="Encendido/Apagado" parameterValue="0"/>
              <parameter index="1" name="Nivel" parameterValue="0"/>
            </component>
            <component id="sendPan" powered="true"/>
          </sendSlot>
          <sendSlot preFader="false" sendOutputID="0" slotIndex="9">
            <component id="sendComponent" powered="false">
              <parameter index="0" name="Encendido/Apagado" parameterValue="0"/>
              <parameter index="1" name="Nivel" parameterValue="0"/>
            </component>
            <component id="sendPan" powered="true"/>
          </sendSlot>
          <sendSlot preFader="false" sendOutputID="0" slotIndex="10">
            <component id="sendComponent" powered="false">
              <parameter index="0" name="Encendido/Apagado" parameterValue="0"/>
              <parameter index="1" name="Nivel" parameterValue="0"/>
            </component>
            <component id="sendPan" powered="true"/>
          </sendSlot>
          <sendSlot preFader="false" sendOutputID="0" slotIndex="11">
            <component id="sendComponent" powered="false">
              <parameter index="0" name="Encendido/Apagado" parameterValue="0"/>
              <parameter index="1" name="Nivel" parameterValue="0"/>
            </component>
            <component id="sendPan" powered="true"/>
          </sendSlot>
          <sendSlot preFader="false" sendOutputID="0" slotIndex="12">
            <component id="sendComponent" powered="false">
              <parameter index="0" name="Encendido/Apagado" parameterValue="0"/>
              <parameter index="1" name="Nivel" parameterValue="0"/>
            </component>
            <component id="sendPan" powered="true"/>
          </sendSlot>
          <sendSlot preFader="false" sendOutputID="0" slotIndex="13">
            <component id="sendComponent" powered="false">
              <parameter index="0" name="Encendido/Apagado" parameterValue="0"/>
              <parameter index="1" name="Nivel" parameterValue="0"/>
            </component>
            <component id="sendPan" powered="true"/>
          </sendSlot>
          <sendSlot preFader="false" sendOutputID="0" slotIndex="14">
            <component id="sendComponent" powered="false">
              <parameter index="0" name="Encendido/Apagado" parameterValue="0"/>
              <parameter index="1" name="Nivel" parameterValue="0"/>
            </component>
            <component id="sendPan" powered="true"/>
          </sendSlot>
          <sendSlot preFader="false" sendOutputID="0" slotIndex="15">
            <component id="sendComponent" powered="false">
              <parameter index="0" name="Encendido/Apagado" parameterValue="0"/>
              <parameter index="1" name="Nivel" parameterValue="0"/>
            </component>
            <component id="sendPan" powered="true"/>
          </sendSlot>
        </sendList>
      </audioTrack>
      <audioTrack automationLaneOpenState="false" id="10006" index="15" select="false" visible="true">
        <trackParameters trackHeight="129">
          <name>Pista 6</name>
        </trackParameters>
        <trackAudioParameters audioChannelType="stereo" automationMode="1" monitoring="false" recordArmed="false" solo="false" soloSafe="false">
          <trackOutput outputID="10000" type="trackID"/>
          <trackInput inputID="1"/>
          <component componentID="Audition.Fader" id="trackFader" name="volume" powered="true">
            <parameter index="0" name="volume" parameterValue="1"/>
            <parameter index="1" name="static gain" parameterValue="1"/>
          </component>
          <component componentID="Audition.Mute" id="trackMute" name="Mute" powered="true">
            <parameter index="0" parameterValue="0"/>
            <parameter index="1" name="mute" parameterValue="0"/>
          </component>
          <component componentID="Audition.StereoPanner" id="trackPan" name="StereoPanner" powered="true">
            <parameter index="0" name="Panorámica" parameterValue="0"/>
          </component>
          <component componentID="Audition.EQ" id="trackEQ" name="EQ" powered="false">
            <parameter index="0" name="Frecuencia estante inferior" parameterValue="0.0009079"/>
            <parameter index="1" name="Ganancia estante inferior" parameterValue="0.5"/>
            <parameter index="2" name="Frecuencia estante superior" parameterValue="0.8161598"/>
            <parameter index="3" name="Ganancia estante superior" parameterValue="0.5"/>
            <parameter index="4" name="Frecuencia central de banda de EC 1" parameterValue="0.0013618"/>
            <parameter index="5" name="Valor Q de banda de EC 1" parameterValue="0.0002"/>
            <parameter index="6" name="Ganancia de banda de EC 1" parameterValue="0.5"/>
            <parameter index="7" name="Activación de banda de EC 1" parameterValue="1"/>
            <parameter index="8" name="Frecuencia central de banda de EC 2" parameterValue="0.0081707"/>
            <parameter index="9" name="Valor Q de banda de EC 2" parameterValue="0.0002"/>
            <parameter index="10" name="Ganancia de banda de EC 2" parameterValue="0.5"/>
            <parameter index="11" name="Activación de banda de EC 2" parameterValue="1"/>
            <parameter index="12" name="Frecuencia central de banda de EC 3" parameterValue="0.0354063"/>
            <parameter index="13" name="Valor Q de banda de EC 3" parameterValue="0.0002"/>
            <parameter index="14" name="Ganancia de banda de EC 3" parameterValue="0.5"/>
            <parameter index="15" name="Activación de banda de EC 3" parameterValue="1"/>
            <parameter index="16" name="Frecuencia central de banda de EC 4" parameterValue="0.1443486"/>
            <parameter index="17" name="Valor Q de banda de EC 4" parameterValue="0.0002"/>
            <parameter index="18" name="Ganancia de banda de EC 4" parameterValue="0.5"/>
            <parameter index="19" name="Activación de banda de EC 4" parameterValue="1"/>
            <parameter index="20" name="Frecuencia central de banda de EC 5" parameterValue="0.580118"/>
            <parameter index="21" name="Valor Q de banda de EC 5" parameterValue="0.0002"/>
            <parameter index="22" name="Ganancia de banda de EC 5" parameterValue="0.5"/>
            <parameter index="23" name="Activación de banda de EC 5" parameterValue="1"/>
            <parameter index="24" name="Ganancia maestra" parameterValue="0.6666667"/>
            <parameter index="25" name="Constant Q" parameterValue="1"/>
            <parameter index="26" name="Orden de filtro de estante inferior" parameterValue="0"/>
            <parameter index="27" name="Orden de filtro de estante superior" parameterValue="0"/>
            <parameter index="28" name="Modo ultrasilencioso" parameterValue="0"/>
            <parameter index="29" name="Activar estante inferior" parameterValue="1"/>
            <parameter index="30" name="Activar estante superior" parameterValue="1"/>
            <parameter index="31" name="Velocidad de muestreo original" parameterValue="0.2296875"/>
            <parameter index="32" name="Ancho de banda de EC 1" parameterValue="0.0025"/>
            <parameter index="33" name="Ancho de banda de EC 2" parameterValue="0.01"/>
            <parameter index="34" name="Ancho de banda de EC 3" parameterValue="0.04"/>
            <parameter index="35" name="Ancho de banda de EC 4" parameterValue="0.16"/>
            <parameter index="36" name="Ancho de banda de EC 5" parameterValue="0.64"/>
            <parameter index="37" name="Activación de filtro de pase alto" parameterValue="0"/>
            <parameter index="38" name="Frecuencia de límite de paso alto" parameterValue="0"/>
            <parameter index="39" name="Pendiente de paso alto" parameterValue="4"/>
            <parameter index="40" name="Activación de filtro de pase bajo" parameterValue="0"/>
            <parameter index="41" name="Frecuencia de límite de paso bajo" parameterValue="0.906945"/>
            <parameter index="42" name="Pendiente de paso bajo" parameterValue="4"/>
            <parameter index="43" name="Omitir" parameterValue="0"/>
            <parameter index="44" name="Rango de gráfico bajo" parameterValue="1"/>
          </component>
        </trackAudioParameters>
        <editParameter parameterIndex="0" slotIndex="4294967280"/>
        <sendList>
          <sendSlot preFader="false" sendOutputID="0" slotIndex="0">
            <component id="sendComponent" powered="false">
              <parameter index="0" name="Encendido/Apagado" parameterValue="0"/>
              <parameter index="1" name="Nivel" parameterValue="0"/>
            </component>
            <component id="sendPan" powered="true"/>
          </sendSlot>
          <sendSlot preFader="false" sendOutputID="0" slotIndex="1">
            <component id="sendComponent" powered="false">
              <parameter index="0" name="Encendido/Apagado" parameterValue="0"/>
              <parameter index="1" name="Nivel" parameterValue="0"/>
            </component>
            <component id="sendPan" powered="true"/>
          </sendSlot>
          <sendSlot preFader="false" sendOutputID="0" slotIndex="2">
            <component id="sendComponent" powered="false">
              <parameter index="0" name="Encendido/Apagado" parameterValue="0"/>
              <parameter index="1" name="Nivel" parameterValue="0"/>
            </component>
            <component id="sendPan" powered="true"/>
          </sendSlot>
          <sendSlot preFader="false" sendOutputID="0" slotIndex="3">
            <component id="sendComponent" powered="false">
              <parameter index="0" name="Encendido/Apagado" parameterValue="0"/>
              <parameter index="1" name="Nivel" parameterValue="0"/>
            </component>
            <component id="sendPan" powered="true"/>
          </sendSlot>
          <sendSlot preFader="false" sendOutputID="0" slotIndex="4">
            <component id="sendComponent" powered="false">
              <parameter index="0" name="Encendido/Apagado" parameterValue="0"/>
              <parameter index="1" name="Nivel" parameterValue="0"/>
            </component>
            <component id="sendPan" powered="true"/>
          </sendSlot>
          <sendSlot preFader="false" sendOutputID="0" slotIndex="5">
            <component id="sendComponent" powered="false">
              <parameter index="0" name="Encendido/Apagado" parameterValue="0"/>
              <parameter index="1" name="Nivel" parameterValue="0"/>
            </component>
            <component id="sendPan" powered="true"/>
          </sendSlot>
          <sendSlot preFader="false" sendOutputID="0" slotIndex="6">
            <component id="sendComponent" powered="false">
              <parameter index="0" name="Encendido/Apagado" parameterValue="0"/>
              <parameter index="1" name="Nivel" parameterValue="0"/>
            </component>
            <component id="sendPan" powered="true"/>
          </sendSlot>
          <sendSlot preFader="false" sendOutputID="0" slotIndex="7">
            <component id="sendComponent" powered="false">
              <parameter index="0" name="Encendido/Apagado" parameterValue="0"/>
              <parameter index="1" name="Nivel" parameterValue="0"/>
            </component>
            <component id="sendPan" powered="true"/>
          </sendSlot>
          <sendSlot preFader="false" sendOutputID="0" slotIndex="8">
            <component id="sendComponent" powered="false">
              <parameter index="0" name="Encendido/Apagado" parameterValue="0"/>
              <parameter index="1" name="Nivel" parameterValue="0"/>
            </component>
            <component id="sendPan" powered="true"/>
          </sendSlot>
          <sendSlot preFader="false" sendOutputID="0" slotIndex="9">
            <component id="sendComponent" powered="false">
              <parameter index="0" name="Encendido/Apagado" parameterValue="0"/>
              <parameter index="1" name="Nivel" parameterValue="0"/>
            </component>
            <component id="sendPan" powered="true"/>
          </sendSlot>
          <sendSlot preFader="false" sendOutputID="0" slotIndex="10">
            <component id="sendComponent" powered="false">
              <parameter index="0" name="Encendido/Apagado" parameterValue="0"/>
              <parameter index="1" name="Nivel" parameterValue="0"/>
            </component>
            <component id="sendPan" powered="true"/>
          </sendSlot>
          <sendSlot preFader="false" sendOutputID="0" slotIndex="11">
            <component id="sendComponent" powered="false">
              <parameter index="0" name="Encendido/Apagado" parameterValue="0"/>
              <parameter index="1" name="Nivel" parameterValue="0"/>
            </component>
            <component id="sendPan" powered="true"/>
          </sendSlot>
          <sendSlot preFader="false" sendOutputID="0" slotIndex="12">
            <component id="sendComponent" powered="false">
              <parameter index="0" name="Encendido/Apagado" parameterValue="0"/>
              <parameter index="1" name="Nivel" parameterValue="0"/>
            </component>
            <component id="sendPan" powered="true"/>
          </sendSlot>
          <sendSlot preFader="false" sendOutputID="0" slotIndex="13">
            <component id="sendComponent" powered="false">
              <parameter index="0" name="Encendido/Apagado" parameterValue="0"/>
              <parameter index="1" name="Nivel" parameterValue="0"/>
            </component>
            <component id="sendPan" powered="true"/>
          </sendSlot>
          <sendSlot preFader="false" sendOutputID="0" slotIndex="14">
            <component id="sendComponent" powered="false">
              <parameter index="0" name="Encendido/Apagado" parameterValue="0"/>
              <parameter index="1" name="Nivel" parameterValue="0"/>
            </component>
            <component id="sendPan" powered="true"/>
          </sendSlot>
          <sendSlot preFader="false" sendOutputID="0" slotIndex="15">
            <component id="sendComponent" powered="false">
              <parameter index="0" name="Encendido/Apagado" parameterValue="0"/>
              <parameter index="1" name="Nivel" parameterValue="0"/>
            </component>
            <component id="sendPan" powered="true"/>
          </sendSlot>
        </sendList>
      </audioTrack>
      <busTrack automationLaneOpenState="false" id="10020" index="11" select="false" visible="true">
        <trackParameters trackHeight="129">
          <name>Bus A</name>
        </trackParameters>
        <trackAudioParameters audioChannelType="stereo" automationMode="1" monitoring="false" recordArmed="false" solo="false" soloSafe="true">
          <trackOutput outputID="10000" type="trackID"/>
          <trackInput inputID="-1"/>
          <component componentID="Audition.Fader" id="trackFader" name="volume" powered="true">
            <parameter index="0" name="volume" parameterValue="1"/>
            <parameter index="1" name="static gain" parameterValue="1"/>
          </component>
          <component componentID="Audition.Mute" id="trackMute" name="Mute" powered="true">
            <parameter index="0" parameterValue="0"/>
            <parameter index="1" name="mute" parameterValue="0"/>
          </component>
          <component componentID="Audition.StereoPanner" id="trackPan" name="StereoPanner" powered="true">
            <parameter index="0" name="Panorámica" parameterValue="0"/>
          </component>
          <component componentID="Audition.EQ" id="trackEQ" name="EQ" powered="false">
            <parameter index="0" name="Frecuencia estante inferior" parameterValue="0.0009079"/>
            <parameter index="1" name="Ganancia estante inferior" parameterValue="0.5"/>
            <parameter index="2" name="Frecuencia estante superior" parameterValue="0.8161598"/>
            <parameter index="3" name="Ganancia estante superior" parameterValue="0.5"/>
            <parameter index="4" name="Frecuencia central de banda de EC 1" parameterValue="0.0013618"/>
            <parameter index="5" name="Valor Q de banda de EC 1" parameterValue="0.0002"/>
            <parameter index="6" name="Ganancia de banda de EC 1" parameterValue="0.5"/>
            <parameter index="7" name="Activación de banda de EC 1" parameterValue="1"/>
            <parameter index="8" name="Frecuencia central de banda de EC 2" parameterValue="0.0081707"/>
            <parameter index="9" name="Valor Q de banda de EC 2" parameterValue="0.0002"/>
            <parameter index="10" name="Ganancia de banda de EC 2" parameterValue="0.5"/>
            <parameter index="11" name="Activación de banda de EC 2" parameterValue="1"/>
            <parameter index="12" name="Frecuencia central de banda de EC 3" parameterValue="0.0354063"/>
            <parameter index="13" name="Valor Q de banda de EC 3" parameterValue="0.0002"/>
            <parameter index="14" name="Ganancia de banda de EC 3" parameterValue="0.5"/>
            <parameter index="15" name="Activación de banda de EC 3" parameterValue="1"/>
            <parameter index="16" name="Frecuencia central de banda de EC 4" parameterValue="0.1443486"/>
            <parameter index="17" name="Valor Q de banda de EC 4" parameterValue="0.0002"/>
            <parameter index="18" name="Ganancia de banda de EC 4" parameterValue="0.5"/>
            <parameter index="19" name="Activación de banda de EC 4" parameterValue="1"/>
            <parameter index="20" name="Frecuencia central de banda de EC 5" parameterValue="0.580118"/>
            <parameter index="21" name="Valor Q de banda de EC 5" parameterValue="0.0002"/>
            <parameter index="22" name="Ganancia de banda de EC 5" parameterValue="0.5"/>
            <parameter index="23" name="Activación de banda de EC 5" parameterValue="1"/>
            <parameter index="24" name="Ganancia maestra" parameterValue="0.6666667"/>
            <parameter index="25" name="Constant Q" parameterValue="1"/>
            <parameter index="26" name="Orden de filtro de estante inferior" parameterValue="0"/>
            <parameter index="27" name="Orden de filtro de estante superior" parameterValue="0"/>
            <parameter index="28" name="Modo ultrasilencioso" parameterValue="0"/>
            <parameter index="29" name="Activar estante inferior" parameterValue="1"/>
            <parameter index="30" name="Activar estante superior" parameterValue="1"/>
            <parameter index="31" name="Velocidad de muestreo original" parameterValue="0.2296875"/>
            <parameter index="32" name="Ancho de banda de EC 1" parameterValue="0.0025"/>
            <parameter index="33" name="Ancho de banda de EC 2" parameterValue="0.01"/>
            <parameter index="34" name="Ancho de banda de EC 3" parameterValue="0.04"/>
            <parameter index="35" name="Ancho de banda de EC 4" parameterValue="0.16"/>
            <parameter index="36" name="Ancho de banda de EC 5" parameterValue="0.64"/>
            <parameter index="37" name="Activación de filtro de pase alto" parameterValue="0"/>
            <parameter index="38" name="Frecuencia de límite de paso alto" parameterValue="0"/>
            <parameter index="39" name="Pendiente de paso alto" parameterValue="4"/>
            <parameter index="40" name="Activación de filtro de pase bajo" parameterValue="0"/>
            <parameter index="41" name="Frecuencia de límite de paso bajo" parameterValue="0.906945"/>
            <parameter index="42" name="Pendiente de paso bajo" parameterValue="4"/>
            <parameter index="43" name="Omitir" parameterValue="0"/>
            <parameter index="44" name="Rango de gráfico bajo" parameterValue="1"/>
          </component>
        </trackAudioParameters>
        <editParameter parameterIndex="0" slotIndex="4294967280"/>
        <sendList>
          <sendSlot preFader="false" sendOutputID="0" slotIndex="0">
            <component id="sendComponent" powered="false">
              <parameter index="0" name="Encendido/Apagado" parameterValue="0"/>
              <parameter index="1" name="Nivel" parameterValue="0"/>
            </component>
            <component id="sendPan" powered="true"/>
          </sendSlot>
          <sendSlot preFader="false" sendOutputID="0" slotIndex="1">
            <component id="sendComponent" powered="false">
              <parameter index="0" name="Encendido/Apagado" parameterValue="0"/>
              <parameter index="1" name="Nivel" parameterValue="0"/>
            </component>
            <component id="sendPan" powered="true"/>
          </sendSlot>
          <sendSlot preFader="false" sendOutputID="0" slotIndex="2">
            <component id="sendComponent" powered="false">
              <parameter index="0" name="Encendido/Apagado" parameterValue="0"/>
              <parameter index="1" name="Nivel" parameterValue="0"/>
            </component>
            <component id="sendPan" powered="true"/>
          </sendSlot>
          <sendSlot preFader="false" sendOutputID="0" slotIndex="3">
            <component id="sendComponent" powered="false">
              <parameter index="0" name="Encendido/Apagado" parameterValue="0"/>
              <parameter index="1" name="Nivel" parameterValue="0"/>
            </component>
            <component id="sendPan" powered="true"/>
          </sendSlot>
          <sendSlot preFader="false" sendOutputID="0" slotIndex="4">
            <component id="sendComponent" powered="false">
              <parameter index="0" name="Encendido/Apagado" parameterValue="0"/>
              <parameter index="1" name="Nivel" parameterValue="0"/>
            </component>
            <component id="sendPan" powered="true"/>
          </sendSlot>
          <sendSlot preFader="false" sendOutputID="0" slotIndex="5">
            <component id="sendComponent" powered="false">
              <parameter index="0" name="Encendido/Apagado" parameterValue="0"/>
              <parameter index="1" name="Nivel" parameterValue="0"/>
            </component>
            <component id="sendPan" powered="true"/>
          </sendSlot>
          <sendSlot preFader="false" sendOutputID="0" slotIndex="6">
            <component id="sendComponent" powered="false">
              <parameter index="0" name="Encendido/Apagado" parameterValue="0"/>
              <parameter index="1" name="Nivel" parameterValue="0"/>
            </component>
            <component id="sendPan" powered="true"/>
          </sendSlot>
          <sendSlot preFader="false" sendOutputID="0" slotIndex="7">
            <component id="sendComponent" powered="false">
              <parameter index="0" name="Encendido/Apagado" parameterValue="0"/>
              <parameter index="1" name="Nivel" parameterValue="0"/>
            </component>
            <component id="sendPan" powered="true"/>
          </sendSlot>
          <sendSlot preFader="false" sendOutputID="0" slotIndex="8">
            <component id="sendComponent" powered="false">
              <parameter index="0" name="Encendido/Apagado" parameterValue="0"/>
              <parameter index="1" name="Nivel" parameterValue="0"/>
            </component>
            <component id="sendPan" powered="true"/>
          </sendSlot>
          <sendSlot preFader="false" sendOutputID="0" slotIndex="9">
            <component id="sendComponent" powered="false">
              <parameter index="0" name="Encendido/Apagado" parameterValue="0"/>
              <parameter index="1" name="Nivel" parameterValue="0"/>
            </component>
            <component id="sendPan" powered="true"/>
          </sendSlot>
          <sendSlot preFader="false" sendOutputID="0" slotIndex="10">
            <component id="sendComponent" powered="false">
              <parameter index="0" name="Encendido/Apagado" parameterValue="0"/>
              <parameter index="1" name="Nivel" parameterValue="0"/>
            </component>
            <component id="sendPan" powered="true"/>
          </sendSlot>
          <sendSlot preFader="false" sendOutputID="0" slotIndex="11">
            <component id="sendComponent" powered="false">
              <parameter index="0" name="Encendido/Apagado" parameterValue="0"/>
              <parameter index="1" name="Nivel" parameterValue="0"/>
            </component>
            <component id="sendPan" powered="true"/>
          </sendSlot>
          <sendSlot preFader="false" sendOutputID="0" slotIndex="12">
            <component id="sendComponent" powered="false">
              <parameter index="0" name="Encendido/Apagado" parameterValue="0"/>
              <parameter index="1" name="Nivel" parameterValue="0"/>
            </component>
            <component id="sendPan" powered="true"/>
          </sendSlot>
          <sendSlot preFader="false" sendOutputID="0" slotIndex="13">
            <component id="sendComponent" powered="false">
              <parameter index="0" name="Encendido/Apagado" parameterValue="0"/>
              <parameter index="1" name="Nivel" parameterValue="0"/>
            </component>
            <component id="sendPan" powered="true"/>
          </sendSlot>
          <sendSlot preFader="false" sendOutputID="0" slotIndex="14">
            <component id="sendComponent" powered="false">
              <parameter index="0" name="Encendido/Apagado" parameterValue="0"/>
              <parameter index="1" name="Nivel" parameterValue="0"/>
            </component>
            <component id="sendPan" powered="true"/>
          </sendSlot>
          <sendSlot preFader="false" sendOutputID="0" slotIndex="15">
            <component id="sendComponent" powered="false">
              <parameter index="0" name="Encendido/Apagado" parameterValue="0"/>
              <parameter index="1" name="Nivel" parameterValue="0"/>
            </component>
            <component id="sendPan" powered="true"/>
          </sendSlot>
        </sendList>
      </busTrack>
      <masterTrack automationLaneOpenState="false" id="10000" index="16" select="false" visible="true">
        <trackParameters trackHeight="129">
          <name>Maestro</name>
        </trackParameters>
        <trackAudioParameters audioChannelType="stereo" automationMode="1" monitoring="false" recordArmed="false" solo="false" soloSafe="true">
          <trackOutput outputID="1" type="hardwareOutput"/>
          <trackInput inputID="-1"/>
          <component componentID="Audition.Fader" id="trackFader" name="volume" powered="true">
            <parameter index="0" name="volume" parameterValue="1.7782795"/>
            <parameter index="1" name="static gain" parameterValue="1"/>
          </component>
          <component componentID="Audition.Mute" id="trackMute" name="Mute" powered="true">
            <parameter index="0" parameterValue="0"/>
            <parameter index="1" name="mute" parameterValue="0"/>
          </component>
          <component componentID="Audition.StereoPanner" id="trackPan" name="StereoPanner" powered="true">
            <parameter index="0" name="Panorámica" parameterValue="0"/>
          </component>
          <component componentID="Audition.EQ" id="trackEQ" name="EQ" powered="false">
            <parameter index="0" name="Frecuencia estante inferior" parameterValue="0.0009079"/>
            <parameter index="1" name="Ganancia estante inferior" parameterValue="0.5"/>
            <parameter index="2" name="Frecuencia estante superior" parameterValue="0.8161598"/>
            <parameter index="3" name="Ganancia estante superior" parameterValue="0.5"/>
            <parameter index="4" name="Frecuencia central de banda de EC 1" parameterValue="0.0013618"/>
            <parameter index="5" name="Valor Q de banda de EC 1" parameterValue="0.0002"/>
            <parameter index="6" name="Ganancia de banda de EC 1" parameterValue="0.5"/>
            <parameter index="7" name="Activación de banda de EC 1" parameterValue="1"/>
            <parameter index="8" name="Frecuencia central de banda de EC 2" parameterValue="0.0081707"/>
            <parameter index="9" name="Valor Q de banda de EC 2" parameterValue="0.0002"/>
            <parameter index="10" name="Ganancia de banda de EC 2" parameterValue="0.5"/>
            <parameter index="11" name="Activación de banda de EC 2" parameterValue="1"/>
            <parameter index="12" name="Frecuencia central de banda de EC 3" parameterValue="0.0354063"/>
            <parameter index="13" name="Valor Q de banda de EC 3" parameterValue="0.0002"/>
            <parameter index="14" name="Ganancia de banda de EC 3" parameterValue="0.5"/>
            <parameter index="15" name="Activación de banda de EC 3" parameterValue="1"/>
            <parameter index="16" name="Frecuencia central de banda de EC 4" parameterValue="0.1443486"/>
            <parameter index="17" name="Valor Q de banda de EC 4" parameterValue="0.0002"/>
            <parameter index="18" name="Ganancia de banda de EC 4" parameterValue="0.5"/>
            <parameter index="19" name="Activación de banda de EC 4" parameterValue="1"/>
            <parameter index="20" name="Frecuencia central de banda de EC 5" parameterValue="0.580118"/>
            <parameter index="21" name="Valor Q de banda de EC 5" parameterValue="0.0002"/>
            <parameter index="22" name="Ganancia de banda de EC 5" parameterValue="0.5"/>
            <parameter index="23" name="Activación de banda de EC 5" parameterValue="1"/>
            <parameter index="24" name="Ganancia maestra" parameterValue="0.6666667"/>
            <parameter index="25" name="Constant Q" parameterValue="1"/>
            <parameter index="26" name="Orden de filtro de estante inferior" parameterValue="0"/>
            <parameter index="27" name="Orden de filtro de estante superior" parameterValue="0"/>
            <parameter index="28" name="Modo ultrasilencioso" parameterValue="0"/>
            <parameter index="29" name="Activar estante inferior" parameterValue="1"/>
            <parameter index="30" name="Activar estante superior" parameterValue="1"/>
            <parameter index="31" name="Velocidad de muestreo original" parameterValue="0.2296875"/>
            <parameter index="32" name="Ancho de banda de EC 1" parameterValue="0.0025"/>
            <parameter index="33" name="Ancho de banda de EC 2" parameterValue="0.01"/>
            <parameter index="34" name="Ancho de banda de EC 3" parameterValue="0.04"/>
            <parameter index="35" name="Ancho de banda de EC 4" parameterValue="0.16"/>
            <parameter index="36" name="Ancho de banda de EC 5" parameterValue="0.64"/>
            <parameter index="37" name="Activación de filtro de pase alto" parameterValue="0"/>
            <parameter index="38" name="Frecuencia de límite de paso alto" parameterValue="0"/>
            <parameter index="39" name="Pendiente de paso alto" parameterValue="4"/>
            <parameter index="40" name="Activación de filtro de pase bajo" parameterValue="0"/>
            <parameter index="41" name="Frecuencia de límite de paso bajo" parameterValue="0.906945"/>
            <parameter index="42" name="Pendiente de paso bajo" parameterValue="4"/>
            <parameter index="43" name="Omitir" parameterValue="0"/>
            <parameter index="44" name="Rango de gráfico bajo" parameterValue="1"/>
          </component>
        </trackAudioParameters>
        <editParameter parameterIndex="0" slotIndex="4294967280"/>
      </masterTrack>
    </tracks>
    <sessionState ctiPosition="361939" smpteStart="0">
      <selectionState selectionDuration="0" selectionStart="361939"/>
      <viewState horizontalViewDuration="24141900" horizontalViewStart="0" trackControlsWidth="224" verticalScrollOffset="-13"/>
      <timeFormatState beatsPerBar="4" beatsPerMinute="120" customFrameRate="12" linkToDefaultTimeSettings="true" noteLength="4" subdivisions="16" timeCodeDropFrame="false" timeCodeFrameRate="30" timeCodeNTSC="false" timeFormat="timeFormatTimeCode"/>
    </sessionState>
    <xmpMetadata><![CDATA[<?xpacket begin="﻿" id="W5M0MpCehiHzreSzNTczkc9d"?>
<x:xmpmeta xmlns:x="adobe:ns:meta/" x:xmptk="Adobe XMP Core 5.3-c011 66.145661, 2012/02/06-14:56:27        ">
   <rdf:RDF xmlns:rdf="http://www.w3.org/1999/02/22-rdf-syntax-ns#">
      <rdf:Description rdf:about=""
            xmlns:xmp="http://ns.adobe.com/xap/1.0/">
         <xmp:CreatorTool>Adobe Audition CS6 (Windows)</xmp:CreatorTool>
         <xmp:CreateDate>2015-08-22T13:34:44-05:00</xmp:CreateDate>
         <xmp:MetadataDate>2015-12-12T22:47:01-05:00</xmp:MetadataDate>
         <xmp:ModifyDate>2015-12-12T22:47:01-05:00</xmp:ModifyDate>
      </rdf:Description>
      <rdf:Description rdf:about=""
            xmlns:xmpMM="http://ns.adobe.com/xap/1.0/mm/"
            xmlns:stEvt="http://ns.adobe.com/xap/1.0/sType/ResourceEvent#"
            xmlns:stRef="http://ns.adobe.com/xap/1.0/sType/ResourceRef#">
         <xmpMM:InstanceID>xmp.iid:A51BC9204CA1E511B74DC068EA16D1F9</xmpMM:InstanceID>
         <xmpMM:DocumentID>xmp.did:8C82BEF549A1E511B74DC068EA16D1F9</xmpMM:DocumentID>
         <xmpMM:OriginalDocumentID>xmp.did:E5FB330FFB48E511A2D1BBC3C628D6EF</xmpMM:OriginalDocumentID>
         <xmpMM:History>
            <rdf:Seq>
               <rdf:li rdf:parseType="Resource">
                  <stEvt:action>saved</stEvt:action>
                  <stEvt:instanceID>xmp.iid:E5FB330FFB48E511A2D1BBC3C628D6EF</stEvt:instanceID>
                  <stEvt:when>2015-08-22T13:34:44-05:00</stEvt:when>
                  <stEvt:softwareAgent>Adobe Audition CS6 (Windows)</stEvt:softwareAgent>
                  <stEvt:changed>/metadata</stEvt:changed>
               </rdf:li>
               <rdf:li rdf:parseType="Resource">
                  <stEvt:action>saved</stEvt:action>
                  <stEvt:instanceID>xmp.iid:E7FB330FFB48E511A2D1BBC3C628D6EF</stEvt:instanceID>
                  <stEvt:when>2015-08-22T13:34:45-05:00</stEvt:when>
                  <stEvt:softwareAgent>Adobe Audition CS6 (Windows)</stEvt:softwareAgent>
                  <stEvt:changed>/metadata</stEvt:changed>
               </rdf:li>
               <rdf:li rdf:parseType="Resource">
                  <stEvt:action>saved</stEvt:action>
                  <stEvt:instanceID>xmp.iid:E8FB330FFB48E511A2D1BBC3C628D6EF</stEvt:instanceID>
                  <stEvt:when>2015-08-22T13:34:45-05:00</stEvt:when>
                  <stEvt:softwareAgent>Adobe Audition CS6 (Windows)</stEvt:softwareAgent>
                  <stEvt:changed>/</stEvt:changed>
               </rdf:li>
               <rdf:li rdf:parseType="Resource">
                  <stEvt:action>saved</stEvt:action>
                  <stEvt:instanceID>xmp.iid:EBFB330FFB48E511A2D1BBC3C628D6EF</stEvt:instanceID>
                  <stEvt:when>2015-08-22T13:45:16-05:00</stEvt:when>
                  <stEvt:softwareAgent>Adobe Audition CS6 (Windows)</stEvt:softwareAgent>
                  <stEvt:changed>/metadata</stEvt:changed>
               </rdf:li>
               <rdf:li rdf:parseType="Resource">
                  <stEvt:action>saved</stEvt:action>
                  <stEvt:instanceID>xmp.iid:ECFB330FFB48E511A2D1BBC3C628D6EF</stEvt:instanceID>
                  <stEvt:when>2015-08-22T13:45:16-05:00</stEvt:when>
                  <stEvt:softwareAgent>Adobe Audition CS6 (Windows)</stEvt:softwareAgent>
                  <stEvt:changed>/</stEvt:changed>
               </rdf:li>
               <rdf:li rdf:parseType="Resource">
                  <stEvt:action>saved</stEvt:action>
                  <stEvt:instanceID>xmp.iid:40DD22C4FE48E511A2D1BBC3C628D6EF</stEvt:instanceID>
                  <stEvt:when>2015-08-22T13:51:15-05:00</stEvt:when>
                  <stEvt:softwareAgent>Adobe Audition CS6 (Windows)</stEvt:softwareAgent>
                  <stEvt:changed>/metadata</stEvt:changed>
               </rdf:li>
               <rdf:li rdf:parseType="Resource">
                  <stEvt:action>saved</stEvt:action>
                  <stEvt:instanceID>xmp.iid:41DD22C4FE48E511A2D1BBC3C628D6EF</stEvt:instanceID>
                  <stEvt:when>2015-08-22T13:51:15-05:00</stEvt:when>
                  <stEvt:softwareAgent>Adobe Audition CS6 (Windows)</stEvt:softwareAgent>
                  <stEvt:changed>/</stEvt:changed>
               </rdf:li>
               <rdf:li rdf:parseType="Resource">
                  <stEvt:action>saved</stEvt:action>
                  <stEvt:instanceID>xmp.iid:43DD22C4FE48E511A2D1BBC3C628D6EF</stEvt:instanceID>
                  <stEvt:when>2015-08-22T14:01:46-05:00</stEvt:when>
                  <stEvt:softwareAgent>Adobe Audition CS6 (Windows)</stEvt:softwareAgent>
                  <stEvt:changed>/metadata</stEvt:changed>
               </rdf:li>
               <rdf:li rdf:parseType="Resource">
                  <stEvt:action>saved</stEvt:action>
                  <stEvt:instanceID>xmp.iid:44DD22C4FE48E511A2D1BBC3C628D6EF</stEvt:instanceID>
                  <stEvt:when>2015-08-22T14:01:46-05:00</stEvt:when>
                  <stEvt:softwareAgent>Adobe Audition CS6 (Windows)</stEvt:softwareAgent>
                  <stEvt:changed>/</stEvt:changed>
               </rdf:li>
               <rdf:li rdf:parseType="Resource">
                  <stEvt:action>saved</stEvt:action>
                  <stEvt:instanceID>xmp.iid:45DD22C4FE48E511A2D1BBC3C628D6EF</stEvt:instanceID>
                  <stEvt:when>2015-08-22T14:06:51-05:00</stEvt:when>
                  <stEvt:softwareAgent>Adobe Audition CS6 (Windows)</stEvt:softwareAgent>
                  <stEvt:changed>/metadata</stEvt:changed>
               </rdf:li>
               <rdf:li rdf:parseType="Resource">
                  <stEvt:action>saved</stEvt:action>
                  <stEvt:instanceID>xmp.iid:46DD22C4FE48E511A2D1BBC3C628D6EF</stEvt:instanceID>
                  <stEvt:when>2015-08-22T14:06:51-05:00</stEvt:when>
                  <stEvt:softwareAgent>Adobe Audition CS6 (Windows)</stEvt:softwareAgent>
                  <stEvt:changed>/</stEvt:changed>
               </rdf:li>
               <rdf:li rdf:parseType="Resource">
                  <stEvt:action>saved</stEvt:action>
                  <stEvt:instanceID>xmp.iid:9FE0FF190249E511A2D1BBC3C628D6EF</stEvt:instanceID>
                  <stEvt:when>2015-08-22T14:15:07-05:00</stEvt:when>
                  <stEvt:softwareAgent>Adobe Audition CS6 (Windows)</stEvt:softwareAgent>
                  <stEvt:changed>/metadata</stEvt:changed>
               </rdf:li>
               <rdf:li rdf:parseType="Resource">
                  <stEvt:action>saved</stEvt:action>
                  <stEvt:instanceID>xmp.iid:A0E0FF190249E511A2D1BBC3C628D6EF</stEvt:instanceID>
                  <stEvt:when>2015-08-22T14:15:07-05:00</stEvt:when>
                  <stEvt:softwareAgent>Adobe Audition CS6 (Windows)</stEvt:softwareAgent>
                  <stEvt:changed>/</stEvt:changed>
               </rdf:li>
               <rdf:li rdf:parseType="Resource">
                  <stEvt:action>saved</stEvt:action>
                  <stEvt:instanceID>xmp.iid:A1E0FF190249E511A2D1BBC3C628D6EF</stEvt:instanceID>
                  <stEvt:when>2015-08-22T14:25:47-05:00</stEvt:when>
                  <stEvt:softwareAgent>Adobe Audition CS6 (Windows)</stEvt:softwareAgent>
                  <stEvt:changed>/metadata</stEvt:changed>
               </rdf:li>
               <rdf:li rdf:parseType="Resource">
                  <stEvt:action>saved</stEvt:action>
                  <stEvt:instanceID>xmp.iid:A2E0FF190249E511A2D1BBC3C628D6EF</stEvt:instanceID>
                  <stEvt:when>2015-08-22T14:25:47-05:00</stEvt:when>
                  <stEvt:softwareAgent>Adobe Audition CS6 (Windows)</stEvt:softwareAgent>
                  <stEvt:changed>/</stEvt:changed>
               </rdf:li>
               <rdf:li rdf:parseType="Resource">
                  <stEvt:action>saved</stEvt:action>
                  <stEvt:instanceID>xmp.iid:A3E0FF190249E511A2D1BBC3C628D6EF</stEvt:instanceID>
                  <stEvt:when>2015-08-22T14:31:32-05:00</stEvt:when>
                  <stEvt:softwareAgent>Adobe Audition CS6 (Windows)</stEvt:softwareAgent>
                  <stEvt:changed>/metadata</stEvt:changed>
               </rdf:li>
               <rdf:li rdf:parseType="Resource">
                  <stEvt:action>saved</stEvt:action>
                  <stEvt:instanceID>xmp.iid:A4E0FF190249E511A2D1BBC3C628D6EF</stEvt:instanceID>
                  <stEvt:when>2015-08-22T14:31:32-05:00</stEvt:when>
                  <stEvt:softwareAgent>Adobe Audition CS6 (Windows)</stEvt:softwareAgent>
                  <stEvt:changed>/</stEvt:changed>
               </rdf:li>
               <rdf:li rdf:parseType="Resource">
                  <stEvt:action>saved</stEvt:action>
                  <stEvt:instanceID>xmp.iid:CA4A996B0549E511A2D1BBC3C628D6EF</stEvt:instanceID>
                  <stEvt:when>2015-08-22T14:38:53-05:00</stEvt:when>
                  <stEvt:softwareAgent>Adobe Audition CS6 (Windows)</stEvt:softwareAgent>
                  <stEvt:changed>/metadata</stEvt:changed>
               </rdf:li>
               <rdf:li rdf:parseType="Resource">
                  <stEvt:action>saved</stEvt:action>
                  <stEvt:instanceID>xmp.iid:CB4A996B0549E511A2D1BBC3C628D6EF</stEvt:instanceID>
                  <stEvt:when>2015-08-22T14:38:53-05:00</stEvt:when>
                  <stEvt:softwareAgent>Adobe Audition CS6 (Windows)</stEvt:softwareAgent>
                  <stEvt:changed>/</stEvt:changed>
               </rdf:li>
               <rdf:li rdf:parseType="Resource">
                  <stEvt:action>saved</stEvt:action>
                  <stEvt:instanceID>xmp.iid:CC4A996B0549E511A2D1BBC3C628D6EF</stEvt:instanceID>
                  <stEvt:when>2015-08-22T14:47:57-05:00</stEvt:when>
                  <stEvt:softwareAgent>Adobe Audition CS6 (Windows)</stEvt:softwareAgent>
                  <stEvt:changed>/metadata</stEvt:changed>
               </rdf:li>
               <rdf:li rdf:parseType="Resource">
                  <stEvt:action>saved</stEvt:action>
                  <stEvt:instanceID>xmp.iid:CD4A996B0549E511A2D1BBC3C628D6EF</stEvt:instanceID>
                  <stEvt:when>2015-08-22T14:47:57-05:00</stEvt:when>
                  <stEvt:softwareAgent>Adobe Audition CS6 (Windows)</stEvt:softwareAgent>
                  <stEvt:changed>/</stEvt:changed>
               </rdf:li>
               <rdf:li rdf:parseType="Resource">
                  <stEvt:action>saved</stEvt:action>
                  <stEvt:instanceID>xmp.iid:D04A996B0549E511A2D1BBC3C628D6EF</stEvt:instanceID>
                  <stEvt:when>2015-08-22T14:49:12-05:00</stEvt:when>
                  <stEvt:softwareAgent>Adobe Audition CS6 (Windows)</stEvt:softwareAgent>
                  <stEvt:changed>/metadata</stEvt:changed>
               </rdf:li>
               <rdf:li rdf:parseType="Resource">
                  <stEvt:action>saved</stEvt:action>
                  <stEvt:instanceID>xmp.iid:D14A996B0549E511A2D1BBC3C628D6EF</stEvt:instanceID>
                  <stEvt:when>2015-08-22T14:49:12-05:00</stEvt:when>
                  <stEvt:softwareAgent>Adobe Audition CS6 (Windows)</stEvt:softwareAgent>
                  <stEvt:changed>/</stEvt:changed>
               </rdf:li>
               <rdf:li rdf:parseType="Resource">
                  <stEvt:action>saved</stEvt:action>
                  <stEvt:instanceID>xmp.iid:2BEF2BC50749E511A2D1BBC3C628D6EF</stEvt:instanceID>
                  <stEvt:when>2015-08-22T14:55:42-05:00</stEvt:when>
                  <stEvt:softwareAgent>Adobe Audition CS6 (Windows)</stEvt:softwareAgent>
                  <stEvt:changed>/metadata</stEvt:changed>
               </rdf:li>
               <rdf:li rdf:parseType="Resource">
                  <stEvt:action>saved</stEvt:action>
                  <stEvt:instanceID>xmp.iid:2CEF2BC50749E511A2D1BBC3C628D6EF</stEvt:instanceID>
                  <stEvt:when>2015-08-22T14:55:42-05:00</stEvt:when>
                  <stEvt:softwareAgent>Adobe Audition CS6 (Windows)</stEvt:softwareAgent>
                  <stEvt:changed>/</stEvt:changed>
               </rdf:li>
               <rdf:li rdf:parseType="Resource">
                  <stEvt:action>saved</stEvt:action>
                  <stEvt:instanceID>xmp.iid:2DEF2BC50749E511A2D1BBC3C628D6EF</stEvt:instanceID>
                  <stEvt:when>2015-08-22T14:58:58-05:00</stEvt:when>
                  <stEvt:softwareAgent>Adobe Audition CS6 (Windows)</stEvt:softwareAgent>
                  <stEvt:changed>/metadata</stEvt:changed>
               </rdf:li>
               <rdf:li rdf:parseType="Resource">
                  <stEvt:action>saved</stEvt:action>
                  <stEvt:instanceID>xmp.iid:2EEF2BC50749E511A2D1BBC3C628D6EF</stEvt:instanceID>
                  <stEvt:when>2015-08-22T14:58:58-05:00</stEvt:when>
                  <stEvt:softwareAgent>Adobe Audition CS6 (Windows)</stEvt:softwareAgent>
                  <stEvt:changed>/</stEvt:changed>
               </rdf:li>
               <rdf:li rdf:parseType="Resource">
                  <stEvt:action>saved</stEvt:action>
                  <stEvt:instanceID>xmp.iid:1D6D44530849E511ABCA8C42ED238CEC</stEvt:instanceID>
                  <stEvt:when>2015-08-22T14:59:42-05:00</stEvt:when>
                  <stEvt:softwareAgent>Adobe Audition CS6 (Windows)</stEvt:softwareAgent>
                  <stEvt:changed>/metadata</stEvt:changed>
               </rdf:li>
               <rdf:li rdf:parseType="Resource">
                  <stEvt:action>saved</stEvt:action>
                  <stEvt:instanceID>xmp.iid:1E6D44530849E511ABCA8C42ED238CEC</stEvt:instanceID>
                  <stEvt:when>2015-08-22T14:59:42-05:00</stEvt:when>
                  <stEvt:softwareAgent>Adobe Audition CS6 (Windows)</stEvt:softwareAgent>
                  <stEvt:changed>/</stEvt:changed>
               </rdf:li>
               <rdf:li rdf:parseType="Resource">
                  <stEvt:action>saved</stEvt:action>
                  <stEvt:instanceID>xmp.iid:27F2DACB0949E511ABCA8C42ED238CEC</stEvt:instanceID>
                  <stEvt:when>2015-08-22T15:10:12-05:00</stEvt:when>
                  <stEvt:softwareAgent>Adobe Audition CS6 (Windows)</stEvt:softwareAgent>
                  <stEvt:changed>/metadata</stEvt:changed>
               </rdf:li>
               <rdf:li rdf:parseType="Resource">
                  <stEvt:action>saved</stEvt:action>
                  <stEvt:instanceID>xmp.iid:28F2DACB0949E511ABCA8C42ED238CEC</stEvt:instanceID>
                  <stEvt:when>2015-08-22T15:10:12-05:00</stEvt:when>
                  <stEvt:softwareAgent>Adobe Audition CS6 (Windows)</stEvt:softwareAgent>
                  <stEvt:changed>/</stEvt:changed>
               </rdf:li>
               <rdf:li rdf:parseType="Resource">
                  <stEvt:action>saved</stEvt:action>
                  <stEvt:instanceID>xmp.iid:30F2DACB0949E511ABCA8C42ED238CEC</stEvt:instanceID>
                  <stEvt:when>2015-08-22T15:11:05-05:00</stEvt:when>
                  <stEvt:softwareAgent>Adobe Audition CS6 (Windows)</stEvt:softwareAgent>
                  <stEvt:changed>/metadata</stEvt:changed>
               </rdf:li>
               <rdf:li rdf:parseType="Resource">
                  <stEvt:action>saved</stEvt:action>
                  <stEvt:instanceID>xmp.iid:31F2DACB0949E511ABCA8C42ED238CEC</stEvt:instanceID>
                  <stEvt:when>2015-08-22T15:11:05-05:00</stEvt:when>
                  <stEvt:softwareAgent>Adobe Audition CS6 (Windows)</stEvt:softwareAgent>
                  <stEvt:changed>/</stEvt:changed>
               </rdf:li>
               <rdf:li rdf:parseType="Resource">
                  <stEvt:action>saved</stEvt:action>
                  <stEvt:instanceID>xmp.iid:C1BC50EB0949E511ABCA8C42ED238CEC</stEvt:instanceID>
                  <stEvt:when>2015-08-22T15:11:50-05:00</stEvt:when>
                  <stEvt:softwareAgent>Adobe Audition CS6 (Windows)</stEvt:softwareAgent>
                  <stEvt:changed>/metadata</stEvt:changed>
               </rdf:li>
               <rdf:li rdf:parseType="Resource">
                  <stEvt:action>saved</stEvt:action>
                  <stEvt:instanceID>xmp.iid:C2BC50EB0949E511ABCA8C42ED238CEC</stEvt:instanceID>
                  <stEvt:when>2015-08-22T15:11:50-05:00</stEvt:when>
                  <stEvt:softwareAgent>Adobe Audition CS6 (Windows)</stEvt:softwareAgent>
                  <stEvt:changed>/</stEvt:changed>
               </rdf:li>
               <rdf:li rdf:parseType="Resource">
                  <stEvt:action>saved</stEvt:action>
                  <stEvt:instanceID>xmp.iid:2A7384834F49E511B2D5D01DE6FBC1E1</stEvt:instanceID>
                  <stEvt:when>2015-08-22T23:29:17-05:00</stEvt:when>
                  <stEvt:softwareAgent>Adobe Audition CS6 (Windows)</stEvt:softwareAgent>
                  <stEvt:changed>/metadata</stEvt:changed>
               </rdf:li>
               <rdf:li rdf:parseType="Resource">
                  <stEvt:action>saved</stEvt:action>
                  <stEvt:instanceID>xmp.iid:2B7384834F49E511B2D5D01DE6FBC1E1</stEvt:instanceID>
                  <stEvt:when>2015-08-22T23:29:17-05:00</stEvt:when>
                  <stEvt:softwareAgent>Adobe Audition CS6 (Windows)</stEvt:softwareAgent>
                  <stEvt:changed>/</stEvt:changed>
               </rdf:li>
               <rdf:li rdf:parseType="Resource">
                  <stEvt:action>saved</stEvt:action>
                  <stEvt:instanceID>xmp.iid:6B4A61FF4F49E511B2D5D01DE6FBC1E1</stEvt:instanceID>
                  <stEvt:when>2015-08-22T23:32:44-05:00</stEvt:when>
                  <stEvt:softwareAgent>Adobe Audition CS6 (Windows)</stEvt:softwareAgent>
                  <stEvt:changed>/metadata</stEvt:changed>
               </rdf:li>
               <rdf:li rdf:parseType="Resource">
                  <stEvt:action>saved</stEvt:action>
                  <stEvt:instanceID>xmp.iid:6C4A61FF4F49E511B2D5D01DE6FBC1E1</stEvt:instanceID>
                  <stEvt:when>2015-08-22T23:32:44-05:00</stEvt:when>
                  <stEvt:softwareAgent>Adobe Audition CS6 (Windows)</stEvt:softwareAgent>
                  <stEvt:changed>/</stEvt:changed>
               </rdf:li>
               <rdf:li rdf:parseType="Resource">
                  <stEvt:action>saved</stEvt:action>
                  <stEvt:instanceID>xmp.iid:6D4A61FF4F49E511B2D5D01DE6FBC1E1</stEvt:instanceID>
                  <stEvt:when>2015-08-22T23:34:59-05:00</stEvt:when>
                  <stEvt:softwareAgent>Adobe Audition CS6 (Windows)</stEvt:softwareAgent>
                  <stEvt:changed>/metadata</stEvt:changed>
               </rdf:li>
               <rdf:li rdf:parseType="Resource">
                  <stEvt:action>saved</stEvt:action>
                  <stEvt:instanceID>xmp.iid:6E4A61FF4F49E511B2D5D01DE6FBC1E1</stEvt:instanceID>
                  <stEvt:when>2015-08-22T23:34:59-05:00</stEvt:when>
                  <stEvt:softwareAgent>Adobe Audition CS6 (Windows)</stEvt:softwareAgent>
                  <stEvt:changed>/</stEvt:changed>
               </rdf:li>
               <rdf:li rdf:parseType="Resource">
                  <stEvt:action>saved</stEvt:action>
                  <stEvt:instanceID>xmp.iid:6F4A61FF4F49E511B2D5D01DE6FBC1E1</stEvt:instanceID>
                  <stEvt:when>2015-08-22T23:39:53-05:00</stEvt:when>
                  <stEvt:softwareAgent>Adobe Audition CS6 (Windows)</stEvt:softwareAgent>
                  <stEvt:changed>/metadata</stEvt:changed>
               </rdf:li>
               <rdf:li rdf:parseType="Resource">
                  <stEvt:action>saved</stEvt:action>
                  <stEvt:instanceID>xmp.iid:704A61FF4F49E511B2D5D01DE6FBC1E1</stEvt:instanceID>
                  <stEvt:when>2015-08-22T23:39:53-05:00</stEvt:when>
                  <stEvt:softwareAgent>Adobe Audition CS6 (Windows)</stEvt:softwareAgent>
                  <stEvt:changed>/</stEvt:changed>
               </rdf:li>
               <rdf:li rdf:parseType="Resource">
                  <stEvt:action>saved</stEvt:action>
                  <stEvt:instanceID>xmp.iid:714A61FF4F49E511B2D5D01DE6FBC1E1</stEvt:instanceID>
                  <stEvt:when>2015-08-22T23:51:02-05:00</stEvt:when>
                  <stEvt:softwareAgent>Adobe Audition CS6 (Windows)</stEvt:softwareAgent>
                  <stEvt:changed>/metadata</stEvt:changed>
               </rdf:li>
               <rdf:li rdf:parseType="Resource">
                  <stEvt:action>saved</stEvt:action>
                  <stEvt:instanceID>xmp.iid:724A61FF4F49E511B2D5D01DE6FBC1E1</stEvt:instanceID>
                  <stEvt:when>2015-08-22T23:51:02-05:00</stEvt:when>
                  <stEvt:softwareAgent>Adobe Audition CS6 (Windows)</stEvt:softwareAgent>
                  <stEvt:changed>/</stEvt:changed>
               </rdf:li>
               <rdf:li rdf:parseType="Resource">
                  <stEvt:action>saved</stEvt:action>
                  <stEvt:instanceID>xmp.iid:734A61FF4F49E511B2D5D01DE6FBC1E1</stEvt:instanceID>
                  <stEvt:when>2015-08-23T00:03:03-05:00</stEvt:when>
                  <stEvt:softwareAgent>Adobe Audition CS6 (Windows)</stEvt:softwareAgent>
                  <stEvt:changed>/metadata</stEvt:changed>
               </rdf:li>
               <rdf:li rdf:parseType="Resource">
                  <stEvt:action>saved</stEvt:action>
                  <stEvt:instanceID>xmp.iid:685A933B5449E511B2D5D01DE6FBC1E1</stEvt:instanceID>
                  <stEvt:when>2015-08-23T00:03:03-05:00</stEvt:when>
                  <stEvt:softwareAgent>Adobe Audition CS6 (Windows)</stEvt:softwareAgent>
                  <stEvt:changed>/</stEvt:changed>
               </rdf:li>
               <rdf:li rdf:parseType="Resource">
                  <stEvt:action>saved</stEvt:action>
                  <stEvt:instanceID>xmp.iid:695A933B5449E511B2D5D01DE6FBC1E1</stEvt:instanceID>
                  <stEvt:when>2015-08-23T00:09:29-05:00</stEvt:when>
                  <stEvt:softwareAgent>Adobe Audition CS6 (Windows)</stEvt:softwareAgent>
                  <stEvt:changed>/metadata</stEvt:changed>
               </rdf:li>
               <rdf:li rdf:parseType="Resource">
                  <stEvt:action>saved</stEvt:action>
                  <stEvt:instanceID>xmp.iid:6A5A933B5449E511B2D5D01DE6FBC1E1</stEvt:instanceID>
                  <stEvt:when>2015-08-23T00:09:29-05:00</stEvt:when>
                  <stEvt:softwareAgent>Adobe Audition CS6 (Windows)</stEvt:softwareAgent>
                  <stEvt:changed>/</stEvt:changed>
               </rdf:li>
               <rdf:li rdf:parseType="Resource">
                  <stEvt:action>saved</stEvt:action>
                  <stEvt:instanceID>xmp.iid:6D5A933B5449E511B2D5D01DE6FBC1E1</stEvt:instanceID>
                  <stEvt:when>2015-08-23T00:24:30-05:00</stEvt:when>
                  <stEvt:softwareAgent>Adobe Audition CS6 (Windows)</stEvt:softwareAgent>
                  <stEvt:changed>/metadata</stEvt:changed>
               </rdf:li>
               <rdf:li rdf:parseType="Resource">
                  <stEvt:action>saved</stEvt:action>
                  <stEvt:instanceID>xmp.iid:6E5A933B5449E511B2D5D01DE6FBC1E1</stEvt:instanceID>
                  <stEvt:when>2015-08-23T00:24:30-05:00</stEvt:when>
                  <stEvt:softwareAgent>Adobe Audition CS6 (Windows)</stEvt:softwareAgent>
                  <stEvt:changed>/</stEvt:changed>
               </rdf:li>
               <rdf:li rdf:parseType="Resource">
                  <stEvt:action>saved</stEvt:action>
                  <stEvt:instanceID>xmp.iid:6F5A933B5449E511B2D5D01DE6FBC1E1</stEvt:instanceID>
                  <stEvt:when>2015-08-23T00:27:19-05:00</stEvt:when>
                  <stEvt:softwareAgent>Adobe Audition CS6 (Windows)</stEvt:softwareAgent>
                  <stEvt:changed>/metadata</stEvt:changed>
               </rdf:li>
               <rdf:li rdf:parseType="Resource">
                  <stEvt:action>saved</stEvt:action>
                  <stEvt:instanceID>xmp.iid:705A933B5449E511B2D5D01DE6FBC1E1</stEvt:instanceID>
                  <stEvt:when>2015-08-23T00:27:19-05:00</stEvt:when>
                  <stEvt:softwareAgent>Adobe Audition CS6 (Windows)</stEvt:softwareAgent>
                  <stEvt:changed>/</stEvt:changed>
               </rdf:li>
               <rdf:li rdf:parseType="Resource">
                  <stEvt:action>saved</stEvt:action>
                  <stEvt:instanceID>xmp.iid:715A933B5449E511B2D5D01DE6FBC1E1</stEvt:instanceID>
                  <stEvt:when>2015-08-23T00:31:01-05:00</stEvt:when>
                  <stEvt:softwareAgent>Adobe Audition CS6 (Windows)</stEvt:softwareAgent>
                  <stEvt:changed>/metadata</stEvt:changed>
               </rdf:li>
               <rdf:li rdf:parseType="Resource">
                  <stEvt:action>saved</stEvt:action>
                  <stEvt:instanceID>xmp.iid:725A933B5449E511B2D5D01DE6FBC1E1</stEvt:instanceID>
                  <stEvt:when>2015-08-23T00:31:01-05:00</stEvt:when>
                  <stEvt:softwareAgent>Adobe Audition CS6 (Windows)</stEvt:softwareAgent>
                  <stEvt:changed>/</stEvt:changed>
               </rdf:li>
               <rdf:li rdf:parseType="Resource">
                  <stEvt:action>saved</stEvt:action>
                  <stEvt:instanceID>xmp.iid:5FDCC1795849E511B2D5D01DE6FBC1E1</stEvt:instanceID>
                  <stEvt:when>2015-08-23T00:42:21-05:00</stEvt:when>
                  <stEvt:softwareAgent>Adobe Audition CS6 (Windows)</stEvt:softwareAgent>
                  <stEvt:changed>/metadata</stEvt:changed>
               </rdf:li>
               <rdf:li rdf:parseType="Resource">
                  <stEvt:action>saved</stEvt:action>
                  <stEvt:instanceID>xmp.iid:E3348EB95949E511B2D5D01DE6FBC1E1</stEvt:instanceID>
                  <stEvt:when>2015-08-23T00:42:21-05:00</stEvt:when>
                  <stEvt:softwareAgent>Adobe Audition CS6 (Windows)</stEvt:softwareAgent>
                  <stEvt:changed>/</stEvt:changed>
               </rdf:li>
               <rdf:li rdf:parseType="Resource">
                  <stEvt:action>saved</stEvt:action>
                  <stEvt:instanceID>xmp.iid:E6348EB95949E511B2D5D01DE6FBC1E1</stEvt:instanceID>
                  <stEvt:when>2015-08-23T00:45:39-05:00</stEvt:when>
                  <stEvt:softwareAgent>Adobe Audition CS6 (Windows)</stEvt:softwareAgent>
                  <stEvt:changed>/metadata</stEvt:changed>
               </rdf:li>
               <rdf:li rdf:parseType="Resource">
                  <stEvt:action>saved</stEvt:action>
                  <stEvt:instanceID>xmp.iid:E7348EB95949E511B2D5D01DE6FBC1E1</stEvt:instanceID>
                  <stEvt:when>2015-08-23T00:45:39-05:00</stEvt:when>
                  <stEvt:softwareAgent>Adobe Audition CS6 (Windows)</stEvt:softwareAgent>
                  <stEvt:changed>/</stEvt:changed>
               </rdf:li>
               <rdf:li rdf:parseType="Resource">
                  <stEvt:action>saved</stEvt:action>
                  <stEvt:instanceID>xmp.iid:389A57425A49E511B2D5D01DE6FBC1E1</stEvt:instanceID>
                  <stEvt:when>2015-08-23T00:46:11-05:00</stEvt:when>
                  <stEvt:softwareAgent>Adobe Audition CS6 (Windows)</stEvt:softwareAgent>
                  <stEvt:changed>/metadata</stEvt:changed>
               </rdf:li>
               <rdf:li rdf:parseType="Resource">
                  <stEvt:action>saved</stEvt:action>
                  <stEvt:instanceID>xmp.iid:399A57425A49E511B2D5D01DE6FBC1E1</stEvt:instanceID>
                  <stEvt:when>2015-08-23T00:46:11-05:00</stEvt:when>
                  <stEvt:softwareAgent>Adobe Audition CS6 (Windows)</stEvt:softwareAgent>
                  <stEvt:changed>/</stEvt:changed>
               </rdf:li>
               <rdf:li rdf:parseType="Resource">
                  <stEvt:action>saved</stEvt:action>
                  <stEvt:instanceID>xmp.iid:3C9A57425A49E511B2D5D01DE6FBC1E1</stEvt:instanceID>
                  <stEvt:when>2015-08-23T00:48:12-05:00</stEvt:when>
                  <stEvt:softwareAgent>Adobe Audition CS6 (Windows)</stEvt:softwareAgent>
                  <stEvt:changed>/metadata</stEvt:changed>
               </rdf:li>
               <rdf:li rdf:parseType="Resource">
                  <stEvt:action>saved</stEvt:action>
                  <stEvt:instanceID>xmp.iid:3D9A57425A49E511B2D5D01DE6FBC1E1</stEvt:instanceID>
                  <stEvt:when>2015-08-23T00:48:12-05:00</stEvt:when>
                  <stEvt:softwareAgent>Adobe Audition CS6 (Windows)</stEvt:softwareAgent>
                  <stEvt:changed>/</stEvt:changed>
               </rdf:li>
               <rdf:li rdf:parseType="Resource">
                  <stEvt:action>saved</stEvt:action>
                  <stEvt:instanceID>xmp.iid:3E9A57425A49E511B2D5D01DE6FBC1E1</stEvt:instanceID>
                  <stEvt:when>2015-08-23T00:50:12-05:00</stEvt:when>
                  <stEvt:softwareAgent>Adobe Audition CS6 (Windows)</stEvt:softwareAgent>
                  <stEvt:changed>/metadata</stEvt:changed>
               </rdf:li>
               <rdf:li rdf:parseType="Resource">
                  <stEvt:action>saved</stEvt:action>
                  <stEvt:instanceID>xmp.iid:3F9A57425A49E511B2D5D01DE6FBC1E1</stEvt:instanceID>
                  <stEvt:when>2015-08-23T00:50:12-05:00</stEvt:when>
                  <stEvt:softwareAgent>Adobe Audition CS6 (Windows)</stEvt:softwareAgent>
                  <stEvt:changed>/</stEvt:changed>
               </rdf:li>
               <rdf:li rdf:parseType="Resource">
                  <stEvt:action>saved</stEvt:action>
                  <stEvt:instanceID>xmp.iid:C31BC3F15A49E511B2D5D01DE6FBC1E1</stEvt:instanceID>
                  <stEvt:when>2015-08-23T00:51:06-05:00</stEvt:when>
                  <stEvt:softwareAgent>Adobe Audition CS6 (Windows)</stEvt:softwareAgent>
                  <stEvt:changed>/metadata</stEvt:changed>
               </rdf:li>
               <rdf:li rdf:parseType="Resource">
                  <stEvt:action>saved</stEvt:action>
                  <stEvt:instanceID>xmp.iid:C41BC3F15A49E511B2D5D01DE6FBC1E1</stEvt:instanceID>
                  <stEvt:when>2015-08-23T00:51:06-05:00</stEvt:when>
                  <stEvt:softwareAgent>Adobe Audition CS6 (Windows)</stEvt:softwareAgent>
                  <stEvt:changed>/</stEvt:changed>
               </rdf:li>
               <rdf:li rdf:parseType="Resource">
                  <stEvt:action>saved</stEvt:action>
                  <stEvt:instanceID>xmp.iid:C71BC3F15A49E511B2D5D01DE6FBC1E1</stEvt:instanceID>
                  <stEvt:when>2015-08-23T00:54:06-05:00</stEvt:when>
                  <stEvt:softwareAgent>Adobe Audition CS6 (Windows)</stEvt:softwareAgent>
                  <stEvt:changed>/metadata</stEvt:changed>
               </rdf:li>
               <rdf:li rdf:parseType="Resource">
                  <stEvt:action>saved</stEvt:action>
                  <stEvt:instanceID>xmp.iid:C81BC3F15A49E511B2D5D01DE6FBC1E1</stEvt:instanceID>
                  <stEvt:when>2015-08-23T00:54:06-05:00</stEvt:when>
                  <stEvt:softwareAgent>Adobe Audition CS6 (Windows)</stEvt:softwareAgent>
                  <stEvt:changed>/</stEvt:changed>
               </rdf:li>
               <rdf:li rdf:parseType="Resource">
                  <stEvt:action>saved</stEvt:action>
                  <stEvt:instanceID>xmp.iid:C91BC3F15A49E511B2D5D01DE6FBC1E1</stEvt:instanceID>
                  <stEvt:when>2015-08-23T00:54:33-05:00</stEvt:when>
                  <stEvt:softwareAgent>Adobe Audition CS6 (Windows)</stEvt:softwareAgent>
                  <stEvt:changed>/metadata</stEvt:changed>
               </rdf:li>
               <rdf:li rdf:parseType="Resource">
                  <stEvt:action>saved</stEvt:action>
                  <stEvt:instanceID>xmp.iid:CA1BC3F15A49E511B2D5D01DE6FBC1E1</stEvt:instanceID>
                  <stEvt:when>2015-08-23T00:54:33-05:00</stEvt:when>
                  <stEvt:softwareAgent>Adobe Audition CS6 (Windows)</stEvt:softwareAgent>
                  <stEvt:changed>/</stEvt:changed>
               </rdf:li>
               <rdf:li rdf:parseType="Resource">
                  <stEvt:action>saved</stEvt:action>
                  <stEvt:instanceID>xmp.iid:89635AAC5B49E511B2D5D01DE6FBC1E1</stEvt:instanceID>
                  <stEvt:when>2015-08-23T00:56:19-05:00</stEvt:when>
                  <stEvt:softwareAgent>Adobe Audition CS6 (Windows)</stEvt:softwareAgent>
                  <stEvt:changed>/metadata</stEvt:changed>
               </rdf:li>
               <rdf:li rdf:parseType="Resource">
                  <stEvt:action>saved</stEvt:action>
                  <stEvt:instanceID>xmp.iid:8A635AAC5B49E511B2D5D01DE6FBC1E1</stEvt:instanceID>
                  <stEvt:when>2015-08-23T00:56:19-05:00</stEvt:when>
                  <stEvt:softwareAgent>Adobe Audition CS6 (Windows)</stEvt:softwareAgent>
                  <stEvt:changed>/</stEvt:changed>
               </rdf:li>
               <rdf:li rdf:parseType="Resource">
                  <stEvt:action>saved</stEvt:action>
                  <stEvt:instanceID>xmp.iid:0A2A59425C49E511B2D5D01DE6FBC1E1</stEvt:instanceID>
                  <stEvt:when>2015-08-23T01:06:34-05:00</stEvt:when>
                  <stEvt:softwareAgent>Adobe Audition CS6 (Windows)</stEvt:softwareAgent>
                  <stEvt:changed>/metadata</stEvt:changed>
               </rdf:li>
               <rdf:li rdf:parseType="Resource">
                  <stEvt:action>saved</stEvt:action>
                  <stEvt:instanceID>xmp.iid:0B2A59425C49E511B2D5D01DE6FBC1E1</stEvt:instanceID>
                  <stEvt:when>2015-08-23T01:06:34-05:00</stEvt:when>
                  <stEvt:softwareAgent>Adobe Audition CS6 (Windows)</stEvt:softwareAgent>
                  <stEvt:changed>/</stEvt:changed>
               </rdf:li>
               <rdf:li rdf:parseType="Resource">
                  <stEvt:action>saved</stEvt:action>
                  <stEvt:instanceID>xmp.iid:102A59425C49E511B2D5D01DE6FBC1E1</stEvt:instanceID>
                  <stEvt:when>2015-08-23T01:16:29-05:00</stEvt:when>
                  <stEvt:softwareAgent>Adobe Audition CS6 (Windows)</stEvt:softwareAgent>
                  <stEvt:changed>/metadata</stEvt:changed>
               </rdf:li>
               <rdf:li rdf:parseType="Resource">
                  <stEvt:action>saved</stEvt:action>
                  <stEvt:instanceID>xmp.iid:112A59425C49E511B2D5D01DE6FBC1E1</stEvt:instanceID>
                  <stEvt:when>2015-08-23T01:16:29-05:00</stEvt:when>
                  <stEvt:softwareAgent>Adobe Audition CS6 (Windows)</stEvt:softwareAgent>
                  <stEvt:changed>/</stEvt:changed>
               </rdf:li>
               <rdf:li rdf:parseType="Resource">
                  <stEvt:action>saved</stEvt:action>
                  <stEvt:instanceID>xmp.iid:C7D55254194AE511A4F1F5A5C0B6B052</stEvt:instanceID>
                  <stEvt:when>2015-08-23T23:33:57-05:00</stEvt:when>
                  <stEvt:softwareAgent>Adobe Audition CS6 (Windows)</stEvt:softwareAgent>
                  <stEvt:changed>/metadata</stEvt:changed>
               </rdf:li>
               <rdf:li rdf:parseType="Resource">
                  <stEvt:action>saved</stEvt:action>
                  <stEvt:instanceID>xmp.iid:C8D55254194AE511A4F1F5A5C0B6B052</stEvt:instanceID>
                  <stEvt:when>2015-08-23T23:33:57-05:00</stEvt:when>
                  <stEvt:softwareAgent>Adobe Audition CS6 (Windows)</stEvt:softwareAgent>
                  <stEvt:changed>/</stEvt:changed>
               </rdf:li>
               <rdf:li rdf:parseType="Resource">
                  <stEvt:action>saved</stEvt:action>
                  <stEvt:instanceID>xmp.iid:FC9DB7571A4AE511A4F1F5A5C0B6B052</stEvt:instanceID>
                  <stEvt:when>2015-08-23T23:41:10-05:00</stEvt:when>
                  <stEvt:softwareAgent>Adobe Audition CS6 (Windows)</stEvt:softwareAgent>
                  <stEvt:changed>/metadata</stEvt:changed>
               </rdf:li>
               <rdf:li rdf:parseType="Resource">
                  <stEvt:action>saved</stEvt:action>
                  <stEvt:instanceID>xmp.iid:FD9DB7571A4AE511A4F1F5A5C0B6B052</stEvt:instanceID>
                  <stEvt:when>2015-08-23T23:41:10-05:00</stEvt:when>
                  <stEvt:softwareAgent>Adobe Audition CS6 (Windows)</stEvt:softwareAgent>
                  <stEvt:changed>/</stEvt:changed>
               </rdf:li>
               <rdf:li rdf:parseType="Resource">
                  <stEvt:action>saved</stEvt:action>
                  <stEvt:instanceID>xmp.iid:FE9DB7571A4AE511A4F1F5A5C0B6B052</stEvt:instanceID>
                  <stEvt:when>2015-08-23T23:48:55-05:00</stEvt:when>
                  <stEvt:softwareAgent>Adobe Audition CS6 (Windows)</stEvt:softwareAgent>
                  <stEvt:changed>/metadata</stEvt:changed>
               </rdf:li>
               <rdf:li rdf:parseType="Resource">
                  <stEvt:action>saved</stEvt:action>
                  <stEvt:instanceID>xmp.iid:FF9DB7571A4AE511A4F1F5A5C0B6B052</stEvt:instanceID>
                  <stEvt:when>2015-08-23T23:48:55-05:00</stEvt:when>
                  <stEvt:softwareAgent>Adobe Audition CS6 (Windows)</stEvt:softwareAgent>
                  <stEvt:changed>/</stEvt:changed>
               </rdf:li>
               <rdf:li rdf:parseType="Resource">
                  <stEvt:action>saved</stEvt:action>
                  <stEvt:instanceID>xmp.iid:009EB7571A4AE511A4F1F5A5C0B6B052</stEvt:instanceID>
                  <stEvt:when>2015-08-23T23:49:30-05:00</stEvt:when>
                  <stEvt:softwareAgent>Adobe Audition CS6 (Windows)</stEvt:softwareAgent>
                  <stEvt:changed>/metadata</stEvt:changed>
               </rdf:li>
               <rdf:li rdf:parseType="Resource">
                  <stEvt:action>saved</stEvt:action>
                  <stEvt:instanceID>xmp.iid:019EB7571A4AE511A4F1F5A5C0B6B052</stEvt:instanceID>
                  <stEvt:when>2015-08-23T23:49:30-05:00</stEvt:when>
                  <stEvt:softwareAgent>Adobe Audition CS6 (Windows)</stEvt:softwareAgent>
                  <stEvt:changed>/</stEvt:changed>
               </rdf:li>
               <rdf:li rdf:parseType="Resource">
                  <stEvt:action>saved</stEvt:action>
                  <stEvt:instanceID>xmp.iid:037DB4951B4AE511A4F1F5A5C0B6B052</stEvt:instanceID>
                  <stEvt:when>2015-08-23T23:50:04-05:00</stEvt:when>
                  <stEvt:softwareAgent>Adobe Audition CS6 (Windows)</stEvt:softwareAgent>
                  <stEvt:changed>/metadata</stEvt:changed>
               </rdf:li>
               <rdf:li rdf:parseType="Resource">
                  <stEvt:action>saved</stEvt:action>
                  <stEvt:instanceID>xmp.iid:047DB4951B4AE511A4F1F5A5C0B6B052</stEvt:instanceID>
                  <stEvt:when>2015-08-23T23:50:04-05:00</stEvt:when>
                  <stEvt:softwareAgent>Adobe Audition CS6 (Windows)</stEvt:softwareAgent>
                  <stEvt:changed>/</stEvt:changed>
               </rdf:li>
               <rdf:li rdf:parseType="Resource">
                  <stEvt:action>saved</stEvt:action>
                  <stEvt:instanceID>xmp.iid:067DB4951B4AE511A4F1F5A5C0B6B052</stEvt:instanceID>
                  <stEvt:when>2015-08-23T23:51:46-05:00</stEvt:when>
                  <stEvt:softwareAgent>Adobe Audition CS6 (Windows)</stEvt:softwareAgent>
                  <stEvt:changed>/metadata</stEvt:changed>
               </rdf:li>
               <rdf:li rdf:parseType="Resource">
                  <stEvt:action>saved</stEvt:action>
                  <stEvt:instanceID>xmp.iid:077DB4951B4AE511A4F1F5A5C0B6B052</stEvt:instanceID>
                  <stEvt:when>2015-08-23T23:51:46-05:00</stEvt:when>
                  <stEvt:softwareAgent>Adobe Audition CS6 (Windows)</stEvt:softwareAgent>
                  <stEvt:changed>/</stEvt:changed>
               </rdf:li>
               <rdf:li rdf:parseType="Resource">
                  <stEvt:action>saved</stEvt:action>
                  <stEvt:instanceID>xmp.iid:087DB4951B4AE511A4F1F5A5C0B6B052</stEvt:instanceID>
                  <stEvt:when>2015-08-23T23:55:34-05:00</stEvt:when>
                  <stEvt:softwareAgent>Adobe Audition CS6 (Windows)</stEvt:softwareAgent>
                  <stEvt:changed>/metadata</stEvt:changed>
               </rdf:li>
               <rdf:li rdf:parseType="Resource">
                  <stEvt:action>saved</stEvt:action>
                  <stEvt:instanceID>xmp.iid:097DB4951B4AE511A4F1F5A5C0B6B052</stEvt:instanceID>
                  <stEvt:when>2015-08-23T23:55:34-05:00</stEvt:when>
                  <stEvt:softwareAgent>Adobe Audition CS6 (Windows)</stEvt:softwareAgent>
                  <stEvt:changed>/</stEvt:changed>
               </rdf:li>
               <rdf:li rdf:parseType="Resource">
                  <stEvt:action>saved</stEvt:action>
                  <stEvt:instanceID>xmp.iid:0DB5A81CA44BE511BC1FA303381C215E</stEvt:instanceID>
                  <stEvt:when>2015-08-25T22:39:55-05:00</stEvt:when>
                  <stEvt:softwareAgent>Adobe Audition CS6 (Windows)</stEvt:softwareAgent>
                  <stEvt:changed>/metadata</stEvt:changed>
               </rdf:li>
               <rdf:li rdf:parseType="Resource">
                  <stEvt:action>saved</stEvt:action>
                  <stEvt:instanceID>xmp.iid:0EB5A81CA44BE511BC1FA303381C215E</stEvt:instanceID>
                  <stEvt:when>2015-08-25T22:39:55-05:00</stEvt:when>
                  <stEvt:softwareAgent>Adobe Audition CS6 (Windows)</stEvt:softwareAgent>
                  <stEvt:changed>/</stEvt:changed>
               </rdf:li>
               <rdf:li rdf:parseType="Resource">
                  <stEvt:action>saved</stEvt:action>
                  <stEvt:instanceID>xmp.iid:6B406D86A54BE511BC1FA303381C215E</stEvt:instanceID>
                  <stEvt:when>2015-08-25T22:50-05:00</stEvt:when>
                  <stEvt:softwareAgent>Adobe Audition CS6 (Windows)</stEvt:softwareAgent>
                  <stEvt:changed>/metadata</stEvt:changed>
               </rdf:li>
               <rdf:li rdf:parseType="Resource">
                  <stEvt:action>saved</stEvt:action>
                  <stEvt:instanceID>xmp.iid:6C406D86A54BE511BC1FA303381C215E</stEvt:instanceID>
                  <stEvt:when>2015-08-25T22:50-05:00</stEvt:when>
                  <stEvt:softwareAgent>Adobe Audition CS6 (Windows)</stEvt:softwareAgent>
                  <stEvt:changed>/</stEvt:changed>
               </rdf:li>
               <rdf:li rdf:parseType="Resource">
                  <stEvt:action>saved</stEvt:action>
                  <stEvt:instanceID>xmp.iid:6F406D86A54BE511BC1FA303381C215E</stEvt:instanceID>
                  <stEvt:when>2015-08-25T22:59:27-05:00</stEvt:when>
                  <stEvt:softwareAgent>Adobe Audition CS6 (Windows)</stEvt:softwareAgent>
                  <stEvt:changed>/metadata</stEvt:changed>
               </rdf:li>
               <rdf:li rdf:parseType="Resource">
                  <stEvt:action>saved</stEvt:action>
                  <stEvt:instanceID>xmp.iid:70406D86A54BE511BC1FA303381C215E</stEvt:instanceID>
                  <stEvt:when>2015-08-25T22:59:27-05:00</stEvt:when>
                  <stEvt:softwareAgent>Adobe Audition CS6 (Windows)</stEvt:softwareAgent>
                  <stEvt:changed>/</stEvt:changed>
               </rdf:li>
               <rdf:li rdf:parseType="Resource">
                  <stEvt:action>saved</stEvt:action>
                  <stEvt:instanceID>xmp.iid:71406D86A54BE511BC1FA303381C215E</stEvt:instanceID>
                  <stEvt:when>2015-08-25T23:03:56-05:00</stEvt:when>
                  <stEvt:softwareAgent>Adobe Audition CS6 (Windows)</stEvt:softwareAgent>
                  <stEvt:changed>/metadata</stEvt:changed>
               </rdf:li>
               <rdf:li rdf:parseType="Resource">
                  <stEvt:action>saved</stEvt:action>
                  <stEvt:instanceID>xmp.iid:72406D86A54BE511BC1FA303381C215E</stEvt:instanceID>
                  <stEvt:when>2015-08-25T23:03:56-05:00</stEvt:when>
                  <stEvt:softwareAgent>Adobe Audition CS6 (Windows)</stEvt:softwareAgent>
                  <stEvt:changed>/</stEvt:changed>
               </rdf:li>
               <rdf:li rdf:parseType="Resource">
                  <stEvt:action>saved</stEvt:action>
                  <stEvt:instanceID>xmp.iid:75406D86A54BE511BC1FA303381C215E</stEvt:instanceID>
                  <stEvt:when>2015-08-25T23:05:12-05:00</stEvt:when>
                  <stEvt:softwareAgent>Adobe Audition CS6 (Windows)</stEvt:softwareAgent>
                  <stEvt:changed>/metadata</stEvt:changed>
               </rdf:li>
               <rdf:li rdf:parseType="Resource">
                  <stEvt:action>saved</stEvt:action>
                  <stEvt:instanceID>xmp.iid:746673A6A74BE511BC1FA303381C215E</stEvt:instanceID>
                  <stEvt:when>2015-08-25T23:05:12-05:00</stEvt:when>
                  <stEvt:softwareAgent>Adobe Audition CS6 (Windows)</stEvt:softwareAgent>
                  <stEvt:changed>/</stEvt:changed>
               </rdf:li>
               <rdf:li rdf:parseType="Resource">
                  <stEvt:action>saved</stEvt:action>
                  <stEvt:instanceID>xmp.iid:756673A6A74BE511BC1FA303381C215E</stEvt:instanceID>
                  <stEvt:when>2015-08-25T23:24-05:00</stEvt:when>
                  <stEvt:softwareAgent>Adobe Audition CS6 (Windows)</stEvt:softwareAgent>
                  <stEvt:changed>/metadata</stEvt:changed>
               </rdf:li>
               <rdf:li rdf:parseType="Resource">
                  <stEvt:action>saved</stEvt:action>
                  <stEvt:instanceID>xmp.iid:766673A6A74BE511BC1FA303381C215E</stEvt:instanceID>
                  <stEvt:when>2015-08-25T23:24-05:00</stEvt:when>
                  <stEvt:softwareAgent>Adobe Audition CS6 (Windows)</stEvt:softwareAgent>
                  <stEvt:changed>/</stEvt:changed>
               </rdf:li>
               <rdf:li rdf:parseType="Resource">
                  <stEvt:action>saved</stEvt:action>
                  <stEvt:instanceID>xmp.iid:776673A6A74BE511BC1FA303381C215E</stEvt:instanceID>
                  <stEvt:when>2015-08-25T23:34:30-05:00</stEvt:when>
                  <stEvt:softwareAgent>Adobe Audition CS6 (Windows)</stEvt:softwareAgent>
                  <stEvt:changed>/metadata</stEvt:changed>
               </rdf:li>
               <rdf:li rdf:parseType="Resource">
                  <stEvt:action>saved</stEvt:action>
                  <stEvt:instanceID>xmp.iid:786673A6A74BE511BC1FA303381C215E</stEvt:instanceID>
                  <stEvt:when>2015-08-25T23:34:30-05:00</stEvt:when>
                  <stEvt:softwareAgent>Adobe Audition CS6 (Windows)</stEvt:softwareAgent>
                  <stEvt:changed>/</stEvt:changed>
               </rdf:li>
               <rdf:li rdf:parseType="Resource">
                  <stEvt:action>saved</stEvt:action>
                  <stEvt:instanceID>xmp.iid:796673A6A74BE511BC1FA303381C215E</stEvt:instanceID>
                  <stEvt:when>2015-08-26T00:07:20-05:00</stEvt:when>
                  <stEvt:softwareAgent>Adobe Audition CS6 (Windows)</stEvt:softwareAgent>
                  <stEvt:changed>/metadata</stEvt:changed>
               </rdf:li>
               <rdf:li rdf:parseType="Resource">
                  <stEvt:action>saved</stEvt:action>
                  <stEvt:instanceID>xmp.iid:7A6673A6A74BE511BC1FA303381C215E</stEvt:instanceID>
                  <stEvt:when>2015-08-26T00:07:20-05:00</stEvt:when>
                  <stEvt:softwareAgent>Adobe Audition CS6 (Windows)</stEvt:softwareAgent>
                  <stEvt:changed>/</stEvt:changed>
               </rdf:li>
               <rdf:li rdf:parseType="Resource">
                  <stEvt:action>saved</stEvt:action>
                  <stEvt:instanceID>xmp.iid:7B6673A6A74BE511BC1FA303381C215E</stEvt:instanceID>
                  <stEvt:when>2015-08-26T00:17:47-05:00</stEvt:when>
                  <stEvt:softwareAgent>Adobe Audition CS6 (Windows)</stEvt:softwareAgent>
                  <stEvt:changed>/metadata</stEvt:changed>
               </rdf:li>
               <rdf:li rdf:parseType="Resource">
                  <stEvt:action>saved</stEvt:action>
                  <stEvt:instanceID>xmp.iid:7C6673A6A74BE511BC1FA303381C215E</stEvt:instanceID>
                  <stEvt:when>2015-08-26T00:17:47-05:00</stEvt:when>
                  <stEvt:softwareAgent>Adobe Audition CS6 (Windows)</stEvt:softwareAgent>
                  <stEvt:changed>/</stEvt:changed>
               </rdf:li>
               <rdf:li rdf:parseType="Resource">
                  <stEvt:action>saved</stEvt:action>
                  <stEvt:instanceID>xmp.iid:7B343A62B24BE511BC1FA303381C215E</stEvt:instanceID>
                  <stEvt:when>2015-08-26T00:23:30-05:00</stEvt:when>
                  <stEvt:softwareAgent>Adobe Audition CS6 (Windows)</stEvt:softwareAgent>
                  <stEvt:changed>/metadata</stEvt:changed>
               </rdf:li>
               <rdf:li rdf:parseType="Resource">
                  <stEvt:action>saved</stEvt:action>
                  <stEvt:instanceID>xmp.iid:7C343A62B24BE511BC1FA303381C215E</stEvt:instanceID>
                  <stEvt:when>2015-08-26T00:23:30-05:00</stEvt:when>
                  <stEvt:softwareAgent>Adobe Audition CS6 (Windows)</stEvt:softwareAgent>
                  <stEvt:changed>/</stEvt:changed>
               </rdf:li>
               <rdf:li rdf:parseType="Resource">
                  <stEvt:action>saved</stEvt:action>
                  <stEvt:instanceID>xmp.iid:7F343A62B24BE511BC1FA303381C215E</stEvt:instanceID>
                  <stEvt:when>2015-08-26T00:25:22-05:00</stEvt:when>
                  <stEvt:softwareAgent>Adobe Audition CS6 (Windows)</stEvt:softwareAgent>
                  <stEvt:changed>/metadata</stEvt:changed>
               </rdf:li>
               <rdf:li rdf:parseType="Resource">
                  <stEvt:action>saved</stEvt:action>
                  <stEvt:instanceID>xmp.iid:80343A62B24BE511BC1FA303381C215E</stEvt:instanceID>
                  <stEvt:when>2015-08-26T00:25:22-05:00</stEvt:when>
                  <stEvt:softwareAgent>Adobe Audition CS6 (Windows)</stEvt:softwareAgent>
                  <stEvt:changed>/</stEvt:changed>
               </rdf:li>
               <rdf:li rdf:parseType="Resource">
                  <stEvt:action>saved</stEvt:action>
                  <stEvt:instanceID>xmp.iid:A28930D9B24BE511BC1FA303381C215E</stEvt:instanceID>
                  <stEvt:when>2015-08-26T00:28:22-05:00</stEvt:when>
                  <stEvt:softwareAgent>Adobe Audition CS6 (Windows)</stEvt:softwareAgent>
                  <stEvt:changed>/metadata</stEvt:changed>
               </rdf:li>
               <rdf:li rdf:parseType="Resource">
                  <stEvt:action>saved</stEvt:action>
                  <stEvt:instanceID>xmp.iid:A38930D9B24BE511BC1FA303381C215E</stEvt:instanceID>
                  <stEvt:when>2015-08-26T00:28:22-05:00</stEvt:when>
                  <stEvt:softwareAgent>Adobe Audition CS6 (Windows)</stEvt:softwareAgent>
                  <stEvt:changed>/</stEvt:changed>
               </rdf:li>
               <rdf:li rdf:parseType="Resource">
                  <stEvt:action>saved</stEvt:action>
                  <stEvt:instanceID>xmp.iid:A48930D9B24BE511BC1FA303381C215E</stEvt:instanceID>
                  <stEvt:when>2015-08-26T00:30:50-05:00</stEvt:when>
                  <stEvt:softwareAgent>Adobe Audition CS6 (Windows)</stEvt:softwareAgent>
                  <stEvt:changed>/metadata</stEvt:changed>
               </rdf:li>
               <rdf:li rdf:parseType="Resource">
                  <stEvt:action>saved</stEvt:action>
                  <stEvt:instanceID>xmp.iid:A58930D9B24BE511BC1FA303381C215E</stEvt:instanceID>
                  <stEvt:when>2015-08-26T00:30:50-05:00</stEvt:when>
                  <stEvt:softwareAgent>Adobe Audition CS6 (Windows)</stEvt:softwareAgent>
                  <stEvt:changed>/</stEvt:changed>
               </rdf:li>
               <rdf:li rdf:parseType="Resource">
                  <stEvt:action>saved</stEvt:action>
                  <stEvt:instanceID>xmp.iid:BEBB99A1B34BE511BC1FA303381C215E</stEvt:instanceID>
                  <stEvt:when>2015-08-26T00:30:59-05:00</stEvt:when>
                  <stEvt:softwareAgent>Adobe Audition CS6 (Windows)</stEvt:softwareAgent>
                  <stEvt:changed>/metadata</stEvt:changed>
               </rdf:li>
               <rdf:li rdf:parseType="Resource">
                  <stEvt:action>saved</stEvt:action>
                  <stEvt:instanceID>xmp.iid:BFBB99A1B34BE511BC1FA303381C215E</stEvt:instanceID>
                  <stEvt:when>2015-08-26T00:30:59-05:00</stEvt:when>
                  <stEvt:softwareAgent>Adobe Audition CS6 (Windows)</stEvt:softwareAgent>
                  <stEvt:changed>/</stEvt:changed>
               </rdf:li>
               <rdf:li rdf:parseType="Resource">
                  <stEvt:action>saved</stEvt:action>
                  <stEvt:instanceID>xmp.iid:C4BB99A1B34BE511BC1FA303381C215E</stEvt:instanceID>
                  <stEvt:when>2015-08-26T00:41:18-05:00</stEvt:when>
                  <stEvt:softwareAgent>Adobe Audition CS6 (Windows)</stEvt:softwareAgent>
                  <stEvt:changed>/metadata</stEvt:changed>
               </rdf:li>
               <rdf:li rdf:parseType="Resource">
                  <stEvt:action>saved</stEvt:action>
                  <stEvt:instanceID>xmp.iid:C5BB99A1B34BE511BC1FA303381C215E</stEvt:instanceID>
                  <stEvt:when>2015-08-26T00:41:18-05:00</stEvt:when>
                  <stEvt:softwareAgent>Adobe Audition CS6 (Windows)</stEvt:softwareAgent>
                  <stEvt:changed>/</stEvt:changed>
               </rdf:li>
               <rdf:li rdf:parseType="Resource">
                  <stEvt:action>saved</stEvt:action>
                  <stEvt:instanceID>xmp.iid:C6BB99A1B34BE511BC1FA303381C215E</stEvt:instanceID>
                  <stEvt:when>2015-08-26T00:51:48-05:00</stEvt:when>
                  <stEvt:softwareAgent>Adobe Audition CS6 (Windows)</stEvt:softwareAgent>
                  <stEvt:changed>/metadata</stEvt:changed>
               </rdf:li>
               <rdf:li rdf:parseType="Resource">
                  <stEvt:action>saved</stEvt:action>
                  <stEvt:instanceID>xmp.iid:7A18A48AB64BE511BC1FA303381C215E</stEvt:instanceID>
                  <stEvt:when>2015-08-26T00:51:48-05:00</stEvt:when>
                  <stEvt:softwareAgent>Adobe Audition CS6 (Windows)</stEvt:softwareAgent>
                  <stEvt:changed>/</stEvt:changed>
               </rdf:li>
               <rdf:li rdf:parseType="Resource">
                  <stEvt:action>saved</stEvt:action>
                  <stEvt:instanceID>xmp.iid:7D18A48AB64BE511BC1FA303381C215E</stEvt:instanceID>
                  <stEvt:when>2015-08-26T00:59:38-05:00</stEvt:when>
                  <stEvt:softwareAgent>Adobe Audition CS6 (Windows)</stEvt:softwareAgent>
                  <stEvt:changed>/metadata</stEvt:changed>
               </rdf:li>
               <rdf:li rdf:parseType="Resource">
                  <stEvt:action>saved</stEvt:action>
                  <stEvt:instanceID>xmp.iid:7E18A48AB64BE511BC1FA303381C215E</stEvt:instanceID>
                  <stEvt:when>2015-08-26T00:59:38-05:00</stEvt:when>
                  <stEvt:softwareAgent>Adobe Audition CS6 (Windows)</stEvt:softwareAgent>
                  <stEvt:changed>/</stEvt:changed>
               </rdf:li>
               <rdf:li rdf:parseType="Resource">
                  <stEvt:action>saved</stEvt:action>
                  <stEvt:instanceID>xmp.iid:8118A48AB64BE511BC1FA303381C215E</stEvt:instanceID>
                  <stEvt:when>2015-08-26T01:07:41-05:00</stEvt:when>
                  <stEvt:softwareAgent>Adobe Audition CS6 (Windows)</stEvt:softwareAgent>
                  <stEvt:changed>/metadata</stEvt:changed>
               </rdf:li>
               <rdf:li rdf:parseType="Resource">
                  <stEvt:action>saved</stEvt:action>
                  <stEvt:instanceID>xmp.iid:8218A48AB64BE511BC1FA303381C215E</stEvt:instanceID>
                  <stEvt:when>2015-08-26T01:07:41-05:00</stEvt:when>
                  <stEvt:softwareAgent>Adobe Audition CS6 (Windows)</stEvt:softwareAgent>
                  <stEvt:changed>/</stEvt:changed>
               </rdf:li>
               <rdf:li rdf:parseType="Resource">
                  <stEvt:action>saved</stEvt:action>
                  <stEvt:instanceID>xmp.iid:7F4D6213744CE511A770EF2EB5CC90B0</stEvt:instanceID>
                  <stEvt:when>2015-08-26T23:28:42-05:00</stEvt:when>
                  <stEvt:softwareAgent>Adobe Audition CS6 (Windows)</stEvt:softwareAgent>
                  <stEvt:changed>/metadata</stEvt:changed>
               </rdf:li>
               <rdf:li rdf:parseType="Resource">
                  <stEvt:action>saved</stEvt:action>
                  <stEvt:instanceID>xmp.iid:804D6213744CE511A770EF2EB5CC90B0</stEvt:instanceID>
                  <stEvt:when>2015-08-26T23:28:42-05:00</stEvt:when>
                  <stEvt:softwareAgent>Adobe Audition CS6 (Windows)</stEvt:softwareAgent>
                  <stEvt:changed>/</stEvt:changed>
               </rdf:li>
               <rdf:li rdf:parseType="Resource">
                  <stEvt:action>saved</stEvt:action>
                  <stEvt:instanceID>xmp.iid:D8ECA094754CE511A770EF2EB5CC90B0</stEvt:instanceID>
                  <stEvt:when>2015-08-26T23:39:19-05:00</stEvt:when>
                  <stEvt:softwareAgent>Adobe Audition CS6 (Windows)</stEvt:softwareAgent>
                  <stEvt:changed>/metadata</stEvt:changed>
               </rdf:li>
               <rdf:li rdf:parseType="Resource">
                  <stEvt:action>saved</stEvt:action>
                  <stEvt:instanceID>xmp.iid:D9ECA094754CE511A770EF2EB5CC90B0</stEvt:instanceID>
                  <stEvt:when>2015-08-26T23:39:19-05:00</stEvt:when>
                  <stEvt:softwareAgent>Adobe Audition CS6 (Windows)</stEvt:softwareAgent>
                  <stEvt:changed>/</stEvt:changed>
               </rdf:li>
               <rdf:li rdf:parseType="Resource">
                  <stEvt:action>saved</stEvt:action>
                  <stEvt:instanceID>xmp.iid:DCECA094754CE511A770EF2EB5CC90B0</stEvt:instanceID>
                  <stEvt:when>2015-08-26T23:49:43-05:00</stEvt:when>
                  <stEvt:softwareAgent>Adobe Audition CS6 (Windows)</stEvt:softwareAgent>
                  <stEvt:changed>/metadata</stEvt:changed>
               </rdf:li>
               <rdf:li rdf:parseType="Resource">
                  <stEvt:action>saved</stEvt:action>
                  <stEvt:instanceID>xmp.iid:DDECA094754CE511A770EF2EB5CC90B0</stEvt:instanceID>
                  <stEvt:when>2015-08-26T23:49:43-05:00</stEvt:when>
                  <stEvt:softwareAgent>Adobe Audition CS6 (Windows)</stEvt:softwareAgent>
                  <stEvt:changed>/</stEvt:changed>
               </rdf:li>
               <rdf:li rdf:parseType="Resource">
                  <stEvt:action>saved</stEvt:action>
                  <stEvt:instanceID>xmp.iid:DEECA094754CE511A770EF2EB5CC90B0</stEvt:instanceID>
                  <stEvt:when>2015-08-26T23:55:45-05:00</stEvt:when>
                  <stEvt:softwareAgent>Adobe Audition CS6 (Windows)</stEvt:softwareAgent>
                  <stEvt:changed>/metadata</stEvt:changed>
               </rdf:li>
               <rdf:li rdf:parseType="Resource">
                  <stEvt:action>saved</stEvt:action>
                  <stEvt:instanceID>xmp.iid:DFECA094754CE511A770EF2EB5CC90B0</stEvt:instanceID>
                  <stEvt:when>2015-08-26T23:55:45-05:00</stEvt:when>
                  <stEvt:softwareAgent>Adobe Audition CS6 (Windows)</stEvt:softwareAgent>
                  <stEvt:changed>/</stEvt:changed>
               </rdf:li>
               <rdf:li rdf:parseType="Resource">
                  <stEvt:action>saved</stEvt:action>
                  <stEvt:instanceID>xmp.iid:E0ECA094754CE511A770EF2EB5CC90B0</stEvt:instanceID>
                  <stEvt:when>2015-08-26T23:58:03-05:00</stEvt:when>
                  <stEvt:softwareAgent>Adobe Audition CS6 (Windows)</stEvt:softwareAgent>
                  <stEvt:changed>/metadata</stEvt:changed>
               </rdf:li>
               <rdf:li rdf:parseType="Resource">
                  <stEvt:action>saved</stEvt:action>
                  <stEvt:instanceID>xmp.iid:E1ECA094754CE511A770EF2EB5CC90B0</stEvt:instanceID>
                  <stEvt:when>2015-08-26T23:58:03-05:00</stEvt:when>
                  <stEvt:softwareAgent>Adobe Audition CS6 (Windows)</stEvt:softwareAgent>
                  <stEvt:changed>/</stEvt:changed>
               </rdf:li>
               <rdf:li rdf:parseType="Resource">
                  <stEvt:action>saved</stEvt:action>
                  <stEvt:instanceID>xmp.iid:47B612A1784CE511A770EF2EB5CC90B0</stEvt:instanceID>
                  <stEvt:when>2015-08-27T00:01:08-05:00</stEvt:when>
                  <stEvt:softwareAgent>Adobe Audition CS6 (Windows)</stEvt:softwareAgent>
                  <stEvt:changed>/metadata</stEvt:changed>
               </rdf:li>
               <rdf:li rdf:parseType="Resource">
                  <stEvt:action>saved</stEvt:action>
                  <stEvt:instanceID>xmp.iid:48B612A1784CE511A770EF2EB5CC90B0</stEvt:instanceID>
                  <stEvt:when>2015-08-27T00:01:08-05:00</stEvt:when>
                  <stEvt:softwareAgent>Adobe Audition CS6 (Windows)</stEvt:softwareAgent>
                  <stEvt:changed>/</stEvt:changed>
               </rdf:li>
               <rdf:li rdf:parseType="Resource">
                  <stEvt:action>saved</stEvt:action>
                  <stEvt:instanceID>xmp.iid:49B612A1784CE511A770EF2EB5CC90B0</stEvt:instanceID>
                  <stEvt:when>2015-08-27T00:11:19-05:00</stEvt:when>
                  <stEvt:softwareAgent>Adobe Audition CS6 (Windows)</stEvt:softwareAgent>
                  <stEvt:changed>/metadata</stEvt:changed>
               </rdf:li>
               <rdf:li rdf:parseType="Resource">
                  <stEvt:action>saved</stEvt:action>
                  <stEvt:instanceID>xmp.iid:4AB612A1784CE511A770EF2EB5CC90B0</stEvt:instanceID>
                  <stEvt:when>2015-08-27T00:11:19-05:00</stEvt:when>
                  <stEvt:softwareAgent>Adobe Audition CS6 (Windows)</stEvt:softwareAgent>
                  <stEvt:changed>/</stEvt:changed>
               </rdf:li>
               <rdf:li rdf:parseType="Resource">
                  <stEvt:action>saved</stEvt:action>
                  <stEvt:instanceID>xmp.iid:4DB612A1784CE511A770EF2EB5CC90B0</stEvt:instanceID>
                  <stEvt:when>2015-08-27T00:14:22-05:00</stEvt:when>
                  <stEvt:softwareAgent>Adobe Audition CS6 (Windows)</stEvt:softwareAgent>
                  <stEvt:changed>/metadata</stEvt:changed>
               </rdf:li>
               <rdf:li rdf:parseType="Resource">
                  <stEvt:action>saved</stEvt:action>
                  <stEvt:instanceID>xmp.iid:4EB612A1784CE511A770EF2EB5CC90B0</stEvt:instanceID>
                  <stEvt:when>2015-08-27T00:14:22-05:00</stEvt:when>
                  <stEvt:softwareAgent>Adobe Audition CS6 (Windows)</stEvt:softwareAgent>
                  <stEvt:changed>/</stEvt:changed>
               </rdf:li>
               <rdf:li rdf:parseType="Resource">
                  <stEvt:action>saved</stEvt:action>
                  <stEvt:instanceID>xmp.iid:C731F18C7B4CE511A770EF2EB5CC90B0</stEvt:instanceID>
                  <stEvt:when>2015-08-27T00:22:03-05:00</stEvt:when>
                  <stEvt:softwareAgent>Adobe Audition CS6 (Windows)</stEvt:softwareAgent>
                  <stEvt:changed>/metadata</stEvt:changed>
               </rdf:li>
               <rdf:li rdf:parseType="Resource">
                  <stEvt:action>saved</stEvt:action>
                  <stEvt:instanceID>xmp.iid:C831F18C7B4CE511A770EF2EB5CC90B0</stEvt:instanceID>
                  <stEvt:when>2015-08-27T00:22:03-05:00</stEvt:when>
                  <stEvt:softwareAgent>Adobe Audition CS6 (Windows)</stEvt:softwareAgent>
                  <stEvt:changed>/</stEvt:changed>
               </rdf:li>
               <rdf:li rdf:parseType="Resource">
                  <stEvt:action>saved</stEvt:action>
                  <stEvt:instanceID>xmp.iid:C931F18C7B4CE511A770EF2EB5CC90B0</stEvt:instanceID>
                  <stEvt:when>2015-08-27T00:25:21-05:00</stEvt:when>
                  <stEvt:softwareAgent>Adobe Audition CS6 (Windows)</stEvt:softwareAgent>
                  <stEvt:changed>/metadata</stEvt:changed>
               </rdf:li>
               <rdf:li rdf:parseType="Resource">
                  <stEvt:action>saved</stEvt:action>
                  <stEvt:instanceID>xmp.iid:CA31F18C7B4CE511A770EF2EB5CC90B0</stEvt:instanceID>
                  <stEvt:when>2015-08-27T00:25:21-05:00</stEvt:when>
                  <stEvt:softwareAgent>Adobe Audition CS6 (Windows)</stEvt:softwareAgent>
                  <stEvt:changed>/</stEvt:changed>
               </rdf:li>
               <rdf:li rdf:parseType="Resource">
                  <stEvt:action>saved</stEvt:action>
                  <stEvt:instanceID>xmp.iid:42F0E7352A54E5118D69F1ED86E11EAC</stEvt:instanceID>
                  <stEvt:when>2015-09-05T19:00:28-05:00</stEvt:when>
                  <stEvt:softwareAgent>Adobe Audition CS6 (Windows)</stEvt:softwareAgent>
                  <stEvt:changed>/metadata</stEvt:changed>
               </rdf:li>
               <rdf:li rdf:parseType="Resource">
                  <stEvt:action>saved</stEvt:action>
                  <stEvt:instanceID>xmp.iid:43F0E7352A54E5118D69F1ED86E11EAC</stEvt:instanceID>
                  <stEvt:when>2015-09-05T19:00:28-05:00</stEvt:when>
                  <stEvt:softwareAgent>Adobe Audition CS6 (Windows)</stEvt:softwareAgent>
                  <stEvt:changed>/</stEvt:changed>
               </rdf:li>
               <rdf:li rdf:parseType="Resource">
                  <stEvt:action>saved</stEvt:action>
                  <stEvt:instanceID>xmp.iid:C0608A4B2A54E5118D69F1ED86E11EAC</stEvt:instanceID>
                  <stEvt:when>2015-09-05T19:00:33-05:00</stEvt:when>
                  <stEvt:softwareAgent>Adobe Audition CS6 (Windows)</stEvt:softwareAgent>
                  <stEvt:changed>/metadata</stEvt:changed>
               </rdf:li>
               <rdf:li rdf:parseType="Resource">
                  <stEvt:action>saved</stEvt:action>
                  <stEvt:instanceID>xmp.iid:C1608A4B2A54E5118D69F1ED86E11EAC</stEvt:instanceID>
                  <stEvt:when>2015-09-05T19:00:33-05:00</stEvt:when>
                  <stEvt:softwareAgent>Adobe Audition CS6 (Windows)</stEvt:softwareAgent>
                  <stEvt:changed>/</stEvt:changed>
               </rdf:li>
               <rdf:li rdf:parseType="Resource">
                  <stEvt:action>saved</stEvt:action>
                  <stEvt:instanceID>xmp.iid:C2608A4B2A54E5118D69F1ED86E11EAC</stEvt:instanceID>
                  <stEvt:when>2015-09-05T19:10:32-05:00</stEvt:when>
                  <stEvt:softwareAgent>Adobe Audition CS6 (Windows)</stEvt:softwareAgent>
                  <stEvt:changed>/metadata</stEvt:changed>
               </rdf:li>
               <rdf:li rdf:parseType="Resource">
                  <stEvt:action>saved</stEvt:action>
                  <stEvt:instanceID>xmp.iid:C3608A4B2A54E5118D69F1ED86E11EAC</stEvt:instanceID>
                  <stEvt:when>2015-09-05T19:10:32-05:00</stEvt:when>
                  <stEvt:softwareAgent>Adobe Audition CS6 (Windows)</stEvt:softwareAgent>
                  <stEvt:changed>/</stEvt:changed>
               </rdf:li>
               <rdf:li rdf:parseType="Resource">
                  <stEvt:action>saved</stEvt:action>
                  <stEvt:instanceID>xmp.iid:44FE00D62B54E5118C41F0C9CBA096AF</stEvt:instanceID>
                  <stEvt:when>2015-09-05T19:11:38-05:00</stEvt:when>
                  <stEvt:softwareAgent>Adobe Audition CS6 (Windows)</stEvt:softwareAgent>
                  <stEvt:changed>/metadata</stEvt:changed>
               </rdf:li>
               <rdf:li rdf:parseType="Resource">
                  <stEvt:action>saved</stEvt:action>
                  <stEvt:instanceID>xmp.iid:45FE00D62B54E5118C41F0C9CBA096AF</stEvt:instanceID>
                  <stEvt:when>2015-09-05T19:11:38-05:00</stEvt:when>
                  <stEvt:softwareAgent>Adobe Audition CS6 (Windows)</stEvt:softwareAgent>
                  <stEvt:changed>/</stEvt:changed>
               </rdf:li>
               <rdf:li rdf:parseType="Resource">
                  <stEvt:action>saved</stEvt:action>
                  <stEvt:instanceID>xmp.iid:140B1B773654E5118C41F0C9CBA096AF</stEvt:instanceID>
                  <stEvt:when>2015-09-05T20:27:40-05:00</stEvt:when>
                  <stEvt:softwareAgent>Adobe Audition CS6 (Windows)</stEvt:softwareAgent>
                  <stEvt:changed>/metadata</stEvt:changed>
               </rdf:li>
               <rdf:li rdf:parseType="Resource">
                  <stEvt:action>saved</stEvt:action>
                  <stEvt:instanceID>xmp.iid:150B1B773654E5118C41F0C9CBA096AF</stEvt:instanceID>
                  <stEvt:when>2015-09-05T20:27:40-05:00</stEvt:when>
                  <stEvt:softwareAgent>Adobe Audition CS6 (Windows)</stEvt:softwareAgent>
                  <stEvt:changed>/</stEvt:changed>
               </rdf:li>
               <rdf:li rdf:parseType="Resource">
                  <stEvt:action>saved</stEvt:action>
                  <stEvt:instanceID>xmp.iid:C40F95E03754E511BB89F8E82019729E</stEvt:instanceID>
                  <stEvt:when>2015-09-05T20:37:49-05:00</stEvt:when>
                  <stEvt:softwareAgent>Adobe Audition CS6 (Windows)</stEvt:softwareAgent>
                  <stEvt:changed>/metadata</stEvt:changed>
               </rdf:li>
               <rdf:li rdf:parseType="Resource">
                  <stEvt:action>saved</stEvt:action>
                  <stEvt:instanceID>xmp.iid:C50F95E03754E511BB89F8E82019729E</stEvt:instanceID>
                  <stEvt:when>2015-09-05T20:37:49-05:00</stEvt:when>
                  <stEvt:softwareAgent>Adobe Audition CS6 (Windows)</stEvt:softwareAgent>
                  <stEvt:changed>/</stEvt:changed>
               </rdf:li>
               <rdf:li rdf:parseType="Resource">
                  <stEvt:action>saved</stEvt:action>
                  <stEvt:instanceID>xmp.iid:764B6E243954E511BB89F8E82019729E</stEvt:instanceID>
                  <stEvt:when>2015-09-05T20:46:50-05:00</stEvt:when>
                  <stEvt:softwareAgent>Adobe Audition CS6 (Windows)</stEvt:softwareAgent>
                  <stEvt:changed>/metadata</stEvt:changed>
               </rdf:li>
               <rdf:li rdf:parseType="Resource">
                  <stEvt:action>saved</stEvt:action>
                  <stEvt:instanceID>xmp.iid:774B6E243954E511BB89F8E82019729E</stEvt:instanceID>
                  <stEvt:when>2015-09-05T20:46:50-05:00</stEvt:when>
                  <stEvt:softwareAgent>Adobe Audition CS6 (Windows)</stEvt:softwareAgent>
                  <stEvt:changed>/</stEvt:changed>
               </rdf:li>
               <rdf:li rdf:parseType="Resource">
                  <stEvt:action>saved</stEvt:action>
                  <stEvt:instanceID>xmp.iid:0B2291240655E511B69FA41581EE1929</stEvt:instanceID>
                  <stEvt:when>2015-09-06T21:14:20-05:00</stEvt:when>
                  <stEvt:softwareAgent>Adobe Audition CS6 (Windows)</stEvt:softwareAgent>
                  <stEvt:changed>/metadata</stEvt:changed>
               </rdf:li>
               <rdf:li rdf:parseType="Resource">
                  <stEvt:action>saved</stEvt:action>
                  <stEvt:instanceID>xmp.iid:0C2291240655E511B69FA41581EE1929</stEvt:instanceID>
                  <stEvt:when>2015-09-06T21:14:20-05:00</stEvt:when>
                  <stEvt:softwareAgent>Adobe Audition CS6 (Windows)</stEvt:softwareAgent>
                  <stEvt:changed>/</stEvt:changed>
               </rdf:li>
               <rdf:li rdf:parseType="Resource">
                  <stEvt:action>saved</stEvt:action>
                  <stEvt:instanceID>xmp.iid:AB13038B1255E511B69FA41581EE1929</stEvt:instanceID>
                  <stEvt:when>2015-09-06T22:43:03-05:00</stEvt:when>
                  <stEvt:softwareAgent>Adobe Audition CS6 (Windows)</stEvt:softwareAgent>
                  <stEvt:changed>/metadata</stEvt:changed>
               </rdf:li>
               <rdf:li rdf:parseType="Resource">
                  <stEvt:action>saved</stEvt:action>
                  <stEvt:instanceID>xmp.iid:AC13038B1255E511B69FA41581EE1929</stEvt:instanceID>
                  <stEvt:when>2015-09-06T22:43:03-05:00</stEvt:when>
                  <stEvt:softwareAgent>Adobe Audition CS6 (Windows)</stEvt:softwareAgent>
                  <stEvt:changed>/</stEvt:changed>
               </rdf:li>
               <rdf:li rdf:parseType="Resource">
                  <stEvt:action>saved</stEvt:action>
                  <stEvt:instanceID>xmp.iid:AD13038B1255E511B69FA41581EE1929</stEvt:instanceID>
                  <stEvt:when>2015-09-06T22:53:03-05:00</stEvt:when>
                  <stEvt:softwareAgent>Adobe Audition CS6 (Windows)</stEvt:softwareAgent>
                  <stEvt:changed>/metadata</stEvt:changed>
               </rdf:li>
               <rdf:li rdf:parseType="Resource">
                  <stEvt:action>saved</stEvt:action>
                  <stEvt:instanceID>xmp.iid:AE13038B1255E511B69FA41581EE1929</stEvt:instanceID>
                  <stEvt:when>2015-09-06T22:53:03-05:00</stEvt:when>
                  <stEvt:softwareAgent>Adobe Audition CS6 (Windows)</stEvt:softwareAgent>
                  <stEvt:changed>/</stEvt:changed>
               </rdf:li>
               <rdf:li rdf:parseType="Resource">
                  <stEvt:action>saved</stEvt:action>
                  <stEvt:instanceID>xmp.iid:AF13038B1255E511B69FA41581EE1929</stEvt:instanceID>
                  <stEvt:when>2015-09-06T23:03:05-05:00</stEvt:when>
                  <stEvt:softwareAgent>Adobe Audition CS6 (Windows)</stEvt:softwareAgent>
                  <stEvt:changed>/metadata</stEvt:changed>
               </rdf:li>
               <rdf:li rdf:parseType="Resource">
                  <stEvt:action>saved</stEvt:action>
                  <stEvt:instanceID>xmp.iid:B013038B1255E511B69FA41581EE1929</stEvt:instanceID>
                  <stEvt:when>2015-09-06T23:03:05-05:00</stEvt:when>
                  <stEvt:softwareAgent>Adobe Audition CS6 (Windows)</stEvt:softwareAgent>
                  <stEvt:changed>/</stEvt:changed>
               </rdf:li>
               <rdf:li rdf:parseType="Resource">
                  <stEvt:action>saved</stEvt:action>
                  <stEvt:instanceID>xmp.iid:B113038B1255E511B69FA41581EE1929</stEvt:instanceID>
                  <stEvt:when>2015-09-06T23:13:35-05:00</stEvt:when>
                  <stEvt:softwareAgent>Adobe Audition CS6 (Windows)</stEvt:softwareAgent>
                  <stEvt:changed>/metadata</stEvt:changed>
               </rdf:li>
               <rdf:li rdf:parseType="Resource">
                  <stEvt:action>saved</stEvt:action>
                  <stEvt:instanceID>xmp.iid:B213038B1255E511B69FA41581EE1929</stEvt:instanceID>
                  <stEvt:when>2015-09-06T23:13:35-05:00</stEvt:when>
                  <stEvt:softwareAgent>Adobe Audition CS6 (Windows)</stEvt:softwareAgent>
                  <stEvt:changed>/</stEvt:changed>
               </rdf:li>
               <rdf:li rdf:parseType="Resource">
                  <stEvt:action>saved</stEvt:action>
                  <stEvt:instanceID>xmp.iid:B313038B1255E511B69FA41581EE1929</stEvt:instanceID>
                  <stEvt:when>2015-09-06T23:24:05-05:00</stEvt:when>
                  <stEvt:softwareAgent>Adobe Audition CS6 (Windows)</stEvt:softwareAgent>
                  <stEvt:changed>/metadata</stEvt:changed>
               </rdf:li>
               <rdf:li rdf:parseType="Resource">
                  <stEvt:action>saved</stEvt:action>
                  <stEvt:instanceID>xmp.iid:B413038B1255E511B69FA41581EE1929</stEvt:instanceID>
                  <stEvt:when>2015-09-06T23:24:05-05:00</stEvt:when>
                  <stEvt:softwareAgent>Adobe Audition CS6 (Windows)</stEvt:softwareAgent>
                  <stEvt:changed>/</stEvt:changed>
               </rdf:li>
               <rdf:li rdf:parseType="Resource">
                  <stEvt:action>saved</stEvt:action>
                  <stEvt:instanceID>xmp.iid:396BDD681855E511B69FA41581EE1929</stEvt:instanceID>
                  <stEvt:when>2015-09-06T23:25:03-05:00</stEvt:when>
                  <stEvt:softwareAgent>Adobe Audition CS6 (Windows)</stEvt:softwareAgent>
                  <stEvt:changed>/metadata</stEvt:changed>
               </rdf:li>
               <rdf:li rdf:parseType="Resource">
                  <stEvt:action>saved</stEvt:action>
                  <stEvt:instanceID>xmp.iid:3A6BDD681855E511B69FA41581EE1929</stEvt:instanceID>
                  <stEvt:when>2015-09-06T23:25:03-05:00</stEvt:when>
                  <stEvt:softwareAgent>Adobe Audition CS6 (Windows)</stEvt:softwareAgent>
                  <stEvt:changed>/</stEvt:changed>
               </rdf:li>
               <rdf:li rdf:parseType="Resource">
                  <stEvt:action>saved</stEvt:action>
                  <stEvt:instanceID>xmp.iid:3D6BDD681855E511B69FA41581EE1929</stEvt:instanceID>
                  <stEvt:when>2015-09-06T23:35:06-05:00</stEvt:when>
                  <stEvt:softwareAgent>Adobe Audition CS6 (Windows)</stEvt:softwareAgent>
                  <stEvt:changed>/metadata</stEvt:changed>
               </rdf:li>
               <rdf:li rdf:parseType="Resource">
                  <stEvt:action>saved</stEvt:action>
                  <stEvt:instanceID>xmp.iid:3E6BDD681855E511B69FA41581EE1929</stEvt:instanceID>
                  <stEvt:when>2015-09-06T23:35:06-05:00</stEvt:when>
                  <stEvt:softwareAgent>Adobe Audition CS6 (Windows)</stEvt:softwareAgent>
                  <stEvt:changed>/</stEvt:changed>
               </rdf:li>
               <rdf:li rdf:parseType="Resource">
                  <stEvt:action>saved</stEvt:action>
                  <stEvt:instanceID>xmp.iid:3F6BDD681855E511B69FA41581EE1929</stEvt:instanceID>
                  <stEvt:when>2015-09-06T23:45:06-05:00</stEvt:when>
                  <stEvt:softwareAgent>Adobe Audition CS6 (Windows)</stEvt:softwareAgent>
                  <stEvt:changed>/metadata</stEvt:changed>
               </rdf:li>
               <rdf:li rdf:parseType="Resource">
                  <stEvt:action>saved</stEvt:action>
                  <stEvt:instanceID>xmp.iid:406BDD681855E511B69FA41581EE1929</stEvt:instanceID>
                  <stEvt:when>2015-09-06T23:45:06-05:00</stEvt:when>
                  <stEvt:softwareAgent>Adobe Audition CS6 (Windows)</stEvt:softwareAgent>
                  <stEvt:changed>/</stEvt:changed>
               </rdf:li>
               <rdf:li rdf:parseType="Resource">
                  <stEvt:action>saved</stEvt:action>
                  <stEvt:instanceID>xmp.iid:416BDD681855E511B69FA41581EE1929</stEvt:instanceID>
                  <stEvt:when>2015-09-06T23:55:36-05:00</stEvt:when>
                  <stEvt:softwareAgent>Adobe Audition CS6 (Windows)</stEvt:softwareAgent>
                  <stEvt:changed>/metadata</stEvt:changed>
               </rdf:li>
               <rdf:li rdf:parseType="Resource">
                  <stEvt:action>saved</stEvt:action>
                  <stEvt:instanceID>xmp.iid:426BDD681855E511B69FA41581EE1929</stEvt:instanceID>
                  <stEvt:when>2015-09-06T23:55:36-05:00</stEvt:when>
                  <stEvt:softwareAgent>Adobe Audition CS6 (Windows)</stEvt:softwareAgent>
                  <stEvt:changed>/</stEvt:changed>
               </rdf:li>
               <rdf:li rdf:parseType="Resource">
                  <stEvt:action>saved</stEvt:action>
                  <stEvt:instanceID>xmp.iid:6E5BB8371E55E511B69FA41581EE1929</stEvt:instanceID>
                  <stEvt:when>2015-09-07T00:06:37-05:00</stEvt:when>
                  <stEvt:softwareAgent>Adobe Audition CS6 (Windows)</stEvt:softwareAgent>
                  <stEvt:changed>/metadata</stEvt:changed>
               </rdf:li>
               <rdf:li rdf:parseType="Resource">
                  <stEvt:action>saved</stEvt:action>
                  <stEvt:instanceID>xmp.iid:6F5BB8371E55E511B69FA41581EE1929</stEvt:instanceID>
                  <stEvt:when>2015-09-07T00:06:37-05:00</stEvt:when>
                  <stEvt:softwareAgent>Adobe Audition CS6 (Windows)</stEvt:softwareAgent>
                  <stEvt:changed>/</stEvt:changed>
               </rdf:li>
               <rdf:li rdf:parseType="Resource">
                  <stEvt:action>saved</stEvt:action>
                  <stEvt:instanceID>xmp.iid:705BB8371E55E511B69FA41581EE1929</stEvt:instanceID>
                  <stEvt:when>2015-09-07T00:16:37-05:00</stEvt:when>
                  <stEvt:softwareAgent>Adobe Audition CS6 (Windows)</stEvt:softwareAgent>
                  <stEvt:changed>/metadata</stEvt:changed>
               </rdf:li>
               <rdf:li rdf:parseType="Resource">
                  <stEvt:action>saved</stEvt:action>
                  <stEvt:instanceID>xmp.iid:715BB8371E55E511B69FA41581EE1929</stEvt:instanceID>
                  <stEvt:when>2015-09-07T00:16:37-05:00</stEvt:when>
                  <stEvt:softwareAgent>Adobe Audition CS6 (Windows)</stEvt:softwareAgent>
                  <stEvt:changed>/</stEvt:changed>
               </rdf:li>
               <rdf:li rdf:parseType="Resource">
                  <stEvt:action>saved</stEvt:action>
                  <stEvt:instanceID>xmp.iid:725BB8371E55E511B69FA41581EE1929</stEvt:instanceID>
                  <stEvt:when>2015-09-07T00:26:38-05:00</stEvt:when>
                  <stEvt:softwareAgent>Adobe Audition CS6 (Windows)</stEvt:softwareAgent>
                  <stEvt:changed>/metadata</stEvt:changed>
               </rdf:li>
               <rdf:li rdf:parseType="Resource">
                  <stEvt:action>saved</stEvt:action>
                  <stEvt:instanceID>xmp.iid:735BB8371E55E511B69FA41581EE1929</stEvt:instanceID>
                  <stEvt:when>2015-09-07T00:26:38-05:00</stEvt:when>
                  <stEvt:softwareAgent>Adobe Audition CS6 (Windows)</stEvt:softwareAgent>
                  <stEvt:changed>/</stEvt:changed>
               </rdf:li>
               <rdf:li rdf:parseType="Resource">
                  <stEvt:action>saved</stEvt:action>
                  <stEvt:instanceID>xmp.iid:745BB8371E55E511B69FA41581EE1929</stEvt:instanceID>
                  <stEvt:when>2015-09-07T00:37:08-05:00</stEvt:when>
                  <stEvt:softwareAgent>Adobe Audition CS6 (Windows)</stEvt:softwareAgent>
                  <stEvt:changed>/metadata</stEvt:changed>
               </rdf:li>
               <rdf:li rdf:parseType="Resource">
                  <stEvt:action>saved</stEvt:action>
                  <stEvt:instanceID>xmp.iid:755BB8371E55E511B69FA41581EE1929</stEvt:instanceID>
                  <stEvt:when>2015-09-07T00:37:08-05:00</stEvt:when>
                  <stEvt:softwareAgent>Adobe Audition CS6 (Windows)</stEvt:softwareAgent>
                  <stEvt:changed>/</stEvt:changed>
               </rdf:li>
               <rdf:li rdf:parseType="Resource">
                  <stEvt:action>saved</stEvt:action>
                  <stEvt:instanceID>xmp.iid:10CB323B2355E511B69FA41581EE1929</stEvt:instanceID>
                  <stEvt:when>2015-09-07T00:42:31-05:00</stEvt:when>
                  <stEvt:softwareAgent>Adobe Audition CS6 (Windows)</stEvt:softwareAgent>
                  <stEvt:changed>/metadata</stEvt:changed>
               </rdf:li>
               <rdf:li rdf:parseType="Resource">
                  <stEvt:action>saved</stEvt:action>
                  <stEvt:instanceID>xmp.iid:11CB323B2355E511B69FA41581EE1929</stEvt:instanceID>
                  <stEvt:when>2015-09-07T00:42:31-05:00</stEvt:when>
                  <stEvt:softwareAgent>Adobe Audition CS6 (Windows)</stEvt:softwareAgent>
                  <stEvt:changed>/</stEvt:changed>
               </rdf:li>
               <rdf:li rdf:parseType="Resource">
                  <stEvt:action>saved</stEvt:action>
                  <stEvt:instanceID>xmp.iid:A8EA383CD255E511BDA1F5BD10162FE2</stEvt:instanceID>
                  <stEvt:when>2015-09-07T21:35:24-05:00</stEvt:when>
                  <stEvt:softwareAgent>Adobe Audition CS6 (Windows)</stEvt:softwareAgent>
                  <stEvt:changed>/metadata</stEvt:changed>
               </rdf:li>
               <rdf:li rdf:parseType="Resource">
                  <stEvt:action>saved</stEvt:action>
                  <stEvt:instanceID>xmp.iid:A9EA383CD255E511BDA1F5BD10162FE2</stEvt:instanceID>
                  <stEvt:when>2015-09-07T21:35:24-05:00</stEvt:when>
                  <stEvt:softwareAgent>Adobe Audition CS6 (Windows)</stEvt:softwareAgent>
                  <stEvt:changed>/</stEvt:changed>
               </rdf:li>
               <rdf:li rdf:parseType="Resource">
                  <stEvt:action>saved</stEvt:action>
                  <stEvt:instanceID>xmp.iid:8EFDDBBED355E511BDA1F5BD10162FE2</stEvt:instanceID>
                  <stEvt:when>2015-09-07T21:46:03-05:00</stEvt:when>
                  <stEvt:softwareAgent>Adobe Audition CS6 (Windows)</stEvt:softwareAgent>
                  <stEvt:changed>/metadata</stEvt:changed>
               </rdf:li>
               <rdf:li rdf:parseType="Resource">
                  <stEvt:action>saved</stEvt:action>
                  <stEvt:instanceID>xmp.iid:8FFDDBBED355E511BDA1F5BD10162FE2</stEvt:instanceID>
                  <stEvt:when>2015-09-07T21:46:03-05:00</stEvt:when>
                  <stEvt:softwareAgent>Adobe Audition CS6 (Windows)</stEvt:softwareAgent>
                  <stEvt:changed>/</stEvt:changed>
               </rdf:li>
               <rdf:li rdf:parseType="Resource">
                  <stEvt:action>saved</stEvt:action>
                  <stEvt:instanceID>xmp.iid:92FDDBBED355E511BDA1F5BD10162FE2</stEvt:instanceID>
                  <stEvt:when>2015-09-07T21:50:45-05:00</stEvt:when>
                  <stEvt:softwareAgent>Adobe Audition CS6 (Windows)</stEvt:softwareAgent>
                  <stEvt:changed>/metadata</stEvt:changed>
               </rdf:li>
               <rdf:li rdf:parseType="Resource">
                  <stEvt:action>saved</stEvt:action>
                  <stEvt:instanceID>xmp.iid:93FDDBBED355E511BDA1F5BD10162FE2</stEvt:instanceID>
                  <stEvt:when>2015-09-07T21:50:45-05:00</stEvt:when>
                  <stEvt:softwareAgent>Adobe Audition CS6 (Windows)</stEvt:softwareAgent>
                  <stEvt:changed>/</stEvt:changed>
               </rdf:li>
               <rdf:li rdf:parseType="Resource">
                  <stEvt:action>saved</stEvt:action>
                  <stEvt:instanceID>xmp.iid:94FDDBBED355E511BDA1F5BD10162FE2</stEvt:instanceID>
                  <stEvt:when>2015-09-07T22:01:03-05:00</stEvt:when>
                  <stEvt:softwareAgent>Adobe Audition CS6 (Windows)</stEvt:softwareAgent>
                  <stEvt:changed>/metadata</stEvt:changed>
               </rdf:li>
               <rdf:li rdf:parseType="Resource">
                  <stEvt:action>saved</stEvt:action>
                  <stEvt:instanceID>xmp.iid:95FDDBBED355E511BDA1F5BD10162FE2</stEvt:instanceID>
                  <stEvt:when>2015-09-07T22:01:03-05:00</stEvt:when>
                  <stEvt:softwareAgent>Adobe Audition CS6 (Windows)</stEvt:softwareAgent>
                  <stEvt:changed>/</stEvt:changed>
               </rdf:li>
               <rdf:li rdf:parseType="Resource">
                  <stEvt:action>saved</stEvt:action>
                  <stEvt:instanceID>xmp.iid:96FDDBBED355E511BDA1F5BD10162FE2</stEvt:instanceID>
                  <stEvt:when>2015-09-07T22:12:03-05:00</stEvt:when>
                  <stEvt:softwareAgent>Adobe Audition CS6 (Windows)</stEvt:softwareAgent>
                  <stEvt:changed>/metadata</stEvt:changed>
               </rdf:li>
               <rdf:li rdf:parseType="Resource">
                  <stEvt:action>saved</stEvt:action>
                  <stEvt:instanceID>xmp.iid:97FDDBBED355E511BDA1F5BD10162FE2</stEvt:instanceID>
                  <stEvt:when>2015-09-07T22:12:03-05:00</stEvt:when>
                  <stEvt:softwareAgent>Adobe Audition CS6 (Windows)</stEvt:softwareAgent>
                  <stEvt:changed>/</stEvt:changed>
               </rdf:li>
               <rdf:li rdf:parseType="Resource">
                  <stEvt:action>saved</stEvt:action>
                  <stEvt:instanceID>xmp.iid:AD00707FD755E511BDA1F5BD10162FE2</stEvt:instanceID>
                  <stEvt:when>2015-09-07T22:12:54-05:00</stEvt:when>
                  <stEvt:softwareAgent>Adobe Audition CS6 (Windows)</stEvt:softwareAgent>
                  <stEvt:changed>/metadata</stEvt:changed>
               </rdf:li>
               <rdf:li rdf:parseType="Resource">
                  <stEvt:action>saved</stEvt:action>
                  <stEvt:instanceID>xmp.iid:AE00707FD755E511BDA1F5BD10162FE2</stEvt:instanceID>
                  <stEvt:when>2015-09-07T22:12:54-05:00</stEvt:when>
                  <stEvt:softwareAgent>Adobe Audition CS6 (Windows)</stEvt:softwareAgent>
                  <stEvt:changed>/</stEvt:changed>
               </rdf:li>
               <rdf:li rdf:parseType="Resource">
                  <stEvt:action>saved</stEvt:action>
                  <stEvt:instanceID>xmp.iid:AF00707FD755E511BDA1F5BD10162FE2</stEvt:instanceID>
                  <stEvt:when>2015-09-07T22:14:24-05:00</stEvt:when>
                  <stEvt:softwareAgent>Adobe Audition CS6 (Windows)</stEvt:softwareAgent>
                  <stEvt:changed>/metadata</stEvt:changed>
               </rdf:li>
               <rdf:li rdf:parseType="Resource">
                  <stEvt:action>saved</stEvt:action>
                  <stEvt:instanceID>xmp.iid:B000707FD755E511BDA1F5BD10162FE2</stEvt:instanceID>
                  <stEvt:when>2015-09-07T22:14:24-05:00</stEvt:when>
                  <stEvt:softwareAgent>Adobe Audition CS6 (Windows)</stEvt:softwareAgent>
                  <stEvt:changed>/</stEvt:changed>
               </rdf:li>
               <rdf:li rdf:parseType="Resource">
                  <stEvt:action>saved</stEvt:action>
                  <stEvt:instanceID>xmp.iid:B100707FD755E511BDA1F5BD10162FE2</stEvt:instanceID>
                  <stEvt:when>2015-09-07T22:40:03-05:00</stEvt:when>
                  <stEvt:softwareAgent>Adobe Audition CS6 (Windows)</stEvt:softwareAgent>
                  <stEvt:changed>/metadata</stEvt:changed>
               </rdf:li>
               <rdf:li rdf:parseType="Resource">
                  <stEvt:action>saved</stEvt:action>
                  <stEvt:instanceID>xmp.iid:B200707FD755E511BDA1F5BD10162FE2</stEvt:instanceID>
                  <stEvt:when>2015-09-07T22:40:03-05:00</stEvt:when>
                  <stEvt:softwareAgent>Adobe Audition CS6 (Windows)</stEvt:softwareAgent>
                  <stEvt:changed>/</stEvt:changed>
               </rdf:li>
               <rdf:li rdf:parseType="Resource">
                  <stEvt:action>saved</stEvt:action>
                  <stEvt:instanceID>xmp.iid:B300707FD755E511BDA1F5BD10162FE2</stEvt:instanceID>
                  <stEvt:when>2015-09-07T22:50:34-05:00</stEvt:when>
                  <stEvt:softwareAgent>Adobe Audition CS6 (Windows)</stEvt:softwareAgent>
                  <stEvt:changed>/metadata</stEvt:changed>
               </rdf:li>
               <rdf:li rdf:parseType="Resource">
                  <stEvt:action>saved</stEvt:action>
                  <stEvt:instanceID>xmp.iid:B400707FD755E511BDA1F5BD10162FE2</stEvt:instanceID>
                  <stEvt:when>2015-09-07T22:50:34-05:00</stEvt:when>
                  <stEvt:softwareAgent>Adobe Audition CS6 (Windows)</stEvt:softwareAgent>
                  <stEvt:changed>/</stEvt:changed>
               </rdf:li>
               <rdf:li rdf:parseType="Resource">
                  <stEvt:action>saved</stEvt:action>
                  <stEvt:instanceID>xmp.iid:9E358472DD55E511BDA1F5BD10162FE2</stEvt:instanceID>
                  <stEvt:when>2015-09-07T22:55:30-05:00</stEvt:when>
                  <stEvt:softwareAgent>Adobe Audition CS6 (Windows)</stEvt:softwareAgent>
                  <stEvt:changed>/metadata</stEvt:changed>
               </rdf:li>
               <rdf:li rdf:parseType="Resource">
                  <stEvt:action>saved</stEvt:action>
                  <stEvt:instanceID>xmp.iid:9F358472DD55E511BDA1F5BD10162FE2</stEvt:instanceID>
                  <stEvt:when>2015-09-07T22:55:30-05:00</stEvt:when>
                  <stEvt:softwareAgent>Adobe Audition CS6 (Windows)</stEvt:softwareAgent>
                  <stEvt:changed>/</stEvt:changed>
               </rdf:li>
               <rdf:li rdf:parseType="Resource">
                  <stEvt:action>saved</stEvt:action>
                  <stEvt:instanceID>xmp.iid:A2358472DD55E511BDA1F5BD10162FE2</stEvt:instanceID>
                  <stEvt:when>2015-09-07T23:06:54-05:00</stEvt:when>
                  <stEvt:softwareAgent>Adobe Audition CS6 (Windows)</stEvt:softwareAgent>
                  <stEvt:changed>/metadata</stEvt:changed>
               </rdf:li>
               <rdf:li rdf:parseType="Resource">
                  <stEvt:action>saved</stEvt:action>
                  <stEvt:instanceID>xmp.iid:A3358472DD55E511BDA1F5BD10162FE2</stEvt:instanceID>
                  <stEvt:when>2015-09-07T23:06:54-05:00</stEvt:when>
                  <stEvt:softwareAgent>Adobe Audition CS6 (Windows)</stEvt:softwareAgent>
                  <stEvt:changed>/</stEvt:changed>
               </rdf:li>
               <rdf:li rdf:parseType="Resource">
                  <stEvt:action>saved</stEvt:action>
                  <stEvt:instanceID>xmp.iid:A4358472DD55E511BDA1F5BD10162FE2</stEvt:instanceID>
                  <stEvt:when>2015-09-07T23:13:15-05:00</stEvt:when>
                  <stEvt:softwareAgent>Adobe Audition CS6 (Windows)</stEvt:softwareAgent>
                  <stEvt:changed>/metadata</stEvt:changed>
               </rdf:li>
               <rdf:li rdf:parseType="Resource">
                  <stEvt:action>saved</stEvt:action>
                  <stEvt:instanceID>xmp.iid:A5358472DD55E511BDA1F5BD10162FE2</stEvt:instanceID>
                  <stEvt:when>2015-09-07T23:13:15-05:00</stEvt:when>
                  <stEvt:softwareAgent>Adobe Audition CS6 (Windows)</stEvt:softwareAgent>
                  <stEvt:changed>/</stEvt:changed>
               </rdf:li>
               <rdf:li rdf:parseType="Resource">
                  <stEvt:action>saved</stEvt:action>
                  <stEvt:instanceID>xmp.iid:90DFF71FE055E511BDA1F5BD10162FE2</stEvt:instanceID>
                  <stEvt:when>2015-09-07T23:19:06-05:00</stEvt:when>
                  <stEvt:softwareAgent>Adobe Audition CS6 (Windows)</stEvt:softwareAgent>
                  <stEvt:changed>/metadata</stEvt:changed>
               </rdf:li>
               <rdf:li rdf:parseType="Resource">
                  <stEvt:action>saved</stEvt:action>
                  <stEvt:instanceID>xmp.iid:91DFF71FE055E511BDA1F5BD10162FE2</stEvt:instanceID>
                  <stEvt:when>2015-09-07T23:19:06-05:00</stEvt:when>
                  <stEvt:softwareAgent>Adobe Audition CS6 (Windows)</stEvt:softwareAgent>
                  <stEvt:changed>/</stEvt:changed>
               </rdf:li>
               <rdf:li rdf:parseType="Resource">
                  <stEvt:action>saved</stEvt:action>
                  <stEvt:instanceID>xmp.iid:AD72C47CE155E511B1F1D2FDA8E52895</stEvt:instanceID>
                  <stEvt:when>2015-09-07T23:24:27-05:00</stEvt:when>
                  <stEvt:softwareAgent>Adobe Audition CS6 (Windows)</stEvt:softwareAgent>
                  <stEvt:changed>/metadata</stEvt:changed>
               </rdf:li>
               <rdf:li rdf:parseType="Resource">
                  <stEvt:action>saved</stEvt:action>
                  <stEvt:instanceID>xmp.iid:AE72C47CE155E511B1F1D2FDA8E52895</stEvt:instanceID>
                  <stEvt:when>2015-09-07T23:24:27-05:00</stEvt:when>
                  <stEvt:softwareAgent>Adobe Audition CS6 (Windows)</stEvt:softwareAgent>
                  <stEvt:changed>/</stEvt:changed>
               </rdf:li>
               <rdf:li rdf:parseType="Resource">
                  <stEvt:action>saved</stEvt:action>
                  <stEvt:instanceID>xmp.iid:D2597925E355E511B1F1D2FDA8E52895</stEvt:instanceID>
                  <stEvt:when>2015-09-07T23:36:17-05:00</stEvt:when>
                  <stEvt:softwareAgent>Adobe Audition CS6 (Windows)</stEvt:softwareAgent>
                  <stEvt:changed>/metadata</stEvt:changed>
               </rdf:li>
               <rdf:li rdf:parseType="Resource">
                  <stEvt:action>saved</stEvt:action>
                  <stEvt:instanceID>xmp.iid:D3597925E355E511B1F1D2FDA8E52895</stEvt:instanceID>
                  <stEvt:when>2015-09-07T23:36:17-05:00</stEvt:when>
                  <stEvt:softwareAgent>Adobe Audition CS6 (Windows)</stEvt:softwareAgent>
                  <stEvt:changed>/</stEvt:changed>
               </rdf:li>
               <rdf:li rdf:parseType="Resource">
                  <stEvt:action>saved</stEvt:action>
                  <stEvt:instanceID>xmp.iid:D4597925E355E511B1F1D2FDA8E52895</stEvt:instanceID>
                  <stEvt:when>2015-09-07T23:46:48-05:00</stEvt:when>
                  <stEvt:softwareAgent>Adobe Audition CS6 (Windows)</stEvt:softwareAgent>
                  <stEvt:changed>/metadata</stEvt:changed>
               </rdf:li>
               <rdf:li rdf:parseType="Resource">
                  <stEvt:action>saved</stEvt:action>
                  <stEvt:instanceID>xmp.iid:D5597925E355E511B1F1D2FDA8E52895</stEvt:instanceID>
                  <stEvt:when>2015-09-07T23:46:48-05:00</stEvt:when>
                  <stEvt:softwareAgent>Adobe Audition CS6 (Windows)</stEvt:softwareAgent>
                  <stEvt:changed>/</stEvt:changed>
               </rdf:li>
               <rdf:li rdf:parseType="Resource">
                  <stEvt:action>saved</stEvt:action>
                  <stEvt:instanceID>xmp.iid:D8597925E355E511B1F1D2FDA8E52895</stEvt:instanceID>
                  <stEvt:when>2015-09-07T23:56:29-05:00</stEvt:when>
                  <stEvt:softwareAgent>Adobe Audition CS6 (Windows)</stEvt:softwareAgent>
                  <stEvt:changed>/metadata</stEvt:changed>
               </rdf:li>
               <rdf:li rdf:parseType="Resource">
                  <stEvt:action>saved</stEvt:action>
                  <stEvt:instanceID>xmp.iid:D9597925E355E511B1F1D2FDA8E52895</stEvt:instanceID>
                  <stEvt:when>2015-09-07T23:56:29-05:00</stEvt:when>
                  <stEvt:softwareAgent>Adobe Audition CS6 (Windows)</stEvt:softwareAgent>
                  <stEvt:changed>/</stEvt:changed>
               </rdf:li>
               <rdf:li rdf:parseType="Resource">
                  <stEvt:action>saved</stEvt:action>
                  <stEvt:instanceID>xmp.iid:DA597925E355E511B1F1D2FDA8E52895</stEvt:instanceID>
                  <stEvt:when>2015-09-07T23:59:27-05:00</stEvt:when>
                  <stEvt:softwareAgent>Adobe Audition CS6 (Windows)</stEvt:softwareAgent>
                  <stEvt:changed>/metadata</stEvt:changed>
               </rdf:li>
               <rdf:li rdf:parseType="Resource">
                  <stEvt:action>saved</stEvt:action>
                  <stEvt:instanceID>xmp.iid:DB597925E355E511B1F1D2FDA8E52895</stEvt:instanceID>
                  <stEvt:when>2015-09-07T23:59:27-05:00</stEvt:when>
                  <stEvt:softwareAgent>Adobe Audition CS6 (Windows)</stEvt:softwareAgent>
                  <stEvt:changed>/</stEvt:changed>
               </rdf:li>
               <rdf:li rdf:parseType="Resource">
                  <stEvt:action>saved</stEvt:action>
                  <stEvt:instanceID>xmp.iid:DC597925E355E511B1F1D2FDA8E52895</stEvt:instanceID>
                  <stEvt:when>2015-09-08T00:02:46-05:00</stEvt:when>
                  <stEvt:softwareAgent>Adobe Audition CS6 (Windows)</stEvt:softwareAgent>
                  <stEvt:changed>/metadata</stEvt:changed>
               </rdf:li>
               <rdf:li rdf:parseType="Resource">
                  <stEvt:action>saved</stEvt:action>
                  <stEvt:instanceID>xmp.iid:58BA23D8E655E511B1F1D2FDA8E52895</stEvt:instanceID>
                  <stEvt:when>2015-09-08T00:02:46-05:00</stEvt:when>
                  <stEvt:softwareAgent>Adobe Audition CS6 (Windows)</stEvt:softwareAgent>
                  <stEvt:changed>/</stEvt:changed>
               </rdf:li>
               <rdf:li rdf:parseType="Resource">
                  <stEvt:action>saved</stEvt:action>
                  <stEvt:instanceID>xmp.iid:0DEA96226257E511ABD6F8F95F136C83</stEvt:instanceID>
                  <stEvt:when>2015-09-09T21:18:18-05:00</stEvt:when>
                  <stEvt:softwareAgent>Adobe Audition CS6 (Windows)</stEvt:softwareAgent>
                  <stEvt:changed>/metadata</stEvt:changed>
               </rdf:li>
               <rdf:li rdf:parseType="Resource">
                  <stEvt:action>saved</stEvt:action>
                  <stEvt:instanceID>xmp.iid:0EEA96226257E511ABD6F8F95F136C83</stEvt:instanceID>
                  <stEvt:when>2015-09-09T21:18:18-05:00</stEvt:when>
                  <stEvt:softwareAgent>Adobe Audition CS6 (Windows)</stEvt:softwareAgent>
                  <stEvt:changed>/</stEvt:changed>
               </rdf:li>
               <rdf:li rdf:parseType="Resource">
                  <stEvt:action>saved</stEvt:action>
                  <stEvt:instanceID>xmp.iid:BCDE15A96357E511ABD6F8F95F136C83</stEvt:instanceID>
                  <stEvt:when>2015-09-09T21:28:45-05:00</stEvt:when>
                  <stEvt:softwareAgent>Adobe Audition CS6 (Windows)</stEvt:softwareAgent>
                  <stEvt:changed>/metadata</stEvt:changed>
               </rdf:li>
               <rdf:li rdf:parseType="Resource">
                  <stEvt:action>saved</stEvt:action>
                  <stEvt:instanceID>xmp.iid:BDDE15A96357E511ABD6F8F95F136C83</stEvt:instanceID>
                  <stEvt:when>2015-09-09T21:28:45-05:00</stEvt:when>
                  <stEvt:softwareAgent>Adobe Audition CS6 (Windows)</stEvt:softwareAgent>
                  <stEvt:changed>/</stEvt:changed>
               </rdf:li>
               <rdf:li rdf:parseType="Resource">
                  <stEvt:action>saved</stEvt:action>
                  <stEvt:instanceID>xmp.iid:BEDE15A96357E511ABD6F8F95F136C83</stEvt:instanceID>
                  <stEvt:when>2015-09-09T21:38:16-05:00</stEvt:when>
                  <stEvt:softwareAgent>Adobe Audition CS6 (Windows)</stEvt:softwareAgent>
                  <stEvt:changed>/metadata</stEvt:changed>
               </rdf:li>
               <rdf:li rdf:parseType="Resource">
                  <stEvt:action>saved</stEvt:action>
                  <stEvt:instanceID>xmp.iid:BFDE15A96357E511ABD6F8F95F136C83</stEvt:instanceID>
                  <stEvt:when>2015-09-09T21:38:16-05:00</stEvt:when>
                  <stEvt:softwareAgent>Adobe Audition CS6 (Windows)</stEvt:softwareAgent>
                  <stEvt:changed>/</stEvt:changed>
               </rdf:li>
               <rdf:li rdf:parseType="Resource">
                  <stEvt:action>saved</stEvt:action>
                  <stEvt:instanceID>xmp.iid:A009ECE96557E511BFF494E0E82946BB</stEvt:instanceID>
                  <stEvt:when>2015-09-09T21:44:56-05:00</stEvt:when>
                  <stEvt:softwareAgent>Adobe Audition CS6 (Windows)</stEvt:softwareAgent>
                  <stEvt:changed>/metadata</stEvt:changed>
               </rdf:li>
               <rdf:li rdf:parseType="Resource">
                  <stEvt:action>saved</stEvt:action>
                  <stEvt:instanceID>xmp.iid:A109ECE96557E511BFF494E0E82946BB</stEvt:instanceID>
                  <stEvt:when>2015-09-09T21:44:56-05:00</stEvt:when>
                  <stEvt:softwareAgent>Adobe Audition CS6 (Windows)</stEvt:softwareAgent>
                  <stEvt:changed>/</stEvt:changed>
               </rdf:li>
               <rdf:li rdf:parseType="Resource">
                  <stEvt:action>saved</stEvt:action>
                  <stEvt:instanceID>xmp.iid:437026216857E511BFF494E0E82946BB</stEvt:instanceID>
                  <stEvt:when>2015-09-09T22:00:44-05:00</stEvt:when>
                  <stEvt:softwareAgent>Adobe Audition CS6 (Windows)</stEvt:softwareAgent>
                  <stEvt:changed>/metadata</stEvt:changed>
               </rdf:li>
               <rdf:li rdf:parseType="Resource">
                  <stEvt:action>saved</stEvt:action>
                  <stEvt:instanceID>xmp.iid:447026216857E511BFF494E0E82946BB</stEvt:instanceID>
                  <stEvt:when>2015-09-09T22:00:44-05:00</stEvt:when>
                  <stEvt:softwareAgent>Adobe Audition CS6 (Windows)</stEvt:softwareAgent>
                  <stEvt:changed>/</stEvt:changed>
               </rdf:li>
               <rdf:li rdf:parseType="Resource">
                  <stEvt:action>saved</stEvt:action>
                  <stEvt:instanceID>xmp.iid:457026216857E511BFF494E0E82946BB</stEvt:instanceID>
                  <stEvt:when>2015-09-09T22:11:45-05:00</stEvt:when>
                  <stEvt:softwareAgent>Adobe Audition CS6 (Windows)</stEvt:softwareAgent>
                  <stEvt:changed>/metadata</stEvt:changed>
               </rdf:li>
               <rdf:li rdf:parseType="Resource">
                  <stEvt:action>saved</stEvt:action>
                  <stEvt:instanceID>xmp.iid:467026216857E511BFF494E0E82946BB</stEvt:instanceID>
                  <stEvt:when>2015-09-09T22:11:45-05:00</stEvt:when>
                  <stEvt:softwareAgent>Adobe Audition CS6 (Windows)</stEvt:softwareAgent>
                  <stEvt:changed>/</stEvt:changed>
               </rdf:li>
               <rdf:li rdf:parseType="Resource">
                  <stEvt:action>saved</stEvt:action>
                  <stEvt:instanceID>xmp.iid:477026216857E511BFF494E0E82946BB</stEvt:instanceID>
                  <stEvt:when>2015-09-09T22:22:15-05:00</stEvt:when>
                  <stEvt:softwareAgent>Adobe Audition CS6 (Windows)</stEvt:softwareAgent>
                  <stEvt:changed>/metadata</stEvt:changed>
               </rdf:li>
               <rdf:li rdf:parseType="Resource">
                  <stEvt:action>saved</stEvt:action>
                  <stEvt:instanceID>xmp.iid:487026216857E511BFF494E0E82946BB</stEvt:instanceID>
                  <stEvt:when>2015-09-09T22:22:15-05:00</stEvt:when>
                  <stEvt:softwareAgent>Adobe Audition CS6 (Windows)</stEvt:softwareAgent>
                  <stEvt:changed>/</stEvt:changed>
               </rdf:li>
               <rdf:li rdf:parseType="Resource">
                  <stEvt:action>saved</stEvt:action>
                  <stEvt:instanceID>xmp.iid:497026216857E511BFF494E0E82946BB</stEvt:instanceID>
                  <stEvt:when>2015-09-09T22:32:46-05:00</stEvt:when>
                  <stEvt:softwareAgent>Adobe Audition CS6 (Windows)</stEvt:softwareAgent>
                  <stEvt:changed>/metadata</stEvt:changed>
               </rdf:li>
               <rdf:li rdf:parseType="Resource">
                  <stEvt:action>saved</stEvt:action>
                  <stEvt:instanceID>xmp.iid:4A7026216857E511BFF494E0E82946BB</stEvt:instanceID>
                  <stEvt:when>2015-09-09T22:32:46-05:00</stEvt:when>
                  <stEvt:softwareAgent>Adobe Audition CS6 (Windows)</stEvt:softwareAgent>
                  <stEvt:changed>/</stEvt:changed>
               </rdf:li>
               <rdf:li rdf:parseType="Resource">
                  <stEvt:action>saved</stEvt:action>
                  <stEvt:instanceID>xmp.iid:4B7026216857E511BFF494E0E82946BB</stEvt:instanceID>
                  <stEvt:when>2015-09-09T22:42:20-05:00</stEvt:when>
                  <stEvt:softwareAgent>Adobe Audition CS6 (Windows)</stEvt:softwareAgent>
                  <stEvt:changed>/metadata</stEvt:changed>
               </rdf:li>
               <rdf:li rdf:parseType="Resource">
                  <stEvt:action>saved</stEvt:action>
                  <stEvt:instanceID>xmp.iid:4C7026216857E511BFF494E0E82946BB</stEvt:instanceID>
                  <stEvt:when>2015-09-09T22:42:20-05:00</stEvt:when>
                  <stEvt:softwareAgent>Adobe Audition CS6 (Windows)</stEvt:softwareAgent>
                  <stEvt:changed>/</stEvt:changed>
               </rdf:li>
               <rdf:li rdf:parseType="Resource">
                  <stEvt:action>saved</stEvt:action>
                  <stEvt:instanceID>xmp.iid:26FC25F96E57E5119B3EE6F29335231F</stEvt:instanceID>
                  <stEvt:when>2015-09-09T22:49:46-05:00</stEvt:when>
                  <stEvt:softwareAgent>Adobe Audition CS6 (Windows)</stEvt:softwareAgent>
                  <stEvt:changed>/metadata</stEvt:changed>
               </rdf:li>
               <rdf:li rdf:parseType="Resource">
                  <stEvt:action>saved</stEvt:action>
                  <stEvt:instanceID>xmp.iid:27FC25F96E57E5119B3EE6F29335231F</stEvt:instanceID>
                  <stEvt:when>2015-09-09T22:49:46-05:00</stEvt:when>
                  <stEvt:softwareAgent>Adobe Audition CS6 (Windows)</stEvt:softwareAgent>
                  <stEvt:changed>/</stEvt:changed>
               </rdf:li>
               <rdf:li rdf:parseType="Resource">
                  <stEvt:action>saved</stEvt:action>
                  <stEvt:instanceID>xmp.iid:4FB3B36D7057E5119B3EE6F29335231F</stEvt:instanceID>
                  <stEvt:when>2015-09-09T23:00:09-05:00</stEvt:when>
                  <stEvt:softwareAgent>Adobe Audition CS6 (Windows)</stEvt:softwareAgent>
                  <stEvt:changed>/metadata</stEvt:changed>
               </rdf:li>
               <rdf:li rdf:parseType="Resource">
                  <stEvt:action>saved</stEvt:action>
                  <stEvt:instanceID>xmp.iid:50B3B36D7057E5119B3EE6F29335231F</stEvt:instanceID>
                  <stEvt:when>2015-09-09T23:00:09-05:00</stEvt:when>
                  <stEvt:softwareAgent>Adobe Audition CS6 (Windows)</stEvt:softwareAgent>
                  <stEvt:changed>/</stEvt:changed>
               </rdf:li>
               <rdf:li rdf:parseType="Resource">
                  <stEvt:action>saved</stEvt:action>
                  <stEvt:instanceID>xmp.iid:55B3B36D7057E5119B3EE6F29335231F</stEvt:instanceID>
                  <stEvt:when>2015-09-09T23:07:09-05:00</stEvt:when>
                  <stEvt:softwareAgent>Adobe Audition CS6 (Windows)</stEvt:softwareAgent>
                  <stEvt:changed>/metadata</stEvt:changed>
               </rdf:li>
               <rdf:li rdf:parseType="Resource">
                  <stEvt:action>saved</stEvt:action>
                  <stEvt:instanceID>xmp.iid:56B3B36D7057E5119B3EE6F29335231F</stEvt:instanceID>
                  <stEvt:when>2015-09-09T23:07:09-05:00</stEvt:when>
                  <stEvt:softwareAgent>Adobe Audition CS6 (Windows)</stEvt:softwareAgent>
                  <stEvt:changed>/</stEvt:changed>
               </rdf:li>
               <rdf:li rdf:parseType="Resource">
                  <stEvt:action>saved</stEvt:action>
                  <stEvt:instanceID>xmp.iid:8F9369867157E511B28CA6FF0D184162</stEvt:instanceID>
                  <stEvt:when>2015-09-09T23:08:01-05:00</stEvt:when>
                  <stEvt:softwareAgent>Adobe Audition CS6 (Windows)</stEvt:softwareAgent>
                  <stEvt:changed>/metadata</stEvt:changed>
               </rdf:li>
               <rdf:li rdf:parseType="Resource">
                  <stEvt:action>saved</stEvt:action>
                  <stEvt:instanceID>xmp.iid:909369867157E511B28CA6FF0D184162</stEvt:instanceID>
                  <stEvt:when>2015-09-09T23:08:01-05:00</stEvt:when>
                  <stEvt:softwareAgent>Adobe Audition CS6 (Windows)</stEvt:softwareAgent>
                  <stEvt:changed>/</stEvt:changed>
               </rdf:li>
               <rdf:li rdf:parseType="Resource">
                  <stEvt:action>saved</stEvt:action>
                  <stEvt:instanceID>xmp.iid:544674277257E511B28CA6FF0D184162</stEvt:instanceID>
                  <stEvt:when>2015-09-09T23:12:30-05:00</stEvt:when>
                  <stEvt:softwareAgent>Adobe Audition CS6 (Windows)</stEvt:softwareAgent>
                  <stEvt:changed>/metadata</stEvt:changed>
               </rdf:li>
               <rdf:li rdf:parseType="Resource">
                  <stEvt:action>saved</stEvt:action>
                  <stEvt:instanceID>xmp.iid:554674277257E511B28CA6FF0D184162</stEvt:instanceID>
                  <stEvt:when>2015-09-09T23:12:30-05:00</stEvt:when>
                  <stEvt:softwareAgent>Adobe Audition CS6 (Windows)</stEvt:softwareAgent>
                  <stEvt:changed>/</stEvt:changed>
               </rdf:li>
               <rdf:li rdf:parseType="Resource">
                  <stEvt:action>saved</stEvt:action>
                  <stEvt:instanceID>xmp.iid:584674277257E511B28CA6FF0D184162</stEvt:instanceID>
                  <stEvt:when>2015-09-09T23:15:35-05:00</stEvt:when>
                  <stEvt:softwareAgent>Adobe Audition CS6 (Windows)</stEvt:softwareAgent>
                  <stEvt:changed>/metadata</stEvt:changed>
               </rdf:li>
               <rdf:li rdf:parseType="Resource">
                  <stEvt:action>saved</stEvt:action>
                  <stEvt:instanceID>xmp.iid:594674277257E511B28CA6FF0D184162</stEvt:instanceID>
                  <stEvt:when>2015-09-09T23:15:35-05:00</stEvt:when>
                  <stEvt:softwareAgent>Adobe Audition CS6 (Windows)</stEvt:softwareAgent>
                  <stEvt:changed>/</stEvt:changed>
               </rdf:li>
               <rdf:li rdf:parseType="Resource">
                  <stEvt:action>saved</stEvt:action>
                  <stEvt:instanceID>xmp.iid:5C4674277257E511B28CA6FF0D184162</stEvt:instanceID>
                  <stEvt:when>2015-09-09T23:17:49-05:00</stEvt:when>
                  <stEvt:softwareAgent>Adobe Audition CS6 (Windows)</stEvt:softwareAgent>
                  <stEvt:changed>/metadata</stEvt:changed>
               </rdf:li>
               <rdf:li rdf:parseType="Resource">
                  <stEvt:action>saved</stEvt:action>
                  <stEvt:instanceID>xmp.iid:F84ED9E57257E511B28CA6FF0D184162</stEvt:instanceID>
                  <stEvt:when>2015-09-09T23:17:49-05:00</stEvt:when>
                  <stEvt:softwareAgent>Adobe Audition CS6 (Windows)</stEvt:softwareAgent>
                  <stEvt:changed>/</stEvt:changed>
               </rdf:li>
               <rdf:li rdf:parseType="Resource">
                  <stEvt:action>saved</stEvt:action>
                  <stEvt:instanceID>xmp.iid:F94ED9E57257E511B28CA6FF0D184162</stEvt:instanceID>
                  <stEvt:when>2015-09-09T23:20:47-05:00</stEvt:when>
                  <stEvt:softwareAgent>Adobe Audition CS6 (Windows)</stEvt:softwareAgent>
                  <stEvt:changed>/metadata</stEvt:changed>
               </rdf:li>
               <rdf:li rdf:parseType="Resource">
                  <stEvt:action>saved</stEvt:action>
                  <stEvt:instanceID>xmp.iid:FA4ED9E57257E511B28CA6FF0D184162</stEvt:instanceID>
                  <stEvt:when>2015-09-09T23:20:47-05:00</stEvt:when>
                  <stEvt:softwareAgent>Adobe Audition CS6 (Windows)</stEvt:softwareAgent>
                  <stEvt:changed>/</stEvt:changed>
               </rdf:li>
               <rdf:li rdf:parseType="Resource">
                  <stEvt:action>saved</stEvt:action>
                  <stEvt:instanceID>xmp.iid:A9EA93567457E511B2B1F7BD7D6D782B</stEvt:instanceID>
                  <stEvt:when>2015-09-09T23:28:09-05:00</stEvt:when>
                  <stEvt:softwareAgent>Adobe Audition CS6 (Windows)</stEvt:softwareAgent>
                  <stEvt:changed>/metadata</stEvt:changed>
               </rdf:li>
               <rdf:li rdf:parseType="Resource">
                  <stEvt:action>saved</stEvt:action>
                  <stEvt:instanceID>xmp.iid:AAEA93567457E511B2B1F7BD7D6D782B</stEvt:instanceID>
                  <stEvt:when>2015-09-09T23:28:09-05:00</stEvt:when>
                  <stEvt:softwareAgent>Adobe Audition CS6 (Windows)</stEvt:softwareAgent>
                  <stEvt:changed>/</stEvt:changed>
               </rdf:li>
               <rdf:li rdf:parseType="Resource">
                  <stEvt:action>saved</stEvt:action>
                  <stEvt:instanceID>xmp.iid:EEB1DADD7557E511B2B1F7BD7D6D782B</stEvt:instanceID>
                  <stEvt:when>2015-09-09T23:39:04-05:00</stEvt:when>
                  <stEvt:softwareAgent>Adobe Audition CS6 (Windows)</stEvt:softwareAgent>
                  <stEvt:changed>/metadata</stEvt:changed>
               </rdf:li>
               <rdf:li rdf:parseType="Resource">
                  <stEvt:action>saved</stEvt:action>
                  <stEvt:instanceID>xmp.iid:EFB1DADD7557E511B2B1F7BD7D6D782B</stEvt:instanceID>
                  <stEvt:when>2015-09-09T23:39:04-05:00</stEvt:when>
                  <stEvt:softwareAgent>Adobe Audition CS6 (Windows)</stEvt:softwareAgent>
                  <stEvt:changed>/</stEvt:changed>
               </rdf:li>
               <rdf:li rdf:parseType="Resource">
                  <stEvt:action>saved</stEvt:action>
                  <stEvt:instanceID>xmp.iid:F2B1DADD7557E511B2B1F7BD7D6D782B</stEvt:instanceID>
                  <stEvt:when>2015-09-09T23:43:52-05:00</stEvt:when>
                  <stEvt:softwareAgent>Adobe Audition CS6 (Windows)</stEvt:softwareAgent>
                  <stEvt:changed>/metadata</stEvt:changed>
               </rdf:li>
               <rdf:li rdf:parseType="Resource">
                  <stEvt:action>saved</stEvt:action>
                  <stEvt:instanceID>xmp.iid:F3B1DADD7557E511B2B1F7BD7D6D782B</stEvt:instanceID>
                  <stEvt:when>2015-09-09T23:43:52-05:00</stEvt:when>
                  <stEvt:softwareAgent>Adobe Audition CS6 (Windows)</stEvt:softwareAgent>
                  <stEvt:changed>/</stEvt:changed>
               </rdf:li>
               <rdf:li rdf:parseType="Resource">
                  <stEvt:action>saved</stEvt:action>
                  <stEvt:instanceID>xmp.iid:F4B1DADD7557E511B2B1F7BD7D6D782B</stEvt:instanceID>
                  <stEvt:when>2015-09-09T23:45:12-05:00</stEvt:when>
                  <stEvt:softwareAgent>Adobe Audition CS6 (Windows)</stEvt:softwareAgent>
                  <stEvt:changed>/metadata</stEvt:changed>
               </rdf:li>
               <rdf:li rdf:parseType="Resource">
                  <stEvt:action>saved</stEvt:action>
                  <stEvt:instanceID>xmp.iid:F5B1DADD7557E511B2B1F7BD7D6D782B</stEvt:instanceID>
                  <stEvt:when>2015-09-09T23:45:12-05:00</stEvt:when>
                  <stEvt:softwareAgent>Adobe Audition CS6 (Windows)</stEvt:softwareAgent>
                  <stEvt:changed>/</stEvt:changed>
               </rdf:li>
               <rdf:li rdf:parseType="Resource">
                  <stEvt:action>saved</stEvt:action>
                  <stEvt:instanceID>xmp.iid:F8B1DADD7557E511B2B1F7BD7D6D782B</stEvt:instanceID>
                  <stEvt:when>2015-09-09T23:53:51-05:00</stEvt:when>
                  <stEvt:softwareAgent>Adobe Audition CS6 (Windows)</stEvt:softwareAgent>
                  <stEvt:changed>/metadata</stEvt:changed>
               </rdf:li>
               <rdf:li rdf:parseType="Resource">
                  <stEvt:action>saved</stEvt:action>
                  <stEvt:instanceID>xmp.iid:457E0CEE7757E511B2B1F7BD7D6D782B</stEvt:instanceID>
                  <stEvt:when>2015-09-09T23:53:51-05:00</stEvt:when>
                  <stEvt:softwareAgent>Adobe Audition CS6 (Windows)</stEvt:softwareAgent>
                  <stEvt:changed>/</stEvt:changed>
               </rdf:li>
               <rdf:li rdf:parseType="Resource">
                  <stEvt:action>saved</stEvt:action>
                  <stEvt:instanceID>xmp.iid:17EB8C427857E5119E2AF9902A98A321</stEvt:instanceID>
                  <stEvt:when>2015-09-09T23:56:19-05:00</stEvt:when>
                  <stEvt:softwareAgent>Adobe Audition CS6 (Windows)</stEvt:softwareAgent>
                  <stEvt:changed>/metadata</stEvt:changed>
               </rdf:li>
               <rdf:li rdf:parseType="Resource">
                  <stEvt:action>saved</stEvt:action>
                  <stEvt:instanceID>xmp.iid:18EB8C427857E5119E2AF9902A98A321</stEvt:instanceID>
                  <stEvt:when>2015-09-09T23:56:19-05:00</stEvt:when>
                  <stEvt:softwareAgent>Adobe Audition CS6 (Windows)</stEvt:softwareAgent>
                  <stEvt:changed>/</stEvt:changed>
               </rdf:li>
               <rdf:li rdf:parseType="Resource">
                  <stEvt:action>saved</stEvt:action>
                  <stEvt:instanceID>xmp.iid:2CFBEEB57957E5119E2AF9902A98A321</stEvt:instanceID>
                  <stEvt:when>2015-09-10T00:06:35-05:00</stEvt:when>
                  <stEvt:softwareAgent>Adobe Audition CS6 (Windows)</stEvt:softwareAgent>
                  <stEvt:changed>/metadata</stEvt:changed>
               </rdf:li>
               <rdf:li rdf:parseType="Resource">
                  <stEvt:action>saved</stEvt:action>
                  <stEvt:instanceID>xmp.iid:2DFBEEB57957E5119E2AF9902A98A321</stEvt:instanceID>
                  <stEvt:when>2015-09-10T00:06:35-05:00</stEvt:when>
                  <stEvt:softwareAgent>Adobe Audition CS6 (Windows)</stEvt:softwareAgent>
                  <stEvt:changed>/</stEvt:changed>
               </rdf:li>
               <rdf:li rdf:parseType="Resource">
                  <stEvt:action>saved</stEvt:action>
                  <stEvt:instanceID>xmp.iid:2EFBEEB57957E5119E2AF9902A98A321</stEvt:instanceID>
                  <stEvt:when>2015-09-10T00:16:37-05:00</stEvt:when>
                  <stEvt:softwareAgent>Adobe Audition CS6 (Windows)</stEvt:softwareAgent>
                  <stEvt:changed>/metadata</stEvt:changed>
               </rdf:li>
               <rdf:li rdf:parseType="Resource">
                  <stEvt:action>saved</stEvt:action>
                  <stEvt:instanceID>xmp.iid:2FFBEEB57957E5119E2AF9902A98A321</stEvt:instanceID>
                  <stEvt:when>2015-09-10T00:16:37-05:00</stEvt:when>
                  <stEvt:softwareAgent>Adobe Audition CS6 (Windows)</stEvt:softwareAgent>
                  <stEvt:changed>/</stEvt:changed>
               </rdf:li>
               <rdf:li rdf:parseType="Resource">
                  <stEvt:action>saved</stEvt:action>
                  <stEvt:instanceID>xmp.iid:30FBEEB57957E5119E2AF9902A98A321</stEvt:instanceID>
                  <stEvt:when>2015-09-10T00:23:30-05:00</stEvt:when>
                  <stEvt:softwareAgent>Adobe Audition CS6 (Windows)</stEvt:softwareAgent>
                  <stEvt:changed>/metadata</stEvt:changed>
               </rdf:li>
               <rdf:li rdf:parseType="Resource">
                  <stEvt:action>saved</stEvt:action>
                  <stEvt:instanceID>xmp.iid:31FBEEB57957E5119E2AF9902A98A321</stEvt:instanceID>
                  <stEvt:when>2015-09-10T00:23:30-05:00</stEvt:when>
                  <stEvt:softwareAgent>Adobe Audition CS6 (Windows)</stEvt:softwareAgent>
                  <stEvt:changed>/</stEvt:changed>
               </rdf:li>
               <rdf:li rdf:parseType="Resource">
                  <stEvt:action>saved</stEvt:action>
                  <stEvt:instanceID>xmp.iid:53030ED58D5AE511AE4AA2889ADC7231</stEvt:instanceID>
                  <stEvt:when>2015-09-13T22:08:15-05:00</stEvt:when>
                  <stEvt:softwareAgent>Adobe Audition CS6 (Windows)</stEvt:softwareAgent>
                  <stEvt:changed>/metadata</stEvt:changed>
               </rdf:li>
               <rdf:li rdf:parseType="Resource">
                  <stEvt:action>saved</stEvt:action>
                  <stEvt:instanceID>xmp.iid:54030ED58D5AE511AE4AA2889ADC7231</stEvt:instanceID>
                  <stEvt:when>2015-09-13T22:08:15-05:00</stEvt:when>
                  <stEvt:softwareAgent>Adobe Audition CS6 (Windows)</stEvt:softwareAgent>
                  <stEvt:changed>/</stEvt:changed>
               </rdf:li>
               <rdf:li rdf:parseType="Resource">
                  <stEvt:action>saved</stEvt:action>
                  <stEvt:instanceID>xmp.iid:9807D3908F5AE511AE4AA2889ADC7231</stEvt:instanceID>
                  <stEvt:when>2015-09-13T22:20:36-05:00</stEvt:when>
                  <stEvt:softwareAgent>Adobe Audition CS6 (Windows)</stEvt:softwareAgent>
                  <stEvt:changed>/metadata</stEvt:changed>
               </rdf:li>
               <rdf:li rdf:parseType="Resource">
                  <stEvt:action>saved</stEvt:action>
                  <stEvt:instanceID>xmp.iid:9907D3908F5AE511AE4AA2889ADC7231</stEvt:instanceID>
                  <stEvt:when>2015-09-13T22:20:36-05:00</stEvt:when>
                  <stEvt:softwareAgent>Adobe Audition CS6 (Windows)</stEvt:softwareAgent>
                  <stEvt:changed>/</stEvt:changed>
               </rdf:li>
               <rdf:li rdf:parseType="Resource">
                  <stEvt:action>saved</stEvt:action>
                  <stEvt:instanceID>xmp.iid:9A07D3908F5AE511AE4AA2889ADC7231</stEvt:instanceID>
                  <stEvt:when>2015-09-13T22:31:06-05:00</stEvt:when>
                  <stEvt:softwareAgent>Adobe Audition CS6 (Windows)</stEvt:softwareAgent>
                  <stEvt:changed>/metadata</stEvt:changed>
               </rdf:li>
               <rdf:li rdf:parseType="Resource">
                  <stEvt:action>saved</stEvt:action>
                  <stEvt:instanceID>xmp.iid:9B07D3908F5AE511AE4AA2889ADC7231</stEvt:instanceID>
                  <stEvt:when>2015-09-13T22:31:06-05:00</stEvt:when>
                  <stEvt:softwareAgent>Adobe Audition CS6 (Windows)</stEvt:softwareAgent>
                  <stEvt:changed>/</stEvt:changed>
               </rdf:li>
               <rdf:li rdf:parseType="Resource">
                  <stEvt:action>saved</stEvt:action>
                  <stEvt:instanceID>xmp.iid:9C07D3908F5AE511AE4AA2889ADC7231</stEvt:instanceID>
                  <stEvt:when>2015-09-13T22:41:06-05:00</stEvt:when>
                  <stEvt:softwareAgent>Adobe Audition CS6 (Windows)</stEvt:softwareAgent>
                  <stEvt:changed>/metadata</stEvt:changed>
               </rdf:li>
               <rdf:li rdf:parseType="Resource">
                  <stEvt:action>saved</stEvt:action>
                  <stEvt:instanceID>xmp.iid:9D07D3908F5AE511AE4AA2889ADC7231</stEvt:instanceID>
                  <stEvt:when>2015-09-13T22:41:06-05:00</stEvt:when>
                  <stEvt:softwareAgent>Adobe Audition CS6 (Windows)</stEvt:softwareAgent>
                  <stEvt:changed>/</stEvt:changed>
               </rdf:li>
               <rdf:li rdf:parseType="Resource">
                  <stEvt:action>saved</stEvt:action>
                  <stEvt:instanceID>xmp.iid:13EBC38B935AE511AE4AA2889ADC7231</stEvt:instanceID>
                  <stEvt:when>2015-09-13T22:49:05-05:00</stEvt:when>
                  <stEvt:softwareAgent>Adobe Audition CS6 (Windows)</stEvt:softwareAgent>
                  <stEvt:changed>/metadata</stEvt:changed>
               </rdf:li>
               <rdf:li rdf:parseType="Resource">
                  <stEvt:action>saved</stEvt:action>
                  <stEvt:instanceID>xmp.iid:14EBC38B935AE511AE4AA2889ADC7231</stEvt:instanceID>
                  <stEvt:when>2015-09-13T22:49:05-05:00</stEvt:when>
                  <stEvt:softwareAgent>Adobe Audition CS6 (Windows)</stEvt:softwareAgent>
                  <stEvt:changed>/</stEvt:changed>
               </rdf:li>
               <rdf:li rdf:parseType="Resource">
                  <stEvt:action>saved</stEvt:action>
                  <stEvt:instanceID>xmp.iid:19EBC38B935AE511AE4AA2889ADC7231</stEvt:instanceID>
                  <stEvt:when>2015-09-13T22:59:06-05:00</stEvt:when>
                  <stEvt:softwareAgent>Adobe Audition CS6 (Windows)</stEvt:softwareAgent>
                  <stEvt:changed>/metadata</stEvt:changed>
               </rdf:li>
               <rdf:li rdf:parseType="Resource">
                  <stEvt:action>saved</stEvt:action>
                  <stEvt:instanceID>xmp.iid:1AEBC38B935AE511AE4AA2889ADC7231</stEvt:instanceID>
                  <stEvt:when>2015-09-13T22:59:06-05:00</stEvt:when>
                  <stEvt:softwareAgent>Adobe Audition CS6 (Windows)</stEvt:softwareAgent>
                  <stEvt:changed>/</stEvt:changed>
               </rdf:li>
               <rdf:li rdf:parseType="Resource">
                  <stEvt:action>saved</stEvt:action>
                  <stEvt:instanceID>xmp.iid:1BEBC38B935AE511AE4AA2889ADC7231</stEvt:instanceID>
                  <stEvt:when>2015-09-13T23:09:06-05:00</stEvt:when>
                  <stEvt:softwareAgent>Adobe Audition CS6 (Windows)</stEvt:softwareAgent>
                  <stEvt:changed>/metadata</stEvt:changed>
               </rdf:li>
               <rdf:li rdf:parseType="Resource">
                  <stEvt:action>saved</stEvt:action>
                  <stEvt:instanceID>xmp.iid:1CEBC38B935AE511AE4AA2889ADC7231</stEvt:instanceID>
                  <stEvt:when>2015-09-13T23:09:06-05:00</stEvt:when>
                  <stEvt:softwareAgent>Adobe Audition CS6 (Windows)</stEvt:softwareAgent>
                  <stEvt:changed>/</stEvt:changed>
               </rdf:li>
               <rdf:li rdf:parseType="Resource">
                  <stEvt:action>saved</stEvt:action>
                  <stEvt:instanceID>xmp.iid:1B1FB0BD975AE511AE4AA2889ADC7231</stEvt:instanceID>
                  <stEvt:when>2015-09-13T23:19:07-05:00</stEvt:when>
                  <stEvt:softwareAgent>Adobe Audition CS6 (Windows)</stEvt:softwareAgent>
                  <stEvt:changed>/metadata</stEvt:changed>
               </rdf:li>
               <rdf:li rdf:parseType="Resource">
                  <stEvt:action>saved</stEvt:action>
                  <stEvt:instanceID>xmp.iid:1C1FB0BD975AE511AE4AA2889ADC7231</stEvt:instanceID>
                  <stEvt:when>2015-09-13T23:19:07-05:00</stEvt:when>
                  <stEvt:softwareAgent>Adobe Audition CS6 (Windows)</stEvt:softwareAgent>
                  <stEvt:changed>/</stEvt:changed>
               </rdf:li>
               <rdf:li rdf:parseType="Resource">
                  <stEvt:action>saved</stEvt:action>
                  <stEvt:instanceID>xmp.iid:211FB0BD975AE511AE4AA2889ADC7231</stEvt:instanceID>
                  <stEvt:when>2015-09-13T23:29:28-05:00</stEvt:when>
                  <stEvt:softwareAgent>Adobe Audition CS6 (Windows)</stEvt:softwareAgent>
                  <stEvt:changed>/metadata</stEvt:changed>
               </rdf:li>
               <rdf:li rdf:parseType="Resource">
                  <stEvt:action>saved</stEvt:action>
                  <stEvt:instanceID>xmp.iid:221FB0BD975AE511AE4AA2889ADC7231</stEvt:instanceID>
                  <stEvt:when>2015-09-13T23:29:28-05:00</stEvt:when>
                  <stEvt:softwareAgent>Adobe Audition CS6 (Windows)</stEvt:softwareAgent>
                  <stEvt:changed>/</stEvt:changed>
               </rdf:li>
               <rdf:li rdf:parseType="Resource">
                  <stEvt:action>saved</stEvt:action>
                  <stEvt:instanceID>xmp.iid:B0FC54099A5AE511A2D1B760F2139303</stEvt:instanceID>
                  <stEvt:when>2015-09-13T23:35:37-05:00</stEvt:when>
                  <stEvt:softwareAgent>Adobe Audition CS6 (Windows)</stEvt:softwareAgent>
                  <stEvt:changed>/metadata</stEvt:changed>
               </rdf:li>
               <rdf:li rdf:parseType="Resource">
                  <stEvt:action>saved</stEvt:action>
                  <stEvt:instanceID>xmp.iid:B1FC54099A5AE511A2D1B760F2139303</stEvt:instanceID>
                  <stEvt:when>2015-09-13T23:35:37-05:00</stEvt:when>
                  <stEvt:softwareAgent>Adobe Audition CS6 (Windows)</stEvt:softwareAgent>
                  <stEvt:changed>/</stEvt:changed>
               </rdf:li>
               <rdf:li rdf:parseType="Resource">
                  <stEvt:action>saved</stEvt:action>
                  <stEvt:instanceID>xmp.iid:6C60BCD79A5AE511A2D1B760F2139303</stEvt:instanceID>
                  <stEvt:when>2015-09-13T23:41:19-05:00</stEvt:when>
                  <stEvt:softwareAgent>Adobe Audition CS6 (Windows)</stEvt:softwareAgent>
                  <stEvt:changed>/metadata</stEvt:changed>
               </rdf:li>
               <rdf:li rdf:parseType="Resource">
                  <stEvt:action>saved</stEvt:action>
                  <stEvt:instanceID>xmp.iid:6D60BCD79A5AE511A2D1B760F2139303</stEvt:instanceID>
                  <stEvt:when>2015-09-13T23:41:19-05:00</stEvt:when>
                  <stEvt:softwareAgent>Adobe Audition CS6 (Windows)</stEvt:softwareAgent>
                  <stEvt:changed>/</stEvt:changed>
               </rdf:li>
               <rdf:li rdf:parseType="Resource">
                  <stEvt:action>saved</stEvt:action>
                  <stEvt:instanceID>xmp.iid:849731E09A5AE5118387AE115A88E25C</stEvt:instanceID>
                  <stEvt:when>2015-09-13T23:41:34-05:00</stEvt:when>
                  <stEvt:softwareAgent>Adobe Audition CS6 (Windows)</stEvt:softwareAgent>
                  <stEvt:changed>/metadata</stEvt:changed>
               </rdf:li>
               <rdf:li rdf:parseType="Resource">
                  <stEvt:action>saved</stEvt:action>
                  <stEvt:instanceID>xmp.iid:859731E09A5AE5118387AE115A88E25C</stEvt:instanceID>
                  <stEvt:when>2015-09-13T23:41:34-05:00</stEvt:when>
                  <stEvt:softwareAgent>Adobe Audition CS6 (Windows)</stEvt:softwareAgent>
                  <stEvt:changed>/</stEvt:changed>
               </rdf:li>
               <rdf:li rdf:parseType="Resource">
                  <stEvt:action>saved</stEvt:action>
                  <stEvt:instanceID>xmp.iid:4D4BE68A9C5AE5118387AE115A88E25C</stEvt:instanceID>
                  <stEvt:when>2015-09-13T23:53:29-05:00</stEvt:when>
                  <stEvt:softwareAgent>Adobe Audition CS6 (Windows)</stEvt:softwareAgent>
                  <stEvt:changed>/metadata</stEvt:changed>
               </rdf:li>
               <rdf:li rdf:parseType="Resource">
                  <stEvt:action>saved</stEvt:action>
                  <stEvt:instanceID>xmp.iid:4E4BE68A9C5AE5118387AE115A88E25C</stEvt:instanceID>
                  <stEvt:when>2015-09-13T23:53:29-05:00</stEvt:when>
                  <stEvt:softwareAgent>Adobe Audition CS6 (Windows)</stEvt:softwareAgent>
                  <stEvt:changed>/</stEvt:changed>
               </rdf:li>
               <rdf:li rdf:parseType="Resource">
                  <stEvt:action>saved</stEvt:action>
                  <stEvt:instanceID>xmp.iid:4F4BE68A9C5AE5118387AE115A88E25C</stEvt:instanceID>
                  <stEvt:when>2015-09-14T00:03:30-05:00</stEvt:when>
                  <stEvt:softwareAgent>Adobe Audition CS6 (Windows)</stEvt:softwareAgent>
                  <stEvt:changed>/metadata</stEvt:changed>
               </rdf:li>
               <rdf:li rdf:parseType="Resource">
                  <stEvt:action>saved</stEvt:action>
                  <stEvt:instanceID>xmp.iid:504BE68A9C5AE5118387AE115A88E25C</stEvt:instanceID>
                  <stEvt:when>2015-09-14T00:03:30-05:00</stEvt:when>
                  <stEvt:softwareAgent>Adobe Audition CS6 (Windows)</stEvt:softwareAgent>
                  <stEvt:changed>/</stEvt:changed>
               </rdf:li>
               <rdf:li rdf:parseType="Resource">
                  <stEvt:action>saved</stEvt:action>
                  <stEvt:instanceID>xmp.iid:514BE68A9C5AE5118387AE115A88E25C</stEvt:instanceID>
                  <stEvt:when>2015-09-14T00:14-05:00</stEvt:when>
                  <stEvt:softwareAgent>Adobe Audition CS6 (Windows)</stEvt:softwareAgent>
                  <stEvt:changed>/metadata</stEvt:changed>
               </rdf:li>
               <rdf:li rdf:parseType="Resource">
                  <stEvt:action>saved</stEvt:action>
                  <stEvt:instanceID>xmp.iid:524BE68A9C5AE5118387AE115A88E25C</stEvt:instanceID>
                  <stEvt:when>2015-09-14T00:14-05:00</stEvt:when>
                  <stEvt:softwareAgent>Adobe Audition CS6 (Windows)</stEvt:softwareAgent>
                  <stEvt:changed>/</stEvt:changed>
               </rdf:li>
               <rdf:li rdf:parseType="Resource">
                  <stEvt:action>saved</stEvt:action>
                  <stEvt:instanceID>xmp.iid:554BE68A9C5AE5118387AE115A88E25C</stEvt:instanceID>
                  <stEvt:when>2015-09-14T00:21:31-05:00</stEvt:when>
                  <stEvt:softwareAgent>Adobe Audition CS6 (Windows)</stEvt:softwareAgent>
                  <stEvt:changed>/metadata</stEvt:changed>
               </rdf:li>
               <rdf:li rdf:parseType="Resource">
                  <stEvt:action>saved</stEvt:action>
                  <stEvt:instanceID>xmp.iid:564BE68A9C5AE5118387AE115A88E25C</stEvt:instanceID>
                  <stEvt:when>2015-09-14T00:21:31-05:00</stEvt:when>
                  <stEvt:softwareAgent>Adobe Audition CS6 (Windows)</stEvt:softwareAgent>
                  <stEvt:changed>/</stEvt:changed>
               </rdf:li>
               <rdf:li rdf:parseType="Resource">
                  <stEvt:action>saved</stEvt:action>
                  <stEvt:instanceID>xmp.iid:E4647C00EF5CE511B85EE41CE74BA4BD</stEvt:instanceID>
                  <stEvt:when>2015-09-16T22:48:56-05:00</stEvt:when>
                  <stEvt:softwareAgent>Adobe Audition CS6 (Windows)</stEvt:softwareAgent>
                  <stEvt:changed>/metadata</stEvt:changed>
               </rdf:li>
               <rdf:li rdf:parseType="Resource">
                  <stEvt:action>saved</stEvt:action>
                  <stEvt:instanceID>xmp.iid:E5647C00EF5CE511B85EE41CE74BA4BD</stEvt:instanceID>
                  <stEvt:when>2015-09-16T22:48:56-05:00</stEvt:when>
                  <stEvt:softwareAgent>Adobe Audition CS6 (Windows)</stEvt:softwareAgent>
                  <stEvt:changed>/</stEvt:changed>
               </rdf:li>
               <rdf:li rdf:parseType="Resource">
                  <stEvt:action>saved</stEvt:action>
                  <stEvt:instanceID>xmp.iid:4260169FEF5CE511B85EE41CE74BA4BD</stEvt:instanceID>
                  <stEvt:when>2015-09-16T22:59:33-05:00</stEvt:when>
                  <stEvt:softwareAgent>Adobe Audition CS6 (Windows)</stEvt:softwareAgent>
                  <stEvt:changed>/metadata</stEvt:changed>
               </rdf:li>
               <rdf:li rdf:parseType="Resource">
                  <stEvt:action>saved</stEvt:action>
                  <stEvt:instanceID>xmp.iid:4360169FEF5CE511B85EE41CE74BA4BD</stEvt:instanceID>
                  <stEvt:when>2015-09-16T22:59:33-05:00</stEvt:when>
                  <stEvt:softwareAgent>Adobe Audition CS6 (Windows)</stEvt:softwareAgent>
                  <stEvt:changed>/</stEvt:changed>
               </rdf:li>
               <rdf:li rdf:parseType="Resource">
                  <stEvt:action>saved</stEvt:action>
                  <stEvt:instanceID>xmp.iid:4460169FEF5CE511B85EE41CE74BA4BD</stEvt:instanceID>
                  <stEvt:when>2015-09-16T23:12:04-05:00</stEvt:when>
                  <stEvt:softwareAgent>Adobe Audition CS6 (Windows)</stEvt:softwareAgent>
                  <stEvt:changed>/metadata</stEvt:changed>
               </rdf:li>
               <rdf:li rdf:parseType="Resource">
                  <stEvt:action>saved</stEvt:action>
                  <stEvt:instanceID>xmp.iid:4560169FEF5CE511B85EE41CE74BA4BD</stEvt:instanceID>
                  <stEvt:when>2015-09-16T23:12:04-05:00</stEvt:when>
                  <stEvt:softwareAgent>Adobe Audition CS6 (Windows)</stEvt:softwareAgent>
                  <stEvt:changed>/</stEvt:changed>
               </rdf:li>
               <rdf:li rdf:parseType="Resource">
                  <stEvt:action>saved</stEvt:action>
                  <stEvt:instanceID>xmp.iid:4860169FEF5CE511B85EE41CE74BA4BD</stEvt:instanceID>
                  <stEvt:when>2015-09-16T23:12:51-05:00</stEvt:when>
                  <stEvt:softwareAgent>Adobe Audition CS6 (Windows)</stEvt:softwareAgent>
                  <stEvt:changed>/metadata</stEvt:changed>
               </rdf:li>
               <rdf:li rdf:parseType="Resource">
                  <stEvt:action>saved</stEvt:action>
                  <stEvt:instanceID>xmp.iid:FB5DC95CF25CE511B85EE41CE74BA4BD</stEvt:instanceID>
                  <stEvt:when>2015-09-16T23:12:51-05:00</stEvt:when>
                  <stEvt:softwareAgent>Adobe Audition CS6 (Windows)</stEvt:softwareAgent>
                  <stEvt:changed>/</stEvt:changed>
               </rdf:li>
               <rdf:li rdf:parseType="Resource">
                  <stEvt:action>saved</stEvt:action>
                  <stEvt:instanceID>xmp.iid:FE5DC95CF25CE511B85EE41CE74BA4BD</stEvt:instanceID>
                  <stEvt:when>2015-09-16T23:27:30-05:00</stEvt:when>
                  <stEvt:softwareAgent>Adobe Audition CS6 (Windows)</stEvt:softwareAgent>
                  <stEvt:changed>/metadata</stEvt:changed>
               </rdf:li>
               <rdf:li rdf:parseType="Resource">
                  <stEvt:action>saved</stEvt:action>
                  <stEvt:instanceID>xmp.iid:FF5DC95CF25CE511B85EE41CE74BA4BD</stEvt:instanceID>
                  <stEvt:when>2015-09-16T23:27:30-05:00</stEvt:when>
                  <stEvt:softwareAgent>Adobe Audition CS6 (Windows)</stEvt:softwareAgent>
                  <stEvt:changed>/</stEvt:changed>
               </rdf:li>
               <rdf:li rdf:parseType="Resource">
                  <stEvt:action>saved</stEvt:action>
                  <stEvt:instanceID>xmp.iid:688E975EF55CE51195F3EB711378D641</stEvt:instanceID>
                  <stEvt:when>2015-09-16T23:36:11-05:00</stEvt:when>
                  <stEvt:softwareAgent>Adobe Audition CS6 (Windows)</stEvt:softwareAgent>
                  <stEvt:changed>/metadata</stEvt:changed>
               </rdf:li>
               <rdf:li rdf:parseType="Resource">
                  <stEvt:action>saved</stEvt:action>
                  <stEvt:instanceID>xmp.iid:698E975EF55CE51195F3EB711378D641</stEvt:instanceID>
                  <stEvt:when>2015-09-16T23:36:11-05:00</stEvt:when>
                  <stEvt:softwareAgent>Adobe Audition CS6 (Windows)</stEvt:softwareAgent>
                  <stEvt:changed>/</stEvt:changed>
               </rdf:li>
               <rdf:li rdf:parseType="Resource">
                  <stEvt:action>saved</stEvt:action>
                  <stEvt:instanceID>xmp.iid:1E22F8B6F55CE51195F3EB711378D641</stEvt:instanceID>
                  <stEvt:when>2015-09-16T23:36:51-05:00</stEvt:when>
                  <stEvt:softwareAgent>Adobe Audition CS6 (Windows)</stEvt:softwareAgent>
                  <stEvt:changed>/metadata</stEvt:changed>
               </rdf:li>
               <rdf:li rdf:parseType="Resource">
                  <stEvt:action>saved</stEvt:action>
                  <stEvt:instanceID>xmp.iid:1F22F8B6F55CE51195F3EB711378D641</stEvt:instanceID>
                  <stEvt:when>2015-09-16T23:36:51-05:00</stEvt:when>
                  <stEvt:softwareAgent>Adobe Audition CS6 (Windows)</stEvt:softwareAgent>
                  <stEvt:changed>/</stEvt:changed>
               </rdf:li>
               <rdf:li rdf:parseType="Resource">
                  <stEvt:action>saved</stEvt:action>
                  <stEvt:instanceID>xmp.iid:929B4451FA5CE51183DAF778006839B9</stEvt:instanceID>
                  <stEvt:when>2015-09-17T00:09:50-05:00</stEvt:when>
                  <stEvt:softwareAgent>Adobe Audition CS6 (Windows)</stEvt:softwareAgent>
                  <stEvt:changed>/metadata</stEvt:changed>
               </rdf:li>
               <rdf:li rdf:parseType="Resource">
                  <stEvt:action>saved</stEvt:action>
                  <stEvt:instanceID>xmp.iid:939B4451FA5CE51183DAF778006839B9</stEvt:instanceID>
                  <stEvt:when>2015-09-17T00:09:50-05:00</stEvt:when>
                  <stEvt:softwareAgent>Adobe Audition CS6 (Windows)</stEvt:softwareAgent>
                  <stEvt:changed>/</stEvt:changed>
               </rdf:li>
               <rdf:li rdf:parseType="Resource">
                  <stEvt:action>saved</stEvt:action>
                  <stEvt:instanceID>xmp.iid:91A47AE2FB5CE51183DAF778006839B9</stEvt:instanceID>
                  <stEvt:when>2015-09-17T00:21:01-05:00</stEvt:when>
                  <stEvt:softwareAgent>Adobe Audition CS6 (Windows)</stEvt:softwareAgent>
                  <stEvt:changed>/metadata</stEvt:changed>
               </rdf:li>
               <rdf:li rdf:parseType="Resource">
                  <stEvt:action>saved</stEvt:action>
                  <stEvt:instanceID>xmp.iid:92A47AE2FB5CE51183DAF778006839B9</stEvt:instanceID>
                  <stEvt:when>2015-09-17T00:21:01-05:00</stEvt:when>
                  <stEvt:softwareAgent>Adobe Audition CS6 (Windows)</stEvt:softwareAgent>
                  <stEvt:changed>/</stEvt:changed>
               </rdf:li>
               <rdf:li rdf:parseType="Resource">
                  <stEvt:action>saved</stEvt:action>
                  <stEvt:instanceID>xmp.iid:93A47AE2FB5CE51183DAF778006839B9</stEvt:instanceID>
                  <stEvt:when>2015-09-17T00:31:03-05:00</stEvt:when>
                  <stEvt:softwareAgent>Adobe Audition CS6 (Windows)</stEvt:softwareAgent>
                  <stEvt:changed>/metadata</stEvt:changed>
               </rdf:li>
               <rdf:li rdf:parseType="Resource">
                  <stEvt:action>saved</stEvt:action>
                  <stEvt:instanceID>xmp.iid:94A47AE2FB5CE51183DAF778006839B9</stEvt:instanceID>
                  <stEvt:when>2015-09-17T00:31:03-05:00</stEvt:when>
                  <stEvt:softwareAgent>Adobe Audition CS6 (Windows)</stEvt:softwareAgent>
                  <stEvt:changed>/</stEvt:changed>
               </rdf:li>
               <rdf:li rdf:parseType="Resource">
                  <stEvt:action>saved</stEvt:action>
                  <stEvt:instanceID>xmp.iid:97A47AE2FB5CE51183DAF778006839B9</stEvt:instanceID>
                  <stEvt:when>2015-09-17T00:34:37-05:00</stEvt:when>
                  <stEvt:softwareAgent>Adobe Audition CS6 (Windows)</stEvt:softwareAgent>
                  <stEvt:changed>/metadata</stEvt:changed>
               </rdf:li>
               <rdf:li rdf:parseType="Resource">
                  <stEvt:action>saved</stEvt:action>
                  <stEvt:instanceID>xmp.iid:98A47AE2FB5CE51183DAF778006839B9</stEvt:instanceID>
                  <stEvt:when>2015-09-17T00:34:37-05:00</stEvt:when>
                  <stEvt:softwareAgent>Adobe Audition CS6 (Windows)</stEvt:softwareAgent>
                  <stEvt:changed>/</stEvt:changed>
               </rdf:li>
               <rdf:li rdf:parseType="Resource">
                  <stEvt:action>saved</stEvt:action>
                  <stEvt:instanceID>xmp.iid:D51037C9FD5CE51183DAF778006839B9</stEvt:instanceID>
                  <stEvt:when>2015-09-17T00:35:05-05:00</stEvt:when>
                  <stEvt:softwareAgent>Adobe Audition CS6 (Windows)</stEvt:softwareAgent>
                  <stEvt:changed>/metadata</stEvt:changed>
               </rdf:li>
               <rdf:li rdf:parseType="Resource">
                  <stEvt:action>saved</stEvt:action>
                  <stEvt:instanceID>xmp.iid:D61037C9FD5CE51183DAF778006839B9</stEvt:instanceID>
                  <stEvt:when>2015-09-17T00:35:05-05:00</stEvt:when>
                  <stEvt:softwareAgent>Adobe Audition CS6 (Windows)</stEvt:softwareAgent>
                  <stEvt:changed>/</stEvt:changed>
               </rdf:li>
               <rdf:li rdf:parseType="Resource">
                  <stEvt:action>saved</stEvt:action>
                  <stEvt:instanceID>xmp.iid:23C90D84B85DE5119A0CCAC0400B22F1</stEvt:instanceID>
                  <stEvt:when>2015-09-17T22:51:49-05:00</stEvt:when>
                  <stEvt:softwareAgent>Adobe Audition CS6 (Windows)</stEvt:softwareAgent>
                  <stEvt:changed>/metadata</stEvt:changed>
               </rdf:li>
               <rdf:li rdf:parseType="Resource">
                  <stEvt:action>saved</stEvt:action>
                  <stEvt:instanceID>xmp.iid:24C90D84B85DE5119A0CCAC0400B22F1</stEvt:instanceID>
                  <stEvt:when>2015-09-17T22:51:49-05:00</stEvt:when>
                  <stEvt:softwareAgent>Adobe Audition CS6 (Windows)</stEvt:softwareAgent>
                  <stEvt:changed>/</stEvt:changed>
               </rdf:li>
               <rdf:li rdf:parseType="Resource">
                  <stEvt:action>saved</stEvt:action>
                  <stEvt:instanceID>xmp.iid:E021040DBE5DE5119A0CCAC0400B22F1</stEvt:instanceID>
                  <stEvt:when>2015-09-17T23:30:54-05:00</stEvt:when>
                  <stEvt:softwareAgent>Adobe Audition CS6 (Windows)</stEvt:softwareAgent>
                  <stEvt:changed>/metadata</stEvt:changed>
               </rdf:li>
               <rdf:li rdf:parseType="Resource">
                  <stEvt:action>saved</stEvt:action>
                  <stEvt:instanceID>xmp.iid:E121040DBE5DE5119A0CCAC0400B22F1</stEvt:instanceID>
                  <stEvt:when>2015-09-17T23:30:54-05:00</stEvt:when>
                  <stEvt:softwareAgent>Adobe Audition CS6 (Windows)</stEvt:softwareAgent>
                  <stEvt:changed>/</stEvt:changed>
               </rdf:li>
               <rdf:li rdf:parseType="Resource">
                  <stEvt:action>saved</stEvt:action>
                  <stEvt:instanceID>xmp.iid:E221040DBE5DE5119A0CCAC0400B22F1</stEvt:instanceID>
                  <stEvt:when>2015-09-17T23:45:24-05:00</stEvt:when>
                  <stEvt:softwareAgent>Adobe Audition CS6 (Windows)</stEvt:softwareAgent>
                  <stEvt:changed>/metadata</stEvt:changed>
               </rdf:li>
               <rdf:li rdf:parseType="Resource">
                  <stEvt:action>saved</stEvt:action>
                  <stEvt:instanceID>xmp.iid:E321040DBE5DE5119A0CCAC0400B22F1</stEvt:instanceID>
                  <stEvt:when>2015-09-17T23:45:24-05:00</stEvt:when>
                  <stEvt:softwareAgent>Adobe Audition CS6 (Windows)</stEvt:softwareAgent>
                  <stEvt:changed>/</stEvt:changed>
               </rdf:li>
               <rdf:li rdf:parseType="Resource">
                  <stEvt:action>saved</stEvt:action>
                  <stEvt:instanceID>xmp.iid:E421040DBE5DE5119A0CCAC0400B22F1</stEvt:instanceID>
                  <stEvt:when>2015-09-17T23:48:40-05:00</stEvt:when>
                  <stEvt:softwareAgent>Adobe Audition CS6 (Windows)</stEvt:softwareAgent>
                  <stEvt:changed>/metadata</stEvt:changed>
               </rdf:li>
               <rdf:li rdf:parseType="Resource">
                  <stEvt:action>saved</stEvt:action>
                  <stEvt:instanceID>xmp.iid:E521040DBE5DE5119A0CCAC0400B22F1</stEvt:instanceID>
                  <stEvt:when>2015-09-17T23:48:40-05:00</stEvt:when>
                  <stEvt:softwareAgent>Adobe Audition CS6 (Windows)</stEvt:softwareAgent>
                  <stEvt:changed>/</stEvt:changed>
               </rdf:li>
               <rdf:li rdf:parseType="Resource">
                  <stEvt:action>saved</stEvt:action>
                  <stEvt:instanceID>xmp.iid:988C32FAA361E51183FFCF4C6D87627D</stEvt:instanceID>
                  <stEvt:when>2015-09-22T22:34:31-05:00</stEvt:when>
                  <stEvt:softwareAgent>Adobe Audition CS6 (Windows)</stEvt:softwareAgent>
                  <stEvt:changed>/metadata</stEvt:changed>
               </rdf:li>
               <rdf:li rdf:parseType="Resource">
                  <stEvt:action>saved</stEvt:action>
                  <stEvt:instanceID>xmp.iid:998C32FAA361E51183FFCF4C6D87627D</stEvt:instanceID>
                  <stEvt:when>2015-09-22T22:34:31-05:00</stEvt:when>
                  <stEvt:softwareAgent>Adobe Audition CS6 (Windows)</stEvt:softwareAgent>
                  <stEvt:changed>/</stEvt:changed>
               </rdf:li>
               <rdf:li rdf:parseType="Resource">
                  <stEvt:action>saved</stEvt:action>
                  <stEvt:instanceID>xmp.iid:50B8596EA561E51183FFCF4C6D87627D</stEvt:instanceID>
                  <stEvt:when>2015-09-22T22:44:45-05:00</stEvt:when>
                  <stEvt:softwareAgent>Adobe Audition CS6 (Windows)</stEvt:softwareAgent>
                  <stEvt:changed>/metadata</stEvt:changed>
               </rdf:li>
               <rdf:li rdf:parseType="Resource">
                  <stEvt:action>saved</stEvt:action>
                  <stEvt:instanceID>xmp.iid:51B8596EA561E51183FFCF4C6D87627D</stEvt:instanceID>
                  <stEvt:when>2015-09-22T22:44:45-05:00</stEvt:when>
                  <stEvt:softwareAgent>Adobe Audition CS6 (Windows)</stEvt:softwareAgent>
                  <stEvt:changed>/</stEvt:changed>
               </rdf:li>
               <rdf:li rdf:parseType="Resource">
                  <stEvt:action>saved</stEvt:action>
                  <stEvt:instanceID>xmp.iid:52B8596EA561E51183FFCF4C6D87627D</stEvt:instanceID>
                  <stEvt:when>2015-09-22T22:55:15-05:00</stEvt:when>
                  <stEvt:softwareAgent>Adobe Audition CS6 (Windows)</stEvt:softwareAgent>
                  <stEvt:changed>/metadata</stEvt:changed>
               </rdf:li>
               <rdf:li rdf:parseType="Resource">
                  <stEvt:action>saved</stEvt:action>
                  <stEvt:instanceID>xmp.iid:53B8596EA561E51183FFCF4C6D87627D</stEvt:instanceID>
                  <stEvt:when>2015-09-22T22:55:15-05:00</stEvt:when>
                  <stEvt:softwareAgent>Adobe Audition CS6 (Windows)</stEvt:softwareAgent>
                  <stEvt:changed>/</stEvt:changed>
               </rdf:li>
               <rdf:li rdf:parseType="Resource">
                  <stEvt:action>saved</stEvt:action>
                  <stEvt:instanceID>xmp.iid:58B8596EA561E51183FFCF4C6D87627D</stEvt:instanceID>
                  <stEvt:when>2015-09-22T23:37:45-05:00</stEvt:when>
                  <stEvt:softwareAgent>Adobe Audition CS6 (Windows)</stEvt:softwareAgent>
                  <stEvt:changed>/metadata</stEvt:changed>
               </rdf:li>
               <rdf:li rdf:parseType="Resource">
                  <stEvt:action>saved</stEvt:action>
                  <stEvt:instanceID>xmp.iid:59B8596EA561E51183FFCF4C6D87627D</stEvt:instanceID>
                  <stEvt:when>2015-09-22T23:37:45-05:00</stEvt:when>
                  <stEvt:softwareAgent>Adobe Audition CS6 (Windows)</stEvt:softwareAgent>
                  <stEvt:changed>/</stEvt:changed>
               </rdf:li>
               <rdf:li rdf:parseType="Resource">
                  <stEvt:action>saved</stEvt:action>
                  <stEvt:instanceID>xmp.iid:5AB8596EA561E51183FFCF4C6D87627D</stEvt:instanceID>
                  <stEvt:when>2015-09-22T23:48:16-05:00</stEvt:when>
                  <stEvt:softwareAgent>Adobe Audition CS6 (Windows)</stEvt:softwareAgent>
                  <stEvt:changed>/metadata</stEvt:changed>
               </rdf:li>
               <rdf:li rdf:parseType="Resource">
                  <stEvt:action>saved</stEvt:action>
                  <stEvt:instanceID>xmp.iid:6386124EAE61E51183FFCF4C6D87627D</stEvt:instanceID>
                  <stEvt:when>2015-09-22T23:48:16-05:00</stEvt:when>
                  <stEvt:softwareAgent>Adobe Audition CS6 (Windows)</stEvt:softwareAgent>
                  <stEvt:changed>/</stEvt:changed>
               </rdf:li>
               <rdf:li rdf:parseType="Resource">
                  <stEvt:action>saved</stEvt:action>
                  <stEvt:instanceID>xmp.iid:6686124EAE61E51183FFCF4C6D87627D</stEvt:instanceID>
                  <stEvt:when>2015-09-23T00:00:54-05:00</stEvt:when>
                  <stEvt:softwareAgent>Adobe Audition CS6 (Windows)</stEvt:softwareAgent>
                  <stEvt:changed>/metadata</stEvt:changed>
               </rdf:li>
               <rdf:li rdf:parseType="Resource">
                  <stEvt:action>saved</stEvt:action>
                  <stEvt:instanceID>xmp.iid:6786124EAE61E51183FFCF4C6D87627D</stEvt:instanceID>
                  <stEvt:when>2015-09-23T00:00:54-05:00</stEvt:when>
                  <stEvt:softwareAgent>Adobe Audition CS6 (Windows)</stEvt:softwareAgent>
                  <stEvt:changed>/</stEvt:changed>
               </rdf:li>
               <rdf:li rdf:parseType="Resource">
                  <stEvt:action>saved</stEvt:action>
                  <stEvt:instanceID>xmp.iid:7B6A6A95B061E511AF33A51962E969EC</stEvt:instanceID>
                  <stEvt:when>2015-09-23T00:04:37-05:00</stEvt:when>
                  <stEvt:softwareAgent>Adobe Audition CS6 (Windows)</stEvt:softwareAgent>
                  <stEvt:changed>/metadata</stEvt:changed>
               </rdf:li>
               <rdf:li rdf:parseType="Resource">
                  <stEvt:action>saved</stEvt:action>
                  <stEvt:instanceID>xmp.iid:7C6A6A95B061E511AF33A51962E969EC</stEvt:instanceID>
                  <stEvt:when>2015-09-23T00:04:37-05:00</stEvt:when>
                  <stEvt:softwareAgent>Adobe Audition CS6 (Windows)</stEvt:softwareAgent>
                  <stEvt:changed>/</stEvt:changed>
               </rdf:li>
               <rdf:li rdf:parseType="Resource">
                  <stEvt:action>saved</stEvt:action>
                  <stEvt:instanceID>xmp.iid:FAC0BAC4B061E511AF33A51962E969EC</stEvt:instanceID>
                  <stEvt:when>2015-09-23T00:06:24-05:00</stEvt:when>
                  <stEvt:softwareAgent>Adobe Audition CS6 (Windows)</stEvt:softwareAgent>
                  <stEvt:changed>/metadata</stEvt:changed>
               </rdf:li>
               <rdf:li rdf:parseType="Resource">
                  <stEvt:action>saved</stEvt:action>
                  <stEvt:instanceID>xmp.iid:FBC0BAC4B061E511AF33A51962E969EC</stEvt:instanceID>
                  <stEvt:when>2015-09-23T00:06:24-05:00</stEvt:when>
                  <stEvt:softwareAgent>Adobe Audition CS6 (Windows)</stEvt:softwareAgent>
                  <stEvt:changed>/</stEvt:changed>
               </rdf:li>
               <rdf:li rdf:parseType="Resource">
                  <stEvt:action>saved</stEvt:action>
                  <stEvt:instanceID>xmp.iid:FCC0BAC4B061E511AF33A51962E969EC</stEvt:instanceID>
                  <stEvt:when>2015-09-23T00:16:32-05:00</stEvt:when>
                  <stEvt:softwareAgent>Adobe Audition CS6 (Windows)</stEvt:softwareAgent>
                  <stEvt:changed>/metadata</stEvt:changed>
               </rdf:li>
               <rdf:li rdf:parseType="Resource">
                  <stEvt:action>saved</stEvt:action>
                  <stEvt:instanceID>xmp.iid:FDC0BAC4B061E511AF33A51962E969EC</stEvt:instanceID>
                  <stEvt:when>2015-09-23T00:16:32-05:00</stEvt:when>
                  <stEvt:softwareAgent>Adobe Audition CS6 (Windows)</stEvt:softwareAgent>
                  <stEvt:changed>/</stEvt:changed>
               </rdf:li>
               <rdf:li rdf:parseType="Resource">
                  <stEvt:action>saved</stEvt:action>
                  <stEvt:instanceID>xmp.iid:134B41B6B261E511AF33A51962E969EC</stEvt:instanceID>
                  <stEvt:when>2015-09-23T00:19:49-05:00</stEvt:when>
                  <stEvt:softwareAgent>Adobe Audition CS6 (Windows)</stEvt:softwareAgent>
                  <stEvt:changed>/metadata</stEvt:changed>
               </rdf:li>
               <rdf:li rdf:parseType="Resource">
                  <stEvt:action>saved</stEvt:action>
                  <stEvt:instanceID>xmp.iid:144B41B6B261E511AF33A51962E969EC</stEvt:instanceID>
                  <stEvt:when>2015-09-23T00:19:49-05:00</stEvt:when>
                  <stEvt:softwareAgent>Adobe Audition CS6 (Windows)</stEvt:softwareAgent>
                  <stEvt:changed>/</stEvt:changed>
               </rdf:li>
               <rdf:li rdf:parseType="Resource">
                  <stEvt:action>saved</stEvt:action>
                  <stEvt:instanceID>xmp.iid:89546CC47B69E511A5EEA9119F261670</stEvt:instanceID>
                  <stEvt:when>2015-10-02T22:06:44-05:00</stEvt:when>
                  <stEvt:softwareAgent>Adobe Audition CS6 (Windows)</stEvt:softwareAgent>
                  <stEvt:changed>/metadata</stEvt:changed>
               </rdf:li>
               <rdf:li rdf:parseType="Resource">
                  <stEvt:action>saved</stEvt:action>
                  <stEvt:instanceID>xmp.iid:8A546CC47B69E511A5EEA9119F261670</stEvt:instanceID>
                  <stEvt:when>2015-10-02T22:06:44-05:00</stEvt:when>
                  <stEvt:softwareAgent>Adobe Audition CS6 (Windows)</stEvt:softwareAgent>
                  <stEvt:changed>/</stEvt:changed>
               </rdf:li>
               <rdf:li rdf:parseType="Resource">
                  <stEvt:action>saved</stEvt:action>
                  <stEvt:instanceID>xmp.iid:7241E8BD7C69E511A5EEA9119F261670</stEvt:instanceID>
                  <stEvt:when>2015-10-02T22:13:38-05:00</stEvt:when>
                  <stEvt:softwareAgent>Adobe Audition CS6 (Windows)</stEvt:softwareAgent>
                  <stEvt:changed>/metadata</stEvt:changed>
               </rdf:li>
               <rdf:li rdf:parseType="Resource">
                  <stEvt:action>saved</stEvt:action>
                  <stEvt:instanceID>xmp.iid:7341E8BD7C69E511A5EEA9119F261670</stEvt:instanceID>
                  <stEvt:when>2015-10-02T22:13:38-05:00</stEvt:when>
                  <stEvt:softwareAgent>Adobe Audition CS6 (Windows)</stEvt:softwareAgent>
                  <stEvt:changed>/</stEvt:changed>
               </rdf:li>
               <rdf:li rdf:parseType="Resource">
                  <stEvt:action>saved</stEvt:action>
                  <stEvt:instanceID>xmp.iid:7841E8BD7C69E511A5EEA9119F261670</stEvt:instanceID>
                  <stEvt:when>2015-10-02T22:21:22-05:00</stEvt:when>
                  <stEvt:softwareAgent>Adobe Audition CS6 (Windows)</stEvt:softwareAgent>
                  <stEvt:changed>/metadata</stEvt:changed>
               </rdf:li>
               <rdf:li rdf:parseType="Resource">
                  <stEvt:action>saved</stEvt:action>
                  <stEvt:instanceID>xmp.iid:7941E8BD7C69E511A5EEA9119F261670</stEvt:instanceID>
                  <stEvt:when>2015-10-02T22:21:22-05:00</stEvt:when>
                  <stEvt:softwareAgent>Adobe Audition CS6 (Windows)</stEvt:softwareAgent>
                  <stEvt:changed>/</stEvt:changed>
               </rdf:li>
               <rdf:li rdf:parseType="Resource">
                  <stEvt:action>saved</stEvt:action>
                  <stEvt:instanceID>xmp.iid:7A41E8BD7C69E511A5EEA9119F261670</stEvt:instanceID>
                  <stEvt:when>2015-10-02T22:31:46-05:00</stEvt:when>
                  <stEvt:softwareAgent>Adobe Audition CS6 (Windows)</stEvt:softwareAgent>
                  <stEvt:changed>/metadata</stEvt:changed>
               </rdf:li>
               <rdf:li rdf:parseType="Resource">
                  <stEvt:action>saved</stEvt:action>
                  <stEvt:instanceID>xmp.iid:7B41E8BD7C69E511A5EEA9119F261670</stEvt:instanceID>
                  <stEvt:when>2015-10-02T22:31:46-05:00</stEvt:when>
                  <stEvt:softwareAgent>Adobe Audition CS6 (Windows)</stEvt:softwareAgent>
                  <stEvt:changed>/</stEvt:changed>
               </rdf:li>
               <rdf:li rdf:parseType="Resource">
                  <stEvt:action>saved</stEvt:action>
                  <stEvt:instanceID>xmp.iid:388865737F69E511A5EEA9119F261670</stEvt:instanceID>
                  <stEvt:when>2015-10-02T22:33:02-05:00</stEvt:when>
                  <stEvt:softwareAgent>Adobe Audition CS6 (Windows)</stEvt:softwareAgent>
                  <stEvt:changed>/metadata</stEvt:changed>
               </rdf:li>
               <rdf:li rdf:parseType="Resource">
                  <stEvt:action>saved</stEvt:action>
                  <stEvt:instanceID>xmp.iid:398865737F69E511A5EEA9119F261670</stEvt:instanceID>
                  <stEvt:when>2015-10-02T22:33:02-05:00</stEvt:when>
                  <stEvt:softwareAgent>Adobe Audition CS6 (Windows)</stEvt:softwareAgent>
                  <stEvt:changed>/</stEvt:changed>
               </rdf:li>
               <rdf:li rdf:parseType="Resource">
                  <stEvt:action>saved</stEvt:action>
                  <stEvt:instanceID>xmp.iid:3C8865737F69E511A5EEA9119F261670</stEvt:instanceID>
                  <stEvt:when>2015-10-02T22:34:43-05:00</stEvt:when>
                  <stEvt:softwareAgent>Adobe Audition CS6 (Windows)</stEvt:softwareAgent>
                  <stEvt:changed>/metadata</stEvt:changed>
               </rdf:li>
               <rdf:li rdf:parseType="Resource">
                  <stEvt:action>saved</stEvt:action>
                  <stEvt:instanceID>xmp.iid:3D8865737F69E511A5EEA9119F261670</stEvt:instanceID>
                  <stEvt:when>2015-10-02T22:34:43-05:00</stEvt:when>
                  <stEvt:softwareAgent>Adobe Audition CS6 (Windows)</stEvt:softwareAgent>
                  <stEvt:changed>/</stEvt:changed>
               </rdf:li>
               <rdf:li rdf:parseType="Resource">
                  <stEvt:action>saved</stEvt:action>
                  <stEvt:instanceID>xmp.iid:3B020B438069E511A5EEA9119F261670</stEvt:instanceID>
                  <stEvt:when>2015-10-02T22:38:50-05:00</stEvt:when>
                  <stEvt:softwareAgent>Adobe Audition CS6 (Windows)</stEvt:softwareAgent>
                  <stEvt:changed>/metadata</stEvt:changed>
               </rdf:li>
               <rdf:li rdf:parseType="Resource">
                  <stEvt:action>saved</stEvt:action>
                  <stEvt:instanceID>xmp.iid:3C020B438069E511A5EEA9119F261670</stEvt:instanceID>
                  <stEvt:when>2015-10-02T22:38:50-05:00</stEvt:when>
                  <stEvt:softwareAgent>Adobe Audition CS6 (Windows)</stEvt:softwareAgent>
                  <stEvt:changed>/</stEvt:changed>
               </rdf:li>
               <rdf:li rdf:parseType="Resource">
                  <stEvt:action>saved</stEvt:action>
                  <stEvt:instanceID>xmp.iid:3F020B438069E511A5EEA9119F261670</stEvt:instanceID>
                  <stEvt:when>2015-10-02T22:45:10-05:00</stEvt:when>
                  <stEvt:softwareAgent>Adobe Audition CS6 (Windows)</stEvt:softwareAgent>
                  <stEvt:changed>/metadata</stEvt:changed>
               </rdf:li>
               <rdf:li rdf:parseType="Resource">
                  <stEvt:action>saved</stEvt:action>
                  <stEvt:instanceID>xmp.iid:40020B438069E511A5EEA9119F261670</stEvt:instanceID>
                  <stEvt:when>2015-10-02T22:45:10-05:00</stEvt:when>
                  <stEvt:softwareAgent>Adobe Audition CS6 (Windows)</stEvt:softwareAgent>
                  <stEvt:changed>/</stEvt:changed>
               </rdf:li>
               <rdf:li rdf:parseType="Resource">
                  <stEvt:action>saved</stEvt:action>
                  <stEvt:instanceID>xmp.iid:43020B438069E511A5EEA9119F261670</stEvt:instanceID>
                  <stEvt:when>2015-10-02T22:49:34-05:00</stEvt:when>
                  <stEvt:softwareAgent>Adobe Audition CS6 (Windows)</stEvt:softwareAgent>
                  <stEvt:changed>/metadata</stEvt:changed>
               </rdf:li>
               <rdf:li rdf:parseType="Resource">
                  <stEvt:action>saved</stEvt:action>
                  <stEvt:instanceID>xmp.iid:44020B438069E511A5EEA9119F261670</stEvt:instanceID>
                  <stEvt:when>2015-10-02T22:49:34-05:00</stEvt:when>
                  <stEvt:softwareAgent>Adobe Audition CS6 (Windows)</stEvt:softwareAgent>
                  <stEvt:changed>/</stEvt:changed>
               </rdf:li>
               <rdf:li rdf:parseType="Resource">
                  <stEvt:action>saved</stEvt:action>
                  <stEvt:instanceID>xmp.iid:45020B438069E511A5EEA9119F261670</stEvt:instanceID>
                  <stEvt:when>2015-10-02T23:00:17-05:00</stEvt:when>
                  <stEvt:softwareAgent>Adobe Audition CS6 (Windows)</stEvt:softwareAgent>
                  <stEvt:changed>/metadata</stEvt:changed>
               </rdf:li>
               <rdf:li rdf:parseType="Resource">
                  <stEvt:action>saved</stEvt:action>
                  <stEvt:instanceID>xmp.iid:F1CFEC418369E511A5EEA9119F261670</stEvt:instanceID>
                  <stEvt:when>2015-10-02T23:00:17-05:00</stEvt:when>
                  <stEvt:softwareAgent>Adobe Audition CS6 (Windows)</stEvt:softwareAgent>
                  <stEvt:changed>/</stEvt:changed>
               </rdf:li>
               <rdf:li rdf:parseType="Resource">
                  <stEvt:action>saved</stEvt:action>
                  <stEvt:instanceID>xmp.iid:F6CFEC418369E511A5EEA9119F261670</stEvt:instanceID>
                  <stEvt:when>2015-10-02T23:23:53-05:00</stEvt:when>
                  <stEvt:softwareAgent>Adobe Audition CS6 (Windows)</stEvt:softwareAgent>
                  <stEvt:changed>/metadata</stEvt:changed>
               </rdf:li>
               <rdf:li rdf:parseType="Resource">
                  <stEvt:action>saved</stEvt:action>
                  <stEvt:instanceID>xmp.iid:F7CFEC418369E511A5EEA9119F261670</stEvt:instanceID>
                  <stEvt:when>2015-10-02T23:23:53-05:00</stEvt:when>
                  <stEvt:softwareAgent>Adobe Audition CS6 (Windows)</stEvt:softwareAgent>
                  <stEvt:changed>/</stEvt:changed>
               </rdf:li>
               <rdf:li rdf:parseType="Resource">
                  <stEvt:action>saved</stEvt:action>
                  <stEvt:instanceID>xmp.iid:FACFEC418369E511A5EEA9119F261670</stEvt:instanceID>
                  <stEvt:when>2015-10-02T23:25:17-05:00</stEvt:when>
                  <stEvt:softwareAgent>Adobe Audition CS6 (Windows)</stEvt:softwareAgent>
                  <stEvt:changed>/metadata</stEvt:changed>
               </rdf:li>
               <rdf:li rdf:parseType="Resource">
                  <stEvt:action>saved</stEvt:action>
                  <stEvt:instanceID>xmp.iid:FBCFEC418369E511A5EEA9119F261670</stEvt:instanceID>
                  <stEvt:when>2015-10-02T23:25:17-05:00</stEvt:when>
                  <stEvt:softwareAgent>Adobe Audition CS6 (Windows)</stEvt:softwareAgent>
                  <stEvt:changed>/</stEvt:changed>
               </rdf:li>
               <rdf:li rdf:parseType="Resource">
                  <stEvt:action>saved</stEvt:action>
                  <stEvt:instanceID>xmp.iid:4267ED408D69E511AF70D0FFC78C5AD2</stEvt:instanceID>
                  <stEvt:when>2015-10-03T00:12-05:00</stEvt:when>
                  <stEvt:softwareAgent>Adobe Audition CS6 (Windows)</stEvt:softwareAgent>
                  <stEvt:changed>/metadata</stEvt:changed>
               </rdf:li>
               <rdf:li rdf:parseType="Resource">
                  <stEvt:action>saved</stEvt:action>
                  <stEvt:instanceID>xmp.iid:4367ED408D69E511AF70D0FFC78C5AD2</stEvt:instanceID>
                  <stEvt:when>2015-10-03T00:12-05:00</stEvt:when>
                  <stEvt:softwareAgent>Adobe Audition CS6 (Windows)</stEvt:softwareAgent>
                  <stEvt:changed>/</stEvt:changed>
               </rdf:li>
               <rdf:li rdf:parseType="Resource">
                  <stEvt:action>saved</stEvt:action>
                  <stEvt:instanceID>xmp.iid:6B409C618D69E511AF70D0FFC78C5AD2</stEvt:instanceID>
                  <stEvt:when>2015-10-03T01:08:10-05:00</stEvt:when>
                  <stEvt:softwareAgent>Adobe Audition CS6 (Windows)</stEvt:softwareAgent>
                  <stEvt:changed>/metadata</stEvt:changed>
               </rdf:li>
               <rdf:li rdf:parseType="Resource">
                  <stEvt:action>saved</stEvt:action>
                  <stEvt:instanceID>xmp.iid:6C409C618D69E511AF70D0FFC78C5AD2</stEvt:instanceID>
                  <stEvt:when>2015-10-03T01:08:10-05:00</stEvt:when>
                  <stEvt:softwareAgent>Adobe Audition CS6 (Windows)</stEvt:softwareAgent>
                  <stEvt:changed>/</stEvt:changed>
               </rdf:li>
               <rdf:li rdf:parseType="Resource">
                  <stEvt:action>saved</stEvt:action>
                  <stEvt:instanceID>xmp.iid:D6AB35960F6BE511B431EC31C3002C7B</stEvt:instanceID>
                  <stEvt:when>2015-10-04T22:17:31-05:00</stEvt:when>
                  <stEvt:softwareAgent>Adobe Audition CS6 (Windows)</stEvt:softwareAgent>
                  <stEvt:changed>/metadata</stEvt:changed>
               </rdf:li>
               <rdf:li rdf:parseType="Resource">
                  <stEvt:action>saved</stEvt:action>
                  <stEvt:instanceID>xmp.iid:D7AB35960F6BE511B431EC31C3002C7B</stEvt:instanceID>
                  <stEvt:when>2015-10-04T22:17:31-05:00</stEvt:when>
                  <stEvt:softwareAgent>Adobe Audition CS6 (Windows)</stEvt:softwareAgent>
                  <stEvt:changed>/</stEvt:changed>
               </rdf:li>
               <rdf:li rdf:parseType="Resource">
                  <stEvt:action>saved</stEvt:action>
                  <stEvt:instanceID>xmp.iid:6E9B8A9C106BE511B431EC31C3002C7B</stEvt:instanceID>
                  <stEvt:when>2015-10-04T22:24:39-05:00</stEvt:when>
                  <stEvt:softwareAgent>Adobe Audition CS6 (Windows)</stEvt:softwareAgent>
                  <stEvt:changed>/metadata</stEvt:changed>
               </rdf:li>
               <rdf:li rdf:parseType="Resource">
                  <stEvt:action>saved</stEvt:action>
                  <stEvt:instanceID>xmp.iid:6F9B8A9C106BE511B431EC31C3002C7B</stEvt:instanceID>
                  <stEvt:when>2015-10-04T22:24:39-05:00</stEvt:when>
                  <stEvt:softwareAgent>Adobe Audition CS6 (Windows)</stEvt:softwareAgent>
                  <stEvt:changed>/</stEvt:changed>
               </rdf:li>
               <rdf:li rdf:parseType="Resource">
                  <stEvt:action>saved</stEvt:action>
                  <stEvt:instanceID>xmp.iid:5B9CE095116BE511BA889D9547254040</stEvt:instanceID>
                  <stEvt:when>2015-10-04T22:31:42-05:00</stEvt:when>
                  <stEvt:softwareAgent>Adobe Audition CS6 (Windows)</stEvt:softwareAgent>
                  <stEvt:changed>/metadata</stEvt:changed>
               </rdf:li>
               <rdf:li rdf:parseType="Resource">
                  <stEvt:action>saved</stEvt:action>
                  <stEvt:instanceID>xmp.iid:5C9CE095116BE511BA889D9547254040</stEvt:instanceID>
                  <stEvt:when>2015-10-04T22:31:42-05:00</stEvt:when>
                  <stEvt:softwareAgent>Adobe Audition CS6 (Windows)</stEvt:softwareAgent>
                  <stEvt:changed>/</stEvt:changed>
               </rdf:li>
               <rdf:li rdf:parseType="Resource">
                  <stEvt:action>saved</stEvt:action>
                  <stEvt:instanceID>xmp.iid:E1755002136BE511BA889D9547254040</stEvt:instanceID>
                  <stEvt:when>2015-10-04T22:41:49-05:00</stEvt:when>
                  <stEvt:softwareAgent>Adobe Audition CS6 (Windows)</stEvt:softwareAgent>
                  <stEvt:changed>/metadata</stEvt:changed>
               </rdf:li>
               <rdf:li rdf:parseType="Resource">
                  <stEvt:action>saved</stEvt:action>
                  <stEvt:instanceID>xmp.iid:E2755002136BE511BA889D9547254040</stEvt:instanceID>
                  <stEvt:when>2015-10-04T22:41:49-05:00</stEvt:when>
                  <stEvt:softwareAgent>Adobe Audition CS6 (Windows)</stEvt:softwareAgent>
                  <stEvt:changed>/</stEvt:changed>
               </rdf:li>
               <rdf:li rdf:parseType="Resource">
                  <stEvt:action>saved</stEvt:action>
                  <stEvt:instanceID>xmp.iid:E7755002136BE511BA889D9547254040</stEvt:instanceID>
                  <stEvt:when>2015-10-04T22:51:49-05:00</stEvt:when>
                  <stEvt:softwareAgent>Adobe Audition CS6 (Windows)</stEvt:softwareAgent>
                  <stEvt:changed>/metadata</stEvt:changed>
               </rdf:li>
               <rdf:li rdf:parseType="Resource">
                  <stEvt:action>saved</stEvt:action>
                  <stEvt:instanceID>xmp.iid:E8755002136BE511BA889D9547254040</stEvt:instanceID>
                  <stEvt:when>2015-10-04T22:51:49-05:00</stEvt:when>
                  <stEvt:softwareAgent>Adobe Audition CS6 (Windows)</stEvt:softwareAgent>
                  <stEvt:changed>/</stEvt:changed>
               </rdf:li>
               <rdf:li rdf:parseType="Resource">
                  <stEvt:action>saved</stEvt:action>
                  <stEvt:instanceID>xmp.iid:EB755002136BE511BA889D9547254040</stEvt:instanceID>
                  <stEvt:when>2015-10-04T23:00:42-05:00</stEvt:when>
                  <stEvt:softwareAgent>Adobe Audition CS6 (Windows)</stEvt:softwareAgent>
                  <stEvt:changed>/metadata</stEvt:changed>
               </rdf:li>
               <rdf:li rdf:parseType="Resource">
                  <stEvt:action>saved</stEvt:action>
                  <stEvt:instanceID>xmp.iid:D494EBA5156BE511BA889D9547254040</stEvt:instanceID>
                  <stEvt:when>2015-10-04T23:00:42-05:00</stEvt:when>
                  <stEvt:softwareAgent>Adobe Audition CS6 (Windows)</stEvt:softwareAgent>
                  <stEvt:changed>/</stEvt:changed>
               </rdf:li>
               <rdf:li rdf:parseType="Resource">
                  <stEvt:action>saved</stEvt:action>
                  <stEvt:instanceID>xmp.iid:D594EBA5156BE511BA889D9547254040</stEvt:instanceID>
                  <stEvt:when>2015-10-04T23:03:24-05:00</stEvt:when>
                  <stEvt:softwareAgent>Adobe Audition CS6 (Windows)</stEvt:softwareAgent>
                  <stEvt:changed>/metadata</stEvt:changed>
               </rdf:li>
               <rdf:li rdf:parseType="Resource">
                  <stEvt:action>saved</stEvt:action>
                  <stEvt:instanceID>xmp.iid:D694EBA5156BE511BA889D9547254040</stEvt:instanceID>
                  <stEvt:when>2015-10-04T23:03:24-05:00</stEvt:when>
                  <stEvt:softwareAgent>Adobe Audition CS6 (Windows)</stEvt:softwareAgent>
                  <stEvt:changed>/</stEvt:changed>
               </rdf:li>
               <rdf:li rdf:parseType="Resource">
                  <stEvt:action>saved</stEvt:action>
                  <stEvt:instanceID>xmp.iid:D994EBA5156BE511BA889D9547254040</stEvt:instanceID>
                  <stEvt:when>2015-10-04T23:14:20-05:00</stEvt:when>
                  <stEvt:softwareAgent>Adobe Audition CS6 (Windows)</stEvt:softwareAgent>
                  <stEvt:changed>/metadata</stEvt:changed>
               </rdf:li>
               <rdf:li rdf:parseType="Resource">
                  <stEvt:action>saved</stEvt:action>
                  <stEvt:instanceID>xmp.iid:DA94EBA5156BE511BA889D9547254040</stEvt:instanceID>
                  <stEvt:when>2015-10-04T23:14:20-05:00</stEvt:when>
                  <stEvt:softwareAgent>Adobe Audition CS6 (Windows)</stEvt:softwareAgent>
                  <stEvt:changed>/</stEvt:changed>
               </rdf:li>
               <rdf:li rdf:parseType="Resource">
                  <stEvt:action>saved</stEvt:action>
                  <stEvt:instanceID>xmp.iid:DB94EBA5156BE511BA889D9547254040</stEvt:instanceID>
                  <stEvt:when>2015-10-04T23:24:51-05:00</stEvt:when>
                  <stEvt:softwareAgent>Adobe Audition CS6 (Windows)</stEvt:softwareAgent>
                  <stEvt:changed>/metadata</stEvt:changed>
               </rdf:li>
               <rdf:li rdf:parseType="Resource">
                  <stEvt:action>saved</stEvt:action>
                  <stEvt:instanceID>xmp.iid:DC94EBA5156BE511BA889D9547254040</stEvt:instanceID>
                  <stEvt:when>2015-10-04T23:24:51-05:00</stEvt:when>
                  <stEvt:softwareAgent>Adobe Audition CS6 (Windows)</stEvt:softwareAgent>
                  <stEvt:changed>/</stEvt:changed>
               </rdf:li>
               <rdf:li rdf:parseType="Resource">
                  <stEvt:action>saved</stEvt:action>
                  <stEvt:instanceID>xmp.iid:A3A06AB2196BE511BA889D9547254040</stEvt:instanceID>
                  <stEvt:when>2015-10-04T23:33:28-05:00</stEvt:when>
                  <stEvt:softwareAgent>Adobe Audition CS6 (Windows)</stEvt:softwareAgent>
                  <stEvt:changed>/metadata</stEvt:changed>
               </rdf:li>
               <rdf:li rdf:parseType="Resource">
                  <stEvt:action>saved</stEvt:action>
                  <stEvt:instanceID>xmp.iid:A4A06AB2196BE511BA889D9547254040</stEvt:instanceID>
                  <stEvt:when>2015-10-04T23:33:28-05:00</stEvt:when>
                  <stEvt:softwareAgent>Adobe Audition CS6 (Windows)</stEvt:softwareAgent>
                  <stEvt:changed>/</stEvt:changed>
               </rdf:li>
               <rdf:li rdf:parseType="Resource">
                  <stEvt:action>saved</stEvt:action>
                  <stEvt:instanceID>xmp.iid:0401D8681B6BE511BA889D9547254040</stEvt:instanceID>
                  <stEvt:when>2015-10-04T23:42:34-05:00</stEvt:when>
                  <stEvt:softwareAgent>Adobe Audition CS6 (Windows)</stEvt:softwareAgent>
                  <stEvt:changed>/metadata</stEvt:changed>
               </rdf:li>
               <rdf:li rdf:parseType="Resource">
                  <stEvt:action>saved</stEvt:action>
                  <stEvt:instanceID>xmp.iid:0501D8681B6BE511BA889D9547254040</stEvt:instanceID>
                  <stEvt:when>2015-10-04T23:42:34-05:00</stEvt:when>
                  <stEvt:softwareAgent>Adobe Audition CS6 (Windows)</stEvt:softwareAgent>
                  <stEvt:changed>/</stEvt:changed>
               </rdf:li>
               <rdf:li rdf:parseType="Resource">
                  <stEvt:action>saved</stEvt:action>
                  <stEvt:instanceID>xmp.iid:0601D8681B6BE511BA889D9547254040</stEvt:instanceID>
                  <stEvt:when>2015-10-04T23:47:26-05:00</stEvt:when>
                  <stEvt:softwareAgent>Adobe Audition CS6 (Windows)</stEvt:softwareAgent>
                  <stEvt:changed>/metadata</stEvt:changed>
               </rdf:li>
               <rdf:li rdf:parseType="Resource">
                  <stEvt:action>saved</stEvt:action>
                  <stEvt:instanceID>xmp.iid:0701D8681B6BE511BA889D9547254040</stEvt:instanceID>
                  <stEvt:when>2015-10-04T23:47:26-05:00</stEvt:when>
                  <stEvt:softwareAgent>Adobe Audition CS6 (Windows)</stEvt:softwareAgent>
                  <stEvt:changed>/</stEvt:changed>
               </rdf:li>
               <rdf:li rdf:parseType="Resource">
                  <stEvt:action>saved</stEvt:action>
                  <stEvt:instanceID>xmp.iid:0801D8681B6BE511BA889D9547254040</stEvt:instanceID>
                  <stEvt:when>2015-10-04T23:49:16-05:00</stEvt:when>
                  <stEvt:softwareAgent>Adobe Audition CS6 (Windows)</stEvt:softwareAgent>
                  <stEvt:changed>/metadata</stEvt:changed>
               </rdf:li>
               <rdf:li rdf:parseType="Resource">
                  <stEvt:action>saved</stEvt:action>
                  <stEvt:instanceID>xmp.iid:0901D8681B6BE511BA889D9547254040</stEvt:instanceID>
                  <stEvt:when>2015-10-04T23:49:16-05:00</stEvt:when>
                  <stEvt:softwareAgent>Adobe Audition CS6 (Windows)</stEvt:softwareAgent>
                  <stEvt:changed>/</stEvt:changed>
               </rdf:li>
               <rdf:li rdf:parseType="Resource">
                  <stEvt:action>saved</stEvt:action>
                  <stEvt:instanceID>xmp.iid:CA69C9D41C6BE511BA889D9547254040</stEvt:instanceID>
                  <stEvt:when>2015-10-04T23:52:07-05:00</stEvt:when>
                  <stEvt:softwareAgent>Adobe Audition CS6 (Windows)</stEvt:softwareAgent>
                  <stEvt:changed>/metadata</stEvt:changed>
               </rdf:li>
               <rdf:li rdf:parseType="Resource">
                  <stEvt:action>saved</stEvt:action>
                  <stEvt:instanceID>xmp.iid:CB69C9D41C6BE511BA889D9547254040</stEvt:instanceID>
                  <stEvt:when>2015-10-04T23:52:07-05:00</stEvt:when>
                  <stEvt:softwareAgent>Adobe Audition CS6 (Windows)</stEvt:softwareAgent>
                  <stEvt:changed>/</stEvt:changed>
               </rdf:li>
               <rdf:li rdf:parseType="Resource">
                  <stEvt:action>saved</stEvt:action>
                  <stEvt:instanceID>xmp.iid:CE69C9D41C6BE511BA889D9547254040</stEvt:instanceID>
                  <stEvt:when>2015-10-04T23:53:15-05:00</stEvt:when>
                  <stEvt:softwareAgent>Adobe Audition CS6 (Windows)</stEvt:softwareAgent>
                  <stEvt:changed>/metadata</stEvt:changed>
               </rdf:li>
               <rdf:li rdf:parseType="Resource">
                  <stEvt:action>saved</stEvt:action>
                  <stEvt:instanceID>xmp.iid:CF69C9D41C6BE511BA889D9547254040</stEvt:instanceID>
                  <stEvt:when>2015-10-04T23:53:15-05:00</stEvt:when>
                  <stEvt:softwareAgent>Adobe Audition CS6 (Windows)</stEvt:softwareAgent>
                  <stEvt:changed>/</stEvt:changed>
               </rdf:li>
               <rdf:li rdf:parseType="Resource">
                  <stEvt:action>saved</stEvt:action>
                  <stEvt:instanceID>xmp.iid:D069C9D41C6BE511BA889D9547254040</stEvt:instanceID>
                  <stEvt:when>2015-10-04T23:55:47-05:00</stEvt:when>
                  <stEvt:softwareAgent>Adobe Audition CS6 (Windows)</stEvt:softwareAgent>
                  <stEvt:changed>/metadata</stEvt:changed>
               </rdf:li>
               <rdf:li rdf:parseType="Resource">
                  <stEvt:action>saved</stEvt:action>
                  <stEvt:instanceID>xmp.iid:D169C9D41C6BE511BA889D9547254040</stEvt:instanceID>
                  <stEvt:when>2015-10-04T23:55:47-05:00</stEvt:when>
                  <stEvt:softwareAgent>Adobe Audition CS6 (Windows)</stEvt:softwareAgent>
                  <stEvt:changed>/</stEvt:changed>
               </rdf:li>
               <rdf:li rdf:parseType="Resource">
                  <stEvt:action>saved</stEvt:action>
                  <stEvt:instanceID>xmp.iid:D269C9D41C6BE511BA889D9547254040</stEvt:instanceID>
                  <stEvt:when>2015-10-04T23:59:46-05:00</stEvt:when>
                  <stEvt:softwareAgent>Adobe Audition CS6 (Windows)</stEvt:softwareAgent>
                  <stEvt:changed>/metadata</stEvt:changed>
               </rdf:li>
               <rdf:li rdf:parseType="Resource">
                  <stEvt:action>saved</stEvt:action>
                  <stEvt:instanceID>xmp.iid:D369C9D41C6BE511BA889D9547254040</stEvt:instanceID>
                  <stEvt:when>2015-10-04T23:59:46-05:00</stEvt:when>
                  <stEvt:softwareAgent>Adobe Audition CS6 (Windows)</stEvt:softwareAgent>
                  <stEvt:changed>/</stEvt:changed>
               </rdf:li>
               <rdf:li rdf:parseType="Resource">
                  <stEvt:action>saved</stEvt:action>
                  <stEvt:instanceID>xmp.iid:0E17E2C46A6DE511B6D1CF627C938884</stEvt:instanceID>
                  <stEvt:when>2015-10-07T22:15:13-05:00</stEvt:when>
                  <stEvt:softwareAgent>Adobe Audition CS6 (Windows)</stEvt:softwareAgent>
                  <stEvt:changed>/metadata</stEvt:changed>
               </rdf:li>
               <rdf:li rdf:parseType="Resource">
                  <stEvt:action>saved</stEvt:action>
                  <stEvt:instanceID>xmp.iid:0F17E2C46A6DE511B6D1CF627C938884</stEvt:instanceID>
                  <stEvt:when>2015-10-07T22:15:13-05:00</stEvt:when>
                  <stEvt:softwareAgent>Adobe Audition CS6 (Windows)</stEvt:softwareAgent>
                  <stEvt:changed>/</stEvt:changed>
               </rdf:li>
               <rdf:li rdf:parseType="Resource">
                  <stEvt:action>saved</stEvt:action>
                  <stEvt:instanceID>xmp.iid:2FABD9596C6DE511B6D1CF627C938884</stEvt:instanceID>
                  <stEvt:when>2015-10-07T22:26:23-05:00</stEvt:when>
                  <stEvt:softwareAgent>Adobe Audition CS6 (Windows)</stEvt:softwareAgent>
                  <stEvt:changed>/metadata</stEvt:changed>
               </rdf:li>
               <rdf:li rdf:parseType="Resource">
                  <stEvt:action>saved</stEvt:action>
                  <stEvt:instanceID>xmp.iid:30ABD9596C6DE511B6D1CF627C938884</stEvt:instanceID>
                  <stEvt:when>2015-10-07T22:26:23-05:00</stEvt:when>
                  <stEvt:softwareAgent>Adobe Audition CS6 (Windows)</stEvt:softwareAgent>
                  <stEvt:changed>/</stEvt:changed>
               </rdf:li>
               <rdf:li rdf:parseType="Resource">
                  <stEvt:action>saved</stEvt:action>
                  <stEvt:instanceID>xmp.iid:33ABD9596C6DE511B6D1CF627C938884</stEvt:instanceID>
                  <stEvt:when>2015-10-07T22:26:30-05:00</stEvt:when>
                  <stEvt:softwareAgent>Adobe Audition CS6 (Windows)</stEvt:softwareAgent>
                  <stEvt:changed>/metadata</stEvt:changed>
               </rdf:li>
               <rdf:li rdf:parseType="Resource">
                  <stEvt:action>saved</stEvt:action>
                  <stEvt:instanceID>xmp.iid:34ABD9596C6DE511B6D1CF627C938884</stEvt:instanceID>
                  <stEvt:when>2015-10-07T22:26:30-05:00</stEvt:when>
                  <stEvt:softwareAgent>Adobe Audition CS6 (Windows)</stEvt:softwareAgent>
                  <stEvt:changed>/</stEvt:changed>
               </rdf:li>
               <rdf:li rdf:parseType="Resource">
                  <stEvt:action>saved</stEvt:action>
                  <stEvt:instanceID>xmp.iid:35ABD9596C6DE511B6D1CF627C938884</stEvt:instanceID>
                  <stEvt:when>2015-10-07T22:28:56-05:00</stEvt:when>
                  <stEvt:softwareAgent>Adobe Audition CS6 (Windows)</stEvt:softwareAgent>
                  <stEvt:changed>/metadata</stEvt:changed>
               </rdf:li>
               <rdf:li rdf:parseType="Resource">
                  <stEvt:action>saved</stEvt:action>
                  <stEvt:instanceID>xmp.iid:36ABD9596C6DE511B6D1CF627C938884</stEvt:instanceID>
                  <stEvt:when>2015-10-07T22:28:56-05:00</stEvt:when>
                  <stEvt:softwareAgent>Adobe Audition CS6 (Windows)</stEvt:softwareAgent>
                  <stEvt:changed>/</stEvt:changed>
               </rdf:li>
               <rdf:li rdf:parseType="Resource">
                  <stEvt:action>saved</stEvt:action>
                  <stEvt:instanceID>xmp.iid:37ABD9596C6DE511B6D1CF627C938884</stEvt:instanceID>
                  <stEvt:when>2015-10-07T22:41:53-05:00</stEvt:when>
                  <stEvt:softwareAgent>Adobe Audition CS6 (Windows)</stEvt:softwareAgent>
                  <stEvt:changed>/metadata</stEvt:changed>
               </rdf:li>
               <rdf:li rdf:parseType="Resource">
                  <stEvt:action>saved</stEvt:action>
                  <stEvt:instanceID>xmp.iid:38ABD9596C6DE511B6D1CF627C938884</stEvt:instanceID>
                  <stEvt:when>2015-10-07T22:41:53-05:00</stEvt:when>
                  <stEvt:softwareAgent>Adobe Audition CS6 (Windows)</stEvt:softwareAgent>
                  <stEvt:changed>/</stEvt:changed>
               </rdf:li>
               <rdf:li rdf:parseType="Resource">
                  <stEvt:action>saved</stEvt:action>
                  <stEvt:instanceID>xmp.iid:2C4C8E9B6E6DE511B6D1CF627C938884</stEvt:instanceID>
                  <stEvt:when>2015-10-07T22:42:32-05:00</stEvt:when>
                  <stEvt:softwareAgent>Adobe Audition CS6 (Windows)</stEvt:softwareAgent>
                  <stEvt:changed>/metadata</stEvt:changed>
               </rdf:li>
               <rdf:li rdf:parseType="Resource">
                  <stEvt:action>saved</stEvt:action>
                  <stEvt:instanceID>xmp.iid:2D4C8E9B6E6DE511B6D1CF627C938884</stEvt:instanceID>
                  <stEvt:when>2015-10-07T22:42:32-05:00</stEvt:when>
                  <stEvt:softwareAgent>Adobe Audition CS6 (Windows)</stEvt:softwareAgent>
                  <stEvt:changed>/</stEvt:changed>
               </rdf:li>
               <rdf:li rdf:parseType="Resource">
                  <stEvt:action>saved</stEvt:action>
                  <stEvt:instanceID>xmp.iid:2E4C8E9B6E6DE511B6D1CF627C938884</stEvt:instanceID>
                  <stEvt:when>2015-10-07T22:53:23-05:00</stEvt:when>
                  <stEvt:softwareAgent>Adobe Audition CS6 (Windows)</stEvt:softwareAgent>
                  <stEvt:changed>/metadata</stEvt:changed>
               </rdf:li>
               <rdf:li rdf:parseType="Resource">
                  <stEvt:action>saved</stEvt:action>
                  <stEvt:instanceID>xmp.iid:2F4C8E9B6E6DE511B6D1CF627C938884</stEvt:instanceID>
                  <stEvt:when>2015-10-07T22:53:23-05:00</stEvt:when>
                  <stEvt:softwareAgent>Adobe Audition CS6 (Windows)</stEvt:softwareAgent>
                  <stEvt:changed>/</stEvt:changed>
               </rdf:li>
               <rdf:li rdf:parseType="Resource">
                  <stEvt:action>saved</stEvt:action>
                  <stEvt:instanceID>xmp.iid:304C8E9B6E6DE511B6D1CF627C938884</stEvt:instanceID>
                  <stEvt:when>2015-10-07T23:03:54-05:00</stEvt:when>
                  <stEvt:softwareAgent>Adobe Audition CS6 (Windows)</stEvt:softwareAgent>
                  <stEvt:changed>/metadata</stEvt:changed>
               </rdf:li>
               <rdf:li rdf:parseType="Resource">
                  <stEvt:action>saved</stEvt:action>
                  <stEvt:instanceID>xmp.iid:314C8E9B6E6DE511B6D1CF627C938884</stEvt:instanceID>
                  <stEvt:when>2015-10-07T23:03:54-05:00</stEvt:when>
                  <stEvt:softwareAgent>Adobe Audition CS6 (Windows)</stEvt:softwareAgent>
                  <stEvt:changed>/</stEvt:changed>
               </rdf:li>
               <rdf:li rdf:parseType="Resource">
                  <stEvt:action>saved</stEvt:action>
                  <stEvt:instanceID>xmp.iid:324C8E9B6E6DE511B6D1CF627C938884</stEvt:instanceID>
                  <stEvt:when>2015-10-07T23:14:24-05:00</stEvt:when>
                  <stEvt:softwareAgent>Adobe Audition CS6 (Windows)</stEvt:softwareAgent>
                  <stEvt:changed>/metadata</stEvt:changed>
               </rdf:li>
               <rdf:li rdf:parseType="Resource">
                  <stEvt:action>saved</stEvt:action>
                  <stEvt:instanceID>xmp.iid:334C8E9B6E6DE511B6D1CF627C938884</stEvt:instanceID>
                  <stEvt:when>2015-10-07T23:14:24-05:00</stEvt:when>
                  <stEvt:softwareAgent>Adobe Audition CS6 (Windows)</stEvt:softwareAgent>
                  <stEvt:changed>/</stEvt:changed>
               </rdf:li>
               <rdf:li rdf:parseType="Resource">
                  <stEvt:action>saved</stEvt:action>
                  <stEvt:instanceID>xmp.iid:344C8E9B6E6DE511B6D1CF627C938884</stEvt:instanceID>
                  <stEvt:when>2015-10-07T23:24:24-05:00</stEvt:when>
                  <stEvt:softwareAgent>Adobe Audition CS6 (Windows)</stEvt:softwareAgent>
                  <stEvt:changed>/metadata</stEvt:changed>
               </rdf:li>
               <rdf:li rdf:parseType="Resource">
                  <stEvt:action>saved</stEvt:action>
                  <stEvt:instanceID>xmp.iid:354C8E9B6E6DE511B6D1CF627C938884</stEvt:instanceID>
                  <stEvt:when>2015-10-07T23:24:24-05:00</stEvt:when>
                  <stEvt:softwareAgent>Adobe Audition CS6 (Windows)</stEvt:softwareAgent>
                  <stEvt:changed>/</stEvt:changed>
               </rdf:li>
               <rdf:li rdf:parseType="Resource">
                  <stEvt:action>saved</stEvt:action>
                  <stEvt:instanceID>xmp.iid:C8126E8E756DE511B6D1CF627C938884</stEvt:instanceID>
                  <stEvt:when>2015-10-07T23:32:17-05:00</stEvt:when>
                  <stEvt:softwareAgent>Adobe Audition CS6 (Windows)</stEvt:softwareAgent>
                  <stEvt:changed>/metadata</stEvt:changed>
               </rdf:li>
               <rdf:li rdf:parseType="Resource">
                  <stEvt:action>saved</stEvt:action>
                  <stEvt:instanceID>xmp.iid:C9126E8E756DE511B6D1CF627C938884</stEvt:instanceID>
                  <stEvt:when>2015-10-07T23:32:17-05:00</stEvt:when>
                  <stEvt:softwareAgent>Adobe Audition CS6 (Windows)</stEvt:softwareAgent>
                  <stEvt:changed>/</stEvt:changed>
               </rdf:li>
               <rdf:li rdf:parseType="Resource">
                  <stEvt:action>saved</stEvt:action>
                  <stEvt:instanceID>xmp.iid:A5BED7278F70E51195BFCF0E8B4D160C</stEvt:instanceID>
                  <stEvt:when>2015-10-11T22:13:07-05:00</stEvt:when>
                  <stEvt:softwareAgent>Adobe Audition CS6 (Windows)</stEvt:softwareAgent>
                  <stEvt:changed>/metadata</stEvt:changed>
               </rdf:li>
               <rdf:li rdf:parseType="Resource">
                  <stEvt:action>saved</stEvt:action>
                  <stEvt:instanceID>xmp.iid:A6BED7278F70E51195BFCF0E8B4D160C</stEvt:instanceID>
                  <stEvt:when>2015-10-11T22:13:07-05:00</stEvt:when>
                  <stEvt:softwareAgent>Adobe Audition CS6 (Windows)</stEvt:softwareAgent>
                  <stEvt:changed>/</stEvt:changed>
               </rdf:li>
               <rdf:li rdf:parseType="Resource">
                  <stEvt:action>saved</stEvt:action>
                  <stEvt:instanceID>xmp.iid:4BBF04F99070E51195BFCF0E8B4D160C</stEvt:instanceID>
                  <stEvt:when>2015-10-11T22:26:06-05:00</stEvt:when>
                  <stEvt:softwareAgent>Adobe Audition CS6 (Windows)</stEvt:softwareAgent>
                  <stEvt:changed>/metadata</stEvt:changed>
               </rdf:li>
               <rdf:li rdf:parseType="Resource">
                  <stEvt:action>saved</stEvt:action>
                  <stEvt:instanceID>xmp.iid:4CBF04F99070E51195BFCF0E8B4D160C</stEvt:instanceID>
                  <stEvt:when>2015-10-11T22:26:06-05:00</stEvt:when>
                  <stEvt:softwareAgent>Adobe Audition CS6 (Windows)</stEvt:softwareAgent>
                  <stEvt:changed>/</stEvt:changed>
               </rdf:li>
               <rdf:li rdf:parseType="Resource">
                  <stEvt:action>saved</stEvt:action>
                  <stEvt:instanceID>xmp.iid:4DBF04F99070E51195BFCF0E8B4D160C</stEvt:instanceID>
                  <stEvt:when>2015-10-11T22:37:06-05:00</stEvt:when>
                  <stEvt:softwareAgent>Adobe Audition CS6 (Windows)</stEvt:softwareAgent>
                  <stEvt:changed>/metadata</stEvt:changed>
               </rdf:li>
               <rdf:li rdf:parseType="Resource">
                  <stEvt:action>saved</stEvt:action>
                  <stEvt:instanceID>xmp.iid:4EBF04F99070E51195BFCF0E8B4D160C</stEvt:instanceID>
                  <stEvt:when>2015-10-11T22:37:06-05:00</stEvt:when>
                  <stEvt:softwareAgent>Adobe Audition CS6 (Windows)</stEvt:softwareAgent>
                  <stEvt:changed>/</stEvt:changed>
               </rdf:li>
               <rdf:li rdf:parseType="Resource">
                  <stEvt:action>saved</stEvt:action>
                  <stEvt:instanceID>xmp.iid:4FBF04F99070E51195BFCF0E8B4D160C</stEvt:instanceID>
                  <stEvt:when>2015-10-11T22:47:06-05:00</stEvt:when>
                  <stEvt:softwareAgent>Adobe Audition CS6 (Windows)</stEvt:softwareAgent>
                  <stEvt:changed>/metadata</stEvt:changed>
               </rdf:li>
               <rdf:li rdf:parseType="Resource">
                  <stEvt:action>saved</stEvt:action>
                  <stEvt:instanceID>xmp.iid:50BF04F99070E51195BFCF0E8B4D160C</stEvt:instanceID>
                  <stEvt:when>2015-10-11T22:47:06-05:00</stEvt:when>
                  <stEvt:softwareAgent>Adobe Audition CS6 (Windows)</stEvt:softwareAgent>
                  <stEvt:changed>/</stEvt:changed>
               </rdf:li>
               <rdf:li rdf:parseType="Resource">
                  <stEvt:action>saved</stEvt:action>
                  <stEvt:instanceID>xmp.iid:51BF04F99070E51195BFCF0E8B4D160C</stEvt:instanceID>
                  <stEvt:when>2015-10-11T22:57:06-05:00</stEvt:when>
                  <stEvt:softwareAgent>Adobe Audition CS6 (Windows)</stEvt:softwareAgent>
                  <stEvt:changed>/metadata</stEvt:changed>
               </rdf:li>
               <rdf:li rdf:parseType="Resource">
                  <stEvt:action>saved</stEvt:action>
                  <stEvt:instanceID>xmp.iid:52BF04F99070E51195BFCF0E8B4D160C</stEvt:instanceID>
                  <stEvt:when>2015-10-11T22:57:06-05:00</stEvt:when>
                  <stEvt:softwareAgent>Adobe Audition CS6 (Windows)</stEvt:softwareAgent>
                  <stEvt:changed>/</stEvt:changed>
               </rdf:li>
               <rdf:li rdf:parseType="Resource">
                  <stEvt:action>saved</stEvt:action>
                  <stEvt:instanceID>xmp.iid:53BF04F99070E51195BFCF0E8B4D160C</stEvt:instanceID>
                  <stEvt:when>2015-10-11T23:07:36-05:00</stEvt:when>
                  <stEvt:softwareAgent>Adobe Audition CS6 (Windows)</stEvt:softwareAgent>
                  <stEvt:changed>/metadata</stEvt:changed>
               </rdf:li>
               <rdf:li rdf:parseType="Resource">
                  <stEvt:action>saved</stEvt:action>
                  <stEvt:instanceID>xmp.iid:54BF04F99070E51195BFCF0E8B4D160C</stEvt:instanceID>
                  <stEvt:when>2015-10-11T23:07:36-05:00</stEvt:when>
                  <stEvt:softwareAgent>Adobe Audition CS6 (Windows)</stEvt:softwareAgent>
                  <stEvt:changed>/</stEvt:changed>
               </rdf:li>
               <rdf:li rdf:parseType="Resource">
                  <stEvt:action>saved</stEvt:action>
                  <stEvt:instanceID>xmp.iid:55BF04F99070E51195BFCF0E8B4D160C</stEvt:instanceID>
                  <stEvt:when>2015-10-11T23:17:37-05:00</stEvt:when>
                  <stEvt:softwareAgent>Adobe Audition CS6 (Windows)</stEvt:softwareAgent>
                  <stEvt:changed>/metadata</stEvt:changed>
               </rdf:li>
               <rdf:li rdf:parseType="Resource">
                  <stEvt:action>saved</stEvt:action>
                  <stEvt:instanceID>xmp.iid:9B14A62B9870E51195BFCF0E8B4D160C</stEvt:instanceID>
                  <stEvt:when>2015-10-11T23:17:37-05:00</stEvt:when>
                  <stEvt:softwareAgent>Adobe Audition CS6 (Windows)</stEvt:softwareAgent>
                  <stEvt:changed>/</stEvt:changed>
               </rdf:li>
               <rdf:li rdf:parseType="Resource">
                  <stEvt:action>saved</stEvt:action>
                  <stEvt:instanceID>xmp.iid:9C14A62B9870E51195BFCF0E8B4D160C</stEvt:instanceID>
                  <stEvt:when>2015-10-11T23:29:07-05:00</stEvt:when>
                  <stEvt:softwareAgent>Adobe Audition CS6 (Windows)</stEvt:softwareAgent>
                  <stEvt:changed>/metadata</stEvt:changed>
               </rdf:li>
               <rdf:li rdf:parseType="Resource">
                  <stEvt:action>saved</stEvt:action>
                  <stEvt:instanceID>xmp.iid:9D14A62B9870E51195BFCF0E8B4D160C</stEvt:instanceID>
                  <stEvt:when>2015-10-11T23:29:07-05:00</stEvt:when>
                  <stEvt:softwareAgent>Adobe Audition CS6 (Windows)</stEvt:softwareAgent>
                  <stEvt:changed>/</stEvt:changed>
               </rdf:li>
               <rdf:li rdf:parseType="Resource">
                  <stEvt:action>saved</stEvt:action>
                  <stEvt:instanceID>xmp.iid:9E14A62B9870E51195BFCF0E8B4D160C</stEvt:instanceID>
                  <stEvt:when>2015-10-11T23:39:08-05:00</stEvt:when>
                  <stEvt:softwareAgent>Adobe Audition CS6 (Windows)</stEvt:softwareAgent>
                  <stEvt:changed>/metadata</stEvt:changed>
               </rdf:li>
               <rdf:li rdf:parseType="Resource">
                  <stEvt:action>saved</stEvt:action>
                  <stEvt:instanceID>xmp.iid:9F14A62B9870E51195BFCF0E8B4D160C</stEvt:instanceID>
                  <stEvt:when>2015-10-11T23:39:08-05:00</stEvt:when>
                  <stEvt:softwareAgent>Adobe Audition CS6 (Windows)</stEvt:softwareAgent>
                  <stEvt:changed>/</stEvt:changed>
               </rdf:li>
               <rdf:li rdf:parseType="Resource">
                  <stEvt:action>saved</stEvt:action>
                  <stEvt:instanceID>xmp.iid:A014A62B9870E51195BFCF0E8B4D160C</stEvt:instanceID>
                  <stEvt:when>2015-10-11T23:51:08-05:00</stEvt:when>
                  <stEvt:softwareAgent>Adobe Audition CS6 (Windows)</stEvt:softwareAgent>
                  <stEvt:changed>/metadata</stEvt:changed>
               </rdf:li>
               <rdf:li rdf:parseType="Resource">
                  <stEvt:action>saved</stEvt:action>
                  <stEvt:instanceID>xmp.iid:A114A62B9870E51195BFCF0E8B4D160C</stEvt:instanceID>
                  <stEvt:when>2015-10-11T23:51:08-05:00</stEvt:when>
                  <stEvt:softwareAgent>Adobe Audition CS6 (Windows)</stEvt:softwareAgent>
                  <stEvt:changed>/</stEvt:changed>
               </rdf:li>
               <rdf:li rdf:parseType="Resource">
                  <stEvt:action>saved</stEvt:action>
                  <stEvt:instanceID>xmp.iid:A214A62B9870E51195BFCF0E8B4D160C</stEvt:instanceID>
                  <stEvt:when>2015-10-12T00:01:09-05:00</stEvt:when>
                  <stEvt:softwareAgent>Adobe Audition CS6 (Windows)</stEvt:softwareAgent>
                  <stEvt:changed>/metadata</stEvt:changed>
               </rdf:li>
               <rdf:li rdf:parseType="Resource">
                  <stEvt:action>saved</stEvt:action>
                  <stEvt:instanceID>xmp.iid:A314A62B9870E51195BFCF0E8B4D160C</stEvt:instanceID>
                  <stEvt:when>2015-10-12T00:01:09-05:00</stEvt:when>
                  <stEvt:softwareAgent>Adobe Audition CS6 (Windows)</stEvt:softwareAgent>
                  <stEvt:changed>/</stEvt:changed>
               </rdf:li>
               <rdf:li rdf:parseType="Resource">
                  <stEvt:action>saved</stEvt:action>
                  <stEvt:instanceID>xmp.iid:A414A62B9870E51195BFCF0E8B4D160C</stEvt:instanceID>
                  <stEvt:when>2015-10-12T00:11:09-05:00</stEvt:when>
                  <stEvt:softwareAgent>Adobe Audition CS6 (Windows)</stEvt:softwareAgent>
                  <stEvt:changed>/metadata</stEvt:changed>
               </rdf:li>
               <rdf:li rdf:parseType="Resource">
                  <stEvt:action>saved</stEvt:action>
                  <stEvt:instanceID>xmp.iid:A514A62B9870E51195BFCF0E8B4D160C</stEvt:instanceID>
                  <stEvt:when>2015-10-12T00:11:09-05:00</stEvt:when>
                  <stEvt:softwareAgent>Adobe Audition CS6 (Windows)</stEvt:softwareAgent>
                  <stEvt:changed>/</stEvt:changed>
               </rdf:li>
               <rdf:li rdf:parseType="Resource">
                  <stEvt:action>saved</stEvt:action>
                  <stEvt:instanceID>xmp.iid:124F370CA170E51195BFCF0E8B4D160C</stEvt:instanceID>
                  <stEvt:when>2015-10-12T00:21:10-05:00</stEvt:when>
                  <stEvt:softwareAgent>Adobe Audition CS6 (Windows)</stEvt:softwareAgent>
                  <stEvt:changed>/metadata</stEvt:changed>
               </rdf:li>
               <rdf:li rdf:parseType="Resource">
                  <stEvt:action>saved</stEvt:action>
                  <stEvt:instanceID>xmp.iid:134F370CA170E51195BFCF0E8B4D160C</stEvt:instanceID>
                  <stEvt:when>2015-10-12T00:21:10-05:00</stEvt:when>
                  <stEvt:softwareAgent>Adobe Audition CS6 (Windows)</stEvt:softwareAgent>
                  <stEvt:changed>/</stEvt:changed>
               </rdf:li>
               <rdf:li rdf:parseType="Resource">
                  <stEvt:action>saved</stEvt:action>
                  <stEvt:instanceID>xmp.iid:144F370CA170E51195BFCF0E8B4D160C</stEvt:instanceID>
                  <stEvt:when>2015-10-12T00:31:10-05:00</stEvt:when>
                  <stEvt:softwareAgent>Adobe Audition CS6 (Windows)</stEvt:softwareAgent>
                  <stEvt:changed>/metadata</stEvt:changed>
               </rdf:li>
               <rdf:li rdf:parseType="Resource">
                  <stEvt:action>saved</stEvt:action>
                  <stEvt:instanceID>xmp.iid:154F370CA170E51195BFCF0E8B4D160C</stEvt:instanceID>
                  <stEvt:when>2015-10-12T00:31:10-05:00</stEvt:when>
                  <stEvt:softwareAgent>Adobe Audition CS6 (Windows)</stEvt:softwareAgent>
                  <stEvt:changed>/</stEvt:changed>
               </rdf:li>
               <rdf:li rdf:parseType="Resource">
                  <stEvt:action>saved</stEvt:action>
                  <stEvt:instanceID>xmp.iid:164F370CA170E51195BFCF0E8B4D160C</stEvt:instanceID>
                  <stEvt:when>2015-10-12T00:41:11-05:00</stEvt:when>
                  <stEvt:softwareAgent>Adobe Audition CS6 (Windows)</stEvt:softwareAgent>
                  <stEvt:changed>/metadata</stEvt:changed>
               </rdf:li>
               <rdf:li rdf:parseType="Resource">
                  <stEvt:action>saved</stEvt:action>
                  <stEvt:instanceID>xmp.iid:174F370CA170E51195BFCF0E8B4D160C</stEvt:instanceID>
                  <stEvt:when>2015-10-12T00:41:11-05:00</stEvt:when>
                  <stEvt:softwareAgent>Adobe Audition CS6 (Windows)</stEvt:softwareAgent>
                  <stEvt:changed>/</stEvt:changed>
               </rdf:li>
               <rdf:li rdf:parseType="Resource">
                  <stEvt:action>saved</stEvt:action>
                  <stEvt:instanceID>xmp.iid:82780E07A570E51195BFCF0E8B4D160C</stEvt:instanceID>
                  <stEvt:when>2015-10-12T00:49:39-05:00</stEvt:when>
                  <stEvt:softwareAgent>Adobe Audition CS6 (Windows)</stEvt:softwareAgent>
                  <stEvt:changed>/metadata</stEvt:changed>
               </rdf:li>
               <rdf:li rdf:parseType="Resource">
                  <stEvt:action>saved</stEvt:action>
                  <stEvt:instanceID>xmp.iid:83780E07A570E51195BFCF0E8B4D160C</stEvt:instanceID>
                  <stEvt:when>2015-10-12T00:49:39-05:00</stEvt:when>
                  <stEvt:softwareAgent>Adobe Audition CS6 (Windows)</stEvt:softwareAgent>
                  <stEvt:changed>/</stEvt:changed>
               </rdf:li>
               <rdf:li rdf:parseType="Resource">
                  <stEvt:action>saved</stEvt:action>
                  <stEvt:instanceID>xmp.iid:835768EF6071E511A1C7A3FC729F25CA</stEvt:instanceID>
                  <stEvt:when>2015-10-12T23:14:54-05:00</stEvt:when>
                  <stEvt:softwareAgent>Adobe Audition CS6 (Windows)</stEvt:softwareAgent>
                  <stEvt:changed>/metadata</stEvt:changed>
               </rdf:li>
               <rdf:li rdf:parseType="Resource">
                  <stEvt:action>saved</stEvt:action>
                  <stEvt:instanceID>xmp.iid:845768EF6071E511A1C7A3FC729F25CA</stEvt:instanceID>
                  <stEvt:when>2015-10-12T23:14:54-05:00</stEvt:when>
                  <stEvt:softwareAgent>Adobe Audition CS6 (Windows)</stEvt:softwareAgent>
                  <stEvt:changed>/</stEvt:changed>
               </rdf:li>
               <rdf:li rdf:parseType="Resource">
                  <stEvt:action>saved</stEvt:action>
                  <stEvt:instanceID>xmp.iid:1CA35A636271E511A1C7A3FC729F25CA</stEvt:instanceID>
                  <stEvt:when>2015-10-12T23:25:09-05:00</stEvt:when>
                  <stEvt:softwareAgent>Adobe Audition CS6 (Windows)</stEvt:softwareAgent>
                  <stEvt:changed>/metadata</stEvt:changed>
               </rdf:li>
               <rdf:li rdf:parseType="Resource">
                  <stEvt:action>saved</stEvt:action>
                  <stEvt:instanceID>xmp.iid:1DA35A636271E511A1C7A3FC729F25CA</stEvt:instanceID>
                  <stEvt:when>2015-10-12T23:25:09-05:00</stEvt:when>
                  <stEvt:softwareAgent>Adobe Audition CS6 (Windows)</stEvt:softwareAgent>
                  <stEvt:changed>/</stEvt:changed>
               </rdf:li>
               <rdf:li rdf:parseType="Resource">
                  <stEvt:action>saved</stEvt:action>
                  <stEvt:instanceID>xmp.iid:1EA35A636271E511A1C7A3FC729F25CA</stEvt:instanceID>
                  <stEvt:when>2015-10-12T23:35:09-05:00</stEvt:when>
                  <stEvt:softwareAgent>Adobe Audition CS6 (Windows)</stEvt:softwareAgent>
                  <stEvt:changed>/metadata</stEvt:changed>
               </rdf:li>
               <rdf:li rdf:parseType="Resource">
                  <stEvt:action>saved</stEvt:action>
                  <stEvt:instanceID>xmp.iid:1FA35A636271E511A1C7A3FC729F25CA</stEvt:instanceID>
                  <stEvt:when>2015-10-12T23:35:09-05:00</stEvt:when>
                  <stEvt:softwareAgent>Adobe Audition CS6 (Windows)</stEvt:softwareAgent>
                  <stEvt:changed>/</stEvt:changed>
               </rdf:li>
               <rdf:li rdf:parseType="Resource">
                  <stEvt:action>saved</stEvt:action>
                  <stEvt:instanceID>xmp.iid:20A35A636271E511A1C7A3FC729F25CA</stEvt:instanceID>
                  <stEvt:when>2015-10-12T23:45:10-05:00</stEvt:when>
                  <stEvt:softwareAgent>Adobe Audition CS6 (Windows)</stEvt:softwareAgent>
                  <stEvt:changed>/metadata</stEvt:changed>
               </rdf:li>
               <rdf:li rdf:parseType="Resource">
                  <stEvt:action>saved</stEvt:action>
                  <stEvt:instanceID>xmp.iid:21A35A636271E511A1C7A3FC729F25CA</stEvt:instanceID>
                  <stEvt:when>2015-10-12T23:45:10-05:00</stEvt:when>
                  <stEvt:softwareAgent>Adobe Audition CS6 (Windows)</stEvt:softwareAgent>
                  <stEvt:changed>/</stEvt:changed>
               </rdf:li>
               <rdf:li rdf:parseType="Resource">
                  <stEvt:action>saved</stEvt:action>
                  <stEvt:instanceID>xmp.iid:22A35A636271E511A1C7A3FC729F25CA</stEvt:instanceID>
                  <stEvt:when>2015-10-12T23:56:40-05:00</stEvt:when>
                  <stEvt:softwareAgent>Adobe Audition CS6 (Windows)</stEvt:softwareAgent>
                  <stEvt:changed>/metadata</stEvt:changed>
               </rdf:li>
               <rdf:li rdf:parseType="Resource">
                  <stEvt:action>saved</stEvt:action>
                  <stEvt:instanceID>xmp.iid:23A35A636271E511A1C7A3FC729F25CA</stEvt:instanceID>
                  <stEvt:when>2015-10-12T23:56:40-05:00</stEvt:when>
                  <stEvt:softwareAgent>Adobe Audition CS6 (Windows)</stEvt:softwareAgent>
                  <stEvt:changed>/</stEvt:changed>
               </rdf:li>
               <rdf:li rdf:parseType="Resource">
                  <stEvt:action>saved</stEvt:action>
                  <stEvt:instanceID>xmp.iid:24A35A636271E511A1C7A3FC729F25CA</stEvt:instanceID>
                  <stEvt:when>2015-10-13T00:19:41-05:00</stEvt:when>
                  <stEvt:softwareAgent>Adobe Audition CS6 (Windows)</stEvt:softwareAgent>
                  <stEvt:changed>/metadata</stEvt:changed>
               </rdf:li>
               <rdf:li rdf:parseType="Resource">
                  <stEvt:action>saved</stEvt:action>
                  <stEvt:instanceID>xmp.iid:25A35A636271E511A1C7A3FC729F25CA</stEvt:instanceID>
                  <stEvt:when>2015-10-13T00:19:41-05:00</stEvt:when>
                  <stEvt:softwareAgent>Adobe Audition CS6 (Windows)</stEvt:softwareAgent>
                  <stEvt:changed>/</stEvt:changed>
               </rdf:li>
               <rdf:li rdf:parseType="Resource">
                  <stEvt:action>saved</stEvt:action>
                  <stEvt:instanceID>xmp.iid:5B63264D6A71E511A1C7A3FC729F25CA</stEvt:instanceID>
                  <stEvt:when>2015-10-13T00:21:47-05:00</stEvt:when>
                  <stEvt:softwareAgent>Adobe Audition CS6 (Windows)</stEvt:softwareAgent>
                  <stEvt:changed>/metadata</stEvt:changed>
               </rdf:li>
               <rdf:li rdf:parseType="Resource">
                  <stEvt:action>saved</stEvt:action>
                  <stEvt:instanceID>xmp.iid:5C63264D6A71E511A1C7A3FC729F25CA</stEvt:instanceID>
                  <stEvt:when>2015-10-13T00:21:47-05:00</stEvt:when>
                  <stEvt:softwareAgent>Adobe Audition CS6 (Windows)</stEvt:softwareAgent>
                  <stEvt:changed>/</stEvt:changed>
               </rdf:li>
               <rdf:li rdf:parseType="Resource">
                  <stEvt:action>saved</stEvt:action>
                  <stEvt:instanceID>xmp.iid:66085DCC8074E5118387E9473EC7F83C</stEvt:instanceID>
                  <stEvt:when>2015-10-16T22:41:01-05:00</stEvt:when>
                  <stEvt:softwareAgent>Adobe Audition CS6 (Windows)</stEvt:softwareAgent>
                  <stEvt:changed>/metadata</stEvt:changed>
               </rdf:li>
               <rdf:li rdf:parseType="Resource">
                  <stEvt:action>saved</stEvt:action>
                  <stEvt:instanceID>xmp.iid:67085DCC8074E5118387E9473EC7F83C</stEvt:instanceID>
                  <stEvt:when>2015-10-16T22:41:01-05:00</stEvt:when>
                  <stEvt:softwareAgent>Adobe Audition CS6 (Windows)</stEvt:softwareAgent>
                  <stEvt:changed>/</stEvt:changed>
               </rdf:li>
               <rdf:li rdf:parseType="Resource">
                  <stEvt:action>saved</stEvt:action>
                  <stEvt:instanceID>xmp.iid:435A971E8174E5118387E9473EC7F83C</stEvt:instanceID>
                  <stEvt:when>2015-10-16T22:51:17-05:00</stEvt:when>
                  <stEvt:softwareAgent>Adobe Audition CS6 (Windows)</stEvt:softwareAgent>
                  <stEvt:changed>/metadata</stEvt:changed>
               </rdf:li>
               <rdf:li rdf:parseType="Resource">
                  <stEvt:action>saved</stEvt:action>
                  <stEvt:instanceID>xmp.iid:445A971E8174E5118387E9473EC7F83C</stEvt:instanceID>
                  <stEvt:when>2015-10-16T22:51:17-05:00</stEvt:when>
                  <stEvt:softwareAgent>Adobe Audition CS6 (Windows)</stEvt:softwareAgent>
                  <stEvt:changed>/</stEvt:changed>
               </rdf:li>
               <rdf:li rdf:parseType="Resource">
                  <stEvt:action>saved</stEvt:action>
                  <stEvt:instanceID>xmp.iid:475A971E8174E5118387E9473EC7F83C</stEvt:instanceID>
                  <stEvt:when>2015-10-16T23:47:02-05:00</stEvt:when>
                  <stEvt:softwareAgent>Adobe Audition CS6 (Windows)</stEvt:softwareAgent>
                  <stEvt:changed>/metadata</stEvt:changed>
               </rdf:li>
               <rdf:li rdf:parseType="Resource">
                  <stEvt:action>saved</stEvt:action>
                  <stEvt:instanceID>xmp.iid:485A971E8174E5118387E9473EC7F83C</stEvt:instanceID>
                  <stEvt:when>2015-10-16T23:47:02-05:00</stEvt:when>
                  <stEvt:softwareAgent>Adobe Audition CS6 (Windows)</stEvt:softwareAgent>
                  <stEvt:changed>/</stEvt:changed>
               </rdf:li>
               <rdf:li rdf:parseType="Resource">
                  <stEvt:action>saved</stEvt:action>
                  <stEvt:instanceID>xmp.iid:12372DB8B78BE51186C484D7608F1CF2</stEvt:instanceID>
                  <stEvt:when>2015-11-15T11:41:41-05:00</stEvt:when>
                  <stEvt:softwareAgent>Adobe Audition CS6 (Windows)</stEvt:softwareAgent>
                  <stEvt:changed>/metadata</stEvt:changed>
               </rdf:li>
               <rdf:li rdf:parseType="Resource">
                  <stEvt:action>saved</stEvt:action>
                  <stEvt:instanceID>xmp.iid:13372DB8B78BE51186C484D7608F1CF2</stEvt:instanceID>
                  <stEvt:when>2015-11-15T11:41:41-05:00</stEvt:when>
                  <stEvt:softwareAgent>Adobe Audition CS6 (Windows)</stEvt:softwareAgent>
                  <stEvt:changed>/</stEvt:changed>
               </rdf:li>
               <rdf:li rdf:parseType="Resource">
                  <stEvt:action>saved</stEvt:action>
                  <stEvt:instanceID>xmp.iid:AC007538B98BE51186C484D7608F1CF2</stEvt:instanceID>
                  <stEvt:when>2015-11-15T11:52:13-05:00</stEvt:when>
                  <stEvt:softwareAgent>Adobe Audition CS6 (Windows)</stEvt:softwareAgent>
                  <stEvt:changed>/metadata</stEvt:changed>
               </rdf:li>
               <rdf:li rdf:parseType="Resource">
                  <stEvt:action>saved</stEvt:action>
                  <stEvt:instanceID>xmp.iid:AD007538B98BE51186C484D7608F1CF2</stEvt:instanceID>
                  <stEvt:when>2015-11-15T11:52:13-05:00</stEvt:when>
                  <stEvt:softwareAgent>Adobe Audition CS6 (Windows)</stEvt:softwareAgent>
                  <stEvt:changed>/</stEvt:changed>
               </rdf:li>
               <rdf:li rdf:parseType="Resource">
                  <stEvt:action>saved</stEvt:action>
                  <stEvt:instanceID>xmp.iid:AE007538B98BE51186C484D7608F1CF2</stEvt:instanceID>
                  <stEvt:when>2015-11-15T12:04:56-05:00</stEvt:when>
                  <stEvt:softwareAgent>Adobe Audition CS6 (Windows)</stEvt:softwareAgent>
                  <stEvt:changed>/metadata</stEvt:changed>
               </rdf:li>
               <rdf:li rdf:parseType="Resource">
                  <stEvt:action>saved</stEvt:action>
                  <stEvt:instanceID>xmp.iid:AF007538B98BE51186C484D7608F1CF2</stEvt:instanceID>
                  <stEvt:when>2015-11-15T12:04:56-05:00</stEvt:when>
                  <stEvt:softwareAgent>Adobe Audition CS6 (Windows)</stEvt:softwareAgent>
                  <stEvt:changed>/</stEvt:changed>
               </rdf:li>
               <rdf:li rdf:parseType="Resource">
                  <stEvt:action>saved</stEvt:action>
                  <stEvt:instanceID>xmp.iid:B2007538B98BE51186C484D7608F1CF2</stEvt:instanceID>
                  <stEvt:when>2015-11-15T12:23:40-05:00</stEvt:when>
                  <stEvt:softwareAgent>Adobe Audition CS6 (Windows)</stEvt:softwareAgent>
                  <stEvt:changed>/metadata</stEvt:changed>
               </rdf:li>
               <rdf:li rdf:parseType="Resource">
                  <stEvt:action>saved</stEvt:action>
                  <stEvt:instanceID>xmp.iid:B3007538B98BE51186C484D7608F1CF2</stEvt:instanceID>
                  <stEvt:when>2015-11-15T12:23:40-05:00</stEvt:when>
                  <stEvt:softwareAgent>Adobe Audition CS6 (Windows)</stEvt:softwareAgent>
                  <stEvt:changed>/</stEvt:changed>
               </rdf:li>
               <rdf:li rdf:parseType="Resource">
                  <stEvt:action>saved</stEvt:action>
                  <stEvt:instanceID>xmp.iid:B4007538B98BE51186C484D7608F1CF2</stEvt:instanceID>
                  <stEvt:when>2015-11-15T12:34:26-05:00</stEvt:when>
                  <stEvt:softwareAgent>Adobe Audition CS6 (Windows)</stEvt:softwareAgent>
                  <stEvt:changed>/metadata</stEvt:changed>
               </rdf:li>
               <rdf:li rdf:parseType="Resource">
                  <stEvt:action>saved</stEvt:action>
                  <stEvt:instanceID>xmp.iid:B5007538B98BE51186C484D7608F1CF2</stEvt:instanceID>
                  <stEvt:when>2015-11-15T12:34:26-05:00</stEvt:when>
                  <stEvt:softwareAgent>Adobe Audition CS6 (Windows)</stEvt:softwareAgent>
                  <stEvt:changed>/</stEvt:changed>
               </rdf:li>
               <rdf:li rdf:parseType="Resource">
                  <stEvt:action>saved</stEvt:action>
                  <stEvt:instanceID>xmp.iid:704F774AC08BE51186C484D7608F1CF2</stEvt:instanceID>
                  <stEvt:when>2015-11-15T12:42:50-05:00</stEvt:when>
                  <stEvt:softwareAgent>Adobe Audition CS6 (Windows)</stEvt:softwareAgent>
                  <stEvt:changed>/metadata</stEvt:changed>
               </rdf:li>
               <rdf:li rdf:parseType="Resource">
                  <stEvt:action>saved</stEvt:action>
                  <stEvt:instanceID>xmp.iid:714F774AC08BE51186C484D7608F1CF2</stEvt:instanceID>
                  <stEvt:when>2015-11-15T12:42:50-05:00</stEvt:when>
                  <stEvt:softwareAgent>Adobe Audition CS6 (Windows)</stEvt:softwareAgent>
                  <stEvt:changed>/</stEvt:changed>
               </rdf:li>
               <rdf:li rdf:parseType="Resource">
                  <stEvt:action>saved</stEvt:action>
                  <stEvt:instanceID>xmp.iid:744F774AC08BE51186C484D7608F1CF2</stEvt:instanceID>
                  <stEvt:when>2015-11-15T12:46:07-05:00</stEvt:when>
                  <stEvt:softwareAgent>Adobe Audition CS6 (Windows)</stEvt:softwareAgent>
                  <stEvt:changed>/metadata</stEvt:changed>
               </rdf:li>
               <rdf:li rdf:parseType="Resource">
                  <stEvt:action>saved</stEvt:action>
                  <stEvt:instanceID>xmp.iid:754F774AC08BE51186C484D7608F1CF2</stEvt:instanceID>
                  <stEvt:when>2015-11-15T12:46:07-05:00</stEvt:when>
                  <stEvt:softwareAgent>Adobe Audition CS6 (Windows)</stEvt:softwareAgent>
                  <stEvt:changed>/</stEvt:changed>
               </rdf:li>
               <rdf:li rdf:parseType="Resource">
                  <stEvt:action>saved</stEvt:action>
                  <stEvt:instanceID>xmp.iid:784F774AC08BE51186C484D7608F1CF2</stEvt:instanceID>
                  <stEvt:when>2015-11-15T12:49-05:00</stEvt:when>
                  <stEvt:softwareAgent>Adobe Audition CS6 (Windows)</stEvt:softwareAgent>
                  <stEvt:changed>/metadata</stEvt:changed>
               </rdf:li>
               <rdf:li rdf:parseType="Resource">
                  <stEvt:action>saved</stEvt:action>
                  <stEvt:instanceID>xmp.iid:794F774AC08BE51186C484D7608F1CF2</stEvt:instanceID>
                  <stEvt:when>2015-11-15T12:49-05:00</stEvt:when>
                  <stEvt:softwareAgent>Adobe Audition CS6 (Windows)</stEvt:softwareAgent>
                  <stEvt:changed>/</stEvt:changed>
               </rdf:li>
               <rdf:li rdf:parseType="Resource">
                  <stEvt:action>saved</stEvt:action>
                  <stEvt:instanceID>xmp.iid:5AFDCFDBC28BE51186C484D7608F1CF2</stEvt:instanceID>
                  <stEvt:when>2015-11-15T13:01:13-05:00</stEvt:when>
                  <stEvt:softwareAgent>Adobe Audition CS6 (Windows)</stEvt:softwareAgent>
                  <stEvt:changed>/metadata</stEvt:changed>
               </rdf:li>
               <rdf:li rdf:parseType="Resource">
                  <stEvt:action>saved</stEvt:action>
                  <stEvt:instanceID>xmp.iid:5BFDCFDBC28BE51186C484D7608F1CF2</stEvt:instanceID>
                  <stEvt:when>2015-11-15T13:01:13-05:00</stEvt:when>
                  <stEvt:softwareAgent>Adobe Audition CS6 (Windows)</stEvt:softwareAgent>
                  <stEvt:changed>/</stEvt:changed>
               </rdf:li>
               <rdf:li rdf:parseType="Resource">
                  <stEvt:action>saved</stEvt:action>
                  <stEvt:instanceID>xmp.iid:5CFDCFDBC28BE51186C484D7608F1CF2</stEvt:instanceID>
                  <stEvt:when>2015-11-15T13:13:27-05:00</stEvt:when>
                  <stEvt:softwareAgent>Adobe Audition CS6 (Windows)</stEvt:softwareAgent>
                  <stEvt:changed>/metadata</stEvt:changed>
               </rdf:li>
               <rdf:li rdf:parseType="Resource">
                  <stEvt:action>saved</stEvt:action>
                  <stEvt:instanceID>xmp.iid:5DFDCFDBC28BE51186C484D7608F1CF2</stEvt:instanceID>
                  <stEvt:when>2015-11-15T13:13:27-05:00</stEvt:when>
                  <stEvt:softwareAgent>Adobe Audition CS6 (Windows)</stEvt:softwareAgent>
                  <stEvt:changed>/</stEvt:changed>
               </rdf:li>
               <rdf:li rdf:parseType="Resource">
                  <stEvt:action>saved</stEvt:action>
                  <stEvt:instanceID>xmp.iid:5EFDCFDBC28BE51186C484D7608F1CF2</stEvt:instanceID>
                  <stEvt:when>2015-11-15T13:16:30-05:00</stEvt:when>
                  <stEvt:softwareAgent>Adobe Audition CS6 (Windows)</stEvt:softwareAgent>
                  <stEvt:changed>/metadata</stEvt:changed>
               </rdf:li>
               <rdf:li rdf:parseType="Resource">
                  <stEvt:action>saved</stEvt:action>
                  <stEvt:instanceID>xmp.iid:5FFDCFDBC28BE51186C484D7608F1CF2</stEvt:instanceID>
                  <stEvt:when>2015-11-15T13:16:30-05:00</stEvt:when>
                  <stEvt:softwareAgent>Adobe Audition CS6 (Windows)</stEvt:softwareAgent>
                  <stEvt:changed>/</stEvt:changed>
               </rdf:li>
               <rdf:li rdf:parseType="Resource">
                  <stEvt:action>saved</stEvt:action>
                  <stEvt:instanceID>xmp.iid:EB3ACBFEC58BE51186C484D7608F1CF2</stEvt:instanceID>
                  <stEvt:when>2015-11-15T13:23:40-05:00</stEvt:when>
                  <stEvt:softwareAgent>Adobe Audition CS6 (Windows)</stEvt:softwareAgent>
                  <stEvt:changed>/metadata</stEvt:changed>
               </rdf:li>
               <rdf:li rdf:parseType="Resource">
                  <stEvt:action>saved</stEvt:action>
                  <stEvt:instanceID>xmp.iid:EC3ACBFEC58BE51186C484D7608F1CF2</stEvt:instanceID>
                  <stEvt:when>2015-11-15T13:23:40-05:00</stEvt:when>
                  <stEvt:softwareAgent>Adobe Audition CS6 (Windows)</stEvt:softwareAgent>
                  <stEvt:changed>/</stEvt:changed>
               </rdf:li>
               <rdf:li rdf:parseType="Resource">
                  <stEvt:action>saved</stEvt:action>
                  <stEvt:instanceID>xmp.iid:ED3ACBFEC58BE51186C484D7608F1CF2</stEvt:instanceID>
                  <stEvt:when>2015-11-15T13:33:57-05:00</stEvt:when>
                  <stEvt:softwareAgent>Adobe Audition CS6 (Windows)</stEvt:softwareAgent>
                  <stEvt:changed>/metadata</stEvt:changed>
               </rdf:li>
               <rdf:li rdf:parseType="Resource">
                  <stEvt:action>saved</stEvt:action>
                  <stEvt:instanceID>xmp.iid:EE3ACBFEC58BE51186C484D7608F1CF2</stEvt:instanceID>
                  <stEvt:when>2015-11-15T13:33:57-05:00</stEvt:when>
                  <stEvt:softwareAgent>Adobe Audition CS6 (Windows)</stEvt:softwareAgent>
                  <stEvt:changed>/</stEvt:changed>
               </rdf:li>
               <rdf:li rdf:parseType="Resource">
                  <stEvt:action>saved</stEvt:action>
                  <stEvt:instanceID>xmp.iid:F13ACBFEC58BE51186C484D7608F1CF2</stEvt:instanceID>
                  <stEvt:when>2015-11-15T13:44:17-05:00</stEvt:when>
                  <stEvt:softwareAgent>Adobe Audition CS6 (Windows)</stEvt:softwareAgent>
                  <stEvt:changed>/metadata</stEvt:changed>
               </rdf:li>
               <rdf:li rdf:parseType="Resource">
                  <stEvt:action>saved</stEvt:action>
                  <stEvt:instanceID>xmp.iid:F23ACBFEC58BE51186C484D7608F1CF2</stEvt:instanceID>
                  <stEvt:when>2015-11-15T13:44:17-05:00</stEvt:when>
                  <stEvt:softwareAgent>Adobe Audition CS6 (Windows)</stEvt:softwareAgent>
                  <stEvt:changed>/</stEvt:changed>
               </rdf:li>
               <rdf:li rdf:parseType="Resource">
                  <stEvt:action>saved</stEvt:action>
                  <stEvt:instanceID>xmp.iid:340697F1C98BE51186C484D7608F1CF2</stEvt:instanceID>
                  <stEvt:when>2015-11-15T13:51:56-05:00</stEvt:when>
                  <stEvt:softwareAgent>Adobe Audition CS6 (Windows)</stEvt:softwareAgent>
                  <stEvt:changed>/metadata</stEvt:changed>
               </rdf:li>
               <rdf:li rdf:parseType="Resource">
                  <stEvt:action>saved</stEvt:action>
                  <stEvt:instanceID>xmp.iid:350697F1C98BE51186C484D7608F1CF2</stEvt:instanceID>
                  <stEvt:when>2015-11-15T13:51:56-05:00</stEvt:when>
                  <stEvt:softwareAgent>Adobe Audition CS6 (Windows)</stEvt:softwareAgent>
                  <stEvt:changed>/</stEvt:changed>
               </rdf:li>
               <rdf:li rdf:parseType="Resource">
                  <stEvt:action>saved</stEvt:action>
                  <stEvt:instanceID>xmp.iid:3ED09EF1C98BE51186C484D7608F1CF2</stEvt:instanceID>
                  <stEvt:when>2015-11-15T14:01:57-05:00</stEvt:when>
                  <stEvt:softwareAgent>Adobe Audition CS6 (Windows)</stEvt:softwareAgent>
                  <stEvt:changed>/metadata</stEvt:changed>
               </rdf:li>
               <rdf:li rdf:parseType="Resource">
                  <stEvt:action>saved</stEvt:action>
                  <stEvt:instanceID>xmp.iid:3FD09EF1C98BE51186C484D7608F1CF2</stEvt:instanceID>
                  <stEvt:when>2015-11-15T14:01:57-05:00</stEvt:when>
                  <stEvt:softwareAgent>Adobe Audition CS6 (Windows)</stEvt:softwareAgent>
                  <stEvt:changed>/</stEvt:changed>
               </rdf:li>
               <rdf:li rdf:parseType="Resource">
                  <stEvt:action>saved</stEvt:action>
                  <stEvt:instanceID>xmp.iid:40D09EF1C98BE51186C484D7608F1CF2</stEvt:instanceID>
                  <stEvt:when>2015-11-15T14:06:36-05:00</stEvt:when>
                  <stEvt:softwareAgent>Adobe Audition CS6 (Windows)</stEvt:softwareAgent>
                  <stEvt:changed>/metadata</stEvt:changed>
               </rdf:li>
               <rdf:li rdf:parseType="Resource">
                  <stEvt:action>saved</stEvt:action>
                  <stEvt:instanceID>xmp.iid:41D09EF1C98BE51186C484D7608F1CF2</stEvt:instanceID>
                  <stEvt:when>2015-11-15T14:06:36-05:00</stEvt:when>
                  <stEvt:softwareAgent>Adobe Audition CS6 (Windows)</stEvt:softwareAgent>
                  <stEvt:changed>/</stEvt:changed>
               </rdf:li>
               <rdf:li rdf:parseType="Resource">
                  <stEvt:action>saved</stEvt:action>
                  <stEvt:instanceID>xmp.iid:D18ECCD2CC8BE51186C484D7608F1CF2</stEvt:instanceID>
                  <stEvt:when>2015-11-15T14:13:55-05:00</stEvt:when>
                  <stEvt:softwareAgent>Adobe Audition CS6 (Windows)</stEvt:softwareAgent>
                  <stEvt:changed>/metadata</stEvt:changed>
               </rdf:li>
               <rdf:li rdf:parseType="Resource">
                  <stEvt:action>saved</stEvt:action>
                  <stEvt:instanceID>xmp.iid:D28ECCD2CC8BE51186C484D7608F1CF2</stEvt:instanceID>
                  <stEvt:when>2015-11-15T14:13:55-05:00</stEvt:when>
                  <stEvt:softwareAgent>Adobe Audition CS6 (Windows)</stEvt:softwareAgent>
                  <stEvt:changed>/</stEvt:changed>
               </rdf:li>
               <rdf:li rdf:parseType="Resource">
                  <stEvt:action>saved</stEvt:action>
                  <stEvt:instanceID>xmp.iid:A611ABA7CD8BE511BD2393021AEACAE4</stEvt:instanceID>
                  <stEvt:when>2015-11-15T14:18:32-05:00</stEvt:when>
                  <stEvt:softwareAgent>Adobe Audition CS6 (Windows)</stEvt:softwareAgent>
                  <stEvt:changed>/metadata</stEvt:changed>
               </rdf:li>
               <rdf:li rdf:parseType="Resource">
                  <stEvt:action>saved</stEvt:action>
                  <stEvt:instanceID>xmp.iid:A711ABA7CD8BE511BD2393021AEACAE4</stEvt:instanceID>
                  <stEvt:when>2015-11-15T14:18:32-05:00</stEvt:when>
                  <stEvt:softwareAgent>Adobe Audition CS6 (Windows)</stEvt:softwareAgent>
                  <stEvt:changed>/</stEvt:changed>
               </rdf:li>
               <rdf:li rdf:parseType="Resource">
                  <stEvt:action>saved</stEvt:action>
                  <stEvt:instanceID>xmp.iid:E026A1DECE8BE511BD2393021AEACAE4</stEvt:instanceID>
                  <stEvt:when>2015-11-15T14:27:11-05:00</stEvt:when>
                  <stEvt:softwareAgent>Adobe Audition CS6 (Windows)</stEvt:softwareAgent>
                  <stEvt:changed>/metadata</stEvt:changed>
               </rdf:li>
               <rdf:li rdf:parseType="Resource">
                  <stEvt:action>saved</stEvt:action>
                  <stEvt:instanceID>xmp.iid:E126A1DECE8BE511BD2393021AEACAE4</stEvt:instanceID>
                  <stEvt:when>2015-11-15T14:27:11-05:00</stEvt:when>
                  <stEvt:softwareAgent>Adobe Audition CS6 (Windows)</stEvt:softwareAgent>
                  <stEvt:changed>/</stEvt:changed>
               </rdf:li>
               <rdf:li rdf:parseType="Resource">
                  <stEvt:action>saved</stEvt:action>
                  <stEvt:instanceID>xmp.iid:E426A1DECE8BE511BD2393021AEACAE4</stEvt:instanceID>
                  <stEvt:when>2015-11-15T14:29:01-05:00</stEvt:when>
                  <stEvt:softwareAgent>Adobe Audition CS6 (Windows)</stEvt:softwareAgent>
                  <stEvt:changed>/metadata</stEvt:changed>
               </rdf:li>
               <rdf:li rdf:parseType="Resource">
                  <stEvt:action>saved</stEvt:action>
                  <stEvt:instanceID>xmp.iid:E526A1DECE8BE511BD2393021AEACAE4</stEvt:instanceID>
                  <stEvt:when>2015-11-15T14:29:01-05:00</stEvt:when>
                  <stEvt:softwareAgent>Adobe Audition CS6 (Windows)</stEvt:softwareAgent>
                  <stEvt:changed>/</stEvt:changed>
               </rdf:li>
               <rdf:li rdf:parseType="Resource">
                  <stEvt:action>saved</stEvt:action>
                  <stEvt:instanceID>xmp.iid:E826A1DECE8BE511BD2393021AEACAE4</stEvt:instanceID>
                  <stEvt:when>2015-11-15T14:31:43-05:00</stEvt:when>
                  <stEvt:softwareAgent>Adobe Audition CS6 (Windows)</stEvt:softwareAgent>
                  <stEvt:changed>/metadata</stEvt:changed>
               </rdf:li>
               <rdf:li rdf:parseType="Resource">
                  <stEvt:action>saved</stEvt:action>
                  <stEvt:instanceID>xmp.iid:C3116280CF8BE511BD2393021AEACAE4</stEvt:instanceID>
                  <stEvt:when>2015-11-15T14:31:43-05:00</stEvt:when>
                  <stEvt:softwareAgent>Adobe Audition CS6 (Windows)</stEvt:softwareAgent>
                  <stEvt:changed>/</stEvt:changed>
               </rdf:li>
               <rdf:li rdf:parseType="Resource">
                  <stEvt:action>saved</stEvt:action>
                  <stEvt:instanceID>xmp.iid:C6116280CF8BE511BD2393021AEACAE4</stEvt:instanceID>
                  <stEvt:when>2015-11-15T14:33:06-05:00</stEvt:when>
                  <stEvt:softwareAgent>Adobe Audition CS6 (Windows)</stEvt:softwareAgent>
                  <stEvt:changed>/metadata</stEvt:changed>
               </rdf:li>
               <rdf:li rdf:parseType="Resource">
                  <stEvt:action>saved</stEvt:action>
                  <stEvt:instanceID>xmp.iid:C7116280CF8BE511BD2393021AEACAE4</stEvt:instanceID>
                  <stEvt:when>2015-11-15T14:33:06-05:00</stEvt:when>
                  <stEvt:softwareAgent>Adobe Audition CS6 (Windows)</stEvt:softwareAgent>
                  <stEvt:changed>/</stEvt:changed>
               </rdf:li>
               <rdf:li rdf:parseType="Resource">
                  <stEvt:action>saved</stEvt:action>
                  <stEvt:instanceID>xmp.iid:C8116280CF8BE511BD2393021AEACAE4</stEvt:instanceID>
                  <stEvt:when>2015-11-15T15:02:49-05:00</stEvt:when>
                  <stEvt:softwareAgent>Adobe Audition CS6 (Windows)</stEvt:softwareAgent>
                  <stEvt:changed>/metadata</stEvt:changed>
               </rdf:li>
               <rdf:li rdf:parseType="Resource">
                  <stEvt:action>saved</stEvt:action>
                  <stEvt:instanceID>xmp.iid:C9116280CF8BE511BD2393021AEACAE4</stEvt:instanceID>
                  <stEvt:when>2015-11-15T15:02:49-05:00</stEvt:when>
                  <stEvt:softwareAgent>Adobe Audition CS6 (Windows)</stEvt:softwareAgent>
                  <stEvt:changed>/</stEvt:changed>
               </rdf:li>
               <rdf:li rdf:parseType="Resource">
                  <stEvt:action>saved</stEvt:action>
                  <stEvt:instanceID>xmp.iid:CA116280CF8BE511BD2393021AEACAE4</stEvt:instanceID>
                  <stEvt:when>2015-11-15T15:12:14-05:00</stEvt:when>
                  <stEvt:softwareAgent>Adobe Audition CS6 (Windows)</stEvt:softwareAgent>
                  <stEvt:changed>/metadata</stEvt:changed>
               </rdf:li>
               <rdf:li rdf:parseType="Resource">
                  <stEvt:action>saved</stEvt:action>
                  <stEvt:instanceID>xmp.iid:CB116280CF8BE511BD2393021AEACAE4</stEvt:instanceID>
                  <stEvt:when>2015-11-15T15:12:14-05:00</stEvt:when>
                  <stEvt:softwareAgent>Adobe Audition CS6 (Windows)</stEvt:softwareAgent>
                  <stEvt:changed>/</stEvt:changed>
               </rdf:li>
               <rdf:li rdf:parseType="Resource">
                  <stEvt:action>saved</stEvt:action>
                  <stEvt:instanceID>xmp.iid:CC116280CF8BE511BD2393021AEACAE4</stEvt:instanceID>
                  <stEvt:when>2015-11-15T15:23:19-05:00</stEvt:when>
                  <stEvt:softwareAgent>Adobe Audition CS6 (Windows)</stEvt:softwareAgent>
                  <stEvt:changed>/metadata</stEvt:changed>
               </rdf:li>
               <rdf:li rdf:parseType="Resource">
                  <stEvt:action>saved</stEvt:action>
                  <stEvt:instanceID>xmp.iid:CD116280CF8BE511BD2393021AEACAE4</stEvt:instanceID>
                  <stEvt:when>2015-11-15T15:23:19-05:00</stEvt:when>
                  <stEvt:softwareAgent>Adobe Audition CS6 (Windows)</stEvt:softwareAgent>
                  <stEvt:changed>/</stEvt:changed>
               </rdf:li>
               <rdf:li rdf:parseType="Resource">
                  <stEvt:action>saved</stEvt:action>
                  <stEvt:instanceID>xmp.iid:162E6172D88BE511BD2393021AEACAE4</stEvt:instanceID>
                  <stEvt:when>2015-11-15T15:35:45-05:00</stEvt:when>
                  <stEvt:softwareAgent>Adobe Audition CS6 (Windows)</stEvt:softwareAgent>
                  <stEvt:changed>/metadata</stEvt:changed>
               </rdf:li>
               <rdf:li rdf:parseType="Resource">
                  <stEvt:action>saved</stEvt:action>
                  <stEvt:instanceID>xmp.iid:172E6172D88BE511BD2393021AEACAE4</stEvt:instanceID>
                  <stEvt:when>2015-11-15T15:35:45-05:00</stEvt:when>
                  <stEvt:softwareAgent>Adobe Audition CS6 (Windows)</stEvt:softwareAgent>
                  <stEvt:changed>/</stEvt:changed>
               </rdf:li>
               <rdf:li rdf:parseType="Resource">
                  <stEvt:action>saved</stEvt:action>
                  <stEvt:instanceID>xmp.iid:1C2E6172D88BE511BD2393021AEACAE4</stEvt:instanceID>
                  <stEvt:when>2015-11-15T15:59:29-05:00</stEvt:when>
                  <stEvt:softwareAgent>Adobe Audition CS6 (Windows)</stEvt:softwareAgent>
                  <stEvt:changed>/metadata</stEvt:changed>
               </rdf:li>
               <rdf:li rdf:parseType="Resource">
                  <stEvt:action>saved</stEvt:action>
                  <stEvt:instanceID>xmp.iid:1D2E6172D88BE511BD2393021AEACAE4</stEvt:instanceID>
                  <stEvt:when>2015-11-15T15:59:29-05:00</stEvt:when>
                  <stEvt:softwareAgent>Adobe Audition CS6 (Windows)</stEvt:softwareAgent>
                  <stEvt:changed>/</stEvt:changed>
               </rdf:li>
               <rdf:li rdf:parseType="Resource">
                  <stEvt:action>saved</stEvt:action>
                  <stEvt:instanceID>xmp.iid:1E2E6172D88BE511BD2393021AEACAE4</stEvt:instanceID>
                  <stEvt:when>2015-11-15T16:10:19-05:00</stEvt:when>
                  <stEvt:softwareAgent>Adobe Audition CS6 (Windows)</stEvt:softwareAgent>
                  <stEvt:changed>/metadata</stEvt:changed>
               </rdf:li>
               <rdf:li rdf:parseType="Resource">
                  <stEvt:action>saved</stEvt:action>
                  <stEvt:instanceID>xmp.iid:D34FEB46DD8BE511BD2393021AEACAE4</stEvt:instanceID>
                  <stEvt:when>2015-11-15T16:10:19-05:00</stEvt:when>
                  <stEvt:softwareAgent>Adobe Audition CS6 (Windows)</stEvt:softwareAgent>
                  <stEvt:changed>/</stEvt:changed>
               </rdf:li>
               <rdf:li rdf:parseType="Resource">
                  <stEvt:action>saved</stEvt:action>
                  <stEvt:instanceID>xmp.iid:DA4FEB46DD8BE511BD2393021AEACAE4</stEvt:instanceID>
                  <stEvt:when>2015-11-15T16:12:02-05:00</stEvt:when>
                  <stEvt:softwareAgent>Adobe Audition CS6 (Windows)</stEvt:softwareAgent>
                  <stEvt:changed>/metadata</stEvt:changed>
               </rdf:li>
               <rdf:li rdf:parseType="Resource">
                  <stEvt:action>saved</stEvt:action>
                  <stEvt:instanceID>xmp.iid:DB4FEB46DD8BE511BD2393021AEACAE4</stEvt:instanceID>
                  <stEvt:when>2015-11-15T16:12:02-05:00</stEvt:when>
                  <stEvt:softwareAgent>Adobe Audition CS6 (Windows)</stEvt:softwareAgent>
                  <stEvt:changed>/</stEvt:changed>
               </rdf:li>
               <rdf:li rdf:parseType="Resource">
                  <stEvt:action>saved</stEvt:action>
                  <stEvt:instanceID>xmp.iid:DC4FEB46DD8BE511BD2393021AEACAE4</stEvt:instanceID>
                  <stEvt:when>2015-11-15T16:14:03-05:00</stEvt:when>
                  <stEvt:softwareAgent>Adobe Audition CS6 (Windows)</stEvt:softwareAgent>
                  <stEvt:changed>/metadata</stEvt:changed>
               </rdf:li>
               <rdf:li rdf:parseType="Resource">
                  <stEvt:action>saved</stEvt:action>
                  <stEvt:instanceID>xmp.iid:DD4FEB46DD8BE511BD2393021AEACAE4</stEvt:instanceID>
                  <stEvt:when>2015-11-15T16:14:03-05:00</stEvt:when>
                  <stEvt:softwareAgent>Adobe Audition CS6 (Windows)</stEvt:softwareAgent>
                  <stEvt:changed>/</stEvt:changed>
               </rdf:li>
               <rdf:li rdf:parseType="Resource">
                  <stEvt:action>saved</stEvt:action>
                  <stEvt:instanceID>xmp.iid:B3267489DE8BE511BD2393021AEACAE4</stEvt:instanceID>
                  <stEvt:when>2015-11-15T16:19:20-05:00</stEvt:when>
                  <stEvt:softwareAgent>Adobe Audition CS6 (Windows)</stEvt:softwareAgent>
                  <stEvt:changed>/metadata</stEvt:changed>
               </rdf:li>
               <rdf:li rdf:parseType="Resource">
                  <stEvt:action>saved</stEvt:action>
                  <stEvt:instanceID>xmp.iid:B4267489DE8BE511BD2393021AEACAE4</stEvt:instanceID>
                  <stEvt:when>2015-11-15T16:19:20-05:00</stEvt:when>
                  <stEvt:softwareAgent>Adobe Audition CS6 (Windows)</stEvt:softwareAgent>
                  <stEvt:changed>/</stEvt:changed>
               </rdf:li>
               <rdf:li rdf:parseType="Resource">
                  <stEvt:action>saved</stEvt:action>
                  <stEvt:instanceID>xmp.iid:B5267489DE8BE511BD2393021AEACAE4</stEvt:instanceID>
                  <stEvt:when>2015-11-15T16:20:27-05:00</stEvt:when>
                  <stEvt:softwareAgent>Adobe Audition CS6 (Windows)</stEvt:softwareAgent>
                  <stEvt:changed>/metadata</stEvt:changed>
               </rdf:li>
               <rdf:li rdf:parseType="Resource">
                  <stEvt:action>saved</stEvt:action>
                  <stEvt:instanceID>xmp.iid:B6267489DE8BE511BD2393021AEACAE4</stEvt:instanceID>
                  <stEvt:when>2015-11-15T16:20:27-05:00</stEvt:when>
                  <stEvt:softwareAgent>Adobe Audition CS6 (Windows)</stEvt:softwareAgent>
                  <stEvt:changed>/</stEvt:changed>
               </rdf:li>
               <rdf:li rdf:parseType="Resource">
                  <stEvt:action>saved</stEvt:action>
                  <stEvt:instanceID>xmp.iid:B7267489DE8BE511BD2393021AEACAE4</stEvt:instanceID>
                  <stEvt:when>2015-11-15T16:30:49-05:00</stEvt:when>
                  <stEvt:softwareAgent>Adobe Audition CS6 (Windows)</stEvt:softwareAgent>
                  <stEvt:changed>/metadata</stEvt:changed>
               </rdf:li>
               <rdf:li rdf:parseType="Resource">
                  <stEvt:action>saved</stEvt:action>
                  <stEvt:instanceID>xmp.iid:B8267489DE8BE511BD2393021AEACAE4</stEvt:instanceID>
                  <stEvt:when>2015-11-15T16:30:49-05:00</stEvt:when>
                  <stEvt:softwareAgent>Adobe Audition CS6 (Windows)</stEvt:softwareAgent>
                  <stEvt:changed>/</stEvt:changed>
               </rdf:li>
               <rdf:li rdf:parseType="Resource">
                  <stEvt:action>saved</stEvt:action>
                  <stEvt:instanceID>xmp.iid:BB267489DE8BE511BD2393021AEACAE4</stEvt:instanceID>
                  <stEvt:when>2015-11-15T18:55-05:00</stEvt:when>
                  <stEvt:softwareAgent>Adobe Audition CS6 (Windows)</stEvt:softwareAgent>
                  <stEvt:changed>/metadata</stEvt:changed>
               </rdf:li>
               <rdf:li rdf:parseType="Resource">
                  <stEvt:action>saved</stEvt:action>
                  <stEvt:instanceID>xmp.iid:BC267489DE8BE511BD2393021AEACAE4</stEvt:instanceID>
                  <stEvt:when>2015-11-15T18:55-05:00</stEvt:when>
                  <stEvt:softwareAgent>Adobe Audition CS6 (Windows)</stEvt:softwareAgent>
                  <stEvt:changed>/</stEvt:changed>
               </rdf:li>
               <rdf:li rdf:parseType="Resource">
                  <stEvt:action>saved</stEvt:action>
                  <stEvt:instanceID>xmp.iid:BD267489DE8BE511BD2393021AEACAE4</stEvt:instanceID>
                  <stEvt:when>2015-11-15T19:06:15-05:00</stEvt:when>
                  <stEvt:softwareAgent>Adobe Audition CS6 (Windows)</stEvt:softwareAgent>
                  <stEvt:changed>/metadata</stEvt:changed>
               </rdf:li>
               <rdf:li rdf:parseType="Resource">
                  <stEvt:action>saved</stEvt:action>
                  <stEvt:instanceID>xmp.iid:39D772DAF58BE511BD2393021AEACAE4</stEvt:instanceID>
                  <stEvt:when>2015-11-15T19:06:15-05:00</stEvt:when>
                  <stEvt:softwareAgent>Adobe Audition CS6 (Windows)</stEvt:softwareAgent>
                  <stEvt:changed>/</stEvt:changed>
               </rdf:li>
               <rdf:li rdf:parseType="Resource">
                  <stEvt:action>saved</stEvt:action>
                  <stEvt:instanceID>xmp.iid:3AD772DAF58BE511BD2393021AEACAE4</stEvt:instanceID>
                  <stEvt:when>2015-11-15T19:16:45-05:00</stEvt:when>
                  <stEvt:softwareAgent>Adobe Audition CS6 (Windows)</stEvt:softwareAgent>
                  <stEvt:changed>/metadata</stEvt:changed>
               </rdf:li>
               <rdf:li rdf:parseType="Resource">
                  <stEvt:action>saved</stEvt:action>
                  <stEvt:instanceID>xmp.iid:3BD772DAF58BE511BD2393021AEACAE4</stEvt:instanceID>
                  <stEvt:when>2015-11-15T19:16:45-05:00</stEvt:when>
                  <stEvt:softwareAgent>Adobe Audition CS6 (Windows)</stEvt:softwareAgent>
                  <stEvt:changed>/</stEvt:changed>
               </rdf:li>
               <rdf:li rdf:parseType="Resource">
                  <stEvt:action>saved</stEvt:action>
                  <stEvt:instanceID>xmp.iid:3ED772DAF58BE511BD2393021AEACAE4</stEvt:instanceID>
                  <stEvt:when>2015-11-15T19:25:17-05:00</stEvt:when>
                  <stEvt:softwareAgent>Adobe Audition CS6 (Windows)</stEvt:softwareAgent>
                  <stEvt:changed>/metadata</stEvt:changed>
               </rdf:li>
               <rdf:li rdf:parseType="Resource">
                  <stEvt:action>saved</stEvt:action>
                  <stEvt:instanceID>xmp.iid:3FD772DAF58BE511BD2393021AEACAE4</stEvt:instanceID>
                  <stEvt:when>2015-11-15T19:25:17-05:00</stEvt:when>
                  <stEvt:softwareAgent>Adobe Audition CS6 (Windows)</stEvt:softwareAgent>
                  <stEvt:changed>/</stEvt:changed>
               </rdf:li>
               <rdf:li rdf:parseType="Resource">
                  <stEvt:action>saved</stEvt:action>
                  <stEvt:instanceID>xmp.iid:40D772DAF58BE511BD2393021AEACAE4</stEvt:instanceID>
                  <stEvt:when>2015-11-15T19:36:16-05:00</stEvt:when>
                  <stEvt:softwareAgent>Adobe Audition CS6 (Windows)</stEvt:softwareAgent>
                  <stEvt:changed>/metadata</stEvt:changed>
               </rdf:li>
               <rdf:li rdf:parseType="Resource">
                  <stEvt:action>saved</stEvt:action>
                  <stEvt:instanceID>xmp.iid:41D772DAF58BE511BD2393021AEACAE4</stEvt:instanceID>
                  <stEvt:when>2015-11-15T19:36:16-05:00</stEvt:when>
                  <stEvt:softwareAgent>Adobe Audition CS6 (Windows)</stEvt:softwareAgent>
                  <stEvt:changed>/</stEvt:changed>
               </rdf:li>
               <rdf:li rdf:parseType="Resource">
                  <stEvt:action>saved</stEvt:action>
                  <stEvt:instanceID>xmp.iid:E57751D3FA8BE511BD2393021AEACAE4</stEvt:instanceID>
                  <stEvt:when>2015-11-15T19:41:50-05:00</stEvt:when>
                  <stEvt:softwareAgent>Adobe Audition CS6 (Windows)</stEvt:softwareAgent>
                  <stEvt:changed>/metadata</stEvt:changed>
               </rdf:li>
               <rdf:li rdf:parseType="Resource">
                  <stEvt:action>saved</stEvt:action>
                  <stEvt:instanceID>xmp.iid:E67751D3FA8BE511BD2393021AEACAE4</stEvt:instanceID>
                  <stEvt:when>2015-11-15T19:41:50-05:00</stEvt:when>
                  <stEvt:softwareAgent>Adobe Audition CS6 (Windows)</stEvt:softwareAgent>
                  <stEvt:changed>/</stEvt:changed>
               </rdf:li>
               <rdf:li rdf:parseType="Resource">
                  <stEvt:action>saved</stEvt:action>
                  <stEvt:instanceID>xmp.iid:E97751D3FA8BE511BD2393021AEACAE4</stEvt:instanceID>
                  <stEvt:when>2015-11-15T19:44:11-05:00</stEvt:when>
                  <stEvt:softwareAgent>Adobe Audition CS6 (Windows)</stEvt:softwareAgent>
                  <stEvt:changed>/metadata</stEvt:changed>
               </rdf:li>
               <rdf:li rdf:parseType="Resource">
                  <stEvt:action>saved</stEvt:action>
                  <stEvt:instanceID>xmp.iid:EA7751D3FA8BE511BD2393021AEACAE4</stEvt:instanceID>
                  <stEvt:when>2015-11-15T19:44:11-05:00</stEvt:when>
                  <stEvt:softwareAgent>Adobe Audition CS6 (Windows)</stEvt:softwareAgent>
                  <stEvt:changed>/</stEvt:changed>
               </rdf:li>
               <rdf:li rdf:parseType="Resource">
                  <stEvt:action>saved</stEvt:action>
                  <stEvt:instanceID>xmp.iid:EB7751D3FA8BE511BD2393021AEACAE4</stEvt:instanceID>
                  <stEvt:when>2015-11-15T19:55:16-05:00</stEvt:when>
                  <stEvt:softwareAgent>Adobe Audition CS6 (Windows)</stEvt:softwareAgent>
                  <stEvt:changed>/metadata</stEvt:changed>
               </rdf:li>
               <rdf:li rdf:parseType="Resource">
                  <stEvt:action>saved</stEvt:action>
                  <stEvt:instanceID>xmp.iid:EC7751D3FA8BE511BD2393021AEACAE4</stEvt:instanceID>
                  <stEvt:when>2015-11-15T19:55:16-05:00</stEvt:when>
                  <stEvt:softwareAgent>Adobe Audition CS6 (Windows)</stEvt:softwareAgent>
                  <stEvt:changed>/</stEvt:changed>
               </rdf:li>
               <rdf:li rdf:parseType="Resource">
                  <stEvt:action>saved</stEvt:action>
                  <stEvt:instanceID>xmp.iid:EF7751D3FA8BE511BD2393021AEACAE4</stEvt:instanceID>
                  <stEvt:when>2015-11-15T20:01:34-05:00</stEvt:when>
                  <stEvt:softwareAgent>Adobe Audition CS6 (Windows)</stEvt:softwareAgent>
                  <stEvt:changed>/metadata</stEvt:changed>
               </rdf:li>
               <rdf:li rdf:parseType="Resource">
                  <stEvt:action>saved</stEvt:action>
                  <stEvt:instanceID>xmp.iid:39DDD194FD8BE511BD2393021AEACAE4</stEvt:instanceID>
                  <stEvt:when>2015-11-15T20:01:34-05:00</stEvt:when>
                  <stEvt:softwareAgent>Adobe Audition CS6 (Windows)</stEvt:softwareAgent>
                  <stEvt:changed>/</stEvt:changed>
               </rdf:li>
               <rdf:li rdf:parseType="Resource">
                  <stEvt:action>saved</stEvt:action>
                  <stEvt:instanceID>xmp.iid:3CDDD194FD8BE511BD2393021AEACAE4</stEvt:instanceID>
                  <stEvt:when>2015-11-15T20:11:06-05:00</stEvt:when>
                  <stEvt:softwareAgent>Adobe Audition CS6 (Windows)</stEvt:softwareAgent>
                  <stEvt:changed>/metadata</stEvt:changed>
               </rdf:li>
               <rdf:li rdf:parseType="Resource">
                  <stEvt:action>saved</stEvt:action>
                  <stEvt:instanceID>xmp.iid:3DDDD194FD8BE511BD2393021AEACAE4</stEvt:instanceID>
                  <stEvt:when>2015-11-15T20:11:06-05:00</stEvt:when>
                  <stEvt:softwareAgent>Adobe Audition CS6 (Windows)</stEvt:softwareAgent>
                  <stEvt:changed>/</stEvt:changed>
               </rdf:li>
               <rdf:li rdf:parseType="Resource">
                  <stEvt:action>saved</stEvt:action>
                  <stEvt:instanceID>xmp.iid:3EDDD194FD8BE511BD2393021AEACAE4</stEvt:instanceID>
                  <stEvt:when>2015-11-15T20:14:26-05:00</stEvt:when>
                  <stEvt:softwareAgent>Adobe Audition CS6 (Windows)</stEvt:softwareAgent>
                  <stEvt:changed>/metadata</stEvt:changed>
               </rdf:li>
               <rdf:li rdf:parseType="Resource">
                  <stEvt:action>saved</stEvt:action>
                  <stEvt:instanceID>xmp.iid:3FDDD194FD8BE511BD2393021AEACAE4</stEvt:instanceID>
                  <stEvt:when>2015-11-15T20:14:26-05:00</stEvt:when>
                  <stEvt:softwareAgent>Adobe Audition CS6 (Windows)</stEvt:softwareAgent>
                  <stEvt:changed>/</stEvt:changed>
               </rdf:li>
               <rdf:li rdf:parseType="Resource">
                  <stEvt:action>saved</stEvt:action>
                  <stEvt:instanceID>xmp.iid:42DDD194FD8BE511BD2393021AEACAE4</stEvt:instanceID>
                  <stEvt:when>2015-11-15T20:18:18-05:00</stEvt:when>
                  <stEvt:softwareAgent>Adobe Audition CS6 (Windows)</stEvt:softwareAgent>
                  <stEvt:changed>/metadata</stEvt:changed>
               </rdf:li>
               <rdf:li rdf:parseType="Resource">
                  <stEvt:action>saved</stEvt:action>
                  <stEvt:instanceID>xmp.iid:43DDD194FD8BE511BD2393021AEACAE4</stEvt:instanceID>
                  <stEvt:when>2015-11-15T20:18:18-05:00</stEvt:when>
                  <stEvt:softwareAgent>Adobe Audition CS6 (Windows)</stEvt:softwareAgent>
                  <stEvt:changed>/</stEvt:changed>
               </rdf:li>
               <rdf:li rdf:parseType="Resource">
                  <stEvt:action>saved</stEvt:action>
                  <stEvt:instanceID>xmp.iid:31F39932008CE511BD2393021AEACAE4</stEvt:instanceID>
                  <stEvt:when>2015-11-15T20:20:18-05:00</stEvt:when>
                  <stEvt:softwareAgent>Adobe Audition CS6 (Windows)</stEvt:softwareAgent>
                  <stEvt:changed>/metadata</stEvt:changed>
               </rdf:li>
               <rdf:li rdf:parseType="Resource">
                  <stEvt:action>saved</stEvt:action>
                  <stEvt:instanceID>xmp.iid:32F39932008CE511BD2393021AEACAE4</stEvt:instanceID>
                  <stEvt:when>2015-11-15T20:20:18-05:00</stEvt:when>
                  <stEvt:softwareAgent>Adobe Audition CS6 (Windows)</stEvt:softwareAgent>
                  <stEvt:changed>/</stEvt:changed>
               </rdf:li>
               <rdf:li rdf:parseType="Resource">
                  <stEvt:action>saved</stEvt:action>
                  <stEvt:instanceID>xmp.iid:35F39932008CE511BD2393021AEACAE4</stEvt:instanceID>
                  <stEvt:when>2015-11-15T20:24:05-05:00</stEvt:when>
                  <stEvt:softwareAgent>Adobe Audition CS6 (Windows)</stEvt:softwareAgent>
                  <stEvt:changed>/metadata</stEvt:changed>
               </rdf:li>
               <rdf:li rdf:parseType="Resource">
                  <stEvt:action>saved</stEvt:action>
                  <stEvt:instanceID>xmp.iid:36F39932008CE511BD2393021AEACAE4</stEvt:instanceID>
                  <stEvt:when>2015-11-15T20:24:05-05:00</stEvt:when>
                  <stEvt:softwareAgent>Adobe Audition CS6 (Windows)</stEvt:softwareAgent>
                  <stEvt:changed>/</stEvt:changed>
               </rdf:li>
               <rdf:li rdf:parseType="Resource">
                  <stEvt:action>saved</stEvt:action>
                  <stEvt:instanceID>xmp.iid:37F39932008CE511BD2393021AEACAE4</stEvt:instanceID>
                  <stEvt:when>2015-11-15T20:34:16-05:00</stEvt:when>
                  <stEvt:softwareAgent>Adobe Audition CS6 (Windows)</stEvt:softwareAgent>
                  <stEvt:changed>/metadata</stEvt:changed>
               </rdf:li>
               <rdf:li rdf:parseType="Resource">
                  <stEvt:action>saved</stEvt:action>
                  <stEvt:instanceID>xmp.iid:38F39932008CE511BD2393021AEACAE4</stEvt:instanceID>
                  <stEvt:when>2015-11-15T20:34:16-05:00</stEvt:when>
                  <stEvt:softwareAgent>Adobe Audition CS6 (Windows)</stEvt:softwareAgent>
                  <stEvt:changed>/</stEvt:changed>
               </rdf:li>
               <rdf:li rdf:parseType="Resource">
                  <stEvt:action>saved</stEvt:action>
                  <stEvt:instanceID>xmp.iid:39F39932008CE511BD2393021AEACAE4</stEvt:instanceID>
                  <stEvt:when>2015-11-15T20:44:47-05:00</stEvt:when>
                  <stEvt:softwareAgent>Adobe Audition CS6 (Windows)</stEvt:softwareAgent>
                  <stEvt:changed>/metadata</stEvt:changed>
               </rdf:li>
               <rdf:li rdf:parseType="Resource">
                  <stEvt:action>saved</stEvt:action>
                  <stEvt:instanceID>xmp.iid:3AF39932008CE511BD2393021AEACAE4</stEvt:instanceID>
                  <stEvt:when>2015-11-15T20:44:47-05:00</stEvt:when>
                  <stEvt:softwareAgent>Adobe Audition CS6 (Windows)</stEvt:softwareAgent>
                  <stEvt:changed>/</stEvt:changed>
               </rdf:li>
               <rdf:li rdf:parseType="Resource">
                  <stEvt:action>saved</stEvt:action>
                  <stEvt:instanceID>xmp.iid:3BF39932008CE511BD2393021AEACAE4</stEvt:instanceID>
                  <stEvt:when>2015-11-15T20:55:17-05:00</stEvt:when>
                  <stEvt:softwareAgent>Adobe Audition CS6 (Windows)</stEvt:softwareAgent>
                  <stEvt:changed>/metadata</stEvt:changed>
               </rdf:li>
               <rdf:li rdf:parseType="Resource">
                  <stEvt:action>saved</stEvt:action>
                  <stEvt:instanceID>xmp.iid:1601BB15058CE511BD2393021AEACAE4</stEvt:instanceID>
                  <stEvt:when>2015-11-15T20:55:17-05:00</stEvt:when>
                  <stEvt:softwareAgent>Adobe Audition CS6 (Windows)</stEvt:softwareAgent>
                  <stEvt:changed>/</stEvt:changed>
               </rdf:li>
               <rdf:li rdf:parseType="Resource">
                  <stEvt:action>saved</stEvt:action>
                  <stEvt:instanceID>xmp.iid:1701BB15058CE511BD2393021AEACAE4</stEvt:instanceID>
                  <stEvt:when>2015-11-15T21:05:47-05:00</stEvt:when>
                  <stEvt:softwareAgent>Adobe Audition CS6 (Windows)</stEvt:softwareAgent>
                  <stEvt:changed>/metadata</stEvt:changed>
               </rdf:li>
               <rdf:li rdf:parseType="Resource">
                  <stEvt:action>saved</stEvt:action>
                  <stEvt:instanceID>xmp.iid:1801BB15058CE511BD2393021AEACAE4</stEvt:instanceID>
                  <stEvt:when>2015-11-15T21:05:47-05:00</stEvt:when>
                  <stEvt:softwareAgent>Adobe Audition CS6 (Windows)</stEvt:softwareAgent>
                  <stEvt:changed>/</stEvt:changed>
               </rdf:li>
               <rdf:li rdf:parseType="Resource">
                  <stEvt:action>saved</stEvt:action>
                  <stEvt:instanceID>xmp.iid:1F01BB15058CE511BD2393021AEACAE4</stEvt:instanceID>
                  <stEvt:when>2015-11-15T21:11:35-05:00</stEvt:when>
                  <stEvt:softwareAgent>Adobe Audition CS6 (Windows)</stEvt:softwareAgent>
                  <stEvt:changed>/metadata</stEvt:changed>
               </rdf:li>
               <rdf:li rdf:parseType="Resource">
                  <stEvt:action>saved</stEvt:action>
                  <stEvt:instanceID>xmp.iid:2001BB15058CE511BD2393021AEACAE4</stEvt:instanceID>
                  <stEvt:when>2015-11-15T21:11:35-05:00</stEvt:when>
                  <stEvt:softwareAgent>Adobe Audition CS6 (Windows)</stEvt:softwareAgent>
                  <stEvt:changed>/</stEvt:changed>
               </rdf:li>
               <rdf:li rdf:parseType="Resource">
                  <stEvt:action>saved</stEvt:action>
                  <stEvt:instanceID>xmp.iid:545E0A5D078CE511BD2393021AEACAE4</stEvt:instanceID>
                  <stEvt:when>2015-11-15T21:24:47-05:00</stEvt:when>
                  <stEvt:softwareAgent>Adobe Audition CS6 (Windows)</stEvt:softwareAgent>
                  <stEvt:changed>/metadata</stEvt:changed>
               </rdf:li>
               <rdf:li rdf:parseType="Resource">
                  <stEvt:action>saved</stEvt:action>
                  <stEvt:instanceID>xmp.iid:555E0A5D078CE511BD2393021AEACAE4</stEvt:instanceID>
                  <stEvt:when>2015-11-15T21:24:47-05:00</stEvt:when>
                  <stEvt:softwareAgent>Adobe Audition CS6 (Windows)</stEvt:softwareAgent>
                  <stEvt:changed>/</stEvt:changed>
               </rdf:li>
               <rdf:li rdf:parseType="Resource">
                  <stEvt:action>saved</stEvt:action>
                  <stEvt:instanceID>xmp.iid:565E0A5D078CE511BD2393021AEACAE4</stEvt:instanceID>
                  <stEvt:when>2015-11-15T21:35:17-05:00</stEvt:when>
                  <stEvt:softwareAgent>Adobe Audition CS6 (Windows)</stEvt:softwareAgent>
                  <stEvt:changed>/metadata</stEvt:changed>
               </rdf:li>
               <rdf:li rdf:parseType="Resource">
                  <stEvt:action>saved</stEvt:action>
                  <stEvt:instanceID>xmp.iid:575E0A5D078CE511BD2393021AEACAE4</stEvt:instanceID>
                  <stEvt:when>2015-11-15T21:35:17-05:00</stEvt:when>
                  <stEvt:softwareAgent>Adobe Audition CS6 (Windows)</stEvt:softwareAgent>
                  <stEvt:changed>/</stEvt:changed>
               </rdf:li>
               <rdf:li rdf:parseType="Resource">
                  <stEvt:action>saved</stEvt:action>
                  <stEvt:instanceID>xmp.iid:5222C4FC0B8CE511BD2393021AEACAE4</stEvt:instanceID>
                  <stEvt:when>2015-11-15T21:44:41-05:00</stEvt:when>
                  <stEvt:softwareAgent>Adobe Audition CS6 (Windows)</stEvt:softwareAgent>
                  <stEvt:changed>/metadata</stEvt:changed>
               </rdf:li>
               <rdf:li rdf:parseType="Resource">
                  <stEvt:action>saved</stEvt:action>
                  <stEvt:instanceID>xmp.iid:5322C4FC0B8CE511BD2393021AEACAE4</stEvt:instanceID>
                  <stEvt:when>2015-11-15T21:44:41-05:00</stEvt:when>
                  <stEvt:softwareAgent>Adobe Audition CS6 (Windows)</stEvt:softwareAgent>
                  <stEvt:changed>/</stEvt:changed>
               </rdf:li>
               <rdf:li rdf:parseType="Resource">
                  <stEvt:action>saved</stEvt:action>
                  <stEvt:instanceID>xmp.iid:5422C4FC0B8CE511BD2393021AEACAE4</stEvt:instanceID>
                  <stEvt:when>2015-11-15T21:46:43-05:00</stEvt:when>
                  <stEvt:softwareAgent>Adobe Audition CS6 (Windows)</stEvt:softwareAgent>
                  <stEvt:changed>/metadata</stEvt:changed>
               </rdf:li>
               <rdf:li rdf:parseType="Resource">
                  <stEvt:action>saved</stEvt:action>
                  <stEvt:instanceID>xmp.iid:5522C4FC0B8CE511BD2393021AEACAE4</stEvt:instanceID>
                  <stEvt:when>2015-11-15T21:46:43-05:00</stEvt:when>
                  <stEvt:softwareAgent>Adobe Audition CS6 (Windows)</stEvt:softwareAgent>
                  <stEvt:changed>/</stEvt:changed>
               </rdf:li>
               <rdf:li rdf:parseType="Resource">
                  <stEvt:action>saved</stEvt:action>
                  <stEvt:instanceID>xmp.iid:5622C4FC0B8CE511BD2393021AEACAE4</stEvt:instanceID>
                  <stEvt:when>2015-11-15T21:56:47-05:00</stEvt:when>
                  <stEvt:softwareAgent>Adobe Audition CS6 (Windows)</stEvt:softwareAgent>
                  <stEvt:changed>/metadata</stEvt:changed>
               </rdf:li>
               <rdf:li rdf:parseType="Resource">
                  <stEvt:action>saved</stEvt:action>
                  <stEvt:instanceID>xmp.iid:5722C4FC0B8CE511BD2393021AEACAE4</stEvt:instanceID>
                  <stEvt:when>2015-11-15T21:56:47-05:00</stEvt:when>
                  <stEvt:softwareAgent>Adobe Audition CS6 (Windows)</stEvt:softwareAgent>
                  <stEvt:changed>/</stEvt:changed>
               </rdf:li>
               <rdf:li rdf:parseType="Resource">
                  <stEvt:action>saved</stEvt:action>
                  <stEvt:instanceID>xmp.iid:1A9B04E80D8CE511BD2393021AEACAE4</stEvt:instanceID>
                  <stEvt:when>2015-11-15T21:58:25-05:00</stEvt:when>
                  <stEvt:softwareAgent>Adobe Audition CS6 (Windows)</stEvt:softwareAgent>
                  <stEvt:changed>/metadata</stEvt:changed>
               </rdf:li>
               <rdf:li rdf:parseType="Resource">
                  <stEvt:action>saved</stEvt:action>
                  <stEvt:instanceID>xmp.iid:1B9B04E80D8CE511BD2393021AEACAE4</stEvt:instanceID>
                  <stEvt:when>2015-11-15T21:58:25-05:00</stEvt:when>
                  <stEvt:softwareAgent>Adobe Audition CS6 (Windows)</stEvt:softwareAgent>
                  <stEvt:changed>/</stEvt:changed>
               </rdf:li>
               <rdf:li rdf:parseType="Resource">
                  <stEvt:action>saved</stEvt:action>
                  <stEvt:instanceID>xmp.iid:1E9B04E80D8CE511BD2393021AEACAE4</stEvt:instanceID>
                  <stEvt:when>2015-11-15T22:08:15-05:00</stEvt:when>
                  <stEvt:softwareAgent>Adobe Audition CS6 (Windows)</stEvt:softwareAgent>
                  <stEvt:changed>/metadata</stEvt:changed>
               </rdf:li>
               <rdf:li rdf:parseType="Resource">
                  <stEvt:action>saved</stEvt:action>
                  <stEvt:instanceID>xmp.iid:1F9B04E80D8CE511BD2393021AEACAE4</stEvt:instanceID>
                  <stEvt:when>2015-11-15T22:08:15-05:00</stEvt:when>
                  <stEvt:softwareAgent>Adobe Audition CS6 (Windows)</stEvt:softwareAgent>
                  <stEvt:changed>/</stEvt:changed>
               </rdf:li>
               <rdf:li rdf:parseType="Resource">
                  <stEvt:action>saved</stEvt:action>
                  <stEvt:instanceID>xmp.iid:209B04E80D8CE511BD2393021AEACAE4</stEvt:instanceID>
                  <stEvt:when>2015-11-15T22:10:48-05:00</stEvt:when>
                  <stEvt:softwareAgent>Adobe Audition CS6 (Windows)</stEvt:softwareAgent>
                  <stEvt:changed>/metadata</stEvt:changed>
               </rdf:li>
               <rdf:li rdf:parseType="Resource">
                  <stEvt:action>saved</stEvt:action>
                  <stEvt:instanceID>xmp.iid:219B04E80D8CE511BD2393021AEACAE4</stEvt:instanceID>
                  <stEvt:when>2015-11-15T22:10:48-05:00</stEvt:when>
                  <stEvt:softwareAgent>Adobe Audition CS6 (Windows)</stEvt:softwareAgent>
                  <stEvt:changed>/</stEvt:changed>
               </rdf:li>
               <rdf:li rdf:parseType="Resource">
                  <stEvt:action>saved</stEvt:action>
                  <stEvt:instanceID>xmp.iid:E858D90E118CE511ABAB9C98A36D2D57</stEvt:instanceID>
                  <stEvt:when>2015-11-15T22:21:03-05:00</stEvt:when>
                  <stEvt:softwareAgent>Adobe Audition CS6 (Windows)</stEvt:softwareAgent>
                  <stEvt:changed>/metadata</stEvt:changed>
               </rdf:li>
               <rdf:li rdf:parseType="Resource">
                  <stEvt:action>saved</stEvt:action>
                  <stEvt:instanceID>xmp.iid:E958D90E118CE511ABAB9C98A36D2D57</stEvt:instanceID>
                  <stEvt:when>2015-11-15T22:21:03-05:00</stEvt:when>
                  <stEvt:softwareAgent>Adobe Audition CS6 (Windows)</stEvt:softwareAgent>
                  <stEvt:changed>/</stEvt:changed>
               </rdf:li>
               <rdf:li rdf:parseType="Resource">
                  <stEvt:action>saved</stEvt:action>
                  <stEvt:instanceID>xmp.iid:E410DFC9118CE511ABAB9C98A36D2D57</stEvt:instanceID>
                  <stEvt:when>2015-11-15T22:26:13-05:00</stEvt:when>
                  <stEvt:softwareAgent>Adobe Audition CS6 (Windows)</stEvt:softwareAgent>
                  <stEvt:changed>/metadata</stEvt:changed>
               </rdf:li>
               <rdf:li rdf:parseType="Resource">
                  <stEvt:action>saved</stEvt:action>
                  <stEvt:instanceID>xmp.iid:E510DFC9118CE511ABAB9C98A36D2D57</stEvt:instanceID>
                  <stEvt:when>2015-11-15T22:26:13-05:00</stEvt:when>
                  <stEvt:softwareAgent>Adobe Audition CS6 (Windows)</stEvt:softwareAgent>
                  <stEvt:changed>/</stEvt:changed>
               </rdf:li>
               <rdf:li rdf:parseType="Resource">
                  <stEvt:action>saved</stEvt:action>
                  <stEvt:instanceID>xmp.iid:EA10DFC9118CE511ABAB9C98A36D2D57</stEvt:instanceID>
                  <stEvt:when>2015-11-15T22:30:31-05:00</stEvt:when>
                  <stEvt:softwareAgent>Adobe Audition CS6 (Windows)</stEvt:softwareAgent>
                  <stEvt:changed>/metadata</stEvt:changed>
               </rdf:li>
               <rdf:li rdf:parseType="Resource">
                  <stEvt:action>saved</stEvt:action>
                  <stEvt:instanceID>xmp.iid:EB10DFC9118CE511ABAB9C98A36D2D57</stEvt:instanceID>
                  <stEvt:when>2015-11-15T22:30:31-05:00</stEvt:when>
                  <stEvt:softwareAgent>Adobe Audition CS6 (Windows)</stEvt:softwareAgent>
                  <stEvt:changed>/</stEvt:changed>
               </rdf:li>
               <rdf:li rdf:parseType="Resource">
                  <stEvt:action>saved</stEvt:action>
                  <stEvt:instanceID>xmp.iid:E56D11A6128CE511B531B50981BAF4CB</stEvt:instanceID>
                  <stEvt:when>2015-11-15T22:32:26-05:00</stEvt:when>
                  <stEvt:softwareAgent>Adobe Audition CS6 (Windows)</stEvt:softwareAgent>
                  <stEvt:changed>/metadata</stEvt:changed>
               </rdf:li>
               <rdf:li rdf:parseType="Resource">
                  <stEvt:action>saved</stEvt:action>
                  <stEvt:instanceID>xmp.iid:E66D11A6128CE511B531B50981BAF4CB</stEvt:instanceID>
                  <stEvt:when>2015-11-15T22:32:26-05:00</stEvt:when>
                  <stEvt:softwareAgent>Adobe Audition CS6 (Windows)</stEvt:softwareAgent>
                  <stEvt:changed>/</stEvt:changed>
               </rdf:li>
               <rdf:li rdf:parseType="Resource">
                  <stEvt:action>saved</stEvt:action>
                  <stEvt:instanceID>xmp.iid:7821B4A9138CE511B531B50981BAF4CB</stEvt:instanceID>
                  <stEvt:when>2015-11-15T22:39:38-05:00</stEvt:when>
                  <stEvt:softwareAgent>Adobe Audition CS6 (Windows)</stEvt:softwareAgent>
                  <stEvt:changed>/metadata</stEvt:changed>
               </rdf:li>
               <rdf:li rdf:parseType="Resource">
                  <stEvt:action>saved</stEvt:action>
                  <stEvt:instanceID>xmp.iid:7921B4A9138CE511B531B50981BAF4CB</stEvt:instanceID>
                  <stEvt:when>2015-11-15T22:39:38-05:00</stEvt:when>
                  <stEvt:softwareAgent>Adobe Audition CS6 (Windows)</stEvt:softwareAgent>
                  <stEvt:changed>/</stEvt:changed>
               </rdf:li>
               <rdf:li rdf:parseType="Resource">
                  <stEvt:action>saved</stEvt:action>
                  <stEvt:instanceID>xmp.iid:8021B4A9138CE511B531B50981BAF4CB</stEvt:instanceID>
                  <stEvt:when>2015-11-15T22:46:53-05:00</stEvt:when>
                  <stEvt:softwareAgent>Adobe Audition CS6 (Windows)</stEvt:softwareAgent>
                  <stEvt:changed>/metadata</stEvt:changed>
               </rdf:li>
               <rdf:li rdf:parseType="Resource">
                  <stEvt:action>saved</stEvt:action>
                  <stEvt:instanceID>xmp.iid:8121B4A9138CE511B531B50981BAF4CB</stEvt:instanceID>
                  <stEvt:when>2015-11-15T22:46:53-05:00</stEvt:when>
                  <stEvt:softwareAgent>Adobe Audition CS6 (Windows)</stEvt:softwareAgent>
                  <stEvt:changed>/</stEvt:changed>
               </rdf:li>
               <rdf:li rdf:parseType="Resource">
                  <stEvt:action>saved</stEvt:action>
                  <stEvt:instanceID>xmp.iid:C63A1A4E158CE511B531B50981BAF4CB</stEvt:instanceID>
                  <stEvt:when>2015-11-15T22:54:05-05:00</stEvt:when>
                  <stEvt:softwareAgent>Adobe Audition CS6 (Windows)</stEvt:softwareAgent>
                  <stEvt:changed>/metadata</stEvt:changed>
               </rdf:li>
               <rdf:li rdf:parseType="Resource">
                  <stEvt:action>saved</stEvt:action>
                  <stEvt:instanceID>xmp.iid:C73A1A4E158CE511B531B50981BAF4CB</stEvt:instanceID>
                  <stEvt:when>2015-11-15T22:54:05-05:00</stEvt:when>
                  <stEvt:softwareAgent>Adobe Audition CS6 (Windows)</stEvt:softwareAgent>
                  <stEvt:changed>/</stEvt:changed>
               </rdf:li>
               <rdf:li rdf:parseType="Resource">
                  <stEvt:action>saved</stEvt:action>
                  <stEvt:instanceID>xmp.iid:CC3A1A4E158CE511B531B50981BAF4CB</stEvt:instanceID>
                  <stEvt:when>2015-11-15T23:00:35-05:00</stEvt:when>
                  <stEvt:softwareAgent>Adobe Audition CS6 (Windows)</stEvt:softwareAgent>
                  <stEvt:changed>/metadata</stEvt:changed>
               </rdf:li>
               <rdf:li rdf:parseType="Resource">
                  <stEvt:action>saved</stEvt:action>
                  <stEvt:instanceID>xmp.iid:CD3A1A4E158CE511B531B50981BAF4CB</stEvt:instanceID>
                  <stEvt:when>2015-11-15T23:00:35-05:00</stEvt:when>
                  <stEvt:softwareAgent>Adobe Audition CS6 (Windows)</stEvt:softwareAgent>
                  <stEvt:changed>/</stEvt:changed>
               </rdf:li>
               <rdf:li rdf:parseType="Resource">
                  <stEvt:action>saved</stEvt:action>
                  <stEvt:instanceID>xmp.iid:FA637222178CE511B531B50981BAF4CB</stEvt:instanceID>
                  <stEvt:when>2015-11-15T23:04:29-05:00</stEvt:when>
                  <stEvt:softwareAgent>Adobe Audition CS6 (Windows)</stEvt:softwareAgent>
                  <stEvt:changed>/metadata</stEvt:changed>
               </rdf:li>
               <rdf:li rdf:parseType="Resource">
                  <stEvt:action>saved</stEvt:action>
                  <stEvt:instanceID>xmp.iid:FB637222178CE511B531B50981BAF4CB</stEvt:instanceID>
                  <stEvt:when>2015-11-15T23:04:29-05:00</stEvt:when>
                  <stEvt:softwareAgent>Adobe Audition CS6 (Windows)</stEvt:softwareAgent>
                  <stEvt:changed>/</stEvt:changed>
               </rdf:li>
               <rdf:li rdf:parseType="Resource">
                  <stEvt:action>saved</stEvt:action>
                  <stEvt:instanceID>xmp.iid:FC637222178CE511B531B50981BAF4CB</stEvt:instanceID>
                  <stEvt:when>2015-11-15T23:06:47-05:00</stEvt:when>
                  <stEvt:softwareAgent>Adobe Audition CS6 (Windows)</stEvt:softwareAgent>
                  <stEvt:changed>/metadata</stEvt:changed>
               </rdf:li>
               <rdf:li rdf:parseType="Resource">
                  <stEvt:action>saved</stEvt:action>
                  <stEvt:instanceID>xmp.iid:FD637222178CE511B531B50981BAF4CB</stEvt:instanceID>
                  <stEvt:when>2015-11-15T23:06:47-05:00</stEvt:when>
                  <stEvt:softwareAgent>Adobe Audition CS6 (Windows)</stEvt:softwareAgent>
                  <stEvt:changed>/</stEvt:changed>
               </rdf:li>
               <rdf:li rdf:parseType="Resource">
                  <stEvt:action>saved</stEvt:action>
                  <stEvt:instanceID>xmp.iid:00647222178CE511B531B50981BAF4CB</stEvt:instanceID>
                  <stEvt:when>2015-11-15T23:09:40-05:00</stEvt:when>
                  <stEvt:softwareAgent>Adobe Audition CS6 (Windows)</stEvt:softwareAgent>
                  <stEvt:changed>/metadata</stEvt:changed>
               </rdf:li>
               <rdf:li rdf:parseType="Resource">
                  <stEvt:action>saved</stEvt:action>
                  <stEvt:instanceID>xmp.iid:01647222178CE511B531B50981BAF4CB</stEvt:instanceID>
                  <stEvt:when>2015-11-15T23:09:40-05:00</stEvt:when>
                  <stEvt:softwareAgent>Adobe Audition CS6 (Windows)</stEvt:softwareAgent>
                  <stEvt:changed>/</stEvt:changed>
               </rdf:li>
               <rdf:li rdf:parseType="Resource">
                  <stEvt:action>saved</stEvt:action>
                  <stEvt:instanceID>xmp.iid:04647222178CE511B531B50981BAF4CB</stEvt:instanceID>
                  <stEvt:when>2015-11-15T23:11:49-05:00</stEvt:when>
                  <stEvt:softwareAgent>Adobe Audition CS6 (Windows)</stEvt:softwareAgent>
                  <stEvt:changed>/metadata</stEvt:changed>
               </rdf:li>
               <rdf:li rdf:parseType="Resource">
                  <stEvt:action>saved</stEvt:action>
                  <stEvt:instanceID>xmp.iid:51359328188CE511B531B50981BAF4CB</stEvt:instanceID>
                  <stEvt:when>2015-11-15T23:11:49-05:00</stEvt:when>
                  <stEvt:softwareAgent>Adobe Audition CS6 (Windows)</stEvt:softwareAgent>
                  <stEvt:changed>/</stEvt:changed>
               </rdf:li>
               <rdf:li rdf:parseType="Resource">
                  <stEvt:action>saved</stEvt:action>
                  <stEvt:instanceID>xmp.iid:52359328188CE511B531B50981BAF4CB</stEvt:instanceID>
                  <stEvt:when>2015-11-15T23:13:42-05:00</stEvt:when>
                  <stEvt:softwareAgent>Adobe Audition CS6 (Windows)</stEvt:softwareAgent>
                  <stEvt:changed>/metadata</stEvt:changed>
               </rdf:li>
               <rdf:li rdf:parseType="Resource">
                  <stEvt:action>saved</stEvt:action>
                  <stEvt:instanceID>xmp.iid:53359328188CE511B531B50981BAF4CB</stEvt:instanceID>
                  <stEvt:when>2015-11-15T23:13:42-05:00</stEvt:when>
                  <stEvt:softwareAgent>Adobe Audition CS6 (Windows)</stEvt:softwareAgent>
                  <stEvt:changed>/</stEvt:changed>
               </rdf:li>
               <rdf:li rdf:parseType="Resource">
                  <stEvt:action>saved</stEvt:action>
                  <stEvt:instanceID>xmp.iid:54359328188CE511B531B50981BAF4CB</stEvt:instanceID>
                  <stEvt:when>2015-11-15T23:16:58-05:00</stEvt:when>
                  <stEvt:softwareAgent>Adobe Audition CS6 (Windows)</stEvt:softwareAgent>
                  <stEvt:changed>/metadata</stEvt:changed>
               </rdf:li>
               <rdf:li rdf:parseType="Resource">
                  <stEvt:action>saved</stEvt:action>
                  <stEvt:instanceID>xmp.iid:55359328188CE511B531B50981BAF4CB</stEvt:instanceID>
                  <stEvt:when>2015-11-15T23:16:58-05:00</stEvt:when>
                  <stEvt:softwareAgent>Adobe Audition CS6 (Windows)</stEvt:softwareAgent>
                  <stEvt:changed>/</stEvt:changed>
               </rdf:li>
               <rdf:li rdf:parseType="Resource">
                  <stEvt:action>saved</stEvt:action>
                  <stEvt:instanceID>xmp.iid:56359328188CE511B531B50981BAF4CB</stEvt:instanceID>
                  <stEvt:when>2015-11-15T23:20:49-05:00</stEvt:when>
                  <stEvt:softwareAgent>Adobe Audition CS6 (Windows)</stEvt:softwareAgent>
                  <stEvt:changed>/metadata</stEvt:changed>
               </rdf:li>
               <rdf:li rdf:parseType="Resource">
                  <stEvt:action>saved</stEvt:action>
                  <stEvt:instanceID>xmp.iid:57359328188CE511B531B50981BAF4CB</stEvt:instanceID>
                  <stEvt:when>2015-11-15T23:20:49-05:00</stEvt:when>
                  <stEvt:softwareAgent>Adobe Audition CS6 (Windows)</stEvt:softwareAgent>
                  <stEvt:changed>/</stEvt:changed>
               </rdf:li>
               <rdf:li rdf:parseType="Resource">
                  <stEvt:action>saved</stEvt:action>
                  <stEvt:instanceID>xmp.iid:5A359328188CE511B531B50981BAF4CB</stEvt:instanceID>
                  <stEvt:when>2015-11-15T23:24:07-05:00</stEvt:when>
                  <stEvt:softwareAgent>Adobe Audition CS6 (Windows)</stEvt:softwareAgent>
                  <stEvt:changed>/metadata</stEvt:changed>
               </rdf:li>
               <rdf:li rdf:parseType="Resource">
                  <stEvt:action>saved</stEvt:action>
                  <stEvt:instanceID>xmp.iid:5B359328188CE511B531B50981BAF4CB</stEvt:instanceID>
                  <stEvt:when>2015-11-15T23:24:07-05:00</stEvt:when>
                  <stEvt:softwareAgent>Adobe Audition CS6 (Windows)</stEvt:softwareAgent>
                  <stEvt:changed>/</stEvt:changed>
               </rdf:li>
               <rdf:li rdf:parseType="Resource">
                  <stEvt:action>saved</stEvt:action>
                  <stEvt:instanceID>xmp.iid:A64610511A8CE511B531B50981BAF4CB</stEvt:instanceID>
                  <stEvt:when>2015-11-15T23:27:16-05:00</stEvt:when>
                  <stEvt:softwareAgent>Adobe Audition CS6 (Windows)</stEvt:softwareAgent>
                  <stEvt:changed>/metadata</stEvt:changed>
               </rdf:li>
               <rdf:li rdf:parseType="Resource">
                  <stEvt:action>saved</stEvt:action>
                  <stEvt:instanceID>xmp.iid:A74610511A8CE511B531B50981BAF4CB</stEvt:instanceID>
                  <stEvt:when>2015-11-15T23:27:16-05:00</stEvt:when>
                  <stEvt:softwareAgent>Adobe Audition CS6 (Windows)</stEvt:softwareAgent>
                  <stEvt:changed>/</stEvt:changed>
               </rdf:li>
               <rdf:li rdf:parseType="Resource">
                  <stEvt:action>saved</stEvt:action>
                  <stEvt:instanceID>xmp.iid:C5CC72651F8CE511B633D8B613800333</stEvt:instanceID>
                  <stEvt:when>2015-11-16T00:04:20-05:00</stEvt:when>
                  <stEvt:softwareAgent>Adobe Audition CS6 (Windows)</stEvt:softwareAgent>
                  <stEvt:changed>/metadata</stEvt:changed>
               </rdf:li>
               <rdf:li rdf:parseType="Resource">
                  <stEvt:action>saved</stEvt:action>
                  <stEvt:instanceID>xmp.iid:C6CC72651F8CE511B633D8B613800333</stEvt:instanceID>
                  <stEvt:when>2015-11-16T00:04:20-05:00</stEvt:when>
                  <stEvt:softwareAgent>Adobe Audition CS6 (Windows)</stEvt:softwareAgent>
                  <stEvt:changed>/</stEvt:changed>
               </rdf:li>
               <rdf:li rdf:parseType="Resource">
                  <stEvt:action>saved</stEvt:action>
                  <stEvt:instanceID>xmp.iid:02217B40828CE511B633D8B613800333</stEvt:instanceID>
                  <stEvt:when>2015-11-16T11:51:16-05:00</stEvt:when>
                  <stEvt:softwareAgent>Adobe Audition CS6 (Windows)</stEvt:softwareAgent>
                  <stEvt:changed>/metadata</stEvt:changed>
               </rdf:li>
               <rdf:li rdf:parseType="Resource">
                  <stEvt:action>saved</stEvt:action>
                  <stEvt:instanceID>xmp.iid:03217B40828CE511B633D8B613800333</stEvt:instanceID>
                  <stEvt:when>2015-11-16T11:51:16-05:00</stEvt:when>
                  <stEvt:softwareAgent>Adobe Audition CS6 (Windows)</stEvt:softwareAgent>
                  <stEvt:changed>/</stEvt:changed>
               </rdf:li>
               <rdf:li rdf:parseType="Resource">
                  <stEvt:action>saved</stEvt:action>
                  <stEvt:instanceID>xmp.iid:06217B40828CE511B633D8B613800333</stEvt:instanceID>
                  <stEvt:when>2015-11-16T12:01:20-05:00</stEvt:when>
                  <stEvt:softwareAgent>Adobe Audition CS6 (Windows)</stEvt:softwareAgent>
                  <stEvt:changed>/metadata</stEvt:changed>
               </rdf:li>
               <rdf:li rdf:parseType="Resource">
                  <stEvt:action>saved</stEvt:action>
                  <stEvt:instanceID>xmp.iid:07217B40828CE511B633D8B613800333</stEvt:instanceID>
                  <stEvt:when>2015-11-16T12:01:20-05:00</stEvt:when>
                  <stEvt:softwareAgent>Adobe Audition CS6 (Windows)</stEvt:softwareAgent>
                  <stEvt:changed>/</stEvt:changed>
               </rdf:li>
               <rdf:li rdf:parseType="Resource">
                  <stEvt:action>saved</stEvt:action>
                  <stEvt:instanceID>xmp.iid:08217B40828CE511B633D8B613800333</stEvt:instanceID>
                  <stEvt:when>2015-11-16T12:04:42-05:00</stEvt:when>
                  <stEvt:softwareAgent>Adobe Audition CS6 (Windows)</stEvt:softwareAgent>
                  <stEvt:changed>/metadata</stEvt:changed>
               </rdf:li>
               <rdf:li rdf:parseType="Resource">
                  <stEvt:action>saved</stEvt:action>
                  <stEvt:instanceID>xmp.iid:09217B40828CE511B633D8B613800333</stEvt:instanceID>
                  <stEvt:when>2015-11-16T12:04:42-05:00</stEvt:when>
                  <stEvt:softwareAgent>Adobe Audition CS6 (Windows)</stEvt:softwareAgent>
                  <stEvt:changed>/</stEvt:changed>
               </rdf:li>
               <rdf:li rdf:parseType="Resource">
                  <stEvt:action>saved</stEvt:action>
                  <stEvt:instanceID>xmp.iid:0A217B40828CE511B633D8B613800333</stEvt:instanceID>
                  <stEvt:when>2015-11-16T12:06:11-05:00</stEvt:when>
                  <stEvt:softwareAgent>Adobe Audition CS6 (Windows)</stEvt:softwareAgent>
                  <stEvt:changed>/metadata</stEvt:changed>
               </rdf:li>
               <rdf:li rdf:parseType="Resource">
                  <stEvt:action>saved</stEvt:action>
                  <stEvt:instanceID>xmp.iid:0B217B40828CE511B633D8B613800333</stEvt:instanceID>
                  <stEvt:when>2015-11-16T12:06:11-05:00</stEvt:when>
                  <stEvt:softwareAgent>Adobe Audition CS6 (Windows)</stEvt:softwareAgent>
                  <stEvt:changed>/</stEvt:changed>
               </rdf:li>
               <rdf:li rdf:parseType="Resource">
                  <stEvt:action>saved</stEvt:action>
                  <stEvt:instanceID>xmp.iid:B15EF9A7858CE511B633D8B613800333</stEvt:instanceID>
                  <stEvt:when>2015-11-16T12:16:16-05:00</stEvt:when>
                  <stEvt:softwareAgent>Adobe Audition CS6 (Windows)</stEvt:softwareAgent>
                  <stEvt:changed>/metadata</stEvt:changed>
               </rdf:li>
               <rdf:li rdf:parseType="Resource">
                  <stEvt:action>saved</stEvt:action>
                  <stEvt:instanceID>xmp.iid:B25EF9A7858CE511B633D8B613800333</stEvt:instanceID>
                  <stEvt:when>2015-11-16T12:16:16-05:00</stEvt:when>
                  <stEvt:softwareAgent>Adobe Audition CS6 (Windows)</stEvt:softwareAgent>
                  <stEvt:changed>/</stEvt:changed>
               </rdf:li>
               <rdf:li rdf:parseType="Resource">
                  <stEvt:action>saved</stEvt:action>
                  <stEvt:instanceID>xmp.iid:B75EF9A7858CE511B633D8B613800333</stEvt:instanceID>
                  <stEvt:when>2015-11-16T12:28:29-05:00</stEvt:when>
                  <stEvt:softwareAgent>Adobe Audition CS6 (Windows)</stEvt:softwareAgent>
                  <stEvt:changed>/metadata</stEvt:changed>
               </rdf:li>
               <rdf:li rdf:parseType="Resource">
                  <stEvt:action>saved</stEvt:action>
                  <stEvt:instanceID>xmp.iid:B85EF9A7858CE511B633D8B613800333</stEvt:instanceID>
                  <stEvt:when>2015-11-16T12:28:29-05:00</stEvt:when>
                  <stEvt:softwareAgent>Adobe Audition CS6 (Windows)</stEvt:softwareAgent>
                  <stEvt:changed>/</stEvt:changed>
               </rdf:li>
               <rdf:li rdf:parseType="Resource">
                  <stEvt:action>saved</stEvt:action>
                  <stEvt:instanceID>xmp.iid:BF8D2BDB878CE511B633D8B613800333</stEvt:instanceID>
                  <stEvt:when>2015-11-16T12:31:23-05:00</stEvt:when>
                  <stEvt:softwareAgent>Adobe Audition CS6 (Windows)</stEvt:softwareAgent>
                  <stEvt:changed>/metadata</stEvt:changed>
               </rdf:li>
               <rdf:li rdf:parseType="Resource">
                  <stEvt:action>saved</stEvt:action>
                  <stEvt:instanceID>xmp.iid:C08D2BDB878CE511B633D8B613800333</stEvt:instanceID>
                  <stEvt:when>2015-11-16T12:31:23-05:00</stEvt:when>
                  <stEvt:softwareAgent>Adobe Audition CS6 (Windows)</stEvt:softwareAgent>
                  <stEvt:changed>/</stEvt:changed>
               </rdf:li>
               <rdf:li rdf:parseType="Resource">
                  <stEvt:action>saved</stEvt:action>
                  <stEvt:instanceID>xmp.iid:C78D2BDB878CE511B633D8B613800333</stEvt:instanceID>
                  <stEvt:when>2015-11-16T12:40:13-05:00</stEvt:when>
                  <stEvt:softwareAgent>Adobe Audition CS6 (Windows)</stEvt:softwareAgent>
                  <stEvt:changed>/metadata</stEvt:changed>
               </rdf:li>
               <rdf:li rdf:parseType="Resource">
                  <stEvt:action>saved</stEvt:action>
                  <stEvt:instanceID>xmp.iid:C88D2BDB878CE511B633D8B613800333</stEvt:instanceID>
                  <stEvt:when>2015-11-16T12:40:13-05:00</stEvt:when>
                  <stEvt:softwareAgent>Adobe Audition CS6 (Windows)</stEvt:softwareAgent>
                  <stEvt:changed>/</stEvt:changed>
               </rdf:li>
               <rdf:li rdf:parseType="Resource">
                  <stEvt:action>saved</stEvt:action>
                  <stEvt:instanceID>xmp.iid:C98D2BDB878CE511B633D8B613800333</stEvt:instanceID>
                  <stEvt:when>2015-11-16T12:40:58-05:00</stEvt:when>
                  <stEvt:softwareAgent>Adobe Audition CS6 (Windows)</stEvt:softwareAgent>
                  <stEvt:changed>/metadata</stEvt:changed>
               </rdf:li>
               <rdf:li rdf:parseType="Resource">
                  <stEvt:action>saved</stEvt:action>
                  <stEvt:instanceID>xmp.iid:A1035A32898CE511B633D8B613800333</stEvt:instanceID>
                  <stEvt:when>2015-11-16T12:40:58-05:00</stEvt:when>
                  <stEvt:softwareAgent>Adobe Audition CS6 (Windows)</stEvt:softwareAgent>
                  <stEvt:changed>/</stEvt:changed>
               </rdf:li>
               <rdf:li rdf:parseType="Resource">
                  <stEvt:action>saved</stEvt:action>
                  <stEvt:instanceID>xmp.iid:A2035A32898CE511B633D8B613800333</stEvt:instanceID>
                  <stEvt:when>2015-11-16T13:05:26-05:00</stEvt:when>
                  <stEvt:softwareAgent>Adobe Audition CS6 (Windows)</stEvt:softwareAgent>
                  <stEvt:changed>/metadata</stEvt:changed>
               </rdf:li>
               <rdf:li rdf:parseType="Resource">
                  <stEvt:action>saved</stEvt:action>
                  <stEvt:instanceID>xmp.iid:A3035A32898CE511B633D8B613800333</stEvt:instanceID>
                  <stEvt:when>2015-11-16T13:05:26-05:00</stEvt:when>
                  <stEvt:softwareAgent>Adobe Audition CS6 (Windows)</stEvt:softwareAgent>
                  <stEvt:changed>/</stEvt:changed>
               </rdf:li>
               <rdf:li rdf:parseType="Resource">
                  <stEvt:action>saved</stEvt:action>
                  <stEvt:instanceID>xmp.iid:A6035A32898CE511B633D8B613800333</stEvt:instanceID>
                  <stEvt:when>2015-11-16T13:15:56-05:00</stEvt:when>
                  <stEvt:softwareAgent>Adobe Audition CS6 (Windows)</stEvt:softwareAgent>
                  <stEvt:changed>/metadata</stEvt:changed>
               </rdf:li>
               <rdf:li rdf:parseType="Resource">
                  <stEvt:action>saved</stEvt:action>
                  <stEvt:instanceID>xmp.iid:A7035A32898CE511B633D8B613800333</stEvt:instanceID>
                  <stEvt:when>2015-11-16T13:15:56-05:00</stEvt:when>
                  <stEvt:softwareAgent>Adobe Audition CS6 (Windows)</stEvt:softwareAgent>
                  <stEvt:changed>/</stEvt:changed>
               </rdf:li>
               <rdf:li rdf:parseType="Resource">
                  <stEvt:action>saved</stEvt:action>
                  <stEvt:instanceID>xmp.iid:636D1A2A8F8CE511B633D8B613800333</stEvt:instanceID>
                  <stEvt:when>2015-11-16T13:23:41-05:00</stEvt:when>
                  <stEvt:softwareAgent>Adobe Audition CS6 (Windows)</stEvt:softwareAgent>
                  <stEvt:changed>/metadata</stEvt:changed>
               </rdf:li>
               <rdf:li rdf:parseType="Resource">
                  <stEvt:action>saved</stEvt:action>
                  <stEvt:instanceID>xmp.iid:646D1A2A8F8CE511B633D8B613800333</stEvt:instanceID>
                  <stEvt:when>2015-11-16T13:23:41-05:00</stEvt:when>
                  <stEvt:softwareAgent>Adobe Audition CS6 (Windows)</stEvt:softwareAgent>
                  <stEvt:changed>/</stEvt:changed>
               </rdf:li>
               <rdf:li rdf:parseType="Resource">
                  <stEvt:action>saved</stEvt:action>
                  <stEvt:instanceID>xmp.iid:656D1A2A8F8CE511B633D8B613800333</stEvt:instanceID>
                  <stEvt:when>2015-11-16T13:34:27-05:00</stEvt:when>
                  <stEvt:softwareAgent>Adobe Audition CS6 (Windows)</stEvt:softwareAgent>
                  <stEvt:changed>/metadata</stEvt:changed>
               </rdf:li>
               <rdf:li rdf:parseType="Resource">
                  <stEvt:action>saved</stEvt:action>
                  <stEvt:instanceID>xmp.iid:666D1A2A8F8CE511B633D8B613800333</stEvt:instanceID>
                  <stEvt:when>2015-11-16T13:34:27-05:00</stEvt:when>
                  <stEvt:softwareAgent>Adobe Audition CS6 (Windows)</stEvt:softwareAgent>
                  <stEvt:changed>/</stEvt:changed>
               </rdf:li>
               <rdf:li rdf:parseType="Resource">
                  <stEvt:action>saved</stEvt:action>
                  <stEvt:instanceID>xmp.iid:696D1A2A8F8CE511B633D8B613800333</stEvt:instanceID>
                  <stEvt:when>2015-11-16T13:45:28-05:00</stEvt:when>
                  <stEvt:softwareAgent>Adobe Audition CS6 (Windows)</stEvt:softwareAgent>
                  <stEvt:changed>/metadata</stEvt:changed>
               </rdf:li>
               <rdf:li rdf:parseType="Resource">
                  <stEvt:action>saved</stEvt:action>
                  <stEvt:instanceID>xmp.iid:6A6D1A2A8F8CE511B633D8B613800333</stEvt:instanceID>
                  <stEvt:when>2015-11-16T13:45:28-05:00</stEvt:when>
                  <stEvt:softwareAgent>Adobe Audition CS6 (Windows)</stEvt:softwareAgent>
                  <stEvt:changed>/</stEvt:changed>
               </rdf:li>
               <rdf:li rdf:parseType="Resource">
                  <stEvt:action>saved</stEvt:action>
                  <stEvt:instanceID>xmp.iid:8CABBFE3928CE511B633D8B613800333</stEvt:instanceID>
                  <stEvt:when>2015-11-16T13:55:57-05:00</stEvt:when>
                  <stEvt:softwareAgent>Adobe Audition CS6 (Windows)</stEvt:softwareAgent>
                  <stEvt:changed>/metadata</stEvt:changed>
               </rdf:li>
               <rdf:li rdf:parseType="Resource">
                  <stEvt:action>saved</stEvt:action>
                  <stEvt:instanceID>xmp.iid:8DABBFE3928CE511B633D8B613800333</stEvt:instanceID>
                  <stEvt:when>2015-11-16T13:55:57-05:00</stEvt:when>
                  <stEvt:softwareAgent>Adobe Audition CS6 (Windows)</stEvt:softwareAgent>
                  <stEvt:changed>/</stEvt:changed>
               </rdf:li>
               <rdf:li rdf:parseType="Resource">
                  <stEvt:action>saved</stEvt:action>
                  <stEvt:instanceID>xmp.iid:8EABBFE3928CE511B633D8B613800333</stEvt:instanceID>
                  <stEvt:when>2015-11-16T13:56:09-05:00</stEvt:when>
                  <stEvt:softwareAgent>Adobe Audition CS6 (Windows)</stEvt:softwareAgent>
                  <stEvt:changed>/metadata</stEvt:changed>
               </rdf:li>
               <rdf:li rdf:parseType="Resource">
                  <stEvt:action>saved</stEvt:action>
                  <stEvt:instanceID>xmp.iid:8FABBFE3928CE511B633D8B613800333</stEvt:instanceID>
                  <stEvt:when>2015-11-16T13:56:09-05:00</stEvt:when>
                  <stEvt:softwareAgent>Adobe Audition CS6 (Windows)</stEvt:softwareAgent>
                  <stEvt:changed>/</stEvt:changed>
               </rdf:li>
               <rdf:li rdf:parseType="Resource">
                  <stEvt:action>saved</stEvt:action>
                  <stEvt:instanceID>xmp.iid:90ABBFE3928CE511B633D8B613800333</stEvt:instanceID>
                  <stEvt:when>2015-11-16T14:03:07-05:00</stEvt:when>
                  <stEvt:softwareAgent>Adobe Audition CS6 (Windows)</stEvt:softwareAgent>
                  <stEvt:changed>/metadata</stEvt:changed>
               </rdf:li>
               <rdf:li rdf:parseType="Resource">
                  <stEvt:action>saved</stEvt:action>
                  <stEvt:instanceID>xmp.iid:91ABBFE3928CE511B633D8B613800333</stEvt:instanceID>
                  <stEvt:when>2015-11-16T14:03:07-05:00</stEvt:when>
                  <stEvt:softwareAgent>Adobe Audition CS6 (Windows)</stEvt:softwareAgent>
                  <stEvt:changed>/</stEvt:changed>
               </rdf:li>
               <rdf:li rdf:parseType="Resource">
                  <stEvt:action>saved</stEvt:action>
                  <stEvt:instanceID>xmp.iid:92ABBFE3928CE511B633D8B613800333</stEvt:instanceID>
                  <stEvt:when>2015-11-16T14:03:23-05:00</stEvt:when>
                  <stEvt:softwareAgent>Adobe Audition CS6 (Windows)</stEvt:softwareAgent>
                  <stEvt:changed>/metadata</stEvt:changed>
               </rdf:li>
               <rdf:li rdf:parseType="Resource">
                  <stEvt:action>saved</stEvt:action>
                  <stEvt:instanceID>xmp.iid:93ABBFE3928CE511B633D8B613800333</stEvt:instanceID>
                  <stEvt:when>2015-11-16T14:03:23-05:00</stEvt:when>
                  <stEvt:softwareAgent>Adobe Audition CS6 (Windows)</stEvt:softwareAgent>
                  <stEvt:changed>/</stEvt:changed>
               </rdf:li>
               <rdf:li rdf:parseType="Resource">
                  <stEvt:action>saved</stEvt:action>
                  <stEvt:instanceID>xmp.iid:94ABBFE3928CE511B633D8B613800333</stEvt:instanceID>
                  <stEvt:when>2015-11-16T14:17:55-05:00</stEvt:when>
                  <stEvt:softwareAgent>Adobe Audition CS6 (Windows)</stEvt:softwareAgent>
                  <stEvt:changed>/metadata</stEvt:changed>
               </rdf:li>
               <rdf:li rdf:parseType="Resource">
                  <stEvt:action>saved</stEvt:action>
                  <stEvt:instanceID>xmp.iid:95ABBFE3928CE511B633D8B613800333</stEvt:instanceID>
                  <stEvt:when>2015-11-16T14:17:55-05:00</stEvt:when>
                  <stEvt:softwareAgent>Adobe Audition CS6 (Windows)</stEvt:softwareAgent>
                  <stEvt:changed>/</stEvt:changed>
               </rdf:li>
               <rdf:li rdf:parseType="Resource">
                  <stEvt:action>saved</stEvt:action>
                  <stEvt:instanceID>xmp.iid:F9BBAEC7968CE511B633D8B613800333</stEvt:instanceID>
                  <stEvt:when>2015-11-16T14:18:12-05:00</stEvt:when>
                  <stEvt:softwareAgent>Adobe Audition CS6 (Windows)</stEvt:softwareAgent>
                  <stEvt:changed>/metadata</stEvt:changed>
               </rdf:li>
               <rdf:li rdf:parseType="Resource">
                  <stEvt:action>saved</stEvt:action>
                  <stEvt:instanceID>xmp.iid:FABBAEC7968CE511B633D8B613800333</stEvt:instanceID>
                  <stEvt:when>2015-11-16T14:18:12-05:00</stEvt:when>
                  <stEvt:softwareAgent>Adobe Audition CS6 (Windows)</stEvt:softwareAgent>
                  <stEvt:changed>/</stEvt:changed>
               </rdf:li>
               <rdf:li rdf:parseType="Resource">
                  <stEvt:action>saved</stEvt:action>
                  <stEvt:instanceID>xmp.iid:FFBBAEC7968CE511B633D8B613800333</stEvt:instanceID>
                  <stEvt:when>2015-11-16T14:27:30-05:00</stEvt:when>
                  <stEvt:softwareAgent>Adobe Audition CS6 (Windows)</stEvt:softwareAgent>
                  <stEvt:changed>/metadata</stEvt:changed>
               </rdf:li>
               <rdf:li rdf:parseType="Resource">
                  <stEvt:action>saved</stEvt:action>
                  <stEvt:instanceID>xmp.iid:00BCAEC7968CE511B633D8B613800333</stEvt:instanceID>
                  <stEvt:when>2015-11-16T14:27:30-05:00</stEvt:when>
                  <stEvt:softwareAgent>Adobe Audition CS6 (Windows)</stEvt:softwareAgent>
                  <stEvt:changed>/</stEvt:changed>
               </rdf:li>
               <rdf:li rdf:parseType="Resource">
                  <stEvt:action>saved</stEvt:action>
                  <stEvt:instanceID>xmp.iid:01BCAEC7968CE511B633D8B613800333</stEvt:instanceID>
                  <stEvt:when>2015-11-16T14:28:41-05:00</stEvt:when>
                  <stEvt:softwareAgent>Adobe Audition CS6 (Windows)</stEvt:softwareAgent>
                  <stEvt:changed>/metadata</stEvt:changed>
               </rdf:li>
               <rdf:li rdf:parseType="Resource">
                  <stEvt:action>saved</stEvt:action>
                  <stEvt:instanceID>xmp.iid:02BCAEC7968CE511B633D8B613800333</stEvt:instanceID>
                  <stEvt:when>2015-11-16T14:28:41-05:00</stEvt:when>
                  <stEvt:softwareAgent>Adobe Audition CS6 (Windows)</stEvt:softwareAgent>
                  <stEvt:changed>/</stEvt:changed>
               </rdf:li>
               <rdf:li rdf:parseType="Resource">
                  <stEvt:action>saved</stEvt:action>
                  <stEvt:instanceID>xmp.iid:6AADC78E988CE511B633D8B613800333</stEvt:instanceID>
                  <stEvt:when>2015-11-16T14:30:56-05:00</stEvt:when>
                  <stEvt:softwareAgent>Adobe Audition CS6 (Windows)</stEvt:softwareAgent>
                  <stEvt:changed>/metadata</stEvt:changed>
               </rdf:li>
               <rdf:li rdf:parseType="Resource">
                  <stEvt:action>saved</stEvt:action>
                  <stEvt:instanceID>xmp.iid:6BADC78E988CE511B633D8B613800333</stEvt:instanceID>
                  <stEvt:when>2015-11-16T14:30:56-05:00</stEvt:when>
                  <stEvt:softwareAgent>Adobe Audition CS6 (Windows)</stEvt:softwareAgent>
                  <stEvt:changed>/</stEvt:changed>
               </rdf:li>
               <rdf:li rdf:parseType="Resource">
                  <stEvt:action>saved</stEvt:action>
                  <stEvt:instanceID>xmp.iid:6CADC78E988CE511B633D8B613800333</stEvt:instanceID>
                  <stEvt:when>2015-11-16T14:36:29-05:00</stEvt:when>
                  <stEvt:softwareAgent>Adobe Audition CS6 (Windows)</stEvt:softwareAgent>
                  <stEvt:changed>/metadata</stEvt:changed>
               </rdf:li>
               <rdf:li rdf:parseType="Resource">
                  <stEvt:action>saved</stEvt:action>
                  <stEvt:instanceID>xmp.iid:6DADC78E988CE511B633D8B613800333</stEvt:instanceID>
                  <stEvt:when>2015-11-16T14:36:29-05:00</stEvt:when>
                  <stEvt:softwareAgent>Adobe Audition CS6 (Windows)</stEvt:softwareAgent>
                  <stEvt:changed>/</stEvt:changed>
               </rdf:li>
               <rdf:li rdf:parseType="Resource">
                  <stEvt:action>saved</stEvt:action>
                  <stEvt:instanceID>xmp.iid:6EADC78E988CE511B633D8B613800333</stEvt:instanceID>
                  <stEvt:when>2015-11-16T14:38-05:00</stEvt:when>
                  <stEvt:softwareAgent>Adobe Audition CS6 (Windows)</stEvt:softwareAgent>
                  <stEvt:changed>/metadata</stEvt:changed>
               </rdf:li>
               <rdf:li rdf:parseType="Resource">
                  <stEvt:action>saved</stEvt:action>
                  <stEvt:instanceID>xmp.iid:6FADC78E988CE511B633D8B613800333</stEvt:instanceID>
                  <stEvt:when>2015-11-16T14:38-05:00</stEvt:when>
                  <stEvt:softwareAgent>Adobe Audition CS6 (Windows)</stEvt:softwareAgent>
                  <stEvt:changed>/</stEvt:changed>
               </rdf:li>
               <rdf:li rdf:parseType="Resource">
                  <stEvt:action>saved</stEvt:action>
                  <stEvt:instanceID>xmp.iid:7807C38BB78CE511915DC38CADF3C5DB</stEvt:instanceID>
                  <stEvt:when>2015-11-16T18:13:01-05:00</stEvt:when>
                  <stEvt:softwareAgent>Adobe Audition CS6 (Windows)</stEvt:softwareAgent>
                  <stEvt:changed>/metadata</stEvt:changed>
               </rdf:li>
               <rdf:li rdf:parseType="Resource">
                  <stEvt:action>saved</stEvt:action>
                  <stEvt:instanceID>xmp.iid:7907C38BB78CE511915DC38CADF3C5DB</stEvt:instanceID>
                  <stEvt:when>2015-11-16T18:13:01-05:00</stEvt:when>
                  <stEvt:softwareAgent>Adobe Audition CS6 (Windows)</stEvt:softwareAgent>
                  <stEvt:changed>/</stEvt:changed>
               </rdf:li>
               <rdf:li rdf:parseType="Resource">
                  <stEvt:action>saved</stEvt:action>
                  <stEvt:instanceID>xmp.iid:D461E560B88CE511915DC38CADF3C5DB</stEvt:instanceID>
                  <stEvt:when>2015-11-16T18:18:43-05:00</stEvt:when>
                  <stEvt:softwareAgent>Adobe Audition CS6 (Windows)</stEvt:softwareAgent>
                  <stEvt:changed>/metadata</stEvt:changed>
               </rdf:li>
               <rdf:li rdf:parseType="Resource">
                  <stEvt:action>saved</stEvt:action>
                  <stEvt:instanceID>xmp.iid:D561E560B88CE511915DC38CADF3C5DB</stEvt:instanceID>
                  <stEvt:when>2015-11-16T18:18:43-05:00</stEvt:when>
                  <stEvt:softwareAgent>Adobe Audition CS6 (Windows)</stEvt:softwareAgent>
                  <stEvt:changed>/</stEvt:changed>
               </rdf:li>
               <rdf:li rdf:parseType="Resource">
                  <stEvt:action>saved</stEvt:action>
                  <stEvt:instanceID>xmp.iid:D861E560B88CE511915DC38CADF3C5DB</stEvt:instanceID>
                  <stEvt:when>2015-11-16T18:20:51-05:00</stEvt:when>
                  <stEvt:softwareAgent>Adobe Audition CS6 (Windows)</stEvt:softwareAgent>
                  <stEvt:changed>/metadata</stEvt:changed>
               </rdf:li>
               <rdf:li rdf:parseType="Resource">
                  <stEvt:action>saved</stEvt:action>
                  <stEvt:instanceID>xmp.iid:D961E560B88CE511915DC38CADF3C5DB</stEvt:instanceID>
                  <stEvt:when>2015-11-16T18:20:51-05:00</stEvt:when>
                  <stEvt:softwareAgent>Adobe Audition CS6 (Windows)</stEvt:softwareAgent>
                  <stEvt:changed>/</stEvt:changed>
               </rdf:li>
               <rdf:li rdf:parseType="Resource">
                  <stEvt:action>saved</stEvt:action>
                  <stEvt:instanceID>xmp.iid:DA61E560B88CE511915DC38CADF3C5DB</stEvt:instanceID>
                  <stEvt:when>2015-11-16T18:31:05-05:00</stEvt:when>
                  <stEvt:softwareAgent>Adobe Audition CS6 (Windows)</stEvt:softwareAgent>
                  <stEvt:changed>/metadata</stEvt:changed>
               </rdf:li>
               <rdf:li rdf:parseType="Resource">
                  <stEvt:action>saved</stEvt:action>
                  <stEvt:instanceID>xmp.iid:DB61E560B88CE511915DC38CADF3C5DB</stEvt:instanceID>
                  <stEvt:when>2015-11-16T18:31:05-05:00</stEvt:when>
                  <stEvt:softwareAgent>Adobe Audition CS6 (Windows)</stEvt:softwareAgent>
                  <stEvt:changed>/</stEvt:changed>
               </rdf:li>
               <rdf:li rdf:parseType="Resource">
                  <stEvt:action>saved</stEvt:action>
                  <stEvt:instanceID>xmp.iid:1D614D33BB8CE511915DC38CADF3C5DB</stEvt:instanceID>
                  <stEvt:when>2015-11-16T18:41:06-05:00</stEvt:when>
                  <stEvt:softwareAgent>Adobe Audition CS6 (Windows)</stEvt:softwareAgent>
                  <stEvt:changed>/metadata</stEvt:changed>
               </rdf:li>
               <rdf:li rdf:parseType="Resource">
                  <stEvt:action>saved</stEvt:action>
                  <stEvt:instanceID>xmp.iid:1E614D33BB8CE511915DC38CADF3C5DB</stEvt:instanceID>
                  <stEvt:when>2015-11-16T18:41:06-05:00</stEvt:when>
                  <stEvt:softwareAgent>Adobe Audition CS6 (Windows)</stEvt:softwareAgent>
                  <stEvt:changed>/</stEvt:changed>
               </rdf:li>
               <rdf:li rdf:parseType="Resource">
                  <stEvt:action>saved</stEvt:action>
                  <stEvt:instanceID>xmp.iid:F88A946CBC8CE511915DC38CADF3C5DB</stEvt:instanceID>
                  <stEvt:when>2015-11-16T18:47:40-05:00</stEvt:when>
                  <stEvt:softwareAgent>Adobe Audition CS6 (Windows)</stEvt:softwareAgent>
                  <stEvt:changed>/metadata</stEvt:changed>
               </rdf:li>
               <rdf:li rdf:parseType="Resource">
                  <stEvt:action>saved</stEvt:action>
                  <stEvt:instanceID>xmp.iid:F98A946CBC8CE511915DC38CADF3C5DB</stEvt:instanceID>
                  <stEvt:when>2015-11-16T18:47:40-05:00</stEvt:when>
                  <stEvt:softwareAgent>Adobe Audition CS6 (Windows)</stEvt:softwareAgent>
                  <stEvt:changed>/</stEvt:changed>
               </rdf:li>
               <rdf:li rdf:parseType="Resource">
                  <stEvt:action>saved</stEvt:action>
                  <stEvt:instanceID>xmp.iid:FE8A946CBC8CE511915DC38CADF3C5DB</stEvt:instanceID>
                  <stEvt:when>2015-11-16T18:50:10-05:00</stEvt:when>
                  <stEvt:softwareAgent>Adobe Audition CS6 (Windows)</stEvt:softwareAgent>
                  <stEvt:changed>/metadata</stEvt:changed>
               </rdf:li>
               <rdf:li rdf:parseType="Resource">
                  <stEvt:action>saved</stEvt:action>
                  <stEvt:instanceID>xmp.iid:FF8A946CBC8CE511915DC38CADF3C5DB</stEvt:instanceID>
                  <stEvt:when>2015-11-16T18:50:10-05:00</stEvt:when>
                  <stEvt:softwareAgent>Adobe Audition CS6 (Windows)</stEvt:softwareAgent>
                  <stEvt:changed>/</stEvt:changed>
               </rdf:li>
               <rdf:li rdf:parseType="Resource">
                  <stEvt:action>saved</stEvt:action>
                  <stEvt:instanceID>xmp.iid:86635FE2BD8CE511915DC38CADF3C5DB</stEvt:instanceID>
                  <stEvt:when>2015-11-16T18:58:07-05:00</stEvt:when>
                  <stEvt:softwareAgent>Adobe Audition CS6 (Windows)</stEvt:softwareAgent>
                  <stEvt:changed>/metadata</stEvt:changed>
               </rdf:li>
               <rdf:li rdf:parseType="Resource">
                  <stEvt:action>saved</stEvt:action>
                  <stEvt:instanceID>xmp.iid:87635FE2BD8CE511915DC38CADF3C5DB</stEvt:instanceID>
                  <stEvt:when>2015-11-16T18:58:07-05:00</stEvt:when>
                  <stEvt:softwareAgent>Adobe Audition CS6 (Windows)</stEvt:softwareAgent>
                  <stEvt:changed>/</stEvt:changed>
               </rdf:li>
               <rdf:li rdf:parseType="Resource">
                  <stEvt:action>saved</stEvt:action>
                  <stEvt:instanceID>xmp.iid:88635FE2BD8CE511915DC38CADF3C5DB</stEvt:instanceID>
                  <stEvt:when>2015-11-16T19:08:36-05:00</stEvt:when>
                  <stEvt:softwareAgent>Adobe Audition CS6 (Windows)</stEvt:softwareAgent>
                  <stEvt:changed>/metadata</stEvt:changed>
               </rdf:li>
               <rdf:li rdf:parseType="Resource">
                  <stEvt:action>saved</stEvt:action>
                  <stEvt:instanceID>xmp.iid:89635FE2BD8CE511915DC38CADF3C5DB</stEvt:instanceID>
                  <stEvt:when>2015-11-16T19:08:36-05:00</stEvt:when>
                  <stEvt:softwareAgent>Adobe Audition CS6 (Windows)</stEvt:softwareAgent>
                  <stEvt:changed>/</stEvt:changed>
               </rdf:li>
               <rdf:li rdf:parseType="Resource">
                  <stEvt:action>saved</stEvt:action>
                  <stEvt:instanceID>xmp.iid:8C635FE2BD8CE511915DC38CADF3C5DB</stEvt:instanceID>
                  <stEvt:when>2015-11-16T19:13:23-05:00</stEvt:when>
                  <stEvt:softwareAgent>Adobe Audition CS6 (Windows)</stEvt:softwareAgent>
                  <stEvt:changed>/metadata</stEvt:changed>
               </rdf:li>
               <rdf:li rdf:parseType="Resource">
                  <stEvt:action>saved</stEvt:action>
                  <stEvt:instanceID>xmp.iid:8D635FE2BD8CE511915DC38CADF3C5DB</stEvt:instanceID>
                  <stEvt:when>2015-11-16T19:13:23-05:00</stEvt:when>
                  <stEvt:softwareAgent>Adobe Audition CS6 (Windows)</stEvt:softwareAgent>
                  <stEvt:changed>/</stEvt:changed>
               </rdf:li>
               <rdf:li rdf:parseType="Resource">
                  <stEvt:action>saved</stEvt:action>
                  <stEvt:instanceID>xmp.iid:8E635FE2BD8CE511915DC38CADF3C5DB</stEvt:instanceID>
                  <stEvt:when>2015-11-16T19:14:51-05:00</stEvt:when>
                  <stEvt:softwareAgent>Adobe Audition CS6 (Windows)</stEvt:softwareAgent>
                  <stEvt:changed>/metadata</stEvt:changed>
               </rdf:li>
               <rdf:li rdf:parseType="Resource">
                  <stEvt:action>saved</stEvt:action>
                  <stEvt:instanceID>xmp.iid:8F635FE2BD8CE511915DC38CADF3C5DB</stEvt:instanceID>
                  <stEvt:when>2015-11-16T19:14:51-05:00</stEvt:when>
                  <stEvt:softwareAgent>Adobe Audition CS6 (Windows)</stEvt:softwareAgent>
                  <stEvt:changed>/</stEvt:changed>
               </rdf:li>
               <rdf:li rdf:parseType="Resource">
                  <stEvt:action>saved</stEvt:action>
                  <stEvt:instanceID>xmp.iid:67DAF08AC08CE511915DC38CADF3C5DB</stEvt:instanceID>
                  <stEvt:when>2015-11-16T19:17:09-05:00</stEvt:when>
                  <stEvt:softwareAgent>Adobe Audition CS6 (Windows)</stEvt:softwareAgent>
                  <stEvt:changed>/metadata</stEvt:changed>
               </rdf:li>
               <rdf:li rdf:parseType="Resource">
                  <stEvt:action>saved</stEvt:action>
                  <stEvt:instanceID>xmp.iid:68DAF08AC08CE511915DC38CADF3C5DB</stEvt:instanceID>
                  <stEvt:when>2015-11-16T19:17:09-05:00</stEvt:when>
                  <stEvt:softwareAgent>Adobe Audition CS6 (Windows)</stEvt:softwareAgent>
                  <stEvt:changed>/</stEvt:changed>
               </rdf:li>
               <rdf:li rdf:parseType="Resource">
                  <stEvt:action>saved</stEvt:action>
                  <stEvt:instanceID>xmp.iid:69DAF08AC08CE511915DC38CADF3C5DB</stEvt:instanceID>
                  <stEvt:when>2015-11-16T19:17:54-05:00</stEvt:when>
                  <stEvt:softwareAgent>Adobe Audition CS6 (Windows)</stEvt:softwareAgent>
                  <stEvt:changed>/metadata</stEvt:changed>
               </rdf:li>
               <rdf:li rdf:parseType="Resource">
                  <stEvt:action>saved</stEvt:action>
                  <stEvt:instanceID>xmp.iid:6ADAF08AC08CE511915DC38CADF3C5DB</stEvt:instanceID>
                  <stEvt:when>2015-11-16T19:17:54-05:00</stEvt:when>
                  <stEvt:softwareAgent>Adobe Audition CS6 (Windows)</stEvt:softwareAgent>
                  <stEvt:changed>/</stEvt:changed>
               </rdf:li>
               <rdf:li rdf:parseType="Resource">
                  <stEvt:action>saved</stEvt:action>
                  <stEvt:instanceID>xmp.iid:6BDAF08AC08CE511915DC38CADF3C5DB</stEvt:instanceID>
                  <stEvt:when>2015-11-16T20:06:12-05:00</stEvt:when>
                  <stEvt:softwareAgent>Adobe Audition CS6 (Windows)</stEvt:softwareAgent>
                  <stEvt:changed>/metadata</stEvt:changed>
               </rdf:li>
               <rdf:li rdf:parseType="Resource">
                  <stEvt:action>saved</stEvt:action>
                  <stEvt:instanceID>xmp.iid:6CDAF08AC08CE511915DC38CADF3C5DB</stEvt:instanceID>
                  <stEvt:when>2015-11-16T20:06:12-05:00</stEvt:when>
                  <stEvt:softwareAgent>Adobe Audition CS6 (Windows)</stEvt:softwareAgent>
                  <stEvt:changed>/</stEvt:changed>
               </rdf:li>
               <rdf:li rdf:parseType="Resource">
                  <stEvt:action>saved</stEvt:action>
                  <stEvt:instanceID>xmp.iid:6FDAF08AC08CE511915DC38CADF3C5DB</stEvt:instanceID>
                  <stEvt:when>2015-11-16T20:16:12-05:00</stEvt:when>
                  <stEvt:softwareAgent>Adobe Audition CS6 (Windows)</stEvt:softwareAgent>
                  <stEvt:changed>/metadata</stEvt:changed>
               </rdf:li>
               <rdf:li rdf:parseType="Resource">
                  <stEvt:action>saved</stEvt:action>
                  <stEvt:instanceID>xmp.iid:2BB3B1CAC88CE511915DC38CADF3C5DB</stEvt:instanceID>
                  <stEvt:when>2015-11-16T20:16:12-05:00</stEvt:when>
                  <stEvt:softwareAgent>Adobe Audition CS6 (Windows)</stEvt:softwareAgent>
                  <stEvt:changed>/</stEvt:changed>
               </rdf:li>
               <rdf:li rdf:parseType="Resource">
                  <stEvt:action>saved</stEvt:action>
                  <stEvt:instanceID>xmp.iid:2CB3B1CAC88CE511915DC38CADF3C5DB</stEvt:instanceID>
                  <stEvt:when>2015-11-16T20:26:12-05:00</stEvt:when>
                  <stEvt:softwareAgent>Adobe Audition CS6 (Windows)</stEvt:softwareAgent>
                  <stEvt:changed>/metadata</stEvt:changed>
               </rdf:li>
               <rdf:li rdf:parseType="Resource">
                  <stEvt:action>saved</stEvt:action>
                  <stEvt:instanceID>xmp.iid:2DB3B1CAC88CE511915DC38CADF3C5DB</stEvt:instanceID>
                  <stEvt:when>2015-11-16T20:26:12-05:00</stEvt:when>
                  <stEvt:softwareAgent>Adobe Audition CS6 (Windows)</stEvt:softwareAgent>
                  <stEvt:changed>/</stEvt:changed>
               </rdf:li>
               <rdf:li rdf:parseType="Resource">
                  <stEvt:action>saved</stEvt:action>
                  <stEvt:instanceID>xmp.iid:30B3B1CAC88CE511915DC38CADF3C5DB</stEvt:instanceID>
                  <stEvt:when>2015-11-16T20:30:57-05:00</stEvt:when>
                  <stEvt:softwareAgent>Adobe Audition CS6 (Windows)</stEvt:softwareAgent>
                  <stEvt:changed>/metadata</stEvt:changed>
               </rdf:li>
               <rdf:li rdf:parseType="Resource">
                  <stEvt:action>saved</stEvt:action>
                  <stEvt:instanceID>xmp.iid:31B3B1CAC88CE511915DC38CADF3C5DB</stEvt:instanceID>
                  <stEvt:when>2015-11-16T20:30:57-05:00</stEvt:when>
                  <stEvt:softwareAgent>Adobe Audition CS6 (Windows)</stEvt:softwareAgent>
                  <stEvt:changed>/</stEvt:changed>
               </rdf:li>
               <rdf:li rdf:parseType="Resource">
                  <stEvt:action>saved</stEvt:action>
                  <stEvt:instanceID>xmp.iid:32B3B1CAC88CE511915DC38CADF3C5DB</stEvt:instanceID>
                  <stEvt:when>2015-11-16T20:35:29-05:00</stEvt:when>
                  <stEvt:softwareAgent>Adobe Audition CS6 (Windows)</stEvt:softwareAgent>
                  <stEvt:changed>/metadata</stEvt:changed>
               </rdf:li>
               <rdf:li rdf:parseType="Resource">
                  <stEvt:action>saved</stEvt:action>
                  <stEvt:instanceID>xmp.iid:33B3B1CAC88CE511915DC38CADF3C5DB</stEvt:instanceID>
                  <stEvt:when>2015-11-16T20:35:29-05:00</stEvt:when>
                  <stEvt:softwareAgent>Adobe Audition CS6 (Windows)</stEvt:softwareAgent>
                  <stEvt:changed>/</stEvt:changed>
               </rdf:li>
               <rdf:li rdf:parseType="Resource">
                  <stEvt:action>saved</stEvt:action>
                  <stEvt:instanceID>xmp.iid:34B3B1CAC88CE511915DC38CADF3C5DB</stEvt:instanceID>
                  <stEvt:when>2015-11-16T20:45:43-05:00</stEvt:when>
                  <stEvt:softwareAgent>Adobe Audition CS6 (Windows)</stEvt:softwareAgent>
                  <stEvt:changed>/metadata</stEvt:changed>
               </rdf:li>
               <rdf:li rdf:parseType="Resource">
                  <stEvt:action>saved</stEvt:action>
                  <stEvt:instanceID>xmp.iid:35B3B1CAC88CE511915DC38CADF3C5DB</stEvt:instanceID>
                  <stEvt:when>2015-11-16T20:45:43-05:00</stEvt:when>
                  <stEvt:softwareAgent>Adobe Audition CS6 (Windows)</stEvt:softwareAgent>
                  <stEvt:changed>/</stEvt:changed>
               </rdf:li>
               <rdf:li rdf:parseType="Resource">
                  <stEvt:action>saved</stEvt:action>
                  <stEvt:instanceID>xmp.iid:6856DB63CD8CE511915DC38CADF3C5DB</stEvt:instanceID>
                  <stEvt:when>2015-11-16T20:49:07-05:00</stEvt:when>
                  <stEvt:softwareAgent>Adobe Audition CS6 (Windows)</stEvt:softwareAgent>
                  <stEvt:changed>/metadata</stEvt:changed>
               </rdf:li>
               <rdf:li rdf:parseType="Resource">
                  <stEvt:action>saved</stEvt:action>
                  <stEvt:instanceID>xmp.iid:6956DB63CD8CE511915DC38CADF3C5DB</stEvt:instanceID>
                  <stEvt:when>2015-11-16T20:49:07-05:00</stEvt:when>
                  <stEvt:softwareAgent>Adobe Audition CS6 (Windows)</stEvt:softwareAgent>
                  <stEvt:changed>/</stEvt:changed>
               </rdf:li>
               <rdf:li rdf:parseType="Resource">
                  <stEvt:action>saved</stEvt:action>
                  <stEvt:instanceID>xmp.iid:6A56DB63CD8CE511915DC38CADF3C5DB</stEvt:instanceID>
                  <stEvt:when>2015-11-16T20:51:54-05:00</stEvt:when>
                  <stEvt:softwareAgent>Adobe Audition CS6 (Windows)</stEvt:softwareAgent>
                  <stEvt:changed>/metadata</stEvt:changed>
               </rdf:li>
               <rdf:li rdf:parseType="Resource">
                  <stEvt:action>saved</stEvt:action>
                  <stEvt:instanceID>xmp.iid:6B56DB63CD8CE511915DC38CADF3C5DB</stEvt:instanceID>
                  <stEvt:when>2015-11-16T20:51:54-05:00</stEvt:when>
                  <stEvt:softwareAgent>Adobe Audition CS6 (Windows)</stEvt:softwareAgent>
                  <stEvt:changed>/</stEvt:changed>
               </rdf:li>
               <rdf:li rdf:parseType="Resource">
                  <stEvt:action>saved</stEvt:action>
                  <stEvt:instanceID>xmp.iid:6C56DB63CD8CE511915DC38CADF3C5DB</stEvt:instanceID>
                  <stEvt:when>2015-11-16T21:03:13-05:00</stEvt:when>
                  <stEvt:softwareAgent>Adobe Audition CS6 (Windows)</stEvt:softwareAgent>
                  <stEvt:changed>/metadata</stEvt:changed>
               </rdf:li>
               <rdf:li rdf:parseType="Resource">
                  <stEvt:action>saved</stEvt:action>
                  <stEvt:instanceID>xmp.iid:6D56DB63CD8CE511915DC38CADF3C5DB</stEvt:instanceID>
                  <stEvt:when>2015-11-16T21:03:13-05:00</stEvt:when>
                  <stEvt:softwareAgent>Adobe Audition CS6 (Windows)</stEvt:softwareAgent>
                  <stEvt:changed>/</stEvt:changed>
               </rdf:li>
               <rdf:li rdf:parseType="Resource">
                  <stEvt:action>saved</stEvt:action>
                  <stEvt:instanceID>xmp.iid:6E56DB63CD8CE511915DC38CADF3C5DB</stEvt:instanceID>
                  <stEvt:when>2015-11-16T21:15:13-05:00</stEvt:when>
                  <stEvt:softwareAgent>Adobe Audition CS6 (Windows)</stEvt:softwareAgent>
                  <stEvt:changed>/metadata</stEvt:changed>
               </rdf:li>
               <rdf:li rdf:parseType="Resource">
                  <stEvt:action>saved</stEvt:action>
                  <stEvt:instanceID>xmp.iid:6F56DB63CD8CE511915DC38CADF3C5DB</stEvt:instanceID>
                  <stEvt:when>2015-11-16T21:15:13-05:00</stEvt:when>
                  <stEvt:softwareAgent>Adobe Audition CS6 (Windows)</stEvt:softwareAgent>
                  <stEvt:changed>/</stEvt:changed>
               </rdf:li>
               <rdf:li rdf:parseType="Resource">
                  <stEvt:action>saved</stEvt:action>
                  <stEvt:instanceID>xmp.iid:7056DB63CD8CE511915DC38CADF3C5DB</stEvt:instanceID>
                  <stEvt:when>2015-11-16T21:20:15-05:00</stEvt:when>
                  <stEvt:softwareAgent>Adobe Audition CS6 (Windows)</stEvt:softwareAgent>
                  <stEvt:changed>/metadata</stEvt:changed>
               </rdf:li>
               <rdf:li rdf:parseType="Resource">
                  <stEvt:action>saved</stEvt:action>
                  <stEvt:instanceID>xmp.iid:3D7756BDD18CE511915DC38CADF3C5DB</stEvt:instanceID>
                  <stEvt:when>2015-11-16T21:20:15-05:00</stEvt:when>
                  <stEvt:softwareAgent>Adobe Audition CS6 (Windows)</stEvt:softwareAgent>
                  <stEvt:changed>/</stEvt:changed>
               </rdf:li>
               <rdf:li rdf:parseType="Resource">
                  <stEvt:action>saved</stEvt:action>
                  <stEvt:instanceID>xmp.iid:3E7756BDD18CE511915DC38CADF3C5DB</stEvt:instanceID>
                  <stEvt:when>2015-11-16T21:23:21-05:00</stEvt:when>
                  <stEvt:softwareAgent>Adobe Audition CS6 (Windows)</stEvt:softwareAgent>
                  <stEvt:changed>/metadata</stEvt:changed>
               </rdf:li>
               <rdf:li rdf:parseType="Resource">
                  <stEvt:action>saved</stEvt:action>
                  <stEvt:instanceID>xmp.iid:3F7756BDD18CE511915DC38CADF3C5DB</stEvt:instanceID>
                  <stEvt:when>2015-11-16T21:23:21-05:00</stEvt:when>
                  <stEvt:softwareAgent>Adobe Audition CS6 (Windows)</stEvt:softwareAgent>
                  <stEvt:changed>/</stEvt:changed>
               </rdf:li>
               <rdf:li rdf:parseType="Resource">
                  <stEvt:action>saved</stEvt:action>
                  <stEvt:instanceID>xmp.iid:407756BDD18CE511915DC38CADF3C5DB</stEvt:instanceID>
                  <stEvt:when>2015-11-16T21:28:08-05:00</stEvt:when>
                  <stEvt:softwareAgent>Adobe Audition CS6 (Windows)</stEvt:softwareAgent>
                  <stEvt:changed>/metadata</stEvt:changed>
               </rdf:li>
               <rdf:li rdf:parseType="Resource">
                  <stEvt:action>saved</stEvt:action>
                  <stEvt:instanceID>xmp.iid:417756BDD18CE511915DC38CADF3C5DB</stEvt:instanceID>
                  <stEvt:when>2015-11-16T21:28:08-05:00</stEvt:when>
                  <stEvt:softwareAgent>Adobe Audition CS6 (Windows)</stEvt:softwareAgent>
                  <stEvt:changed>/</stEvt:changed>
               </rdf:li>
               <rdf:li rdf:parseType="Resource">
                  <stEvt:action>saved</stEvt:action>
                  <stEvt:instanceID>xmp.iid:427756BDD18CE511915DC38CADF3C5DB</stEvt:instanceID>
                  <stEvt:when>2015-11-16T21:29:20-05:00</stEvt:when>
                  <stEvt:softwareAgent>Adobe Audition CS6 (Windows)</stEvt:softwareAgent>
                  <stEvt:changed>/metadata</stEvt:changed>
               </rdf:li>
               <rdf:li rdf:parseType="Resource">
                  <stEvt:action>saved</stEvt:action>
                  <stEvt:instanceID>xmp.iid:437756BDD18CE511915DC38CADF3C5DB</stEvt:instanceID>
                  <stEvt:when>2015-11-16T21:29:20-05:00</stEvt:when>
                  <stEvt:softwareAgent>Adobe Audition CS6 (Windows)</stEvt:softwareAgent>
                  <stEvt:changed>/</stEvt:changed>
               </rdf:li>
               <rdf:li rdf:parseType="Resource">
                  <stEvt:action>saved</stEvt:action>
                  <stEvt:instanceID>xmp.iid:447756BDD18CE511915DC38CADF3C5DB</stEvt:instanceID>
                  <stEvt:when>2015-11-16T21:35:15-05:00</stEvt:when>
                  <stEvt:softwareAgent>Adobe Audition CS6 (Windows)</stEvt:softwareAgent>
                  <stEvt:changed>/metadata</stEvt:changed>
               </rdf:li>
               <rdf:li rdf:parseType="Resource">
                  <stEvt:action>saved</stEvt:action>
                  <stEvt:instanceID>xmp.iid:457756BDD18CE511915DC38CADF3C5DB</stEvt:instanceID>
                  <stEvt:when>2015-11-16T21:35:15-05:00</stEvt:when>
                  <stEvt:softwareAgent>Adobe Audition CS6 (Windows)</stEvt:softwareAgent>
                  <stEvt:changed>/</stEvt:changed>
               </rdf:li>
               <rdf:li rdf:parseType="Resource">
                  <stEvt:action>saved</stEvt:action>
                  <stEvt:instanceID>xmp.iid:A5AB37A8D48CE511915DC38CADF3C5DB</stEvt:instanceID>
                  <stEvt:when>2015-11-16T21:41:08-05:00</stEvt:when>
                  <stEvt:softwareAgent>Adobe Audition CS6 (Windows)</stEvt:softwareAgent>
                  <stEvt:changed>/metadata</stEvt:changed>
               </rdf:li>
               <rdf:li rdf:parseType="Resource">
                  <stEvt:action>saved</stEvt:action>
                  <stEvt:instanceID>xmp.iid:A6AB37A8D48CE511915DC38CADF3C5DB</stEvt:instanceID>
                  <stEvt:when>2015-11-16T21:41:08-05:00</stEvt:when>
                  <stEvt:softwareAgent>Adobe Audition CS6 (Windows)</stEvt:softwareAgent>
                  <stEvt:changed>/</stEvt:changed>
               </rdf:li>
               <rdf:li rdf:parseType="Resource">
                  <stEvt:action>saved</stEvt:action>
                  <stEvt:instanceID>xmp.iid:F566EE3F5F8DE511A276EC0D3D263E3E</stEvt:instanceID>
                  <stEvt:when>2015-11-17T14:13:23-05:00</stEvt:when>
                  <stEvt:softwareAgent>Adobe Audition CS6 (Windows)</stEvt:softwareAgent>
                  <stEvt:changed>/metadata</stEvt:changed>
               </rdf:li>
               <rdf:li rdf:parseType="Resource">
                  <stEvt:action>saved</stEvt:action>
                  <stEvt:instanceID>xmp.iid:F666EE3F5F8DE511A276EC0D3D263E3E</stEvt:instanceID>
                  <stEvt:when>2015-11-17T14:13:23-05:00</stEvt:when>
                  <stEvt:softwareAgent>Adobe Audition CS6 (Windows)</stEvt:softwareAgent>
                  <stEvt:changed>/</stEvt:changed>
               </rdf:li>
               <rdf:li rdf:parseType="Resource">
                  <stEvt:action>saved</stEvt:action>
                  <stEvt:instanceID>xmp.iid:44C1937C608DE511A276EC0D3D263E3E</stEvt:instanceID>
                  <stEvt:when>2015-11-17T14:23:37-05:00</stEvt:when>
                  <stEvt:softwareAgent>Adobe Audition CS6 (Windows)</stEvt:softwareAgent>
                  <stEvt:changed>/metadata</stEvt:changed>
               </rdf:li>
               <rdf:li rdf:parseType="Resource">
                  <stEvt:action>saved</stEvt:action>
                  <stEvt:instanceID>xmp.iid:45C1937C608DE511A276EC0D3D263E3E</stEvt:instanceID>
                  <stEvt:when>2015-11-17T14:23:37-05:00</stEvt:when>
                  <stEvt:softwareAgent>Adobe Audition CS6 (Windows)</stEvt:softwareAgent>
                  <stEvt:changed>/</stEvt:changed>
               </rdf:li>
               <rdf:li rdf:parseType="Resource">
                  <stEvt:action>saved</stEvt:action>
                  <stEvt:instanceID>xmp.iid:48C1937C608DE511A276EC0D3D263E3E</stEvt:instanceID>
                  <stEvt:when>2015-11-17T14:33:26-05:00</stEvt:when>
                  <stEvt:softwareAgent>Adobe Audition CS6 (Windows)</stEvt:softwareAgent>
                  <stEvt:changed>/metadata</stEvt:changed>
               </rdf:li>
               <rdf:li rdf:parseType="Resource">
                  <stEvt:action>saved</stEvt:action>
                  <stEvt:instanceID>xmp.iid:49C1937C608DE511A276EC0D3D263E3E</stEvt:instanceID>
                  <stEvt:when>2015-11-17T14:33:26-05:00</stEvt:when>
                  <stEvt:softwareAgent>Adobe Audition CS6 (Windows)</stEvt:softwareAgent>
                  <stEvt:changed>/</stEvt:changed>
               </rdf:li>
               <rdf:li rdf:parseType="Resource">
                  <stEvt:action>saved</stEvt:action>
                  <stEvt:instanceID>xmp.iid:7E006363628DE511A276EC0D3D263E3E</stEvt:instanceID>
                  <stEvt:when>2015-11-17T14:35:41-05:00</stEvt:when>
                  <stEvt:softwareAgent>Adobe Audition CS6 (Windows)</stEvt:softwareAgent>
                  <stEvt:changed>/metadata</stEvt:changed>
               </rdf:li>
               <rdf:li rdf:parseType="Resource">
                  <stEvt:action>saved</stEvt:action>
                  <stEvt:instanceID>xmp.iid:7F006363628DE511A276EC0D3D263E3E</stEvt:instanceID>
                  <stEvt:when>2015-11-17T14:35:41-05:00</stEvt:when>
                  <stEvt:softwareAgent>Adobe Audition CS6 (Windows)</stEvt:softwareAgent>
                  <stEvt:changed>/</stEvt:changed>
               </rdf:li>
               <rdf:li rdf:parseType="Resource">
                  <stEvt:action>saved</stEvt:action>
                  <stEvt:instanceID>xmp.iid:82006363628DE511A276EC0D3D263E3E</stEvt:instanceID>
                  <stEvt:when>2015-11-17T14:39:24-05:00</stEvt:when>
                  <stEvt:softwareAgent>Adobe Audition CS6 (Windows)</stEvt:softwareAgent>
                  <stEvt:changed>/metadata</stEvt:changed>
               </rdf:li>
               <rdf:li rdf:parseType="Resource">
                  <stEvt:action>saved</stEvt:action>
                  <stEvt:instanceID>xmp.iid:83006363628DE511A276EC0D3D263E3E</stEvt:instanceID>
                  <stEvt:when>2015-11-17T14:39:24-05:00</stEvt:when>
                  <stEvt:softwareAgent>Adobe Audition CS6 (Windows)</stEvt:softwareAgent>
                  <stEvt:changed>/</stEvt:changed>
               </rdf:li>
               <rdf:li rdf:parseType="Resource">
                  <stEvt:action>saved</stEvt:action>
                  <stEvt:instanceID>xmp.iid:84006363628DE511A276EC0D3D263E3E</stEvt:instanceID>
                  <stEvt:when>2015-11-17T14:40:36-05:00</stEvt:when>
                  <stEvt:softwareAgent>Adobe Audition CS6 (Windows)</stEvt:softwareAgent>
                  <stEvt:changed>/metadata</stEvt:changed>
               </rdf:li>
               <rdf:li rdf:parseType="Resource">
                  <stEvt:action>saved</stEvt:action>
                  <stEvt:instanceID>xmp.iid:85006363628DE511A276EC0D3D263E3E</stEvt:instanceID>
                  <stEvt:when>2015-11-17T14:40:36-05:00</stEvt:when>
                  <stEvt:softwareAgent>Adobe Audition CS6 (Windows)</stEvt:softwareAgent>
                  <stEvt:changed>/</stEvt:changed>
               </rdf:li>
               <rdf:li rdf:parseType="Resource">
                  <stEvt:action>saved</stEvt:action>
                  <stEvt:instanceID>xmp.iid:86006363628DE511A276EC0D3D263E3E</stEvt:instanceID>
                  <stEvt:when>2015-11-17T14:51:07-05:00</stEvt:when>
                  <stEvt:softwareAgent>Adobe Audition CS6 (Windows)</stEvt:softwareAgent>
                  <stEvt:changed>/metadata</stEvt:changed>
               </rdf:li>
               <rdf:li rdf:parseType="Resource">
                  <stEvt:action>saved</stEvt:action>
                  <stEvt:instanceID>xmp.iid:87006363628DE511A276EC0D3D263E3E</stEvt:instanceID>
                  <stEvt:when>2015-11-17T14:51:07-05:00</stEvt:when>
                  <stEvt:softwareAgent>Adobe Audition CS6 (Windows)</stEvt:softwareAgent>
                  <stEvt:changed>/</stEvt:changed>
               </rdf:li>
               <rdf:li rdf:parseType="Resource">
                  <stEvt:action>saved</stEvt:action>
                  <stEvt:instanceID>xmp.iid:7190F6CA648DE511A276EC0D3D263E3E</stEvt:instanceID>
                  <stEvt:when>2015-11-17T14:52:54-05:00</stEvt:when>
                  <stEvt:softwareAgent>Adobe Audition CS6 (Windows)</stEvt:softwareAgent>
                  <stEvt:changed>/metadata</stEvt:changed>
               </rdf:li>
               <rdf:li rdf:parseType="Resource">
                  <stEvt:action>saved</stEvt:action>
                  <stEvt:instanceID>xmp.iid:7290F6CA648DE511A276EC0D3D263E3E</stEvt:instanceID>
                  <stEvt:when>2015-11-17T14:52:54-05:00</stEvt:when>
                  <stEvt:softwareAgent>Adobe Audition CS6 (Windows)</stEvt:softwareAgent>
                  <stEvt:changed>/</stEvt:changed>
               </rdf:li>
               <rdf:li rdf:parseType="Resource">
                  <stEvt:action>saved</stEvt:action>
                  <stEvt:instanceID>xmp.iid:7390F6CA648DE511A276EC0D3D263E3E</stEvt:instanceID>
                  <stEvt:when>2015-11-17T14:55:20-05:00</stEvt:when>
                  <stEvt:softwareAgent>Adobe Audition CS6 (Windows)</stEvt:softwareAgent>
                  <stEvt:changed>/metadata</stEvt:changed>
               </rdf:li>
               <rdf:li rdf:parseType="Resource">
                  <stEvt:action>saved</stEvt:action>
                  <stEvt:instanceID>xmp.iid:7490F6CA648DE511A276EC0D3D263E3E</stEvt:instanceID>
                  <stEvt:when>2015-11-17T14:55:20-05:00</stEvt:when>
                  <stEvt:softwareAgent>Adobe Audition CS6 (Windows)</stEvt:softwareAgent>
                  <stEvt:changed>/</stEvt:changed>
               </rdf:li>
               <rdf:li rdf:parseType="Resource">
                  <stEvt:action>saved</stEvt:action>
                  <stEvt:instanceID>xmp.iid:7590F6CA648DE511A276EC0D3D263E3E</stEvt:instanceID>
                  <stEvt:when>2015-11-17T15:01:58-05:00</stEvt:when>
                  <stEvt:softwareAgent>Adobe Audition CS6 (Windows)</stEvt:softwareAgent>
                  <stEvt:changed>/metadata</stEvt:changed>
               </rdf:li>
               <rdf:li rdf:parseType="Resource">
                  <stEvt:action>saved</stEvt:action>
                  <stEvt:instanceID>xmp.iid:7690F6CA648DE511A276EC0D3D263E3E</stEvt:instanceID>
                  <stEvt:when>2015-11-17T15:01:58-05:00</stEvt:when>
                  <stEvt:softwareAgent>Adobe Audition CS6 (Windows)</stEvt:softwareAgent>
                  <stEvt:changed>/</stEvt:changed>
               </rdf:li>
               <rdf:li rdf:parseType="Resource">
                  <stEvt:action>saved</stEvt:action>
                  <stEvt:instanceID>xmp.iid:7790F6CA648DE511A276EC0D3D263E3E</stEvt:instanceID>
                  <stEvt:when>2015-11-17T15:05:18-05:00</stEvt:when>
                  <stEvt:softwareAgent>Adobe Audition CS6 (Windows)</stEvt:softwareAgent>
                  <stEvt:changed>/metadata</stEvt:changed>
               </rdf:li>
               <rdf:li rdf:parseType="Resource">
                  <stEvt:action>saved</stEvt:action>
                  <stEvt:instanceID>xmp.iid:7890F6CA648DE511A276EC0D3D263E3E</stEvt:instanceID>
                  <stEvt:when>2015-11-17T15:05:18-05:00</stEvt:when>
                  <stEvt:softwareAgent>Adobe Audition CS6 (Windows)</stEvt:softwareAgent>
                  <stEvt:changed>/</stEvt:changed>
               </rdf:li>
               <rdf:li rdf:parseType="Resource">
                  <stEvt:action>saved</stEvt:action>
                  <stEvt:instanceID>xmp.iid:7990F6CA648DE511A276EC0D3D263E3E</stEvt:instanceID>
                  <stEvt:when>2015-11-17T15:08:58-05:00</stEvt:when>
                  <stEvt:softwareAgent>Adobe Audition CS6 (Windows)</stEvt:softwareAgent>
                  <stEvt:changed>/metadata</stEvt:changed>
               </rdf:li>
               <rdf:li rdf:parseType="Resource">
                  <stEvt:action>saved</stEvt:action>
                  <stEvt:instanceID>xmp.iid:B75C6D09678DE511A276EC0D3D263E3E</stEvt:instanceID>
                  <stEvt:when>2015-11-17T15:08:58-05:00</stEvt:when>
                  <stEvt:softwareAgent>Adobe Audition CS6 (Windows)</stEvt:softwareAgent>
                  <stEvt:changed>/</stEvt:changed>
               </rdf:li>
               <rdf:li rdf:parseType="Resource">
                  <stEvt:action>saved</stEvt:action>
                  <stEvt:instanceID>xmp.iid:B85C6D09678DE511A276EC0D3D263E3E</stEvt:instanceID>
                  <stEvt:when>2015-11-17T15:10:19-05:00</stEvt:when>
                  <stEvt:softwareAgent>Adobe Audition CS6 (Windows)</stEvt:softwareAgent>
                  <stEvt:changed>/metadata</stEvt:changed>
               </rdf:li>
               <rdf:li rdf:parseType="Resource">
                  <stEvt:action>saved</stEvt:action>
                  <stEvt:instanceID>xmp.iid:B95C6D09678DE511A276EC0D3D263E3E</stEvt:instanceID>
                  <stEvt:when>2015-11-17T15:10:19-05:00</stEvt:when>
                  <stEvt:softwareAgent>Adobe Audition CS6 (Windows)</stEvt:softwareAgent>
                  <stEvt:changed>/</stEvt:changed>
               </rdf:li>
               <rdf:li rdf:parseType="Resource">
                  <stEvt:action>saved</stEvt:action>
                  <stEvt:instanceID>xmp.iid:BA5C6D09678DE511A276EC0D3D263E3E</stEvt:instanceID>
                  <stEvt:when>2015-11-17T15:11:59-05:00</stEvt:when>
                  <stEvt:softwareAgent>Adobe Audition CS6 (Windows)</stEvt:softwareAgent>
                  <stEvt:changed>/metadata</stEvt:changed>
               </rdf:li>
               <rdf:li rdf:parseType="Resource">
                  <stEvt:action>saved</stEvt:action>
                  <stEvt:instanceID>xmp.iid:BB5C6D09678DE511A276EC0D3D263E3E</stEvt:instanceID>
                  <stEvt:when>2015-11-17T15:11:59-05:00</stEvt:when>
                  <stEvt:softwareAgent>Adobe Audition CS6 (Windows)</stEvt:softwareAgent>
                  <stEvt:changed>/</stEvt:changed>
               </rdf:li>
               <rdf:li rdf:parseType="Resource">
                  <stEvt:action>saved</stEvt:action>
                  <stEvt:instanceID>xmp.iid:BC5C6D09678DE511A276EC0D3D263E3E</stEvt:instanceID>
                  <stEvt:when>2015-11-17T15:14:21-05:00</stEvt:when>
                  <stEvt:softwareAgent>Adobe Audition CS6 (Windows)</stEvt:softwareAgent>
                  <stEvt:changed>/metadata</stEvt:changed>
               </rdf:li>
               <rdf:li rdf:parseType="Resource">
                  <stEvt:action>saved</stEvt:action>
                  <stEvt:instanceID>xmp.iid:BD5C6D09678DE511A276EC0D3D263E3E</stEvt:instanceID>
                  <stEvt:when>2015-11-17T15:14:21-05:00</stEvt:when>
                  <stEvt:softwareAgent>Adobe Audition CS6 (Windows)</stEvt:softwareAgent>
                  <stEvt:changed>/</stEvt:changed>
               </rdf:li>
               <rdf:li rdf:parseType="Resource">
                  <stEvt:action>saved</stEvt:action>
                  <stEvt:instanceID>xmp.iid:BE5C6D09678DE511A276EC0D3D263E3E</stEvt:instanceID>
                  <stEvt:when>2015-11-17T15:14:25-05:00</stEvt:when>
                  <stEvt:softwareAgent>Adobe Audition CS6 (Windows)</stEvt:softwareAgent>
                  <stEvt:changed>/metadata</stEvt:changed>
               </rdf:li>
               <rdf:li rdf:parseType="Resource">
                  <stEvt:action>saved</stEvt:action>
                  <stEvt:instanceID>xmp.iid:BF5C6D09678DE511A276EC0D3D263E3E</stEvt:instanceID>
                  <stEvt:when>2015-11-17T15:14:25-05:00</stEvt:when>
                  <stEvt:softwareAgent>Adobe Audition CS6 (Windows)</stEvt:softwareAgent>
                  <stEvt:changed>/</stEvt:changed>
               </rdf:li>
               <rdf:li rdf:parseType="Resource">
                  <stEvt:action>saved</stEvt:action>
                  <stEvt:instanceID>xmp.iid:C05C6D09678DE511A276EC0D3D263E3E</stEvt:instanceID>
                  <stEvt:when>2015-11-17T15:17:24-05:00</stEvt:when>
                  <stEvt:softwareAgent>Adobe Audition CS6 (Windows)</stEvt:softwareAgent>
                  <stEvt:changed>/metadata</stEvt:changed>
               </rdf:li>
               <rdf:li rdf:parseType="Resource">
                  <stEvt:action>saved</stEvt:action>
                  <stEvt:instanceID>xmp.iid:C15C6D09678DE511A276EC0D3D263E3E</stEvt:instanceID>
                  <stEvt:when>2015-11-17T15:17:24-05:00</stEvt:when>
                  <stEvt:softwareAgent>Adobe Audition CS6 (Windows)</stEvt:softwareAgent>
                  <stEvt:changed>/</stEvt:changed>
               </rdf:li>
               <rdf:li rdf:parseType="Resource">
                  <stEvt:action>saved</stEvt:action>
                  <stEvt:instanceID>xmp.iid:A921A658688DE511A276EC0D3D263E3E</stEvt:instanceID>
                  <stEvt:when>2015-11-17T15:18:20-05:00</stEvt:when>
                  <stEvt:softwareAgent>Adobe Audition CS6 (Windows)</stEvt:softwareAgent>
                  <stEvt:changed>/metadata</stEvt:changed>
               </rdf:li>
               <rdf:li rdf:parseType="Resource">
                  <stEvt:action>saved</stEvt:action>
                  <stEvt:instanceID>xmp.iid:AA21A658688DE511A276EC0D3D263E3E</stEvt:instanceID>
                  <stEvt:when>2015-11-17T15:18:20-05:00</stEvt:when>
                  <stEvt:softwareAgent>Adobe Audition CS6 (Windows)</stEvt:softwareAgent>
                  <stEvt:changed>/</stEvt:changed>
               </rdf:li>
               <rdf:li rdf:parseType="Resource">
                  <stEvt:action>saved</stEvt:action>
                  <stEvt:instanceID>xmp.iid:AD21A658688DE511A276EC0D3D263E3E</stEvt:instanceID>
                  <stEvt:when>2015-11-17T15:24:47-05:00</stEvt:when>
                  <stEvt:softwareAgent>Adobe Audition CS6 (Windows)</stEvt:softwareAgent>
                  <stEvt:changed>/metadata</stEvt:changed>
               </rdf:li>
               <rdf:li rdf:parseType="Resource">
                  <stEvt:action>saved</stEvt:action>
                  <stEvt:instanceID>xmp.iid:AE21A658688DE511A276EC0D3D263E3E</stEvt:instanceID>
                  <stEvt:when>2015-11-17T15:24:47-05:00</stEvt:when>
                  <stEvt:softwareAgent>Adobe Audition CS6 (Windows)</stEvt:softwareAgent>
                  <stEvt:changed>/</stEvt:changed>
               </rdf:li>
               <rdf:li rdf:parseType="Resource">
                  <stEvt:action>saved</stEvt:action>
                  <stEvt:instanceID>xmp.iid:B321A658688DE511A276EC0D3D263E3E</stEvt:instanceID>
                  <stEvt:when>2015-11-17T22:46:23-05:00</stEvt:when>
                  <stEvt:softwareAgent>Adobe Audition CS6 (Windows)</stEvt:softwareAgent>
                  <stEvt:changed>/metadata</stEvt:changed>
               </rdf:li>
               <rdf:li rdf:parseType="Resource">
                  <stEvt:action>saved</stEvt:action>
                  <stEvt:instanceID>xmp.iid:D22F13F0A68DE511A276EC0D3D263E3E</stEvt:instanceID>
                  <stEvt:when>2015-11-17T22:46:23-05:00</stEvt:when>
                  <stEvt:softwareAgent>Adobe Audition CS6 (Windows)</stEvt:softwareAgent>
                  <stEvt:changed>/</stEvt:changed>
               </rdf:li>
               <rdf:li rdf:parseType="Resource">
                  <stEvt:action>saved</stEvt:action>
                  <stEvt:instanceID>xmp.iid:55A6C82AF08FE511A334DFA86A409AC6</stEvt:instanceID>
                  <stEvt:when>2015-11-20T20:35:41-05:00</stEvt:when>
                  <stEvt:softwareAgent>Adobe Audition CS6 (Windows)</stEvt:softwareAgent>
                  <stEvt:changed>/metadata</stEvt:changed>
               </rdf:li>
               <rdf:li rdf:parseType="Resource">
                  <stEvt:action>saved</stEvt:action>
                  <stEvt:instanceID>xmp.iid:56A6C82AF08FE511A334DFA86A409AC6</stEvt:instanceID>
                  <stEvt:when>2015-11-20T20:35:41-05:00</stEvt:when>
                  <stEvt:softwareAgent>Adobe Audition CS6 (Windows)</stEvt:softwareAgent>
                  <stEvt:changed>/</stEvt:changed>
               </rdf:li>
               <rdf:li rdf:parseType="Resource">
                  <stEvt:action>saved</stEvt:action>
                  <stEvt:instanceID>xmp.iid:1101CE65F28FE511A334DFA86A409AC6</stEvt:instanceID>
                  <stEvt:when>2015-11-20T20:51:35-05:00</stEvt:when>
                  <stEvt:softwareAgent>Adobe Audition CS6 (Windows)</stEvt:softwareAgent>
                  <stEvt:changed>/metadata</stEvt:changed>
               </rdf:li>
               <rdf:li rdf:parseType="Resource">
                  <stEvt:action>saved</stEvt:action>
                  <stEvt:instanceID>xmp.iid:1201CE65F28FE511A334DFA86A409AC6</stEvt:instanceID>
                  <stEvt:when>2015-11-20T20:51:35-05:00</stEvt:when>
                  <stEvt:softwareAgent>Adobe Audition CS6 (Windows)</stEvt:softwareAgent>
                  <stEvt:changed>/</stEvt:changed>
               </rdf:li>
               <rdf:li rdf:parseType="Resource">
                  <stEvt:action>saved</stEvt:action>
                  <stEvt:instanceID>xmp.iid:1501CE65F28FE511A334DFA86A409AC6</stEvt:instanceID>
                  <stEvt:when>2015-11-20T21:02:36-05:00</stEvt:when>
                  <stEvt:softwareAgent>Adobe Audition CS6 (Windows)</stEvt:softwareAgent>
                  <stEvt:changed>/metadata</stEvt:changed>
               </rdf:li>
               <rdf:li rdf:parseType="Resource">
                  <stEvt:action>saved</stEvt:action>
                  <stEvt:instanceID>xmp.iid:1601CE65F28FE511A334DFA86A409AC6</stEvt:instanceID>
                  <stEvt:when>2015-11-20T21:02:36-05:00</stEvt:when>
                  <stEvt:softwareAgent>Adobe Audition CS6 (Windows)</stEvt:softwareAgent>
                  <stEvt:changed>/</stEvt:changed>
               </rdf:li>
               <rdf:li rdf:parseType="Resource">
                  <stEvt:action>saved</stEvt:action>
                  <stEvt:instanceID>xmp.iid:1701CE65F28FE511A334DFA86A409AC6</stEvt:instanceID>
                  <stEvt:when>2015-11-20T21:13:06-05:00</stEvt:when>
                  <stEvt:softwareAgent>Adobe Audition CS6 (Windows)</stEvt:softwareAgent>
                  <stEvt:changed>/metadata</stEvt:changed>
               </rdf:li>
               <rdf:li rdf:parseType="Resource">
                  <stEvt:action>saved</stEvt:action>
                  <stEvt:instanceID>xmp.iid:1801CE65F28FE511A334DFA86A409AC6</stEvt:instanceID>
                  <stEvt:when>2015-11-20T21:13:06-05:00</stEvt:when>
                  <stEvt:softwareAgent>Adobe Audition CS6 (Windows)</stEvt:softwareAgent>
                  <stEvt:changed>/</stEvt:changed>
               </rdf:li>
               <rdf:li rdf:parseType="Resource">
                  <stEvt:action>saved</stEvt:action>
                  <stEvt:instanceID>xmp.iid:1B01CE65F28FE511A334DFA86A409AC6</stEvt:instanceID>
                  <stEvt:when>2015-11-20T21:23:37-05:00</stEvt:when>
                  <stEvt:softwareAgent>Adobe Audition CS6 (Windows)</stEvt:softwareAgent>
                  <stEvt:changed>/metadata</stEvt:changed>
               </rdf:li>
               <rdf:li rdf:parseType="Resource">
                  <stEvt:action>saved</stEvt:action>
                  <stEvt:instanceID>xmp.iid:ED6F22DFF68FE511A334DFA86A409AC6</stEvt:instanceID>
                  <stEvt:when>2015-11-20T21:23:37-05:00</stEvt:when>
                  <stEvt:softwareAgent>Adobe Audition CS6 (Windows)</stEvt:softwareAgent>
                  <stEvt:changed>/</stEvt:changed>
               </rdf:li>
               <rdf:li rdf:parseType="Resource">
                  <stEvt:action>saved</stEvt:action>
                  <stEvt:instanceID>xmp.iid:EE6F22DFF68FE511A334DFA86A409AC6</stEvt:instanceID>
                  <stEvt:when>2015-11-20T21:34:07-05:00</stEvt:when>
                  <stEvt:softwareAgent>Adobe Audition CS6 (Windows)</stEvt:softwareAgent>
                  <stEvt:changed>/metadata</stEvt:changed>
               </rdf:li>
               <rdf:li rdf:parseType="Resource">
                  <stEvt:action>saved</stEvt:action>
                  <stEvt:instanceID>xmp.iid:EF6F22DFF68FE511A334DFA86A409AC6</stEvt:instanceID>
                  <stEvt:when>2015-11-20T21:34:07-05:00</stEvt:when>
                  <stEvt:softwareAgent>Adobe Audition CS6 (Windows)</stEvt:softwareAgent>
                  <stEvt:changed>/</stEvt:changed>
               </rdf:li>
               <rdf:li rdf:parseType="Resource">
                  <stEvt:action>saved</stEvt:action>
                  <stEvt:instanceID>xmp.iid:F06F22DFF68FE511A334DFA86A409AC6</stEvt:instanceID>
                  <stEvt:when>2015-11-20T21:44:10-05:00</stEvt:when>
                  <stEvt:softwareAgent>Adobe Audition CS6 (Windows)</stEvt:softwareAgent>
                  <stEvt:changed>/metadata</stEvt:changed>
               </rdf:li>
               <rdf:li rdf:parseType="Resource">
                  <stEvt:action>saved</stEvt:action>
                  <stEvt:instanceID>xmp.iid:F16F22DFF68FE511A334DFA86A409AC6</stEvt:instanceID>
                  <stEvt:when>2015-11-20T21:44:10-05:00</stEvt:when>
                  <stEvt:softwareAgent>Adobe Audition CS6 (Windows)</stEvt:softwareAgent>
                  <stEvt:changed>/</stEvt:changed>
               </rdf:li>
               <rdf:li rdf:parseType="Resource">
                  <stEvt:action>saved</stEvt:action>
                  <stEvt:instanceID>xmp.iid:F26F22DFF68FE511A334DFA86A409AC6</stEvt:instanceID>
                  <stEvt:when>2015-11-20T21:54:12-05:00</stEvt:when>
                  <stEvt:softwareAgent>Adobe Audition CS6 (Windows)</stEvt:softwareAgent>
                  <stEvt:changed>/metadata</stEvt:changed>
               </rdf:li>
               <rdf:li rdf:parseType="Resource">
                  <stEvt:action>saved</stEvt:action>
                  <stEvt:instanceID>xmp.iid:F36F22DFF68FE511A334DFA86A409AC6</stEvt:instanceID>
                  <stEvt:when>2015-11-20T21:54:12-05:00</stEvt:when>
                  <stEvt:softwareAgent>Adobe Audition CS6 (Windows)</stEvt:softwareAgent>
                  <stEvt:changed>/</stEvt:changed>
               </rdf:li>
               <rdf:li rdf:parseType="Resource">
                  <stEvt:action>saved</stEvt:action>
                  <stEvt:instanceID>xmp.iid:1A75AB8AFC8FE511A334DFA86A409AC6</stEvt:instanceID>
                  <stEvt:when>2015-11-20T22:04:12-05:00</stEvt:when>
                  <stEvt:softwareAgent>Adobe Audition CS6 (Windows)</stEvt:softwareAgent>
                  <stEvt:changed>/metadata</stEvt:changed>
               </rdf:li>
               <rdf:li rdf:parseType="Resource">
                  <stEvt:action>saved</stEvt:action>
                  <stEvt:instanceID>xmp.iid:1B75AB8AFC8FE511A334DFA86A409AC6</stEvt:instanceID>
                  <stEvt:when>2015-11-20T22:04:12-05:00</stEvt:when>
                  <stEvt:softwareAgent>Adobe Audition CS6 (Windows)</stEvt:softwareAgent>
                  <stEvt:changed>/</stEvt:changed>
               </rdf:li>
               <rdf:li rdf:parseType="Resource">
                  <stEvt:action>saved</stEvt:action>
                  <stEvt:instanceID>xmp.iid:1E75AB8AFC8FE511A334DFA86A409AC6</stEvt:instanceID>
                  <stEvt:when>2015-11-20T22:04:48-05:00</stEvt:when>
                  <stEvt:softwareAgent>Adobe Audition CS6 (Windows)</stEvt:softwareAgent>
                  <stEvt:changed>/metadata</stEvt:changed>
               </rdf:li>
               <rdf:li rdf:parseType="Resource">
                  <stEvt:action>saved</stEvt:action>
                  <stEvt:instanceID>xmp.iid:1F75AB8AFC8FE511A334DFA86A409AC6</stEvt:instanceID>
                  <stEvt:when>2015-11-20T22:04:48-05:00</stEvt:when>
                  <stEvt:softwareAgent>Adobe Audition CS6 (Windows)</stEvt:softwareAgent>
                  <stEvt:changed>/</stEvt:changed>
               </rdf:li>
               <rdf:li rdf:parseType="Resource">
                  <stEvt:action>saved</stEvt:action>
                  <stEvt:instanceID>xmp.iid:41C066DEFC8FE5119BC5D1EC6CEA1BDE</stEvt:instanceID>
                  <stEvt:when>2015-11-20T22:20:54-05:00</stEvt:when>
                  <stEvt:softwareAgent>Adobe Audition CS6 (Windows)</stEvt:softwareAgent>
                  <stEvt:changed>/metadata</stEvt:changed>
               </rdf:li>
               <rdf:li rdf:parseType="Resource">
                  <stEvt:action>saved</stEvt:action>
                  <stEvt:instanceID>xmp.iid:42C066DEFC8FE5119BC5D1EC6CEA1BDE</stEvt:instanceID>
                  <stEvt:when>2015-11-20T22:20:54-05:00</stEvt:when>
                  <stEvt:softwareAgent>Adobe Audition CS6 (Windows)</stEvt:softwareAgent>
                  <stEvt:changed>/</stEvt:changed>
               </rdf:li>
               <rdf:li rdf:parseType="Resource">
                  <stEvt:action>saved</stEvt:action>
                  <stEvt:instanceID>xmp.iid:0AD3BCE0FF8FE5119BC5D1EC6CEA1BDE</stEvt:instanceID>
                  <stEvt:when>2015-11-20T22:28:05-05:00</stEvt:when>
                  <stEvt:softwareAgent>Adobe Audition CS6 (Windows)</stEvt:softwareAgent>
                  <stEvt:changed>/metadata</stEvt:changed>
               </rdf:li>
               <rdf:li rdf:parseType="Resource">
                  <stEvt:action>saved</stEvt:action>
                  <stEvt:instanceID>xmp.iid:0BD3BCE0FF8FE5119BC5D1EC6CEA1BDE</stEvt:instanceID>
                  <stEvt:when>2015-11-20T22:28:05-05:00</stEvt:when>
                  <stEvt:softwareAgent>Adobe Audition CS6 (Windows)</stEvt:softwareAgent>
                  <stEvt:changed>/</stEvt:changed>
               </rdf:li>
               <rdf:li rdf:parseType="Resource">
                  <stEvt:action>saved</stEvt:action>
                  <stEvt:instanceID>xmp.iid:0CD3BCE0FF8FE5119BC5D1EC6CEA1BDE</stEvt:instanceID>
                  <stEvt:when>2015-11-20T22:39:30-05:00</stEvt:when>
                  <stEvt:softwareAgent>Adobe Audition CS6 (Windows)</stEvt:softwareAgent>
                  <stEvt:changed>/metadata</stEvt:changed>
               </rdf:li>
               <rdf:li rdf:parseType="Resource">
                  <stEvt:action>saved</stEvt:action>
                  <stEvt:instanceID>xmp.iid:0DD3BCE0FF8FE5119BC5D1EC6CEA1BDE</stEvt:instanceID>
                  <stEvt:when>2015-11-20T22:39:30-05:00</stEvt:when>
                  <stEvt:softwareAgent>Adobe Audition CS6 (Windows)</stEvt:softwareAgent>
                  <stEvt:changed>/</stEvt:changed>
               </rdf:li>
               <rdf:li rdf:parseType="Resource">
                  <stEvt:action>saved</stEvt:action>
                  <stEvt:instanceID>xmp.iid:10D3BCE0FF8FE5119BC5D1EC6CEA1BDE</stEvt:instanceID>
                  <stEvt:when>2015-11-20T22:41:22-05:00</stEvt:when>
                  <stEvt:softwareAgent>Adobe Audition CS6 (Windows)</stEvt:softwareAgent>
                  <stEvt:changed>/metadata</stEvt:changed>
               </rdf:li>
               <rdf:li rdf:parseType="Resource">
                  <stEvt:action>saved</stEvt:action>
                  <stEvt:instanceID>xmp.iid:11D3BCE0FF8FE5119BC5D1EC6CEA1BDE</stEvt:instanceID>
                  <stEvt:when>2015-11-20T22:41:22-05:00</stEvt:when>
                  <stEvt:softwareAgent>Adobe Audition CS6 (Windows)</stEvt:softwareAgent>
                  <stEvt:changed>/</stEvt:changed>
               </rdf:li>
               <rdf:li rdf:parseType="Resource">
                  <stEvt:action>saved</stEvt:action>
                  <stEvt:instanceID>xmp.iid:9783E67C0290E5119BC5D1EC6CEA1BDE</stEvt:instanceID>
                  <stEvt:when>2015-11-20T22:46:46-05:00</stEvt:when>
                  <stEvt:softwareAgent>Adobe Audition CS6 (Windows)</stEvt:softwareAgent>
                  <stEvt:changed>/metadata</stEvt:changed>
               </rdf:li>
               <rdf:li rdf:parseType="Resource">
                  <stEvt:action>saved</stEvt:action>
                  <stEvt:instanceID>xmp.iid:9883E67C0290E5119BC5D1EC6CEA1BDE</stEvt:instanceID>
                  <stEvt:when>2015-11-20T22:46:46-05:00</stEvt:when>
                  <stEvt:softwareAgent>Adobe Audition CS6 (Windows)</stEvt:softwareAgent>
                  <stEvt:changed>/</stEvt:changed>
               </rdf:li>
               <rdf:li rdf:parseType="Resource">
                  <stEvt:action>saved</stEvt:action>
                  <stEvt:instanceID>xmp.iid:9983E67C0290E5119BC5D1EC6CEA1BDE</stEvt:instanceID>
                  <stEvt:when>2015-11-20T22:57:15-05:00</stEvt:when>
                  <stEvt:softwareAgent>Adobe Audition CS6 (Windows)</stEvt:softwareAgent>
                  <stEvt:changed>/metadata</stEvt:changed>
               </rdf:li>
               <rdf:li rdf:parseType="Resource">
                  <stEvt:action>saved</stEvt:action>
                  <stEvt:instanceID>xmp.iid:9A83E67C0290E5119BC5D1EC6CEA1BDE</stEvt:instanceID>
                  <stEvt:when>2015-11-20T22:57:15-05:00</stEvt:when>
                  <stEvt:softwareAgent>Adobe Audition CS6 (Windows)</stEvt:softwareAgent>
                  <stEvt:changed>/</stEvt:changed>
               </rdf:li>
               <rdf:li rdf:parseType="Resource">
                  <stEvt:action>saved</stEvt:action>
                  <stEvt:instanceID>xmp.iid:9B83E67C0290E5119BC5D1EC6CEA1BDE</stEvt:instanceID>
                  <stEvt:when>2015-11-20T23:09:18-05:00</stEvt:when>
                  <stEvt:softwareAgent>Adobe Audition CS6 (Windows)</stEvt:softwareAgent>
                  <stEvt:changed>/metadata</stEvt:changed>
               </rdf:li>
               <rdf:li rdf:parseType="Resource">
                  <stEvt:action>saved</stEvt:action>
                  <stEvt:instanceID>xmp.iid:9C83E67C0290E5119BC5D1EC6CEA1BDE</stEvt:instanceID>
                  <stEvt:when>2015-11-20T23:09:18-05:00</stEvt:when>
                  <stEvt:softwareAgent>Adobe Audition CS6 (Windows)</stEvt:softwareAgent>
                  <stEvt:changed>/</stEvt:changed>
               </rdf:li>
               <rdf:li rdf:parseType="Resource">
                  <stEvt:action>saved</stEvt:action>
                  <stEvt:instanceID>xmp.iid:73F5DBDB0690E511AEC89FDA12BBC668</stEvt:instanceID>
                  <stEvt:when>2015-11-20T23:18:11-05:00</stEvt:when>
                  <stEvt:softwareAgent>Adobe Audition CS6 (Windows)</stEvt:softwareAgent>
                  <stEvt:changed>/metadata</stEvt:changed>
               </rdf:li>
               <rdf:li rdf:parseType="Resource">
                  <stEvt:action>saved</stEvt:action>
                  <stEvt:instanceID>xmp.iid:74F5DBDB0690E511AEC89FDA12BBC668</stEvt:instanceID>
                  <stEvt:when>2015-11-20T23:18:11-05:00</stEvt:when>
                  <stEvt:softwareAgent>Adobe Audition CS6 (Windows)</stEvt:softwareAgent>
                  <stEvt:changed>/</stEvt:changed>
               </rdf:li>
               <rdf:li rdf:parseType="Resource">
                  <stEvt:action>saved</stEvt:action>
                  <stEvt:instanceID>xmp.iid:CE98354A0790E511AEC89FDA12BBC668</stEvt:instanceID>
                  <stEvt:when>2015-11-20T23:21:08-05:00</stEvt:when>
                  <stEvt:softwareAgent>Adobe Audition CS6 (Windows)</stEvt:softwareAgent>
                  <stEvt:changed>/metadata</stEvt:changed>
               </rdf:li>
               <rdf:li rdf:parseType="Resource">
                  <stEvt:action>saved</stEvt:action>
                  <stEvt:instanceID>xmp.iid:CF98354A0790E511AEC89FDA12BBC668</stEvt:instanceID>
                  <stEvt:when>2015-11-20T23:21:08-05:00</stEvt:when>
                  <stEvt:softwareAgent>Adobe Audition CS6 (Windows)</stEvt:softwareAgent>
                  <stEvt:changed>/</stEvt:changed>
               </rdf:li>
               <rdf:li rdf:parseType="Resource">
                  <stEvt:action>saved</stEvt:action>
                  <stEvt:instanceID>xmp.iid:D098354A0790E511AEC89FDA12BBC668</stEvt:instanceID>
                  <stEvt:when>2015-11-20T23:25:30-05:00</stEvt:when>
                  <stEvt:softwareAgent>Adobe Audition CS6 (Windows)</stEvt:softwareAgent>
                  <stEvt:changed>/metadata</stEvt:changed>
               </rdf:li>
               <rdf:li rdf:parseType="Resource">
                  <stEvt:action>saved</stEvt:action>
                  <stEvt:instanceID>xmp.iid:D198354A0790E511AEC89FDA12BBC668</stEvt:instanceID>
                  <stEvt:when>2015-11-20T23:25:30-05:00</stEvt:when>
                  <stEvt:softwareAgent>Adobe Audition CS6 (Windows)</stEvt:softwareAgent>
                  <stEvt:changed>/</stEvt:changed>
               </rdf:li>
               <rdf:li rdf:parseType="Resource">
                  <stEvt:action>saved</stEvt:action>
                  <stEvt:instanceID>xmp.iid:41A4DA0CC190E511B3A38AEDE602C6A6</stEvt:instanceID>
                  <stEvt:when>2015-11-21T21:30:59-05:00</stEvt:when>
                  <stEvt:softwareAgent>Adobe Audition CS6 (Windows)</stEvt:softwareAgent>
                  <stEvt:changed>/metadata</stEvt:changed>
               </rdf:li>
               <rdf:li rdf:parseType="Resource">
                  <stEvt:action>saved</stEvt:action>
                  <stEvt:instanceID>xmp.iid:42A4DA0CC190E511B3A38AEDE602C6A6</stEvt:instanceID>
                  <stEvt:when>2015-11-21T21:30:59-05:00</stEvt:when>
                  <stEvt:softwareAgent>Adobe Audition CS6 (Windows)</stEvt:softwareAgent>
                  <stEvt:changed>/</stEvt:changed>
               </rdf:li>
               <rdf:li rdf:parseType="Resource">
                  <stEvt:action>saved</stEvt:action>
                  <stEvt:instanceID>xmp.iid:3D7E76B3C190E511B3A38AEDE602C6A6</stEvt:instanceID>
                  <stEvt:when>2015-11-21T21:42:50-05:00</stEvt:when>
                  <stEvt:softwareAgent>Adobe Audition CS6 (Windows)</stEvt:softwareAgent>
                  <stEvt:changed>/metadata</stEvt:changed>
               </rdf:li>
               <rdf:li rdf:parseType="Resource">
                  <stEvt:action>saved</stEvt:action>
                  <stEvt:instanceID>xmp.iid:3E7E76B3C190E511B3A38AEDE602C6A6</stEvt:instanceID>
                  <stEvt:when>2015-11-21T21:42:50-05:00</stEvt:when>
                  <stEvt:softwareAgent>Adobe Audition CS6 (Windows)</stEvt:softwareAgent>
                  <stEvt:changed>/</stEvt:changed>
               </rdf:li>
               <rdf:li rdf:parseType="Resource">
                  <stEvt:action>saved</stEvt:action>
                  <stEvt:instanceID>xmp.iid:3F7E76B3C190E511B3A38AEDE602C6A6</stEvt:instanceID>
                  <stEvt:when>2015-11-21T21:52:51-05:00</stEvt:when>
                  <stEvt:softwareAgent>Adobe Audition CS6 (Windows)</stEvt:softwareAgent>
                  <stEvt:changed>/metadata</stEvt:changed>
               </rdf:li>
               <rdf:li rdf:parseType="Resource">
                  <stEvt:action>saved</stEvt:action>
                  <stEvt:instanceID>xmp.iid:407E76B3C190E511B3A38AEDE602C6A6</stEvt:instanceID>
                  <stEvt:when>2015-11-21T21:52:51-05:00</stEvt:when>
                  <stEvt:softwareAgent>Adobe Audition CS6 (Windows)</stEvt:softwareAgent>
                  <stEvt:changed>/</stEvt:changed>
               </rdf:li>
               <rdf:li rdf:parseType="Resource">
                  <stEvt:action>saved</stEvt:action>
                  <stEvt:instanceID>xmp.iid:437E76B3C190E511B3A38AEDE602C6A6</stEvt:instanceID>
                  <stEvt:when>2015-11-21T21:59:59-05:00</stEvt:when>
                  <stEvt:softwareAgent>Adobe Audition CS6 (Windows)</stEvt:softwareAgent>
                  <stEvt:changed>/metadata</stEvt:changed>
               </rdf:li>
               <rdf:li rdf:parseType="Resource">
                  <stEvt:action>saved</stEvt:action>
                  <stEvt:instanceID>xmp.iid:7CDF6B1EC590E511B3A38AEDE602C6A6</stEvt:instanceID>
                  <stEvt:when>2015-11-21T21:59:59-05:00</stEvt:when>
                  <stEvt:softwareAgent>Adobe Audition CS6 (Windows)</stEvt:softwareAgent>
                  <stEvt:changed>/</stEvt:changed>
               </rdf:li>
               <rdf:li rdf:parseType="Resource">
                  <stEvt:action>saved</stEvt:action>
                  <stEvt:instanceID>xmp.iid:7FDF6B1EC590E511B3A38AEDE602C6A6</stEvt:instanceID>
                  <stEvt:when>2015-11-21T22:10:15-05:00</stEvt:when>
                  <stEvt:softwareAgent>Adobe Audition CS6 (Windows)</stEvt:softwareAgent>
                  <stEvt:changed>/metadata</stEvt:changed>
               </rdf:li>
               <rdf:li rdf:parseType="Resource">
                  <stEvt:action>saved</stEvt:action>
                  <stEvt:instanceID>xmp.iid:80DF6B1EC590E511B3A38AEDE602C6A6</stEvt:instanceID>
                  <stEvt:when>2015-11-21T22:10:15-05:00</stEvt:when>
                  <stEvt:softwareAgent>Adobe Audition CS6 (Windows)</stEvt:softwareAgent>
                  <stEvt:changed>/</stEvt:changed>
               </rdf:li>
               <rdf:li rdf:parseType="Resource">
                  <stEvt:action>saved</stEvt:action>
                  <stEvt:instanceID>xmp.iid:81DF6B1EC590E511B3A38AEDE602C6A6</stEvt:instanceID>
                  <stEvt:when>2015-11-21T22:14:34-05:00</stEvt:when>
                  <stEvt:softwareAgent>Adobe Audition CS6 (Windows)</stEvt:softwareAgent>
                  <stEvt:changed>/metadata</stEvt:changed>
               </rdf:li>
               <rdf:li rdf:parseType="Resource">
                  <stEvt:action>saved</stEvt:action>
                  <stEvt:instanceID>xmp.iid:82DF6B1EC590E511B3A38AEDE602C6A6</stEvt:instanceID>
                  <stEvt:when>2015-11-21T22:14:34-05:00</stEvt:when>
                  <stEvt:softwareAgent>Adobe Audition CS6 (Windows)</stEvt:softwareAgent>
                  <stEvt:changed>/</stEvt:changed>
               </rdf:li>
               <rdf:li rdf:parseType="Resource">
                  <stEvt:action>saved</stEvt:action>
                  <stEvt:instanceID>xmp.iid:C7D221CBE296E511837CAC17698B8621</stEvt:instanceID>
                  <stEvt:when>2015-11-29T16:47:47-05:00</stEvt:when>
                  <stEvt:softwareAgent>Adobe Audition CS6 (Windows)</stEvt:softwareAgent>
                  <stEvt:changed>/metadata</stEvt:changed>
               </rdf:li>
               <rdf:li rdf:parseType="Resource">
                  <stEvt:action>saved</stEvt:action>
                  <stEvt:instanceID>xmp.iid:C8D221CBE296E511837CAC17698B8621</stEvt:instanceID>
                  <stEvt:when>2015-11-29T16:47:47-05:00</stEvt:when>
                  <stEvt:softwareAgent>Adobe Audition CS6 (Windows)</stEvt:softwareAgent>
                  <stEvt:changed>/</stEvt:changed>
               </rdf:li>
               <rdf:li rdf:parseType="Resource">
                  <stEvt:action>saved</stEvt:action>
                  <stEvt:instanceID>xmp.iid:CA7066F8E296E511837CAC17698B8621</stEvt:instanceID>
                  <stEvt:when>2015-11-29T16:58:12-05:00</stEvt:when>
                  <stEvt:softwareAgent>Adobe Audition CS6 (Windows)</stEvt:softwareAgent>
                  <stEvt:changed>/metadata</stEvt:changed>
               </rdf:li>
               <rdf:li rdf:parseType="Resource">
                  <stEvt:action>saved</stEvt:action>
                  <stEvt:instanceID>xmp.iid:CB7066F8E296E511837CAC17698B8621</stEvt:instanceID>
                  <stEvt:when>2015-11-29T16:58:12-05:00</stEvt:when>
                  <stEvt:softwareAgent>Adobe Audition CS6 (Windows)</stEvt:softwareAgent>
                  <stEvt:changed>/</stEvt:changed>
               </rdf:li>
               <rdf:li rdf:parseType="Resource">
                  <stEvt:action>saved</stEvt:action>
                  <stEvt:instanceID>xmp.iid:CC7066F8E296E511837CAC17698B8621</stEvt:instanceID>
                  <stEvt:when>2015-11-29T17:02:04-05:00</stEvt:when>
                  <stEvt:softwareAgent>Adobe Audition CS6 (Windows)</stEvt:softwareAgent>
                  <stEvt:changed>/metadata</stEvt:changed>
               </rdf:li>
               <rdf:li rdf:parseType="Resource">
                  <stEvt:action>saved</stEvt:action>
                  <stEvt:instanceID>xmp.iid:CD7066F8E296E511837CAC17698B8621</stEvt:instanceID>
                  <stEvt:when>2015-11-29T17:02:04-05:00</stEvt:when>
                  <stEvt:softwareAgent>Adobe Audition CS6 (Windows)</stEvt:softwareAgent>
                  <stEvt:changed>/</stEvt:changed>
               </rdf:li>
               <rdf:li rdf:parseType="Resource">
                  <stEvt:action>saved</stEvt:action>
                  <stEvt:instanceID>xmp.iid:CE7066F8E296E511837CAC17698B8621</stEvt:instanceID>
                  <stEvt:when>2015-11-29T17:02:29-05:00</stEvt:when>
                  <stEvt:softwareAgent>Adobe Audition CS6 (Windows)</stEvt:softwareAgent>
                  <stEvt:changed>/metadata</stEvt:changed>
               </rdf:li>
               <rdf:li rdf:parseType="Resource">
                  <stEvt:action>saved</stEvt:action>
                  <stEvt:instanceID>xmp.iid:CF7066F8E296E511837CAC17698B8621</stEvt:instanceID>
                  <stEvt:when>2015-11-29T17:02:29-05:00</stEvt:when>
                  <stEvt:softwareAgent>Adobe Audition CS6 (Windows)</stEvt:softwareAgent>
                  <stEvt:changed>/</stEvt:changed>
               </rdf:li>
               <rdf:li rdf:parseType="Resource">
                  <stEvt:action>saved</stEvt:action>
                  <stEvt:instanceID>xmp.iid:D07066F8E296E511837CAC17698B8621</stEvt:instanceID>
                  <stEvt:when>2015-11-29T17:12:42-05:00</stEvt:when>
                  <stEvt:softwareAgent>Adobe Audition CS6 (Windows)</stEvt:softwareAgent>
                  <stEvt:changed>/metadata</stEvt:changed>
               </rdf:li>
               <rdf:li rdf:parseType="Resource">
                  <stEvt:action>saved</stEvt:action>
                  <stEvt:instanceID>xmp.iid:D17066F8E296E511837CAC17698B8621</stEvt:instanceID>
                  <stEvt:when>2015-11-29T17:12:42-05:00</stEvt:when>
                  <stEvt:softwareAgent>Adobe Audition CS6 (Windows)</stEvt:softwareAgent>
                  <stEvt:changed>/</stEvt:changed>
               </rdf:li>
               <rdf:li rdf:parseType="Resource">
                  <stEvt:action>saved</stEvt:action>
                  <stEvt:instanceID>xmp.iid:D61103FDE796E511837CAC17698B8621</stEvt:instanceID>
                  <stEvt:when>2015-11-29T17:24:43-05:00</stEvt:when>
                  <stEvt:softwareAgent>Adobe Audition CS6 (Windows)</stEvt:softwareAgent>
                  <stEvt:changed>/metadata</stEvt:changed>
               </rdf:li>
               <rdf:li rdf:parseType="Resource">
                  <stEvt:action>saved</stEvt:action>
                  <stEvt:instanceID>xmp.iid:D71103FDE796E511837CAC17698B8621</stEvt:instanceID>
                  <stEvt:when>2015-11-29T17:24:43-05:00</stEvt:when>
                  <stEvt:softwareAgent>Adobe Audition CS6 (Windows)</stEvt:softwareAgent>
                  <stEvt:changed>/</stEvt:changed>
               </rdf:li>
               <rdf:li rdf:parseType="Resource">
                  <stEvt:action>saved</stEvt:action>
                  <stEvt:instanceID>xmp.iid:D81103FDE796E511837CAC17698B8621</stEvt:instanceID>
                  <stEvt:when>2015-11-29T17:30:06-05:00</stEvt:when>
                  <stEvt:softwareAgent>Adobe Audition CS6 (Windows)</stEvt:softwareAgent>
                  <stEvt:changed>/metadata</stEvt:changed>
               </rdf:li>
               <rdf:li rdf:parseType="Resource">
                  <stEvt:action>saved</stEvt:action>
                  <stEvt:instanceID>xmp.iid:D91103FDE796E511837CAC17698B8621</stEvt:instanceID>
                  <stEvt:when>2015-11-29T17:30:06-05:00</stEvt:when>
                  <stEvt:softwareAgent>Adobe Audition CS6 (Windows)</stEvt:softwareAgent>
                  <stEvt:changed>/</stEvt:changed>
               </rdf:li>
               <rdf:li rdf:parseType="Resource">
                  <stEvt:action>saved</stEvt:action>
                  <stEvt:instanceID>xmp.iid:DA1103FDE796E511837CAC17698B8621</stEvt:instanceID>
                  <stEvt:when>2015-11-29T17:40:13-05:00</stEvt:when>
                  <stEvt:softwareAgent>Adobe Audition CS6 (Windows)</stEvt:softwareAgent>
                  <stEvt:changed>/metadata</stEvt:changed>
               </rdf:li>
               <rdf:li rdf:parseType="Resource">
                  <stEvt:action>saved</stEvt:action>
                  <stEvt:instanceID>xmp.iid:DB1103FDE796E511837CAC17698B8621</stEvt:instanceID>
                  <stEvt:when>2015-11-29T17:40:13-05:00</stEvt:when>
                  <stEvt:softwareAgent>Adobe Audition CS6 (Windows)</stEvt:softwareAgent>
                  <stEvt:changed>/</stEvt:changed>
               </rdf:li>
               <rdf:li rdf:parseType="Resource">
                  <stEvt:action>saved</stEvt:action>
                  <stEvt:instanceID>xmp.iid:DC1103FDE796E511837CAC17698B8621</stEvt:instanceID>
                  <stEvt:when>2015-11-29T21:45:43-05:00</stEvt:when>
                  <stEvt:softwareAgent>Adobe Audition CS6 (Windows)</stEvt:softwareAgent>
                  <stEvt:changed>/metadata</stEvt:changed>
               </rdf:li>
               <rdf:li rdf:parseType="Resource">
                  <stEvt:action>saved</stEvt:action>
                  <stEvt:instanceID>xmp.iid:DD1103FDE796E511837CAC17698B8621</stEvt:instanceID>
                  <stEvt:when>2015-11-29T21:45:43-05:00</stEvt:when>
                  <stEvt:softwareAgent>Adobe Audition CS6 (Windows)</stEvt:softwareAgent>
                  <stEvt:changed>/</stEvt:changed>
               </rdf:li>
               <rdf:li rdf:parseType="Resource">
                  <stEvt:action>saved</stEvt:action>
                  <stEvt:instanceID>xmp.iid:DE1103FDE796E511837CAC17698B8621</stEvt:instanceID>
                  <stEvt:when>2015-11-29T22:25:46-05:00</stEvt:when>
                  <stEvt:softwareAgent>Adobe Audition CS6 (Windows)</stEvt:softwareAgent>
                  <stEvt:changed>/metadata</stEvt:changed>
               </rdf:li>
               <rdf:li rdf:parseType="Resource">
                  <stEvt:action>saved</stEvt:action>
                  <stEvt:instanceID>xmp.iid:DF1103FDE796E511837CAC17698B8621</stEvt:instanceID>
                  <stEvt:when>2015-11-29T22:25:46-05:00</stEvt:when>
                  <stEvt:softwareAgent>Adobe Audition CS6 (Windows)</stEvt:softwareAgent>
                  <stEvt:changed>/</stEvt:changed>
               </rdf:li>
               <rdf:li rdf:parseType="Resource">
                  <stEvt:action>saved</stEvt:action>
                  <stEvt:instanceID>xmp.iid:ED352A321397E511837CAC17698B8621</stEvt:instanceID>
                  <stEvt:when>2015-11-29T22:37:47-05:00</stEvt:when>
                  <stEvt:softwareAgent>Adobe Audition CS6 (Windows)</stEvt:softwareAgent>
                  <stEvt:changed>/metadata</stEvt:changed>
               </rdf:li>
               <rdf:li rdf:parseType="Resource">
                  <stEvt:action>saved</stEvt:action>
                  <stEvt:instanceID>xmp.iid:EE352A321397E511837CAC17698B8621</stEvt:instanceID>
                  <stEvt:when>2015-11-29T22:37:47-05:00</stEvt:when>
                  <stEvt:softwareAgent>Adobe Audition CS6 (Windows)</stEvt:softwareAgent>
                  <stEvt:changed>/</stEvt:changed>
               </rdf:li>
               <rdf:li rdf:parseType="Resource">
                  <stEvt:action>saved</stEvt:action>
                  <stEvt:instanceID>xmp.iid:EF352A321397E511837CAC17698B8621</stEvt:instanceID>
                  <stEvt:when>2015-11-29T22:48:48-05:00</stEvt:when>
                  <stEvt:softwareAgent>Adobe Audition CS6 (Windows)</stEvt:softwareAgent>
                  <stEvt:changed>/metadata</stEvt:changed>
               </rdf:li>
               <rdf:li rdf:parseType="Resource">
                  <stEvt:action>saved</stEvt:action>
                  <stEvt:instanceID>xmp.iid:F0352A321397E511837CAC17698B8621</stEvt:instanceID>
                  <stEvt:when>2015-11-29T22:48:48-05:00</stEvt:when>
                  <stEvt:softwareAgent>Adobe Audition CS6 (Windows)</stEvt:softwareAgent>
                  <stEvt:changed>/</stEvt:changed>
               </rdf:li>
               <rdf:li rdf:parseType="Resource">
                  <stEvt:action>saved</stEvt:action>
                  <stEvt:instanceID>xmp.iid:F3352A321397E511837CAC17698B8621</stEvt:instanceID>
                  <stEvt:when>2015-11-29T22:55:13-05:00</stEvt:when>
                  <stEvt:softwareAgent>Adobe Audition CS6 (Windows)</stEvt:softwareAgent>
                  <stEvt:changed>/metadata</stEvt:changed>
               </rdf:li>
               <rdf:li rdf:parseType="Resource">
                  <stEvt:action>saved</stEvt:action>
                  <stEvt:instanceID>xmp.iid:F4352A321397E511837CAC17698B8621</stEvt:instanceID>
                  <stEvt:when>2015-11-29T22:55:13-05:00</stEvt:when>
                  <stEvt:softwareAgent>Adobe Audition CS6 (Windows)</stEvt:softwareAgent>
                  <stEvt:changed>/</stEvt:changed>
               </rdf:li>
               <rdf:li rdf:parseType="Resource">
                  <stEvt:action>saved</stEvt:action>
                  <stEvt:instanceID>xmp.iid:B2C123441697E511837CAC17698B8621</stEvt:instanceID>
                  <stEvt:when>2015-11-29T22:55:59-05:00</stEvt:when>
                  <stEvt:softwareAgent>Adobe Audition CS6 (Windows)</stEvt:softwareAgent>
                  <stEvt:changed>/metadata</stEvt:changed>
               </rdf:li>
               <rdf:li rdf:parseType="Resource">
                  <stEvt:action>saved</stEvt:action>
                  <stEvt:instanceID>xmp.iid:B3C123441697E511837CAC17698B8621</stEvt:instanceID>
                  <stEvt:when>2015-11-29T22:55:59-05:00</stEvt:when>
                  <stEvt:softwareAgent>Adobe Audition CS6 (Windows)</stEvt:softwareAgent>
                  <stEvt:changed>/</stEvt:changed>
               </rdf:li>
               <rdf:li rdf:parseType="Resource">
                  <stEvt:action>saved</stEvt:action>
                  <stEvt:instanceID>xmp.iid:B4C123441697E511837CAC17698B8621</stEvt:instanceID>
                  <stEvt:when>2015-11-29T23:06:49-05:00</stEvt:when>
                  <stEvt:softwareAgent>Adobe Audition CS6 (Windows)</stEvt:softwareAgent>
                  <stEvt:changed>/metadata</stEvt:changed>
               </rdf:li>
               <rdf:li rdf:parseType="Resource">
                  <stEvt:action>saved</stEvt:action>
                  <stEvt:instanceID>xmp.iid:B5C123441697E511837CAC17698B8621</stEvt:instanceID>
                  <stEvt:when>2015-11-29T23:06:49-05:00</stEvt:when>
                  <stEvt:softwareAgent>Adobe Audition CS6 (Windows)</stEvt:softwareAgent>
                  <stEvt:changed>/</stEvt:changed>
               </rdf:li>
               <rdf:li rdf:parseType="Resource">
                  <stEvt:action>saved</stEvt:action>
                  <stEvt:instanceID>xmp.iid:B8C123441697E511837CAC17698B8621</stEvt:instanceID>
                  <stEvt:when>2015-11-29T23:07:28-05:00</stEvt:when>
                  <stEvt:softwareAgent>Adobe Audition CS6 (Windows)</stEvt:softwareAgent>
                  <stEvt:changed>/metadata</stEvt:changed>
               </rdf:li>
               <rdf:li rdf:parseType="Resource">
                  <stEvt:action>saved</stEvt:action>
                  <stEvt:instanceID>xmp.iid:B9C123441697E511837CAC17698B8621</stEvt:instanceID>
                  <stEvt:when>2015-11-29T23:07:28-05:00</stEvt:when>
                  <stEvt:softwareAgent>Adobe Audition CS6 (Windows)</stEvt:softwareAgent>
                  <stEvt:changed>/</stEvt:changed>
               </rdf:li>
               <rdf:li rdf:parseType="Resource">
                  <stEvt:action>saved</stEvt:action>
                  <stEvt:instanceID>xmp.iid:BAC123441697E511837CAC17698B8621</stEvt:instanceID>
                  <stEvt:when>2015-11-29T23:17:49-05:00</stEvt:when>
                  <stEvt:softwareAgent>Adobe Audition CS6 (Windows)</stEvt:softwareAgent>
                  <stEvt:changed>/metadata</stEvt:changed>
               </rdf:li>
               <rdf:li rdf:parseType="Resource">
                  <stEvt:action>saved</stEvt:action>
                  <stEvt:instanceID>xmp.iid:BBC123441697E511837CAC17698B8621</stEvt:instanceID>
                  <stEvt:when>2015-11-29T23:17:49-05:00</stEvt:when>
                  <stEvt:softwareAgent>Adobe Audition CS6 (Windows)</stEvt:softwareAgent>
                  <stEvt:changed>/</stEvt:changed>
               </rdf:li>
               <rdf:li rdf:parseType="Resource">
                  <stEvt:action>saved</stEvt:action>
                  <stEvt:instanceID>xmp.iid:BCC123441697E511837CAC17698B8621</stEvt:instanceID>
                  <stEvt:when>2015-11-29T23:28:20-05:00</stEvt:when>
                  <stEvt:softwareAgent>Adobe Audition CS6 (Windows)</stEvt:softwareAgent>
                  <stEvt:changed>/metadata</stEvt:changed>
               </rdf:li>
               <rdf:li rdf:parseType="Resource">
                  <stEvt:action>saved</stEvt:action>
                  <stEvt:instanceID>xmp.iid:774341C91A97E511837CAC17698B8621</stEvt:instanceID>
                  <stEvt:when>2015-11-29T23:28:20-05:00</stEvt:when>
                  <stEvt:softwareAgent>Adobe Audition CS6 (Windows)</stEvt:softwareAgent>
                  <stEvt:changed>/</stEvt:changed>
               </rdf:li>
               <rdf:li rdf:parseType="Resource">
                  <stEvt:action>saved</stEvt:action>
                  <stEvt:instanceID>xmp.iid:784341C91A97E511837CAC17698B8621</stEvt:instanceID>
                  <stEvt:when>2015-11-29T23:40:20-05:00</stEvt:when>
                  <stEvt:softwareAgent>Adobe Audition CS6 (Windows)</stEvt:softwareAgent>
                  <stEvt:changed>/metadata</stEvt:changed>
               </rdf:li>
               <rdf:li rdf:parseType="Resource">
                  <stEvt:action>saved</stEvt:action>
                  <stEvt:instanceID>xmp.iid:794341C91A97E511837CAC17698B8621</stEvt:instanceID>
                  <stEvt:when>2015-11-29T23:40:20-05:00</stEvt:when>
                  <stEvt:softwareAgent>Adobe Audition CS6 (Windows)</stEvt:softwareAgent>
                  <stEvt:changed>/</stEvt:changed>
               </rdf:li>
               <rdf:li rdf:parseType="Resource">
                  <stEvt:action>saved</stEvt:action>
                  <stEvt:instanceID>xmp.iid:7E4341C91A97E511837CAC17698B8621</stEvt:instanceID>
                  <stEvt:when>2015-11-29T23:43:30-05:00</stEvt:when>
                  <stEvt:softwareAgent>Adobe Audition CS6 (Windows)</stEvt:softwareAgent>
                  <stEvt:changed>/metadata</stEvt:changed>
               </rdf:li>
               <rdf:li rdf:parseType="Resource">
                  <stEvt:action>saved</stEvt:action>
                  <stEvt:instanceID>xmp.iid:7F4341C91A97E511837CAC17698B8621</stEvt:instanceID>
                  <stEvt:when>2015-11-29T23:43:30-05:00</stEvt:when>
                  <stEvt:softwareAgent>Adobe Audition CS6 (Windows)</stEvt:softwareAgent>
                  <stEvt:changed>/</stEvt:changed>
               </rdf:li>
               <rdf:li rdf:parseType="Resource">
                  <stEvt:action>saved</stEvt:action>
                  <stEvt:instanceID>xmp.iid:2BEE56301E97E511837CAC17698B8621</stEvt:instanceID>
                  <stEvt:when>2015-11-29T23:52:42-05:00</stEvt:when>
                  <stEvt:softwareAgent>Adobe Audition CS6 (Windows)</stEvt:softwareAgent>
                  <stEvt:changed>/metadata</stEvt:changed>
               </rdf:li>
               <rdf:li rdf:parseType="Resource">
                  <stEvt:action>saved</stEvt:action>
                  <stEvt:instanceID>xmp.iid:2CEE56301E97E511837CAC17698B8621</stEvt:instanceID>
                  <stEvt:when>2015-11-29T23:52:42-05:00</stEvt:when>
                  <stEvt:softwareAgent>Adobe Audition CS6 (Windows)</stEvt:softwareAgent>
                  <stEvt:changed>/</stEvt:changed>
               </rdf:li>
               <rdf:li rdf:parseType="Resource">
                  <stEvt:action>saved</stEvt:action>
                  <stEvt:instanceID>xmp.iid:E0204AB41E97E5118BB48664BE39CD74</stEvt:instanceID>
                  <stEvt:when>2015-11-29T23:56:32-05:00</stEvt:when>
                  <stEvt:softwareAgent>Adobe Audition CS6 (Windows)</stEvt:softwareAgent>
                  <stEvt:changed>/metadata</stEvt:changed>
               </rdf:li>
               <rdf:li rdf:parseType="Resource">
                  <stEvt:action>saved</stEvt:action>
                  <stEvt:instanceID>xmp.iid:E1204AB41E97E5118BB48664BE39CD74</stEvt:instanceID>
                  <stEvt:when>2015-11-29T23:56:32-05:00</stEvt:when>
                  <stEvt:softwareAgent>Adobe Audition CS6 (Windows)</stEvt:softwareAgent>
                  <stEvt:changed>/</stEvt:changed>
               </rdf:li>
               <rdf:li rdf:parseType="Resource">
                  <stEvt:action>saved</stEvt:action>
                  <stEvt:instanceID>xmp.iid:405663808B97E5118BB48664BE39CD74</stEvt:instanceID>
                  <stEvt:when>2015-11-30T12:55:11-05:00</stEvt:when>
                  <stEvt:softwareAgent>Adobe Audition CS6 (Windows)</stEvt:softwareAgent>
                  <stEvt:changed>/metadata</stEvt:changed>
               </rdf:li>
               <rdf:li rdf:parseType="Resource">
                  <stEvt:action>saved</stEvt:action>
                  <stEvt:instanceID>xmp.iid:415663808B97E5118BB48664BE39CD74</stEvt:instanceID>
                  <stEvt:when>2015-11-30T12:55:11-05:00</stEvt:when>
                  <stEvt:softwareAgent>Adobe Audition CS6 (Windows)</stEvt:softwareAgent>
                  <stEvt:changed>/</stEvt:changed>
               </rdf:li>
               <rdf:li rdf:parseType="Resource">
                  <stEvt:action>saved</stEvt:action>
                  <stEvt:instanceID>xmp.iid:445663808B97E5118BB48664BE39CD74</stEvt:instanceID>
                  <stEvt:when>2015-11-30T15:02:59-05:00</stEvt:when>
                  <stEvt:softwareAgent>Adobe Audition CS6 (Windows)</stEvt:softwareAgent>
                  <stEvt:changed>/metadata</stEvt:changed>
               </rdf:li>
               <rdf:li rdf:parseType="Resource">
                  <stEvt:action>saved</stEvt:action>
                  <stEvt:instanceID>xmp.iid:455663808B97E5118BB48664BE39CD74</stEvt:instanceID>
                  <stEvt:when>2015-11-30T15:02:59-05:00</stEvt:when>
                  <stEvt:softwareAgent>Adobe Audition CS6 (Windows)</stEvt:softwareAgent>
                  <stEvt:changed>/</stEvt:changed>
               </rdf:li>
               <rdf:li rdf:parseType="Resource">
                  <stEvt:action>saved</stEvt:action>
                  <stEvt:instanceID>xmp.iid:DE3D5BF4D59BE511941BEF249CBA1CCA</stEvt:instanceID>
                  <stEvt:when>2015-12-05T23:58:24-05:00</stEvt:when>
                  <stEvt:softwareAgent>Adobe Audition CS6 (Windows)</stEvt:softwareAgent>
                  <stEvt:changed>/metadata</stEvt:changed>
               </rdf:li>
               <rdf:li rdf:parseType="Resource">
                  <stEvt:action>saved</stEvt:action>
                  <stEvt:instanceID>xmp.iid:DF3D5BF4D59BE511941BEF249CBA1CCA</stEvt:instanceID>
                  <stEvt:when>2015-12-05T23:58:24-05:00</stEvt:when>
                  <stEvt:softwareAgent>Adobe Audition CS6 (Windows)</stEvt:softwareAgent>
                  <stEvt:changed>/</stEvt:changed>
               </rdf:li>
               <rdf:li rdf:parseType="Resource">
                  <stEvt:action>saved</stEvt:action>
                  <stEvt:instanceID>xmp.iid:8B2FE067D79BE511941BEF249CBA1CCA</stEvt:instanceID>
                  <stEvt:when>2015-12-06T00:08:36-05:00</stEvt:when>
                  <stEvt:softwareAgent>Adobe Audition CS6 (Windows)</stEvt:softwareAgent>
                  <stEvt:changed>/metadata</stEvt:changed>
               </rdf:li>
               <rdf:li rdf:parseType="Resource">
                  <stEvt:action>saved</stEvt:action>
                  <stEvt:instanceID>xmp.iid:8C2FE067D79BE511941BEF249CBA1CCA</stEvt:instanceID>
                  <stEvt:when>2015-12-06T00:08:36-05:00</stEvt:when>
                  <stEvt:softwareAgent>Adobe Audition CS6 (Windows)</stEvt:softwareAgent>
                  <stEvt:changed>/</stEvt:changed>
               </rdf:li>
               <rdf:li rdf:parseType="Resource">
                  <stEvt:action>saved</stEvt:action>
                  <stEvt:instanceID>xmp.iid:8D2FE067D79BE511941BEF249CBA1CCA</stEvt:instanceID>
                  <stEvt:when>2015-12-06T00:20:08-05:00</stEvt:when>
                  <stEvt:softwareAgent>Adobe Audition CS6 (Windows)</stEvt:softwareAgent>
                  <stEvt:changed>/metadata</stEvt:changed>
               </rdf:li>
               <rdf:li rdf:parseType="Resource">
                  <stEvt:action>saved</stEvt:action>
                  <stEvt:instanceID>xmp.iid:8E2FE067D79BE511941BEF249CBA1CCA</stEvt:instanceID>
                  <stEvt:when>2015-12-06T00:20:08-05:00</stEvt:when>
                  <stEvt:softwareAgent>Adobe Audition CS6 (Windows)</stEvt:softwareAgent>
                  <stEvt:changed>/</stEvt:changed>
               </rdf:li>
               <rdf:li rdf:parseType="Resource">
                  <stEvt:action>saved</stEvt:action>
                  <stEvt:instanceID>xmp.iid:8F2FE067D79BE511941BEF249CBA1CCA</stEvt:instanceID>
                  <stEvt:when>2015-12-06T00:26:17-05:00</stEvt:when>
                  <stEvt:softwareAgent>Adobe Audition CS6 (Windows)</stEvt:softwareAgent>
                  <stEvt:changed>/metadata</stEvt:changed>
               </rdf:li>
               <rdf:li rdf:parseType="Resource">
                  <stEvt:action>saved</stEvt:action>
                  <stEvt:instanceID>xmp.iid:902FE067D79BE511941BEF249CBA1CCA</stEvt:instanceID>
                  <stEvt:when>2015-12-06T00:26:17-05:00</stEvt:when>
                  <stEvt:softwareAgent>Adobe Audition CS6 (Windows)</stEvt:softwareAgent>
                  <stEvt:changed>/</stEvt:changed>
               </rdf:li>
               <rdf:li rdf:parseType="Resource">
                  <stEvt:action>saved</stEvt:action>
                  <stEvt:instanceID>xmp.iid:354FE936F29DE51185E2850946ADEB14</stEvt:instanceID>
                  <stEvt:when>2015-12-08T16:26:37-05:00</stEvt:when>
                  <stEvt:softwareAgent>Adobe Audition CS6 (Windows)</stEvt:softwareAgent>
                  <stEvt:changed>/metadata</stEvt:changed>
               </rdf:li>
               <rdf:li rdf:parseType="Resource">
                  <stEvt:action>saved</stEvt:action>
                  <stEvt:instanceID>xmp.iid:364FE936F29DE51185E2850946ADEB14</stEvt:instanceID>
                  <stEvt:when>2015-12-08T16:26:37-05:00</stEvt:when>
                  <stEvt:softwareAgent>Adobe Audition CS6 (Windows)</stEvt:softwareAgent>
                  <stEvt:changed>/</stEvt:changed>
               </rdf:li>
               <rdf:li rdf:parseType="Resource">
                  <stEvt:action>saved</stEvt:action>
                  <stEvt:instanceID>xmp.iid:BAB3A186F39DE51185E2850946ADEB14</stEvt:instanceID>
                  <stEvt:when>2015-12-08T16:38:23-05:00</stEvt:when>
                  <stEvt:softwareAgent>Adobe Audition CS6 (Windows)</stEvt:softwareAgent>
                  <stEvt:changed>/metadata</stEvt:changed>
               </rdf:li>
               <rdf:li rdf:parseType="Resource">
                  <stEvt:action>saved</stEvt:action>
                  <stEvt:instanceID>xmp.iid:BBB3A186F39DE51185E2850946ADEB14</stEvt:instanceID>
                  <stEvt:when>2015-12-08T16:38:23-05:00</stEvt:when>
                  <stEvt:softwareAgent>Adobe Audition CS6 (Windows)</stEvt:softwareAgent>
                  <stEvt:changed>/</stEvt:changed>
               </rdf:li>
               <rdf:li rdf:parseType="Resource">
                  <stEvt:action>saved</stEvt:action>
                  <stEvt:instanceID>xmp.iid:BEB3A186F39DE51185E2850946ADEB14</stEvt:instanceID>
                  <stEvt:when>2015-12-08T16:40-05:00</stEvt:when>
                  <stEvt:softwareAgent>Adobe Audition CS6 (Windows)</stEvt:softwareAgent>
                  <stEvt:changed>/metadata</stEvt:changed>
               </rdf:li>
               <rdf:li rdf:parseType="Resource">
                  <stEvt:action>saved</stEvt:action>
                  <stEvt:instanceID>xmp.iid:1317C33BF49DE51185E2850946ADEB14</stEvt:instanceID>
                  <stEvt:when>2015-12-08T16:40-05:00</stEvt:when>
                  <stEvt:softwareAgent>Adobe Audition CS6 (Windows)</stEvt:softwareAgent>
                  <stEvt:changed>/</stEvt:changed>
               </rdf:li>
               <rdf:li rdf:parseType="Resource">
                  <stEvt:action>saved</stEvt:action>
                  <stEvt:instanceID>xmp.iid:1817C33BF49DE51185E2850946ADEB14</stEvt:instanceID>
                  <stEvt:when>2015-12-08T16:50:23-05:00</stEvt:when>
                  <stEvt:softwareAgent>Adobe Audition CS6 (Windows)</stEvt:softwareAgent>
                  <stEvt:changed>/metadata</stEvt:changed>
               </rdf:li>
               <rdf:li rdf:parseType="Resource">
                  <stEvt:action>saved</stEvt:action>
                  <stEvt:instanceID>xmp.iid:1917C33BF49DE51185E2850946ADEB14</stEvt:instanceID>
                  <stEvt:when>2015-12-08T16:50:23-05:00</stEvt:when>
                  <stEvt:softwareAgent>Adobe Audition CS6 (Windows)</stEvt:softwareAgent>
                  <stEvt:changed>/</stEvt:changed>
               </rdf:li>
               <rdf:li rdf:parseType="Resource">
                  <stEvt:action>saved</stEvt:action>
                  <stEvt:instanceID>xmp.iid:1C17C33BF49DE51185E2850946ADEB14</stEvt:instanceID>
                  <stEvt:when>2015-12-08T17:00:19-05:00</stEvt:when>
                  <stEvt:softwareAgent>Adobe Audition CS6 (Windows)</stEvt:softwareAgent>
                  <stEvt:changed>/metadata</stEvt:changed>
               </rdf:li>
               <rdf:li rdf:parseType="Resource">
                  <stEvt:action>saved</stEvt:action>
                  <stEvt:instanceID>xmp.iid:1D17C33BF49DE51185E2850946ADEB14</stEvt:instanceID>
                  <stEvt:when>2015-12-08T17:00:19-05:00</stEvt:when>
                  <stEvt:softwareAgent>Adobe Audition CS6 (Windows)</stEvt:softwareAgent>
                  <stEvt:changed>/</stEvt:changed>
               </rdf:li>
               <rdf:li rdf:parseType="Resource">
                  <stEvt:action>saved</stEvt:action>
                  <stEvt:instanceID>xmp.iid:8E5F813DF79DE51185E2850946ADEB14</stEvt:instanceID>
                  <stEvt:when>2015-12-08T17:10:24-05:00</stEvt:when>
                  <stEvt:softwareAgent>Adobe Audition CS6 (Windows)</stEvt:softwareAgent>
                  <stEvt:changed>/metadata</stEvt:changed>
               </rdf:li>
               <rdf:li rdf:parseType="Resource">
                  <stEvt:action>saved</stEvt:action>
                  <stEvt:instanceID>xmp.iid:8F5F813DF79DE51185E2850946ADEB14</stEvt:instanceID>
                  <stEvt:when>2015-12-08T17:10:24-05:00</stEvt:when>
                  <stEvt:softwareAgent>Adobe Audition CS6 (Windows)</stEvt:softwareAgent>
                  <stEvt:changed>/</stEvt:changed>
               </rdf:li>
               <rdf:li rdf:parseType="Resource">
                  <stEvt:action>saved</stEvt:action>
                  <stEvt:instanceID>xmp.iid:905F813DF79DE51185E2850946ADEB14</stEvt:instanceID>
                  <stEvt:when>2015-12-08T17:20:26-05:00</stEvt:when>
                  <stEvt:softwareAgent>Adobe Audition CS6 (Windows)</stEvt:softwareAgent>
                  <stEvt:changed>/metadata</stEvt:changed>
               </rdf:li>
               <rdf:li rdf:parseType="Resource">
                  <stEvt:action>saved</stEvt:action>
                  <stEvt:instanceID>xmp.iid:915F813DF79DE51185E2850946ADEB14</stEvt:instanceID>
                  <stEvt:when>2015-12-08T17:20:26-05:00</stEvt:when>
                  <stEvt:softwareAgent>Adobe Audition CS6 (Windows)</stEvt:softwareAgent>
                  <stEvt:changed>/</stEvt:changed>
               </rdf:li>
               <rdf:li rdf:parseType="Resource">
                  <stEvt:action>saved</stEvt:action>
                  <stEvt:instanceID>xmp.iid:57458066FA9DE51185E2850946ADEB14</stEvt:instanceID>
                  <stEvt:when>2015-12-08T17:24:09-05:00</stEvt:when>
                  <stEvt:softwareAgent>Adobe Audition CS6 (Windows)</stEvt:softwareAgent>
                  <stEvt:changed>/metadata</stEvt:changed>
               </rdf:li>
               <rdf:li rdf:parseType="Resource">
                  <stEvt:action>saved</stEvt:action>
                  <stEvt:instanceID>xmp.iid:58458066FA9DE51185E2850946ADEB14</stEvt:instanceID>
                  <stEvt:when>2015-12-08T17:24:09-05:00</stEvt:when>
                  <stEvt:softwareAgent>Adobe Audition CS6 (Windows)</stEvt:softwareAgent>
                  <stEvt:changed>/</stEvt:changed>
               </rdf:li>
               <rdf:li rdf:parseType="Resource">
                  <stEvt:action>saved</stEvt:action>
                  <stEvt:instanceID>xmp.iid:5F458066FA9DE51185E2850946ADEB14</stEvt:instanceID>
                  <stEvt:when>2015-12-08T17:28:05-05:00</stEvt:when>
                  <stEvt:softwareAgent>Adobe Audition CS6 (Windows)</stEvt:softwareAgent>
                  <stEvt:changed>/metadata</stEvt:changed>
               </rdf:li>
               <rdf:li rdf:parseType="Resource">
                  <stEvt:action>saved</stEvt:action>
                  <stEvt:instanceID>xmp.iid:60458066FA9DE51185E2850946ADEB14</stEvt:instanceID>
                  <stEvt:when>2015-12-08T17:28:05-05:00</stEvt:when>
                  <stEvt:softwareAgent>Adobe Audition CS6 (Windows)</stEvt:softwareAgent>
                  <stEvt:changed>/</stEvt:changed>
               </rdf:li>
               <rdf:li rdf:parseType="Resource">
                  <stEvt:action>saved</stEvt:action>
                  <stEvt:instanceID>xmp.iid:E6F7AD65FC9DE51185E2850946ADEB14</stEvt:instanceID>
                  <stEvt:when>2015-12-08T17:38:26-05:00</stEvt:when>
                  <stEvt:softwareAgent>Adobe Audition CS6 (Windows)</stEvt:softwareAgent>
                  <stEvt:changed>/metadata</stEvt:changed>
               </rdf:li>
               <rdf:li rdf:parseType="Resource">
                  <stEvt:action>saved</stEvt:action>
                  <stEvt:instanceID>xmp.iid:E7F7AD65FC9DE51185E2850946ADEB14</stEvt:instanceID>
                  <stEvt:when>2015-12-08T17:38:26-05:00</stEvt:when>
                  <stEvt:softwareAgent>Adobe Audition CS6 (Windows)</stEvt:softwareAgent>
                  <stEvt:changed>/</stEvt:changed>
               </rdf:li>
               <rdf:li rdf:parseType="Resource">
                  <stEvt:action>saved</stEvt:action>
                  <stEvt:instanceID>xmp.iid:ECF7AD65FC9DE51185E2850946ADEB14</stEvt:instanceID>
                  <stEvt:when>2015-12-08T17:49:57-05:00</stEvt:when>
                  <stEvt:softwareAgent>Adobe Audition CS6 (Windows)</stEvt:softwareAgent>
                  <stEvt:changed>/metadata</stEvt:changed>
               </rdf:li>
               <rdf:li rdf:parseType="Resource">
                  <stEvt:action>saved</stEvt:action>
                  <stEvt:instanceID>xmp.iid:EDF7AD65FC9DE51185E2850946ADEB14</stEvt:instanceID>
                  <stEvt:when>2015-12-08T17:49:57-05:00</stEvt:when>
                  <stEvt:softwareAgent>Adobe Audition CS6 (Windows)</stEvt:softwareAgent>
                  <stEvt:changed>/</stEvt:changed>
               </rdf:li>
               <rdf:li rdf:parseType="Resource">
                  <stEvt:action>saved</stEvt:action>
                  <stEvt:instanceID>xmp.iid:028C377BFE9DE51185E2850946ADEB14</stEvt:instanceID>
                  <stEvt:when>2015-12-08T17:53:29-05:00</stEvt:when>
                  <stEvt:softwareAgent>Adobe Audition CS6 (Windows)</stEvt:softwareAgent>
                  <stEvt:changed>/metadata</stEvt:changed>
               </rdf:li>
               <rdf:li rdf:parseType="Resource">
                  <stEvt:action>saved</stEvt:action>
                  <stEvt:instanceID>xmp.iid:038C377BFE9DE51185E2850946ADEB14</stEvt:instanceID>
                  <stEvt:when>2015-12-08T17:53:29-05:00</stEvt:when>
                  <stEvt:softwareAgent>Adobe Audition CS6 (Windows)</stEvt:softwareAgent>
                  <stEvt:changed>/</stEvt:changed>
               </rdf:li>
               <rdf:li rdf:parseType="Resource">
                  <stEvt:action>saved</stEvt:action>
                  <stEvt:instanceID>xmp.iid:41C856A3FE9DE511BB47E656568EC83A</stEvt:instanceID>
                  <stEvt:when>2015-12-08T17:54:32-05:00</stEvt:when>
                  <stEvt:softwareAgent>Adobe Audition CS6 (Windows)</stEvt:softwareAgent>
                  <stEvt:changed>/metadata</stEvt:changed>
               </rdf:li>
               <rdf:li rdf:parseType="Resource">
                  <stEvt:action>saved</stEvt:action>
                  <stEvt:instanceID>xmp.iid:42C856A3FE9DE511BB47E656568EC83A</stEvt:instanceID>
                  <stEvt:when>2015-12-08T17:54:32-05:00</stEvt:when>
                  <stEvt:softwareAgent>Adobe Audition CS6 (Windows)</stEvt:softwareAgent>
                  <stEvt:changed>/</stEvt:changed>
               </rdf:li>
               <rdf:li rdf:parseType="Resource">
                  <stEvt:action>saved</stEvt:action>
                  <stEvt:instanceID>xmp.iid:5ACC4E51FF9DE511BB47E656568EC83A</stEvt:instanceID>
                  <stEvt:when>2015-12-08T17:59:21-05:00</stEvt:when>
                  <stEvt:softwareAgent>Adobe Audition CS6 (Windows)</stEvt:softwareAgent>
                  <stEvt:changed>/metadata</stEvt:changed>
               </rdf:li>
               <rdf:li rdf:parseType="Resource">
                  <stEvt:action>saved</stEvt:action>
                  <stEvt:instanceID>xmp.iid:5BCC4E51FF9DE511BB47E656568EC83A</stEvt:instanceID>
                  <stEvt:when>2015-12-08T17:59:21-05:00</stEvt:when>
                  <stEvt:softwareAgent>Adobe Audition CS6 (Windows)</stEvt:softwareAgent>
                  <stEvt:changed>/</stEvt:changed>
               </rdf:li>
               <rdf:li rdf:parseType="Resource">
                  <stEvt:action>saved</stEvt:action>
                  <stEvt:instanceID>xmp.iid:5CCC4E51FF9DE511BB47E656568EC83A</stEvt:instanceID>
                  <stEvt:when>2015-12-08T18:00:13-05:00</stEvt:when>
                  <stEvt:softwareAgent>Adobe Audition CS6 (Windows)</stEvt:softwareAgent>
                  <stEvt:changed>/metadata</stEvt:changed>
               </rdf:li>
               <rdf:li rdf:parseType="Resource">
                  <stEvt:action>saved</stEvt:action>
                  <stEvt:instanceID>xmp.iid:5DCC4E51FF9DE511BB47E656568EC83A</stEvt:instanceID>
                  <stEvt:when>2015-12-08T18:00:13-05:00</stEvt:when>
                  <stEvt:softwareAgent>Adobe Audition CS6 (Windows)</stEvt:softwareAgent>
                  <stEvt:changed>/</stEvt:changed>
               </rdf:li>
               <rdf:li rdf:parseType="Resource">
                  <stEvt:action>saved</stEvt:action>
                  <stEvt:instanceID>xmp.iid:5ECC4E51FF9DE511BB47E656568EC83A</stEvt:instanceID>
                  <stEvt:when>2015-12-08T18:10:26-05:00</stEvt:when>
                  <stEvt:softwareAgent>Adobe Audition CS6 (Windows)</stEvt:softwareAgent>
                  <stEvt:changed>/metadata</stEvt:changed>
               </rdf:li>
               <rdf:li rdf:parseType="Resource">
                  <stEvt:action>saved</stEvt:action>
                  <stEvt:instanceID>xmp.iid:5FCC4E51FF9DE511BB47E656568EC83A</stEvt:instanceID>
                  <stEvt:when>2015-12-08T18:10:26-05:00</stEvt:when>
                  <stEvt:softwareAgent>Adobe Audition CS6 (Windows)</stEvt:softwareAgent>
                  <stEvt:changed>/</stEvt:changed>
               </rdf:li>
               <rdf:li rdf:parseType="Resource">
                  <stEvt:action>saved</stEvt:action>
                  <stEvt:instanceID>xmp.iid:60CC4E51FF9DE511BB47E656568EC83A</stEvt:instanceID>
                  <stEvt:when>2015-12-08T18:20:56-05:00</stEvt:when>
                  <stEvt:softwareAgent>Adobe Audition CS6 (Windows)</stEvt:softwareAgent>
                  <stEvt:changed>/metadata</stEvt:changed>
               </rdf:li>
               <rdf:li rdf:parseType="Resource">
                  <stEvt:action>saved</stEvt:action>
                  <stEvt:instanceID>xmp.iid:61CC4E51FF9DE511BB47E656568EC83A</stEvt:instanceID>
                  <stEvt:when>2015-12-08T18:20:56-05:00</stEvt:when>
                  <stEvt:softwareAgent>Adobe Audition CS6 (Windows)</stEvt:softwareAgent>
                  <stEvt:changed>/</stEvt:changed>
               </rdf:li>
               <rdf:li rdf:parseType="Resource">
                  <stEvt:action>saved</stEvt:action>
                  <stEvt:instanceID>xmp.iid:69869C70029EE511BB47E656568EC83A</stEvt:instanceID>
                  <stEvt:when>2015-12-08T18:21:42-05:00</stEvt:when>
                  <stEvt:softwareAgent>Adobe Audition CS6 (Windows)</stEvt:softwareAgent>
                  <stEvt:changed>/metadata</stEvt:changed>
               </rdf:li>
               <rdf:li rdf:parseType="Resource">
                  <stEvt:action>saved</stEvt:action>
                  <stEvt:instanceID>xmp.iid:6A869C70029EE511BB47E656568EC83A</stEvt:instanceID>
                  <stEvt:when>2015-12-08T18:21:42-05:00</stEvt:when>
                  <stEvt:softwareAgent>Adobe Audition CS6 (Windows)</stEvt:softwareAgent>
                  <stEvt:changed>/</stEvt:changed>
               </rdf:li>
               <rdf:li rdf:parseType="Resource">
                  <stEvt:action>saved</stEvt:action>
                  <stEvt:instanceID>xmp.iid:6B869C70029EE511BB47E656568EC83A</stEvt:instanceID>
                  <stEvt:when>2015-12-08T18:23:52-05:00</stEvt:when>
                  <stEvt:softwareAgent>Adobe Audition CS6 (Windows)</stEvt:softwareAgent>
                  <stEvt:changed>/metadata</stEvt:changed>
               </rdf:li>
               <rdf:li rdf:parseType="Resource">
                  <stEvt:action>saved</stEvt:action>
                  <stEvt:instanceID>xmp.iid:6C869C70029EE511BB47E656568EC83A</stEvt:instanceID>
                  <stEvt:when>2015-12-08T18:23:52-05:00</stEvt:when>
                  <stEvt:softwareAgent>Adobe Audition CS6 (Windows)</stEvt:softwareAgent>
                  <stEvt:changed>/</stEvt:changed>
               </rdf:li>
               <rdf:li rdf:parseType="Resource">
                  <stEvt:action>saved</stEvt:action>
                  <stEvt:instanceID>xmp.iid:6D869C70029EE511BB47E656568EC83A</stEvt:instanceID>
                  <stEvt:when>2015-12-08T18:33:56-05:00</stEvt:when>
                  <stEvt:softwareAgent>Adobe Audition CS6 (Windows)</stEvt:softwareAgent>
                  <stEvt:changed>/metadata</stEvt:changed>
               </rdf:li>
               <rdf:li rdf:parseType="Resource">
                  <stEvt:action>saved</stEvt:action>
                  <stEvt:instanceID>xmp.iid:6E869C70029EE511BB47E656568EC83A</stEvt:instanceID>
                  <stEvt:when>2015-12-08T18:33:56-05:00</stEvt:when>
                  <stEvt:softwareAgent>Adobe Audition CS6 (Windows)</stEvt:softwareAgent>
                  <stEvt:changed>/</stEvt:changed>
               </rdf:li>
               <rdf:li rdf:parseType="Resource">
                  <stEvt:action>saved</stEvt:action>
                  <stEvt:instanceID>xmp.iid:6F869C70029EE511BB47E656568EC83A</stEvt:instanceID>
                  <stEvt:when>2015-12-08T18:43:57-05:00</stEvt:when>
                  <stEvt:softwareAgent>Adobe Audition CS6 (Windows)</stEvt:softwareAgent>
                  <stEvt:changed>/metadata</stEvt:changed>
               </rdf:li>
               <rdf:li rdf:parseType="Resource">
                  <stEvt:action>saved</stEvt:action>
                  <stEvt:instanceID>xmp.iid:70869C70029EE511BB47E656568EC83A</stEvt:instanceID>
                  <stEvt:when>2015-12-08T18:43:57-05:00</stEvt:when>
                  <stEvt:softwareAgent>Adobe Audition CS6 (Windows)</stEvt:softwareAgent>
                  <stEvt:changed>/</stEvt:changed>
               </rdf:li>
               <rdf:li rdf:parseType="Resource">
                  <stEvt:action>saved</stEvt:action>
                  <stEvt:instanceID>xmp.iid:686568C9059EE511BB47E656568EC83A</stEvt:instanceID>
                  <stEvt:when>2015-12-08T18:45:39-05:00</stEvt:when>
                  <stEvt:softwareAgent>Adobe Audition CS6 (Windows)</stEvt:softwareAgent>
                  <stEvt:changed>/metadata</stEvt:changed>
               </rdf:li>
               <rdf:li rdf:parseType="Resource">
                  <stEvt:action>saved</stEvt:action>
                  <stEvt:instanceID>xmp.iid:696568C9059EE511BB47E656568EC83A</stEvt:instanceID>
                  <stEvt:when>2015-12-08T18:45:39-05:00</stEvt:when>
                  <stEvt:softwareAgent>Adobe Audition CS6 (Windows)</stEvt:softwareAgent>
                  <stEvt:changed>/</stEvt:changed>
               </rdf:li>
               <rdf:li rdf:parseType="Resource">
                  <stEvt:action>saved</stEvt:action>
                  <stEvt:instanceID>xmp.iid:6C6568C9059EE511BB47E656568EC83A</stEvt:instanceID>
                  <stEvt:when>2015-12-08T18:56:28-05:00</stEvt:when>
                  <stEvt:softwareAgent>Adobe Audition CS6 (Windows)</stEvt:softwareAgent>
                  <stEvt:changed>/metadata</stEvt:changed>
               </rdf:li>
               <rdf:li rdf:parseType="Resource">
                  <stEvt:action>saved</stEvt:action>
                  <stEvt:instanceID>xmp.iid:6D6568C9059EE511BB47E656568EC83A</stEvt:instanceID>
                  <stEvt:when>2015-12-08T18:56:28-05:00</stEvt:when>
                  <stEvt:softwareAgent>Adobe Audition CS6 (Windows)</stEvt:softwareAgent>
                  <stEvt:changed>/</stEvt:changed>
               </rdf:li>
               <rdf:li rdf:parseType="Resource">
                  <stEvt:action>saved</stEvt:action>
                  <stEvt:instanceID>xmp.iid:6E6568C9059EE511BB47E656568EC83A</stEvt:instanceID>
                  <stEvt:when>2015-12-08T19:08:28-05:00</stEvt:when>
                  <stEvt:softwareAgent>Adobe Audition CS6 (Windows)</stEvt:softwareAgent>
                  <stEvt:changed>/metadata</stEvt:changed>
               </rdf:li>
               <rdf:li rdf:parseType="Resource">
                  <stEvt:action>saved</stEvt:action>
                  <stEvt:instanceID>xmp.iid:6F6568C9059EE511BB47E656568EC83A</stEvt:instanceID>
                  <stEvt:when>2015-12-08T19:08:28-05:00</stEvt:when>
                  <stEvt:softwareAgent>Adobe Audition CS6 (Windows)</stEvt:softwareAgent>
                  <stEvt:changed>/</stEvt:changed>
               </rdf:li>
               <rdf:li rdf:parseType="Resource">
                  <stEvt:action>saved</stEvt:action>
                  <stEvt:instanceID>xmp.iid:DC18FC7E099EE511BB47E656568EC83A</stEvt:instanceID>
                  <stEvt:when>2015-12-08T19:12:12-05:00</stEvt:when>
                  <stEvt:softwareAgent>Adobe Audition CS6 (Windows)</stEvt:softwareAgent>
                  <stEvt:changed>/metadata</stEvt:changed>
               </rdf:li>
               <rdf:li rdf:parseType="Resource">
                  <stEvt:action>saved</stEvt:action>
                  <stEvt:instanceID>xmp.iid:DD18FC7E099EE511BB47E656568EC83A</stEvt:instanceID>
                  <stEvt:when>2015-12-08T19:12:12-05:00</stEvt:when>
                  <stEvt:softwareAgent>Adobe Audition CS6 (Windows)</stEvt:softwareAgent>
                  <stEvt:changed>/</stEvt:changed>
               </rdf:li>
               <rdf:li rdf:parseType="Resource">
                  <stEvt:action>saved</stEvt:action>
                  <stEvt:instanceID>xmp.iid:DE18FC7E099EE511BB47E656568EC83A</stEvt:instanceID>
                  <stEvt:when>2015-12-08T19:12:56-05:00</stEvt:when>
                  <stEvt:softwareAgent>Adobe Audition CS6 (Windows)</stEvt:softwareAgent>
                  <stEvt:changed>/metadata</stEvt:changed>
               </rdf:li>
               <rdf:li rdf:parseType="Resource">
                  <stEvt:action>saved</stEvt:action>
                  <stEvt:instanceID>xmp.iid:DF18FC7E099EE511BB47E656568EC83A</stEvt:instanceID>
                  <stEvt:when>2015-12-08T19:12:56-05:00</stEvt:when>
                  <stEvt:softwareAgent>Adobe Audition CS6 (Windows)</stEvt:softwareAgent>
                  <stEvt:changed>/</stEvt:changed>
               </rdf:li>
               <rdf:li rdf:parseType="Resource">
                  <stEvt:action>saved</stEvt:action>
                  <stEvt:instanceID>xmp.iid:E218FC7E099EE511BB47E656568EC83A</stEvt:instanceID>
                  <stEvt:when>2015-12-08T19:17:30-05:00</stEvt:when>
                  <stEvt:softwareAgent>Adobe Audition CS6 (Windows)</stEvt:softwareAgent>
                  <stEvt:changed>/metadata</stEvt:changed>
               </rdf:li>
               <rdf:li rdf:parseType="Resource">
                  <stEvt:action>saved</stEvt:action>
                  <stEvt:instanceID>xmp.iid:E318FC7E099EE511BB47E656568EC83A</stEvt:instanceID>
                  <stEvt:when>2015-12-08T19:17:30-05:00</stEvt:when>
                  <stEvt:softwareAgent>Adobe Audition CS6 (Windows)</stEvt:softwareAgent>
                  <stEvt:changed>/</stEvt:changed>
               </rdf:li>
               <rdf:li rdf:parseType="Resource">
                  <stEvt:action>saved</stEvt:action>
                  <stEvt:instanceID>xmp.iid:E418FC7E099EE511BB47E656568EC83A</stEvt:instanceID>
                  <stEvt:when>2015-12-08T19:21-05:00</stEvt:when>
                  <stEvt:softwareAgent>Adobe Audition CS6 (Windows)</stEvt:softwareAgent>
                  <stEvt:changed>/metadata</stEvt:changed>
               </rdf:li>
               <rdf:li rdf:parseType="Resource">
                  <stEvt:action>saved</stEvt:action>
                  <stEvt:instanceID>xmp.iid:E518FC7E099EE511BB47E656568EC83A</stEvt:instanceID>
                  <stEvt:when>2015-12-08T19:21-05:00</stEvt:when>
                  <stEvt:softwareAgent>Adobe Audition CS6 (Windows)</stEvt:softwareAgent>
                  <stEvt:changed>/</stEvt:changed>
               </rdf:li>
               <rdf:li rdf:parseType="Resource">
                  <stEvt:action>saved</stEvt:action>
                  <stEvt:instanceID>xmp.iid:C79BDC500B9EE511BB47E656568EC83A</stEvt:instanceID>
                  <stEvt:when>2015-12-08T19:25:14-05:00</stEvt:when>
                  <stEvt:softwareAgent>Adobe Audition CS6 (Windows)</stEvt:softwareAgent>
                  <stEvt:changed>/metadata</stEvt:changed>
               </rdf:li>
               <rdf:li rdf:parseType="Resource">
                  <stEvt:action>saved</stEvt:action>
                  <stEvt:instanceID>xmp.iid:C89BDC500B9EE511BB47E656568EC83A</stEvt:instanceID>
                  <stEvt:when>2015-12-08T19:25:14-05:00</stEvt:when>
                  <stEvt:softwareAgent>Adobe Audition CS6 (Windows)</stEvt:softwareAgent>
                  <stEvt:changed>/</stEvt:changed>
               </rdf:li>
               <rdf:li rdf:parseType="Resource">
                  <stEvt:action>saved</stEvt:action>
                  <stEvt:instanceID>xmp.iid:CD9BDC500B9EE511BB47E656568EC83A</stEvt:instanceID>
                  <stEvt:when>2015-12-08T19:35:39-05:00</stEvt:when>
                  <stEvt:softwareAgent>Adobe Audition CS6 (Windows)</stEvt:softwareAgent>
                  <stEvt:changed>/metadata</stEvt:changed>
               </rdf:li>
               <rdf:li rdf:parseType="Resource">
                  <stEvt:action>saved</stEvt:action>
                  <stEvt:instanceID>xmp.iid:CE9BDC500B9EE511BB47E656568EC83A</stEvt:instanceID>
                  <stEvt:when>2015-12-08T19:35:39-05:00</stEvt:when>
                  <stEvt:softwareAgent>Adobe Audition CS6 (Windows)</stEvt:softwareAgent>
                  <stEvt:changed>/</stEvt:changed>
               </rdf:li>
               <rdf:li rdf:parseType="Resource">
                  <stEvt:action>saved</stEvt:action>
                  <stEvt:instanceID>xmp.iid:CF9BDC500B9EE511BB47E656568EC83A</stEvt:instanceID>
                  <stEvt:when>2015-12-08T19:40:35-05:00</stEvt:when>
                  <stEvt:softwareAgent>Adobe Audition CS6 (Windows)</stEvt:softwareAgent>
                  <stEvt:changed>/metadata</stEvt:changed>
               </rdf:li>
               <rdf:li rdf:parseType="Resource">
                  <stEvt:action>saved</stEvt:action>
                  <stEvt:instanceID>xmp.iid:D09BDC500B9EE511BB47E656568EC83A</stEvt:instanceID>
                  <stEvt:when>2015-12-08T19:40:35-05:00</stEvt:when>
                  <stEvt:softwareAgent>Adobe Audition CS6 (Windows)</stEvt:softwareAgent>
                  <stEvt:changed>/</stEvt:changed>
               </rdf:li>
               <rdf:li rdf:parseType="Resource">
                  <stEvt:action>saved</stEvt:action>
                  <stEvt:instanceID>xmp.iid:1237B3F50D9EE511BB47E656568EC83A</stEvt:instanceID>
                  <stEvt:when>2015-12-08T19:52-05:00</stEvt:when>
                  <stEvt:softwareAgent>Adobe Audition CS6 (Windows)</stEvt:softwareAgent>
                  <stEvt:changed>/metadata</stEvt:changed>
               </rdf:li>
               <rdf:li rdf:parseType="Resource">
                  <stEvt:action>saved</stEvt:action>
                  <stEvt:instanceID>xmp.iid:1337B3F50D9EE511BB47E656568EC83A</stEvt:instanceID>
                  <stEvt:when>2015-12-08T19:52-05:00</stEvt:when>
                  <stEvt:softwareAgent>Adobe Audition CS6 (Windows)</stEvt:softwareAgent>
                  <stEvt:changed>/</stEvt:changed>
               </rdf:li>
               <rdf:li rdf:parseType="Resource">
                  <stEvt:action>saved</stEvt:action>
                  <stEvt:instanceID>xmp.iid:1637B3F50D9EE511BB47E656568EC83A</stEvt:instanceID>
                  <stEvt:when>2015-12-08T19:52:29-05:00</stEvt:when>
                  <stEvt:softwareAgent>Adobe Audition CS6 (Windows)</stEvt:softwareAgent>
                  <stEvt:changed>/metadata</stEvt:changed>
               </rdf:li>
               <rdf:li rdf:parseType="Resource">
                  <stEvt:action>saved</stEvt:action>
                  <stEvt:instanceID>xmp.iid:1737B3F50D9EE511BB47E656568EC83A</stEvt:instanceID>
                  <stEvt:when>2015-12-08T19:52:29-05:00</stEvt:when>
                  <stEvt:softwareAgent>Adobe Audition CS6 (Windows)</stEvt:softwareAgent>
                  <stEvt:changed>/</stEvt:changed>
               </rdf:li>
               <rdf:li rdf:parseType="Resource">
                  <stEvt:action>saved</stEvt:action>
                  <stEvt:instanceID>xmp.iid:1837B3F50D9EE511BB47E656568EC83A</stEvt:instanceID>
                  <stEvt:when>2015-12-08T19:55:31-05:00</stEvt:when>
                  <stEvt:softwareAgent>Adobe Audition CS6 (Windows)</stEvt:softwareAgent>
                  <stEvt:changed>/metadata</stEvt:changed>
               </rdf:li>
               <rdf:li rdf:parseType="Resource">
                  <stEvt:action>saved</stEvt:action>
                  <stEvt:instanceID>xmp.iid:1937B3F50D9EE511BB47E656568EC83A</stEvt:instanceID>
                  <stEvt:when>2015-12-08T19:55:31-05:00</stEvt:when>
                  <stEvt:softwareAgent>Adobe Audition CS6 (Windows)</stEvt:softwareAgent>
                  <stEvt:changed>/</stEvt:changed>
               </rdf:li>
               <rdf:li rdf:parseType="Resource">
                  <stEvt:action>saved</stEvt:action>
                  <stEvt:instanceID>xmp.iid:30002892109EE511BB47E656568EC83A</stEvt:instanceID>
                  <stEvt:when>2015-12-08T20:02:51-05:00</stEvt:when>
                  <stEvt:softwareAgent>Adobe Audition CS6 (Windows)</stEvt:softwareAgent>
                  <stEvt:changed>/metadata</stEvt:changed>
               </rdf:li>
               <rdf:li rdf:parseType="Resource">
                  <stEvt:action>saved</stEvt:action>
                  <stEvt:instanceID>xmp.iid:31002892109EE511BB47E656568EC83A</stEvt:instanceID>
                  <stEvt:when>2015-12-08T20:02:51-05:00</stEvt:when>
                  <stEvt:softwareAgent>Adobe Audition CS6 (Windows)</stEvt:softwareAgent>
                  <stEvt:changed>/</stEvt:changed>
               </rdf:li>
               <rdf:li rdf:parseType="Resource">
                  <stEvt:action>saved</stEvt:action>
                  <stEvt:instanceID>xmp.iid:32002892109EE511BB47E656568EC83A</stEvt:instanceID>
                  <stEvt:when>2015-12-08T20:06:21-05:00</stEvt:when>
                  <stEvt:softwareAgent>Adobe Audition CS6 (Windows)</stEvt:softwareAgent>
                  <stEvt:changed>/metadata</stEvt:changed>
               </rdf:li>
               <rdf:li rdf:parseType="Resource">
                  <stEvt:action>saved</stEvt:action>
                  <stEvt:instanceID>xmp.iid:33002892109EE511BB47E656568EC83A</stEvt:instanceID>
                  <stEvt:when>2015-12-08T20:06:21-05:00</stEvt:when>
                  <stEvt:softwareAgent>Adobe Audition CS6 (Windows)</stEvt:softwareAgent>
                  <stEvt:changed>/</stEvt:changed>
               </rdf:li>
               <rdf:li rdf:parseType="Resource">
                  <stEvt:action>saved</stEvt:action>
                  <stEvt:instanceID>xmp.iid:3C897955129EE511BB47E656568EC83A</stEvt:instanceID>
                  <stEvt:when>2015-12-08T20:15:28-05:00</stEvt:when>
                  <stEvt:softwareAgent>Adobe Audition CS6 (Windows)</stEvt:softwareAgent>
                  <stEvt:changed>/metadata</stEvt:changed>
               </rdf:li>
               <rdf:li rdf:parseType="Resource">
                  <stEvt:action>saved</stEvt:action>
                  <stEvt:instanceID>xmp.iid:3D897955129EE511BB47E656568EC83A</stEvt:instanceID>
                  <stEvt:when>2015-12-08T20:15:28-05:00</stEvt:when>
                  <stEvt:softwareAgent>Adobe Audition CS6 (Windows)</stEvt:softwareAgent>
                  <stEvt:changed>/</stEvt:changed>
               </rdf:li>
               <rdf:li rdf:parseType="Resource">
                  <stEvt:action>saved</stEvt:action>
                  <stEvt:instanceID>xmp.iid:40897955129EE511BB47E656568EC83A</stEvt:instanceID>
                  <stEvt:when>2015-12-08T20:19:08-05:00</stEvt:when>
                  <stEvt:softwareAgent>Adobe Audition CS6 (Windows)</stEvt:softwareAgent>
                  <stEvt:changed>/metadata</stEvt:changed>
               </rdf:li>
               <rdf:li rdf:parseType="Resource">
                  <stEvt:action>saved</stEvt:action>
                  <stEvt:instanceID>xmp.iid:41897955129EE511BB47E656568EC83A</stEvt:instanceID>
                  <stEvt:when>2015-12-08T20:19:08-05:00</stEvt:when>
                  <stEvt:softwareAgent>Adobe Audition CS6 (Windows)</stEvt:softwareAgent>
                  <stEvt:changed>/</stEvt:changed>
               </rdf:li>
               <rdf:li rdf:parseType="Resource">
                  <stEvt:action>saved</stEvt:action>
                  <stEvt:instanceID>xmp.iid:42897955129EE511BB47E656568EC83A</stEvt:instanceID>
                  <stEvt:when>2015-12-08T20:21:12-05:00</stEvt:when>
                  <stEvt:softwareAgent>Adobe Audition CS6 (Windows)</stEvt:softwareAgent>
                  <stEvt:changed>/metadata</stEvt:changed>
               </rdf:li>
               <rdf:li rdf:parseType="Resource">
                  <stEvt:action>saved</stEvt:action>
                  <stEvt:instanceID>xmp.iid:43897955129EE511BB47E656568EC83A</stEvt:instanceID>
                  <stEvt:when>2015-12-08T20:21:12-05:00</stEvt:when>
                  <stEvt:softwareAgent>Adobe Audition CS6 (Windows)</stEvt:softwareAgent>
                  <stEvt:changed>/</stEvt:changed>
               </rdf:li>
               <rdf:li rdf:parseType="Resource">
                  <stEvt:action>saved</stEvt:action>
                  <stEvt:instanceID>xmp.iid:44897955129EE511BB47E656568EC83A</stEvt:instanceID>
                  <stEvt:when>2015-12-08T20:27:39-05:00</stEvt:when>
                  <stEvt:softwareAgent>Adobe Audition CS6 (Windows)</stEvt:softwareAgent>
                  <stEvt:changed>/metadata</stEvt:changed>
               </rdf:li>
               <rdf:li rdf:parseType="Resource">
                  <stEvt:action>saved</stEvt:action>
                  <stEvt:instanceID>xmp.iid:45897955129EE511BB47E656568EC83A</stEvt:instanceID>
                  <stEvt:when>2015-12-08T20:27:39-05:00</stEvt:when>
                  <stEvt:softwareAgent>Adobe Audition CS6 (Windows)</stEvt:softwareAgent>
                  <stEvt:changed>/</stEvt:changed>
               </rdf:li>
               <rdf:li rdf:parseType="Resource">
                  <stEvt:action>saved</stEvt:action>
                  <stEvt:instanceID>xmp.iid:52E24514159EE511BB47E656568EC83A</stEvt:instanceID>
                  <stEvt:when>2015-12-08T20:35:07-05:00</stEvt:when>
                  <stEvt:softwareAgent>Adobe Audition CS6 (Windows)</stEvt:softwareAgent>
                  <stEvt:changed>/metadata</stEvt:changed>
               </rdf:li>
               <rdf:li rdf:parseType="Resource">
                  <stEvt:action>saved</stEvt:action>
                  <stEvt:instanceID>xmp.iid:53E24514159EE511BB47E656568EC83A</stEvt:instanceID>
                  <stEvt:when>2015-12-08T20:35:07-05:00</stEvt:when>
                  <stEvt:softwareAgent>Adobe Audition CS6 (Windows)</stEvt:softwareAgent>
                  <stEvt:changed>/</stEvt:changed>
               </rdf:li>
               <rdf:li rdf:parseType="Resource">
                  <stEvt:action>saved</stEvt:action>
                  <stEvt:instanceID>xmp.iid:54E24514159EE511BB47E656568EC83A</stEvt:instanceID>
                  <stEvt:when>2015-12-08T22:09:55-05:00</stEvt:when>
                  <stEvt:softwareAgent>Adobe Audition CS6 (Windows)</stEvt:softwareAgent>
                  <stEvt:changed>/metadata</stEvt:changed>
               </rdf:li>
               <rdf:li rdf:parseType="Resource">
                  <stEvt:action>saved</stEvt:action>
                  <stEvt:instanceID>xmp.iid:55E24514159EE511BB47E656568EC83A</stEvt:instanceID>
                  <stEvt:when>2015-12-08T22:09:55-05:00</stEvt:when>
                  <stEvt:softwareAgent>Adobe Audition CS6 (Windows)</stEvt:softwareAgent>
                  <stEvt:changed>/</stEvt:changed>
               </rdf:li>
               <rdf:li rdf:parseType="Resource">
                  <stEvt:action>saved</stEvt:action>
                  <stEvt:instanceID>xmp.iid:5AE24514159EE511BB47E656568EC83A</stEvt:instanceID>
                  <stEvt:when>2015-12-08T22:15:28-05:00</stEvt:when>
                  <stEvt:softwareAgent>Adobe Audition CS6 (Windows)</stEvt:softwareAgent>
                  <stEvt:changed>/metadata</stEvt:changed>
               </rdf:li>
               <rdf:li rdf:parseType="Resource">
                  <stEvt:action>saved</stEvt:action>
                  <stEvt:instanceID>xmp.iid:AFE22B19239EE511BB47E656568EC83A</stEvt:instanceID>
                  <stEvt:when>2015-12-08T22:15:28-05:00</stEvt:when>
                  <stEvt:softwareAgent>Adobe Audition CS6 (Windows)</stEvt:softwareAgent>
                  <stEvt:changed>/</stEvt:changed>
               </rdf:li>
               <rdf:li rdf:parseType="Resource">
                  <stEvt:action>saved</stEvt:action>
                  <stEvt:instanceID>xmp.iid:B0E22B19239EE511BB47E656568EC83A</stEvt:instanceID>
                  <stEvt:when>2015-12-08T22:16:27-05:00</stEvt:when>
                  <stEvt:softwareAgent>Adobe Audition CS6 (Windows)</stEvt:softwareAgent>
                  <stEvt:changed>/metadata</stEvt:changed>
               </rdf:li>
               <rdf:li rdf:parseType="Resource">
                  <stEvt:action>saved</stEvt:action>
                  <stEvt:instanceID>xmp.iid:B1E22B19239EE511BB47E656568EC83A</stEvt:instanceID>
                  <stEvt:when>2015-12-08T22:16:27-05:00</stEvt:when>
                  <stEvt:softwareAgent>Adobe Audition CS6 (Windows)</stEvt:softwareAgent>
                  <stEvt:changed>/</stEvt:changed>
               </rdf:li>
               <rdf:li rdf:parseType="Resource">
                  <stEvt:action>saved</stEvt:action>
                  <stEvt:instanceID>xmp.iid:B4E22B19239EE511BB47E656568EC83A</stEvt:instanceID>
                  <stEvt:when>2015-12-08T22:18-05:00</stEvt:when>
                  <stEvt:softwareAgent>Adobe Audition CS6 (Windows)</stEvt:softwareAgent>
                  <stEvt:changed>/metadata</stEvt:changed>
               </rdf:li>
               <rdf:li rdf:parseType="Resource">
                  <stEvt:action>saved</stEvt:action>
                  <stEvt:instanceID>xmp.iid:B5E22B19239EE511BB47E656568EC83A</stEvt:instanceID>
                  <stEvt:when>2015-12-08T22:18-05:00</stEvt:when>
                  <stEvt:softwareAgent>Adobe Audition CS6 (Windows)</stEvt:softwareAgent>
                  <stEvt:changed>/</stEvt:changed>
               </rdf:li>
               <rdf:li rdf:parseType="Resource">
                  <stEvt:action>saved</stEvt:action>
                  <stEvt:instanceID>xmp.iid:B6E22B19239EE511BB47E656568EC83A</stEvt:instanceID>
                  <stEvt:when>2015-12-08T22:23:13-05:00</stEvt:when>
                  <stEvt:softwareAgent>Adobe Audition CS6 (Windows)</stEvt:softwareAgent>
                  <stEvt:changed>/metadata</stEvt:changed>
               </rdf:li>
               <rdf:li rdf:parseType="Resource">
                  <stEvt:action>saved</stEvt:action>
                  <stEvt:instanceID>xmp.iid:B7E22B19239EE511BB47E656568EC83A</stEvt:instanceID>
                  <stEvt:when>2015-12-08T22:23:13-05:00</stEvt:when>
                  <stEvt:softwareAgent>Adobe Audition CS6 (Windows)</stEvt:softwareAgent>
                  <stEvt:changed>/</stEvt:changed>
               </rdf:li>
               <rdf:li rdf:parseType="Resource">
                  <stEvt:action>saved</stEvt:action>
                  <stEvt:instanceID>xmp.iid:B8E22B19239EE511BB47E656568EC83A</stEvt:instanceID>
                  <stEvt:when>2015-12-08T22:33:26-05:00</stEvt:when>
                  <stEvt:softwareAgent>Adobe Audition CS6 (Windows)</stEvt:softwareAgent>
                  <stEvt:changed>/metadata</stEvt:changed>
               </rdf:li>
               <rdf:li rdf:parseType="Resource">
                  <stEvt:action>saved</stEvt:action>
                  <stEvt:instanceID>xmp.iid:B9E22B19239EE511BB47E656568EC83A</stEvt:instanceID>
                  <stEvt:when>2015-12-08T22:33:26-05:00</stEvt:when>
                  <stEvt:softwareAgent>Adobe Audition CS6 (Windows)</stEvt:softwareAgent>
                  <stEvt:changed>/</stEvt:changed>
               </rdf:li>
               <rdf:li rdf:parseType="Resource">
                  <stEvt:action>saved</stEvt:action>
                  <stEvt:instanceID>xmp.iid:36BE6CB0259EE511BB47E656568EC83A</stEvt:instanceID>
                  <stEvt:when>2015-12-08T22:34:01-05:00</stEvt:when>
                  <stEvt:softwareAgent>Adobe Audition CS6 (Windows)</stEvt:softwareAgent>
                  <stEvt:changed>/metadata</stEvt:changed>
               </rdf:li>
               <rdf:li rdf:parseType="Resource">
                  <stEvt:action>saved</stEvt:action>
                  <stEvt:instanceID>xmp.iid:37BE6CB0259EE511BB47E656568EC83A</stEvt:instanceID>
                  <stEvt:when>2015-12-08T22:34:01-05:00</stEvt:when>
                  <stEvt:softwareAgent>Adobe Audition CS6 (Windows)</stEvt:softwareAgent>
                  <stEvt:changed>/</stEvt:changed>
               </rdf:li>
               <rdf:li rdf:parseType="Resource">
                  <stEvt:action>saved</stEvt:action>
                  <stEvt:instanceID>xmp.iid:38BE6CB0259EE511BB47E656568EC83A</stEvt:instanceID>
                  <stEvt:when>2015-12-08T22:43:05-05:00</stEvt:when>
                  <stEvt:softwareAgent>Adobe Audition CS6 (Windows)</stEvt:softwareAgent>
                  <stEvt:changed>/metadata</stEvt:changed>
               </rdf:li>
               <rdf:li rdf:parseType="Resource">
                  <stEvt:action>saved</stEvt:action>
                  <stEvt:instanceID>xmp.iid:39BE6CB0259EE511BB47E656568EC83A</stEvt:instanceID>
                  <stEvt:when>2015-12-08T22:43:05-05:00</stEvt:when>
                  <stEvt:softwareAgent>Adobe Audition CS6 (Windows)</stEvt:softwareAgent>
                  <stEvt:changed>/</stEvt:changed>
               </rdf:li>
               <rdf:li rdf:parseType="Resource">
                  <stEvt:action>saved</stEvt:action>
                  <stEvt:instanceID>xmp.iid:3ABE6CB0259EE511BB47E656568EC83A</stEvt:instanceID>
                  <stEvt:when>2015-12-08T22:43:59-05:00</stEvt:when>
                  <stEvt:softwareAgent>Adobe Audition CS6 (Windows)</stEvt:softwareAgent>
                  <stEvt:changed>/metadata</stEvt:changed>
               </rdf:li>
               <rdf:li rdf:parseType="Resource">
                  <stEvt:action>saved</stEvt:action>
                  <stEvt:instanceID>xmp.iid:3BBE6CB0259EE511BB47E656568EC83A</stEvt:instanceID>
                  <stEvt:when>2015-12-08T22:43:59-05:00</stEvt:when>
                  <stEvt:softwareAgent>Adobe Audition CS6 (Windows)</stEvt:softwareAgent>
                  <stEvt:changed>/</stEvt:changed>
               </rdf:li>
               <rdf:li rdf:parseType="Resource">
                  <stEvt:action>saved</stEvt:action>
                  <stEvt:instanceID>xmp.iid:3CBE6CB0259EE511BB47E656568EC83A</stEvt:instanceID>
                  <stEvt:when>2015-12-08T22:54:56-05:00</stEvt:when>
                  <stEvt:softwareAgent>Adobe Audition CS6 (Windows)</stEvt:softwareAgent>
                  <stEvt:changed>/metadata</stEvt:changed>
               </rdf:li>
               <rdf:li rdf:parseType="Resource">
                  <stEvt:action>saved</stEvt:action>
                  <stEvt:instanceID>xmp.iid:3DBE6CB0259EE511BB47E656568EC83A</stEvt:instanceID>
                  <stEvt:when>2015-12-08T22:54:56-05:00</stEvt:when>
                  <stEvt:softwareAgent>Adobe Audition CS6 (Windows)</stEvt:softwareAgent>
                  <stEvt:changed>/</stEvt:changed>
               </rdf:li>
               <rdf:li rdf:parseType="Resource">
                  <stEvt:action>saved</stEvt:action>
                  <stEvt:instanceID>xmp.iid:3EBE6CB0259EE511BB47E656568EC83A</stEvt:instanceID>
                  <stEvt:when>2015-12-08T22:56:41-05:00</stEvt:when>
                  <stEvt:softwareAgent>Adobe Audition CS6 (Windows)</stEvt:softwareAgent>
                  <stEvt:changed>/metadata</stEvt:changed>
               </rdf:li>
               <rdf:li rdf:parseType="Resource">
                  <stEvt:action>saved</stEvt:action>
                  <stEvt:instanceID>xmp.iid:3FBE6CB0259EE511BB47E656568EC83A</stEvt:instanceID>
                  <stEvt:when>2015-12-08T22:56:41-05:00</stEvt:when>
                  <stEvt:softwareAgent>Adobe Audition CS6 (Windows)</stEvt:softwareAgent>
                  <stEvt:changed>/</stEvt:changed>
               </rdf:li>
               <rdf:li rdf:parseType="Resource">
                  <stEvt:action>saved</stEvt:action>
                  <stEvt:instanceID>xmp.iid:40BE6CB0259EE511BB47E656568EC83A</stEvt:instanceID>
                  <stEvt:when>2015-12-08T23:00:02-05:00</stEvt:when>
                  <stEvt:softwareAgent>Adobe Audition CS6 (Windows)</stEvt:softwareAgent>
                  <stEvt:changed>/metadata</stEvt:changed>
               </rdf:li>
               <rdf:li rdf:parseType="Resource">
                  <stEvt:action>saved</stEvt:action>
                  <stEvt:instanceID>xmp.iid:67209952299EE511BB47E656568EC83A</stEvt:instanceID>
                  <stEvt:when>2015-12-08T23:00:02-05:00</stEvt:when>
                  <stEvt:softwareAgent>Adobe Audition CS6 (Windows)</stEvt:softwareAgent>
                  <stEvt:changed>/</stEvt:changed>
               </rdf:li>
               <rdf:li rdf:parseType="Resource">
                  <stEvt:action>saved</stEvt:action>
                  <stEvt:instanceID>xmp.iid:68209952299EE511BB47E656568EC83A</stEvt:instanceID>
                  <stEvt:when>2015-12-08T23:05:14-05:00</stEvt:when>
                  <stEvt:softwareAgent>Adobe Audition CS6 (Windows)</stEvt:softwareAgent>
                  <stEvt:changed>/metadata</stEvt:changed>
               </rdf:li>
               <rdf:li rdf:parseType="Resource">
                  <stEvt:action>saved</stEvt:action>
                  <stEvt:instanceID>xmp.iid:69209952299EE511BB47E656568EC83A</stEvt:instanceID>
                  <stEvt:when>2015-12-08T23:05:14-05:00</stEvt:when>
                  <stEvt:softwareAgent>Adobe Audition CS6 (Windows)</stEvt:softwareAgent>
                  <stEvt:changed>/</stEvt:changed>
               </rdf:li>
               <rdf:li rdf:parseType="Resource">
                  <stEvt:action>saved</stEvt:action>
                  <stEvt:instanceID>xmp.iid:6A209952299EE511BB47E656568EC83A</stEvt:instanceID>
                  <stEvt:when>2015-12-08T23:10:12-05:00</stEvt:when>
                  <stEvt:softwareAgent>Adobe Audition CS6 (Windows)</stEvt:softwareAgent>
                  <stEvt:changed>/metadata</stEvt:changed>
               </rdf:li>
               <rdf:li rdf:parseType="Resource">
                  <stEvt:action>saved</stEvt:action>
                  <stEvt:instanceID>xmp.iid:6B209952299EE511BB47E656568EC83A</stEvt:instanceID>
                  <stEvt:when>2015-12-08T23:10:12-05:00</stEvt:when>
                  <stEvt:softwareAgent>Adobe Audition CS6 (Windows)</stEvt:softwareAgent>
                  <stEvt:changed>/</stEvt:changed>
               </rdf:li>
               <rdf:li rdf:parseType="Resource">
                  <stEvt:action>saved</stEvt:action>
                  <stEvt:instanceID>xmp.iid:6C209952299EE511BB47E656568EC83A</stEvt:instanceID>
                  <stEvt:when>2015-12-08T23:11:36-05:00</stEvt:when>
                  <stEvt:softwareAgent>Adobe Audition CS6 (Windows)</stEvt:softwareAgent>
                  <stEvt:changed>/metadata</stEvt:changed>
               </rdf:li>
               <rdf:li rdf:parseType="Resource">
                  <stEvt:action>saved</stEvt:action>
                  <stEvt:instanceID>xmp.iid:6D209952299EE511BB47E656568EC83A</stEvt:instanceID>
                  <stEvt:when>2015-12-08T23:11:36-05:00</stEvt:when>
                  <stEvt:softwareAgent>Adobe Audition CS6 (Windows)</stEvt:softwareAgent>
                  <stEvt:changed>/</stEvt:changed>
               </rdf:li>
               <rdf:li rdf:parseType="Resource">
                  <stEvt:action>saved</stEvt:action>
                  <stEvt:instanceID>xmp.iid:6E209952299EE511BB47E656568EC83A</stEvt:instanceID>
                  <stEvt:when>2015-12-08T23:11:56-05:00</stEvt:when>
                  <stEvt:softwareAgent>Adobe Audition CS6 (Windows)</stEvt:softwareAgent>
                  <stEvt:changed>/metadata</stEvt:changed>
               </rdf:li>
               <rdf:li rdf:parseType="Resource">
                  <stEvt:action>saved</stEvt:action>
                  <stEvt:instanceID>xmp.iid:6F209952299EE511BB47E656568EC83A</stEvt:instanceID>
                  <stEvt:when>2015-12-08T23:11:56-05:00</stEvt:when>
                  <stEvt:softwareAgent>Adobe Audition CS6 (Windows)</stEvt:softwareAgent>
                  <stEvt:changed>/</stEvt:changed>
               </rdf:li>
               <rdf:li rdf:parseType="Resource">
                  <stEvt:action>saved</stEvt:action>
                  <stEvt:instanceID>xmp.iid:70209952299EE511BB47E656568EC83A</stEvt:instanceID>
                  <stEvt:when>2015-12-08T23:22:26-05:00</stEvt:when>
                  <stEvt:softwareAgent>Adobe Audition CS6 (Windows)</stEvt:softwareAgent>
                  <stEvt:changed>/metadata</stEvt:changed>
               </rdf:li>
               <rdf:li rdf:parseType="Resource">
                  <stEvt:action>saved</stEvt:action>
                  <stEvt:instanceID>xmp.iid:71209952299EE511BB47E656568EC83A</stEvt:instanceID>
                  <stEvt:when>2015-12-08T23:22:26-05:00</stEvt:when>
                  <stEvt:softwareAgent>Adobe Audition CS6 (Windows)</stEvt:softwareAgent>
                  <stEvt:changed>/</stEvt:changed>
               </rdf:li>
               <rdf:li rdf:parseType="Resource">
                  <stEvt:action>saved</stEvt:action>
                  <stEvt:instanceID>xmp.iid:FD5B7C7F2C9EE511BB47E656568EC83A</stEvt:instanceID>
                  <stEvt:when>2015-12-08T23:22:45-05:00</stEvt:when>
                  <stEvt:softwareAgent>Adobe Audition CS6 (Windows)</stEvt:softwareAgent>
                  <stEvt:changed>/metadata</stEvt:changed>
               </rdf:li>
               <rdf:li rdf:parseType="Resource">
                  <stEvt:action>saved</stEvt:action>
                  <stEvt:instanceID>xmp.iid:FE5B7C7F2C9EE511BB47E656568EC83A</stEvt:instanceID>
                  <stEvt:when>2015-12-08T23:22:45-05:00</stEvt:when>
                  <stEvt:softwareAgent>Adobe Audition CS6 (Windows)</stEvt:softwareAgent>
                  <stEvt:changed>/</stEvt:changed>
               </rdf:li>
               <rdf:li rdf:parseType="Resource">
                  <stEvt:action>saved</stEvt:action>
                  <stEvt:instanceID>xmp.iid:055C7C7F2C9EE511BB47E656568EC83A</stEvt:instanceID>
                  <stEvt:when>2015-12-08T23:32:54-05:00</stEvt:when>
                  <stEvt:softwareAgent>Adobe Audition CS6 (Windows)</stEvt:softwareAgent>
                  <stEvt:changed>/metadata</stEvt:changed>
               </rdf:li>
               <rdf:li rdf:parseType="Resource">
                  <stEvt:action>saved</stEvt:action>
                  <stEvt:instanceID>xmp.iid:3BCF35EA2D9EE511BB47E656568EC83A</stEvt:instanceID>
                  <stEvt:when>2015-12-08T23:32:54-05:00</stEvt:when>
                  <stEvt:softwareAgent>Adobe Audition CS6 (Windows)</stEvt:softwareAgent>
                  <stEvt:changed>/</stEvt:changed>
               </rdf:li>
               <rdf:li rdf:parseType="Resource">
                  <stEvt:action>saved</stEvt:action>
                  <stEvt:instanceID>xmp.iid:3CCF35EA2D9EE511BB47E656568EC83A</stEvt:instanceID>
                  <stEvt:when>2015-12-08T23:33:23-05:00</stEvt:when>
                  <stEvt:softwareAgent>Adobe Audition CS6 (Windows)</stEvt:softwareAgent>
                  <stEvt:changed>/metadata</stEvt:changed>
               </rdf:li>
               <rdf:li rdf:parseType="Resource">
                  <stEvt:action>saved</stEvt:action>
                  <stEvt:instanceID>xmp.iid:3DCF35EA2D9EE511BB47E656568EC83A</stEvt:instanceID>
                  <stEvt:when>2015-12-08T23:33:23-05:00</stEvt:when>
                  <stEvt:softwareAgent>Adobe Audition CS6 (Windows)</stEvt:softwareAgent>
                  <stEvt:changed>/</stEvt:changed>
               </rdf:li>
               <rdf:li rdf:parseType="Resource">
                  <stEvt:action>saved</stEvt:action>
                  <stEvt:instanceID>xmp.iid:40CF35EA2D9EE511BB47E656568EC83A</stEvt:instanceID>
                  <stEvt:when>2015-12-08T23:43:26-05:00</stEvt:when>
                  <stEvt:softwareAgent>Adobe Audition CS6 (Windows)</stEvt:softwareAgent>
                  <stEvt:changed>/metadata</stEvt:changed>
               </rdf:li>
               <rdf:li rdf:parseType="Resource">
                  <stEvt:action>saved</stEvt:action>
                  <stEvt:instanceID>xmp.iid:41CF35EA2D9EE511BB47E656568EC83A</stEvt:instanceID>
                  <stEvt:when>2015-12-08T23:43:26-05:00</stEvt:when>
                  <stEvt:softwareAgent>Adobe Audition CS6 (Windows)</stEvt:softwareAgent>
                  <stEvt:changed>/</stEvt:changed>
               </rdf:li>
               <rdf:li rdf:parseType="Resource">
                  <stEvt:action>saved</stEvt:action>
                  <stEvt:instanceID>xmp.iid:8AC58A8F309EE511BB47E656568EC83A</stEvt:instanceID>
                  <stEvt:when>2015-12-08T23:51:50-05:00</stEvt:when>
                  <stEvt:softwareAgent>Adobe Audition CS6 (Windows)</stEvt:softwareAgent>
                  <stEvt:changed>/metadata</stEvt:changed>
               </rdf:li>
               <rdf:li rdf:parseType="Resource">
                  <stEvt:action>saved</stEvt:action>
                  <stEvt:instanceID>xmp.iid:8BC58A8F309EE511BB47E656568EC83A</stEvt:instanceID>
                  <stEvt:when>2015-12-08T23:51:50-05:00</stEvt:when>
                  <stEvt:softwareAgent>Adobe Audition CS6 (Windows)</stEvt:softwareAgent>
                  <stEvt:changed>/</stEvt:changed>
               </rdf:li>
               <rdf:li rdf:parseType="Resource">
                  <stEvt:action>saved</stEvt:action>
                  <stEvt:instanceID>xmp.iid:8CC58A8F309EE511BB47E656568EC83A</stEvt:instanceID>
                  <stEvt:when>2015-12-09T00:02:53-05:00</stEvt:when>
                  <stEvt:softwareAgent>Adobe Audition CS6 (Windows)</stEvt:softwareAgent>
                  <stEvt:changed>/metadata</stEvt:changed>
               </rdf:li>
               <rdf:li rdf:parseType="Resource">
                  <stEvt:action>saved</stEvt:action>
                  <stEvt:instanceID>xmp.iid:8DC58A8F309EE511BB47E656568EC83A</stEvt:instanceID>
                  <stEvt:when>2015-12-09T00:02:53-05:00</stEvt:when>
                  <stEvt:softwareAgent>Adobe Audition CS6 (Windows)</stEvt:softwareAgent>
                  <stEvt:changed>/</stEvt:changed>
               </rdf:li>
               <rdf:li rdf:parseType="Resource">
                  <stEvt:action>saved</stEvt:action>
                  <stEvt:instanceID>xmp.iid:8EC58A8F309EE511BB47E656568EC83A</stEvt:instanceID>
                  <stEvt:when>2015-12-09T00:09:36-05:00</stEvt:when>
                  <stEvt:softwareAgent>Adobe Audition CS6 (Windows)</stEvt:softwareAgent>
                  <stEvt:changed>/metadata</stEvt:changed>
               </rdf:li>
               <rdf:li rdf:parseType="Resource">
                  <stEvt:action>saved</stEvt:action>
                  <stEvt:instanceID>xmp.iid:8FC58A8F309EE511BB47E656568EC83A</stEvt:instanceID>
                  <stEvt:when>2015-12-09T00:09:36-05:00</stEvt:when>
                  <stEvt:softwareAgent>Adobe Audition CS6 (Windows)</stEvt:softwareAgent>
                  <stEvt:changed>/</stEvt:changed>
               </rdf:li>
               <rdf:li rdf:parseType="Resource">
                  <stEvt:action>saved</stEvt:action>
                  <stEvt:instanceID>xmp.iid:90C58A8F309EE511BB47E656568EC83A</stEvt:instanceID>
                  <stEvt:when>2015-12-09T00:10:31-05:00</stEvt:when>
                  <stEvt:softwareAgent>Adobe Audition CS6 (Windows)</stEvt:softwareAgent>
                  <stEvt:changed>/metadata</stEvt:changed>
               </rdf:li>
               <rdf:li rdf:parseType="Resource">
                  <stEvt:action>saved</stEvt:action>
                  <stEvt:instanceID>xmp.iid:91C58A8F309EE511BB47E656568EC83A</stEvt:instanceID>
                  <stEvt:when>2015-12-09T00:10:31-05:00</stEvt:when>
                  <stEvt:softwareAgent>Adobe Audition CS6 (Windows)</stEvt:softwareAgent>
                  <stEvt:changed>/</stEvt:changed>
               </rdf:li>
               <rdf:li rdf:parseType="Resource">
                  <stEvt:action>saved</stEvt:action>
                  <stEvt:instanceID>xmp.iid:A2A5BCF7339EE511BB47E656568EC83A</stEvt:instanceID>
                  <stEvt:when>2015-12-09T00:18:08-05:00</stEvt:when>
                  <stEvt:softwareAgent>Adobe Audition CS6 (Windows)</stEvt:softwareAgent>
                  <stEvt:changed>/metadata</stEvt:changed>
               </rdf:li>
               <rdf:li rdf:parseType="Resource">
                  <stEvt:action>saved</stEvt:action>
                  <stEvt:instanceID>xmp.iid:A3A5BCF7339EE511BB47E656568EC83A</stEvt:instanceID>
                  <stEvt:when>2015-12-09T00:18:08-05:00</stEvt:when>
                  <stEvt:softwareAgent>Adobe Audition CS6 (Windows)</stEvt:softwareAgent>
                  <stEvt:changed>/</stEvt:changed>
               </rdf:li>
               <rdf:li rdf:parseType="Resource">
                  <stEvt:action>saved</stEvt:action>
                  <stEvt:instanceID>xmp.iid:A4A5BCF7339EE511BB47E656568EC83A</stEvt:instanceID>
                  <stEvt:when>2015-12-09T00:18:35-05:00</stEvt:when>
                  <stEvt:softwareAgent>Adobe Audition CS6 (Windows)</stEvt:softwareAgent>
                  <stEvt:changed>/metadata</stEvt:changed>
               </rdf:li>
               <rdf:li rdf:parseType="Resource">
                  <stEvt:action>saved</stEvt:action>
                  <stEvt:instanceID>xmp.iid:A5A5BCF7339EE511BB47E656568EC83A</stEvt:instanceID>
                  <stEvt:when>2015-12-09T00:18:35-05:00</stEvt:when>
                  <stEvt:softwareAgent>Adobe Audition CS6 (Windows)</stEvt:softwareAgent>
                  <stEvt:changed>/</stEvt:changed>
               </rdf:li>
               <rdf:li rdf:parseType="Resource">
                  <stEvt:action>saved</stEvt:action>
                  <stEvt:instanceID>xmp.iid:E8DCC774F29EE511A60CEBCA1590A3D5</stEvt:instanceID>
                  <stEvt:when>2015-12-09T23:00:08-05:00</stEvt:when>
                  <stEvt:softwareAgent>Adobe Audition CS6 (Windows)</stEvt:softwareAgent>
                  <stEvt:changed>/metadata</stEvt:changed>
               </rdf:li>
               <rdf:li rdf:parseType="Resource">
                  <stEvt:action>saved</stEvt:action>
                  <stEvt:instanceID>xmp.iid:E9DCC774F29EE511A60CEBCA1590A3D5</stEvt:instanceID>
                  <stEvt:when>2015-12-09T23:00:08-05:00</stEvt:when>
                  <stEvt:softwareAgent>Adobe Audition CS6 (Windows)</stEvt:softwareAgent>
                  <stEvt:changed>/</stEvt:changed>
               </rdf:li>
               <rdf:li rdf:parseType="Resource">
                  <stEvt:action>saved</stEvt:action>
                  <stEvt:instanceID>xmp.iid:3D79FA2BF39EE511A60CEBCA1590A3D5</stEvt:instanceID>
                  <stEvt:when>2015-12-09T23:04:55-05:00</stEvt:when>
                  <stEvt:softwareAgent>Adobe Audition CS6 (Windows)</stEvt:softwareAgent>
                  <stEvt:changed>/metadata</stEvt:changed>
               </rdf:li>
               <rdf:li rdf:parseType="Resource">
                  <stEvt:action>saved</stEvt:action>
                  <stEvt:instanceID>xmp.iid:3E79FA2BF39EE511A60CEBCA1590A3D5</stEvt:instanceID>
                  <stEvt:when>2015-12-09T23:04:55-05:00</stEvt:when>
                  <stEvt:softwareAgent>Adobe Audition CS6 (Windows)</stEvt:softwareAgent>
                  <stEvt:changed>/</stEvt:changed>
               </rdf:li>
               <rdf:li rdf:parseType="Resource">
                  <stEvt:action>saved</stEvt:action>
                  <stEvt:instanceID>xmp.iid:3F79FA2BF39EE511A60CEBCA1590A3D5</stEvt:instanceID>
                  <stEvt:when>2015-12-09T23:15:35-05:00</stEvt:when>
                  <stEvt:softwareAgent>Adobe Audition CS6 (Windows)</stEvt:softwareAgent>
                  <stEvt:changed>/metadata</stEvt:changed>
               </rdf:li>
               <rdf:li rdf:parseType="Resource">
                  <stEvt:action>saved</stEvt:action>
                  <stEvt:instanceID>xmp.iid:4079FA2BF39EE511A60CEBCA1590A3D5</stEvt:instanceID>
                  <stEvt:when>2015-12-09T23:15:35-05:00</stEvt:when>
                  <stEvt:softwareAgent>Adobe Audition CS6 (Windows)</stEvt:softwareAgent>
                  <stEvt:changed>/</stEvt:changed>
               </rdf:li>
               <rdf:li rdf:parseType="Resource">
                  <stEvt:action>saved</stEvt:action>
                  <stEvt:instanceID>xmp.iid:4179FA2BF39EE511A60CEBCA1590A3D5</stEvt:instanceID>
                  <stEvt:when>2015-12-09T23:25:35-05:00</stEvt:when>
                  <stEvt:softwareAgent>Adobe Audition CS6 (Windows)</stEvt:softwareAgent>
                  <stEvt:changed>/metadata</stEvt:changed>
               </rdf:li>
               <rdf:li rdf:parseType="Resource">
                  <stEvt:action>saved</stEvt:action>
                  <stEvt:instanceID>xmp.iid:4279FA2BF39EE511A60CEBCA1590A3D5</stEvt:instanceID>
                  <stEvt:when>2015-12-09T23:25:35-05:00</stEvt:when>
                  <stEvt:softwareAgent>Adobe Audition CS6 (Windows)</stEvt:softwareAgent>
                  <stEvt:changed>/</stEvt:changed>
               </rdf:li>
               <rdf:li rdf:parseType="Resource">
                  <stEvt:action>saved</stEvt:action>
                  <stEvt:instanceID>xmp.iid:4579FA2BF39EE511A60CEBCA1590A3D5</stEvt:instanceID>
                  <stEvt:when>2015-12-09T23:28:01-05:00</stEvt:when>
                  <stEvt:softwareAgent>Adobe Audition CS6 (Windows)</stEvt:softwareAgent>
                  <stEvt:changed>/metadata</stEvt:changed>
               </rdf:li>
               <rdf:li rdf:parseType="Resource">
                  <stEvt:action>saved</stEvt:action>
                  <stEvt:instanceID>xmp.iid:4679FA2BF39EE511A60CEBCA1590A3D5</stEvt:instanceID>
                  <stEvt:when>2015-12-09T23:28:01-05:00</stEvt:when>
                  <stEvt:softwareAgent>Adobe Audition CS6 (Windows)</stEvt:softwareAgent>
                  <stEvt:changed>/</stEvt:changed>
               </rdf:li>
               <rdf:li rdf:parseType="Resource">
                  <stEvt:action>saved</stEvt:action>
                  <stEvt:instanceID>xmp.iid:4779FA2BF39EE511A60CEBCA1590A3D5</stEvt:instanceID>
                  <stEvt:when>2015-12-09T23:39:07-05:00</stEvt:when>
                  <stEvt:softwareAgent>Adobe Audition CS6 (Windows)</stEvt:softwareAgent>
                  <stEvt:changed>/metadata</stEvt:changed>
               </rdf:li>
               <rdf:li rdf:parseType="Resource">
                  <stEvt:action>saved</stEvt:action>
                  <stEvt:instanceID>xmp.iid:3D09CDF2F79EE511A60CEBCA1590A3D5</stEvt:instanceID>
                  <stEvt:when>2015-12-09T23:39:07-05:00</stEvt:when>
                  <stEvt:softwareAgent>Adobe Audition CS6 (Windows)</stEvt:softwareAgent>
                  <stEvt:changed>/</stEvt:changed>
               </rdf:li>
               <rdf:li rdf:parseType="Resource">
                  <stEvt:action>saved</stEvt:action>
                  <stEvt:instanceID>xmp.iid:4609CDF2F79EE511A60CEBCA1590A3D5</stEvt:instanceID>
                  <stEvt:when>2015-12-09T23:47:54-05:00</stEvt:when>
                  <stEvt:softwareAgent>Adobe Audition CS6 (Windows)</stEvt:softwareAgent>
                  <stEvt:changed>/metadata</stEvt:changed>
               </rdf:li>
               <rdf:li rdf:parseType="Resource">
                  <stEvt:action>saved</stEvt:action>
                  <stEvt:instanceID>xmp.iid:4709CDF2F79EE511A60CEBCA1590A3D5</stEvt:instanceID>
                  <stEvt:when>2015-12-09T23:47:54-05:00</stEvt:when>
                  <stEvt:softwareAgent>Adobe Audition CS6 (Windows)</stEvt:softwareAgent>
                  <stEvt:changed>/</stEvt:changed>
               </rdf:li>
               <rdf:li rdf:parseType="Resource">
                  <stEvt:action>saved</stEvt:action>
                  <stEvt:instanceID>xmp.iid:17075B5AF99EE511A60CEBCA1590A3D5</stEvt:instanceID>
                  <stEvt:when>2015-12-09T23:49:10-05:00</stEvt:when>
                  <stEvt:softwareAgent>Adobe Audition CS6 (Windows)</stEvt:softwareAgent>
                  <stEvt:changed>/metadata</stEvt:changed>
               </rdf:li>
               <rdf:li rdf:parseType="Resource">
                  <stEvt:action>saved</stEvt:action>
                  <stEvt:instanceID>xmp.iid:18075B5AF99EE511A60CEBCA1590A3D5</stEvt:instanceID>
                  <stEvt:when>2015-12-09T23:49:10-05:00</stEvt:when>
                  <stEvt:softwareAgent>Adobe Audition CS6 (Windows)</stEvt:softwareAgent>
                  <stEvt:changed>/</stEvt:changed>
               </rdf:li>
               <rdf:li rdf:parseType="Resource">
                  <stEvt:action>saved</stEvt:action>
                  <stEvt:instanceID>xmp.iid:1D075B5AF99EE511A60CEBCA1590A3D5</stEvt:instanceID>
                  <stEvt:when>2015-12-09T23:50:56-05:00</stEvt:when>
                  <stEvt:softwareAgent>Adobe Audition CS6 (Windows)</stEvt:softwareAgent>
                  <stEvt:changed>/metadata</stEvt:changed>
               </rdf:li>
               <rdf:li rdf:parseType="Resource">
                  <stEvt:action>saved</stEvt:action>
                  <stEvt:instanceID>xmp.iid:1E075B5AF99EE511A60CEBCA1590A3D5</stEvt:instanceID>
                  <stEvt:when>2015-12-09T23:50:56-05:00</stEvt:when>
                  <stEvt:softwareAgent>Adobe Audition CS6 (Windows)</stEvt:softwareAgent>
                  <stEvt:changed>/</stEvt:changed>
               </rdf:li>
               <rdf:li rdf:parseType="Resource">
                  <stEvt:action>saved</stEvt:action>
                  <stEvt:instanceID>xmp.iid:DAD962B8F99EE511A60CEBCA1590A3D5</stEvt:instanceID>
                  <stEvt:when>2015-12-09T23:56:19-05:00</stEvt:when>
                  <stEvt:softwareAgent>Adobe Audition CS6 (Windows)</stEvt:softwareAgent>
                  <stEvt:changed>/metadata</stEvt:changed>
               </rdf:li>
               <rdf:li rdf:parseType="Resource">
                  <stEvt:action>saved</stEvt:action>
                  <stEvt:instanceID>xmp.iid:DBD962B8F99EE511A60CEBCA1590A3D5</stEvt:instanceID>
                  <stEvt:when>2015-12-09T23:56:19-05:00</stEvt:when>
                  <stEvt:softwareAgent>Adobe Audition CS6 (Windows)</stEvt:softwareAgent>
                  <stEvt:changed>/</stEvt:changed>
               </rdf:li>
               <rdf:li rdf:parseType="Resource">
                  <stEvt:action>saved</stEvt:action>
                  <stEvt:instanceID>xmp.iid:DCD962B8F99EE511A60CEBCA1590A3D5</stEvt:instanceID>
                  <stEvt:when>2015-12-09T23:58:06-05:00</stEvt:when>
                  <stEvt:softwareAgent>Adobe Audition CS6 (Windows)</stEvt:softwareAgent>
                  <stEvt:changed>/metadata</stEvt:changed>
               </rdf:li>
               <rdf:li rdf:parseType="Resource">
                  <stEvt:action>saved</stEvt:action>
                  <stEvt:instanceID>xmp.iid:DDD962B8F99EE511A60CEBCA1590A3D5</stEvt:instanceID>
                  <stEvt:when>2015-12-09T23:58:06-05:00</stEvt:when>
                  <stEvt:softwareAgent>Adobe Audition CS6 (Windows)</stEvt:softwareAgent>
                  <stEvt:changed>/</stEvt:changed>
               </rdf:li>
               <rdf:li rdf:parseType="Resource">
                  <stEvt:action>saved</stEvt:action>
                  <stEvt:instanceID>xmp.iid:E1DD09B8579FE511B4AFDF6F15A498B3</stEvt:instanceID>
                  <stEvt:when>2015-12-10T11:05:10-05:00</stEvt:when>
                  <stEvt:softwareAgent>Adobe Audition CS6 (Windows)</stEvt:softwareAgent>
                  <stEvt:changed>/metadata</stEvt:changed>
               </rdf:li>
               <rdf:li rdf:parseType="Resource">
                  <stEvt:action>saved</stEvt:action>
                  <stEvt:instanceID>xmp.iid:E2DD09B8579FE511B4AFDF6F15A498B3</stEvt:instanceID>
                  <stEvt:when>2015-12-10T11:05:10-05:00</stEvt:when>
                  <stEvt:softwareAgent>Adobe Audition CS6 (Windows)</stEvt:softwareAgent>
                  <stEvt:changed>/</stEvt:changed>
               </rdf:li>
               <rdf:li rdf:parseType="Resource">
                  <stEvt:action>saved</stEvt:action>
                  <stEvt:instanceID>xmp.iid:7751FE32599FE511B4AFDF6F15A498B3</stEvt:instanceID>
                  <stEvt:when>2015-12-10T11:15:16-05:00</stEvt:when>
                  <stEvt:softwareAgent>Adobe Audition CS6 (Windows)</stEvt:softwareAgent>
                  <stEvt:changed>/metadata</stEvt:changed>
               </rdf:li>
               <rdf:li rdf:parseType="Resource">
                  <stEvt:action>saved</stEvt:action>
                  <stEvt:instanceID>xmp.iid:7851FE32599FE511B4AFDF6F15A498B3</stEvt:instanceID>
                  <stEvt:when>2015-12-10T11:15:16-05:00</stEvt:when>
                  <stEvt:softwareAgent>Adobe Audition CS6 (Windows)</stEvt:softwareAgent>
                  <stEvt:changed>/</stEvt:changed>
               </rdf:li>
               <rdf:li rdf:parseType="Resource">
                  <stEvt:action>saved</stEvt:action>
                  <stEvt:instanceID>xmp.iid:7B51FE32599FE511B4AFDF6F15A498B3</stEvt:instanceID>
                  <stEvt:when>2015-12-10T11:16:06-05:00</stEvt:when>
                  <stEvt:softwareAgent>Adobe Audition CS6 (Windows)</stEvt:softwareAgent>
                  <stEvt:changed>/metadata</stEvt:changed>
               </rdf:li>
               <rdf:li rdf:parseType="Resource">
                  <stEvt:action>saved</stEvt:action>
                  <stEvt:instanceID>xmp.iid:7C51FE32599FE511B4AFDF6F15A498B3</stEvt:instanceID>
                  <stEvt:when>2015-12-10T11:16:06-05:00</stEvt:when>
                  <stEvt:softwareAgent>Adobe Audition CS6 (Windows)</stEvt:softwareAgent>
                  <stEvt:changed>/</stEvt:changed>
               </rdf:li>
               <rdf:li rdf:parseType="Resource">
                  <stEvt:action>saved</stEvt:action>
                  <stEvt:instanceID>xmp.iid:7F51FE32599FE511B4AFDF6F15A498B3</stEvt:instanceID>
                  <stEvt:when>2015-12-10T11:17:08-05:00</stEvt:when>
                  <stEvt:softwareAgent>Adobe Audition CS6 (Windows)</stEvt:softwareAgent>
                  <stEvt:changed>/metadata</stEvt:changed>
               </rdf:li>
               <rdf:li rdf:parseType="Resource">
                  <stEvt:action>saved</stEvt:action>
                  <stEvt:instanceID>xmp.iid:8051FE32599FE511B4AFDF6F15A498B3</stEvt:instanceID>
                  <stEvt:when>2015-12-10T11:17:08-05:00</stEvt:when>
                  <stEvt:softwareAgent>Adobe Audition CS6 (Windows)</stEvt:softwareAgent>
                  <stEvt:changed>/</stEvt:changed>
               </rdf:li>
               <rdf:li rdf:parseType="Resource">
                  <stEvt:action>saved</stEvt:action>
                  <stEvt:instanceID>xmp.iid:F559BE355A9FE511B4AFDF6F15A498B3</stEvt:instanceID>
                  <stEvt:when>2015-12-10T11:29:16-05:00</stEvt:when>
                  <stEvt:softwareAgent>Adobe Audition CS6 (Windows)</stEvt:softwareAgent>
                  <stEvt:changed>/metadata</stEvt:changed>
               </rdf:li>
               <rdf:li rdf:parseType="Resource">
                  <stEvt:action>saved</stEvt:action>
                  <stEvt:instanceID>xmp.iid:F659BE355A9FE511B4AFDF6F15A498B3</stEvt:instanceID>
                  <stEvt:when>2015-12-10T11:29:16-05:00</stEvt:when>
                  <stEvt:softwareAgent>Adobe Audition CS6 (Windows)</stEvt:softwareAgent>
                  <stEvt:changed>/</stEvt:changed>
               </rdf:li>
               <rdf:li rdf:parseType="Resource">
                  <stEvt:action>saved</stEvt:action>
                  <stEvt:instanceID>xmp.iid:DE4C06C65B9FE511B4AFDF6F15A498B3</stEvt:instanceID>
                  <stEvt:when>2015-12-10T11:39:18-05:00</stEvt:when>
                  <stEvt:softwareAgent>Adobe Audition CS6 (Windows)</stEvt:softwareAgent>
                  <stEvt:changed>/metadata</stEvt:changed>
               </rdf:li>
               <rdf:li rdf:parseType="Resource">
                  <stEvt:action>saved</stEvt:action>
                  <stEvt:instanceID>xmp.iid:DF4C06C65B9FE511B4AFDF6F15A498B3</stEvt:instanceID>
                  <stEvt:when>2015-12-10T11:39:18-05:00</stEvt:when>
                  <stEvt:softwareAgent>Adobe Audition CS6 (Windows)</stEvt:softwareAgent>
                  <stEvt:changed>/</stEvt:changed>
               </rdf:li>
               <rdf:li rdf:parseType="Resource">
                  <stEvt:action>saved</stEvt:action>
                  <stEvt:instanceID>xmp.iid:E24C06C65B9FE511B4AFDF6F15A498B3</stEvt:instanceID>
                  <stEvt:when>2015-12-10T11:39:20-05:00</stEvt:when>
                  <stEvt:softwareAgent>Adobe Audition CS6 (Windows)</stEvt:softwareAgent>
                  <stEvt:changed>/metadata</stEvt:changed>
               </rdf:li>
               <rdf:li rdf:parseType="Resource">
                  <stEvt:action>saved</stEvt:action>
                  <stEvt:instanceID>xmp.iid:2B39D18F5C9FE511B4AFDF6F15A498B3</stEvt:instanceID>
                  <stEvt:when>2015-12-10T11:39:20-05:00</stEvt:when>
                  <stEvt:softwareAgent>Adobe Audition CS6 (Windows)</stEvt:softwareAgent>
                  <stEvt:changed>/</stEvt:changed>
               </rdf:li>
               <rdf:li rdf:parseType="Resource">
                  <stEvt:action>saved</stEvt:action>
                  <stEvt:instanceID>xmp.iid:2E39D18F5C9FE511B4AFDF6F15A498B3</stEvt:instanceID>
                  <stEvt:when>2015-12-10T11:43:31-05:00</stEvt:when>
                  <stEvt:softwareAgent>Adobe Audition CS6 (Windows)</stEvt:softwareAgent>
                  <stEvt:changed>/metadata</stEvt:changed>
               </rdf:li>
               <rdf:li rdf:parseType="Resource">
                  <stEvt:action>saved</stEvt:action>
                  <stEvt:instanceID>xmp.iid:2F39D18F5C9FE511B4AFDF6F15A498B3</stEvt:instanceID>
                  <stEvt:when>2015-12-10T11:43:31-05:00</stEvt:when>
                  <stEvt:softwareAgent>Adobe Audition CS6 (Windows)</stEvt:softwareAgent>
                  <stEvt:changed>/</stEvt:changed>
               </rdf:li>
               <rdf:li rdf:parseType="Resource">
                  <stEvt:action>saved</stEvt:action>
                  <stEvt:instanceID>xmp.iid:CE338B255D9FE511B4AFDF6F15A498B3</stEvt:instanceID>
                  <stEvt:when>2015-12-10T11:45:12-05:00</stEvt:when>
                  <stEvt:softwareAgent>Adobe Audition CS6 (Windows)</stEvt:softwareAgent>
                  <stEvt:changed>/metadata</stEvt:changed>
               </rdf:li>
               <rdf:li rdf:parseType="Resource">
                  <stEvt:action>saved</stEvt:action>
                  <stEvt:instanceID>xmp.iid:CF338B255D9FE511B4AFDF6F15A498B3</stEvt:instanceID>
                  <stEvt:when>2015-12-10T11:45:12-05:00</stEvt:when>
                  <stEvt:softwareAgent>Adobe Audition CS6 (Windows)</stEvt:softwareAgent>
                  <stEvt:changed>/</stEvt:changed>
               </rdf:li>
               <rdf:li rdf:parseType="Resource">
                  <stEvt:action>saved</stEvt:action>
                  <stEvt:instanceID>xmp.iid:FE1AD5E45D9FE511B4AFDF6F15A498B3</stEvt:instanceID>
                  <stEvt:when>2015-12-10T11:50:40-05:00</stEvt:when>
                  <stEvt:softwareAgent>Adobe Audition CS6 (Windows)</stEvt:softwareAgent>
                  <stEvt:changed>/metadata</stEvt:changed>
               </rdf:li>
               <rdf:li rdf:parseType="Resource">
                  <stEvt:action>saved</stEvt:action>
                  <stEvt:instanceID>xmp.iid:FF1AD5E45D9FE511B4AFDF6F15A498B3</stEvt:instanceID>
                  <stEvt:when>2015-12-10T11:50:40-05:00</stEvt:when>
                  <stEvt:softwareAgent>Adobe Audition CS6 (Windows)</stEvt:softwareAgent>
                  <stEvt:changed>/</stEvt:changed>
               </rdf:li>
               <rdf:li rdf:parseType="Resource">
                  <stEvt:action>saved</stEvt:action>
                  <stEvt:instanceID>xmp.iid:4B12632F5F9FE511B4AFDF6F15A498B3</stEvt:instanceID>
                  <stEvt:when>2015-12-10T11:58:07-05:00</stEvt:when>
                  <stEvt:softwareAgent>Adobe Audition CS6 (Windows)</stEvt:softwareAgent>
                  <stEvt:changed>/metadata</stEvt:changed>
               </rdf:li>
               <rdf:li rdf:parseType="Resource">
                  <stEvt:action>saved</stEvt:action>
                  <stEvt:instanceID>xmp.iid:4C12632F5F9FE511B4AFDF6F15A498B3</stEvt:instanceID>
                  <stEvt:when>2015-12-10T11:58:07-05:00</stEvt:when>
                  <stEvt:softwareAgent>Adobe Audition CS6 (Windows)</stEvt:softwareAgent>
                  <stEvt:changed>/</stEvt:changed>
               </rdf:li>
               <rdf:li rdf:parseType="Resource">
                  <stEvt:action>saved</stEvt:action>
                  <stEvt:instanceID>xmp.iid:4D12632F5F9FE511B4AFDF6F15A498B3</stEvt:instanceID>
                  <stEvt:when>2015-12-10T11:58:43-05:00</stEvt:when>
                  <stEvt:softwareAgent>Adobe Audition CS6 (Windows)</stEvt:softwareAgent>
                  <stEvt:changed>/metadata</stEvt:changed>
               </rdf:li>
               <rdf:li rdf:parseType="Resource">
                  <stEvt:action>saved</stEvt:action>
                  <stEvt:instanceID>xmp.iid:4E12632F5F9FE511B4AFDF6F15A498B3</stEvt:instanceID>
                  <stEvt:when>2015-12-10T11:58:43-05:00</stEvt:when>
                  <stEvt:softwareAgent>Adobe Audition CS6 (Windows)</stEvt:softwareAgent>
                  <stEvt:changed>/</stEvt:changed>
               </rdf:li>
               <rdf:li rdf:parseType="Resource">
                  <stEvt:action>saved</stEvt:action>
                  <stEvt:instanceID>xmp.iid:4F12632F5F9FE511B4AFDF6F15A498B3</stEvt:instanceID>
                  <stEvt:when>2015-12-10T12:00:37-05:00</stEvt:when>
                  <stEvt:softwareAgent>Adobe Audition CS6 (Windows)</stEvt:softwareAgent>
                  <stEvt:changed>/metadata</stEvt:changed>
               </rdf:li>
               <rdf:li rdf:parseType="Resource">
                  <stEvt:action>saved</stEvt:action>
                  <stEvt:instanceID>xmp.iid:5012632F5F9FE511B4AFDF6F15A498B3</stEvt:instanceID>
                  <stEvt:when>2015-12-10T12:00:37-05:00</stEvt:when>
                  <stEvt:softwareAgent>Adobe Audition CS6 (Windows)</stEvt:softwareAgent>
                  <stEvt:changed>/</stEvt:changed>
               </rdf:li>
               <rdf:li rdf:parseType="Resource">
                  <stEvt:action>saved</stEvt:action>
                  <stEvt:instanceID>xmp.iid:D1E0383B609FE511B4AFDF6F15A498B3</stEvt:instanceID>
                  <stEvt:when>2015-12-10T12:08:33-05:00</stEvt:when>
                  <stEvt:softwareAgent>Adobe Audition CS6 (Windows)</stEvt:softwareAgent>
                  <stEvt:changed>/metadata</stEvt:changed>
               </rdf:li>
               <rdf:li rdf:parseType="Resource">
                  <stEvt:action>saved</stEvt:action>
                  <stEvt:instanceID>xmp.iid:D2E0383B609FE511B4AFDF6F15A498B3</stEvt:instanceID>
                  <stEvt:when>2015-12-10T12:08:33-05:00</stEvt:when>
                  <stEvt:softwareAgent>Adobe Audition CS6 (Windows)</stEvt:softwareAgent>
                  <stEvt:changed>/</stEvt:changed>
               </rdf:li>
               <rdf:li rdf:parseType="Resource">
                  <stEvt:action>saved</stEvt:action>
                  <stEvt:instanceID>xmp.iid:D5E0383B609FE511B4AFDF6F15A498B3</stEvt:instanceID>
                  <stEvt:when>2015-12-10T12:19:50-05:00</stEvt:when>
                  <stEvt:softwareAgent>Adobe Audition CS6 (Windows)</stEvt:softwareAgent>
                  <stEvt:changed>/metadata</stEvt:changed>
               </rdf:li>
               <rdf:li rdf:parseType="Resource">
                  <stEvt:action>saved</stEvt:action>
                  <stEvt:instanceID>xmp.iid:D6E0383B609FE511B4AFDF6F15A498B3</stEvt:instanceID>
                  <stEvt:when>2015-12-10T12:19:50-05:00</stEvt:when>
                  <stEvt:softwareAgent>Adobe Audition CS6 (Windows)</stEvt:softwareAgent>
                  <stEvt:changed>/</stEvt:changed>
               </rdf:li>
               <rdf:li rdf:parseType="Resource">
                  <stEvt:action>saved</stEvt:action>
                  <stEvt:instanceID>xmp.iid:D7E0383B609FE511B4AFDF6F15A498B3</stEvt:instanceID>
                  <stEvt:when>2015-12-10T12:21:50-05:00</stEvt:when>
                  <stEvt:softwareAgent>Adobe Audition CS6 (Windows)</stEvt:softwareAgent>
                  <stEvt:changed>/metadata</stEvt:changed>
               </rdf:li>
               <rdf:li rdf:parseType="Resource">
                  <stEvt:action>saved</stEvt:action>
                  <stEvt:instanceID>xmp.iid:D8E0383B609FE511B4AFDF6F15A498B3</stEvt:instanceID>
                  <stEvt:when>2015-12-10T12:21:50-05:00</stEvt:when>
                  <stEvt:softwareAgent>Adobe Audition CS6 (Windows)</stEvt:softwareAgent>
                  <stEvt:changed>/</stEvt:changed>
               </rdf:li>
               <rdf:li rdf:parseType="Resource">
                  <stEvt:action>saved</stEvt:action>
                  <stEvt:instanceID>xmp.iid:EDA6AD4A639FE511B8D7D276CB64869C</stEvt:instanceID>
                  <stEvt:when>2015-12-10T12:27:43-05:00</stEvt:when>
                  <stEvt:softwareAgent>Adobe Audition CS6 (Windows)</stEvt:softwareAgent>
                  <stEvt:changed>/metadata</stEvt:changed>
               </rdf:li>
               <rdf:li rdf:parseType="Resource">
                  <stEvt:action>saved</stEvt:action>
                  <stEvt:instanceID>xmp.iid:EEA6AD4A639FE511B8D7D276CB64869C</stEvt:instanceID>
                  <stEvt:when>2015-12-10T12:27:43-05:00</stEvt:when>
                  <stEvt:softwareAgent>Adobe Audition CS6 (Windows)</stEvt:softwareAgent>
                  <stEvt:changed>/</stEvt:changed>
               </rdf:li>
               <rdf:li rdf:parseType="Resource">
                  <stEvt:action>saved</stEvt:action>
                  <stEvt:instanceID>xmp.iid:2618B60D649FE511B8D7D276CB64869C</stEvt:instanceID>
                  <stEvt:when>2015-12-10T12:35:15-05:00</stEvt:when>
                  <stEvt:softwareAgent>Adobe Audition CS6 (Windows)</stEvt:softwareAgent>
                  <stEvt:changed>/metadata</stEvt:changed>
               </rdf:li>
               <rdf:li rdf:parseType="Resource">
                  <stEvt:action>saved</stEvt:action>
                  <stEvt:instanceID>xmp.iid:2718B60D649FE511B8D7D276CB64869C</stEvt:instanceID>
                  <stEvt:when>2015-12-10T12:35:15-05:00</stEvt:when>
                  <stEvt:softwareAgent>Adobe Audition CS6 (Windows)</stEvt:softwareAgent>
                  <stEvt:changed>/</stEvt:changed>
               </rdf:li>
               <rdf:li rdf:parseType="Resource">
                  <stEvt:action>saved</stEvt:action>
                  <stEvt:instanceID>xmp.iid:2818B60D649FE511B8D7D276CB64869C</stEvt:instanceID>
                  <stEvt:when>2015-12-10T12:45:24-05:00</stEvt:when>
                  <stEvt:softwareAgent>Adobe Audition CS6 (Windows)</stEvt:softwareAgent>
                  <stEvt:changed>/metadata</stEvt:changed>
               </rdf:li>
               <rdf:li rdf:parseType="Resource">
                  <stEvt:action>saved</stEvt:action>
                  <stEvt:instanceID>xmp.iid:2918B60D649FE511B8D7D276CB64869C</stEvt:instanceID>
                  <stEvt:when>2015-12-10T12:45:24-05:00</stEvt:when>
                  <stEvt:softwareAgent>Adobe Audition CS6 (Windows)</stEvt:softwareAgent>
                  <stEvt:changed>/</stEvt:changed>
               </rdf:li>
               <rdf:li rdf:parseType="Resource">
                  <stEvt:action>saved</stEvt:action>
                  <stEvt:instanceID>xmp.iid:176DE08B669FE511B8D7D276CB64869C</stEvt:instanceID>
                  <stEvt:when>2015-12-10T12:50:48-05:00</stEvt:when>
                  <stEvt:softwareAgent>Adobe Audition CS6 (Windows)</stEvt:softwareAgent>
                  <stEvt:changed>/metadata</stEvt:changed>
               </rdf:li>
               <rdf:li rdf:parseType="Resource">
                  <stEvt:action>saved</stEvt:action>
                  <stEvt:instanceID>xmp.iid:186DE08B669FE511B8D7D276CB64869C</stEvt:instanceID>
                  <stEvt:when>2015-12-10T12:50:48-05:00</stEvt:when>
                  <stEvt:softwareAgent>Adobe Audition CS6 (Windows)</stEvt:softwareAgent>
                  <stEvt:changed>/</stEvt:changed>
               </rdf:li>
               <rdf:li rdf:parseType="Resource">
                  <stEvt:action>saved</stEvt:action>
                  <stEvt:instanceID>xmp.iid:1D6DE08B669FE511B8D7D276CB64869C</stEvt:instanceID>
                  <stEvt:when>2015-12-10T12:53:32-05:00</stEvt:when>
                  <stEvt:softwareAgent>Adobe Audition CS6 (Windows)</stEvt:softwareAgent>
                  <stEvt:changed>/metadata</stEvt:changed>
               </rdf:li>
               <rdf:li rdf:parseType="Resource">
                  <stEvt:action>saved</stEvt:action>
                  <stEvt:instanceID>xmp.iid:1E6DE08B669FE511B8D7D276CB64869C</stEvt:instanceID>
                  <stEvt:when>2015-12-10T12:53:32-05:00</stEvt:when>
                  <stEvt:softwareAgent>Adobe Audition CS6 (Windows)</stEvt:softwareAgent>
                  <stEvt:changed>/</stEvt:changed>
               </rdf:li>
               <rdf:li rdf:parseType="Resource">
                  <stEvt:action>saved</stEvt:action>
                  <stEvt:instanceID>xmp.iid:6A9C6DB46C9FE511B8D7D276CB64869C</stEvt:instanceID>
                  <stEvt:when>2015-12-10T13:36:21-05:00</stEvt:when>
                  <stEvt:softwareAgent>Adobe Audition CS6 (Windows)</stEvt:softwareAgent>
                  <stEvt:changed>/metadata</stEvt:changed>
               </rdf:li>
               <rdf:li rdf:parseType="Resource">
                  <stEvt:action>saved</stEvt:action>
                  <stEvt:instanceID>xmp.iid:6B9C6DB46C9FE511B8D7D276CB64869C</stEvt:instanceID>
                  <stEvt:when>2015-12-10T13:36:21-05:00</stEvt:when>
                  <stEvt:softwareAgent>Adobe Audition CS6 (Windows)</stEvt:softwareAgent>
                  <stEvt:changed>/</stEvt:changed>
               </rdf:li>
               <rdf:li rdf:parseType="Resource">
                  <stEvt:action>saved</stEvt:action>
                  <stEvt:instanceID>xmp.iid:6E9C6DB46C9FE511B8D7D276CB64869C</stEvt:instanceID>
                  <stEvt:when>2015-12-10T13:41:39-05:00</stEvt:when>
                  <stEvt:softwareAgent>Adobe Audition CS6 (Windows)</stEvt:softwareAgent>
                  <stEvt:changed>/metadata</stEvt:changed>
               </rdf:li>
               <rdf:li rdf:parseType="Resource">
                  <stEvt:action>saved</stEvt:action>
                  <stEvt:instanceID>xmp.iid:6F9C6DB46C9FE511B8D7D276CB64869C</stEvt:instanceID>
                  <stEvt:when>2015-12-10T13:41:39-05:00</stEvt:when>
                  <stEvt:softwareAgent>Adobe Audition CS6 (Windows)</stEvt:softwareAgent>
                  <stEvt:changed>/</stEvt:changed>
               </rdf:li>
               <rdf:li rdf:parseType="Resource">
                  <stEvt:action>saved</stEvt:action>
                  <stEvt:instanceID>xmp.iid:729C6DB46C9FE511B8D7D276CB64869C</stEvt:instanceID>
                  <stEvt:when>2015-12-10T13:46:05-05:00</stEvt:when>
                  <stEvt:softwareAgent>Adobe Audition CS6 (Windows)</stEvt:softwareAgent>
                  <stEvt:changed>/metadata</stEvt:changed>
               </rdf:li>
               <rdf:li rdf:parseType="Resource">
                  <stEvt:action>saved</stEvt:action>
                  <stEvt:instanceID>xmp.iid:72D50A456E9FE511B8D7D276CB64869C</stEvt:instanceID>
                  <stEvt:when>2015-12-10T13:46:05-05:00</stEvt:when>
                  <stEvt:softwareAgent>Adobe Audition CS6 (Windows)</stEvt:softwareAgent>
                  <stEvt:changed>/</stEvt:changed>
               </rdf:li>
               <rdf:li rdf:parseType="Resource">
                  <stEvt:action>saved</stEvt:action>
                  <stEvt:instanceID>xmp.iid:73D50A456E9FE511B8D7D276CB64869C</stEvt:instanceID>
                  <stEvt:when>2015-12-10T13:46:56-05:00</stEvt:when>
                  <stEvt:softwareAgent>Adobe Audition CS6 (Windows)</stEvt:softwareAgent>
                  <stEvt:changed>/metadata</stEvt:changed>
               </rdf:li>
               <rdf:li rdf:parseType="Resource">
                  <stEvt:action>saved</stEvt:action>
                  <stEvt:instanceID>xmp.iid:74D50A456E9FE511B8D7D276CB64869C</stEvt:instanceID>
                  <stEvt:when>2015-12-10T13:46:56-05:00</stEvt:when>
                  <stEvt:softwareAgent>Adobe Audition CS6 (Windows)</stEvt:softwareAgent>
                  <stEvt:changed>/</stEvt:changed>
               </rdf:li>
               <rdf:li rdf:parseType="Resource">
                  <stEvt:action>saved</stEvt:action>
                  <stEvt:instanceID>xmp.iid:79D50A456E9FE511B8D7D276CB64869C</stEvt:instanceID>
                  <stEvt:when>2015-12-10T13:58:30-05:00</stEvt:when>
                  <stEvt:softwareAgent>Adobe Audition CS6 (Windows)</stEvt:softwareAgent>
                  <stEvt:changed>/metadata</stEvt:changed>
               </rdf:li>
               <rdf:li rdf:parseType="Resource">
                  <stEvt:action>saved</stEvt:action>
                  <stEvt:instanceID>xmp.iid:7AD50A456E9FE511B8D7D276CB64869C</stEvt:instanceID>
                  <stEvt:when>2015-12-10T13:58:30-05:00</stEvt:when>
                  <stEvt:softwareAgent>Adobe Audition CS6 (Windows)</stEvt:softwareAgent>
                  <stEvt:changed>/</stEvt:changed>
               </rdf:li>
               <rdf:li rdf:parseType="Resource">
                  <stEvt:action>saved</stEvt:action>
                  <stEvt:instanceID>xmp.iid:840BE095709FE511B8D7D276CB64869C</stEvt:instanceID>
                  <stEvt:when>2015-12-10T14:02:40-05:00</stEvt:when>
                  <stEvt:softwareAgent>Adobe Audition CS6 (Windows)</stEvt:softwareAgent>
                  <stEvt:changed>/metadata</stEvt:changed>
               </rdf:li>
               <rdf:li rdf:parseType="Resource">
                  <stEvt:action>saved</stEvt:action>
                  <stEvt:instanceID>xmp.iid:850BE095709FE511B8D7D276CB64869C</stEvt:instanceID>
                  <stEvt:when>2015-12-10T14:02:40-05:00</stEvt:when>
                  <stEvt:softwareAgent>Adobe Audition CS6 (Windows)</stEvt:softwareAgent>
                  <stEvt:changed>/</stEvt:changed>
               </rdf:li>
               <rdf:li rdf:parseType="Resource">
                  <stEvt:action>saved</stEvt:action>
                  <stEvt:instanceID>xmp.iid:8A0BE095709FE511B8D7D276CB64869C</stEvt:instanceID>
                  <stEvt:when>2015-12-10T14:14:05-05:00</stEvt:when>
                  <stEvt:softwareAgent>Adobe Audition CS6 (Windows)</stEvt:softwareAgent>
                  <stEvt:changed>/metadata</stEvt:changed>
               </rdf:li>
               <rdf:li rdf:parseType="Resource">
                  <stEvt:action>saved</stEvt:action>
                  <stEvt:instanceID>xmp.iid:8B0BE095709FE511B8D7D276CB64869C</stEvt:instanceID>
                  <stEvt:when>2015-12-10T14:14:05-05:00</stEvt:when>
                  <stEvt:softwareAgent>Adobe Audition CS6 (Windows)</stEvt:softwareAgent>
                  <stEvt:changed>/</stEvt:changed>
               </rdf:li>
               <rdf:li rdf:parseType="Resource">
                  <stEvt:action>saved</stEvt:action>
                  <stEvt:instanceID>xmp.iid:8E0BE095709FE511B8D7D276CB64869C</stEvt:instanceID>
                  <stEvt:when>2015-12-10T14:14:53-05:00</stEvt:when>
                  <stEvt:softwareAgent>Adobe Audition CS6 (Windows)</stEvt:softwareAgent>
                  <stEvt:changed>/metadata</stEvt:changed>
               </rdf:li>
               <rdf:li rdf:parseType="Resource">
                  <stEvt:action>saved</stEvt:action>
                  <stEvt:instanceID>xmp.iid:F4CA154B729FE511B8D7D276CB64869C</stEvt:instanceID>
                  <stEvt:when>2015-12-10T14:14:53-05:00</stEvt:when>
                  <stEvt:softwareAgent>Adobe Audition CS6 (Windows)</stEvt:softwareAgent>
                  <stEvt:changed>/</stEvt:changed>
               </rdf:li>
               <rdf:li rdf:parseType="Resource">
                  <stEvt:action>saved</stEvt:action>
                  <stEvt:instanceID>xmp.iid:F7CA154B729FE511B8D7D276CB64869C</stEvt:instanceID>
                  <stEvt:when>2015-12-10T14:19-05:00</stEvt:when>
                  <stEvt:softwareAgent>Adobe Audition CS6 (Windows)</stEvt:softwareAgent>
                  <stEvt:changed>/metadata</stEvt:changed>
               </rdf:li>
               <rdf:li rdf:parseType="Resource">
                  <stEvt:action>saved</stEvt:action>
                  <stEvt:instanceID>xmp.iid:F8CA154B729FE511B8D7D276CB64869C</stEvt:instanceID>
                  <stEvt:when>2015-12-10T14:19-05:00</stEvt:when>
                  <stEvt:softwareAgent>Adobe Audition CS6 (Windows)</stEvt:softwareAgent>
                  <stEvt:changed>/</stEvt:changed>
               </rdf:li>
               <rdf:li rdf:parseType="Resource">
                  <stEvt:action>saved</stEvt:action>
                  <stEvt:instanceID>xmp.iid:FBCA154B729FE511B8D7D276CB64869C</stEvt:instanceID>
                  <stEvt:when>2015-12-10T14:22:10-05:00</stEvt:when>
                  <stEvt:softwareAgent>Adobe Audition CS6 (Windows)</stEvt:softwareAgent>
                  <stEvt:changed>/metadata</stEvt:changed>
               </rdf:li>
               <rdf:li rdf:parseType="Resource">
                  <stEvt:action>saved</stEvt:action>
                  <stEvt:instanceID>xmp.iid:FCCA154B729FE511B8D7D276CB64869C</stEvt:instanceID>
                  <stEvt:when>2015-12-10T14:22:10-05:00</stEvt:when>
                  <stEvt:softwareAgent>Adobe Audition CS6 (Windows)</stEvt:softwareAgent>
                  <stEvt:changed>/</stEvt:changed>
               </rdf:li>
               <rdf:li rdf:parseType="Resource">
                  <stEvt:action>saved</stEvt:action>
                  <stEvt:instanceID>xmp.iid:9CE36CBF739FE511B8D7D276CB64869C</stEvt:instanceID>
                  <stEvt:when>2015-12-10T14:25:18-05:00</stEvt:when>
                  <stEvt:softwareAgent>Adobe Audition CS6 (Windows)</stEvt:softwareAgent>
                  <stEvt:changed>/metadata</stEvt:changed>
               </rdf:li>
               <rdf:li rdf:parseType="Resource">
                  <stEvt:action>saved</stEvt:action>
                  <stEvt:instanceID>xmp.iid:9DE36CBF739FE511B8D7D276CB64869C</stEvt:instanceID>
                  <stEvt:when>2015-12-10T14:25:18-05:00</stEvt:when>
                  <stEvt:softwareAgent>Adobe Audition CS6 (Windows)</stEvt:softwareAgent>
                  <stEvt:changed>/</stEvt:changed>
               </rdf:li>
               <rdf:li rdf:parseType="Resource">
                  <stEvt:action>saved</stEvt:action>
                  <stEvt:instanceID>xmp.iid:A0E36CBF739FE511B8D7D276CB64869C</stEvt:instanceID>
                  <stEvt:when>2015-12-10T14:27:27-05:00</stEvt:when>
                  <stEvt:softwareAgent>Adobe Audition CS6 (Windows)</stEvt:softwareAgent>
                  <stEvt:changed>/metadata</stEvt:changed>
               </rdf:li>
               <rdf:li rdf:parseType="Resource">
                  <stEvt:action>saved</stEvt:action>
                  <stEvt:instanceID>xmp.iid:A1E36CBF739FE511B8D7D276CB64869C</stEvt:instanceID>
                  <stEvt:when>2015-12-10T14:27:27-05:00</stEvt:when>
                  <stEvt:softwareAgent>Adobe Audition CS6 (Windows)</stEvt:softwareAgent>
                  <stEvt:changed>/</stEvt:changed>
               </rdf:li>
               <rdf:li rdf:parseType="Resource">
                  <stEvt:action>saved</stEvt:action>
                  <stEvt:instanceID>xmp.iid:A4E36CBF739FE511B8D7D276CB64869C</stEvt:instanceID>
                  <stEvt:when>2015-12-10T14:31:37-05:00</stEvt:when>
                  <stEvt:softwareAgent>Adobe Audition CS6 (Windows)</stEvt:softwareAgent>
                  <stEvt:changed>/metadata</stEvt:changed>
               </rdf:li>
               <rdf:li rdf:parseType="Resource">
                  <stEvt:action>saved</stEvt:action>
                  <stEvt:instanceID>xmp.iid:A5E36CBF739FE511B8D7D276CB64869C</stEvt:instanceID>
                  <stEvt:when>2015-12-10T14:31:37-05:00</stEvt:when>
                  <stEvt:softwareAgent>Adobe Audition CS6 (Windows)</stEvt:softwareAgent>
                  <stEvt:changed>/</stEvt:changed>
               </rdf:li>
               <rdf:li rdf:parseType="Resource">
                  <stEvt:action>saved</stEvt:action>
                  <stEvt:instanceID>xmp.iid:E29F528B759FE511B8D7D276CB64869C</stEvt:instanceID>
                  <stEvt:when>2015-12-10T14:42:32-05:00</stEvt:when>
                  <stEvt:softwareAgent>Adobe Audition CS6 (Windows)</stEvt:softwareAgent>
                  <stEvt:changed>/metadata</stEvt:changed>
               </rdf:li>
               <rdf:li rdf:parseType="Resource">
                  <stEvt:action>saved</stEvt:action>
                  <stEvt:instanceID>xmp.iid:E39F528B759FE511B8D7D276CB64869C</stEvt:instanceID>
                  <stEvt:when>2015-12-10T14:42:32-05:00</stEvt:when>
                  <stEvt:softwareAgent>Adobe Audition CS6 (Windows)</stEvt:softwareAgent>
                  <stEvt:changed>/</stEvt:changed>
               </rdf:li>
               <rdf:li rdf:parseType="Resource">
                  <stEvt:action>saved</stEvt:action>
                  <stEvt:instanceID>xmp.iid:E69F528B759FE511B8D7D276CB64869C</stEvt:instanceID>
                  <stEvt:when>2015-12-10T14:46:15-05:00</stEvt:when>
                  <stEvt:softwareAgent>Adobe Audition CS6 (Windows)</stEvt:softwareAgent>
                  <stEvt:changed>/metadata</stEvt:changed>
               </rdf:li>
               <rdf:li rdf:parseType="Resource">
                  <stEvt:action>saved</stEvt:action>
                  <stEvt:instanceID>xmp.iid:E79F528B759FE511B8D7D276CB64869C</stEvt:instanceID>
                  <stEvt:when>2015-12-10T14:46:15-05:00</stEvt:when>
                  <stEvt:softwareAgent>Adobe Audition CS6 (Windows)</stEvt:softwareAgent>
                  <stEvt:changed>/</stEvt:changed>
               </rdf:li>
               <rdf:li rdf:parseType="Resource">
                  <stEvt:action>saved</stEvt:action>
                  <stEvt:instanceID>xmp.iid:E89F528B759FE511B8D7D276CB64869C</stEvt:instanceID>
                  <stEvt:when>2015-12-10T14:48:28-05:00</stEvt:when>
                  <stEvt:softwareAgent>Adobe Audition CS6 (Windows)</stEvt:softwareAgent>
                  <stEvt:changed>/metadata</stEvt:changed>
               </rdf:li>
               <rdf:li rdf:parseType="Resource">
                  <stEvt:action>saved</stEvt:action>
                  <stEvt:instanceID>xmp.iid:E99F528B759FE511B8D7D276CB64869C</stEvt:instanceID>
                  <stEvt:when>2015-12-10T14:48:28-05:00</stEvt:when>
                  <stEvt:softwareAgent>Adobe Audition CS6 (Windows)</stEvt:softwareAgent>
                  <stEvt:changed>/</stEvt:changed>
               </rdf:li>
               <rdf:li rdf:parseType="Resource">
                  <stEvt:action>saved</stEvt:action>
                  <stEvt:instanceID>xmp.iid:D3316920779FE511B8D7D276CB64869C</stEvt:instanceID>
                  <stEvt:when>2015-12-10T14:49:29-05:00</stEvt:when>
                  <stEvt:softwareAgent>Adobe Audition CS6 (Windows)</stEvt:softwareAgent>
                  <stEvt:changed>/metadata</stEvt:changed>
               </rdf:li>
               <rdf:li rdf:parseType="Resource">
                  <stEvt:action>saved</stEvt:action>
                  <stEvt:instanceID>xmp.iid:D4316920779FE511B8D7D276CB64869C</stEvt:instanceID>
                  <stEvt:when>2015-12-10T14:49:29-05:00</stEvt:when>
                  <stEvt:softwareAgent>Adobe Audition CS6 (Windows)</stEvt:softwareAgent>
                  <stEvt:changed>/</stEvt:changed>
               </rdf:li>
               <rdf:li rdf:parseType="Resource">
                  <stEvt:action>saved</stEvt:action>
                  <stEvt:instanceID>xmp.iid:D7316920779FE511B8D7D276CB64869C</stEvt:instanceID>
                  <stEvt:when>2015-12-10T14:53:36-05:00</stEvt:when>
                  <stEvt:softwareAgent>Adobe Audition CS6 (Windows)</stEvt:softwareAgent>
                  <stEvt:changed>/metadata</stEvt:changed>
               </rdf:li>
               <rdf:li rdf:parseType="Resource">
                  <stEvt:action>saved</stEvt:action>
                  <stEvt:instanceID>xmp.iid:D8316920779FE511B8D7D276CB64869C</stEvt:instanceID>
                  <stEvt:when>2015-12-10T14:53:36-05:00</stEvt:when>
                  <stEvt:softwareAgent>Adobe Audition CS6 (Windows)</stEvt:softwareAgent>
                  <stEvt:changed>/</stEvt:changed>
               </rdf:li>
               <rdf:li rdf:parseType="Resource">
                  <stEvt:action>saved</stEvt:action>
                  <stEvt:instanceID>xmp.iid:DB316920779FE511B8D7D276CB64869C</stEvt:instanceID>
                  <stEvt:when>2015-12-10T14:54:52-05:00</stEvt:when>
                  <stEvt:softwareAgent>Adobe Audition CS6 (Windows)</stEvt:softwareAgent>
                  <stEvt:changed>/metadata</stEvt:changed>
               </rdf:li>
               <rdf:li rdf:parseType="Resource">
                  <stEvt:action>saved</stEvt:action>
                  <stEvt:instanceID>xmp.iid:DC316920779FE511B8D7D276CB64869C</stEvt:instanceID>
                  <stEvt:when>2015-12-10T14:54:52-05:00</stEvt:when>
                  <stEvt:softwareAgent>Adobe Audition CS6 (Windows)</stEvt:softwareAgent>
                  <stEvt:changed>/</stEvt:changed>
               </rdf:li>
               <rdf:li rdf:parseType="Resource">
                  <stEvt:action>saved</stEvt:action>
                  <stEvt:instanceID>xmp.iid:DD316920779FE511B8D7D276CB64869C</stEvt:instanceID>
                  <stEvt:when>2015-12-10T14:56:44-05:00</stEvt:when>
                  <stEvt:softwareAgent>Adobe Audition CS6 (Windows)</stEvt:softwareAgent>
                  <stEvt:changed>/metadata</stEvt:changed>
               </rdf:li>
               <rdf:li rdf:parseType="Resource">
                  <stEvt:action>saved</stEvt:action>
                  <stEvt:instanceID>xmp.iid:0B66B523789FE511B8D7D276CB64869C</stEvt:instanceID>
                  <stEvt:when>2015-12-10T14:56:44-05:00</stEvt:when>
                  <stEvt:softwareAgent>Adobe Audition CS6 (Windows)</stEvt:softwareAgent>
                  <stEvt:changed>/</stEvt:changed>
               </rdf:li>
               <rdf:li rdf:parseType="Resource">
                  <stEvt:action>saved</stEvt:action>
                  <stEvt:instanceID>xmp.iid:0E66B523789FE511B8D7D276CB64869C</stEvt:instanceID>
                  <stEvt:when>2015-12-10T14:59:59-05:00</stEvt:when>
                  <stEvt:softwareAgent>Adobe Audition CS6 (Windows)</stEvt:softwareAgent>
                  <stEvt:changed>/metadata</stEvt:changed>
               </rdf:li>
               <rdf:li rdf:parseType="Resource">
                  <stEvt:action>saved</stEvt:action>
                  <stEvt:instanceID>xmp.iid:0F66B523789FE511B8D7D276CB64869C</stEvt:instanceID>
                  <stEvt:when>2015-12-10T14:59:59-05:00</stEvt:when>
                  <stEvt:softwareAgent>Adobe Audition CS6 (Windows)</stEvt:softwareAgent>
                  <stEvt:changed>/</stEvt:changed>
               </rdf:li>
               <rdf:li rdf:parseType="Resource">
                  <stEvt:action>saved</stEvt:action>
                  <stEvt:instanceID>xmp.iid:1066B523789FE511B8D7D276CB64869C</stEvt:instanceID>
                  <stEvt:when>2015-12-10T15:27:57-05:00</stEvt:when>
                  <stEvt:softwareAgent>Adobe Audition CS6 (Windows)</stEvt:softwareAgent>
                  <stEvt:changed>/metadata</stEvt:changed>
               </rdf:li>
               <rdf:li rdf:parseType="Resource">
                  <stEvt:action>saved</stEvt:action>
                  <stEvt:instanceID>xmp.iid:1166B523789FE511B8D7D276CB64869C</stEvt:instanceID>
                  <stEvt:when>2015-12-10T15:27:57-05:00</stEvt:when>
                  <stEvt:softwareAgent>Adobe Audition CS6 (Windows)</stEvt:softwareAgent>
                  <stEvt:changed>/</stEvt:changed>
               </rdf:li>
               <rdf:li rdf:parseType="Resource">
                  <stEvt:action>saved</stEvt:action>
                  <stEvt:instanceID>xmp.iid:1266B523789FE511B8D7D276CB64869C</stEvt:instanceID>
                  <stEvt:when>2015-12-10T15:36:37-05:00</stEvt:when>
                  <stEvt:softwareAgent>Adobe Audition CS6 (Windows)</stEvt:softwareAgent>
                  <stEvt:changed>/metadata</stEvt:changed>
               </rdf:li>
               <rdf:li rdf:parseType="Resource">
                  <stEvt:action>saved</stEvt:action>
                  <stEvt:instanceID>xmp.iid:1366B523789FE511B8D7D276CB64869C</stEvt:instanceID>
                  <stEvt:when>2015-12-10T15:36:37-05:00</stEvt:when>
                  <stEvt:softwareAgent>Adobe Audition CS6 (Windows)</stEvt:softwareAgent>
                  <stEvt:changed>/</stEvt:changed>
               </rdf:li>
               <rdf:li rdf:parseType="Resource">
                  <stEvt:action>saved</stEvt:action>
                  <stEvt:instanceID>xmp.iid:132AC6937E9FE511B8D7D276CB64869C</stEvt:instanceID>
                  <stEvt:when>2015-12-10T15:42:49-05:00</stEvt:when>
                  <stEvt:softwareAgent>Adobe Audition CS6 (Windows)</stEvt:softwareAgent>
                  <stEvt:changed>/metadata</stEvt:changed>
               </rdf:li>
               <rdf:li rdf:parseType="Resource">
                  <stEvt:action>saved</stEvt:action>
                  <stEvt:instanceID>xmp.iid:142AC6937E9FE511B8D7D276CB64869C</stEvt:instanceID>
                  <stEvt:when>2015-12-10T15:42:49-05:00</stEvt:when>
                  <stEvt:softwareAgent>Adobe Audition CS6 (Windows)</stEvt:softwareAgent>
                  <stEvt:changed>/</stEvt:changed>
               </rdf:li>
               <rdf:li rdf:parseType="Resource">
                  <stEvt:action>saved</stEvt:action>
                  <stEvt:instanceID>xmp.iid:152AC6937E9FE511B8D7D276CB64869C</stEvt:instanceID>
                  <stEvt:when>2015-12-10T15:49:44-05:00</stEvt:when>
                  <stEvt:softwareAgent>Adobe Audition CS6 (Windows)</stEvt:softwareAgent>
                  <stEvt:changed>/metadata</stEvt:changed>
               </rdf:li>
               <rdf:li rdf:parseType="Resource">
                  <stEvt:action>saved</stEvt:action>
                  <stEvt:instanceID>xmp.iid:162AC6937E9FE511B8D7D276CB64869C</stEvt:instanceID>
                  <stEvt:when>2015-12-10T15:49:44-05:00</stEvt:when>
                  <stEvt:softwareAgent>Adobe Audition CS6 (Windows)</stEvt:softwareAgent>
                  <stEvt:changed>/</stEvt:changed>
               </rdf:li>
               <rdf:li rdf:parseType="Resource">
                  <stEvt:action>saved</stEvt:action>
                  <stEvt:instanceID>xmp.iid:172AC6937E9FE511B8D7D276CB64869C</stEvt:instanceID>
                  <stEvt:when>2015-12-10T15:53:12-05:00</stEvt:when>
                  <stEvt:softwareAgent>Adobe Audition CS6 (Windows)</stEvt:softwareAgent>
                  <stEvt:changed>/metadata</stEvt:changed>
               </rdf:li>
               <rdf:li rdf:parseType="Resource">
                  <stEvt:action>saved</stEvt:action>
                  <stEvt:instanceID>xmp.iid:182AC6937E9FE511B8D7D276CB64869C</stEvt:instanceID>
                  <stEvt:when>2015-12-10T15:53:12-05:00</stEvt:when>
                  <stEvt:softwareAgent>Adobe Audition CS6 (Windows)</stEvt:softwareAgent>
                  <stEvt:changed>/</stEvt:changed>
               </rdf:li>
               <rdf:li rdf:parseType="Resource">
                  <stEvt:action>saved</stEvt:action>
                  <stEvt:instanceID>xmp.iid:192AC6937E9FE511B8D7D276CB64869C</stEvt:instanceID>
                  <stEvt:when>2015-12-10T15:55:39-05:00</stEvt:when>
                  <stEvt:softwareAgent>Adobe Audition CS6 (Windows)</stEvt:softwareAgent>
                  <stEvt:changed>/metadata</stEvt:changed>
               </rdf:li>
               <rdf:li rdf:parseType="Resource">
                  <stEvt:action>saved</stEvt:action>
                  <stEvt:instanceID>xmp.iid:1A2AC6937E9FE511B8D7D276CB64869C</stEvt:instanceID>
                  <stEvt:when>2015-12-10T15:55:39-05:00</stEvt:when>
                  <stEvt:softwareAgent>Adobe Audition CS6 (Windows)</stEvt:softwareAgent>
                  <stEvt:changed>/</stEvt:changed>
               </rdf:li>
               <rdf:li rdf:parseType="Resource">
                  <stEvt:action>saved</stEvt:action>
                  <stEvt:instanceID>xmp.iid:1B2AC6937E9FE511B8D7D276CB64869C</stEvt:instanceID>
                  <stEvt:when>2015-12-10T15:58:12-05:00</stEvt:when>
                  <stEvt:softwareAgent>Adobe Audition CS6 (Windows)</stEvt:softwareAgent>
                  <stEvt:changed>/metadata</stEvt:changed>
               </rdf:li>
               <rdf:li rdf:parseType="Resource">
                  <stEvt:action>saved</stEvt:action>
                  <stEvt:instanceID>xmp.iid:1C2AC6937E9FE511B8D7D276CB64869C</stEvt:instanceID>
                  <stEvt:when>2015-12-10T15:58:12-05:00</stEvt:when>
                  <stEvt:softwareAgent>Adobe Audition CS6 (Windows)</stEvt:softwareAgent>
                  <stEvt:changed>/</stEvt:changed>
               </rdf:li>
               <rdf:li rdf:parseType="Resource">
                  <stEvt:action>saved</stEvt:action>
                  <stEvt:instanceID>xmp.iid:1D2AC6937E9FE511B8D7D276CB64869C</stEvt:instanceID>
                  <stEvt:when>2015-12-10T15:59:32-05:00</stEvt:when>
                  <stEvt:softwareAgent>Adobe Audition CS6 (Windows)</stEvt:softwareAgent>
                  <stEvt:changed>/metadata</stEvt:changed>
               </rdf:li>
               <rdf:li rdf:parseType="Resource">
                  <stEvt:action>saved</stEvt:action>
                  <stEvt:instanceID>xmp.iid:80FF23E9809FE511B8D7D276CB64869C</stEvt:instanceID>
                  <stEvt:when>2015-12-10T15:59:32-05:00</stEvt:when>
                  <stEvt:softwareAgent>Adobe Audition CS6 (Windows)</stEvt:softwareAgent>
                  <stEvt:changed>/</stEvt:changed>
               </rdf:li>
               <rdf:li rdf:parseType="Resource">
                  <stEvt:action>saved</stEvt:action>
                  <stEvt:instanceID>xmp.iid:81FF23E9809FE511B8D7D276CB64869C</stEvt:instanceID>
                  <stEvt:when>2015-12-10T16:00:12-05:00</stEvt:when>
                  <stEvt:softwareAgent>Adobe Audition CS6 (Windows)</stEvt:softwareAgent>
                  <stEvt:changed>/metadata</stEvt:changed>
               </rdf:li>
               <rdf:li rdf:parseType="Resource">
                  <stEvt:action>saved</stEvt:action>
                  <stEvt:instanceID>xmp.iid:82FF23E9809FE511B8D7D276CB64869C</stEvt:instanceID>
                  <stEvt:when>2015-12-10T16:00:12-05:00</stEvt:when>
                  <stEvt:softwareAgent>Adobe Audition CS6 (Windows)</stEvt:softwareAgent>
                  <stEvt:changed>/</stEvt:changed>
               </rdf:li>
               <rdf:li rdf:parseType="Resource">
                  <stEvt:action>saved</stEvt:action>
                  <stEvt:instanceID>xmp.iid:8B25B0C84EA0E511862DE91766F5DB42</stEvt:instanceID>
                  <stEvt:when>2015-12-11T16:33:19-05:00</stEvt:when>
                  <stEvt:softwareAgent>Adobe Audition CS6 (Windows)</stEvt:softwareAgent>
                  <stEvt:changed>/metadata</stEvt:changed>
               </rdf:li>
               <rdf:li rdf:parseType="Resource">
                  <stEvt:action>saved</stEvt:action>
                  <stEvt:instanceID>xmp.iid:8C25B0C84EA0E511862DE91766F5DB42</stEvt:instanceID>
                  <stEvt:when>2015-12-11T16:33:19-05:00</stEvt:when>
                  <stEvt:softwareAgent>Adobe Audition CS6 (Windows)</stEvt:softwareAgent>
                  <stEvt:changed>/</stEvt:changed>
               </rdf:li>
               <rdf:li rdf:parseType="Resource">
                  <stEvt:action>saved</stEvt:action>
                  <stEvt:instanceID>xmp.iid:55AABA2551A0E511862DE91766F5DB42</stEvt:instanceID>
                  <stEvt:when>2015-12-11T16:50:09-05:00</stEvt:when>
                  <stEvt:softwareAgent>Adobe Audition CS6 (Windows)</stEvt:softwareAgent>
                  <stEvt:changed>/metadata</stEvt:changed>
               </rdf:li>
               <rdf:li rdf:parseType="Resource">
                  <stEvt:action>saved</stEvt:action>
                  <stEvt:instanceID>xmp.iid:56AABA2551A0E511862DE91766F5DB42</stEvt:instanceID>
                  <stEvt:when>2015-12-11T16:50:09-05:00</stEvt:when>
                  <stEvt:softwareAgent>Adobe Audition CS6 (Windows)</stEvt:softwareAgent>
                  <stEvt:changed>/</stEvt:changed>
               </rdf:li>
               <rdf:li rdf:parseType="Resource">
                  <stEvt:action>saved</stEvt:action>
                  <stEvt:instanceID>xmp.iid:54A385DB51A0E511862DE91766F5DB42</stEvt:instanceID>
                  <stEvt:when>2015-12-11T16:55:19-05:00</stEvt:when>
                  <stEvt:softwareAgent>Adobe Audition CS6 (Windows)</stEvt:softwareAgent>
                  <stEvt:changed>/metadata</stEvt:changed>
               </rdf:li>
               <rdf:li rdf:parseType="Resource">
                  <stEvt:action>saved</stEvt:action>
                  <stEvt:instanceID>xmp.iid:55A385DB51A0E511862DE91766F5DB42</stEvt:instanceID>
                  <stEvt:when>2015-12-11T16:55:19-05:00</stEvt:when>
                  <stEvt:softwareAgent>Adobe Audition CS6 (Windows)</stEvt:softwareAgent>
                  <stEvt:changed>/</stEvt:changed>
               </rdf:li>
               <rdf:li rdf:parseType="Resource">
                  <stEvt:action>saved</stEvt:action>
                  <stEvt:instanceID>xmp.iid:5AA385DB51A0E511862DE91766F5DB42</stEvt:instanceID>
                  <stEvt:when>2015-12-11T16:56:17-05:00</stEvt:when>
                  <stEvt:softwareAgent>Adobe Audition CS6 (Windows)</stEvt:softwareAgent>
                  <stEvt:changed>/metadata</stEvt:changed>
               </rdf:li>
               <rdf:li rdf:parseType="Resource">
                  <stEvt:action>saved</stEvt:action>
                  <stEvt:instanceID>xmp.iid:24A5970152A0E511862DE91766F5DB42</stEvt:instanceID>
                  <stEvt:when>2015-12-11T16:56:17-05:00</stEvt:when>
                  <stEvt:softwareAgent>Adobe Audition CS6 (Windows)</stEvt:softwareAgent>
                  <stEvt:changed>/</stEvt:changed>
               </rdf:li>
               <rdf:li rdf:parseType="Resource">
                  <stEvt:action>saved</stEvt:action>
                  <stEvt:instanceID>xmp.iid:29A5970152A0E511862DE91766F5DB42</stEvt:instanceID>
                  <stEvt:when>2015-12-11T16:57:17-05:00</stEvt:when>
                  <stEvt:softwareAgent>Adobe Audition CS6 (Windows)</stEvt:softwareAgent>
                  <stEvt:changed>/metadata</stEvt:changed>
               </rdf:li>
               <rdf:li rdf:parseType="Resource">
                  <stEvt:action>saved</stEvt:action>
                  <stEvt:instanceID>xmp.iid:2AA5970152A0E511862DE91766F5DB42</stEvt:instanceID>
                  <stEvt:when>2015-12-11T16:57:17-05:00</stEvt:when>
                  <stEvt:softwareAgent>Adobe Audition CS6 (Windows)</stEvt:softwareAgent>
                  <stEvt:changed>/</stEvt:changed>
               </rdf:li>
               <rdf:li rdf:parseType="Resource">
                  <stEvt:action>saved</stEvt:action>
                  <stEvt:instanceID>xmp.iid:C43532CE52A0E511862DE91766F5DB42</stEvt:instanceID>
                  <stEvt:when>2015-12-11T17:02:01-05:00</stEvt:when>
                  <stEvt:softwareAgent>Adobe Audition CS6 (Windows)</stEvt:softwareAgent>
                  <stEvt:changed>/metadata</stEvt:changed>
               </rdf:li>
               <rdf:li rdf:parseType="Resource">
                  <stEvt:action>saved</stEvt:action>
                  <stEvt:instanceID>xmp.iid:C53532CE52A0E511862DE91766F5DB42</stEvt:instanceID>
                  <stEvt:when>2015-12-11T17:02:01-05:00</stEvt:when>
                  <stEvt:softwareAgent>Adobe Audition CS6 (Windows)</stEvt:softwareAgent>
                  <stEvt:changed>/</stEvt:changed>
               </rdf:li>
               <rdf:li rdf:parseType="Resource">
                  <stEvt:action>saved</stEvt:action>
                  <stEvt:instanceID>xmp.iid:C83532CE52A0E511862DE91766F5DB42</stEvt:instanceID>
                  <stEvt:when>2015-12-11T17:05:35-05:00</stEvt:when>
                  <stEvt:softwareAgent>Adobe Audition CS6 (Windows)</stEvt:softwareAgent>
                  <stEvt:changed>/metadata</stEvt:changed>
               </rdf:li>
               <rdf:li rdf:parseType="Resource">
                  <stEvt:action>saved</stEvt:action>
                  <stEvt:instanceID>xmp.iid:C93532CE52A0E511862DE91766F5DB42</stEvt:instanceID>
                  <stEvt:when>2015-12-11T17:05:35-05:00</stEvt:when>
                  <stEvt:softwareAgent>Adobe Audition CS6 (Windows)</stEvt:softwareAgent>
                  <stEvt:changed>/</stEvt:changed>
               </rdf:li>
               <rdf:li rdf:parseType="Resource">
                  <stEvt:action>saved</stEvt:action>
                  <stEvt:instanceID>xmp.iid:CA3532CE52A0E511862DE91766F5DB42</stEvt:instanceID>
                  <stEvt:when>2015-12-11T17:05:45-05:00</stEvt:when>
                  <stEvt:softwareAgent>Adobe Audition CS6 (Windows)</stEvt:softwareAgent>
                  <stEvt:changed>/metadata</stEvt:changed>
               </rdf:li>
               <rdf:li rdf:parseType="Resource">
                  <stEvt:action>saved</stEvt:action>
                  <stEvt:instanceID>xmp.iid:CB3532CE52A0E511862DE91766F5DB42</stEvt:instanceID>
                  <stEvt:when>2015-12-11T17:05:45-05:00</stEvt:when>
                  <stEvt:softwareAgent>Adobe Audition CS6 (Windows)</stEvt:softwareAgent>
                  <stEvt:changed>/</stEvt:changed>
               </rdf:li>
               <rdf:li rdf:parseType="Resource">
                  <stEvt:action>saved</stEvt:action>
                  <stEvt:instanceID>xmp.iid:D8CE209C53A0E511862DE91766F5DB42</stEvt:instanceID>
                  <stEvt:when>2015-12-11T17:10:52-05:00</stEvt:when>
                  <stEvt:softwareAgent>Adobe Audition CS6 (Windows)</stEvt:softwareAgent>
                  <stEvt:changed>/metadata</stEvt:changed>
               </rdf:li>
               <rdf:li rdf:parseType="Resource">
                  <stEvt:action>saved</stEvt:action>
                  <stEvt:instanceID>xmp.iid:D9CE209C53A0E511862DE91766F5DB42</stEvt:instanceID>
                  <stEvt:when>2015-12-11T17:10:52-05:00</stEvt:when>
                  <stEvt:softwareAgent>Adobe Audition CS6 (Windows)</stEvt:softwareAgent>
                  <stEvt:changed>/</stEvt:changed>
               </rdf:li>
               <rdf:li rdf:parseType="Resource">
                  <stEvt:action>saved</stEvt:action>
                  <stEvt:instanceID>xmp.iid:DECE209C53A0E511862DE91766F5DB42</stEvt:instanceID>
                  <stEvt:when>2015-12-11T17:11:35-05:00</stEvt:when>
                  <stEvt:softwareAgent>Adobe Audition CS6 (Windows)</stEvt:softwareAgent>
                  <stEvt:changed>/metadata</stEvt:changed>
               </rdf:li>
               <rdf:li rdf:parseType="Resource">
                  <stEvt:action>saved</stEvt:action>
                  <stEvt:instanceID>xmp.iid:DFCE209C53A0E511862DE91766F5DB42</stEvt:instanceID>
                  <stEvt:when>2015-12-11T17:11:35-05:00</stEvt:when>
                  <stEvt:softwareAgent>Adobe Audition CS6 (Windows)</stEvt:softwareAgent>
                  <stEvt:changed>/</stEvt:changed>
               </rdf:li>
               <rdf:li rdf:parseType="Resource">
                  <stEvt:action>saved</stEvt:action>
                  <stEvt:instanceID>xmp.iid:B3EB502654A0E511862DE91766F5DB42</stEvt:instanceID>
                  <stEvt:when>2015-12-11T17:20:20-05:00</stEvt:when>
                  <stEvt:softwareAgent>Adobe Audition CS6 (Windows)</stEvt:softwareAgent>
                  <stEvt:changed>/metadata</stEvt:changed>
               </rdf:li>
               <rdf:li rdf:parseType="Resource">
                  <stEvt:action>saved</stEvt:action>
                  <stEvt:instanceID>xmp.iid:B4EB502654A0E511862DE91766F5DB42</stEvt:instanceID>
                  <stEvt:when>2015-12-11T17:20:20-05:00</stEvt:when>
                  <stEvt:softwareAgent>Adobe Audition CS6 (Windows)</stEvt:softwareAgent>
                  <stEvt:changed>/</stEvt:changed>
               </rdf:li>
               <rdf:li rdf:parseType="Resource">
                  <stEvt:action>saved</stEvt:action>
                  <stEvt:instanceID>xmp.iid:E7E7249656A0E5118362FEA304A70D8C</stEvt:instanceID>
                  <stEvt:when>2015-12-11T17:29:10-05:00</stEvt:when>
                  <stEvt:softwareAgent>Adobe Audition CS6 (Windows)</stEvt:softwareAgent>
                  <stEvt:changed>/metadata</stEvt:changed>
               </rdf:li>
               <rdf:li rdf:parseType="Resource">
                  <stEvt:action>saved</stEvt:action>
                  <stEvt:instanceID>xmp.iid:E8E7249656A0E5118362FEA304A70D8C</stEvt:instanceID>
                  <stEvt:when>2015-12-11T17:29:10-05:00</stEvt:when>
                  <stEvt:softwareAgent>Adobe Audition CS6 (Windows)</stEvt:softwareAgent>
                  <stEvt:changed>/</stEvt:changed>
               </rdf:li>
               <rdf:li rdf:parseType="Resource">
                  <stEvt:action>saved</stEvt:action>
                  <stEvt:instanceID>xmp.iid:4AF344FC56A0E5118362FEA304A70D8C</stEvt:instanceID>
                  <stEvt:when>2015-12-11T17:31:56-05:00</stEvt:when>
                  <stEvt:softwareAgent>Adobe Audition CS6 (Windows)</stEvt:softwareAgent>
                  <stEvt:changed>/metadata</stEvt:changed>
               </rdf:li>
               <rdf:li rdf:parseType="Resource">
                  <stEvt:action>saved</stEvt:action>
                  <stEvt:instanceID>xmp.iid:4BF344FC56A0E5118362FEA304A70D8C</stEvt:instanceID>
                  <stEvt:when>2015-12-11T17:31:56-05:00</stEvt:when>
                  <stEvt:softwareAgent>Adobe Audition CS6 (Windows)</stEvt:softwareAgent>
                  <stEvt:changed>/</stEvt:changed>
               </rdf:li>
               <rdf:li rdf:parseType="Resource">
                  <stEvt:action>saved</stEvt:action>
                  <stEvt:instanceID>xmp.iid:4CF344FC56A0E5118362FEA304A70D8C</stEvt:instanceID>
                  <stEvt:when>2015-12-11T17:32:12-05:00</stEvt:when>
                  <stEvt:softwareAgent>Adobe Audition CS6 (Windows)</stEvt:softwareAgent>
                  <stEvt:changed>/metadata</stEvt:changed>
               </rdf:li>
               <rdf:li rdf:parseType="Resource">
                  <stEvt:action>saved</stEvt:action>
                  <stEvt:instanceID>xmp.iid:4DF344FC56A0E5118362FEA304A70D8C</stEvt:instanceID>
                  <stEvt:when>2015-12-11T17:32:12-05:00</stEvt:when>
                  <stEvt:softwareAgent>Adobe Audition CS6 (Windows)</stEvt:softwareAgent>
                  <stEvt:changed>/</stEvt:changed>
               </rdf:li>
               <rdf:li rdf:parseType="Resource">
                  <stEvt:action>saved</stEvt:action>
                  <stEvt:instanceID>xmp.iid:4EF344FC56A0E5118362FEA304A70D8C</stEvt:instanceID>
                  <stEvt:when>2015-12-11T17:35:53-05:00</stEvt:when>
                  <stEvt:softwareAgent>Adobe Audition CS6 (Windows)</stEvt:softwareAgent>
                  <stEvt:changed>/metadata</stEvt:changed>
               </rdf:li>
               <rdf:li rdf:parseType="Resource">
                  <stEvt:action>saved</stEvt:action>
                  <stEvt:instanceID>xmp.iid:4FF344FC56A0E5118362FEA304A70D8C</stEvt:instanceID>
                  <stEvt:when>2015-12-11T17:35:53-05:00</stEvt:when>
                  <stEvt:softwareAgent>Adobe Audition CS6 (Windows)</stEvt:softwareAgent>
                  <stEvt:changed>/</stEvt:changed>
               </rdf:li>
               <rdf:li rdf:parseType="Resource">
                  <stEvt:action>saved</stEvt:action>
                  <stEvt:instanceID>xmp.iid:50F344FC56A0E5118362FEA304A70D8C</stEvt:instanceID>
                  <stEvt:when>2015-12-11T17:44:46-05:00</stEvt:when>
                  <stEvt:softwareAgent>Adobe Audition CS6 (Windows)</stEvt:softwareAgent>
                  <stEvt:changed>/metadata</stEvt:changed>
               </rdf:li>
               <rdf:li rdf:parseType="Resource">
                  <stEvt:action>saved</stEvt:action>
                  <stEvt:instanceID>xmp.iid:51F344FC56A0E5118362FEA304A70D8C</stEvt:instanceID>
                  <stEvt:when>2015-12-11T17:44:46-05:00</stEvt:when>
                  <stEvt:softwareAgent>Adobe Audition CS6 (Windows)</stEvt:softwareAgent>
                  <stEvt:changed>/</stEvt:changed>
               </rdf:li>
               <rdf:li rdf:parseType="Resource">
                  <stEvt:action>saved</stEvt:action>
                  <stEvt:instanceID>xmp.iid:52F344FC56A0E5118362FEA304A70D8C</stEvt:instanceID>
                  <stEvt:when>2015-12-11T21:53:26-05:00</stEvt:when>
                  <stEvt:softwareAgent>Adobe Audition CS6 (Windows)</stEvt:softwareAgent>
                  <stEvt:changed>/metadata</stEvt:changed>
               </rdf:li>
               <rdf:li rdf:parseType="Resource">
                  <stEvt:action>saved</stEvt:action>
                  <stEvt:instanceID>xmp.iid:53F344FC56A0E5118362FEA304A70D8C</stEvt:instanceID>
                  <stEvt:when>2015-12-11T21:53:26-05:00</stEvt:when>
                  <stEvt:softwareAgent>Adobe Audition CS6 (Windows)</stEvt:softwareAgent>
                  <stEvt:changed>/</stEvt:changed>
               </rdf:li>
               <rdf:li rdf:parseType="Resource">
                  <stEvt:action>saved</stEvt:action>
                  <stEvt:instanceID>xmp.iid:54F344FC56A0E5118362FEA304A70D8C</stEvt:instanceID>
                  <stEvt:when>2015-12-11T22:04:29-05:00</stEvt:when>
                  <stEvt:softwareAgent>Adobe Audition CS6 (Windows)</stEvt:softwareAgent>
                  <stEvt:changed>/metadata</stEvt:changed>
               </rdf:li>
               <rdf:li rdf:parseType="Resource">
                  <stEvt:action>saved</stEvt:action>
                  <stEvt:instanceID>xmp.iid:DCD65A0F7DA0E5118362FEA304A70D8C</stEvt:instanceID>
                  <stEvt:when>2015-12-11T22:04:29-05:00</stEvt:when>
                  <stEvt:softwareAgent>Adobe Audition CS6 (Windows)</stEvt:softwareAgent>
                  <stEvt:changed>/</stEvt:changed>
               </rdf:li>
               <rdf:li rdf:parseType="Resource">
                  <stEvt:action>saved</stEvt:action>
                  <stEvt:instanceID>xmp.iid:DFD65A0F7DA0E5118362FEA304A70D8C</stEvt:instanceID>
                  <stEvt:when>2015-12-11T22:15:01-05:00</stEvt:when>
                  <stEvt:softwareAgent>Adobe Audition CS6 (Windows)</stEvt:softwareAgent>
                  <stEvt:changed>/metadata</stEvt:changed>
               </rdf:li>
               <rdf:li rdf:parseType="Resource">
                  <stEvt:action>saved</stEvt:action>
                  <stEvt:instanceID>xmp.iid:E0D65A0F7DA0E5118362FEA304A70D8C</stEvt:instanceID>
                  <stEvt:when>2015-12-11T22:15:01-05:00</stEvt:when>
                  <stEvt:softwareAgent>Adobe Audition CS6 (Windows)</stEvt:softwareAgent>
                  <stEvt:changed>/</stEvt:changed>
               </rdf:li>
               <rdf:li rdf:parseType="Resource">
                  <stEvt:action>saved</stEvt:action>
                  <stEvt:instanceID>xmp.iid:E1D65A0F7DA0E5118362FEA304A70D8C</stEvt:instanceID>
                  <stEvt:when>2015-12-11T22:25:34-05:00</stEvt:when>
                  <stEvt:softwareAgent>Adobe Audition CS6 (Windows)</stEvt:softwareAgent>
                  <stEvt:changed>/metadata</stEvt:changed>
               </rdf:li>
               <rdf:li rdf:parseType="Resource">
                  <stEvt:action>saved</stEvt:action>
                  <stEvt:instanceID>xmp.iid:E2D65A0F7DA0E5118362FEA304A70D8C</stEvt:instanceID>
                  <stEvt:when>2015-12-11T22:25:34-05:00</stEvt:when>
                  <stEvt:softwareAgent>Adobe Audition CS6 (Windows)</stEvt:softwareAgent>
                  <stEvt:changed>/</stEvt:changed>
               </rdf:li>
               <rdf:li rdf:parseType="Resource">
                  <stEvt:action>saved</stEvt:action>
                  <stEvt:instanceID>xmp.iid:E3D65A0F7DA0E5118362FEA304A70D8C</stEvt:instanceID>
                  <stEvt:when>2015-12-11T22:40:05-05:00</stEvt:when>
                  <stEvt:softwareAgent>Adobe Audition CS6 (Windows)</stEvt:softwareAgent>
                  <stEvt:changed>/metadata</stEvt:changed>
               </rdf:li>
               <rdf:li rdf:parseType="Resource">
                  <stEvt:action>saved</stEvt:action>
                  <stEvt:instanceID>xmp.iid:E4D65A0F7DA0E5118362FEA304A70D8C</stEvt:instanceID>
                  <stEvt:when>2015-12-11T22:40:05-05:00</stEvt:when>
                  <stEvt:softwareAgent>Adobe Audition CS6 (Windows)</stEvt:softwareAgent>
                  <stEvt:changed>/</stEvt:changed>
               </rdf:li>
               <rdf:li rdf:parseType="Resource">
                  <stEvt:action>saved</stEvt:action>
                  <stEvt:instanceID>xmp.iid:E5D65A0F7DA0E5118362FEA304A70D8C</stEvt:instanceID>
                  <stEvt:when>2015-12-11T22:52:06-05:00</stEvt:when>
                  <stEvt:softwareAgent>Adobe Audition CS6 (Windows)</stEvt:softwareAgent>
                  <stEvt:changed>/metadata</stEvt:changed>
               </rdf:li>
               <rdf:li rdf:parseType="Resource">
                  <stEvt:action>saved</stEvt:action>
                  <stEvt:instanceID>xmp.iid:E6D65A0F7DA0E5118362FEA304A70D8C</stEvt:instanceID>
                  <stEvt:when>2015-12-11T22:52:06-05:00</stEvt:when>
                  <stEvt:softwareAgent>Adobe Audition CS6 (Windows)</stEvt:softwareAgent>
                  <stEvt:changed>/</stEvt:changed>
               </rdf:li>
               <rdf:li rdf:parseType="Resource">
                  <stEvt:action>saved</stEvt:action>
                  <stEvt:instanceID>xmp.iid:E233CF2E85A0E5118362FEA304A70D8C</stEvt:instanceID>
                  <stEvt:when>2015-12-11T23:02:38-05:00</stEvt:when>
                  <stEvt:softwareAgent>Adobe Audition CS6 (Windows)</stEvt:softwareAgent>
                  <stEvt:changed>/metadata</stEvt:changed>
               </rdf:li>
               <rdf:li rdf:parseType="Resource">
                  <stEvt:action>saved</stEvt:action>
                  <stEvt:instanceID>xmp.iid:E333CF2E85A0E5118362FEA304A70D8C</stEvt:instanceID>
                  <stEvt:when>2015-12-11T23:02:38-05:00</stEvt:when>
                  <stEvt:softwareAgent>Adobe Audition CS6 (Windows)</stEvt:softwareAgent>
                  <stEvt:changed>/</stEvt:changed>
               </rdf:li>
               <rdf:li rdf:parseType="Resource">
                  <stEvt:action>saved</stEvt:action>
                  <stEvt:instanceID>xmp.iid:E433CF2E85A0E5118362FEA304A70D8C</stEvt:instanceID>
                  <stEvt:when>2015-12-11T23:12:39-05:00</stEvt:when>
                  <stEvt:softwareAgent>Adobe Audition CS6 (Windows)</stEvt:softwareAgent>
                  <stEvt:changed>/metadata</stEvt:changed>
               </rdf:li>
               <rdf:li rdf:parseType="Resource">
                  <stEvt:action>saved</stEvt:action>
                  <stEvt:instanceID>xmp.iid:E533CF2E85A0E5118362FEA304A70D8C</stEvt:instanceID>
                  <stEvt:when>2015-12-11T23:12:39-05:00</stEvt:when>
                  <stEvt:softwareAgent>Adobe Audition CS6 (Windows)</stEvt:softwareAgent>
                  <stEvt:changed>/</stEvt:changed>
               </rdf:li>
               <rdf:li rdf:parseType="Resource">
                  <stEvt:action>saved</stEvt:action>
                  <stEvt:instanceID>xmp.iid:E833CF2E85A0E5118362FEA304A70D8C</stEvt:instanceID>
                  <stEvt:when>2015-12-11T23:15:45-05:00</stEvt:when>
                  <stEvt:softwareAgent>Adobe Audition CS6 (Windows)</stEvt:softwareAgent>
                  <stEvt:changed>/metadata</stEvt:changed>
               </rdf:li>
               <rdf:li rdf:parseType="Resource">
                  <stEvt:action>saved</stEvt:action>
                  <stEvt:instanceID>xmp.iid:E933CF2E85A0E5118362FEA304A70D8C</stEvt:instanceID>
                  <stEvt:when>2015-12-11T23:15:45-05:00</stEvt:when>
                  <stEvt:softwareAgent>Adobe Audition CS6 (Windows)</stEvt:softwareAgent>
                  <stEvt:changed>/</stEvt:changed>
               </rdf:li>
               <rdf:li rdf:parseType="Resource">
                  <stEvt:action>saved</stEvt:action>
                  <stEvt:instanceID>xmp.iid:C66D756A89A0E511BE73DCFBD0A36ABD</stEvt:instanceID>
                  <stEvt:when>2015-12-11T23:33:01-05:00</stEvt:when>
                  <stEvt:softwareAgent>Adobe Audition CS6 (Windows)</stEvt:softwareAgent>
                  <stEvt:changed>/metadata</stEvt:changed>
               </rdf:li>
               <rdf:li rdf:parseType="Resource">
                  <stEvt:action>saved</stEvt:action>
                  <stEvt:instanceID>xmp.iid:C76D756A89A0E511BE73DCFBD0A36ABD</stEvt:instanceID>
                  <stEvt:when>2015-12-11T23:33:01-05:00</stEvt:when>
                  <stEvt:softwareAgent>Adobe Audition CS6 (Windows)</stEvt:softwareAgent>
                  <stEvt:changed>/</stEvt:changed>
               </rdf:li>
               <rdf:li rdf:parseType="Resource">
                  <stEvt:action>saved</stEvt:action>
                  <stEvt:instanceID>xmp.iid:99CE7D208AA0E511BE73DCFBD0A36ABD</stEvt:instanceID>
                  <stEvt:when>2015-12-11T23:39:03-05:00</stEvt:when>
                  <stEvt:softwareAgent>Adobe Audition CS6 (Windows)</stEvt:softwareAgent>
                  <stEvt:changed>/metadata</stEvt:changed>
               </rdf:li>
               <rdf:li rdf:parseType="Resource">
                  <stEvt:action>saved</stEvt:action>
                  <stEvt:instanceID>xmp.iid:9ACE7D208AA0E511BE73DCFBD0A36ABD</stEvt:instanceID>
                  <stEvt:when>2015-12-11T23:39:03-05:00</stEvt:when>
                  <stEvt:softwareAgent>Adobe Audition CS6 (Windows)</stEvt:softwareAgent>
                  <stEvt:changed>/</stEvt:changed>
               </rdf:li>
               <rdf:li rdf:parseType="Resource">
                  <stEvt:action>saved</stEvt:action>
                  <stEvt:instanceID>xmp.iid:9BCE7D208AA0E511BE73DCFBD0A36ABD</stEvt:instanceID>
                  <stEvt:when>2015-12-11T23:40:23-05:00</stEvt:when>
                  <stEvt:softwareAgent>Adobe Audition CS6 (Windows)</stEvt:softwareAgent>
                  <stEvt:changed>/metadata</stEvt:changed>
               </rdf:li>
               <rdf:li rdf:parseType="Resource">
                  <stEvt:action>saved</stEvt:action>
                  <stEvt:instanceID>xmp.iid:9CCE7D208AA0E511BE73DCFBD0A36ABD</stEvt:instanceID>
                  <stEvt:when>2015-12-11T23:40:23-05:00</stEvt:when>
                  <stEvt:softwareAgent>Adobe Audition CS6 (Windows)</stEvt:softwareAgent>
                  <stEvt:changed>/</stEvt:changed>
               </rdf:li>
               <rdf:li rdf:parseType="Resource">
                  <stEvt:action>saved</stEvt:action>
                  <stEvt:instanceID>xmp.iid:9DCE7D208AA0E511BE73DCFBD0A36ABD</stEvt:instanceID>
                  <stEvt:when>2015-12-11T23:42:59-05:00</stEvt:when>
                  <stEvt:softwareAgent>Adobe Audition CS6 (Windows)</stEvt:softwareAgent>
                  <stEvt:changed>/metadata</stEvt:changed>
               </rdf:li>
               <rdf:li rdf:parseType="Resource">
                  <stEvt:action>saved</stEvt:action>
                  <stEvt:instanceID>xmp.iid:9ECE7D208AA0E511BE73DCFBD0A36ABD</stEvt:instanceID>
                  <stEvt:when>2015-12-11T23:42:59-05:00</stEvt:when>
                  <stEvt:softwareAgent>Adobe Audition CS6 (Windows)</stEvt:softwareAgent>
                  <stEvt:changed>/</stEvt:changed>
               </rdf:li>
               <rdf:li rdf:parseType="Resource">
                  <stEvt:action>saved</stEvt:action>
                  <stEvt:instanceID>xmp.iid:ABD7A42F8EA0E511BE73DCFBD0A36ABD</stEvt:instanceID>
                  <stEvt:when>2015-12-12T00:07:04-05:00</stEvt:when>
                  <stEvt:softwareAgent>Adobe Audition CS6 (Windows)</stEvt:softwareAgent>
                  <stEvt:changed>/metadata</stEvt:changed>
               </rdf:li>
               <rdf:li rdf:parseType="Resource">
                  <stEvt:action>saved</stEvt:action>
                  <stEvt:instanceID>xmp.iid:ACD7A42F8EA0E511BE73DCFBD0A36ABD</stEvt:instanceID>
                  <stEvt:when>2015-12-12T00:07:04-05:00</stEvt:when>
                  <stEvt:softwareAgent>Adobe Audition CS6 (Windows)</stEvt:softwareAgent>
                  <stEvt:changed>/</stEvt:changed>
               </rdf:li>
               <rdf:li rdf:parseType="Resource">
                  <stEvt:action>saved</stEvt:action>
                  <stEvt:instanceID>xmp.iid:ADD7A42F8EA0E511BE73DCFBD0A36ABD</stEvt:instanceID>
                  <stEvt:when>2015-12-12T00:20:53-05:00</stEvt:when>
                  <stEvt:softwareAgent>Adobe Audition CS6 (Windows)</stEvt:softwareAgent>
                  <stEvt:changed>/metadata</stEvt:changed>
               </rdf:li>
               <rdf:li rdf:parseType="Resource">
                  <stEvt:action>saved</stEvt:action>
                  <stEvt:instanceID>xmp.iid:AED7A42F8EA0E511BE73DCFBD0A36ABD</stEvt:instanceID>
                  <stEvt:when>2015-12-12T00:20:53-05:00</stEvt:when>
                  <stEvt:softwareAgent>Adobe Audition CS6 (Windows)</stEvt:softwareAgent>
                  <stEvt:changed>/</stEvt:changed>
               </rdf:li>
               <rdf:li rdf:parseType="Resource">
                  <stEvt:action>saved</stEvt:action>
                  <stEvt:instanceID>xmp.iid:AFD7A42F8EA0E511BE73DCFBD0A36ABD</stEvt:instanceID>
                  <stEvt:when>2015-12-12T00:28:37-05:00</stEvt:when>
                  <stEvt:softwareAgent>Adobe Audition CS6 (Windows)</stEvt:softwareAgent>
                  <stEvt:changed>/metadata</stEvt:changed>
               </rdf:li>
               <rdf:li rdf:parseType="Resource">
                  <stEvt:action>saved</stEvt:action>
                  <stEvt:instanceID>xmp.iid:B0D7A42F8EA0E511BE73DCFBD0A36ABD</stEvt:instanceID>
                  <stEvt:when>2015-12-12T00:28:37-05:00</stEvt:when>
                  <stEvt:softwareAgent>Adobe Audition CS6 (Windows)</stEvt:softwareAgent>
                  <stEvt:changed>/</stEvt:changed>
               </rdf:li>
               <rdf:li rdf:parseType="Resource">
                  <stEvt:action>saved</stEvt:action>
                  <stEvt:instanceID>xmp.iid:CE0AA2E112A1E51184CEE03BEFA62F91</stEvt:instanceID>
                  <stEvt:when>2015-12-12T15:57:19-05:00</stEvt:when>
                  <stEvt:softwareAgent>Adobe Audition CS6 (Windows)</stEvt:softwareAgent>
                  <stEvt:changed>/metadata</stEvt:changed>
               </rdf:li>
               <rdf:li rdf:parseType="Resource">
                  <stEvt:action>saved</stEvt:action>
                  <stEvt:instanceID>xmp.iid:CF0AA2E112A1E51184CEE03BEFA62F91</stEvt:instanceID>
                  <stEvt:when>2015-12-12T15:57:19-05:00</stEvt:when>
                  <stEvt:softwareAgent>Adobe Audition CS6 (Windows)</stEvt:softwareAgent>
                  <stEvt:changed>/</stEvt:changed>
               </rdf:li>
               <rdf:li rdf:parseType="Resource">
                  <stEvt:action>saved</stEvt:action>
                  <stEvt:instanceID>xmp.iid:0E90303A14A1E51184CEE03BEFA62F91</stEvt:instanceID>
                  <stEvt:when>2015-12-12T16:06:35-05:00</stEvt:when>
                  <stEvt:softwareAgent>Adobe Audition CS6 (Windows)</stEvt:softwareAgent>
                  <stEvt:changed>/metadata</stEvt:changed>
               </rdf:li>
               <rdf:li rdf:parseType="Resource">
                  <stEvt:action>saved</stEvt:action>
                  <stEvt:instanceID>xmp.iid:0F90303A14A1E51184CEE03BEFA62F91</stEvt:instanceID>
                  <stEvt:when>2015-12-12T16:06:35-05:00</stEvt:when>
                  <stEvt:softwareAgent>Adobe Audition CS6 (Windows)</stEvt:softwareAgent>
                  <stEvt:changed>/</stEvt:changed>
               </rdf:li>
               <rdf:li rdf:parseType="Resource">
                  <stEvt:action>saved</stEvt:action>
                  <stEvt:instanceID>xmp.iid:1290303A14A1E51184CEE03BEFA62F91</stEvt:instanceID>
                  <stEvt:when>2015-12-12T16:09:02-05:00</stEvt:when>
                  <stEvt:softwareAgent>Adobe Audition CS6 (Windows)</stEvt:softwareAgent>
                  <stEvt:changed>/metadata</stEvt:changed>
               </rdf:li>
               <rdf:li rdf:parseType="Resource">
                  <stEvt:action>saved</stEvt:action>
                  <stEvt:instanceID>xmp.iid:1390303A14A1E51184CEE03BEFA62F91</stEvt:instanceID>
                  <stEvt:when>2015-12-12T16:09:02-05:00</stEvt:when>
                  <stEvt:softwareAgent>Adobe Audition CS6 (Windows)</stEvt:softwareAgent>
                  <stEvt:changed>/</stEvt:changed>
               </rdf:li>
               <rdf:li rdf:parseType="Resource">
                  <stEvt:action>saved</stEvt:action>
                  <stEvt:instanceID>xmp.iid:1690303A14A1E51184CEE03BEFA62F91</stEvt:instanceID>
                  <stEvt:when>2015-12-12T16:11:31-05:00</stEvt:when>
                  <stEvt:softwareAgent>Adobe Audition CS6 (Windows)</stEvt:softwareAgent>
                  <stEvt:changed>/metadata</stEvt:changed>
               </rdf:li>
               <rdf:li rdf:parseType="Resource">
                  <stEvt:action>saved</stEvt:action>
                  <stEvt:instanceID>xmp.iid:585002EB14A1E51184CEE03BEFA62F91</stEvt:instanceID>
                  <stEvt:when>2015-12-12T16:11:31-05:00</stEvt:when>
                  <stEvt:softwareAgent>Adobe Audition CS6 (Windows)</stEvt:softwareAgent>
                  <stEvt:changed>/</stEvt:changed>
               </rdf:li>
               <rdf:li rdf:parseType="Resource">
                  <stEvt:action>saved</stEvt:action>
                  <stEvt:instanceID>xmp.iid:5B5002EB14A1E51184CEE03BEFA62F91</stEvt:instanceID>
                  <stEvt:when>2015-12-12T16:14:52-05:00</stEvt:when>
                  <stEvt:softwareAgent>Adobe Audition CS6 (Windows)</stEvt:softwareAgent>
                  <stEvt:changed>/metadata</stEvt:changed>
               </rdf:li>
               <rdf:li rdf:parseType="Resource">
                  <stEvt:action>saved</stEvt:action>
                  <stEvt:instanceID>xmp.iid:5C5002EB14A1E51184CEE03BEFA62F91</stEvt:instanceID>
                  <stEvt:when>2015-12-12T16:14:52-05:00</stEvt:when>
                  <stEvt:softwareAgent>Adobe Audition CS6 (Windows)</stEvt:softwareAgent>
                  <stEvt:changed>/</stEvt:changed>
               </rdf:li>
               <rdf:li rdf:parseType="Resource">
                  <stEvt:action>saved</stEvt:action>
                  <stEvt:instanceID>xmp.iid:5F5002EB14A1E51184CEE03BEFA62F91</stEvt:instanceID>
                  <stEvt:when>2015-12-12T16:18:36-05:00</stEvt:when>
                  <stEvt:softwareAgent>Adobe Audition CS6 (Windows)</stEvt:softwareAgent>
                  <stEvt:changed>/metadata</stEvt:changed>
               </rdf:li>
               <rdf:li rdf:parseType="Resource">
                  <stEvt:action>saved</stEvt:action>
                  <stEvt:instanceID>xmp.iid:605002EB14A1E51184CEE03BEFA62F91</stEvt:instanceID>
                  <stEvt:when>2015-12-12T16:18:36-05:00</stEvt:when>
                  <stEvt:softwareAgent>Adobe Audition CS6 (Windows)</stEvt:softwareAgent>
                  <stEvt:changed>/</stEvt:changed>
               </rdf:li>
               <rdf:li rdf:parseType="Resource">
                  <stEvt:action>saved</stEvt:action>
                  <stEvt:instanceID>xmp.iid:615002EB14A1E51184CEE03BEFA62F91</stEvt:instanceID>
                  <stEvt:when>2015-12-12T16:19:02-05:00</stEvt:when>
                  <stEvt:softwareAgent>Adobe Audition CS6 (Windows)</stEvt:softwareAgent>
                  <stEvt:changed>/metadata</stEvt:changed>
               </rdf:li>
               <rdf:li rdf:parseType="Resource">
                  <stEvt:action>saved</stEvt:action>
                  <stEvt:instanceID>xmp.iid:625002EB14A1E51184CEE03BEFA62F91</stEvt:instanceID>
                  <stEvt:when>2015-12-12T16:19:02-05:00</stEvt:when>
                  <stEvt:softwareAgent>Adobe Audition CS6 (Windows)</stEvt:softwareAgent>
                  <stEvt:changed>/</stEvt:changed>
               </rdf:li>
               <rdf:li rdf:parseType="Resource">
                  <stEvt:action>saved</stEvt:action>
                  <stEvt:instanceID>xmp.iid:C2BF502A16A1E51184CEE03BEFA62F91</stEvt:instanceID>
                  <stEvt:when>2015-12-12T16:20:27-05:00</stEvt:when>
                  <stEvt:softwareAgent>Adobe Audition CS6 (Windows)</stEvt:softwareAgent>
                  <stEvt:changed>/metadata</stEvt:changed>
               </rdf:li>
               <rdf:li rdf:parseType="Resource">
                  <stEvt:action>saved</stEvt:action>
                  <stEvt:instanceID>xmp.iid:C3BF502A16A1E51184CEE03BEFA62F91</stEvt:instanceID>
                  <stEvt:when>2015-12-12T16:20:27-05:00</stEvt:when>
                  <stEvt:softwareAgent>Adobe Audition CS6 (Windows)</stEvt:softwareAgent>
                  <stEvt:changed>/</stEvt:changed>
               </rdf:li>
               <rdf:li rdf:parseType="Resource">
                  <stEvt:action>saved</stEvt:action>
                  <stEvt:instanceID>xmp.iid:039E316D16A1E511B748D5A7DF4FD0B9</stEvt:instanceID>
                  <stEvt:when>2015-12-12T16:22:26-05:00</stEvt:when>
                  <stEvt:softwareAgent>Adobe Audition CS6 (Windows)</stEvt:softwareAgent>
                  <stEvt:changed>/metadata</stEvt:changed>
               </rdf:li>
               <rdf:li rdf:parseType="Resource">
                  <stEvt:action>saved</stEvt:action>
                  <stEvt:instanceID>xmp.iid:049E316D16A1E511B748D5A7DF4FD0B9</stEvt:instanceID>
                  <stEvt:when>2015-12-12T16:22:26-05:00</stEvt:when>
                  <stEvt:softwareAgent>Adobe Audition CS6 (Windows)</stEvt:softwareAgent>
                  <stEvt:changed>/</stEvt:changed>
               </rdf:li>
               <rdf:li rdf:parseType="Resource">
                  <stEvt:action>saved</stEvt:action>
                  <stEvt:instanceID>xmp.iid:1CC15E4819A1E511B748D5A7DF4FD0B9</stEvt:instanceID>
                  <stEvt:when>2015-12-12T16:42:46-05:00</stEvt:when>
                  <stEvt:softwareAgent>Adobe Audition CS6 (Windows)</stEvt:softwareAgent>
                  <stEvt:changed>/metadata</stEvt:changed>
               </rdf:li>
               <rdf:li rdf:parseType="Resource">
                  <stEvt:action>saved</stEvt:action>
                  <stEvt:instanceID>xmp.iid:1DC15E4819A1E511B748D5A7DF4FD0B9</stEvt:instanceID>
                  <stEvt:when>2015-12-12T16:42:46-05:00</stEvt:when>
                  <stEvt:softwareAgent>Adobe Audition CS6 (Windows)</stEvt:softwareAgent>
                  <stEvt:changed>/</stEvt:changed>
               </rdf:li>
               <rdf:li rdf:parseType="Resource">
                  <stEvt:action>saved</stEvt:action>
                  <stEvt:instanceID>xmp.iid:20C15E4819A1E511B748D5A7DF4FD0B9</stEvt:instanceID>
                  <stEvt:when>2015-12-12T16:51:20-05:00</stEvt:when>
                  <stEvt:softwareAgent>Adobe Audition CS6 (Windows)</stEvt:softwareAgent>
                  <stEvt:changed>/metadata</stEvt:changed>
               </rdf:li>
               <rdf:li rdf:parseType="Resource">
                  <stEvt:action>saved</stEvt:action>
                  <stEvt:instanceID>xmp.iid:21C15E4819A1E511B748D5A7DF4FD0B9</stEvt:instanceID>
                  <stEvt:when>2015-12-12T16:51:20-05:00</stEvt:when>
                  <stEvt:softwareAgent>Adobe Audition CS6 (Windows)</stEvt:softwareAgent>
                  <stEvt:changed>/</stEvt:changed>
               </rdf:li>
               <rdf:li rdf:parseType="Resource">
                  <stEvt:action>saved</stEvt:action>
                  <stEvt:instanceID>xmp.iid:26C15E4819A1E511B748D5A7DF4FD0B9</stEvt:instanceID>
                  <stEvt:when>2015-12-12T16:51:59-05:00</stEvt:when>
                  <stEvt:softwareAgent>Adobe Audition CS6 (Windows)</stEvt:softwareAgent>
                  <stEvt:changed>/metadata</stEvt:changed>
               </rdf:li>
               <rdf:li rdf:parseType="Resource">
                  <stEvt:action>saved</stEvt:action>
                  <stEvt:instanceID>xmp.iid:0A14E4911AA1E511B748D5A7DF4FD0B9</stEvt:instanceID>
                  <stEvt:when>2015-12-12T16:51:59-05:00</stEvt:when>
                  <stEvt:softwareAgent>Adobe Audition CS6 (Windows)</stEvt:softwareAgent>
                  <stEvt:changed>/</stEvt:changed>
               </rdf:li>
               <rdf:li rdf:parseType="Resource">
                  <stEvt:action>saved</stEvt:action>
                  <stEvt:instanceID>xmp.iid:0F14E4911AA1E511B748D5A7DF4FD0B9</stEvt:instanceID>
                  <stEvt:when>2015-12-12T17:03:17-05:00</stEvt:when>
                  <stEvt:softwareAgent>Adobe Audition CS6 (Windows)</stEvt:softwareAgent>
                  <stEvt:changed>/metadata</stEvt:changed>
               </rdf:li>
               <rdf:li rdf:parseType="Resource">
                  <stEvt:action>saved</stEvt:action>
                  <stEvt:instanceID>xmp.iid:1014E4911AA1E511B748D5A7DF4FD0B9</stEvt:instanceID>
                  <stEvt:when>2015-12-12T17:03:17-05:00</stEvt:when>
                  <stEvt:softwareAgent>Adobe Audition CS6 (Windows)</stEvt:softwareAgent>
                  <stEvt:changed>/</stEvt:changed>
               </rdf:li>
               <rdf:li rdf:parseType="Resource">
                  <stEvt:action>saved</stEvt:action>
                  <stEvt:instanceID>xmp.iid:1114E4911AA1E511B748D5A7DF4FD0B9</stEvt:instanceID>
                  <stEvt:when>2015-12-12T17:13:17-05:00</stEvt:when>
                  <stEvt:softwareAgent>Adobe Audition CS6 (Windows)</stEvt:softwareAgent>
                  <stEvt:changed>/metadata</stEvt:changed>
               </rdf:li>
               <rdf:li rdf:parseType="Resource">
                  <stEvt:action>saved</stEvt:action>
                  <stEvt:instanceID>xmp.iid:1214E4911AA1E511B748D5A7DF4FD0B9</stEvt:instanceID>
                  <stEvt:when>2015-12-12T17:13:17-05:00</stEvt:when>
                  <stEvt:softwareAgent>Adobe Audition CS6 (Windows)</stEvt:softwareAgent>
                  <stEvt:changed>/</stEvt:changed>
               </rdf:li>
               <rdf:li rdf:parseType="Resource">
                  <stEvt:action>saved</stEvt:action>
                  <stEvt:instanceID>xmp.iid:1314E4911AA1E511B748D5A7DF4FD0B9</stEvt:instanceID>
                  <stEvt:when>2015-12-12T17:15:51-05:00</stEvt:when>
                  <stEvt:softwareAgent>Adobe Audition CS6 (Windows)</stEvt:softwareAgent>
                  <stEvt:changed>/metadata</stEvt:changed>
               </rdf:li>
               <rdf:li rdf:parseType="Resource">
                  <stEvt:action>saved</stEvt:action>
                  <stEvt:instanceID>xmp.iid:1414E4911AA1E511B748D5A7DF4FD0B9</stEvt:instanceID>
                  <stEvt:when>2015-12-12T17:15:51-05:00</stEvt:when>
                  <stEvt:softwareAgent>Adobe Audition CS6 (Windows)</stEvt:softwareAgent>
                  <stEvt:changed>/</stEvt:changed>
               </rdf:li>
               <rdf:li rdf:parseType="Resource">
                  <stEvt:action>saved</stEvt:action>
                  <stEvt:instanceID>xmp.iid:B3FCD8E71DA1E511B748D5A7DF4FD0B9</stEvt:instanceID>
                  <stEvt:when>2015-12-12T17:18:57-05:00</stEvt:when>
                  <stEvt:softwareAgent>Adobe Audition CS6 (Windows)</stEvt:softwareAgent>
                  <stEvt:changed>/metadata</stEvt:changed>
               </rdf:li>
               <rdf:li rdf:parseType="Resource">
                  <stEvt:action>saved</stEvt:action>
                  <stEvt:instanceID>xmp.iid:B4FCD8E71DA1E511B748D5A7DF4FD0B9</stEvt:instanceID>
                  <stEvt:when>2015-12-12T17:18:57-05:00</stEvt:when>
                  <stEvt:softwareAgent>Adobe Audition CS6 (Windows)</stEvt:softwareAgent>
                  <stEvt:changed>/</stEvt:changed>
               </rdf:li>
               <rdf:li rdf:parseType="Resource">
                  <stEvt:action>saved</stEvt:action>
                  <stEvt:instanceID>xmp.iid:B7FCD8E71DA1E511B748D5A7DF4FD0B9</stEvt:instanceID>
                  <stEvt:when>2015-12-12T17:22:58-05:00</stEvt:when>
                  <stEvt:softwareAgent>Adobe Audition CS6 (Windows)</stEvt:softwareAgent>
                  <stEvt:changed>/metadata</stEvt:changed>
               </rdf:li>
               <rdf:li rdf:parseType="Resource">
                  <stEvt:action>saved</stEvt:action>
                  <stEvt:instanceID>xmp.iid:B8FCD8E71DA1E511B748D5A7DF4FD0B9</stEvt:instanceID>
                  <stEvt:when>2015-12-12T17:22:58-05:00</stEvt:when>
                  <stEvt:softwareAgent>Adobe Audition CS6 (Windows)</stEvt:softwareAgent>
                  <stEvt:changed>/</stEvt:changed>
               </rdf:li>
               <rdf:li rdf:parseType="Resource">
                  <stEvt:action>saved</stEvt:action>
                  <stEvt:instanceID>xmp.iid:B9FCD8E71DA1E511B748D5A7DF4FD0B9</stEvt:instanceID>
                  <stEvt:when>2015-12-12T17:23:43-05:00</stEvt:when>
                  <stEvt:softwareAgent>Adobe Audition CS6 (Windows)</stEvt:softwareAgent>
                  <stEvt:changed>/metadata</stEvt:changed>
               </rdf:li>
               <rdf:li rdf:parseType="Resource">
                  <stEvt:action>saved</stEvt:action>
                  <stEvt:instanceID>xmp.iid:7B03BE001FA1E511B748D5A7DF4FD0B9</stEvt:instanceID>
                  <stEvt:when>2015-12-12T17:23:43-05:00</stEvt:when>
                  <stEvt:softwareAgent>Adobe Audition CS6 (Windows)</stEvt:softwareAgent>
                  <stEvt:changed>/</stEvt:changed>
               </rdf:li>
               <rdf:li rdf:parseType="Resource">
                  <stEvt:action>saved</stEvt:action>
                  <stEvt:instanceID>xmp.iid:E4FE12221FA1E51197DFCBE12BDA4901</stEvt:instanceID>
                  <stEvt:when>2015-12-12T17:24:45-05:00</stEvt:when>
                  <stEvt:softwareAgent>Adobe Audition CS6 (Windows)</stEvt:softwareAgent>
                  <stEvt:changed>/metadata</stEvt:changed>
               </rdf:li>
               <rdf:li rdf:parseType="Resource">
                  <stEvt:action>saved</stEvt:action>
                  <stEvt:instanceID>xmp.iid:E5FE12221FA1E51197DFCBE12BDA4901</stEvt:instanceID>
                  <stEvt:when>2015-12-12T17:24:45-05:00</stEvt:when>
                  <stEvt:softwareAgent>Adobe Audition CS6 (Windows)</stEvt:softwareAgent>
                  <stEvt:changed>/</stEvt:changed>
               </rdf:li>
               <rdf:li rdf:parseType="Resource">
                  <stEvt:action>saved</stEvt:action>
                  <stEvt:instanceID>xmp.iid:CEE53E1320A1E51197DFCBE12BDA4901</stEvt:instanceID>
                  <stEvt:when>2015-12-12T17:31:23-05:00</stEvt:when>
                  <stEvt:softwareAgent>Adobe Audition CS6 (Windows)</stEvt:softwareAgent>
                  <stEvt:changed>/metadata</stEvt:changed>
               </rdf:li>
               <rdf:li rdf:parseType="Resource">
                  <stEvt:action>saved</stEvt:action>
                  <stEvt:instanceID>xmp.iid:CFE53E1320A1E51197DFCBE12BDA4901</stEvt:instanceID>
                  <stEvt:when>2015-12-12T17:31:23-05:00</stEvt:when>
                  <stEvt:softwareAgent>Adobe Audition CS6 (Windows)</stEvt:softwareAgent>
                  <stEvt:changed>/</stEvt:changed>
               </rdf:li>
               <rdf:li rdf:parseType="Resource">
                  <stEvt:action>saved</stEvt:action>
                  <stEvt:instanceID>xmp.iid:D0E53E1320A1E51197DFCBE12BDA4901</stEvt:instanceID>
                  <stEvt:when>2015-12-12T17:33:56-05:00</stEvt:when>
                  <stEvt:softwareAgent>Adobe Audition CS6 (Windows)</stEvt:softwareAgent>
                  <stEvt:changed>/metadata</stEvt:changed>
               </rdf:li>
               <rdf:li rdf:parseType="Resource">
                  <stEvt:action>saved</stEvt:action>
                  <stEvt:instanceID>xmp.iid:D1E53E1320A1E51197DFCBE12BDA4901</stEvt:instanceID>
                  <stEvt:when>2015-12-12T17:33:56-05:00</stEvt:when>
                  <stEvt:softwareAgent>Adobe Audition CS6 (Windows)</stEvt:softwareAgent>
                  <stEvt:changed>/</stEvt:changed>
               </rdf:li>
               <rdf:li rdf:parseType="Resource">
                  <stEvt:action>saved</stEvt:action>
                  <stEvt:instanceID>xmp.iid:D2E53E1320A1E51197DFCBE12BDA4901</stEvt:instanceID>
                  <stEvt:when>2015-12-12T17:34:51-05:00</stEvt:when>
                  <stEvt:softwareAgent>Adobe Audition CS6 (Windows)</stEvt:softwareAgent>
                  <stEvt:changed>/metadata</stEvt:changed>
               </rdf:li>
               <rdf:li rdf:parseType="Resource">
                  <stEvt:action>saved</stEvt:action>
                  <stEvt:instanceID>xmp.iid:D3E53E1320A1E51197DFCBE12BDA4901</stEvt:instanceID>
                  <stEvt:when>2015-12-12T17:34:51-05:00</stEvt:when>
                  <stEvt:softwareAgent>Adobe Audition CS6 (Windows)</stEvt:softwareAgent>
                  <stEvt:changed>/</stEvt:changed>
               </rdf:li>
               <rdf:li rdf:parseType="Resource">
                  <stEvt:action>saved</stEvt:action>
                  <stEvt:instanceID>xmp.iid:D4E53E1320A1E51197DFCBE12BDA4901</stEvt:instanceID>
                  <stEvt:when>2015-12-12T17:35:59-05:00</stEvt:when>
                  <stEvt:softwareAgent>Adobe Audition CS6 (Windows)</stEvt:softwareAgent>
                  <stEvt:changed>/metadata</stEvt:changed>
               </rdf:li>
               <rdf:li rdf:parseType="Resource">
                  <stEvt:action>saved</stEvt:action>
                  <stEvt:instanceID>xmp.iid:D5E53E1320A1E51197DFCBE12BDA4901</stEvt:instanceID>
                  <stEvt:when>2015-12-12T17:35:59-05:00</stEvt:when>
                  <stEvt:softwareAgent>Adobe Audition CS6 (Windows)</stEvt:softwareAgent>
                  <stEvt:changed>/</stEvt:changed>
               </rdf:li>
               <rdf:li rdf:parseType="Resource">
                  <stEvt:action>saved</stEvt:action>
                  <stEvt:instanceID>xmp.iid:D6E53E1320A1E51197DFCBE12BDA4901</stEvt:instanceID>
                  <stEvt:when>2015-12-12T17:43:08-05:00</stEvt:when>
                  <stEvt:softwareAgent>Adobe Audition CS6 (Windows)</stEvt:softwareAgent>
                  <stEvt:changed>/metadata</stEvt:changed>
               </rdf:li>
               <rdf:li rdf:parseType="Resource">
                  <stEvt:action>saved</stEvt:action>
                  <stEvt:instanceID>xmp.iid:D7E53E1320A1E51197DFCBE12BDA4901</stEvt:instanceID>
                  <stEvt:when>2015-12-12T17:43:08-05:00</stEvt:when>
                  <stEvt:softwareAgent>Adobe Audition CS6 (Windows)</stEvt:softwareAgent>
                  <stEvt:changed>/</stEvt:changed>
               </rdf:li>
               <rdf:li rdf:parseType="Resource">
                  <stEvt:action>saved</stEvt:action>
                  <stEvt:instanceID>xmp.iid:7D43B6DD21A1E51197DFCBE12BDA4901</stEvt:instanceID>
                  <stEvt:when>2015-12-12T17:53:35-05:00</stEvt:when>
                  <stEvt:softwareAgent>Adobe Audition CS6 (Windows)</stEvt:softwareAgent>
                  <stEvt:changed>/metadata</stEvt:changed>
               </rdf:li>
               <rdf:li rdf:parseType="Resource">
                  <stEvt:action>saved</stEvt:action>
                  <stEvt:instanceID>xmp.iid:7E43B6DD21A1E51197DFCBE12BDA4901</stEvt:instanceID>
                  <stEvt:when>2015-12-12T17:53:35-05:00</stEvt:when>
                  <stEvt:softwareAgent>Adobe Audition CS6 (Windows)</stEvt:softwareAgent>
                  <stEvt:changed>/</stEvt:changed>
               </rdf:li>
               <rdf:li rdf:parseType="Resource">
                  <stEvt:action>saved</stEvt:action>
                  <stEvt:instanceID>xmp.iid:7F43B6DD21A1E51197DFCBE12BDA4901</stEvt:instanceID>
                  <stEvt:when>2015-12-12T18:05:36-05:00</stEvt:when>
                  <stEvt:softwareAgent>Adobe Audition CS6 (Windows)</stEvt:softwareAgent>
                  <stEvt:changed>/metadata</stEvt:changed>
               </rdf:li>
               <rdf:li rdf:parseType="Resource">
                  <stEvt:action>saved</stEvt:action>
                  <stEvt:instanceID>xmp.iid:8043B6DD21A1E51197DFCBE12BDA4901</stEvt:instanceID>
                  <stEvt:when>2015-12-12T18:05:36-05:00</stEvt:when>
                  <stEvt:softwareAgent>Adobe Audition CS6 (Windows)</stEvt:softwareAgent>
                  <stEvt:changed>/</stEvt:changed>
               </rdf:li>
               <rdf:li rdf:parseType="Resource">
                  <stEvt:action>saved</stEvt:action>
                  <stEvt:instanceID>xmp.iid:8143B6DD21A1E51197DFCBE12BDA4901</stEvt:instanceID>
                  <stEvt:when>2015-12-12T18:15:37-05:00</stEvt:when>
                  <stEvt:softwareAgent>Adobe Audition CS6 (Windows)</stEvt:softwareAgent>
                  <stEvt:changed>/metadata</stEvt:changed>
               </rdf:li>
               <rdf:li rdf:parseType="Resource">
                  <stEvt:action>saved</stEvt:action>
                  <stEvt:instanceID>xmp.iid:8243B6DD21A1E51197DFCBE12BDA4901</stEvt:instanceID>
                  <stEvt:when>2015-12-12T18:15:37-05:00</stEvt:when>
                  <stEvt:softwareAgent>Adobe Audition CS6 (Windows)</stEvt:softwareAgent>
                  <stEvt:changed>/</stEvt:changed>
               </rdf:li>
               <rdf:li rdf:parseType="Resource">
                  <stEvt:action>saved</stEvt:action>
                  <stEvt:instanceID>xmp.iid:8543B6DD21A1E51197DFCBE12BDA4901</stEvt:instanceID>
                  <stEvt:when>2015-12-12T18:24:36-05:00</stEvt:when>
                  <stEvt:softwareAgent>Adobe Audition CS6 (Windows)</stEvt:softwareAgent>
                  <stEvt:changed>/metadata</stEvt:changed>
               </rdf:li>
               <rdf:li rdf:parseType="Resource">
                  <stEvt:action>saved</stEvt:action>
                  <stEvt:instanceID>xmp.iid:71FB6D8227A1E51197DFCBE12BDA4901</stEvt:instanceID>
                  <stEvt:when>2015-12-12T18:24:36-05:00</stEvt:when>
                  <stEvt:softwareAgent>Adobe Audition CS6 (Windows)</stEvt:softwareAgent>
                  <stEvt:changed>/</stEvt:changed>
               </rdf:li>
               <rdf:li rdf:parseType="Resource">
                  <stEvt:action>saved</stEvt:action>
                  <stEvt:instanceID>xmp.iid:72FB6D8227A1E51197DFCBE12BDA4901</stEvt:instanceID>
                  <stEvt:when>2015-12-12T18:25:31-05:00</stEvt:when>
                  <stEvt:softwareAgent>Adobe Audition CS6 (Windows)</stEvt:softwareAgent>
                  <stEvt:changed>/metadata</stEvt:changed>
               </rdf:li>
               <rdf:li rdf:parseType="Resource">
                  <stEvt:action>saved</stEvt:action>
                  <stEvt:instanceID>xmp.iid:73FB6D8227A1E51197DFCBE12BDA4901</stEvt:instanceID>
                  <stEvt:when>2015-12-12T18:25:31-05:00</stEvt:when>
                  <stEvt:softwareAgent>Adobe Audition CS6 (Windows)</stEvt:softwareAgent>
                  <stEvt:changed>/</stEvt:changed>
               </rdf:li>
               <rdf:li rdf:parseType="Resource">
                  <stEvt:action>saved</stEvt:action>
                  <stEvt:instanceID>xmp.iid:76FB6D8227A1E51197DFCBE12BDA4901</stEvt:instanceID>
                  <stEvt:when>2015-12-12T18:27:14-05:00</stEvt:when>
                  <stEvt:softwareAgent>Adobe Audition CS6 (Windows)</stEvt:softwareAgent>
                  <stEvt:changed>/metadata</stEvt:changed>
               </rdf:li>
               <rdf:li rdf:parseType="Resource">
                  <stEvt:action>saved</stEvt:action>
                  <stEvt:instanceID>xmp.iid:77FB6D8227A1E51197DFCBE12BDA4901</stEvt:instanceID>
                  <stEvt:when>2015-12-12T18:27:14-05:00</stEvt:when>
                  <stEvt:softwareAgent>Adobe Audition CS6 (Windows)</stEvt:softwareAgent>
                  <stEvt:changed>/</stEvt:changed>
               </rdf:li>
               <rdf:li rdf:parseType="Resource">
                  <stEvt:action>saved</stEvt:action>
                  <stEvt:instanceID>xmp.iid:78FB6D8227A1E51197DFCBE12BDA4901</stEvt:instanceID>
                  <stEvt:when>2015-12-12T18:29:01-05:00</stEvt:when>
                  <stEvt:softwareAgent>Adobe Audition CS6 (Windows)</stEvt:softwareAgent>
                  <stEvt:changed>/metadata</stEvt:changed>
               </rdf:li>
               <rdf:li rdf:parseType="Resource">
                  <stEvt:action>saved</stEvt:action>
                  <stEvt:instanceID>xmp.iid:79FB6D8227A1E51197DFCBE12BDA4901</stEvt:instanceID>
                  <stEvt:when>2015-12-12T18:29:01-05:00</stEvt:when>
                  <stEvt:softwareAgent>Adobe Audition CS6 (Windows)</stEvt:softwareAgent>
                  <stEvt:changed>/</stEvt:changed>
               </rdf:li>
               <rdf:li rdf:parseType="Resource">
                  <stEvt:action>saved</stEvt:action>
                  <stEvt:instanceID>xmp.iid:7AFB6D8227A1E51197DFCBE12BDA4901</stEvt:instanceID>
                  <stEvt:when>2015-12-12T18:35:52-05:00</stEvt:when>
                  <stEvt:softwareAgent>Adobe Audition CS6 (Windows)</stEvt:softwareAgent>
                  <stEvt:changed>/metadata</stEvt:changed>
               </rdf:li>
               <rdf:li rdf:parseType="Resource">
                  <stEvt:action>saved</stEvt:action>
                  <stEvt:instanceID>xmp.iid:7BFB6D8227A1E51197DFCBE12BDA4901</stEvt:instanceID>
                  <stEvt:when>2015-12-12T18:35:52-05:00</stEvt:when>
                  <stEvt:softwareAgent>Adobe Audition CS6 (Windows)</stEvt:softwareAgent>
                  <stEvt:changed>/</stEvt:changed>
               </rdf:li>
               <rdf:li rdf:parseType="Resource">
                  <stEvt:action>saved</stEvt:action>
                  <stEvt:instanceID>xmp.iid:917EF72E29A1E51197DFCBE12BDA4901</stEvt:instanceID>
                  <stEvt:when>2015-12-12T18:36:40-05:00</stEvt:when>
                  <stEvt:softwareAgent>Adobe Audition CS6 (Windows)</stEvt:softwareAgent>
                  <stEvt:changed>/metadata</stEvt:changed>
               </rdf:li>
               <rdf:li rdf:parseType="Resource">
                  <stEvt:action>saved</stEvt:action>
                  <stEvt:instanceID>xmp.iid:927EF72E29A1E51197DFCBE12BDA4901</stEvt:instanceID>
                  <stEvt:when>2015-12-12T18:36:40-05:00</stEvt:when>
                  <stEvt:softwareAgent>Adobe Audition CS6 (Windows)</stEvt:softwareAgent>
                  <stEvt:changed>/</stEvt:changed>
               </rdf:li>
               <rdf:li rdf:parseType="Resource">
                  <stEvt:action>saved</stEvt:action>
                  <stEvt:instanceID>xmp.iid:977EF72E29A1E51197DFCBE12BDA4901</stEvt:instanceID>
                  <stEvt:when>2015-12-12T18:48:10-05:00</stEvt:when>
                  <stEvt:softwareAgent>Adobe Audition CS6 (Windows)</stEvt:softwareAgent>
                  <stEvt:changed>/metadata</stEvt:changed>
               </rdf:li>
               <rdf:li rdf:parseType="Resource">
                  <stEvt:action>saved</stEvt:action>
                  <stEvt:instanceID>xmp.iid:08EB39CD2AA1E51197DFCBE12BDA4901</stEvt:instanceID>
                  <stEvt:when>2015-12-12T18:48:10-05:00</stEvt:when>
                  <stEvt:softwareAgent>Adobe Audition CS6 (Windows)</stEvt:softwareAgent>
                  <stEvt:changed>/</stEvt:changed>
               </rdf:li>
               <rdf:li rdf:parseType="Resource">
                  <stEvt:action>saved</stEvt:action>
                  <stEvt:instanceID>xmp.iid:0BEB39CD2AA1E51197DFCBE12BDA4901</stEvt:instanceID>
                  <stEvt:when>2015-12-12T18:53:41-05:00</stEvt:when>
                  <stEvt:softwareAgent>Adobe Audition CS6 (Windows)</stEvt:softwareAgent>
                  <stEvt:changed>/metadata</stEvt:changed>
               </rdf:li>
               <rdf:li rdf:parseType="Resource">
                  <stEvt:action>saved</stEvt:action>
                  <stEvt:instanceID>xmp.iid:0CEB39CD2AA1E51197DFCBE12BDA4901</stEvt:instanceID>
                  <stEvt:when>2015-12-12T18:53:41-05:00</stEvt:when>
                  <stEvt:softwareAgent>Adobe Audition CS6 (Windows)</stEvt:softwareAgent>
                  <stEvt:changed>/</stEvt:changed>
               </rdf:li>
               <rdf:li rdf:parseType="Resource">
                  <stEvt:action>saved</stEvt:action>
                  <stEvt:instanceID>xmp.iid:0FEB39CD2AA1E51197DFCBE12BDA4901</stEvt:instanceID>
                  <stEvt:when>2015-12-12T18:55:21-05:00</stEvt:when>
                  <stEvt:softwareAgent>Adobe Audition CS6 (Windows)</stEvt:softwareAgent>
                  <stEvt:changed>/metadata</stEvt:changed>
               </rdf:li>
               <rdf:li rdf:parseType="Resource">
                  <stEvt:action>saved</stEvt:action>
                  <stEvt:instanceID>xmp.iid:10EB39CD2AA1E51197DFCBE12BDA4901</stEvt:instanceID>
                  <stEvt:when>2015-12-12T18:55:21-05:00</stEvt:when>
                  <stEvt:softwareAgent>Adobe Audition CS6 (Windows)</stEvt:softwareAgent>
                  <stEvt:changed>/</stEvt:changed>
               </rdf:li>
               <rdf:li rdf:parseType="Resource">
                  <stEvt:action>saved</stEvt:action>
                  <stEvt:instanceID>xmp.iid:11EB39CD2AA1E51197DFCBE12BDA4901</stEvt:instanceID>
                  <stEvt:when>2015-12-12T18:55:33-05:00</stEvt:when>
                  <stEvt:softwareAgent>Adobe Audition CS6 (Windows)</stEvt:softwareAgent>
                  <stEvt:changed>/metadata</stEvt:changed>
               </rdf:li>
               <rdf:li rdf:parseType="Resource">
                  <stEvt:action>saved</stEvt:action>
                  <stEvt:instanceID>xmp.iid:12EB39CD2AA1E51197DFCBE12BDA4901</stEvt:instanceID>
                  <stEvt:when>2015-12-12T18:55:33-05:00</stEvt:when>
                  <stEvt:softwareAgent>Adobe Audition CS6 (Windows)</stEvt:softwareAgent>
                  <stEvt:changed>/</stEvt:changed>
               </rdf:li>
               <rdf:li rdf:parseType="Resource">
                  <stEvt:action>saved</stEvt:action>
                  <stEvt:instanceID>xmp.iid:822A44EE2BA1E51197DFCBE12BDA4901</stEvt:instanceID>
                  <stEvt:when>2015-12-12T18:56:15-05:00</stEvt:when>
                  <stEvt:softwareAgent>Adobe Audition CS6 (Windows)</stEvt:softwareAgent>
                  <stEvt:changed>/metadata</stEvt:changed>
               </rdf:li>
               <rdf:li rdf:parseType="Resource">
                  <stEvt:action>saved</stEvt:action>
                  <stEvt:instanceID>xmp.iid:832A44EE2BA1E51197DFCBE12BDA4901</stEvt:instanceID>
                  <stEvt:when>2015-12-12T18:56:15-05:00</stEvt:when>
                  <stEvt:softwareAgent>Adobe Audition CS6 (Windows)</stEvt:softwareAgent>
                  <stEvt:changed>/</stEvt:changed>
               </rdf:li>
               <rdf:li rdf:parseType="Resource">
                  <stEvt:action>saved</stEvt:action>
                  <stEvt:instanceID>xmp.iid:842A44EE2BA1E51197DFCBE12BDA4901</stEvt:instanceID>
                  <stEvt:when>2015-12-12T18:56:22-05:00</stEvt:when>
                  <stEvt:softwareAgent>Adobe Audition CS6 (Windows)</stEvt:softwareAgent>
                  <stEvt:changed>/metadata</stEvt:changed>
               </rdf:li>
               <rdf:li rdf:parseType="Resource">
                  <stEvt:action>saved</stEvt:action>
                  <stEvt:instanceID>xmp.iid:852A44EE2BA1E51197DFCBE12BDA4901</stEvt:instanceID>
                  <stEvt:when>2015-12-12T18:56:22-05:00</stEvt:when>
                  <stEvt:softwareAgent>Adobe Audition CS6 (Windows)</stEvt:softwareAgent>
                  <stEvt:changed>/</stEvt:changed>
               </rdf:li>
               <rdf:li rdf:parseType="Resource">
                  <stEvt:action>saved</stEvt:action>
                  <stEvt:instanceID>xmp.iid:862A44EE2BA1E51197DFCBE12BDA4901</stEvt:instanceID>
                  <stEvt:when>2015-12-12T18:58:05-05:00</stEvt:when>
                  <stEvt:softwareAgent>Adobe Audition CS6 (Windows)</stEvt:softwareAgent>
                  <stEvt:changed>/metadata</stEvt:changed>
               </rdf:li>
               <rdf:li rdf:parseType="Resource">
                  <stEvt:action>saved</stEvt:action>
                  <stEvt:instanceID>xmp.iid:872A44EE2BA1E51197DFCBE12BDA4901</stEvt:instanceID>
                  <stEvt:when>2015-12-12T18:58:05-05:00</stEvt:when>
                  <stEvt:softwareAgent>Adobe Audition CS6 (Windows)</stEvt:softwareAgent>
                  <stEvt:changed>/</stEvt:changed>
               </rdf:li>
               <rdf:li rdf:parseType="Resource">
                  <stEvt:action>saved</stEvt:action>
                  <stEvt:instanceID>xmp.iid:A9F4A5482CA1E51197DFCBE12BDA4901</stEvt:instanceID>
                  <stEvt:when>2015-12-12T18:58:52-05:00</stEvt:when>
                  <stEvt:softwareAgent>Adobe Audition CS6 (Windows)</stEvt:softwareAgent>
                  <stEvt:changed>/metadata</stEvt:changed>
               </rdf:li>
               <rdf:li rdf:parseType="Resource">
                  <stEvt:action>saved</stEvt:action>
                  <stEvt:instanceID>xmp.iid:AAF4A5482CA1E51197DFCBE12BDA4901</stEvt:instanceID>
                  <stEvt:when>2015-12-12T18:58:52-05:00</stEvt:when>
                  <stEvt:softwareAgent>Adobe Audition CS6 (Windows)</stEvt:softwareAgent>
                  <stEvt:changed>/</stEvt:changed>
               </rdf:li>
               <rdf:li rdf:parseType="Resource">
                  <stEvt:action>saved</stEvt:action>
                  <stEvt:instanceID>xmp.iid:B1F4A5482CA1E51197DFCBE12BDA4901</stEvt:instanceID>
                  <stEvt:when>2015-12-12T19:03:14-05:00</stEvt:when>
                  <stEvt:softwareAgent>Adobe Audition CS6 (Windows)</stEvt:softwareAgent>
                  <stEvt:changed>/metadata</stEvt:changed>
               </rdf:li>
               <rdf:li rdf:parseType="Resource">
                  <stEvt:action>saved</stEvt:action>
                  <stEvt:instanceID>xmp.iid:B2F4A5482CA1E51197DFCBE12BDA4901</stEvt:instanceID>
                  <stEvt:when>2015-12-12T19:03:14-05:00</stEvt:when>
                  <stEvt:softwareAgent>Adobe Audition CS6 (Windows)</stEvt:softwareAgent>
                  <stEvt:changed>/</stEvt:changed>
               </rdf:li>
               <rdf:li rdf:parseType="Resource">
                  <stEvt:action>saved</stEvt:action>
                  <stEvt:instanceID>xmp.iid:F9844F072DA1E51197DFCBE12BDA4901</stEvt:instanceID>
                  <stEvt:when>2015-12-12T19:04:07-05:00</stEvt:when>
                  <stEvt:softwareAgent>Adobe Audition CS6 (Windows)</stEvt:softwareAgent>
                  <stEvt:changed>/metadata</stEvt:changed>
               </rdf:li>
               <rdf:li rdf:parseType="Resource">
                  <stEvt:action>saved</stEvt:action>
                  <stEvt:instanceID>xmp.iid:FA844F072DA1E51197DFCBE12BDA4901</stEvt:instanceID>
                  <stEvt:when>2015-12-12T19:04:07-05:00</stEvt:when>
                  <stEvt:softwareAgent>Adobe Audition CS6 (Windows)</stEvt:softwareAgent>
                  <stEvt:changed>/</stEvt:changed>
               </rdf:li>
               <rdf:li rdf:parseType="Resource">
                  <stEvt:action>saved</stEvt:action>
                  <stEvt:instanceID>xmp.iid:3C0AAC4F2DA1E511B74DC068EA16D1F9</stEvt:instanceID>
                  <stEvt:when>2015-12-12T19:06:16-05:00</stEvt:when>
                  <stEvt:softwareAgent>Adobe Audition CS6 (Windows)</stEvt:softwareAgent>
                  <stEvt:changed>/metadata</stEvt:changed>
               </rdf:li>
               <rdf:li rdf:parseType="Resource">
                  <stEvt:action>saved</stEvt:action>
                  <stEvt:instanceID>xmp.iid:3D0AAC4F2DA1E511B74DC068EA16D1F9</stEvt:instanceID>
                  <stEvt:when>2015-12-12T19:06:16-05:00</stEvt:when>
                  <stEvt:softwareAgent>Adobe Audition CS6 (Windows)</stEvt:softwareAgent>
                  <stEvt:changed>/</stEvt:changed>
               </rdf:li>
               <rdf:li rdf:parseType="Resource">
                  <stEvt:action>saved</stEvt:action>
                  <stEvt:instanceID>xmp.iid:16A2DBC42EA1E511B74DC068EA16D1F9</stEvt:instanceID>
                  <stEvt:when>2015-12-12T19:16:34-05:00</stEvt:when>
                  <stEvt:softwareAgent>Adobe Audition CS6 (Windows)</stEvt:softwareAgent>
                  <stEvt:changed>/metadata</stEvt:changed>
               </rdf:li>
               <rdf:li rdf:parseType="Resource">
                  <stEvt:action>saved</stEvt:action>
                  <stEvt:instanceID>xmp.iid:17A2DBC42EA1E511B74DC068EA16D1F9</stEvt:instanceID>
                  <stEvt:when>2015-12-12T19:16:34-05:00</stEvt:when>
                  <stEvt:softwareAgent>Adobe Audition CS6 (Windows)</stEvt:softwareAgent>
                  <stEvt:changed>/</stEvt:changed>
               </rdf:li>
               <rdf:li rdf:parseType="Resource">
                  <stEvt:action>saved</stEvt:action>
                  <stEvt:instanceID>xmp.iid:18A2DBC42EA1E511B74DC068EA16D1F9</stEvt:instanceID>
                  <stEvt:when>2015-12-12T19:21:47-05:00</stEvt:when>
                  <stEvt:softwareAgent>Adobe Audition CS6 (Windows)</stEvt:softwareAgent>
                  <stEvt:changed>/metadata</stEvt:changed>
               </rdf:li>
               <rdf:li rdf:parseType="Resource">
                  <stEvt:action>saved</stEvt:action>
                  <stEvt:instanceID>xmp.iid:19A2DBC42EA1E511B74DC068EA16D1F9</stEvt:instanceID>
                  <stEvt:when>2015-12-12T19:21:47-05:00</stEvt:when>
                  <stEvt:softwareAgent>Adobe Audition CS6 (Windows)</stEvt:softwareAgent>
                  <stEvt:changed>/</stEvt:changed>
               </rdf:li>
               <rdf:li rdf:parseType="Resource">
                  <stEvt:action>saved</stEvt:action>
                  <stEvt:instanceID>xmp.iid:1AA2DBC42EA1E511B74DC068EA16D1F9</stEvt:instanceID>
                  <stEvt:when>2015-12-12T19:23:55-05:00</stEvt:when>
                  <stEvt:softwareAgent>Adobe Audition CS6 (Windows)</stEvt:softwareAgent>
                  <stEvt:changed>/metadata</stEvt:changed>
               </rdf:li>
               <rdf:li rdf:parseType="Resource">
                  <stEvt:action>saved</stEvt:action>
                  <stEvt:instanceID>xmp.iid:1BA2DBC42EA1E511B74DC068EA16D1F9</stEvt:instanceID>
                  <stEvt:when>2015-12-12T19:23:55-05:00</stEvt:when>
                  <stEvt:softwareAgent>Adobe Audition CS6 (Windows)</stEvt:softwareAgent>
                  <stEvt:changed>/</stEvt:changed>
               </rdf:li>
               <rdf:li rdf:parseType="Resource">
                  <stEvt:action>saved</stEvt:action>
                  <stEvt:instanceID>xmp.iid:1CA2DBC42EA1E511B74DC068EA16D1F9</stEvt:instanceID>
                  <stEvt:when>2015-12-12T19:32:01-05:00</stEvt:when>
                  <stEvt:softwareAgent>Adobe Audition CS6 (Windows)</stEvt:softwareAgent>
                  <stEvt:changed>/metadata</stEvt:changed>
               </rdf:li>
               <rdf:li rdf:parseType="Resource">
                  <stEvt:action>saved</stEvt:action>
                  <stEvt:instanceID>xmp.iid:1DA2DBC42EA1E511B74DC068EA16D1F9</stEvt:instanceID>
                  <stEvt:when>2015-12-12T19:32:01-05:00</stEvt:when>
                  <stEvt:softwareAgent>Adobe Audition CS6 (Windows)</stEvt:softwareAgent>
                  <stEvt:changed>/</stEvt:changed>
               </rdf:li>
               <rdf:li rdf:parseType="Resource">
                  <stEvt:action>saved</stEvt:action>
                  <stEvt:instanceID>xmp.iid:1EA2DBC42EA1E511B74DC068EA16D1F9</stEvt:instanceID>
                  <stEvt:when>2015-12-12T19:32:54-05:00</stEvt:when>
                  <stEvt:softwareAgent>Adobe Audition CS6 (Windows)</stEvt:softwareAgent>
                  <stEvt:changed>/metadata</stEvt:changed>
               </rdf:li>
               <rdf:li rdf:parseType="Resource">
                  <stEvt:action>saved</stEvt:action>
                  <stEvt:instanceID>xmp.iid:1FA2DBC42EA1E511B74DC068EA16D1F9</stEvt:instanceID>
                  <stEvt:when>2015-12-12T19:32:54-05:00</stEvt:when>
                  <stEvt:softwareAgent>Adobe Audition CS6 (Windows)</stEvt:softwareAgent>
                  <stEvt:changed>/</stEvt:changed>
               </rdf:li>
               <rdf:li rdf:parseType="Resource">
                  <stEvt:action>saved</stEvt:action>
                  <stEvt:instanceID>xmp.iid:20A2DBC42EA1E511B74DC068EA16D1F9</stEvt:instanceID>
                  <stEvt:when>2015-12-12T19:38:56-05:00</stEvt:when>
                  <stEvt:softwareAgent>Adobe Audition CS6 (Windows)</stEvt:softwareAgent>
                  <stEvt:changed>/metadata</stEvt:changed>
               </rdf:li>
               <rdf:li rdf:parseType="Resource">
                  <stEvt:action>saved</stEvt:action>
                  <stEvt:instanceID>xmp.iid:48DBAEE431A1E511B74DC068EA16D1F9</stEvt:instanceID>
                  <stEvt:when>2015-12-12T19:38:56-05:00</stEvt:when>
                  <stEvt:softwareAgent>Adobe Audition CS6 (Windows)</stEvt:softwareAgent>
                  <stEvt:changed>/</stEvt:changed>
               </rdf:li>
               <rdf:li rdf:parseType="Resource">
                  <stEvt:action>saved</stEvt:action>
                  <stEvt:instanceID>xmp.iid:49DBAEE431A1E511B74DC068EA16D1F9</stEvt:instanceID>
                  <stEvt:when>2015-12-12T19:39:43-05:00</stEvt:when>
                  <stEvt:softwareAgent>Adobe Audition CS6 (Windows)</stEvt:softwareAgent>
                  <stEvt:changed>/metadata</stEvt:changed>
               </rdf:li>
               <rdf:li rdf:parseType="Resource">
                  <stEvt:action>saved</stEvt:action>
                  <stEvt:instanceID>xmp.iid:4ADBAEE431A1E511B74DC068EA16D1F9</stEvt:instanceID>
                  <stEvt:when>2015-12-12T19:39:43-05:00</stEvt:when>
                  <stEvt:softwareAgent>Adobe Audition CS6 (Windows)</stEvt:softwareAgent>
                  <stEvt:changed>/</stEvt:changed>
               </rdf:li>
               <rdf:li rdf:parseType="Resource">
                  <stEvt:action>saved</stEvt:action>
                  <stEvt:instanceID>xmp.iid:4BDBAEE431A1E511B74DC068EA16D1F9</stEvt:instanceID>
                  <stEvt:when>2015-12-12T19:41:19-05:00</stEvt:when>
                  <stEvt:softwareAgent>Adobe Audition CS6 (Windows)</stEvt:softwareAgent>
                  <stEvt:changed>/metadata</stEvt:changed>
               </rdf:li>
               <rdf:li rdf:parseType="Resource">
                  <stEvt:action>saved</stEvt:action>
                  <stEvt:instanceID>xmp.iid:4CDBAEE431A1E511B74DC068EA16D1F9</stEvt:instanceID>
                  <stEvt:when>2015-12-12T19:41:19-05:00</stEvt:when>
                  <stEvt:softwareAgent>Adobe Audition CS6 (Windows)</stEvt:softwareAgent>
                  <stEvt:changed>/</stEvt:changed>
               </rdf:li>
               <rdf:li rdf:parseType="Resource">
                  <stEvt:action>saved</stEvt:action>
                  <stEvt:instanceID>xmp.iid:4DDBAEE431A1E511B74DC068EA16D1F9</stEvt:instanceID>
                  <stEvt:when>2015-12-12T19:42:16-05:00</stEvt:when>
                  <stEvt:softwareAgent>Adobe Audition CS6 (Windows)</stEvt:softwareAgent>
                  <stEvt:changed>/metadata</stEvt:changed>
               </rdf:li>
               <rdf:li rdf:parseType="Resource">
                  <stEvt:action>saved</stEvt:action>
                  <stEvt:instanceID>xmp.iid:4EDBAEE431A1E511B74DC068EA16D1F9</stEvt:instanceID>
                  <stEvt:when>2015-12-12T19:42:16-05:00</stEvt:when>
                  <stEvt:softwareAgent>Adobe Audition CS6 (Windows)</stEvt:softwareAgent>
                  <stEvt:changed>/</stEvt:changed>
               </rdf:li>
               <rdf:li rdf:parseType="Resource">
                  <stEvt:action>saved</stEvt:action>
                  <stEvt:instanceID>xmp.iid:4FDBAEE431A1E511B74DC068EA16D1F9</stEvt:instanceID>
                  <stEvt:when>2015-12-12T19:43:09-05:00</stEvt:when>
                  <stEvt:softwareAgent>Adobe Audition CS6 (Windows)</stEvt:softwareAgent>
                  <stEvt:changed>/metadata</stEvt:changed>
               </rdf:li>
               <rdf:li rdf:parseType="Resource">
                  <stEvt:action>saved</stEvt:action>
                  <stEvt:instanceID>xmp.iid:50DBAEE431A1E511B74DC068EA16D1F9</stEvt:instanceID>
                  <stEvt:when>2015-12-12T19:43:09-05:00</stEvt:when>
                  <stEvt:softwareAgent>Adobe Audition CS6 (Windows)</stEvt:softwareAgent>
                  <stEvt:changed>/</stEvt:changed>
               </rdf:li>
               <rdf:li rdf:parseType="Resource">
                  <stEvt:action>saved</stEvt:action>
                  <stEvt:instanceID>xmp.iid:51DBAEE431A1E511B74DC068EA16D1F9</stEvt:instanceID>
                  <stEvt:when>2015-12-12T20:22:31-05:00</stEvt:when>
                  <stEvt:softwareAgent>Adobe Audition CS6 (Windows)</stEvt:softwareAgent>
                  <stEvt:changed>/metadata</stEvt:changed>
               </rdf:li>
               <rdf:li rdf:parseType="Resource">
                  <stEvt:action>saved</stEvt:action>
                  <stEvt:instanceID>xmp.iid:52DBAEE431A1E511B74DC068EA16D1F9</stEvt:instanceID>
                  <stEvt:when>2015-12-12T20:22:31-05:00</stEvt:when>
                  <stEvt:softwareAgent>Adobe Audition CS6 (Windows)</stEvt:softwareAgent>
                  <stEvt:changed>/</stEvt:changed>
               </rdf:li>
               <rdf:li rdf:parseType="Resource">
                  <stEvt:action>saved</stEvt:action>
                  <stEvt:instanceID>xmp.iid:530CB40F38A1E511B74DC068EA16D1F9</stEvt:instanceID>
                  <stEvt:when>2015-12-12T20:23:05-05:00</stEvt:when>
                  <stEvt:softwareAgent>Adobe Audition CS6 (Windows)</stEvt:softwareAgent>
                  <stEvt:changed>/metadata</stEvt:changed>
               </rdf:li>
               <rdf:li rdf:parseType="Resource">
                  <stEvt:action>saved</stEvt:action>
                  <stEvt:instanceID>xmp.iid:540CB40F38A1E511B74DC068EA16D1F9</stEvt:instanceID>
                  <stEvt:when>2015-12-12T20:23:05-05:00</stEvt:when>
                  <stEvt:softwareAgent>Adobe Audition CS6 (Windows)</stEvt:softwareAgent>
                  <stEvt:changed>/</stEvt:changed>
               </rdf:li>
               <rdf:li rdf:parseType="Resource">
                  <stEvt:action>saved</stEvt:action>
                  <stEvt:instanceID>xmp.iid:550CB40F38A1E511B74DC068EA16D1F9</stEvt:instanceID>
                  <stEvt:when>2015-12-12T20:33:33-05:00</stEvt:when>
                  <stEvt:softwareAgent>Adobe Audition CS6 (Windows)</stEvt:softwareAgent>
                  <stEvt:changed>/metadata</stEvt:changed>
               </rdf:li>
               <rdf:li rdf:parseType="Resource">
                  <stEvt:action>saved</stEvt:action>
                  <stEvt:instanceID>xmp.iid:560CB40F38A1E511B74DC068EA16D1F9</stEvt:instanceID>
                  <stEvt:when>2015-12-12T20:33:33-05:00</stEvt:when>
                  <stEvt:softwareAgent>Adobe Audition CS6 (Windows)</stEvt:softwareAgent>
                  <stEvt:changed>/</stEvt:changed>
               </rdf:li>
               <rdf:li rdf:parseType="Resource">
                  <stEvt:action>saved</stEvt:action>
                  <stEvt:instanceID>xmp.iid:570CB40F38A1E511B74DC068EA16D1F9</stEvt:instanceID>
                  <stEvt:when>2015-12-12T20:34:29-05:00</stEvt:when>
                  <stEvt:softwareAgent>Adobe Audition CS6 (Windows)</stEvt:softwareAgent>
                  <stEvt:changed>/metadata</stEvt:changed>
               </rdf:li>
               <rdf:li rdf:parseType="Resource">
                  <stEvt:action>saved</stEvt:action>
                  <stEvt:instanceID>xmp.iid:580CB40F38A1E511B74DC068EA16D1F9</stEvt:instanceID>
                  <stEvt:when>2015-12-12T20:34:29-05:00</stEvt:when>
                  <stEvt:softwareAgent>Adobe Audition CS6 (Windows)</stEvt:softwareAgent>
                  <stEvt:changed>/</stEvt:changed>
               </rdf:li>
               <rdf:li rdf:parseType="Resource">
                  <stEvt:action>saved</stEvt:action>
                  <stEvt:instanceID>xmp.iid:590CB40F38A1E511B74DC068EA16D1F9</stEvt:instanceID>
                  <stEvt:when>2015-12-12T20:39-05:00</stEvt:when>
                  <stEvt:softwareAgent>Adobe Audition CS6 (Windows)</stEvt:softwareAgent>
                  <stEvt:changed>/metadata</stEvt:changed>
               </rdf:li>
               <rdf:li rdf:parseType="Resource">
                  <stEvt:action>saved</stEvt:action>
                  <stEvt:instanceID>xmp.iid:5A0CB40F38A1E511B74DC068EA16D1F9</stEvt:instanceID>
                  <stEvt:when>2015-12-12T20:39-05:00</stEvt:when>
                  <stEvt:softwareAgent>Adobe Audition CS6 (Windows)</stEvt:softwareAgent>
                  <stEvt:changed>/</stEvt:changed>
               </rdf:li>
               <rdf:li rdf:parseType="Resource">
                  <stEvt:action>saved</stEvt:action>
                  <stEvt:instanceID>xmp.iid:5B0CB40F38A1E511B74DC068EA16D1F9</stEvt:instanceID>
                  <stEvt:when>2015-12-12T20:42:10-05:00</stEvt:when>
                  <stEvt:softwareAgent>Adobe Audition CS6 (Windows)</stEvt:softwareAgent>
                  <stEvt:changed>/metadata</stEvt:changed>
               </rdf:li>
               <rdf:li rdf:parseType="Resource">
                  <stEvt:action>saved</stEvt:action>
                  <stEvt:instanceID>xmp.iid:5C0CB40F38A1E511B74DC068EA16D1F9</stEvt:instanceID>
                  <stEvt:when>2015-12-12T20:42:10-05:00</stEvt:when>
                  <stEvt:softwareAgent>Adobe Audition CS6 (Windows)</stEvt:softwareAgent>
                  <stEvt:changed>/</stEvt:changed>
               </rdf:li>
               <rdf:li rdf:parseType="Resource">
                  <stEvt:action>saved</stEvt:action>
                  <stEvt:instanceID>xmp.iid:5D0CB40F38A1E511B74DC068EA16D1F9</stEvt:instanceID>
                  <stEvt:when>2015-12-12T20:45:05-05:00</stEvt:when>
                  <stEvt:softwareAgent>Adobe Audition CS6 (Windows)</stEvt:softwareAgent>
                  <stEvt:changed>/metadata</stEvt:changed>
               </rdf:li>
               <rdf:li rdf:parseType="Resource">
                  <stEvt:action>saved</stEvt:action>
                  <stEvt:instanceID>xmp.iid:467820223BA1E511B74DC068EA16D1F9</stEvt:instanceID>
                  <stEvt:when>2015-12-12T20:45:05-05:00</stEvt:when>
                  <stEvt:softwareAgent>Adobe Audition CS6 (Windows)</stEvt:softwareAgent>
                  <stEvt:changed>/</stEvt:changed>
               </rdf:li>
               <rdf:li rdf:parseType="Resource">
                  <stEvt:action>saved</stEvt:action>
                  <stEvt:instanceID>xmp.iid:477820223BA1E511B74DC068EA16D1F9</stEvt:instanceID>
                  <stEvt:when>2015-12-12T20:47:04-05:00</stEvt:when>
                  <stEvt:softwareAgent>Adobe Audition CS6 (Windows)</stEvt:softwareAgent>
                  <stEvt:changed>/metadata</stEvt:changed>
               </rdf:li>
               <rdf:li rdf:parseType="Resource">
                  <stEvt:action>saved</stEvt:action>
                  <stEvt:instanceID>xmp.iid:487820223BA1E511B74DC068EA16D1F9</stEvt:instanceID>
                  <stEvt:when>2015-12-12T20:47:04-05:00</stEvt:when>
                  <stEvt:softwareAgent>Adobe Audition CS6 (Windows)</stEvt:softwareAgent>
                  <stEvt:changed>/</stEvt:changed>
               </rdf:li>
               <rdf:li rdf:parseType="Resource">
                  <stEvt:action>saved</stEvt:action>
                  <stEvt:instanceID>xmp.iid:497820223BA1E511B74DC068EA16D1F9</stEvt:instanceID>
                  <stEvt:when>2015-12-12T20:48:05-05:00</stEvt:when>
                  <stEvt:softwareAgent>Adobe Audition CS6 (Windows)</stEvt:softwareAgent>
                  <stEvt:changed>/metadata</stEvt:changed>
               </rdf:li>
               <rdf:li rdf:parseType="Resource">
                  <stEvt:action>saved</stEvt:action>
                  <stEvt:instanceID>xmp.iid:4A7820223BA1E511B74DC068EA16D1F9</stEvt:instanceID>
                  <stEvt:when>2015-12-12T20:48:05-05:00</stEvt:when>
                  <stEvt:softwareAgent>Adobe Audition CS6 (Windows)</stEvt:softwareAgent>
                  <stEvt:changed>/</stEvt:changed>
               </rdf:li>
               <rdf:li rdf:parseType="Resource">
                  <stEvt:action>saved</stEvt:action>
                  <stEvt:instanceID>xmp.iid:4B7820223BA1E511B74DC068EA16D1F9</stEvt:instanceID>
                  <stEvt:when>2015-12-12T20:55:06-05:00</stEvt:when>
                  <stEvt:softwareAgent>Adobe Audition CS6 (Windows)</stEvt:softwareAgent>
                  <stEvt:changed>/metadata</stEvt:changed>
               </rdf:li>
               <rdf:li rdf:parseType="Resource">
                  <stEvt:action>saved</stEvt:action>
                  <stEvt:instanceID>xmp.iid:4C7820223BA1E511B74DC068EA16D1F9</stEvt:instanceID>
                  <stEvt:when>2015-12-12T20:55:06-05:00</stEvt:when>
                  <stEvt:softwareAgent>Adobe Audition CS6 (Windows)</stEvt:softwareAgent>
                  <stEvt:changed>/</stEvt:changed>
               </rdf:li>
               <rdf:li rdf:parseType="Resource">
                  <stEvt:action>saved</stEvt:action>
                  <stEvt:instanceID>xmp.iid:4D7820223BA1E511B74DC068EA16D1F9</stEvt:instanceID>
                  <stEvt:when>2015-12-12T20:59:23-05:00</stEvt:when>
                  <stEvt:softwareAgent>Adobe Audition CS6 (Windows)</stEvt:softwareAgent>
                  <stEvt:changed>/metadata</stEvt:changed>
               </rdf:li>
               <rdf:li rdf:parseType="Resource">
                  <stEvt:action>saved</stEvt:action>
                  <stEvt:instanceID>xmp.iid:4E7820223BA1E511B74DC068EA16D1F9</stEvt:instanceID>
                  <stEvt:when>2015-12-12T20:59:23-05:00</stEvt:when>
                  <stEvt:softwareAgent>Adobe Audition CS6 (Windows)</stEvt:softwareAgent>
                  <stEvt:changed>/</stEvt:changed>
               </rdf:li>
               <rdf:li rdf:parseType="Resource">
                  <stEvt:action>saved</stEvt:action>
                  <stEvt:instanceID>xmp.iid:4F7820223BA1E511B74DC068EA16D1F9</stEvt:instanceID>
                  <stEvt:when>2015-12-12T21:02:58-05:00</stEvt:when>
                  <stEvt:softwareAgent>Adobe Audition CS6 (Windows)</stEvt:softwareAgent>
                  <stEvt:changed>/metadata</stEvt:changed>
               </rdf:li>
               <rdf:li rdf:parseType="Resource">
                  <stEvt:action>saved</stEvt:action>
                  <stEvt:instanceID>xmp.iid:507820223BA1E511B74DC068EA16D1F9</stEvt:instanceID>
                  <stEvt:when>2015-12-12T21:02:58-05:00</stEvt:when>
                  <stEvt:softwareAgent>Adobe Audition CS6 (Windows)</stEvt:softwareAgent>
                  <stEvt:changed>/</stEvt:changed>
               </rdf:li>
               <rdf:li rdf:parseType="Resource">
                  <stEvt:action>saved</stEvt:action>
                  <stEvt:instanceID>xmp.iid:1D9E0EDE3DA1E511B74DC068EA16D1F9</stEvt:instanceID>
                  <stEvt:when>2015-12-12T21:04:39-05:00</stEvt:when>
                  <stEvt:softwareAgent>Adobe Audition CS6 (Windows)</stEvt:softwareAgent>
                  <stEvt:changed>/metadata</stEvt:changed>
               </rdf:li>
               <rdf:li rdf:parseType="Resource">
                  <stEvt:action>saved</stEvt:action>
                  <stEvt:instanceID>xmp.iid:1E9E0EDE3DA1E511B74DC068EA16D1F9</stEvt:instanceID>
                  <stEvt:when>2015-12-12T21:04:39-05:00</stEvt:when>
                  <stEvt:softwareAgent>Adobe Audition CS6 (Windows)</stEvt:softwareAgent>
                  <stEvt:changed>/</stEvt:changed>
               </rdf:li>
               <rdf:li rdf:parseType="Resource">
                  <stEvt:action>saved</stEvt:action>
                  <stEvt:instanceID>xmp.iid:1F9E0EDE3DA1E511B74DC068EA16D1F9</stEvt:instanceID>
                  <stEvt:when>2015-12-12T21:04:47-05:00</stEvt:when>
                  <stEvt:softwareAgent>Adobe Audition CS6 (Windows)</stEvt:softwareAgent>
                  <stEvt:changed>/metadata</stEvt:changed>
               </rdf:li>
               <rdf:li rdf:parseType="Resource">
                  <stEvt:action>saved</stEvt:action>
                  <stEvt:instanceID>xmp.iid:209E0EDE3DA1E511B74DC068EA16D1F9</stEvt:instanceID>
                  <stEvt:when>2015-12-12T21:04:47-05:00</stEvt:when>
                  <stEvt:softwareAgent>Adobe Audition CS6 (Windows)</stEvt:softwareAgent>
                  <stEvt:changed>/</stEvt:changed>
               </rdf:li>
               <rdf:li rdf:parseType="Resource">
                  <stEvt:action>saved</stEvt:action>
                  <stEvt:instanceID>xmp.iid:219E0EDE3DA1E511B74DC068EA16D1F9</stEvt:instanceID>
                  <stEvt:when>2015-12-12T21:36:03-05:00</stEvt:when>
                  <stEvt:softwareAgent>Adobe Audition CS6 (Windows)</stEvt:softwareAgent>
                  <stEvt:changed>/metadata</stEvt:changed>
               </rdf:li>
               <rdf:li rdf:parseType="Resource">
                  <stEvt:action>saved</stEvt:action>
                  <stEvt:instanceID>xmp.iid:229E0EDE3DA1E511B74DC068EA16D1F9</stEvt:instanceID>
                  <stEvt:when>2015-12-12T21:36:03-05:00</stEvt:when>
                  <stEvt:softwareAgent>Adobe Audition CS6 (Windows)</stEvt:softwareAgent>
                  <stEvt:changed>/</stEvt:changed>
               </rdf:li>
               <rdf:li rdf:parseType="Resource">
                  <stEvt:action>saved</stEvt:action>
                  <stEvt:instanceID>xmp.iid:239E0EDE3DA1E511B74DC068EA16D1F9</stEvt:instanceID>
                  <stEvt:when>2015-12-12T21:38:11-05:00</stEvt:when>
                  <stEvt:softwareAgent>Adobe Audition CS6 (Windows)</stEvt:softwareAgent>
                  <stEvt:changed>/metadata</stEvt:changed>
               </rdf:li>
               <rdf:li rdf:parseType="Resource">
                  <stEvt:action>saved</stEvt:action>
                  <stEvt:instanceID>xmp.iid:249E0EDE3DA1E511B74DC068EA16D1F9</stEvt:instanceID>
                  <stEvt:when>2015-12-12T21:38:11-05:00</stEvt:when>
                  <stEvt:softwareAgent>Adobe Audition CS6 (Windows)</stEvt:softwareAgent>
                  <stEvt:changed>/</stEvt:changed>
               </rdf:li>
               <rdf:li rdf:parseType="Resource">
                  <stEvt:action>saved</stEvt:action>
                  <stEvt:instanceID>xmp.iid:259E0EDE3DA1E511B74DC068EA16D1F9</stEvt:instanceID>
                  <stEvt:when>2015-12-12T21:49:16-05:00</stEvt:when>
                  <stEvt:softwareAgent>Adobe Audition CS6 (Windows)</stEvt:softwareAgent>
                  <stEvt:changed>/metadata</stEvt:changed>
               </rdf:li>
               <rdf:li rdf:parseType="Resource">
                  <stEvt:action>saved</stEvt:action>
                  <stEvt:instanceID>xmp.iid:269E0EDE3DA1E511B74DC068EA16D1F9</stEvt:instanceID>
                  <stEvt:when>2015-12-12T21:49:16-05:00</stEvt:when>
                  <stEvt:softwareAgent>Adobe Audition CS6 (Windows)</stEvt:softwareAgent>
                  <stEvt:changed>/</stEvt:changed>
               </rdf:li>
               <rdf:li rdf:parseType="Resource">
                  <stEvt:action>saved</stEvt:action>
                  <stEvt:instanceID>xmp.iid:4A07488445A1E511B74DC068EA16D1F9</stEvt:instanceID>
                  <stEvt:when>2015-12-12T22:00:04-05:00</stEvt:when>
                  <stEvt:softwareAgent>Adobe Audition CS6 (Windows)</stEvt:softwareAgent>
                  <stEvt:changed>/metadata</stEvt:changed>
               </rdf:li>
               <rdf:li rdf:parseType="Resource">
                  <stEvt:action>saved</stEvt:action>
                  <stEvt:instanceID>xmp.iid:4B07488445A1E511B74DC068EA16D1F9</stEvt:instanceID>
                  <stEvt:when>2015-12-12T22:00:04-05:00</stEvt:when>
                  <stEvt:softwareAgent>Adobe Audition CS6 (Windows)</stEvt:softwareAgent>
                  <stEvt:changed>/</stEvt:changed>
               </rdf:li>
               <rdf:li rdf:parseType="Resource">
                  <stEvt:action>saved</stEvt:action>
                  <stEvt:instanceID>xmp.iid:4E07488445A1E511B74DC068EA16D1F9</stEvt:instanceID>
                  <stEvt:when>2015-12-12T22:10:35-05:00</stEvt:when>
                  <stEvt:softwareAgent>Adobe Audition CS6 (Windows)</stEvt:softwareAgent>
                  <stEvt:changed>/metadata</stEvt:changed>
               </rdf:li>
               <rdf:li rdf:parseType="Resource">
                  <stEvt:action>saved</stEvt:action>
                  <stEvt:instanceID>xmp.iid:4F07488445A1E511B74DC068EA16D1F9</stEvt:instanceID>
                  <stEvt:when>2015-12-12T22:10:35-05:00</stEvt:when>
                  <stEvt:softwareAgent>Adobe Audition CS6 (Windows)</stEvt:softwareAgent>
                  <stEvt:changed>/</stEvt:changed>
               </rdf:li>
               <rdf:li rdf:parseType="Resource">
                  <stEvt:action>saved</stEvt:action>
                  <stEvt:instanceID>xmp.iid:5207488445A1E511B74DC068EA16D1F9</stEvt:instanceID>
                  <stEvt:when>2015-12-12T22:15:27-05:00</stEvt:when>
                  <stEvt:softwareAgent>Adobe Audition CS6 (Windows)</stEvt:softwareAgent>
                  <stEvt:changed>/metadata</stEvt:changed>
               </rdf:li>
               <rdf:li rdf:parseType="Resource">
                  <stEvt:action>saved</stEvt:action>
                  <stEvt:instanceID>xmp.iid:5307488445A1E511B74DC068EA16D1F9</stEvt:instanceID>
                  <stEvt:when>2015-12-12T22:15:27-05:00</stEvt:when>
                  <stEvt:softwareAgent>Adobe Audition CS6 (Windows)</stEvt:softwareAgent>
                  <stEvt:changed>/</stEvt:changed>
               </rdf:li>
               <rdf:li rdf:parseType="Resource">
                  <stEvt:action>saved</stEvt:action>
                  <stEvt:instanceID>xmp.iid:E8DB080448A1E511B74DC068EA16D1F9</stEvt:instanceID>
                  <stEvt:when>2015-12-12T22:17:18-05:00</stEvt:when>
                  <stEvt:softwareAgent>Adobe Audition CS6 (Windows)</stEvt:softwareAgent>
                  <stEvt:changed>/metadata</stEvt:changed>
               </rdf:li>
               <rdf:li rdf:parseType="Resource">
                  <stEvt:action>saved</stEvt:action>
                  <stEvt:instanceID>xmp.iid:E9DB080448A1E511B74DC068EA16D1F9</stEvt:instanceID>
                  <stEvt:when>2015-12-12T22:17:18-05:00</stEvt:when>
                  <stEvt:softwareAgent>Adobe Audition CS6 (Windows)</stEvt:softwareAgent>
                  <stEvt:changed>/</stEvt:changed>
               </rdf:li>
               <rdf:li rdf:parseType="Resource">
                  <stEvt:action>saved</stEvt:action>
                  <stEvt:instanceID>xmp.iid:ECDB080448A1E511B74DC068EA16D1F9</stEvt:instanceID>
                  <stEvt:when>2015-12-12T22:19:40-05:00</stEvt:when>
                  <stEvt:softwareAgent>Adobe Audition CS6 (Windows)</stEvt:softwareAgent>
                  <stEvt:changed>/metadata</stEvt:changed>
               </rdf:li>
               <rdf:li rdf:parseType="Resource">
                  <stEvt:action>saved</stEvt:action>
                  <stEvt:instanceID>xmp.iid:EDDB080448A1E511B74DC068EA16D1F9</stEvt:instanceID>
                  <stEvt:when>2015-12-12T22:19:40-05:00</stEvt:when>
                  <stEvt:softwareAgent>Adobe Audition CS6 (Windows)</stEvt:softwareAgent>
                  <stEvt:changed>/</stEvt:changed>
               </rdf:li>
               <rdf:li rdf:parseType="Resource">
                  <stEvt:action>saved</stEvt:action>
                  <stEvt:instanceID>xmp.iid:F0DB080448A1E511B74DC068EA16D1F9</stEvt:instanceID>
                  <stEvt:when>2015-12-12T22:21:20-05:00</stEvt:when>
                  <stEvt:softwareAgent>Adobe Audition CS6 (Windows)</stEvt:softwareAgent>
                  <stEvt:changed>/metadata</stEvt:changed>
               </rdf:li>
               <rdf:li rdf:parseType="Resource">
                  <stEvt:action>saved</stEvt:action>
                  <stEvt:instanceID>xmp.iid:91918D9448A1E511B74DC068EA16D1F9</stEvt:instanceID>
                  <stEvt:when>2015-12-12T22:21:20-05:00</stEvt:when>
                  <stEvt:softwareAgent>Adobe Audition CS6 (Windows)</stEvt:softwareAgent>
                  <stEvt:changed>/</stEvt:changed>
               </rdf:li>
               <rdf:li rdf:parseType="Resource">
                  <stEvt:action>saved</stEvt:action>
                  <stEvt:instanceID>xmp.iid:94918D9448A1E511B74DC068EA16D1F9</stEvt:instanceID>
                  <stEvt:when>2015-12-12T22:26:07-05:00</stEvt:when>
                  <stEvt:softwareAgent>Adobe Audition CS6 (Windows)</stEvt:softwareAgent>
                  <stEvt:changed>/metadata</stEvt:changed>
               </rdf:li>
               <rdf:li rdf:parseType="Resource">
                  <stEvt:action>saved</stEvt:action>
                  <stEvt:instanceID>xmp.iid:95918D9448A1E511B74DC068EA16D1F9</stEvt:instanceID>
                  <stEvt:when>2015-12-12T22:26:07-05:00</stEvt:when>
                  <stEvt:softwareAgent>Adobe Audition CS6 (Windows)</stEvt:softwareAgent>
                  <stEvt:changed>/</stEvt:changed>
               </rdf:li>
               <rdf:li rdf:parseType="Resource">
                  <stEvt:action>saved</stEvt:action>
                  <stEvt:instanceID>xmp.iid:96918D9448A1E511B74DC068EA16D1F9</stEvt:instanceID>
                  <stEvt:when>2015-12-12T22:27:57-05:00</stEvt:when>
                  <stEvt:softwareAgent>Adobe Audition CS6 (Windows)</stEvt:softwareAgent>
                  <stEvt:changed>/metadata</stEvt:changed>
               </rdf:li>
               <rdf:li rdf:parseType="Resource">
                  <stEvt:action>saved</stEvt:action>
                  <stEvt:instanceID>xmp.iid:97918D9448A1E511B74DC068EA16D1F9</stEvt:instanceID>
                  <stEvt:when>2015-12-12T22:27:57-05:00</stEvt:when>
                  <stEvt:softwareAgent>Adobe Audition CS6 (Windows)</stEvt:softwareAgent>
                  <stEvt:changed>/</stEvt:changed>
               </rdf:li>
               <rdf:li rdf:parseType="Resource">
                  <stEvt:action>saved</stEvt:action>
                  <stEvt:instanceID>xmp.iid:98918D9448A1E511B74DC068EA16D1F9</stEvt:instanceID>
                  <stEvt:when>2015-12-12T22:29:32-05:00</stEvt:when>
                  <stEvt:softwareAgent>Adobe Audition CS6 (Windows)</stEvt:softwareAgent>
                  <stEvt:changed>/metadata</stEvt:changed>
               </rdf:li>
               <rdf:li rdf:parseType="Resource">
                  <stEvt:action>saved</stEvt:action>
                  <stEvt:instanceID>xmp.iid:99918D9448A1E511B74DC068EA16D1F9</stEvt:instanceID>
                  <stEvt:when>2015-12-12T22:29:32-05:00</stEvt:when>
                  <stEvt:softwareAgent>Adobe Audition CS6 (Windows)</stEvt:softwareAgent>
                  <stEvt:changed>/</stEvt:changed>
               </rdf:li>
               <rdf:li rdf:parseType="Resource">
                  <stEvt:action>saved</stEvt:action>
                  <stEvt:instanceID>xmp.iid:9A918D9448A1E511B74DC068EA16D1F9</stEvt:instanceID>
                  <stEvt:when>2015-12-12T22:30:39-05:00</stEvt:when>
                  <stEvt:softwareAgent>Adobe Audition CS6 (Windows)</stEvt:softwareAgent>
                  <stEvt:changed>/metadata</stEvt:changed>
               </rdf:li>
               <rdf:li rdf:parseType="Resource">
                  <stEvt:action>saved</stEvt:action>
                  <stEvt:instanceID>xmp.iid:9B918D9448A1E511B74DC068EA16D1F9</stEvt:instanceID>
                  <stEvt:when>2015-12-12T22:30:39-05:00</stEvt:when>
                  <stEvt:softwareAgent>Adobe Audition CS6 (Windows)</stEvt:softwareAgent>
                  <stEvt:changed>/</stEvt:changed>
               </rdf:li>
               <rdf:li rdf:parseType="Resource">
                  <stEvt:action>saved</stEvt:action>
                  <stEvt:instanceID>xmp.iid:8B82BEF549A1E511B74DC068EA16D1F9</stEvt:instanceID>
                  <stEvt:when>2015-12-12T22:31:40-05:00</stEvt:when>
                  <stEvt:softwareAgent>Adobe Audition CS6 (Windows)</stEvt:softwareAgent>
                  <stEvt:changed>/metadata</stEvt:changed>
               </rdf:li>
               <rdf:li rdf:parseType="Resource">
                  <stEvt:action>saved</stEvt:action>
                  <stEvt:instanceID>xmp.iid:8C82BEF549A1E511B74DC068EA16D1F9</stEvt:instanceID>
                  <stEvt:when>2015-12-12T22:31:40-05:00</stEvt:when>
                  <stEvt:softwareAgent>Adobe Audition CS6 (Windows)</stEvt:softwareAgent>
                  <stEvt:changed>/</stEvt:changed>
               </rdf:li>
               <rdf:li rdf:parseType="Resource">
                  <stEvt:action>saved</stEvt:action>
                  <stEvt:instanceID>xmp.iid:1DFF205E4AA1E511B74DC068EA16D1F9</stEvt:instanceID>
                  <stEvt:when>2015-12-12T22:34:08-05:00</stEvt:when>
                  <stEvt:softwareAgent>Adobe Audition CS6 (Windows)</stEvt:softwareAgent>
                  <stEvt:changed>/metadata</stEvt:changed>
               </rdf:li>
               <rdf:li rdf:parseType="Resource">
                  <stEvt:action>saved</stEvt:action>
                  <stEvt:instanceID>xmp.iid:1EFF205E4AA1E511B74DC068EA16D1F9</stEvt:instanceID>
                  <stEvt:when>2015-12-12T22:34:08-05:00</stEvt:when>
                  <stEvt:softwareAgent>Adobe Audition CS6 (Windows)</stEvt:softwareAgent>
                  <stEvt:changed>/</stEvt:changed>
               </rdf:li>
               <rdf:li rdf:parseType="Resource">
                  <stEvt:action>saved</stEvt:action>
                  <stEvt:instanceID>xmp.iid:1FFF205E4AA1E511B74DC068EA16D1F9</stEvt:instanceID>
                  <stEvt:when>2015-12-12T22:40:03-05:00</stEvt:when>
                  <stEvt:softwareAgent>Adobe Audition CS6 (Windows)</stEvt:softwareAgent>
                  <stEvt:changed>/metadata</stEvt:changed>
               </rdf:li>
               <rdf:li rdf:parseType="Resource">
                  <stEvt:action>saved</stEvt:action>
                  <stEvt:instanceID>xmp.iid:20FF205E4AA1E511B74DC068EA16D1F9</stEvt:instanceID>
                  <stEvt:when>2015-12-12T22:40:03-05:00</stEvt:when>
                  <stEvt:softwareAgent>Adobe Audition CS6 (Windows)</stEvt:softwareAgent>
                  <stEvt:changed>/</stEvt:changed>
               </rdf:li>
               <rdf:li rdf:parseType="Resource">
                  <stEvt:action>saved</stEvt:action>
                  <stEvt:instanceID>xmp.iid:24FF205E4AA1E511B74DC068EA16D1F9</stEvt:instanceID>
                  <stEvt:when>2015-12-12T22:45:25-05:00</stEvt:when>
                  <stEvt:softwareAgent>Adobe Audition CS6 (Windows)</stEvt:softwareAgent>
                  <stEvt:changed>/metadata</stEvt:changed>
               </rdf:li>
               <rdf:li rdf:parseType="Resource">
                  <stEvt:action>saved</stEvt:action>
                  <stEvt:instanceID>xmp.iid:25FF205E4AA1E511B74DC068EA16D1F9</stEvt:instanceID>
                  <stEvt:when>2015-12-12T22:45:25-05:00</stEvt:when>
                  <stEvt:softwareAgent>Adobe Audition CS6 (Windows)</stEvt:softwareAgent>
                  <stEvt:changed>/</stEvt:changed>
               </rdf:li>
               <rdf:li rdf:parseType="Resource">
                  <stEvt:action>saved</stEvt:action>
                  <stEvt:instanceID>xmp.iid:26FF205E4AA1E511B74DC068EA16D1F9</stEvt:instanceID>
                  <stEvt:when>2015-12-12T22:46:44-05:00</stEvt:when>
                  <stEvt:softwareAgent>Adobe Audition CS6 (Windows)</stEvt:softwareAgent>
                  <stEvt:changed>/metadata</stEvt:changed>
               </rdf:li>
               <rdf:li rdf:parseType="Resource">
                  <stEvt:action>saved</stEvt:action>
                  <stEvt:instanceID>xmp.iid:A31BC9204CA1E511B74DC068EA16D1F9</stEvt:instanceID>
                  <stEvt:when>2015-12-12T22:46:44-05:00</stEvt:when>
                  <stEvt:softwareAgent>Adobe Audition CS6 (Windows)</stEvt:softwareAgent>
                  <stEvt:changed>/</stEvt:changed>
               </rdf:li>
               <rdf:li rdf:parseType="Resource">
                  <stEvt:action>saved</stEvt:action>
                  <stEvt:instanceID>xmp.iid:A41BC9204CA1E511B74DC068EA16D1F9</stEvt:instanceID>
                  <stEvt:when>2015-12-12T22:47:01-05:00</stEvt:when>
                  <stEvt:softwareAgent>Adobe Audition CS6 (Windows)</stEvt:softwareAgent>
                  <stEvt:changed>/metadata</stEvt:changed>
               </rdf:li>
               <rdf:li rdf:parseType="Resource">
                  <stEvt:action>saved</stEvt:action>
                  <stEvt:instanceID>xmp.iid:A51BC9204CA1E511B74DC068EA16D1F9</stEvt:instanceID>
                  <stEvt:when>2015-12-12T22:47:01-05:00</stEvt:when>
                  <stEvt:softwareAgent>Adobe Audition CS6 (Windows)</stEvt:softwareAgent>
                  <stEvt:changed>/</stEvt:changed>
               </rdf:li>
            </rdf:Seq>
         </xmpMM:History>
         <xmpMM:DerivedFrom rdf:parseType="Resource">
            <stRef:instanceID>xmp.iid:8B82BEF549A1E511B74DC068EA16D1F9</stRef:instanceID>
            <stRef:documentID>xmp.did:4F07488445A1E511B74DC068EA16D1F9</stRef:documentID>
            <stRef:originalDocumentID>xmp.did:E5FB330FFB48E511A2D1BBC3C628D6EF</stRef:originalDocumentID>
         </xmpMM:DerivedFrom>
      </rdf:Description>
      <rdf:Description rdf:about=""
            xmlns:dc="http://purl.org/dc/elements/1.1/">
         <dc:format>application/xml</dc:format>
      </rdf:Description>
      <rdf:Description rdf:about=""
            xmlns:xmpDM="http://ns.adobe.com/xmp/1.0/DynamicMedia/">
         <xmpDM:Tracks>
            <rdf:Bag>
               <rdf:li rdf:parseType="Resource">
                  <xmpDM:trackName>CuePoint Markers</xmpDM:trackName>
                  <xmpDM:trackType>Cue</xmpDM:trackType>
                  <xmpDM:frameRate>f44100</xmpDM:frameRate>
               </rdf:li>
               <rdf:li rdf:parseType="Resource">
                  <xmpDM:trackName>Subclip Markers</xmpDM:trackName>
                  <xmpDM:trackType>InOut</xmpDM:trackType>
                  <xmpDM:frameRate>f44100</xmpDM:frameRate>
               </rdf:li>
            </rdf:Bag>
         </xmpDM:Tracks>
      </rdf:Description>
   </rdf:RDF>
</x:xmpmeta>
                                                                                                    
                                                                                                    
                                                                                                    
                                                                                                    
                                                                                                    
                                                                                                    
                                                                                                    
                                                                                                    
                                                                                                    
                                                                                                    
                                                                                                    
                                                                                                    
                                                                                                    
                                                                                                    
                                                                                                    
                                                                                                    
                                                                                                    
                                                                                                    
                                                                                                    
                                                                                                    
                           
<?xpacket end="w"?>]]></xmpMetadata>
    <clipGroups>
      <clipGroup hue="246" id="0">
        <name>Grupo 41</name>
        <item clipID="4" trackID="10036"/>
        <item clipID="3" trackID="10036"/>
        <item clipID="2" trackID="10036"/>
        <item clipID="1" trackID="10036"/>
      </clipGroup>
      <clipGroup hue="326" id="1">
        <name>Grupo 36</name>
        <item clipID="6" trackID="10024"/>
        <item clipID="7" trackID="10024"/>
      </clipGroup>
      <clipGroup hue="46" id="2">
        <name>Grupo 35</name>
        <item clipID="3" trackID="10024"/>
        <item clipID="2" trackID="10024"/>
      </clipGroup>
      <clipGroup hue="126" id="3">
        <name>Grupo 34</name>
        <item clipID="9" trackID="10013"/>
        <item clipID="7" trackID="10013"/>
        <item clipID="8" trackID="10013"/>
      </clipGroup>
      <clipGroup hue="246" id="4">
        <name>Grupo 33</name>
        <item clipID="10" trackID="10014"/>
        <item clipID="13" trackID="10014"/>
        <item clipID="12" trackID="10014"/>
        <item clipID="11" trackID="10014"/>
      </clipGroup>
      <clipGroup hue="326" id="5">
        <name>Grupo 32</name>
        <item clipID="3" trackID="10013"/>
        <item clipID="1" trackID="10013"/>
        <item clipID="2" trackID="10013"/>
      </clipGroup>
      <clipGroup hue="126" id="6">
        <name>Grupo 30</name>
        <item clipID="5" trackID="10004"/>
        <item clipID="6" trackID="10004"/>
      </clipGroup>
      <clipGroup hue="326" id="7">
        <name>Grupo 28</name>
        <item clipID="1" trackID="10004"/>
        <item clipID="2" trackID="10004"/>
      </clipGroup>
      <clipGroup hue="46" id="8">
        <name>Grupo 27</name>
        <item clipID="7" trackID="10012"/>
        <item clipID="6" trackID="10012"/>
      </clipGroup>
      <clipGroup hue="246" id="9">
        <name>Grupo 25</name>
        <item clipID="2" trackID="10012"/>
        <item clipID="3" trackID="10012"/>
      </clipGroup>
      <clipGroup hue="46" id="10">
        <name>Grupo 23</name>
        <item clipID="4" trackID="10014"/>
        <item clipID="7" trackID="10014"/>
        <item clipID="6" trackID="10014"/>
        <item clipID="5" trackID="10014"/>
      </clipGroup>
      <clipGroup hue="46" id="11">
        <name>Grupo 11</name>
        <item clipID="7" trackID="10003"/>
        <item clipID="12" trackID="10003"/>
        <item clipID="10" trackID="10003"/>
        <item clipID="9" trackID="10003"/>
        <item clipID="8" trackID="10003"/>
        <item clipID="11" trackID="10003"/>
      </clipGroup>
      <clipGroup hue="126" id="12">
        <name>Grupo 10</name>
        <item clipID="36" trackID="10012"/>
        <item clipID="29" trackID="10012"/>
        <item clipID="30" trackID="10012"/>
        <item clipID="31" trackID="10012"/>
        <item clipID="32" trackID="10012"/>
        <item clipID="33" trackID="10012"/>
        <item clipID="35" trackID="10012"/>
        <item clipID="34" trackID="10012"/>
      </clipGroup>
      <clipGroup hue="46" id="13">
        <name>Grupo 07</name>
        <item clipID="38" trackID="10014"/>
        <item clipID="26" trackID="10014"/>
        <item clipID="23" trackID="10014"/>
        <item clipID="32" trackID="10014"/>
        <item clipID="33" trackID="10014"/>
        <item clipID="34" trackID="10014"/>
        <item clipID="24" trackID="10014"/>
        <item clipID="28" trackID="10014"/>
        <item clipID="25" trackID="10014"/>
        <item clipID="31" trackID="10014"/>
        <item clipID="30" trackID="10014"/>
        <item clipID="35" trackID="10014"/>
        <item clipID="29" trackID="10014"/>
        <item clipID="37" trackID="10014"/>
        <item clipID="36" trackID="10014"/>
        <item clipID="27" trackID="10014"/>
      </clipGroup>
      <clipGroup hue="246" id="14">
        <name>Grupo 05</name>
        <item clipID="21" trackID="10002"/>
        <item clipID="24" trackID="10002"/>
        <item clipID="27" trackID="10002"/>
        <item clipID="12" trackID="10002"/>
        <item clipID="26" trackID="10002"/>
        <item clipID="18" trackID="10002"/>
        <item clipID="17" trackID="10002"/>
        <item clipID="13" trackID="10002"/>
        <item clipID="15" trackID="10002"/>
        <item clipID="14" trackID="10002"/>
        <item clipID="22" trackID="10002"/>
        <item clipID="20" trackID="10002"/>
        <item clipID="19" trackID="10002"/>
        <item clipID="25" trackID="10002"/>
        <item clipID="16" trackID="10002"/>
        <item clipID="23" trackID="10002"/>
      </clipGroup>
      <clipGroup hue="326" id="15">
        <name>Grupo 04</name>
        <item clipID="18" trackID="10004"/>
        <item clipID="15" trackID="10004"/>
        <item clipID="30" trackID="10004"/>
        <item clipID="17" trackID="10004"/>
        <item clipID="21" trackID="10004"/>
        <item clipID="22" trackID="10004"/>
        <item clipID="25" trackID="10004"/>
        <item clipID="20" trackID="10004"/>
        <item clipID="23" trackID="10004"/>
        <item clipID="26" trackID="10004"/>
        <item clipID="19" trackID="10004"/>
        <item clipID="16" trackID="10004"/>
        <item clipID="24" trackID="10004"/>
        <item clipID="28" trackID="10004"/>
        <item clipID="27" trackID="10004"/>
        <item clipID="29" trackID="10004"/>
      </clipGroup>
      <clipGroup hue="206" id="16">
        <name>Grupo 01</name>
        <item clipID="39" trackID="10014"/>
        <item clipID="53" trackID="10014"/>
        <item clipID="47" trackID="10014"/>
        <item clipID="46" trackID="10014"/>
        <item clipID="45" trackID="10014"/>
        <item clipID="44" trackID="10014"/>
        <item clipID="51" trackID="10014"/>
        <item clipID="48" trackID="10014"/>
        <item clipID="41" trackID="10014"/>
        <item clipID="52" trackID="10014"/>
        <item clipID="43" trackID="10014"/>
        <item clipID="42" trackID="10014"/>
        <item clipID="50" trackID="10014"/>
        <item clipID="49" trackID="10014"/>
        <item clipID="40" trackID="10014"/>
      </clipGroup>
      <clipGroup hue="126" id="17">
        <name>Grupo 02</name>
        <item clipID="58" trackID="10014"/>
        <item clipID="54" trackID="10014"/>
        <item clipID="59" trackID="10014"/>
        <item clipID="55" trackID="10014"/>
        <item clipID="56" trackID="10014"/>
        <item clipID="57" trackID="10014"/>
      </clipGroup>
      <clipGroup hue="46" id="18">
        <name>Grupo 03</name>
        <item clipID="19" trackID="10012"/>
        <item clipID="27" trackID="10012"/>
        <item clipID="28" trackID="10012"/>
        <item clipID="26" trackID="10012"/>
        <item clipID="25" trackID="10012"/>
        <item clipID="23" trackID="10012"/>
        <item clipID="24" trackID="10012"/>
        <item clipID="22" trackID="10012"/>
        <item clipID="21" trackID="10012"/>
        <item clipID="20" trackID="10012"/>
      </clipGroup>
      <clipGroup hue="126" id="19">
        <name>Grupo 14</name>
        <item clipID="37" trackID="10012"/>
        <item clipID="38" trackID="10012"/>
      </clipGroup>
      <clipGroup hue="46" id="20">
        <name>Grupo 15</name>
        <item clipID="9" trackID="10004"/>
        <item clipID="14" trackID="10004"/>
        <item clipID="8" trackID="10004"/>
        <item clipID="12" trackID="10004"/>
        <item clipID="10" trackID="10004"/>
        <item clipID="13" trackID="10004"/>
        <item clipID="11" trackID="10004"/>
      </clipGroup>
      <clipGroup hue="326" id="21">
        <name>Grupo 16</name>
        <item clipID="20" trackID="10024"/>
        <item clipID="21" trackID="10024"/>
        <item clipID="24" trackID="10024"/>
        <item clipID="22" trackID="10024"/>
        <item clipID="25" trackID="10024"/>
        <item clipID="23" trackID="10024"/>
        <item clipID="27" trackID="10024"/>
        <item clipID="28" trackID="10024"/>
        <item clipID="26" trackID="10024"/>
      </clipGroup>
      <clipGroup hue="246" id="22">
        <name>Grupo 17</name>
        <item clipID="0" trackID="10011"/>
        <item clipID="29" trackID="10024"/>
        <item clipID="36" trackID="10024"/>
        <item clipID="31" trackID="10024"/>
        <item clipID="34" trackID="10024"/>
        <item clipID="33" trackID="10024"/>
        <item clipID="35" trackID="10024"/>
        <item clipID="32" trackID="10024"/>
        <item clipID="30" trackID="10024"/>
      </clipGroup>
      <clipGroup hue="126" id="23">
        <name>Grupo 18</name>
        <item clipID="15" trackID="10013"/>
        <item clipID="18" trackID="10013"/>
        <item clipID="19" trackID="10013"/>
        <item clipID="20" trackID="10013"/>
        <item clipID="21" trackID="10013"/>
        <item clipID="17" trackID="10013"/>
        <item clipID="16" trackID="10013"/>
      </clipGroup>
      <clipGroup hue="246" id="24">
        <name>Grupo 37</name>
        <item clipID="2" trackID="10002"/>
        <item clipID="1" trackID="10002"/>
      </clipGroup>
      <clipGroup hue="126" id="25">
        <name>Grupo 38</name>
        <item clipID="6" trackID="10002"/>
        <item clipID="5" trackID="10002"/>
      </clipGroup>
    </clipGroups>
    <metronome enabled="false" pattern="subdivision subdivision subdivision upBeat " soundSet="sticks">
      <metronomeTrack automationLaneOpenState="false" id="40000" index="0" select="false" visible="false">
        <trackParameters trackHeight="55">
          <name>Metrónomo</name>
        </trackParameters>
        <trackAudioParameters audioChannelType="mono" automationMode="1" monitoring="false" recordArmed="false" solo="false" soloSafe="true">
          <trackOutput outputID="10000" type="trackID"/>
          <trackInput inputID="-1"/>
          <component componentID="Audition.Fader" id="trackFader" name="volume" powered="true">
            <parameter index="0" name="volume" parameterValue="0.5011872"/>
            <parameter index="1" name="static gain" parameterValue="1"/>
          </component>
          <component componentID="Audition.Mute" id="trackMute" name="Mute" powered="true">
            <parameter index="0" parameterValue="0"/>
            <parameter index="1" name="mute" parameterValue="1"/>
          </component>
          <component componentID="Audition.StereoPanner" id="trackPan" name="StereoPanner" powered="true">
            <parameter index="0" name="Panorámica" parameterValue="0"/>
          </component>
          <component componentID="Audition.EQ" id="trackEQ" name="EQ" powered="false">
            <parameter index="0" name="Frecuencia estante inferior" parameterValue="0.0009079"/>
            <parameter index="1" name="Ganancia estante inferior" parameterValue="0.5"/>
            <parameter index="2" name="Frecuencia estante superior" parameterValue="0.8161598"/>
            <parameter index="3" name="Ganancia estante superior" parameterValue="0.5"/>
            <parameter index="4" name="Frecuencia central de banda de EC 1" parameterValue="0.0013618"/>
            <parameter index="5" name="Valor Q de banda de EC 1" parameterValue="0.0002"/>
            <parameter index="6" name="Ganancia de banda de EC 1" parameterValue="0.5"/>
            <parameter index="7" name="Activación de banda de EC 1" parameterValue="1"/>
            <parameter index="8" name="Frecuencia central de banda de EC 2" parameterValue="0.0081707"/>
            <parameter index="9" name="Valor Q de banda de EC 2" parameterValue="0.0002"/>
            <parameter index="10" name="Ganancia de banda de EC 2" parameterValue="0.5"/>
            <parameter index="11" name="Activación de banda de EC 2" parameterValue="1"/>
            <parameter index="12" name="Frecuencia central de banda de EC 3" parameterValue="0.0354063"/>
            <parameter index="13" name="Valor Q de banda de EC 3" parameterValue="0.0002"/>
            <parameter index="14" name="Ganancia de banda de EC 3" parameterValue="0.5"/>
            <parameter index="15" name="Activación de banda de EC 3" parameterValue="1"/>
            <parameter index="16" name="Frecuencia central de banda de EC 4" parameterValue="0.1443486"/>
            <parameter index="17" name="Valor Q de banda de EC 4" parameterValue="0.0002"/>
            <parameter index="18" name="Ganancia de banda de EC 4" parameterValue="0.5"/>
            <parameter index="19" name="Activación de banda de EC 4" parameterValue="1"/>
            <parameter index="20" name="Frecuencia central de banda de EC 5" parameterValue="0.580118"/>
            <parameter index="21" name="Valor Q de banda de EC 5" parameterValue="0.0002"/>
            <parameter index="22" name="Ganancia de banda de EC 5" parameterValue="0.5"/>
            <parameter index="23" name="Activación de banda de EC 5" parameterValue="1"/>
            <parameter index="24" name="Ganancia maestra" parameterValue="0.6666667"/>
            <parameter index="25" name="Constant Q" parameterValue="1"/>
            <parameter index="26" name="Orden de filtro de estante inferior" parameterValue="0"/>
            <parameter index="27" name="Orden de filtro de estante superior" parameterValue="0"/>
            <parameter index="28" name="Modo ultrasilencioso" parameterValue="0"/>
            <parameter index="29" name="Activar estante inferior" parameterValue="1"/>
            <parameter index="30" name="Activar estante superior" parameterValue="1"/>
            <parameter index="31" name="Velocidad de muestreo original" parameterValue="0.2296875"/>
            <parameter index="32" name="Ancho de banda de EC 1" parameterValue="0.0025"/>
            <parameter index="33" name="Ancho de banda de EC 2" parameterValue="0.01"/>
            <parameter index="34" name="Ancho de banda de EC 3" parameterValue="0.04"/>
            <parameter index="35" name="Ancho de banda de EC 4" parameterValue="0.16"/>
            <parameter index="36" name="Ancho de banda de EC 5" parameterValue="0.64"/>
            <parameter index="37" name="Activación de filtro de pase alto" parameterValue="0"/>
            <parameter index="38" name="Frecuencia de límite de paso alto" parameterValue="0"/>
            <parameter index="39" name="Pendiente de paso alto" parameterValue="4"/>
            <parameter index="40" name="Activación de filtro de pase bajo" parameterValue="0"/>
            <parameter index="41" name="Frecuencia de límite de paso bajo" parameterValue="0.906945"/>
            <parameter index="42" name="Pendiente de paso bajo" parameterValue="4"/>
            <parameter index="43" name="Omitir" parameterValue="0"/>
            <parameter index="44" name="Rango de gráfico bajo" parameterValue="1"/>
          </component>
        </trackAudioParameters>
        <editParameter parameterIndex="0" slotIndex="4294967280"/>
        <sendList>
          <sendSlot preFader="false" sendOutputID="0" slotIndex="0">
            <component id="sendComponent" powered="false">
              <parameter index="0" name="Encendido/Apagado" parameterValue="0"/>
              <parameter index="1" name="Nivel" parameterValue="0"/>
            </component>
            <component id="sendPan" powered="true"/>
          </sendSlot>
          <sendSlot preFader="false" sendOutputID="0" slotIndex="1">
            <component id="sendComponent" powered="false">
              <parameter index="0" name="Encendido/Apagado" parameterValue="0"/>
              <parameter index="1" name="Nivel" parameterValue="0"/>
            </component>
            <component id="sendPan" powered="true"/>
          </sendSlot>
          <sendSlot preFader="false" sendOutputID="0" slotIndex="2">
            <component id="sendComponent" powered="false">
              <parameter index="0" name="Encendido/Apagado" parameterValue="0"/>
              <parameter index="1" name="Nivel" parameterValue="0"/>
            </component>
            <component id="sendPan" powered="true"/>
          </sendSlot>
          <sendSlot preFader="false" sendOutputID="0" slotIndex="3">
            <component id="sendComponent" powered="false">
              <parameter index="0" name="Encendido/Apagado" parameterValue="0"/>
              <parameter index="1" name="Nivel" parameterValue="0"/>
            </component>
            <component id="sendPan" powered="true"/>
          </sendSlot>
          <sendSlot preFader="false" sendOutputID="0" slotIndex="4">
            <component id="sendComponent" powered="false">
              <parameter index="0" name="Encendido/Apagado" parameterValue="0"/>
              <parameter index="1" name="Nivel" parameterValue="0"/>
            </component>
            <component id="sendPan" powered="true"/>
          </sendSlot>
          <sendSlot preFader="false" sendOutputID="0" slotIndex="5">
            <component id="sendComponent" powered="false">
              <parameter index="0" name="Encendido/Apagado" parameterValue="0"/>
              <parameter index="1" name="Nivel" parameterValue="0"/>
            </component>
            <component id="sendPan" powered="true"/>
          </sendSlot>
          <sendSlot preFader="false" sendOutputID="0" slotIndex="6">
            <component id="sendComponent" powered="false">
              <parameter index="0" name="Encendido/Apagado" parameterValue="0"/>
              <parameter index="1" name="Nivel" parameterValue="0"/>
            </component>
            <component id="sendPan" powered="true"/>
          </sendSlot>
          <sendSlot preFader="false" sendOutputID="0" slotIndex="7">
            <component id="sendComponent" powered="false">
              <parameter index="0" name="Encendido/Apagado" parameterValue="0"/>
              <parameter index="1" name="Nivel" parameterValue="0"/>
            </component>
            <component id="sendPan" powered="true"/>
          </sendSlot>
          <sendSlot preFader="false" sendOutputID="0" slotIndex="8">
            <component id="sendComponent" powered="false">
              <parameter index="0" name="Encendido/Apagado" parameterValue="0"/>
              <parameter index="1" name="Nivel" parameterValue="0"/>
            </component>
            <component id="sendPan" powered="true"/>
          </sendSlot>
          <sendSlot preFader="false" sendOutputID="0" slotIndex="9">
            <component id="sendComponent" powered="false">
              <parameter index="0" name="Encendido/Apagado" parameterValue="0"/>
              <parameter index="1" name="Nivel" parameterValue="0"/>
            </component>
            <component id="sendPan" powered="true"/>
          </sendSlot>
          <sendSlot preFader="false" sendOutputID="0" slotIndex="10">
            <component id="sendComponent" powered="false">
              <parameter index="0" name="Encendido/Apagado" parameterValue="0"/>
              <parameter index="1" name="Nivel" parameterValue="0"/>
            </component>
            <component id="sendPan" powered="true"/>
          </sendSlot>
          <sendSlot preFader="false" sendOutputID="0" slotIndex="11">
            <component id="sendComponent" powered="false">
              <parameter index="0" name="Encendido/Apagado" parameterValue="0"/>
              <parameter index="1" name="Nivel" parameterValue="0"/>
            </component>
            <component id="sendPan" powered="true"/>
          </sendSlot>
          <sendSlot preFader="false" sendOutputID="0" slotIndex="12">
            <component id="sendComponent" powered="false">
              <parameter index="0" name="Encendido/Apagado" parameterValue="0"/>
              <parameter index="1" name="Nivel" parameterValue="0"/>
            </component>
            <component id="sendPan" powered="true"/>
          </sendSlot>
          <sendSlot preFader="false" sendOutputID="0" slotIndex="13">
            <component id="sendComponent" powered="false">
              <parameter index="0" name="Encendido/Apagado" parameterValue="0"/>
              <parameter index="1" name="Nivel" parameterValue="0"/>
            </component>
            <component id="sendPan" powered="true"/>
          </sendSlot>
          <sendSlot preFader="false" sendOutputID="0" slotIndex="14">
            <component id="sendComponent" powered="false">
              <parameter index="0" name="Encendido/Apagado" parameterValue="0"/>
              <parameter index="1" name="Nivel" parameterValue="0"/>
            </component>
            <component id="sendPan" powered="true"/>
          </sendSlot>
          <sendSlot preFader="false" sendOutputID="0" slotIndex="15">
            <component id="sendComponent" powered="false">
              <parameter index="0" name="Encendido/Apagado" parameterValue="0"/>
              <parameter index="1" name="Nivel" parameterValue="0"/>
            </component>
            <component id="sendPan" powered="true"/>
          </sendSlot>
        </sendList>
      </metronomeTrack>
    </metronome>
  </session>

  <files>
    <file absolutePath="D:\Música\NEW MUSIC\Dark Horse (Feat Juicy J).mp3" id="0" mediaHandler="AmioMP3" relativePath="../../NEW MUSIC/Dark Horse (Feat Juicy J).mp3"/>
    <file absolutePath="D:\Vídeos\Sam Smith   Writing's On The Wall (from Spectre)[1].mp3" id="1" mediaHandler="AmioMP3" relativePath="../../../Vídeos/Sam Smith   Writing's On The Wall (from Spectre)[1].mp3"/>
    <file absolutePath="D:\Música\MECA SOY_2\DARK HORSE ACAPELLA\dark_horse_midi.mp3" id="2" mediaHandler="AmioMP3" relativePath="dark_horse_midi.mp3"/>
    <file absolutePath="D:\Música\MECA SOY_2\DARK HORSE ACAPELLA\Conformed Files\cover15_007.mp3" id="3" mediaHandler="AmioMP3" relativePath="Conformed Files/cover15_007.mp3"/>
    <file absolutePath="D:\Música\MECA SOY_2\DARK HORSE ACAPELLA\dark horse paso_caballo_estrofa.mp3" id="4" mediaHandler="AmioMP3" relativePath="dark horse paso_caballo_estrofa.mp3"/>
    <file absolutePath="D:\Música\MECA SOY_2\DARK HORSE ACAPELLA\dark horse acapella_Recorded\OTHERS_003.wav" id="5" mediaHandler="AmioWav" relativePath="dark horse acapella_Recorded/OTHERS_003.wav"/>
    <file absolutePath="D:\Música\MECA SOY_2\DARK HORSE ACAPELLA\dark horse hey_coro.mp3" id="6" mediaHandler="AmioMP3" relativePath="dark horse hey_coro.mp3"/>
    <file absolutePath="D:\Música\MECA SOY_2\DARK HORSE ACAPELLA\dark horse acapella_Recorded\OTHERS_008_2.wav" id="7" mediaHandler="AmioWav" relativePath="dark horse acapella_Recorded/OTHERS_008_2.wav"/>
    <file absolutePath="D:\Música\MECA SOY_2\DARK HORSE ACAPELLA\dark horse acapella_Recorded\OTHERS_004.wav" id="8" mediaHandler="AmioWav" relativePath="dark horse acapella_Recorded/OTHERS_004.wav"/>
    <file absolutePath="D:\Música\MECA SOY_2\DARK HORSE ACAPELLA\dark horse acapella_Recorded\VOZ DE FONDO_015.wav" id="9" mediaHandler="AmioWav" relativePath="dark horse acapella_Recorded/VOZ DE FONDO_015.wav"/>
    <file absolutePath="D:\Música\MECA SOY_2\DARK HORSE ACAPELLA\dark horse acapella_Recorded\OTHERS_002.wav" id="10" mediaHandler="AmioWav" relativePath="dark horse acapella_Recorded/OTHERS_002.wav"/>
    <file absolutePath="D:\Música\MECA SOY_2\DARK HORSE ACAPELLA\dark horse acapella_drums_primera_estrofa.mp3" id="11" mediaHandler="AmioMP3" relativePath="dark horse acapella_drums_primera_estrofa.mp3"/>
    <file absolutePath="D:\Música\MECA SOY_2\DARK HORSE ACAPELLA\DARK HORSE ACAPELLA_Recorded\OTHERS_003_3.wav" id="12" mediaHandler="AmioWav" relativePath="DARK HORSE ACAPELLA_Recorded/OTHERS_003_3.wav"/>
    <file absolutePath="D:\Música\MECA SOY_2\DARK HORSE ACAPELLA\007_voice.mp3" id="13" mediaHandler="AmioMP3" relativePath="007_voice.mp3"/>
    <file absolutePath="D:\Música\MECA SOY_2\DARK HORSE ACAPELLA\dark horse acapella_Recorded\OTHERS_008_1.wav" id="14" mediaHandler="AmioWav" relativePath="dark horse acapella_Recorded/OTHERS_008_1.wav"/>
    <file absolutePath="D:\Música\MECA SOY_2\DARK HORSE ACAPELLA\dark horse acapella_soprano_intro.mp3" id="15" mediaHandler="AmioMP3" relativePath="dark horse acapella_soprano_intro.mp3"/>
    <file absolutePath="D:\Música\MECA SOY_2\DARK HORSE ACAPELLA\dark horse acapella_Recorded\Pista 10_001.wav" id="16" mediaHandler="AmioWav" relativePath="dark horse acapella_Recorded/Pista 10_001.wav"/>
    <file absolutePath="D:\Música\MECA SOY_2\DARK HORSE ACAPELLA\dark horse acapella_soprano_primera_estrofa.mp3" id="17" mediaHandler="AmioMP3" relativePath="dark horse acapella_soprano_primera_estrofa.mp3"/>
    <file absolutePath="D:\Música\MECA SOY_2\DARK HORSE ACAPELLA\dark_horse soprano mejorado.mp3" id="18" mediaHandler="AmioMP3" relativePath="dark_horse soprano mejorado.mp3"/>
    <file absolutePath="D:\Música\MECA SOY_2\DARK HORSE ACAPELLA\Bounced Files\Rebote_1.wav" id="19" mediaHandler="AmioWav" relativePath="Bounced Files/Rebote_1.wav"/>
    <file absolutePath="D:\Música\MECA SOY_2\meca_soy_2\meca_soy_2_Recorded\soprano dark sample.mp3" id="20" mediaHandler="AmioMP3" relativePath="../meca_soy_2/meca_soy_2_Recorded/soprano dark sample.mp3"/>
    <file absolutePath="D:\Música\MECA SOY_2\DARK HORSE ACAPELLA\dark horse acapella_Recorded\dark horse acapella_soprano_estrofa_base_editado.mp3" id="21" mediaHandler="AmioMP3" relativePath="dark horse acapella_Recorded/dark horse acapella_soprano_estrofa_base_editado.mp3"/>
    <file absolutePath="D:\Música\MECA SOY_2\DARK HORSE ACAPELLA\dark horse acapella_Recorded\Pista 9_001_4.wav" id="22" mediaHandler="AmioWav" relativePath="dark horse acapella_Recorded/Pista 9_001_4.wav"/>
    <file absolutePath="D:\Música\MECA SOY_2\DARK HORSE ACAPELLA\dark horse acapella_Recorded\dark horse acapella_dark horse acapella_soprano_estrofa_editado_completa.mp3" id="23" mediaHandler="AmioMP3" relativePath="dark horse acapella_Recorded/dark horse acapella_dark horse acapella_soprano_estrofa_editado_completa.mp3"/>
    <file absolutePath="D:\Música\MECA SOY_2\DARK HORSE ACAPELLA\dark horse acapella_percusion2_primera estrofa.mp3" id="24" mediaHandler="AmioMP3" relativePath="dark horse acapella_percusion2_primera estrofa.mp3"/>
    <file absolutePath="D:\Música\MECA SOY_2\DARK HORSE ACAPELLA\dark horse acapella_percusion_coro.mp3" id="25" mediaHandler="AmioMP3" relativePath="dark horse acapella_percusion_coro.mp3"/>
    <file absolutePath="D:\Música\MECA SOY_2\DARK HORSE ACAPELLA\dark horse acapella_Recorded\PERCUSIÓN 2_005.wav" id="26" mediaHandler="AmioWav" relativePath="dark horse acapella_Recorded/PERCUSIÓN 2_005.wav"/>
    <file absolutePath="D:\Música\MECA SOY_2\DARK HORSE ACAPELLA\dark horse acapella_Recorded\PERCUSIÓN 2_004.wav" id="27" mediaHandler="AmioWav" relativePath="dark horse acapella_Recorded/PERCUSIÓN 2_004.wav"/>
    <file absolutePath="D:\Música\MECA SOY_2\DARK HORSE ACAPELLA\dark horse acapella_Recorded\GRABACIÓN_001.wav" id="28" mediaHandler="AmioWav" relativePath="dark horse acapella_Recorded/GRABACIÓN_001.wav"/>
    <file absolutePath="D:\Música\MECA SOY_2\DARK HORSE ACAPELLA\dark horse_percusion1_primera estrofa.mp3" id="29" mediaHandler="AmioMP3" relativePath="dark horse_percusion1_primera estrofa.mp3"/>
    <file absolutePath="D:\Música\MECA SOY_2\DARK HORSE ACAPELLA\dark horse acapella_Recorded\OTHERS_022.wav" id="30" mediaHandler="AmioWav" relativePath="dark horse acapella_Recorded/OTHERS_022.wav"/>
    <file absolutePath="D:\Música\MECA SOY_2\meca_soy_2\meca_soy_2_Recorded\Pista 9_001_1.wav" id="31" mediaHandler="AmioWav" relativePath="../meca_soy_2/meca_soy_2_Recorded/Pista 9_001_1.wav"/>
    <file absolutePath="D:\Música\MECA SOY_2\DARK HORSE ACAPELLA\darkhorse_percusion.mp3" id="32" mediaHandler="AmioMP3" relativePath="darkhorse_percusion.mp3"/>
    <file absolutePath="D:\Música\MECA SOY_2\meca_soy_2\meca_soy_2_Recorded\percusion 2.wav" id="33" mediaHandler="AmioWav" relativePath="../meca_soy_2/meca_soy_2_Recorded/percusion 2.wav"/>
    <file absolutePath="D:\Música\MECA SOY_2\DARK HORSE ACAPELLA\DARK HORSE ACAPELLA_Recorded\Pista 2_004.wav" id="34" mediaHandler="AmioWav" relativePath="DARK HORSE ACAPELLA_Recorded/Pista 2_004.wav"/>
    <file absolutePath="D:\Música\MECA SOY_2\DARK HORSE ACAPELLA\dark horse acapella_bajo_intro.mp3" id="35" mediaHandler="AmioMP3" relativePath="dark horse acapella_bajo_intro.mp3"/>
    <file absolutePath="D:\Música\MECA SOY_2\DARK HORSE ACAPELLA\dark horse acapella_bajo_primera_estrofa.mp3" id="36" mediaHandler="AmioMP3" relativePath="dark horse acapella_bajo_primera_estrofa.mp3"/>
    <file absolutePath="D:\Música\MECA SOY_2\DARK HORSE ACAPELLA\darkhorse_bass.mp3" id="37" mediaHandler="AmioMP3" relativePath="darkhorse_bass.mp3"/>
    <file absolutePath="D:\Música\MECA SOY_2\DARK HORSE ACAPELLA\dark horse acapella_Recorded\Pista 8_005.wav" id="38" mediaHandler="AmioWav" relativePath="dark horse acapella_Recorded/Pista 8_005.wav"/>
    <file absolutePath="D:\Música\MECA SOY_2\DARK HORSE ACAPELLA\dark horse acapella_Recorded\dark horse acapella_bajo_estrofa_editado.mp3" id="39" mediaHandler="AmioMP3" relativePath="dark horse acapella_Recorded/dark horse acapella_bajo_estrofa_editado.mp3"/>
    <file absolutePath="D:\Música\MECA SOY_2\DARK HORSE ACAPELLA\dark horse acapella_Recorded\Pista 3_008.wav" id="40" mediaHandler="AmioWav" relativePath="dark horse acapella_Recorded/Pista 3_008.wav"/>
    <file absolutePath="D:\Música\MECA SOY_2\DARK HORSE ACAPELLA\dark horse_bajo_intro_base.mp3" id="41" mediaHandler="AmioMP3" relativePath="dark horse_bajo_intro_base.mp3"/>
    <file absolutePath="D:\Música\MECA SOY_2\DARK HORSE ACAPELLA\dark horse_backvoices_primera_estrofa_editada.mp3" id="42" mediaHandler="AmioMP3" relativePath="dark horse_backvoices_primera_estrofa_editada.mp3"/>
    <file absolutePath="D:\Música\MECA SOY_2\DARK HORSE ACAPELLA\dark horse acapella_Recorded\VOZ DE FONDO_013.wav" id="43" mediaHandler="AmioWav" relativePath="dark horse acapella_Recorded/VOZ DE FONDO_013.wav"/>
    <file absolutePath="D:\Música\MECA SOY_2\DARK HORSE ACAPELLA\dark horse acapella_Recorded\VOZ DE FONDO_007.wav" id="44" mediaHandler="AmioWav" relativePath="dark horse acapella_Recorded/VOZ DE FONDO_007.wav"/>
    <file absolutePath="D:\Música\MECA SOY_2\DARK HORSE ACAPELLA\dark horse hey_estrofa.mp3" id="45" mediaHandler="AmioMP3" relativePath="dark horse hey_estrofa.mp3"/>
    <file absolutePath="D:\Música\MECA SOY_2\DARK HORSE ACAPELLA\dark horse_backvoices_segunda_estrofa_editada.mp3" id="46" mediaHandler="AmioMP3" relativePath="dark horse_backvoices_segunda_estrofa_editada.mp3"/>
    <file absolutePath="D:\Música\MECA SOY_2\DARK HORSE ACAPELLA\DARK HORSE ACAPELLA_Recorded\VOZ DE FONDO_002.wav" id="47" mediaHandler="AmioWav" relativePath="DARK HORSE ACAPELLA_Recorded/VOZ DE FONDO_002.wav"/>
    <file absolutePath="D:\Música\MECA SOY_2\DARK HORSE ACAPELLA\dark horse acapella_Recorded\VOZ DE FONDO_019.wav" id="48" mediaHandler="AmioWav" relativePath="dark horse acapella_Recorded/VOZ DE FONDO_019.wav"/>
    <file absolutePath="D:\Música\MECA SOY_2\DARK HORSE ACAPELLA\darkhorse_backvoices.mp3" id="49" mediaHandler="AmioMP3" relativePath="darkhorse_backvoices.mp3"/>
    <file absolutePath="D:\Música\MECA SOY_2\DARK HORSE ACAPELLA\dark horse dark horse_backvoices2_segunda_estrofa_editada.mp3" id="50" mediaHandler="AmioMP3" relativePath="dark horse dark horse_backvoices2_segunda_estrofa_editada.mp3"/>
    <file absolutePath="D:\Música\MECA SOY_2\DARK HORSE ACAPELLA\DARK HORSE ACAPELLA_Recorded\VOZ DE FONDO 2_002.wav" id="51" mediaHandler="AmioWav" relativePath="DARK HORSE ACAPELLA_Recorded/VOZ DE FONDO 2_002.wav"/>
    <file absolutePath="D:\Música\MECA SOY_2\DARK HORSE ACAPELLA\dark horse acapella_Recorded\VOZ DE FONDO 2_005.wav" id="52" mediaHandler="AmioWav" relativePath="dark horse acapella_Recorded/VOZ DE FONDO 2_005.wav"/>
    <file absolutePath="D:\Música\MECA SOY_2\DARK HORSE ACAPELLA\DARK HORSE ACAPELLA_Recorded\Pista 3_004.wav" id="53" mediaHandler="AmioWav" relativePath="DARK HORSE ACAPELLA_Recorded/Pista 3_004.wav"/>
    <file absolutePath="D:\Música\MECA SOY_2\DARK HORSE ACAPELLA\dark horse acapella_rap_intro.mp3" id="54" mediaHandler="AmioMP3" relativePath="dark horse acapella_rap_intro.mp3"/>
    <file absolutePath="D:\Música\MECA SOY_2\DARK HORSE ACAPELLA\dark horse_principal_primera_estrofa_editada.mp3" id="55" mediaHandler="AmioMP3" relativePath="dark horse_principal_primera_estrofa_editada.mp3"/>
    <file absolutePath="D:\Música\MECA SOY_2\DARK HORSE ACAPELLA\dark horse_principal_coro.mp3" id="56" mediaHandler="AmioMP3" relativePath="dark horse_principal_coro.mp3"/>
    <file absolutePath="D:\Música\MECA SOY_2\DARK HORSE ACAPELLA\dark horse principal_segunda_estrofa.mp3" id="57" mediaHandler="AmioMP3" relativePath="dark horse principal_segunda_estrofa.mp3"/>
    <file absolutePath="D:\Música\MECA SOY_2\DARK HORSE ACAPELLA\dark horse acapella_Recorded\PRINCIPAL_011_1.wav" id="58" mediaHandler="AmioWav" relativePath="dark horse acapella_Recorded/PRINCIPAL_011_1.wav"/>
    <file absolutePath="D:\Música\MECA SOY_2\DARK HORSE ACAPELLA\dark horse acapella_Recorded\PRINCIPAL_014_1.wav" id="59" mediaHandler="AmioWav" relativePath="dark horse acapella_Recorded/PRINCIPAL_014_1.wav"/>
    <file absolutePath="D:\Música\MECA SOY_2\DARK HORSE ACAPELLA\dark horse acapella_Recorded\PRINCIPAL_017.wav" id="60" mediaHandler="AmioWav" relativePath="dark horse acapella_Recorded/PRINCIPAL_017.wav"/>
    <file absolutePath="D:\Música\MECA SOY_2\DARK HORSE ACAPELLA\dark horse acapella_Recorded\PRINCIPAL_016.wav" id="61" mediaHandler="AmioWav" relativePath="dark horse acapella_Recorded/PRINCIPAL_016.wav"/>
    <file absolutePath="D:\Música\MECA SOY_2\DARK HORSE ACAPELLA\darkhorse_goodvoice.mp3" id="62" mediaHandler="AmioMP3" relativePath="darkhorse_goodvoice.mp3"/>
    <file absolutePath="D:\Música\MECA SOY_2\DARK HORSE ACAPELLA\Conformed Files\Katy Perry   Dark Horse (Studio Acapella)[1] 44100 1.mp3" id="63" mediaHandler="AmioMP3" relativePath="Conformed Files/Katy Perry   Dark Horse (Studio Acapella)[1] 44100 1.mp3"/>
  </files>

  <audioDevice inputID="232685c6-6548-49d8-846d-4141a3ef7560" outputID="232685c6-6548-49d8-846d-4141a3ef7560">
    <inputPort id="1" name="Entrada estéreo predeterminada"/>
    <inputPort id="2" name="[01M] Conexant HD Audio capture 1"/>
    <inputPort id="3" name="[02M] Conexant HD Audio capture 2"/>
    <inputPort id="4" name="[01S] Conexant HD Audio capture 1"/>
    <outputPort id="1" name="Salida predeterminada"/>
    <outputPort id="2" name="[01M] HD Audio output 1"/>
    <outputPort id="3" name="[02M] HD Audio output 2"/>
    <outputPort id="4" name="Salida estéreo predeterminada"/>
    <outputPort id="5" name="[01S] HD Audio output 1"/>
    <outputPort id="6" name="Salida envolvente predeterminada"/>
  </audioDevice>

</sesx>
